<svg width="108" height="26" viewBox="0 0 108 26" fill="none" xmlns="http://www.w3.org/2000/svg">
<rect width="108" height="26" rx="10" fill="#342951"/>
<path d="M17.4457 12.812C17.4457 11.996 17.6337 11.264 18.0097 10.616C18.3937 9.968 18.9097 9.464 19.5577 9.104C20.2137 8.736 20.9297 8.552 21.7057 8.552C22.5937 8.552 23.3817 8.772 24.0697 9.212C24.7657 9.644 25.2697 10.26 25.5817 11.06H23.9377C23.7217 10.62 23.4217 10.292 23.0377 10.076C22.6537 9.86 22.2097 9.752 21.7057 9.752C21.1537 9.752 20.6617 9.876 20.2297 10.124C19.7977 10.372 19.4577 10.728 19.2097 11.192C18.9697 11.656 18.8497 12.196 18.8497 12.812C18.8497 13.428 18.9697 13.968 19.2097 14.432C19.4577 14.896 19.7977 15.256 20.2297 15.512C20.6617 15.76 21.1537 15.884 21.7057 15.884C22.2097 15.884 22.6537 15.776 23.0377 15.56C23.4217 15.344 23.7217 15.016 23.9377 14.576H25.5817C25.2697 15.376 24.7657 15.992 24.0697 16.424C23.3817 16.856 22.5937 17.072 21.7057 17.072C20.9217 17.072 20.2057 16.892 19.5577 16.532C18.9097 16.164 18.3937 15.656 18.0097 15.008C17.6337 14.36 17.4457 13.628 17.4457 12.812ZM30.603 10.28C31.107 10.28 31.555 10.388 31.947 10.604C32.347 10.82 32.659 11.14 32.883 11.564C33.115 11.988 33.231 12.5 33.231 13.1V17H31.875V13.304C31.875 12.712 31.727 12.26 31.431 11.948C31.135 11.628 30.731 11.468 30.219 11.468C29.707 11.468 29.299 11.628 28.995 11.948C28.699 12.26 28.551 12.712 28.551 13.304V17H27.183V8.12H28.551V11.156C28.783 10.876 29.075 10.66 29.427 10.508C29.787 10.356 30.179 10.28 30.603 10.28ZM34.5199 13.664C34.5199 13 34.6559 12.412 34.9279 11.9C35.2079 11.388 35.5839 10.992 36.0559 10.712C36.5359 10.424 37.0639 10.28 37.6399 10.28C38.1599 10.28 38.6119 10.384 38.9959 10.592C39.3879 10.792 39.6999 11.044 39.9319 11.348V10.388H41.3119V17H39.9319V16.016C39.6999 16.328 39.3839 16.588 38.9839 16.796C38.5839 17.004 38.1279 17.108 37.6159 17.108C37.0479 17.108 36.5279 16.964 36.0559 16.676C35.5839 16.38 35.2079 15.972 34.9279 15.452C34.6559 14.924 34.5199 14.328 34.5199 13.664ZM39.9319 13.688C39.9319 13.232 39.8359 12.836 39.6439 12.5C39.4599 12.164 39.2159 11.908 38.9119 11.732C38.6079 11.556 38.2799 11.468 37.9279 11.468C37.5759 11.468 37.2479 11.556 36.9439 11.732C36.6399 11.9 36.3919 12.152 36.1999 12.488C36.0159 12.816 35.9239 13.208 35.9239 13.664C35.9239 14.12 36.0159 14.52 36.1999 14.864C36.3919 15.208 36.6399 15.472 36.9439 15.656C37.2559 15.832 37.5839 15.92 37.9279 15.92C38.2799 15.92 38.6079 15.832 38.9119 15.656C39.2159 15.48 39.4599 15.224 39.6439 14.888C39.8359 14.544 39.9319 14.144 39.9319 13.688ZM46.4447 10.28C46.9647 10.28 47.4287 10.388 47.8367 10.604C48.2527 10.82 48.5767 11.14 48.8087 11.564C49.0407 11.988 49.1567 12.5 49.1567 13.1V17H47.8007V13.304C47.8007 12.712 47.6527 12.26 47.3567 11.948C47.0607 11.628 46.6567 11.468 46.1447 11.468C45.6327 11.468 45.2247 11.628 44.9207 11.948C44.6247 12.26 44.4767 12.712 44.4767 13.304V17H43.1087V10.388H44.4767V11.144C44.7007 10.872 44.9847 10.66 45.3287 10.508C45.6807 10.356 46.0527 10.28 46.4447 10.28ZM53.5657 10.28C54.0777 10.28 54.5297 10.384 54.9217 10.592C55.3217 10.792 55.6337 11.044 55.8577 11.348V10.388H57.2377V17.108C57.2377 17.716 57.1097 18.256 56.8537 18.728C56.5977 19.208 56.2257 19.584 55.7377 19.856C55.2577 20.128 54.6817 20.264 54.0097 20.264C53.1137 20.264 52.3697 20.052 51.7777 19.628C51.1857 19.212 50.8497 18.644 50.7697 17.924H52.1257C52.2297 18.268 52.4497 18.544 52.7857 18.752C53.1297 18.968 53.5377 19.076 54.0097 19.076C54.5617 19.076 55.0057 18.908 55.3417 18.572C55.6857 18.236 55.8577 17.748 55.8577 17.108V16.004C55.6257 16.316 55.3097 16.58 54.9097 16.796C54.5177 17.004 54.0697 17.108 53.5657 17.108C52.9897 17.108 52.4617 16.964 51.9817 16.676C51.5097 16.38 51.1337 15.972 50.8537 15.452C50.5817 14.924 50.4457 14.328 50.4457 13.664C50.4457 13 50.5817 12.412 50.8537 11.9C51.1337 11.388 51.5097 10.992 51.9817 10.712C52.4617 10.424 52.9897 10.28 53.5657 10.28ZM55.8577 13.688C55.8577 13.232 55.7617 12.836 55.5697 12.5C55.3857 12.164 55.1417 11.908 54.8377 11.732C54.5337 11.556 54.2057 11.468 53.8537 11.468C53.5017 11.468 53.1737 11.556 52.8697 11.732C52.5657 11.9 52.3177 12.152 52.1257 12.488C51.9417 12.816 51.8497 13.208 51.8497 13.664C51.8497 14.12 51.9417 14.52 52.1257 14.864C52.3177 15.208 52.5657 15.472 52.8697 15.656C53.1817 15.832 53.5097 15.92 53.8537 15.92C54.2057 15.92 54.5337 15.832 54.8377 15.656C55.1417 15.48 55.3857 15.224 55.5697 14.888C55.7617 14.544 55.8577 14.144 55.8577 13.688ZM65.0945 13.532C65.0945 13.78 65.0785 14.004 65.0465 14.204H59.9945C60.0345 14.732 60.2305 15.156 60.5825 15.476C60.9345 15.796 61.3665 15.956 61.8785 15.956C62.6145 15.956 63.1345 15.648 63.4385 15.032H64.9145C64.7145 15.64 64.3505 16.14 63.8225 16.532C63.3025 16.916 62.6545 17.108 61.8785 17.108C61.2465 17.108 60.6785 16.968 60.1745 16.688C59.6785 16.4 59.2865 16 58.9985 15.488C58.7185 14.968 58.5785 14.368 58.5785 13.688C58.5785 13.008 58.7145 12.412 58.9865 11.9C59.2665 11.38 59.6545 10.98 60.1505 10.7C60.6545 10.42 61.2305 10.28 61.8785 10.28C62.5025 10.28 63.0585 10.416 63.5465 10.688C64.0345 10.96 64.4145 11.344 64.6865 11.84C64.9585 12.328 65.0945 12.892 65.0945 13.532ZM63.6665 13.1C63.6585 12.596 63.4785 12.192 63.1265 11.888C62.7745 11.584 62.3385 11.432 61.8185 11.432C61.3465 11.432 60.9425 11.584 60.6065 11.888C60.2705 12.184 60.0705 12.588 60.0065 13.1H63.6665Z" fill="white"/>
<path d="M79.0676 4.01672C78.621 4.11166 78.287 4.27694 77.9916 4.5477C77.7419 4.77979 77.5344 5.0822 77.45 5.33539L77.3903 5.50769H76.8909C76.4268 5.50769 76.3775 5.51472 76.2685 5.58857C76.2017 5.63077 76.1138 5.73626 76.0716 5.82417C75.9978 5.96834 75.9907 6.02812 75.9907 6.6013C75.9907 7.26943 76.0224 7.51206 76.1349 7.74766C76.2545 7.99381 76.4971 8.23645 76.7573 8.36304L76.9929 8.47908L79.2927 8.48963C81.515 8.50018 81.603 8.49666 81.828 8.42985C82.2324 8.30326 82.5735 7.96568 82.6895 7.57184C82.7669 7.30459 82.7669 5.97186 82.686 5.80307C82.5735 5.56395 82.4715 5.52879 81.8878 5.50769L81.3674 5.49011L81.283 5.28264C81.0368 4.6743 80.5199 4.23122 79.8729 4.06595C79.6267 4.00266 79.2505 3.98156 79.0676 4.01672Z" fill="white"/>
<path d="M74.556 6.31721C74.1832 6.41567 73.8984 6.58094 73.6171 6.86226C73.3323 7.14709 73.1705 7.42841 73.072 7.81521C73.0052 8.07895 73.0017 8.22312 73.0017 12.9984C73.0017 17.7738 73.0052 17.9179 73.072 18.1817C73.1705 18.5685 73.3323 18.8498 73.6171 19.1346C73.9019 19.4195 74.1832 19.5812 74.57 19.6797C74.8303 19.7465 74.9674 19.75 77.7173 19.75H80.5972L80.6148 19.6691C80.6253 19.6269 80.664 19.4019 80.7027 19.1698C80.8434 18.3575 80.9559 18.1289 81.5009 17.5663C81.719 17.3412 81.8983 17.1478 81.8983 17.1338C81.8983 17.1232 80.4917 17.1127 78.7722 17.1127H75.6496L75.5335 17.0318C75.3648 16.9193 75.2804 16.7892 75.2628 16.6098C75.2382 16.4129 75.3507 16.1949 75.5335 16.0824L75.6566 16.005L79.3665 15.998L83.0763 15.9874L84.4231 14.6441L85.7699 13.2973L85.7593 10.6248C85.7488 8.14927 85.7418 7.93829 85.682 7.75895C85.4358 7.01347 84.9048 6.49655 84.2016 6.31721C84.0504 6.27853 83.8359 6.24688 83.7268 6.24688H83.5229L83.5053 6.88687C83.4948 7.31588 83.4701 7.59368 83.4315 7.72379C83.231 8.42707 82.6473 9.00025 81.9475 9.17959C81.6275 9.26047 77.137 9.26399 76.817 9.18311C76.0856 8.99674 75.4562 8.34971 75.3015 7.62181C75.2733 7.47764 75.2522 7.17171 75.2522 6.81655V6.24688L75.0342 6.2504C74.9111 6.2504 74.6966 6.28205 74.556 6.31721ZM83.2345 11.2156C83.5053 11.3949 83.5792 11.7571 83.3963 11.9927C83.1888 12.2635 83.551 12.2424 79.384 12.2424H75.6566L75.5335 12.165C75.3507 12.0525 75.2382 11.8345 75.2628 11.6376C75.2804 11.4582 75.3648 11.3281 75.5335 11.2121L75.6496 11.1347H79.384H83.1185L83.2345 11.2156ZM83.2064 13.6384C83.6003 13.86 83.5897 14.4191 83.1853 14.6125C83.0376 14.6863 83.006 14.6863 79.37 14.6863C75.2874 14.6863 75.5582 14.7039 75.3648 14.4472C75.2311 14.2714 75.2276 13.9795 75.3648 13.8002C75.5582 13.547 75.2768 13.5611 79.3805 13.5611H83.0658L83.2064 13.6384Z" fill="white"/>
<path d="M88.6252 12.801C88.5443 12.8256 88.4002 12.8924 88.3087 12.9452C88.1013 13.0647 82.38 18.7614 82.3027 18.9266C82.2745 18.9899 82.1514 19.5948 82.0319 20.2699L81.8174 21.5007L81.9018 21.673C81.9932 21.8558 82.1901 22 82.3554 22C82.5312 22 84.8169 21.5815 84.9118 21.5288C84.9646 21.5007 86.3184 20.1679 87.9149 18.5644C90.4538 16.0185 90.83 15.6282 90.8968 15.47C91.0445 15.1148 91.0304 14.7175 90.8581 14.3447C90.7491 14.1021 89.6133 12.9698 89.3707 12.8573C89.1562 12.7588 88.8256 12.7342 88.6252 12.801Z" fill="white"/>
</svg>
