<svg width="21" height="23" viewBox="0 0 21 23" fill="none" xmlns="http://www.w3.org/2000/svg">
<path d="M7.25 0C7.05109 0 6.86032 0.0790175 6.71967 0.21967C6.57902 0.360322 6.5 0.551088 6.5 0.75C6.5 0.948912 6.57902 1.13968 6.71967 1.28033C6.86032 1.42098 7.05109 1.5 7.25 1.5H13.75C13.9489 1.5 14.1397 1.42098 14.2803 1.28033C14.421 1.13968 14.5 0.948912 14.5 0.75C14.5 0.551088 14.421 0.360322 14.2803 0.21967C14.1397 0.0790175 13.9489 0 13.75 0H7.25ZM10.5 6.5C10.6989 6.5 10.8897 6.57902 11.0303 6.71967C11.171 6.86032 11.25 7.05109 11.25 7.25V13.25C11.25 13.4489 11.171 13.6397 11.0303 13.7803C10.8897 13.921 10.6989 14 10.5 14C10.3011 14 10.1103 13.921 9.96967 13.7803C9.82902 13.6397 9.75 13.4489 9.75 13.25V7.25C9.75 7.05109 9.82902 6.86032 9.96967 6.71967C10.1103 6.57902 10.3011 6.5 10.5 6.5ZM10.5 3C4.977 3 0.5 7.477 0.5 13C0.5 18.523 4.977 23 10.5 23C16.023 23 20.5 18.523 20.5 13C20.5 7.477 16.023 3 10.5 3ZM2 13C2 10.7457 2.89553 8.58365 4.48959 6.98959C6.08365 5.39553 8.24566 4.5 10.5 4.5C12.7543 4.5 14.9163 5.39553 16.5104 6.98959C18.1045 8.58365 19 10.7457 19 13C19 15.2543 18.1045 17.4163 16.5104 19.0104C14.9163 20.6045 12.7543 21.5 10.5 21.5C8.24566 21.5 6.08365 20.6045 4.48959 19.0104C2.89553 17.4163 2 15.2543 2 13ZM18.78 3.22C18.7113 3.14631 18.6285 3.08721 18.5365 3.04622C18.4445 3.00523 18.3452 2.98319 18.2445 2.98141C18.1438 2.97963 18.0438 2.99816 17.9504 3.03588C17.857 3.0736 17.7722 3.12974 17.701 3.20096C17.6297 3.27218 17.5736 3.35701 17.5359 3.4504C17.4982 3.54379 17.4796 3.64382 17.4814 3.74452C17.4832 3.84523 17.5052 3.94454 17.5462 4.03654C17.5872 4.12854 17.6463 4.21134 17.72 4.28L19.22 5.78C19.2887 5.85369 19.3715 5.91279 19.4635 5.95378C19.5555 5.99477 19.6548 6.01682 19.7555 6.01859C19.8562 6.02037 19.9562 6.00184 20.0496 5.96412C20.143 5.9264 20.2278 5.87026 20.299 5.79904C20.3703 5.72782 20.4264 5.64299 20.4641 5.5496C20.5018 5.45621 20.5204 5.35618 20.5186 5.25548C20.5168 5.15478 20.4948 5.05546 20.4538 4.96346C20.4128 4.87146 20.3537 4.78866 20.28 4.72L18.78 3.22Z" fill="#747474"/>
</svg>
