<svg width="70" height="70" viewBox="0 0 70 70" fill="none" xmlns="http://www.w3.org/2000/svg">
<rect width="70" height="70" rx="10" fill="url(#paint0_linear_116_438)"/>
<path d="M34.0234 10.0586C31.6797 10.4883 29.8047 11.8555 28.7988 13.8867C28.3105 14.8828 28.125 15.6641 28.125 16.7871C28.1152 18.125 28.3008 18.9258 28.8379 20.0098L29.2969 20.9277L25.8789 20.957C22.4805 20.9961 22.4414 20.9961 21.5918 21.2598C18.2129 22.3047 15.9375 24.8144 15.1855 28.3105C15.127 28.5742 14.2578 33.4375 13.252 39.1016L11.4258 49.4043L11.416 50.9668C11.416 52.3145 11.4453 52.6367 11.6406 53.3105C12.0898 54.8633 12.9199 56.2598 14.1113 57.4512C15.127 58.457 16.6309 59.2969 18.2031 59.7266L19.0332 59.9512H35H50.9668L51.7969 59.7266C53.3691 59.2969 54.873 58.457 55.8887 57.4512C57.0801 56.2598 57.9102 54.8633 58.3594 53.3105C58.5547 52.6367 58.584 52.3145 58.584 50.9668L58.5742 49.4043L56.748 39.1016C55.7422 33.4375 54.873 28.5742 54.8145 28.3105C54.0625 24.8144 51.7871 22.3047 48.4082 21.2598C47.5586 20.9961 47.5195 20.9961 44.1602 20.957C42.2852 20.9375 40.7617 20.8984 40.7617 20.8594C40.7617 20.8203 40.957 20.4102 41.1914 19.9414C41.6992 18.916 41.8848 18.0957 41.875 16.7871C41.8652 13.7891 39.9023 11.2109 36.9043 10.2734C36.3281 10.0977 34.5508 9.96093 34.0234 10.0586ZM36.3086 13.1934C39.3457 14.2578 39.8828 18.418 37.207 20.1953C34.3359 22.0996 30.5762 19.707 31.1035 16.3184C31.3574 14.6973 32.6953 13.3105 34.2871 13.0273C34.8535 12.9297 35.7812 12.998 36.3086 13.1934ZM47.2363 24.0234C48.6035 24.3262 50.0977 25.3125 50.8398 26.3867C51.2305 26.9531 51.6504 27.8223 51.7969 28.3496C51.8555 28.5742 52.7637 33.6035 53.8086 39.5215C55.8008 50.8301 55.8496 51.1816 55.5566 52.334C54.9414 54.7754 52.9883 56.5625 50.5176 56.9629C49.6484 57.1094 20.3516 57.1094 19.4824 56.9629C18.0957 56.748 17.0703 56.2109 16.0449 55.1953C14.9609 54.1113 14.2969 52.5391 14.2969 51.0156C14.2969 50.498 14.8438 47.1582 16.1914 39.5215C17.2363 33.6035 18.1445 28.5742 18.2031 28.3496C18.623 26.7969 19.7852 25.3711 21.2402 24.5996C22.6758 23.8379 21.9238 23.8867 34.9316 23.8769C45.2637 23.8672 46.6113 23.8867 47.2363 24.0234Z" fill="#4F5052"/>
<path d="M20.3049 47V39.678L18.6949 40.882L17.7849 39.468L20.6969 37.382H22.2229V47H20.3049ZM25.2348 47.112C24.9175 47.112 24.6468 47.0047 24.4228 46.79C24.2081 46.5753 24.1008 46.314 24.1008 46.006C24.1008 45.698 24.2081 45.4367 24.4228 45.222C24.6468 44.998 24.9175 44.886 25.2348 44.886C25.5428 44.886 25.8088 44.998 26.0328 45.222C26.2568 45.4367 26.3688 45.698 26.3688 46.006C26.3688 46.314 26.2568 46.5753 26.0328 46.79C25.8088 47.0047 25.5428 47.112 25.2348 47.112ZM31.2482 40.798C32.0882 40.798 32.7976 41.0827 33.3762 41.652C33.9549 42.2213 34.2442 42.968 34.2442 43.892C34.2442 44.8347 33.9129 45.6093 33.2502 46.216C32.5969 46.8133 31.7802 47.112 30.8002 47.112C29.3909 47.112 28.2849 46.608 27.4822 45.6L28.8542 44.494C29.3022 45.082 29.9182 45.376 30.7022 45.376C31.1596 45.376 31.5422 45.2313 31.8502 44.942C32.1582 44.6527 32.3122 44.2933 32.3122 43.864C32.3122 43.388 32.1442 43.0193 31.8082 42.758C31.4722 42.4873 31.0896 42.352 30.6602 42.352C30.1096 42.352 29.6289 42.5153 29.2182 42.842L28.2102 42.464L28.5042 37.382H33.7542V39.118H30.1562L30.0442 41.008C30.4922 40.868 30.8936 40.798 31.2482 40.798ZM38.9162 43.01H38.9022L37.9222 44.172V47H35.9622V37.06H37.9222V41.442H37.9362L41.3802 37.06H43.8722L40.2042 41.442L43.9842 47H41.5622L38.9162 43.01ZM49.7167 40.168H51.5367V46.216C51.5367 48.6613 50.3513 49.884 47.9807 49.884C46.9353 49.884 45.9973 49.6553 45.1667 49.198L45.6007 47.644C46.366 48.0733 47.1033 48.288 47.8127 48.288C48.4287 48.288 48.9047 48.1433 49.2407 47.854C49.586 47.5647 49.7587 47.2007 49.7587 46.762V46.076H49.7167C49.2313 46.608 48.5687 46.874 47.7287 46.874C46.7767 46.874 45.9927 46.5613 45.3767 45.936C44.77 45.3107 44.4667 44.5033 44.4667 43.514C44.4667 42.506 44.7653 41.68 45.3627 41.036C45.96 40.3827 46.716 40.056 47.6307 40.056C48.452 40.056 49.1333 40.3267 49.6747 40.868H49.7167V40.168ZM46.8187 44.746C47.1453 45.0633 47.5607 45.222 48.0647 45.222C48.5687 45.222 48.9793 45.0587 49.2967 44.732C49.6233 44.396 49.7867 43.9667 49.7867 43.444C49.7867 42.9307 49.6233 42.5153 49.2967 42.198C48.97 41.8807 48.5593 41.722 48.0647 41.722C47.5513 41.722 47.1313 41.8853 46.8047 42.212C46.4873 42.5293 46.3287 42.9447 46.3287 43.458C46.3287 43.99 46.492 44.4193 46.8187 44.746Z" fill="#4F5052"/>
<defs>
<linearGradient id="paint0_linear_116_438" x1="35" y1="0" x2="35" y2="70" gradientUnits="userSpaceOnUse">
<stop stop-color="#F9CF56" stop-opacity="0.52"/>
<stop offset="1" stop-color="#F9CF56" stop-opacity="0.72"/>
</linearGradient>
</defs>
</svg>
