<svg width="70" height="70" viewBox="0 0 70 70" fill="none" xmlns="http://www.w3.org/2000/svg">
<rect width="70" height="70" rx="10" fill="url(#paint0_linear_116_359)"/>
<path d="M34.0234 10.0586C31.6797 10.4883 29.8047 11.8555 28.7988 13.8867C28.3105 14.8828 28.125 15.6641 28.125 16.7871C28.1152 18.125 28.3008 18.9258 28.8379 20.0098L29.2969 20.9277L25.8789 20.957C22.4805 20.9961 22.4414 20.9961 21.5918 21.2598C18.2129 22.3047 15.9375 24.8144 15.1855 28.3105C15.127 28.5742 14.2578 33.4375 13.252 39.1016L11.4258 49.4043L11.416 50.9668C11.416 52.3145 11.4453 52.6367 11.6406 53.3105C12.0898 54.8633 12.9199 56.2598 14.1113 57.4512C15.127 58.457 16.6309 59.2969 18.2031 59.7266L19.0332 59.9512H35H50.9668L51.7969 59.7266C53.3691 59.2969 54.873 58.457 55.8887 57.4512C57.0801 56.2598 57.9102 54.8633 58.3594 53.3105C58.5547 52.6367 58.584 52.3145 58.584 50.9668L58.5742 49.4043L56.748 39.1016C55.7422 33.4375 54.873 28.5742 54.8145 28.3105C54.0625 24.8144 51.7871 22.3047 48.4082 21.2598C47.5586 20.9961 47.5195 20.9961 44.1602 20.957C42.2852 20.9375 40.7617 20.8984 40.7617 20.8594C40.7617 20.8203 40.957 20.4102 41.1914 19.9414C41.6992 18.916 41.8848 18.0957 41.875 16.7871C41.8652 13.7891 39.9023 11.2109 36.9043 10.2734C36.3281 10.0977 34.5508 9.96093 34.0234 10.0586ZM36.3086 13.1934C39.3457 14.2578 39.8828 18.418 37.207 20.1953C34.3359 22.0996 30.5762 19.707 31.1035 16.3184C31.3574 14.6973 32.6953 13.3105 34.2871 13.0273C34.8535 12.9297 35.7812 12.998 36.3086 13.1934ZM47.2363 24.0234C48.6035 24.3262 50.0977 25.3125 50.8398 26.3867C51.2305 26.9531 51.6504 27.8223 51.7969 28.3496C51.8555 28.5742 52.7637 33.6035 53.8086 39.5215C55.8008 50.8301 55.8496 51.1816 55.5566 52.334C54.9414 54.7754 52.9883 56.5625 50.5176 56.9629C49.6484 57.1094 20.3516 57.1094 19.4824 56.9629C18.0957 56.748 17.0703 56.2109 16.0449 55.1953C14.9609 54.1113 14.2969 52.5391 14.2969 51.0156C14.2969 50.498 14.8438 47.1582 16.1914 39.5215C17.2363 33.6035 18.1445 28.5742 18.2031 28.3496C18.623 26.7969 19.7852 25.3711 21.2402 24.5996C22.6758 23.8379 21.9238 23.8867 34.9316 23.8769C45.2637 23.8672 46.6113 23.8867 47.2363 24.0234Z" fill="#4F5052"/>
<path d="M26.1839 46.9883V39.6663L24.5739 40.8703L23.6639 39.4563L26.5759 37.3703H28.1019V46.9883H26.1839ZM33.6337 47.1003C32.5137 47.1003 31.6084 46.6663 30.9177 45.7983C30.2364 44.9209 29.8957 43.7169 29.8957 42.1863C29.8957 40.7023 30.2317 39.5123 30.9037 38.6163C31.5757 37.7109 32.4857 37.2583 33.6337 37.2583C34.7724 37.2583 35.6824 37.6969 36.3637 38.5743C37.045 39.4516 37.3857 40.6556 37.3857 42.1863C37.3857 43.6703 37.0497 44.8603 36.3777 45.7563C35.7057 46.6523 34.791 47.1003 33.6337 47.1003ZM32.3177 44.4963C32.6444 45.0563 33.0877 45.3363 33.6477 45.3363C34.2077 45.3363 34.6464 45.0656 34.9637 44.5243C35.281 43.9736 35.4397 43.1943 35.4397 42.1863C35.4397 41.2063 35.281 40.4363 34.9637 39.8763C34.6464 39.3163 34.2077 39.0363 33.6477 39.0363C33.0877 39.0363 32.6444 39.3116 32.3177 39.8623C32.0004 40.4036 31.8417 41.1783 31.8417 42.1863C31.8417 43.1569 32.0004 43.9269 32.3177 44.4963ZM43.8377 40.1563H45.6577V46.2043C45.6577 48.6496 44.4724 49.8723 42.1017 49.8723C41.0564 49.8723 40.1184 49.6436 39.2877 49.1863L39.7217 47.6323C40.4871 48.0616 41.2244 48.2763 41.9337 48.2763C42.5497 48.2763 43.0257 48.1316 43.3617 47.8423C43.7071 47.5529 43.8797 47.1889 43.8797 46.7503V46.0643H43.8377C43.3524 46.5963 42.6897 46.8623 41.8497 46.8623C40.8977 46.8623 40.1137 46.5496 39.4977 45.9243C38.8911 45.2989 38.5877 44.4916 38.5877 43.5023C38.5877 42.4943 38.8864 41.6683 39.4837 41.0243C40.0811 40.3709 40.8371 40.0443 41.7517 40.0443C42.5731 40.0443 43.2544 40.3149 43.7957 40.8563H43.8377V40.1563ZM40.9397 44.7343C41.2664 45.0516 41.6817 45.2103 42.1857 45.2103C42.6897 45.2103 43.1004 45.0469 43.4177 44.7203C43.7444 44.3843 43.9077 43.9549 43.9077 43.4323C43.9077 42.9189 43.7444 42.5036 43.4177 42.1863C43.0911 41.8689 42.6804 41.7103 42.1857 41.7103C41.6724 41.7103 41.2524 41.8736 40.9257 42.2003C40.6084 42.5176 40.4497 42.9329 40.4497 43.4463C40.4497 43.9783 40.6131 44.4076 40.9397 44.7343Z" fill="#4F5052"/>
<defs>
<linearGradient id="paint0_linear_116_359" x1="35" y1="0" x2="35" y2="70" gradientUnits="userSpaceOnUse">
<stop stop-color="#F9CF56" stop-opacity="0.52"/>
<stop offset="1" stop-color="#F9CF56" stop-opacity="0.72"/>
</linearGradient>
</defs>
</svg>
