<svg width="70" height="70" viewBox="0 0 70 70" fill="none" xmlns="http://www.w3.org/2000/svg">
<rect width="70" height="70" rx="10" fill="url(#paint0_linear_116_431)"/>
<path d="M34.0234 10.0586C31.6797 10.4883 29.8047 11.8555 28.7988 13.8867C28.3105 14.8828 28.125 15.6641 28.125 16.7871C28.1152 18.125 28.3008 18.9258 28.8379 20.0098L29.2969 20.9277L25.8789 20.957C22.4805 20.9961 22.4414 20.9961 21.5918 21.2598C18.2129 22.3047 15.9375 24.8144 15.1855 28.3105C15.127 28.5742 14.2578 33.4375 13.252 39.1016L11.4258 49.4043L11.416 50.9668C11.416 52.3145 11.4453 52.6367 11.6406 53.3105C12.0898 54.8633 12.9199 56.2598 14.1113 57.4512C15.127 58.457 16.6309 59.2969 18.2031 59.7266L19.0332 59.9512H35H50.9668L51.7969 59.7266C53.3691 59.2969 54.873 58.457 55.8887 57.4512C57.0801 56.2598 57.9102 54.8633 58.3594 53.3105C58.5547 52.6367 58.584 52.3145 58.584 50.9668L58.5742 49.4043L56.748 39.1016C55.7422 33.4375 54.873 28.5742 54.8145 28.3105C54.0625 24.8144 51.7871 22.3047 48.4082 21.2598C47.5586 20.9961 47.5195 20.9961 44.1602 20.957C42.2852 20.9375 40.7617 20.8984 40.7617 20.8594C40.7617 20.8203 40.957 20.4102 41.1914 19.9414C41.6992 18.916 41.8848 18.0957 41.875 16.7871C41.8652 13.7891 39.9023 11.2109 36.9043 10.2734C36.3281 10.0977 34.5508 9.96093 34.0234 10.0586ZM36.3086 13.1934C39.3457 14.2578 39.8828 18.418 37.207 20.1953C34.3359 22.0996 30.5762 19.707 31.1035 16.3184C31.3574 14.6973 32.6953 13.3105 34.2871 13.0273C34.8535 12.9297 35.7812 12.998 36.3086 13.1934ZM47.2363 24.0234C48.6035 24.3262 50.0977 25.3125 50.8398 26.3867C51.2305 26.9531 51.6504 27.8223 51.7969 28.3496C51.8555 28.5742 52.7637 33.6035 53.8086 39.5215C55.8008 50.8301 55.8496 51.1816 55.5566 52.334C54.9414 54.7754 52.9883 56.5625 50.5176 56.9629C49.6484 57.1094 20.3516 57.1094 19.4824 56.9629C18.0957 56.748 17.0703 56.2109 16.0449 55.1953C14.9609 54.1113 14.2969 52.5391 14.2969 51.0156C14.2969 50.498 14.8438 47.1582 16.1914 39.5215C17.2363 33.6035 18.1445 28.5742 18.2031 28.3496C18.623 26.7969 19.7852 25.3711 21.2402 24.5996C22.6758 23.8379 21.9238 23.8867 34.9316 23.8769C45.2637 23.8672 46.6113 23.8867 47.2363 24.0234Z" fill="#4F5052"/>
<path d="M21.7678 46.9883V39.6663L20.1578 40.8703L19.2478 39.4563L22.1598 37.3703H23.6858V46.9883H21.7678ZM29.2177 47.1003C28.0977 47.1003 27.1924 46.6663 26.5017 45.7983C25.8204 44.9209 25.4797 43.7169 25.4797 42.1863C25.4797 40.7023 25.8157 39.5123 26.4877 38.6163C27.1597 37.7109 28.0697 37.2583 29.2177 37.2583C30.3564 37.2583 31.2664 37.6969 31.9477 38.5743C32.629 39.4516 32.9697 40.6556 32.9697 42.1863C32.9697 43.6703 32.6337 44.8603 31.9617 45.7563C31.2897 46.6523 30.375 47.1003 29.2177 47.1003ZM27.9017 44.4963C28.2284 45.0563 28.6717 45.3363 29.2317 45.3363C29.7917 45.3363 30.2304 45.0656 30.5477 44.5243C30.865 43.9736 31.0237 43.1943 31.0237 42.1863C31.0237 41.2063 30.865 40.4363 30.5477 39.8763C30.2304 39.3163 29.7917 39.0363 29.2317 39.0363C28.6717 39.0363 28.2284 39.3116 27.9017 39.8623C27.5844 40.4036 27.4257 41.1783 27.4257 42.1863C27.4257 43.1569 27.5844 43.9269 27.9017 44.4963ZM38.0497 47.1003C36.9297 47.1003 36.0244 46.6663 35.3337 45.7983C34.6524 44.9209 34.3117 43.7169 34.3117 42.1863C34.3117 40.7023 34.6477 39.5123 35.3197 38.6163C35.9917 37.7109 36.9017 37.2583 38.0497 37.2583C39.1884 37.2583 40.0984 37.6969 40.7797 38.5743C41.4611 39.4516 41.8017 40.6556 41.8017 42.1863C41.8017 43.6703 41.4657 44.8603 40.7937 45.7563C40.1217 46.6523 39.2071 47.1003 38.0497 47.1003ZM36.7337 44.4963C37.0604 45.0563 37.5037 45.3363 38.0637 45.3363C38.6237 45.3363 39.0624 45.0656 39.3797 44.5243C39.6971 43.9736 39.8557 43.1943 39.8557 42.1863C39.8557 41.2063 39.6971 40.4363 39.3797 39.8763C39.0624 39.3163 38.6237 39.0363 38.0637 39.0363C37.5037 39.0363 37.0604 39.3116 36.7337 39.8623C36.4164 40.4036 36.2577 41.1783 36.2577 42.1863C36.2577 43.1569 36.4164 43.9269 36.7337 44.4963ZM48.2538 40.1563H50.0738V46.2043C50.0738 48.6496 48.8884 49.8723 46.5178 49.8723C45.4724 49.8723 44.5344 49.6436 43.7038 49.1863L44.1378 47.6323C44.9031 48.0616 45.6404 48.2763 46.3498 48.2763C46.9658 48.2763 47.4418 48.1316 47.7778 47.8423C48.1231 47.5529 48.2958 47.1889 48.2958 46.7503V46.0643H48.2538C47.7684 46.5963 47.1058 46.8623 46.2658 46.8623C45.3138 46.8623 44.5298 46.5496 43.9138 45.9243C43.3071 45.2989 43.0038 44.4916 43.0038 43.5023C43.0038 42.4943 43.3024 41.6683 43.8998 41.0243C44.4971 40.3709 45.2531 40.0443 46.1678 40.0443C46.9891 40.0443 47.6704 40.3149 48.2118 40.8563H48.2538V40.1563ZM45.3558 44.7343C45.6824 45.0516 46.0978 45.2103 46.6018 45.2103C47.1058 45.2103 47.5164 45.0469 47.8338 44.7203C48.1604 44.3843 48.3238 43.9549 48.3238 43.4323C48.3238 42.9189 48.1604 42.5036 47.8338 42.1863C47.5071 41.8689 47.0964 41.7103 46.6018 41.7103C46.0884 41.7103 45.6684 41.8736 45.3418 42.2003C45.0244 42.5176 44.8658 42.9329 44.8658 43.4463C44.8658 43.9783 45.0291 44.4076 45.3558 44.7343Z" fill="#4F5052"/>
<defs>
<linearGradient id="paint0_linear_116_431" x1="35" y1="0" x2="35" y2="70" gradientUnits="userSpaceOnUse">
<stop stop-color="#F9CF56" stop-opacity="0.52"/>
<stop offset="1" stop-color="#F9CF56" stop-opacity="0.72"/>
</linearGradient>
</defs>
</svg>
