<svg width="70" height="70" viewBox="0 0 70 70" fill="none" xmlns="http://www.w3.org/2000/svg">
<rect width="70" height="70" rx="10" fill="url(#paint0_linear_116_373)"/>
<path d="M34.0234 10.0586C31.6797 10.4883 29.8047 11.8555 28.7988 13.8867C28.3105 14.8828 28.125 15.6641 28.125 16.7871C28.1152 18.125 28.3008 18.9258 28.8379 20.0098L29.2969 20.9277L25.8789 20.957C22.4805 20.9961 22.4414 20.9961 21.5918 21.2598C18.2129 22.3047 15.9375 24.8144 15.1855 28.3105C15.127 28.5742 14.2578 33.4375 13.252 39.1016L11.4258 49.4043L11.416 50.9668C11.416 52.3145 11.4453 52.6367 11.6406 53.3105C12.0898 54.8633 12.9199 56.2598 14.1113 57.4512C15.127 58.457 16.6309 59.2969 18.2031 59.7266L19.0332 59.9512H35H50.9668L51.7969 59.7266C53.3691 59.2969 54.873 58.457 55.8887 57.4512C57.0801 56.2598 57.9102 54.8633 58.3594 53.3105C58.5547 52.6367 58.584 52.3145 58.584 50.9668L58.5742 49.4043L56.748 39.1016C55.7422 33.4375 54.873 28.5742 54.8145 28.3105C54.0625 24.8144 51.7871 22.3047 48.4082 21.2598C47.5586 20.9961 47.5195 20.9961 44.1602 20.957C42.2852 20.9375 40.7617 20.8984 40.7617 20.8594C40.7617 20.8203 40.957 20.4102 41.1914 19.9414C41.6992 18.916 41.8848 18.0957 41.875 16.7871C41.8652 13.7891 39.9023 11.2109 36.9043 10.2734C36.3281 10.0977 34.5508 9.96093 34.0234 10.0586ZM36.3086 13.1934C39.3457 14.2578 39.8828 18.418 37.207 20.1953C34.3359 22.0996 30.5762 19.707 31.1035 16.3184C31.3574 14.6973 32.6953 13.3105 34.2871 13.0273C34.8535 12.9297 35.7812 12.998 36.3086 13.1934ZM47.2363 24.0234C48.6035 24.3262 50.0977 25.3125 50.8398 26.3867C51.2305 26.9531 51.6504 27.8223 51.7969 28.3496C51.8555 28.5742 52.7637 33.6035 53.8086 39.5215C55.8008 50.8301 55.8496 51.1816 55.5566 52.334C54.9414 54.7754 52.9883 56.5625 50.5176 56.9629C49.6484 57.1094 20.3516 57.1094 19.4824 56.9629C18.0957 56.748 17.0703 56.2109 16.0449 55.1953C14.9609 54.1113 14.2969 52.5391 14.2969 51.0156C14.2969 50.498 14.8438 47.1582 16.1914 39.5215C17.2363 33.6035 18.1445 28.5742 18.2031 28.3496C18.623 26.7969 19.7852 25.3711 21.2402 24.5996C22.6758 23.8379 21.9238 23.8867 34.9316 23.8769C45.2637 23.8672 46.6113 23.8867 47.2363 24.0234Z" fill="#4F5052"/>
<path d="M25.8148 45.2523H29.3288V46.9883H23.0568L23.0288 45.7423L26.0248 42.5783C26.4635 42.1023 26.7855 41.6963 26.9908 41.3603C27.2055 41.0243 27.3128 40.6789 27.3128 40.3243C27.3128 39.9509 27.1915 39.6429 26.9488 39.4003C26.7062 39.1483 26.3982 39.0223 26.0248 39.0223C25.3248 39.0223 24.7695 39.3676 24.3588 40.0583L22.9868 39.0783C23.6495 37.8649 24.7135 37.2583 26.1788 37.2583C27.0188 37.2583 27.7375 37.5196 28.3348 38.0423C28.9322 38.5649 29.2308 39.2556 29.2308 40.1143C29.2308 40.6836 29.1142 41.2109 28.8808 41.6963C28.6568 42.1723 28.2415 42.7229 27.6348 43.3483L25.8148 45.2243V45.2523ZM33.9943 42.9983H33.9803L33.0003 44.1603V46.9883H31.0403V37.0483H33.0003V41.4303H33.0143L36.4583 37.0483H38.9503L35.2823 41.4303L39.0623 46.9883H36.6403L33.9943 42.9983ZM44.7948 40.1563H46.6148V46.2043C46.6148 48.6496 45.4294 49.8723 43.0588 49.8723C42.0134 49.8723 41.0754 49.6436 40.2448 49.1863L40.6788 47.6323C41.4441 48.0616 42.1814 48.2763 42.8908 48.2763C43.5068 48.2763 43.9828 48.1316 44.3188 47.8423C44.6641 47.5529 44.8368 47.1889 44.8368 46.7503V46.0643H44.7948C44.3094 46.5963 43.6468 46.8623 42.8068 46.8623C41.8548 46.8623 41.0708 46.5496 40.4548 45.9243C39.8481 45.2989 39.5448 44.4916 39.5448 43.5023C39.5448 42.4943 39.8434 41.6683 40.4408 41.0243C41.0381 40.3709 41.7941 40.0443 42.7088 40.0443C43.5301 40.0443 44.2114 40.3149 44.7528 40.8563H44.7948V40.1563ZM41.8968 44.7343C42.2234 45.0516 42.6388 45.2103 43.1428 45.2103C43.6468 45.2103 44.0574 45.0469 44.3748 44.7203C44.7014 44.3843 44.8648 43.9549 44.8648 43.4323C44.8648 42.9189 44.7014 42.5036 44.3748 42.1863C44.0481 41.8689 43.6374 41.7103 43.1428 41.7103C42.6294 41.7103 42.2094 41.8736 41.8828 42.2003C41.5654 42.5176 41.4068 42.9329 41.4068 43.4463C41.4068 43.9783 41.5701 44.4076 41.8968 44.7343Z" fill="#4F5052"/>
<defs>
<linearGradient id="paint0_linear_116_373" x1="35" y1="0" x2="35" y2="70" gradientUnits="userSpaceOnUse">
<stop stop-color="#F9CF56" stop-opacity="0.52"/>
<stop offset="1" stop-color="#F9CF56" stop-opacity="0.72"/>
</linearGradient>
</defs>
</svg>
