<svg width="70" height="70" viewBox="0 0 70 70" fill="none" xmlns="http://www.w3.org/2000/svg">
<rect width="70" height="70" rx="10" fill="url(#paint0_linear_116_394)"/>
<path d="M34.0234 10.0586C31.6797 10.4883 29.8047 11.8555 28.7988 13.8867C28.3105 14.8828 28.125 15.6641 28.125 16.7871C28.1152 18.125 28.3008 18.9258 28.8379 20.0098L29.2969 20.9277L25.8789 20.957C22.4805 20.9961 22.4414 20.9961 21.5918 21.2598C18.2129 22.3047 15.9375 24.8144 15.1855 28.3105C15.127 28.5742 14.2578 33.4375 13.252 39.1016L11.4258 49.4043L11.416 50.9668C11.416 52.3145 11.4453 52.6367 11.6406 53.3105C12.0898 54.8633 12.9199 56.2598 14.1113 57.4512C15.127 58.457 16.6309 59.2969 18.2031 59.7266L19.0332 59.9512H35H50.9668L51.7969 59.7266C53.3691 59.2969 54.873 58.457 55.8887 57.4512C57.0801 56.2598 57.9102 54.8633 58.3594 53.3105C58.5547 52.6367 58.584 52.3145 58.584 50.9668L58.5742 49.4043L56.748 39.1016C55.7422 33.4375 54.873 28.5742 54.8145 28.3105C54.0625 24.8144 51.7871 22.3047 48.4082 21.2598C47.5586 20.9961 47.5195 20.9961 44.1602 20.957C42.2852 20.9375 40.7617 20.8984 40.7617 20.8594C40.7617 20.8203 40.957 20.4102 41.1914 19.9414C41.6992 18.916 41.8848 18.0957 41.875 16.7871C41.8652 13.7891 39.9023 11.2109 36.9043 10.2734C36.3281 10.0977 34.5508 9.96093 34.0234 10.0586ZM36.3086 13.1934C39.3457 14.2578 39.8828 18.418 37.207 20.1953C34.3359 22.0996 30.5762 19.707 31.1035 16.3184C31.3574 14.6973 32.6953 13.3105 34.2871 13.0273C34.8535 12.9297 35.7812 12.998 36.3086 13.1934ZM47.2363 24.0234C48.6035 24.3262 50.0977 25.3125 50.8398 26.3867C51.2305 26.9531 51.6504 27.8223 51.7969 28.3496C51.8555 28.5742 52.7637 33.6035 53.8086 39.5215C55.8008 50.8301 55.8496 51.1816 55.5566 52.334C54.9414 54.7754 52.9883 56.5625 50.5176 56.9629C49.6484 57.1094 20.3516 57.1094 19.4824 56.9629C18.0957 56.748 17.0703 56.2109 16.0449 55.1953C14.9609 54.1113 14.2969 52.5391 14.2969 51.0156C14.2969 50.498 14.8438 47.1582 16.1914 39.5215C17.2363 33.6035 18.1445 28.5742 18.2031 28.3496C18.623 26.7969 19.7852 25.3711 21.2402 24.5996C22.6758 23.8379 21.9238 23.8867 34.9316 23.8769C45.2637 23.8672 46.6113 23.8867 47.2363 24.0234Z" fill="#4F5052"/>
<path d="M20.0521 45.2523H23.5661V46.9883H17.2941L17.2661 45.7423L20.2621 42.5783C20.7008 42.1023 21.0228 41.6963 21.2281 41.3603C21.4428 41.0243 21.5501 40.6789 21.5501 40.3243C21.5501 39.9509 21.4288 39.6429 21.1861 39.4003C20.9435 39.1483 20.6355 39.0223 20.2621 39.0223C19.5621 39.0223 19.0068 39.3676 18.5961 40.0583L17.2241 39.0783C17.8868 37.8649 18.9508 37.2583 20.4161 37.2583C21.2561 37.2583 21.9748 37.5196 22.5721 38.0423C23.1695 38.5649 23.4681 39.2556 23.4681 40.1143C23.4681 40.6836 23.3515 41.2109 23.1181 41.6963C22.8941 42.1723 22.4788 42.7229 21.8721 43.3483L20.0521 45.2243V45.2523ZM26.0756 47.1003C25.7583 47.1003 25.4876 46.9929 25.2636 46.7783C25.049 46.5636 24.9416 46.3023 24.9416 45.9943C24.9416 45.6863 25.049 45.4249 25.2636 45.2103C25.4876 44.9863 25.7583 44.8743 26.0756 44.8743C26.3836 44.8743 26.6496 44.9863 26.8736 45.2103C27.0976 45.4249 27.2096 45.6863 27.2096 45.9943C27.2096 46.3023 27.0976 46.5636 26.8736 46.7783C26.6496 46.9929 26.3836 47.1003 26.0756 47.1003ZM32.0891 40.7863C32.9291 40.7863 33.6384 41.0709 34.2171 41.6403C34.7957 42.2096 35.0851 42.9563 35.0851 43.8803C35.0851 44.8229 34.7537 45.5976 34.0911 46.2043C33.4377 46.8016 32.6211 47.1003 31.6411 47.1003C30.2317 47.1003 29.1257 46.5963 28.3231 45.5883L29.6951 44.4823C30.1431 45.0703 30.7591 45.3643 31.5431 45.3643C32.0004 45.3643 32.3831 45.2196 32.6911 44.9303C32.9991 44.6409 33.1531 44.2816 33.1531 43.8523C33.1531 43.3763 32.9851 43.0076 32.6491 42.7463C32.3131 42.4756 31.9304 42.3403 31.5011 42.3403C30.9504 42.3403 30.4697 42.5036 30.0591 42.8303L29.0511 42.4523L29.3451 37.3703H34.5951V39.1063H30.9971L30.8851 40.9963C31.3331 40.8563 31.7344 40.7863 32.0891 40.7863ZM39.757 42.9983H39.743L38.763 44.1603V46.9883H36.803V37.0483H38.763V41.4303H38.777L42.221 37.0483H44.713L41.045 41.4303L44.825 46.9883H42.403L39.757 42.9983ZM50.5575 40.1563H52.3775V46.2043C52.3775 48.6496 51.1921 49.8723 48.8215 49.8723C47.7761 49.8723 46.8381 49.6436 46.0075 49.1863L46.4415 47.6323C47.2068 48.0616 47.9441 48.2763 48.6535 48.2763C49.2695 48.2763 49.7455 48.1316 50.0815 47.8423C50.4268 47.5529 50.5995 47.1889 50.5995 46.7503V46.0643H50.5575C50.0721 46.5963 49.4095 46.8623 48.5695 46.8623C47.6175 46.8623 46.8335 46.5496 46.2175 45.9243C45.6108 45.2989 45.3075 44.4916 45.3075 43.5023C45.3075 42.4943 45.6061 41.6683 46.2035 41.0243C46.8008 40.3709 47.5568 40.0443 48.4715 40.0443C49.2928 40.0443 49.9741 40.3149 50.5155 40.8563H50.5575V40.1563ZM47.6595 44.7343C47.9861 45.0516 48.4015 45.2103 48.9055 45.2103C49.4095 45.2103 49.8201 45.0469 50.1375 44.7203C50.4641 44.3843 50.6275 43.9549 50.6275 43.4323C50.6275 42.9189 50.4641 42.5036 50.1375 42.1863C49.8108 41.8689 49.4001 41.7103 48.9055 41.7103C48.3921 41.7103 47.9721 41.8736 47.6455 42.2003C47.3281 42.5176 47.1695 42.9329 47.1695 43.4463C47.1695 43.9783 47.3328 44.4076 47.6595 44.7343Z" fill="#4F5052"/>
<defs>
<linearGradient id="paint0_linear_116_394" x1="35" y1="0" x2="35" y2="70" gradientUnits="userSpaceOnUse">
<stop stop-color="#F9CF56" stop-opacity="0.52"/>
<stop offset="1" stop-color="#F9CF56" stop-opacity="0.72"/>
</linearGradient>
</defs>
</svg>
