<svg width="70" height="70" viewBox="0 0 70 70" fill="none" xmlns="http://www.w3.org/2000/svg">
<rect width="70" height="70" rx="10" fill="url(#paint0_linear_116_380)"/>
<path d="M34.0234 10.0586C31.6797 10.4883 29.8047 11.8555 28.7988 13.8867C28.3105 14.8828 28.125 15.6641 28.125 16.7871C28.1152 18.125 28.3008 18.9258 28.8379 20.0098L29.2969 20.9277L25.8789 20.957C22.4805 20.9961 22.4414 20.9961 21.5918 21.2598C18.2129 22.3047 15.9375 24.8144 15.1855 28.3105C15.127 28.5742 14.2578 33.4375 13.252 39.1016L11.4258 49.4043L11.416 50.9668C11.416 52.3145 11.4453 52.6367 11.6406 53.3105C12.0898 54.8633 12.9199 56.2598 14.1113 57.4512C15.127 58.457 16.6309 59.2969 18.2031 59.7266L19.0332 59.9512H35H50.9668L51.7969 59.7266C53.3691 59.2969 54.873 58.457 55.8887 57.4512C57.0801 56.2598 57.9102 54.8633 58.3594 53.3105C58.5547 52.6367 58.584 52.3145 58.584 50.9668L58.5742 49.4043L56.748 39.1016C55.7422 33.4375 54.873 28.5742 54.8145 28.3105C54.0625 24.8144 51.7871 22.3047 48.4082 21.2598C47.5586 20.9961 47.5195 20.9961 44.1602 20.957C42.2852 20.9375 40.7617 20.8984 40.7617 20.8594C40.7617 20.8203 40.957 20.4102 41.1914 19.9414C41.6992 18.916 41.8848 18.0957 41.875 16.7871C41.8652 13.7891 39.9023 11.2109 36.9043 10.2734C36.3281 10.0977 34.5508 9.96093 34.0234 10.0586ZM36.3086 13.1934C39.3457 14.2578 39.8828 18.418 37.207 20.1953C34.3359 22.0996 30.5762 19.707 31.1035 16.3184C31.3574 14.6973 32.6953 13.3105 34.2871 13.0273C34.8535 12.9297 35.7812 12.998 36.3086 13.1934ZM47.2363 24.0234C48.6035 24.3262 50.0977 25.3125 50.8398 26.3867C51.2305 26.9531 51.6504 27.8223 51.7969 28.3496C51.8555 28.5742 52.7637 33.6035 53.8086 39.5215C55.8008 50.8301 55.8496 51.1816 55.5566 52.334C54.9414 54.7754 52.9883 56.5625 50.5176 56.9629C49.6484 57.1094 20.3516 57.1094 19.4824 56.9629C18.0957 56.748 17.0703 56.2109 16.0449 55.1953C14.9609 54.1113 14.2969 52.5391 14.2969 51.0156C14.2969 50.498 14.8438 47.1582 16.1914 39.5215C17.2363 33.6035 18.1445 28.5742 18.2031 28.3496C18.623 26.7969 19.7852 25.3711 21.2402 24.5996C22.6758 23.8379 21.9238 23.8867 34.9316 23.8769C45.2637 23.8672 46.6113 23.8867 47.2363 24.0234Z" fill="#4F5052"/>
<path d="M26.471 45.2523H29.985V46.9883H23.713L23.685 45.7423L26.681 42.5783C27.1197 42.1023 27.4417 41.6963 27.647 41.3603C27.8617 41.0243 27.969 40.6789 27.969 40.3243C27.969 39.9509 27.8477 39.6429 27.605 39.4003C27.3623 39.1483 27.0543 39.0223 26.681 39.0223C25.981 39.0223 25.4257 39.3676 25.015 40.0583L23.643 39.0783C24.3057 37.8649 25.3697 37.2583 26.835 37.2583C27.675 37.2583 28.3937 37.5196 28.991 38.0423C29.5883 38.5649 29.887 39.2556 29.887 40.1143C29.887 40.6836 29.7703 41.2109 29.537 41.6963C29.313 42.1723 28.8977 42.7229 28.291 43.3483L26.471 45.2243V45.2523ZM34.7345 40.7863C35.5745 40.7863 36.2838 41.0709 36.8625 41.6403C37.4412 42.2096 37.7305 42.9563 37.7305 43.8803C37.7305 44.8229 37.3992 45.5976 36.7365 46.2043C36.0832 46.8016 35.2665 47.1003 34.2865 47.1003C32.8772 47.1003 31.7712 46.5963 30.9685 45.5883L32.3405 44.4823C32.7885 45.0703 33.4045 45.3643 34.1885 45.3643C34.6458 45.3643 35.0285 45.2196 35.3365 44.9303C35.6445 44.6409 35.7985 44.2816 35.7985 43.8523C35.7985 43.3763 35.6305 43.0076 35.2945 42.7463C34.9585 42.4756 34.5758 42.3403 34.1465 42.3403C33.5958 42.3403 33.1152 42.5036 32.7045 42.8303L31.6965 42.4523L31.9905 37.3703H37.2405V39.1063H33.6425L33.5305 40.9963C33.9785 40.8563 34.3798 40.7863 34.7345 40.7863ZM44.1384 40.1563H45.9584V46.2043C45.9584 48.6496 44.7731 49.8723 42.4024 49.8723C41.3571 49.8723 40.4191 49.6436 39.5884 49.1863L40.0224 47.6323C40.7878 48.0616 41.5251 48.2763 42.2344 48.2763C42.8504 48.2763 43.3264 48.1316 43.6624 47.8423C44.0078 47.5529 44.1804 47.1889 44.1804 46.7503V46.0643H44.1384C43.6531 46.5963 42.9904 46.8623 42.1504 46.8623C41.1984 46.8623 40.4144 46.5496 39.7984 45.9243C39.1918 45.2989 38.8884 44.4916 38.8884 43.5023C38.8884 42.4943 39.1871 41.6683 39.7844 41.0243C40.3818 40.3709 41.1378 40.0443 42.0524 40.0443C42.8738 40.0443 43.5551 40.3149 44.0964 40.8563H44.1384V40.1563ZM41.2404 44.7343C41.5671 45.0516 41.9824 45.2103 42.4864 45.2103C42.9904 45.2103 43.4011 45.0469 43.7184 44.7203C44.0451 44.3843 44.2084 43.9549 44.2084 43.4323C44.2084 42.9189 44.0451 42.5036 43.7184 42.1863C43.3918 41.8689 42.9811 41.7103 42.4864 41.7103C41.9731 41.7103 41.5531 41.8736 41.2264 42.2003C40.9091 42.5176 40.7504 42.9329 40.7504 43.4463C40.7504 43.9783 40.9138 44.4076 41.2404 44.7343Z" fill="#4F5052"/>
<defs>
<linearGradient id="paint0_linear_116_380" x1="35" y1="0" x2="35" y2="70" gradientUnits="userSpaceOnUse">
<stop stop-color="#F9CF56" stop-opacity="0.52"/>
<stop offset="1" stop-color="#F9CF56" stop-opacity="0.72"/>
</linearGradient>
</defs>
</svg>
