<svg width="70" height="70" viewBox="0 0 70 70" fill="none" xmlns="http://www.w3.org/2000/svg">
<rect width="70" height="70" rx="10" fill="url(#paint0_linear_116_366)"/>
<path d="M34.0234 10.0586C31.6797 10.4883 29.8047 11.8555 28.7988 13.8867C28.3105 14.8828 28.125 15.6641 28.125 16.7871C28.1152 18.125 28.3008 18.9258 28.8379 20.0098L29.2969 20.9277L25.8789 20.957C22.4805 20.9961 22.4414 20.9961 21.5918 21.2598C18.2129 22.3047 15.9375 24.8144 15.1855 28.3105C15.127 28.5742 14.2578 33.4375 13.252 39.1016L11.4258 49.4043L11.416 50.9668C11.416 52.3145 11.4453 52.6367 11.6406 53.3105C12.0898 54.8633 12.9199 56.2598 14.1113 57.4512C15.127 58.457 16.6309 59.2969 18.2031 59.7266L19.0332 59.9512H35H50.9668L51.7969 59.7266C53.3691 59.2969 54.873 58.457 55.8887 57.4512C57.0801 56.2598 57.9102 54.8633 58.3594 53.3105C58.5547 52.6367 58.584 52.3145 58.584 50.9668L58.5742 49.4043L56.748 39.1016C55.7422 33.4375 54.873 28.5742 54.8145 28.3105C54.0625 24.8144 51.7871 22.3047 48.4082 21.2598C47.5586 20.9961 47.5195 20.9961 44.1602 20.957C42.2852 20.9375 40.7617 20.8984 40.7617 20.8594C40.7617 20.8203 40.957 20.4102 41.1914 19.9414C41.6992 18.916 41.8848 18.0957 41.875 16.7871C41.8652 13.7891 39.9023 11.2109 36.9043 10.2734C36.3281 10.0977 34.5508 9.96093 34.0234 10.0586ZM36.3086 13.1934C39.3457 14.2578 39.8828 18.418 37.207 20.1953C34.3359 22.0996 30.5762 19.707 31.1035 16.3184C31.3574 14.6973 32.6953 13.3105 34.2871 13.0273C34.8535 12.9297 35.7812 12.998 36.3086 13.1934ZM47.2363 24.0234C48.6035 24.3262 50.0977 25.3125 50.8398 26.3867C51.2305 26.9531 51.6504 27.8223 51.7969 28.3496C51.8555 28.5742 52.7637 33.6035 53.8086 39.5215C55.8008 50.8301 55.8496 51.1816 55.5566 52.334C54.9414 54.7754 52.9883 56.5625 50.5176 56.9629C49.6484 57.1094 20.3516 57.1094 19.4824 56.9629C18.0957 56.748 17.0703 56.2109 16.0449 55.1953C14.9609 54.1113 14.2969 52.5391 14.2969 51.0156C14.2969 50.498 14.8438 47.1582 16.1914 39.5215C17.2363 33.6035 18.1445 28.5742 18.2031 28.3496C18.623 26.7969 19.7852 25.3711 21.2402 24.5996C22.6758 23.8379 21.9238 23.8867 34.9316 23.8769C45.2637 23.8672 46.6113 23.8867 47.2363 24.0234Z" fill="#4F5052"/>
<path d="M22.1029 45.264H25.6169V47H19.3449L19.3169 45.754L22.3129 42.59C22.7516 42.114 23.0736 41.708 23.2789 41.372C23.4936 41.036 23.6009 40.6907 23.6009 40.336C23.6009 39.9627 23.4796 39.6547 23.2369 39.412C22.9942 39.16 22.6862 39.034 22.3129 39.034C21.6129 39.034 21.0576 39.3793 20.6469 40.07L19.2749 39.09C19.9376 37.8767 21.0016 37.27 22.4669 37.27C23.3069 37.27 24.0256 37.5313 24.6229 38.054C25.2202 38.5767 25.5189 39.2673 25.5189 40.126C25.5189 40.6953 25.4022 41.2227 25.1689 41.708C24.9449 42.184 24.5296 42.7347 23.9229 43.36L22.1029 45.236V45.264ZM30.3664 40.798C31.2064 40.798 31.9157 41.0827 32.4944 41.652C33.0731 42.2213 33.3624 42.968 33.3624 43.892C33.3624 44.8347 33.0311 45.6093 32.3684 46.216C31.7151 46.8133 30.8984 47.112 29.9184 47.112C28.5091 47.112 27.4031 46.608 26.6004 45.6L27.9724 44.494C28.4204 45.082 29.0364 45.376 29.8204 45.376C30.2777 45.376 30.6604 45.2313 30.9684 44.942C31.2764 44.6527 31.4304 44.2933 31.4304 43.864C31.4304 43.388 31.2624 43.0193 30.9264 42.758C30.5904 42.4873 30.2077 42.352 29.7784 42.352C29.2277 42.352 28.7471 42.5153 28.3364 42.842L27.3284 42.464L27.6224 37.382H32.8724V39.118H29.2744L29.1624 41.008C29.6104 40.868 30.0117 40.798 30.3664 40.798ZM38.3027 47.112C37.1827 47.112 36.2773 46.678 35.5867 45.81C34.9053 44.9327 34.5647 43.7287 34.5647 42.198C34.5647 40.714 34.9007 39.524 35.5727 38.628C36.2447 37.7227 37.1547 37.27 38.3027 37.27C39.4413 37.27 40.3513 37.7087 41.0327 38.586C41.714 39.4633 42.0547 40.6673 42.0547 42.198C42.0547 43.682 41.7187 44.872 41.0467 45.768C40.3747 46.664 39.46 47.112 38.3027 47.112ZM36.9867 44.508C37.3133 45.068 37.7567 45.348 38.3167 45.348C38.8767 45.348 39.3153 45.0773 39.6327 44.536C39.95 43.9853 40.1087 43.206 40.1087 42.198C40.1087 41.218 39.95 40.448 39.6327 39.888C39.3153 39.328 38.8767 39.048 38.3167 39.048C37.7567 39.048 37.3133 39.3233 36.9867 39.874C36.6693 40.4153 36.5107 41.19 36.5107 42.198C36.5107 43.1687 36.6693 43.9387 36.9867 44.508ZM48.5067 40.168H50.3267V46.216C50.3267 48.6613 49.1414 49.884 46.7707 49.884C45.7254 49.884 44.7874 49.6553 43.9567 49.198L44.3907 47.644C45.156 48.0733 45.8934 48.288 46.6027 48.288C47.2187 48.288 47.6947 48.1433 48.0307 47.854C48.376 47.5647 48.5487 47.2007 48.5487 46.762V46.076H48.5067C48.0214 46.608 47.3587 46.874 46.5187 46.874C45.5667 46.874 44.7827 46.5613 44.1667 45.936C43.56 45.3107 43.2567 44.5033 43.2567 43.514C43.2567 42.506 43.5554 41.68 44.1527 41.036C44.75 40.3827 45.506 40.056 46.4207 40.056C47.242 40.056 47.9234 40.3267 48.4647 40.868H48.5067V40.168ZM45.6087 44.746C45.9354 45.0633 46.3507 45.222 46.8547 45.222C47.3587 45.222 47.7694 45.0587 48.0867 44.732C48.4134 44.396 48.5767 43.9667 48.5767 43.444C48.5767 42.9307 48.4134 42.5153 48.0867 42.198C47.76 41.8807 47.3494 41.722 46.8547 41.722C46.3414 41.722 45.9214 41.8853 45.5947 42.212C45.2774 42.5293 45.1187 42.9447 45.1187 43.458C45.1187 43.99 45.282 44.4193 45.6087 44.746Z" fill="#4F5052"/>
<defs>
<linearGradient id="paint0_linear_116_366" x1="35" y1="0" x2="35" y2="70" gradientUnits="userSpaceOnUse">
<stop stop-color="#F9CF56" stop-opacity="0.52"/>
<stop offset="1" stop-color="#F9CF56" stop-opacity="0.72"/>
</linearGradient>
</defs>
</svg>
