<svg width="70" height="70" viewBox="0 0 70 70" fill="none" xmlns="http://www.w3.org/2000/svg">
<rect width="70" height="70" rx="10" fill="url(#paint0_linear_116_408)"/>
<path d="M34.0234 10.0586C31.6797 10.4883 29.8047 11.8555 28.7988 13.8867C28.3105 14.8828 28.125 15.6641 28.125 16.7871C28.1152 18.125 28.3008 18.9258 28.8379 20.0098L29.2969 20.9277L25.8789 20.957C22.4805 20.9961 22.4414 20.9961 21.5918 21.2598C18.2129 22.3047 15.9375 24.8144 15.1855 28.3105C15.127 28.5742 14.2578 33.4375 13.252 39.1016L11.4258 49.4043L11.416 50.9668C11.416 52.3145 11.4453 52.6367 11.6406 53.3105C12.0898 54.8633 12.9199 56.2598 14.1113 57.4512C15.127 58.457 16.6309 59.2969 18.2031 59.7266L19.0332 59.9512H35H50.9668L51.7969 59.7266C53.3691 59.2969 54.873 58.457 55.8887 57.4512C57.0801 56.2598 57.9102 54.8633 58.3594 53.3105C58.5547 52.6367 58.584 52.3145 58.584 50.9668L58.5742 49.4043L56.748 39.1016C55.7422 33.4375 54.873 28.5742 54.8145 28.3105C54.0625 24.8144 51.7871 22.3047 48.4082 21.2598C47.5586 20.9961 47.5195 20.9961 44.1602 20.957C42.2852 20.9375 40.7617 20.8984 40.7617 20.8594C40.7617 20.8203 40.957 20.4102 41.1914 19.9414C41.6992 18.916 41.8848 18.0957 41.875 16.7871C41.8652 13.7891 39.9023 11.2109 36.9043 10.2734C36.3281 10.0977 34.5508 9.96093 34.0234 10.0586ZM36.3086 13.1934C39.3457 14.2578 39.8828 18.418 37.207 20.1953C34.3359 22.0996 30.5762 19.707 31.1035 16.3184C31.3574 14.6973 32.6953 13.3105 34.2871 13.0273C34.8535 12.9297 35.7812 12.998 36.3086 13.1934ZM47.2363 24.0234C48.6035 24.3262 50.0977 25.3125 50.8398 26.3867C51.2305 26.9531 51.6504 27.8223 51.7969 28.3496C51.8555 28.5742 52.7637 33.6035 53.8086 39.5215C55.8008 50.8301 55.8496 51.1816 55.5566 52.334C54.9414 54.7754 52.9883 56.5625 50.5176 56.9629C49.6484 57.1094 20.3516 57.1094 19.4824 56.9629C18.0957 56.748 17.0703 56.2109 16.0449 55.1953C14.9609 54.1113 14.2969 52.5391 14.2969 51.0156C14.2969 50.498 14.8438 47.1582 16.1914 39.5215C17.2363 33.6035 18.1445 28.5742 18.2031 28.3496C18.623 26.7969 19.7852 25.3711 21.2402 24.5996C22.6758 23.8379 21.9238 23.8867 34.9316 23.8769C45.2637 23.8672 46.6113 23.8867 47.2363 24.0234Z" fill="#4F5052"/>
<path d="M31.0158 40.798C31.8558 40.798 32.5652 41.0827 33.1438 41.652C33.7225 42.2213 34.0118 42.968 34.0118 43.892C34.0118 44.8347 33.6805 45.6093 33.0178 46.216C32.3645 46.8133 31.5478 47.112 30.5678 47.112C29.1585 47.112 28.0525 46.608 27.2498 45.6L28.6218 44.494C29.0698 45.082 29.6858 45.376 30.4698 45.376C30.9272 45.376 31.3098 45.2313 31.6178 44.942C31.9258 44.6527 32.0798 44.2933 32.0798 43.864C32.0798 43.388 31.9118 43.0193 31.5758 42.758C31.2398 42.4873 30.8572 42.352 30.4278 42.352C29.8772 42.352 29.3965 42.5153 28.9858 42.842L27.9778 42.464L28.2718 37.382H33.5218V39.118H29.9238L29.8118 41.008C30.2598 40.868 30.6612 40.798 31.0158 40.798ZM40.4198 40.168H42.2398V46.216C42.2398 48.6613 41.0544 49.884 38.6838 49.884C37.6384 49.884 36.7004 49.6553 35.8698 49.198L36.3038 47.644C37.0691 48.0733 37.8064 48.288 38.5158 48.288C39.1318 48.288 39.6078 48.1433 39.9438 47.854C40.2891 47.5647 40.4618 47.2007 40.4618 46.762V46.076H40.4198C39.9344 46.608 39.2718 46.874 38.4318 46.874C37.4798 46.874 36.6958 46.5613 36.0798 45.936C35.4731 45.3107 35.1698 44.5033 35.1698 43.514C35.1698 42.506 35.4684 41.68 36.0658 41.036C36.6631 40.3827 37.4191 40.056 38.3338 40.056C39.1551 40.056 39.8364 40.3267 40.3778 40.868H40.4198V40.168ZM37.5218 44.746C37.8484 45.0633 38.2638 45.222 38.7678 45.222C39.2718 45.222 39.6824 45.0587 39.9998 44.732C40.3264 44.396 40.4898 43.9667 40.4898 43.444C40.4898 42.9307 40.3264 42.5153 39.9998 42.198C39.6731 41.8807 39.2624 41.722 38.7678 41.722C38.2544 41.722 37.8344 41.8853 37.5078 42.212C37.1904 42.5293 37.0318 42.9447 37.0318 43.458C37.0318 43.99 37.1951 44.4193 37.5218 44.746Z" fill="#4F5052"/>
<defs>
<linearGradient id="paint0_linear_116_408" x1="35" y1="0" x2="35" y2="70" gradientUnits="userSpaceOnUse">
<stop stop-color="#F9CF56" stop-opacity="0.52"/>
<stop offset="1" stop-color="#F9CF56" stop-opacity="0.72"/>
</linearGradient>
</defs>
</svg>
