<svg width="70" height="70" viewBox="0 0 70 70" fill="none" xmlns="http://www.w3.org/2000/svg">
<rect width="70" height="70" rx="10" fill="url(#paint0_linear_116_401)"/>
<path d="M34.0234 10.0586C31.6797 10.4883 29.8047 11.8555 28.7988 13.8867C28.3105 14.8828 28.125 15.6641 28.125 16.7871C28.1152 18.125 28.3008 18.9258 28.8379 20.0098L29.2969 20.9277L25.8789 20.957C22.4805 20.9961 22.4414 20.9961 21.5918 21.2598C18.2129 22.3047 15.9375 24.8144 15.1855 28.3105C15.127 28.5742 14.2578 33.4375 13.252 39.1016L11.4258 49.4043L11.416 50.9668C11.416 52.3145 11.4453 52.6367 11.6406 53.3105C12.0898 54.8633 12.9199 56.2598 14.1113 57.4512C15.127 58.457 16.6309 59.2969 18.2031 59.7266L19.0332 59.9512H35H50.9668L51.7969 59.7266C53.3691 59.2969 54.873 58.457 55.8887 57.4512C57.0801 56.2598 57.9102 54.8633 58.3594 53.3105C58.5547 52.6367 58.584 52.3145 58.584 50.9668L58.5742 49.4043L56.748 39.1016C55.7422 33.4375 54.873 28.5742 54.8145 28.3105C54.0625 24.8144 51.7871 22.3047 48.4082 21.2598C47.5586 20.9961 47.5195 20.9961 44.1602 20.957C42.2852 20.9375 40.7617 20.8984 40.7617 20.8594C40.7617 20.8203 40.957 20.4102 41.1914 19.9414C41.6992 18.916 41.8848 18.0957 41.875 16.7871C41.8652 13.7891 39.9023 11.2109 36.9043 10.2734C36.3281 10.0977 34.5508 9.96093 34.0234 10.0586ZM36.3086 13.1934C39.3457 14.2578 39.8828 18.418 37.207 20.1953C34.3359 22.0996 30.5762 19.707 31.1035 16.3184C31.3574 14.6973 32.6953 13.3105 34.2871 13.0273C34.8535 12.9297 35.7812 12.998 36.3086 13.1934ZM47.2363 24.0234C48.6035 24.3262 50.0977 25.3125 50.8398 26.3867C51.2305 26.9531 51.6504 27.8223 51.7969 28.3496C51.8555 28.5742 52.7637 33.6035 53.8086 39.5215C55.8008 50.8301 55.8496 51.1816 55.5566 52.334C54.9414 54.7754 52.9883 56.5625 50.5176 56.9629C49.6484 57.1094 20.3516 57.1094 19.4824 56.9629C18.0957 56.748 17.0703 56.2109 16.0449 55.1953C14.9609 54.1113 14.2969 52.5391 14.2969 51.0156C14.2969 50.498 14.8438 47.1582 16.1914 39.5215C17.2363 33.6035 18.1445 28.5742 18.2031 28.3496C18.623 26.7969 19.7852 25.3711 21.2402 24.5996C22.6758 23.8379 21.9238 23.8867 34.9316 23.8769C45.2637 23.8672 46.6113 23.8867 47.2363 24.0234Z" fill="#4F5052"/>
<path d="M26.6476 40.798C27.4876 40.798 28.1969 41.0827 28.7756 41.652C29.3542 42.2213 29.6436 42.968 29.6436 43.892C29.6436 44.8347 29.3122 45.6093 28.6496 46.216C27.9962 46.8133 27.1796 47.112 26.1996 47.112C24.7902 47.112 23.6842 46.608 22.8816 45.6L24.2536 44.494C24.7016 45.082 25.3176 45.376 26.1016 45.376C26.5589 45.376 26.9416 45.2313 27.2496 44.942C27.5576 44.6527 27.7116 44.2933 27.7116 43.864C27.7116 43.388 27.5436 43.0193 27.2076 42.758C26.8716 42.4873 26.4889 42.352 26.0596 42.352C25.5089 42.352 25.0282 42.5153 24.6176 42.842L23.6096 42.464L23.9036 37.382H29.1536V39.118H25.5556L25.4436 41.008C25.8916 40.868 26.2929 40.798 26.6476 40.798ZM34.5838 47.112C33.4638 47.112 32.5585 46.678 31.8678 45.81C31.1865 44.9327 30.8458 43.7287 30.8458 42.198C30.8458 40.714 31.1818 39.524 31.8538 38.628C32.5258 37.7227 33.4358 37.27 34.5838 37.27C35.7225 37.27 36.6325 37.7087 37.3138 38.586C37.9952 39.4633 38.3358 40.6673 38.3358 42.198C38.3358 43.682 37.9998 44.872 37.3278 45.768C36.6558 46.664 35.7412 47.112 34.5838 47.112ZM33.2678 44.508C33.5945 45.068 34.0378 45.348 34.5978 45.348C35.1578 45.348 35.5965 45.0773 35.9138 44.536C36.2312 43.9853 36.3898 43.206 36.3898 42.198C36.3898 41.218 36.2312 40.448 35.9138 39.888C35.5965 39.328 35.1578 39.048 34.5978 39.048C34.0378 39.048 33.5945 39.3233 33.2678 39.874C32.9505 40.4153 32.7918 41.19 32.7918 42.198C32.7918 43.1687 32.9505 43.9387 33.2678 44.508ZM44.7879 40.168H46.6079V46.216C46.6079 48.6613 45.4225 49.884 43.0519 49.884C42.0065 49.884 41.0685 49.6553 40.2379 49.198L40.6719 47.644C41.4372 48.0733 42.1745 48.288 42.8839 48.288C43.4999 48.288 43.9759 48.1433 44.3119 47.854C44.6572 47.5647 44.8299 47.2007 44.8299 46.762V46.076H44.7879C44.3025 46.608 43.6399 46.874 42.7999 46.874C41.8479 46.874 41.0639 46.5613 40.4479 45.936C39.8412 45.3107 39.5379 44.5033 39.5379 43.514C39.5379 42.506 39.8365 41.68 40.4339 41.036C41.0312 40.3827 41.7872 40.056 42.7019 40.056C43.5232 40.056 44.2045 40.3267 44.7459 40.868H44.7879V40.168ZM41.8899 44.746C42.2165 45.0633 42.6319 45.222 43.1359 45.222C43.6399 45.222 44.0505 45.0587 44.3679 44.732C44.6945 44.396 44.8579 43.9667 44.8579 43.444C44.8579 42.9307 44.6945 42.5153 44.3679 42.198C44.0412 41.8807 43.6305 41.722 43.1359 41.722C42.6225 41.722 42.2025 41.8853 41.8759 42.212C41.5585 42.5293 41.3999 42.9447 41.3999 43.458C41.3999 43.99 41.5632 44.4193 41.8899 44.746Z" fill="#4F5052"/>
<defs>
<linearGradient id="paint0_linear_116_401" x1="35" y1="0" x2="35" y2="70" gradientUnits="userSpaceOnUse">
<stop stop-color="#F9CF56" stop-opacity="0.52"/>
<stop offset="1" stop-color="#F9CF56" stop-opacity="0.72"/>
</linearGradient>
</defs>
</svg>
