<svg width="70" height="70" viewBox="0 0 70 70" fill="none" xmlns="http://www.w3.org/2000/svg">
<rect width="70" height="70" rx="10" fill="url(#paint0_linear_116_387)"/>
<path d="M34.0234 10.0586C31.6797 10.4883 29.8047 11.8555 28.7988 13.8867C28.3105 14.8828 28.125 15.6641 28.125 16.7871C28.1152 18.125 28.3008 18.9258 28.8379 20.0098L29.2969 20.9277L25.8789 20.957C22.4805 20.9961 22.4414 20.9961 21.5918 21.2598C18.2129 22.3047 15.9375 24.8144 15.1855 28.3105C15.127 28.5742 14.2578 33.4375 13.252 39.1016L11.4258 49.4043L11.416 50.9668C11.416 52.3145 11.4453 52.6367 11.6406 53.3105C12.0898 54.8633 12.9199 56.2598 14.1113 57.4512C15.127 58.457 16.6309 59.2969 18.2031 59.7266L19.0332 59.9512H35H50.9668L51.7969 59.7266C53.3691 59.2969 54.873 58.457 55.8887 57.4512C57.0801 56.2598 57.9102 54.8633 58.3594 53.3105C58.5547 52.6367 58.584 52.3145 58.584 50.9668L58.5742 49.4043L56.748 39.1016C55.7422 33.4375 54.873 28.5742 54.8145 28.3105C54.0625 24.8144 51.7871 22.3047 48.4082 21.2598C47.5586 20.9961 47.5195 20.9961 44.1602 20.957C42.2852 20.9375 40.7617 20.8984 40.7617 20.8594C40.7617 20.8203 40.957 20.4102 41.1914 19.9414C41.6992 18.916 41.8848 18.0957 41.875 16.7871C41.8652 13.7891 39.9023 11.2109 36.9043 10.2734C36.3281 10.0977 34.5508 9.96093 34.0234 10.0586ZM36.3086 13.1934C39.3457 14.2578 39.8828 18.418 37.207 20.1953C34.3359 22.0996 30.5762 19.707 31.1035 16.3184C31.3574 14.6973 32.6953 13.3105 34.2871 13.0273C34.8535 12.9297 35.7812 12.998 36.3086 13.1934ZM47.2363 24.0234C48.6035 24.3262 50.0977 25.3125 50.8398 26.3867C51.2305 26.9531 51.6504 27.8223 51.7969 28.3496C51.8555 28.5742 52.7637 33.6035 53.8086 39.5215C55.8008 50.8301 55.8496 51.1816 55.5566 52.334C54.9414 54.7754 52.9883 56.5625 50.5176 56.9629C49.6484 57.1094 20.3516 57.1094 19.4824 56.9629C18.0957 56.748 17.0703 56.2109 16.0449 55.1953C14.9609 54.1113 14.2969 52.5391 14.2969 51.0156C14.2969 50.498 14.8438 47.1582 16.1914 39.5215C17.2363 33.6035 18.1445 28.5742 18.2031 28.3496C18.623 26.7969 19.7852 25.3711 21.2402 24.5996C22.6758 23.8379 21.9238 23.8867 34.9316 23.8769C45.2637 23.8672 46.6113 23.8867 47.2363 24.0234Z" fill="#4F5052"/>
<path d="M22.2316 40.7863C23.0716 40.7863 23.781 41.0709 24.3596 41.6403C24.9383 42.2096 25.2276 42.9563 25.2276 43.8803C25.2276 44.8229 24.8963 45.5976 24.2336 46.2043C23.5803 46.8016 22.7636 47.1003 21.7836 47.1003C20.3743 47.1003 19.2683 46.5963 18.4656 45.5883L19.8376 44.4823C20.2856 45.0703 20.9016 45.3643 21.6856 45.3643C22.143 45.3643 22.5256 45.2196 22.8336 44.9303C23.1416 44.6409 23.2956 44.2816 23.2956 43.8523C23.2956 43.3763 23.1276 43.0076 22.7916 42.7463C22.4556 42.4756 22.073 42.3403 21.6436 42.3403C21.093 42.3403 20.6123 42.5036 20.2016 42.8303L19.1936 42.4523L19.4876 37.3703H24.7376V39.1063H21.1396L21.0276 40.9963C21.4756 40.8563 21.877 40.7863 22.2316 40.7863ZM30.1679 47.1003C29.0479 47.1003 28.1426 46.6663 27.4519 45.7983C26.7706 44.9209 26.4299 43.7169 26.4299 42.1863C26.4299 40.7023 26.7659 39.5123 27.4379 38.6163C28.1099 37.7109 29.0199 37.2583 30.1679 37.2583C31.3066 37.2583 32.2166 37.6969 32.8979 38.5743C33.5792 39.4516 33.9199 40.6556 33.9199 42.1863C33.9199 43.6703 33.5839 44.8603 32.9119 45.7563C32.2399 46.6523 31.3252 47.1003 30.1679 47.1003ZM28.8519 44.4963C29.1786 45.0563 29.6219 45.3363 30.1819 45.3363C30.7419 45.3363 31.1806 45.0656 31.4979 44.5243C31.8152 43.9736 31.9739 43.1943 31.9739 42.1863C31.9739 41.2063 31.8152 40.4363 31.4979 39.8763C31.1806 39.3163 30.7419 39.0363 30.1819 39.0363C29.6219 39.0363 29.1786 39.3116 28.8519 39.8623C28.5346 40.4036 28.3759 41.1783 28.3759 42.1863C28.3759 43.1569 28.5346 43.9269 28.8519 44.4963ZM38.9999 47.1003C37.8799 47.1003 36.9746 46.6663 36.2839 45.7983C35.6026 44.9209 35.2619 43.7169 35.2619 42.1863C35.2619 40.7023 35.5979 39.5123 36.2699 38.6163C36.9419 37.7109 37.8519 37.2583 38.9999 37.2583C40.1386 37.2583 41.0486 37.6969 41.7299 38.5743C42.4113 39.4516 42.7519 40.6556 42.7519 42.1863C42.7519 43.6703 42.4159 44.8603 41.7439 45.7563C41.0719 46.6523 40.1573 47.1003 38.9999 47.1003ZM37.6839 44.4963C38.0106 45.0563 38.4539 45.3363 39.0139 45.3363C39.5739 45.3363 40.0126 45.0656 40.3299 44.5243C40.6473 43.9736 40.8059 43.1943 40.8059 42.1863C40.8059 41.2063 40.6473 40.4363 40.3299 39.8763C40.0126 39.3163 39.5739 39.0363 39.0139 39.0363C38.4539 39.0363 38.0106 39.3116 37.6839 39.8623C37.3666 40.4036 37.2079 41.1783 37.2079 42.1863C37.2079 43.1569 37.3666 43.9269 37.6839 44.4963ZM49.204 40.1563H51.024V46.2043C51.024 48.6496 49.8386 49.8723 47.468 49.8723C46.4226 49.8723 45.4846 49.6436 44.654 49.1863L45.088 47.6323C45.8533 48.0616 46.5906 48.2763 47.3 48.2763C47.916 48.2763 48.392 48.1316 48.728 47.8423C49.0733 47.5529 49.246 47.1889 49.246 46.7503V46.0643H49.204C48.7186 46.5963 48.056 46.8623 47.216 46.8623C46.264 46.8623 45.48 46.5496 44.864 45.9243C44.2573 45.2989 43.954 44.4916 43.954 43.5023C43.954 42.4943 44.2526 41.6683 44.85 41.0243C45.4473 40.3709 46.2033 40.0443 47.118 40.0443C47.9393 40.0443 48.6206 40.3149 49.162 40.8563H49.204V40.1563ZM46.306 44.7343C46.6326 45.0516 47.048 45.2103 47.552 45.2103C48.056 45.2103 48.4666 45.0469 48.784 44.7203C49.1106 44.3843 49.274 43.9549 49.274 43.4323C49.274 42.9189 49.1106 42.5036 48.784 42.1863C48.4573 41.8689 48.0466 41.7103 47.552 41.7103C47.0386 41.7103 46.6186 41.8736 46.292 42.2003C45.9746 42.5176 45.816 42.9329 45.816 43.4463C45.816 43.9783 45.9793 44.4076 46.306 44.7343Z" fill="#4F5052"/>
<defs>
<linearGradient id="paint0_linear_116_387" x1="35" y1="0" x2="35" y2="70" gradientUnits="userSpaceOnUse">
<stop stop-color="#F9CF56" stop-opacity="0.52"/>
<stop offset="1" stop-color="#F9CF56" stop-opacity="0.72"/>
</linearGradient>
</defs>
</svg>
