<svg width="70" height="70" viewBox="0 0 70 70" fill="none" xmlns="http://www.w3.org/2000/svg">
<rect width="70" height="70" rx="10" fill="url(#paint0_linear_116_415)"/>
<path d="M34.0234 10.0586C31.6797 10.4883 29.8047 11.8555 28.7988 13.8867C28.3105 14.8828 28.125 15.6641 28.125 16.7871C28.1152 18.125 28.3008 18.9258 28.8379 20.0098L29.2969 20.9277L25.8789 20.957C22.4805 20.9961 22.4414 20.9961 21.5918 21.2598C18.2129 22.3047 15.9375 24.8144 15.1855 28.3105C15.127 28.5742 14.2578 33.4375 13.252 39.1016L11.4258 49.4043L11.416 50.9668C11.416 52.3145 11.4453 52.6367 11.6406 53.3105C12.0898 54.8633 12.9199 56.2598 14.1113 57.4512C15.127 58.457 16.6309 59.2969 18.2031 59.7266L19.0332 59.9512H35H50.9668L51.7969 59.7266C53.3691 59.2969 54.873 58.457 55.8887 57.4512C57.0801 56.2598 57.9102 54.8633 58.3594 53.3105C58.5547 52.6367 58.584 52.3145 58.584 50.9668L58.5742 49.4043L56.748 39.1016C55.7422 33.4375 54.873 28.5742 54.8145 28.3105C54.0625 24.8144 51.7871 22.3047 48.4082 21.2598C47.5586 20.9961 47.5195 20.9961 44.1602 20.957C42.2852 20.9375 40.7617 20.8984 40.7617 20.8594C40.7617 20.8203 40.957 20.4102 41.1914 19.9414C41.6992 18.916 41.8848 18.0957 41.875 16.7871C41.8652 13.7891 39.9023 11.2109 36.9043 10.2734C36.3281 10.0977 34.5508 9.96093 34.0234 10.0586ZM36.3086 13.1934C39.3457 14.2578 39.8828 18.418 37.207 20.1953C34.3359 22.0996 30.5762 19.707 31.1035 16.3184C31.3574 14.6973 32.6953 13.3105 34.2871 13.0273C34.8535 12.9297 35.7812 12.998 36.3086 13.1934ZM47.2363 24.0234C48.6035 24.3262 50.0977 25.3125 50.8398 26.3867C51.2305 26.9531 51.6504 27.8223 51.7969 28.3496C51.8555 28.5742 52.7637 33.6035 53.8086 39.5215C55.8008 50.8301 55.8496 51.1816 55.5566 52.334C54.9414 54.7754 52.9883 56.5625 50.5176 56.9629C49.6484 57.1094 20.3516 57.1094 19.4824 56.9629C18.0957 56.748 17.0703 56.2109 16.0449 55.1953C14.9609 54.1113 14.2969 52.5391 14.2969 51.0156C14.2969 50.498 14.8438 47.1582 16.1914 39.5215C17.2363 33.6035 18.1445 28.5742 18.2031 28.3496C18.623 26.7969 19.7852 25.3711 21.2402 24.5996C22.6758 23.8379 21.9238 23.8867 34.9316 23.8769C45.2637 23.8672 46.6113 23.8867 47.2363 24.0234Z" fill="#4F5052"/>
<path d="M19.4555 37.382H25.4335V38.628L22.0875 47.21L20.1975 46.86L23.3475 39.104H19.4555V37.382ZM30.0178 40.798C30.8578 40.798 31.5671 41.0827 32.1458 41.652C32.7244 42.2213 33.0138 42.968 33.0138 43.892C33.0138 44.8347 32.6824 45.6093 32.0198 46.216C31.3664 46.8133 30.5498 47.112 29.5698 47.112C28.1604 47.112 27.0544 46.608 26.2518 45.6L27.6238 44.494C28.0718 45.082 28.6878 45.376 29.4718 45.376C29.9291 45.376 30.3118 45.2313 30.6198 44.942C30.9278 44.6527 31.0818 44.2933 31.0818 43.864C31.0818 43.388 30.9138 43.0193 30.5778 42.758C30.2418 42.4873 29.8591 42.352 29.4298 42.352C28.8791 42.352 28.3984 42.5153 27.9878 42.842L26.9798 42.464L27.2738 37.382H32.5238V39.118H28.9258L28.8138 41.008C29.2618 40.868 29.6631 40.798 30.0178 40.798ZM37.954 47.112C36.834 47.112 35.9287 46.678 35.238 45.81C34.5567 44.9327 34.216 43.7287 34.216 42.198C34.216 40.714 34.552 39.524 35.224 38.628C35.896 37.7227 36.806 37.27 37.954 37.27C39.0927 37.27 40.0027 37.7087 40.684 38.586C41.3654 39.4633 41.706 40.6673 41.706 42.198C41.706 43.682 41.37 44.872 40.698 45.768C40.026 46.664 39.1114 47.112 37.954 47.112ZM36.638 44.508C36.9647 45.068 37.408 45.348 37.968 45.348C38.528 45.348 38.9667 45.0773 39.284 44.536C39.6014 43.9853 39.76 43.206 39.76 42.198C39.76 41.218 39.6014 40.448 39.284 39.888C38.9667 39.328 38.528 39.048 37.968 39.048C37.408 39.048 36.9647 39.3233 36.638 39.874C36.3207 40.4153 36.162 41.19 36.162 42.198C36.162 43.1687 36.3207 43.9387 36.638 44.508ZM48.1581 40.168H49.9781V46.216C49.9781 48.6613 48.7927 49.884 46.4221 49.884C45.3767 49.884 44.4387 49.6553 43.6081 49.198L44.0421 47.644C44.8074 48.0733 45.5447 48.288 46.2541 48.288C46.8701 48.288 47.3461 48.1433 47.6821 47.854C48.0274 47.5647 48.2001 47.2007 48.2001 46.762V46.076H48.1581C47.6727 46.608 47.0101 46.874 46.1701 46.874C45.2181 46.874 44.4341 46.5613 43.8181 45.936C43.2114 45.3107 42.9081 44.5033 42.9081 43.514C42.9081 42.506 43.2067 41.68 43.8041 41.036C44.4014 40.3827 45.1574 40.056 46.0721 40.056C46.8934 40.056 47.5747 40.3267 48.1161 40.868H48.1581V40.168ZM45.2601 44.746C45.5867 45.0633 46.0021 45.222 46.5061 45.222C47.0101 45.222 47.4207 45.0587 47.7381 44.732C48.0647 44.396 48.2281 43.9667 48.2281 43.444C48.2281 42.9307 48.0647 42.5153 47.7381 42.198C47.4114 41.8807 47.0007 41.722 46.5061 41.722C45.9927 41.722 45.5727 41.8853 45.2461 42.212C44.9287 42.5293 44.7701 42.9447 44.7701 43.458C44.7701 43.99 44.9334 44.4193 45.2601 44.746Z" fill="#4F5052"/>
<defs>
<linearGradient id="paint0_linear_116_415" x1="35" y1="0" x2="35" y2="70" gradientUnits="userSpaceOnUse">
<stop stop-color="#F9CF56" stop-opacity="0.52"/>
<stop offset="1" stop-color="#F9CF56" stop-opacity="0.72"/>
</linearGradient>
</defs>
</svg>
