<svg width="82" height="104" viewBox="0 0 82 104" fill="none" xmlns="http://www.w3.org/2000/svg">
<path d="M15.868 94.14H12.22L11.548 96H10.396L13.42 87.684H14.68L17.692 96H16.54L15.868 94.14ZM15.556 93.252L14.044 89.028L12.532 93.252H15.556ZM18.7219 92.688C18.7219 92.016 18.8579 91.428 19.1299 90.924C19.4019 90.412 19.7739 90.016 20.2459 89.736C20.7259 89.456 21.2619 89.316 21.8539 89.316C22.3659 89.316 22.8419 89.436 23.2819 89.676C23.7219 89.908 24.0579 90.216 24.2899 90.6V87.12H25.3939V96H24.2899V94.764C24.0739 95.156 23.7539 95.48 23.3299 95.736C22.9059 95.984 22.4099 96.108 21.8419 96.108C21.2579 96.108 20.7259 95.964 20.2459 95.676C19.7739 95.388 19.4019 94.984 19.1299 94.464C18.8579 93.944 18.7219 93.352 18.7219 92.688ZM24.2899 92.7C24.2899 92.204 24.1899 91.772 23.9899 91.404C23.7899 91.036 23.5179 90.756 23.1739 90.564C22.8379 90.364 22.4659 90.264 22.0579 90.264C21.6499 90.264 21.2779 90.36 20.9419 90.552C20.6059 90.744 20.3379 91.024 20.1379 91.392C19.9379 91.76 19.8379 92.192 19.8379 92.688C19.8379 93.192 19.9379 93.632 20.1379 94.008C20.3379 94.376 20.6059 94.66 20.9419 94.86C21.2779 95.052 21.6499 95.148 22.0579 95.148C22.4659 95.148 22.8379 95.052 23.1739 94.86C23.5179 94.66 23.7899 94.376 23.9899 94.008C24.1899 93.632 24.2899 93.196 24.2899 92.7ZM26.9513 92.688C26.9513 92.016 27.0873 91.428 27.3593 90.924C27.6313 90.412 28.0033 90.016 28.4753 89.736C28.9553 89.456 29.4913 89.316 30.0833 89.316C30.5953 89.316 31.0713 89.436 31.5113 89.676C31.9513 89.908 32.2873 90.216 32.5193 90.6V87.12H33.6233V96H32.5193V94.764C32.3033 95.156 31.9833 95.48 31.5593 95.736C31.1353 95.984 30.6393 96.108 30.0713 96.108C29.4873 96.108 28.9553 95.964 28.4753 95.676C28.0033 95.388 27.6313 94.984 27.3593 94.464C27.0873 93.944 26.9513 93.352 26.9513 92.688ZM32.5193 92.7C32.5193 92.204 32.4193 91.772 32.2193 91.404C32.0193 91.036 31.7473 90.756 31.4033 90.564C31.0673 90.364 30.6953 90.264 30.2873 90.264C29.8793 90.264 29.5073 90.36 29.1713 90.552C28.8353 90.744 28.5673 91.024 28.3673 91.392C28.1673 91.76 28.0673 92.192 28.0673 92.688C28.0673 93.192 28.1673 93.632 28.3673 94.008C28.5673 94.376 28.8353 94.66 29.1713 94.86C29.5073 95.052 29.8793 95.148 30.2873 95.148C30.6953 95.148 31.0673 95.052 31.4033 94.86C31.7473 94.66 32.0193 94.376 32.2193 94.008C32.4193 93.632 32.5193 93.196 32.5193 92.7ZM39.9759 87.636V92.928C39.9759 93.672 40.1559 94.224 40.5159 94.584C40.8839 94.944 41.3919 95.124 42.0399 95.124C42.6799 95.124 43.1799 94.944 43.5399 94.584C43.9079 94.224 44.0919 93.672 44.0919 92.928V87.636H45.1839V92.916C45.1839 93.612 45.0439 94.2 44.7639 94.68C44.4839 95.152 44.1039 95.504 43.6239 95.736C43.1519 95.968 42.6199 96.084 42.0279 96.084C41.4359 96.084 40.8999 95.968 40.4199 95.736C39.9479 95.504 39.5719 95.152 39.2919 94.68C39.0199 94.2 38.8839 93.612 38.8839 92.916V87.636H39.9759ZM52.7176 90.084C52.7176 90.78 52.4776 91.36 51.9976 91.824C51.5256 92.28 50.8016 92.508 49.8256 92.508H48.2176V96H47.1256V87.636H49.8256C50.7696 87.636 51.4856 87.864 51.9736 88.32C52.4696 88.776 52.7176 89.364 52.7176 90.084ZM49.8256 91.608C50.4336 91.608 50.8816 91.476 51.1696 91.212C51.4576 90.948 51.6016 90.572 51.6016 90.084C51.6016 89.052 51.0096 88.536 49.8256 88.536H48.2176V91.608H49.8256ZM55.2868 87.636V96H54.1948V87.636H55.2868ZM61.6791 87.636V96H60.5871V87.636H61.6791ZM66.2643 87.636C67.1763 87.636 67.9643 87.808 68.6283 88.152C69.3003 88.488 69.8123 88.972 70.1643 89.604C70.5243 90.236 70.7043 90.98 70.7043 91.836C70.7043 92.692 70.5243 93.436 70.1643 94.068C69.8123 94.692 69.3003 95.172 68.6283 95.508C67.9643 95.836 67.1763 96 66.2643 96H63.6603V87.636H66.2643ZM66.2643 95.1C67.3443 95.1 68.1683 94.816 68.7363 94.248C69.3043 93.672 69.5883 92.868 69.5883 91.836C69.5883 90.796 69.3003 89.984 68.7243 89.4C68.1563 88.816 67.3363 88.524 66.2643 88.524H64.7523V95.1H66.2643Z" fill="black"/>
<g clip-path="url(#clip0_7171_5234)">
<path d="M66.1125 34.3033C63.7892 22.5158 53.4367 13.6666 41 13.6666C31.1258 13.6666 22.55 19.27 18.2792 27.47C7.995 28.5633 0 37.2758 0 47.8333C0 59.1425 9.19083 68.3333 20.5 68.3333H64.9167C74.3467 68.3333 82 60.68 82 51.25C82 42.23 74.9958 34.9183 66.1125 34.3033ZM47.8333 44.4166V58.0833H34.1667V44.4166H23.9167L41 27.3333L58.0833 44.4166H47.8333Z" fill="#A42C24"/>
</g>
<defs>
<clipPath id="clip0_7171_5234">
<rect width="82" height="82" fill="white"/>
</clipPath>
</defs>
</svg>
