<svg width="240" height="120" viewBox="0 0 240 120" fill="none" xmlns="http://www.w3.org/2000/svg">
<path d="M1.992 103.494V108.786C1.992 109.53 2.172 110.082 2.532 110.442C2.9 110.802 3.408 110.982 4.056 110.982C4.696 110.982 5.196 110.802 5.556 110.442C5.924 110.082 6.108 109.53 6.108 108.786V103.494H7.2V108.774C7.2 109.47 7.06 110.058 6.78 110.538C6.5 111.01 6.12 111.362 5.64 111.594C5.168 111.826 4.636 111.942 4.044 111.942C3.452 111.942 2.916 111.826 2.436 111.594C1.964 111.362 1.588 111.01 1.308 110.538C1.036 110.058 0.9 109.47 0.9 108.774V103.494H1.992ZM14.7337 105.942C14.7337 106.638 14.4937 107.218 14.0137 107.682C13.5417 108.138 12.8177 108.366 11.8417 108.366H10.2337V111.858H9.14166V103.494H11.8417C12.7857 103.494 13.5017 103.722 13.9897 104.178C14.4857 104.634 14.7337 105.222 14.7337 105.942ZM11.8417 107.466C12.4497 107.466 12.8977 107.334 13.1857 107.07C13.4737 106.806 13.6177 106.43 13.6177 105.942C13.6177 104.91 13.0257 104.394 11.8417 104.394H10.2337V107.466H11.8417ZM17.3029 103.494V111.858H16.2109V103.494H17.3029ZM23.6952 103.494V111.858H22.6032V103.494H23.6952ZM28.2803 103.494C29.1923 103.494 29.9803 103.666 30.6443 104.01C31.3163 104.346 31.8283 104.83 32.1803 105.462C32.5403 106.094 32.7203 106.838 32.7203 107.694C32.7203 108.55 32.5403 109.294 32.1803 109.926C31.8283 110.55 31.3163 111.03 30.6443 111.366C29.9803 111.694 29.1923 111.858 28.2803 111.858H25.6763V103.494H28.2803ZM28.2803 110.958C29.3603 110.958 30.1843 110.674 30.7523 110.106C31.3203 109.53 31.6043 108.726 31.6043 107.694C31.6043 106.654 31.3163 105.842 30.7403 105.258C30.1723 104.674 29.3523 104.382 28.2803 104.382H26.7683V110.958H28.2803ZM38.6919 103.494V111.858H37.5999V103.494H38.6919ZM43.0011 111.966C42.4971 111.966 42.0451 111.882 41.6451 111.714C41.2451 111.538 40.9291 111.298 40.6971 110.994C40.4651 110.682 40.3371 110.326 40.3131 109.926H41.4411C41.4731 110.254 41.6251 110.522 41.8971 110.73C42.1771 110.938 42.5411 111.042 42.9891 111.042C43.4051 111.042 43.7331 110.95 43.9731 110.766C44.2131 110.582 44.3331 110.35 44.3331 110.07C44.3331 109.782 44.2051 109.57 43.9491 109.434C43.6931 109.29 43.2971 109.15 42.7611 109.014C42.2731 108.886 41.8731 108.758 41.5611 108.63C41.2571 108.494 40.9931 108.298 40.7691 108.042C40.5531 107.778 40.4451 107.434 40.4451 107.01C40.4451 106.674 40.5451 106.366 40.7451 106.086C40.9451 105.806 41.2291 105.586 41.5971 105.426C41.9651 105.258 42.3851 105.174 42.8571 105.174C43.5851 105.174 44.1731 105.358 44.6211 105.726C45.0691 106.094 45.3091 106.598 45.3411 107.238H44.2491C44.2251 106.894 44.0851 106.618 43.8291 106.41C43.5811 106.202 43.2451 106.098 42.8211 106.098C42.4291 106.098 42.1171 106.182 41.8851 106.35C41.6531 106.518 41.5371 106.738 41.5371 107.01C41.5371 107.226 41.6051 107.406 41.7411 107.55C41.8851 107.686 42.0611 107.798 42.2691 107.886C42.4851 107.966 42.7811 108.058 43.1571 108.162C43.6291 108.29 44.0131 108.418 44.3091 108.546C44.6051 108.666 44.8571 108.85 45.0651 109.098C45.2811 109.346 45.3931 109.67 45.4011 110.07C45.4011 110.43 45.3011 110.754 45.1011 111.042C44.9011 111.33 44.6171 111.558 44.2491 111.726C43.8891 111.886 43.4731 111.966 43.0011 111.966ZM56.9578 111.858H55.8658L51.4738 105.198V111.858H50.3818V103.482H51.4738L55.8658 110.13V103.482H56.9578V111.858ZM61.8073 111.966C61.1913 111.966 60.6313 111.826 60.1273 111.546C59.6313 111.266 59.2393 110.87 58.9513 110.358C58.6713 109.838 58.5313 109.238 58.5313 108.558C58.5313 107.886 58.6753 107.294 58.9633 106.782C59.2593 106.262 59.6593 105.866 60.1633 105.594C60.6673 105.314 61.2313 105.174 61.8553 105.174C62.4793 105.174 63.0433 105.314 63.5473 105.594C64.0513 105.866 64.4473 106.258 64.7353 106.77C65.0313 107.282 65.1793 107.878 65.1793 108.558C65.1793 109.238 65.0273 109.838 64.7233 110.358C64.4273 110.87 64.0233 111.266 63.5113 111.546C62.9993 111.826 62.4313 111.966 61.8073 111.966ZM61.8073 111.006C62.1993 111.006 62.5673 110.914 62.9113 110.73C63.2553 110.546 63.5313 110.27 63.7393 109.902C63.9553 109.534 64.0633 109.086 64.0633 108.558C64.0633 108.03 63.9593 107.582 63.7513 107.214C63.5433 106.846 63.2713 106.574 62.9353 106.398C62.5993 106.214 62.2353 106.122 61.8433 106.122C61.4433 106.122 61.0753 106.214 60.7393 106.398C60.4113 106.574 60.1473 106.846 59.9473 107.214C59.7473 107.582 59.6473 108.03 59.6473 108.558C59.6473 109.094 59.7433 109.546 59.9353 109.914C60.1353 110.282 60.3993 110.558 60.7273 110.742C61.0553 110.918 61.4153 111.006 61.8073 111.006ZM68.0671 106.182V110.058C68.0671 110.378 68.1351 110.606 68.2711 110.742C68.4071 110.87 68.6431 110.934 68.9791 110.934H69.7831V111.858H68.7991C68.1911 111.858 67.7351 111.718 67.4311 111.438C67.1271 111.158 66.9751 110.698 66.9751 110.058V106.182H66.1231V105.282H66.9751V103.626H68.0671V105.282H69.7831V106.182H68.0671ZM79.4894 109.998H75.8414L75.1694 111.858H74.0174L77.0414 103.542H78.3014L81.3134 111.858H80.1614L79.4894 109.998ZM79.1774 109.11L77.6654 104.886L76.1534 109.11H79.1774ZM82.3433 108.546C82.3433 107.874 82.4793 107.286 82.7513 106.782C83.0233 106.27 83.3953 105.874 83.8673 105.594C84.3473 105.314 84.8833 105.174 85.4753 105.174C85.9873 105.174 86.4633 105.294 86.9033 105.534C87.3433 105.766 87.6793 106.074 87.9113 106.458V102.978H89.0153V111.858H87.9113V110.622C87.6953 111.014 87.3753 111.338 86.9513 111.594C86.5273 111.842 86.0313 111.966 85.4633 111.966C84.8793 111.966 84.3473 111.822 83.8673 111.534C83.3953 111.246 83.0233 110.842 82.7513 110.322C82.4793 109.802 82.3433 109.21 82.3433 108.546ZM87.9113 108.558C87.9113 108.062 87.8113 107.63 87.6113 107.262C87.4113 106.894 87.1393 106.614 86.7953 106.422C86.4593 106.222 86.0873 106.122 85.6793 106.122C85.2713 106.122 84.8993 106.218 84.5633 106.41C84.2273 106.602 83.9593 106.882 83.7593 107.25C83.5593 107.618 83.4593 108.05 83.4593 108.546C83.4593 109.05 83.5593 109.49 83.7593 109.866C83.9593 110.234 84.2273 110.518 84.5633 110.718C84.8993 110.91 85.2713 111.006 85.6793 111.006C86.0873 111.006 86.4593 110.91 86.7953 110.718C87.1393 110.518 87.4113 110.234 87.6113 109.866C87.8113 109.49 87.9113 109.054 87.9113 108.558ZM90.5727 108.546C90.5727 107.874 90.7087 107.286 90.9807 106.782C91.2527 106.27 91.6247 105.874 92.0967 105.594C92.5767 105.314 93.1127 105.174 93.7047 105.174C94.2167 105.174 94.6927 105.294 95.1327 105.534C95.5727 105.766 95.9087 106.074 96.1407 106.458V102.978H97.2447V111.858H96.1407V110.622C95.9247 111.014 95.6047 111.338 95.1807 111.594C94.7567 111.842 94.2607 111.966 93.6927 111.966C93.1087 111.966 92.5767 111.822 92.0967 111.534C91.6247 111.246 91.2527 110.842 90.9807 110.322C90.7087 109.802 90.5727 109.21 90.5727 108.546ZM96.1407 108.558C96.1407 108.062 96.0407 107.63 95.8407 107.262C95.6407 106.894 95.3687 106.614 95.0247 106.422C94.6887 106.222 94.3167 106.122 93.9087 106.122C93.5007 106.122 93.1287 106.218 92.7927 106.41C92.4567 106.602 92.1887 106.882 91.9887 107.25C91.7887 107.618 91.6887 108.05 91.6887 108.546C91.6887 109.05 91.7887 109.49 91.9887 109.866C92.1887 110.234 92.4567 110.518 92.7927 110.718C93.1287 110.91 93.5007 111.006 93.9087 111.006C94.3167 111.006 94.6887 110.91 95.0247 110.718C95.3687 110.518 95.6407 110.234 95.8407 109.866C96.0407 109.49 96.1407 109.054 96.1407 108.558ZM105.21 108.318C105.21 108.526 105.198 108.746 105.174 108.978H99.9181C99.9581 109.626 100.178 110.134 100.578 110.502C100.986 110.862 101.478 111.042 102.054 111.042C102.526 111.042 102.918 110.934 103.23 110.718C103.55 110.494 103.774 110.198 103.902 109.83H105.078C104.902 110.462 104.55 110.978 104.022 111.378C103.494 111.77 102.838 111.966 102.054 111.966C101.43 111.966 100.87 111.826 100.374 111.546C99.8861 111.266 99.5021 110.87 99.2221 110.358C98.9421 109.838 98.8021 109.238 98.8021 108.558C98.8021 107.878 98.9381 107.282 99.2101 106.77C99.4821 106.258 99.8621 105.866 100.35 105.594C100.846 105.314 101.414 105.174 102.054 105.174C102.678 105.174 103.23 105.31 103.71 105.582C104.19 105.854 104.558 106.23 104.814 106.71C105.078 107.182 105.21 107.718 105.21 108.318ZM104.082 108.09C104.082 107.674 103.99 107.318 103.806 107.022C103.622 106.718 103.37 106.49 103.05 106.338C102.738 106.178 102.39 106.098 102.006 106.098C101.454 106.098 100.982 106.274 100.59 106.626C100.206 106.978 99.9861 107.466 99.9301 108.09H104.082ZM106.364 108.546C106.364 107.874 106.5 107.286 106.772 106.782C107.044 106.27 107.416 105.874 107.888 105.594C108.368 105.314 108.904 105.174 109.496 105.174C110.008 105.174 110.484 105.294 110.924 105.534C111.364 105.766 111.7 106.074 111.932 106.458V102.978H113.036V111.858H111.932V110.622C111.716 111.014 111.396 111.338 110.972 111.594C110.548 111.842 110.052 111.966 109.484 111.966C108.9 111.966 108.368 111.822 107.888 111.534C107.416 111.246 107.044 110.842 106.772 110.322C106.5 109.802 106.364 109.21 106.364 108.546ZM111.932 108.558C111.932 108.062 111.832 107.63 111.632 107.262C111.432 106.894 111.16 106.614 110.816 106.422C110.48 106.222 110.108 106.122 109.7 106.122C109.292 106.122 108.92 106.218 108.584 106.41C108.248 106.602 107.98 106.882 107.78 107.25C107.58 107.618 107.48 108.05 107.48 108.546C107.48 109.05 107.58 109.49 107.78 109.866C107.98 110.234 108.248 110.518 108.584 110.718C108.92 110.91 109.292 111.006 109.7 111.006C110.108 111.006 110.48 110.91 110.816 110.718C111.16 110.518 111.432 110.234 111.632 109.866C111.832 109.49 111.932 109.054 111.932 108.558ZM122.508 107.55C122.812 107.598 123.088 107.722 123.336 107.922C123.592 108.122 123.792 108.37 123.936 108.666C124.088 108.962 124.164 109.278 124.164 109.614C124.164 110.038 124.056 110.422 123.84 110.766C123.624 111.102 123.308 111.37 122.892 111.57C122.484 111.762 122 111.858 121.44 111.858H118.32V103.494H121.32C121.888 103.494 122.372 103.59 122.772 103.782C123.172 103.966 123.472 104.218 123.672 104.538C123.872 104.858 123.972 105.218 123.972 105.618C123.972 106.114 123.836 106.526 123.564 106.854C123.3 107.174 122.948 107.406 122.508 107.55ZM119.412 107.106H121.248C121.76 107.106 122.156 106.986 122.436 106.746C122.716 106.506 122.856 106.174 122.856 105.75C122.856 105.326 122.716 104.994 122.436 104.754C122.156 104.514 121.752 104.394 121.224 104.394H119.412V107.106ZM121.344 110.958C121.888 110.958 122.312 110.83 122.616 110.574C122.92 110.318 123.072 109.962 123.072 109.506C123.072 109.042 122.912 108.678 122.592 108.414C122.272 108.142 121.844 108.006 121.308 108.006H119.412V110.958H121.344ZM131.463 105.282L127.503 114.954H126.375L127.671 111.786L125.019 105.282H126.231L128.295 110.61L130.335 105.282H131.463ZM141.856 103.494L139.132 108.702V111.858H138.04V108.702L135.304 103.494H136.516L138.58 107.73L140.644 103.494H141.856ZM145.996 111.966C145.38 111.966 144.82 111.826 144.316 111.546C143.82 111.266 143.428 110.87 143.14 110.358C142.86 109.838 142.72 109.238 142.72 108.558C142.72 107.886 142.864 107.294 143.152 106.782C143.448 106.262 143.848 105.866 144.352 105.594C144.856 105.314 145.42 105.174 146.044 105.174C146.668 105.174 147.232 105.314 147.736 105.594C148.24 105.866 148.636 106.258 148.924 106.77C149.22 107.282 149.368 107.878 149.368 108.558C149.368 109.238 149.216 109.838 148.912 110.358C148.616 110.87 148.212 111.266 147.7 111.546C147.188 111.826 146.62 111.966 145.996 111.966ZM145.996 111.006C146.388 111.006 146.756 110.914 147.1 110.73C147.444 110.546 147.72 110.27 147.928 109.902C148.144 109.534 148.252 109.086 148.252 108.558C148.252 108.03 148.148 107.582 147.94 107.214C147.732 106.846 147.46 106.574 147.124 106.398C146.788 106.214 146.424 106.122 146.032 106.122C145.632 106.122 145.264 106.214 144.928 106.398C144.6 106.574 144.336 106.846 144.136 107.214C143.936 107.582 143.836 108.03 143.836 108.558C143.836 109.094 143.932 109.546 144.124 109.914C144.324 110.282 144.588 110.558 144.916 110.742C145.244 110.918 145.604 111.006 145.996 111.006ZM156.756 105.282V111.858H155.664V110.886C155.456 111.222 155.164 111.486 154.788 111.678C154.42 111.862 154.012 111.954 153.564 111.954C153.052 111.954 152.592 111.85 152.184 111.642C151.776 111.426 151.452 111.106 151.212 110.682C150.98 110.258 150.864 109.742 150.864 109.134V105.282H151.944V108.99C151.944 109.638 152.108 110.138 152.436 110.49C152.764 110.834 153.212 111.006 153.78 111.006C154.364 111.006 154.824 110.826 155.16 110.466C155.496 110.106 155.664 109.582 155.664 108.894V105.282H156.756ZM159.812 106.35C160.004 105.974 160.276 105.682 160.628 105.474C160.988 105.266 161.424 105.162 161.936 105.162V106.29H161.648C160.424 106.29 159.812 106.954 159.812 108.282V111.858H158.72V105.282H159.812V106.35ZM169.288 111.942C168.736 111.942 168.24 111.846 167.8 111.654C167.368 111.454 167.028 111.182 166.78 110.838C166.532 110.486 166.404 110.082 166.396 109.626H167.56C167.6 110.018 167.76 110.35 168.04 110.622C168.328 110.886 168.744 111.018 169.288 111.018C169.808 111.018 170.216 110.89 170.512 110.634C170.816 110.37 170.968 110.034 170.968 109.626C170.968 109.306 170.88 109.046 170.704 108.846C170.528 108.646 170.308 108.494 170.044 108.39C169.78 108.286 169.424 108.174 168.976 108.054C168.424 107.91 167.98 107.766 167.644 107.622C167.316 107.478 167.032 107.254 166.792 106.95C166.56 106.638 166.444 106.222 166.444 105.702C166.444 105.246 166.56 104.842 166.792 104.49C167.024 104.138 167.348 103.866 167.764 103.674C168.188 103.482 168.672 103.386 169.216 103.386C170 103.386 170.64 103.582 171.136 103.974C171.64 104.366 171.924 104.886 171.988 105.534H170.788C170.748 105.214 170.58 104.934 170.284 104.694C169.988 104.446 169.596 104.322 169.108 104.322C168.652 104.322 168.28 104.442 167.992 104.682C167.704 104.914 167.56 105.242 167.56 105.666C167.56 105.97 167.644 106.218 167.812 106.41C167.988 106.602 168.2 106.75 168.448 106.854C168.704 106.95 169.06 107.062 169.516 107.19C170.068 107.342 170.512 107.494 170.848 107.646C171.184 107.79 171.472 108.018 171.712 108.33C171.952 108.634 172.072 109.05 172.072 109.578C172.072 109.986 171.964 110.37 171.748 110.73C171.532 111.09 171.212 111.382 170.788 111.606C170.364 111.83 169.864 111.942 169.288 111.942ZM177.063 105.162C177.559 105.162 178.007 105.27 178.407 105.486C178.807 105.694 179.119 106.01 179.343 106.434C179.575 106.858 179.691 107.374 179.691 107.982V111.858H178.611V108.138C178.611 107.482 178.447 106.982 178.119 106.638C177.791 106.286 177.343 106.11 176.775 106.11C176.199 106.11 175.739 106.29 175.395 106.65C175.059 107.01 174.891 107.534 174.891 108.222V111.858H173.799V102.978H174.891V106.218C175.107 105.882 175.403 105.622 175.779 105.438C176.163 105.254 176.591 105.162 177.063 105.162ZM184.462 111.966C183.846 111.966 183.286 111.826 182.782 111.546C182.286 111.266 181.894 110.87 181.606 110.358C181.326 109.838 181.186 109.238 181.186 108.558C181.186 107.886 181.33 107.294 181.618 106.782C181.914 106.262 182.314 105.866 182.818 105.594C183.322 105.314 183.886 105.174 184.51 105.174C185.134 105.174 185.698 105.314 186.202 105.594C186.706 105.866 187.102 106.258 187.39 106.77C187.686 107.282 187.834 107.878 187.834 108.558C187.834 109.238 187.682 109.838 187.378 110.358C187.082 110.87 186.678 111.266 186.166 111.546C185.654 111.826 185.086 111.966 184.462 111.966ZM184.462 111.006C184.854 111.006 185.222 110.914 185.566 110.73C185.91 110.546 186.186 110.27 186.394 109.902C186.61 109.534 186.718 109.086 186.718 108.558C186.718 108.03 186.614 107.582 186.406 107.214C186.198 106.846 185.926 106.574 185.59 106.398C185.254 106.214 184.89 106.122 184.498 106.122C184.098 106.122 183.73 106.214 183.394 106.398C183.066 106.574 182.802 106.846 182.602 107.214C182.402 107.582 182.302 108.03 182.302 108.558C182.302 109.094 182.398 109.546 182.59 109.914C182.79 110.282 183.054 110.558 183.382 110.742C183.71 110.918 184.07 111.006 184.462 111.006ZM190.482 106.494C190.698 106.118 191.018 105.806 191.442 105.558C191.874 105.302 192.374 105.174 192.942 105.174C193.526 105.174 194.054 105.314 194.526 105.594C195.006 105.874 195.382 106.27 195.654 106.782C195.926 107.286 196.062 107.874 196.062 108.546C196.062 109.21 195.926 109.802 195.654 110.322C195.382 110.842 195.006 111.246 194.526 111.534C194.054 111.822 193.526 111.966 192.942 111.966C192.382 111.966 191.886 111.842 191.454 111.594C191.03 111.338 190.706 111.022 190.482 110.646V114.978H189.39V105.282H190.482V106.494ZM194.946 108.546C194.946 108.05 194.846 107.618 194.646 107.25C194.446 106.882 194.174 106.602 193.83 106.41C193.494 106.218 193.122 106.122 192.714 106.122C192.314 106.122 191.942 106.222 191.598 106.422C191.262 106.614 190.99 106.898 190.782 107.274C190.582 107.642 190.482 108.07 190.482 108.558C190.482 109.054 190.582 109.49 190.782 109.866C190.99 110.234 191.262 110.518 191.598 110.718C191.942 110.91 192.314 111.006 192.714 111.006C193.122 111.006 193.494 110.91 193.83 110.718C194.174 110.518 194.446 110.234 194.646 109.866C194.846 109.49 194.946 109.05 194.946 108.546ZM204.731 111.942C203.955 111.942 203.247 111.762 202.607 111.402C201.967 111.034 201.459 110.526 201.083 109.878C200.715 109.222 200.531 108.486 200.531 107.67C200.531 106.854 200.715 106.122 201.083 105.474C201.459 104.818 201.967 104.31 202.607 103.95C203.247 103.582 203.955 103.398 204.731 103.398C205.515 103.398 206.227 103.582 206.867 103.95C207.507 104.31 208.011 104.814 208.379 105.462C208.747 106.11 208.931 106.846 208.931 107.67C208.931 108.494 208.747 109.23 208.379 109.878C208.011 110.526 207.507 111.034 206.867 111.402C206.227 111.762 205.515 111.942 204.731 111.942ZM204.731 110.994C205.315 110.994 205.839 110.858 206.303 110.586C206.775 110.314 207.143 109.926 207.407 109.422C207.679 108.918 207.815 108.334 207.815 107.67C207.815 106.998 207.679 106.414 207.407 105.918C207.143 105.414 206.779 105.026 206.315 104.754C205.851 104.482 205.323 104.346 204.731 104.346C204.139 104.346 203.611 104.482 203.147 104.754C202.683 105.026 202.315 105.414 202.043 105.918C201.779 106.414 201.647 106.998 201.647 107.67C201.647 108.334 201.779 108.918 202.043 109.422C202.315 109.926 202.683 110.314 203.147 110.586C203.619 110.858 204.147 110.994 204.731 110.994ZM219.252 105.282L217.2 111.858H216.072L214.488 106.638L212.904 111.858H211.776L209.712 105.282H210.828L212.34 110.802L213.972 105.282H215.088L216.684 110.814L218.172 105.282H219.252ZM223.66 105.162C224.46 105.162 225.108 105.406 225.604 105.894C226.1 106.374 226.348 107.07 226.348 107.982V111.858H225.268V108.138C225.268 107.482 225.104 106.982 224.776 106.638C224.448 106.286 224 106.11 223.432 106.11C222.856 106.11 222.396 106.29 222.052 106.65C221.716 107.01 221.548 107.534 221.548 108.222V111.858H220.456V105.282H221.548V106.218C221.764 105.882 222.056 105.622 222.424 105.438C222.8 105.254 223.212 105.162 223.66 105.162ZM234.252 108.318C234.252 108.526 234.24 108.746 234.216 108.978H228.96C229 109.626 229.22 110.134 229.62 110.502C230.028 110.862 230.52 111.042 231.096 111.042C231.568 111.042 231.96 110.934 232.272 110.718C232.592 110.494 232.816 110.198 232.944 109.83H234.12C233.944 110.462 233.592 110.978 233.064 111.378C232.536 111.77 231.88 111.966 231.096 111.966C230.472 111.966 229.912 111.826 229.416 111.546C228.928 111.266 228.544 110.87 228.264 110.358C227.984 109.838 227.844 109.238 227.844 108.558C227.844 107.878 227.98 107.282 228.252 106.77C228.524 106.258 228.904 105.866 229.392 105.594C229.888 105.314 230.456 105.174 231.096 105.174C231.72 105.174 232.272 105.31 232.752 105.582C233.232 105.854 233.6 106.23 233.856 106.71C234.12 107.182 234.252 107.718 234.252 108.318ZM233.124 108.09C233.124 107.674 233.032 107.318 232.848 107.022C232.664 106.718 232.412 106.49 232.092 106.338C231.78 106.178 231.432 106.098 231.048 106.098C230.496 106.098 230.024 106.274 229.632 106.626C229.248 106.978 229.028 107.466 228.972 108.09H233.124ZM236.905 106.35C237.097 105.974 237.369 105.682 237.721 105.474C238.081 105.266 238.517 105.162 239.029 105.162V106.29H238.741C237.517 106.29 236.905 106.954 236.905 108.282V111.858H235.813V105.282H236.905V106.35Z" fill="black"/>
<path d="M136.942 40.1784L136.91 54.9614L136.855 69.7553L136.421 70.6888C135.889 71.8501 134.956 72.7836 133.795 73.3154L132.861 73.7496L121.584 73.8038L110.285 73.8581H88.9463L77.669 73.8038L66.3701 73.7496L65.4367 73.3154C64.2753 72.7836 63.331 71.8501 62.7992 70.6888L62.365 69.7553L62.3108 54.9614L62.2891 40.1784L62.9077 40.4498C64.9374 41.3398 67.4338 41.8065 69.8434 41.8065C71.0047 41.8065 72.1444 41.698 73.1972 41.47C73.3709 41.4375 73.5446 41.3941 73.7074 41.3506C75.3029 40.9382 77.452 40.0699 78.5374 39.3861C79.0041 39.1039 79.4491 38.8542 79.5902 38.8542C79.7313 38.8542 80.2414 39.1039 80.7624 39.4078C85.9723 42.4577 93.277 42.4577 98.4868 39.4078C99.0078 39.1039 99.518 38.8542 99.6156 38.8542C99.7133 38.8542 100.234 39.1039 100.755 39.4078C101.928 40.0916 103.187 40.6234 104.489 40.9925C104.988 41.1336 105.498 41.253 106.019 41.3506C110.252 42.1647 114.865 41.5135 118.48 39.4078C118.805 39.2124 119.153 39.0388 119.511 38.8868C119.598 38.8868 119.685 38.8977 119.771 38.9085C120.108 39.0605 120.444 39.2341 120.759 39.4295C121.855 40.0807 123.017 40.6017 124.232 40.9816C124.254 41.0033 124.276 41.025 124.308 41.0576C124.287 41.0359 124.254 41.0033 124.232 40.9816C125.567 41.4158 126.957 41.6871 128.357 41.7957C130.842 41.9802 134.12 41.4266 136.324 40.4606L136.942 40.1784Z" fill="#FCC464"/>
<path d="M139.785 13.6377C138.32 7.78745 137.083 3.26137 136.866 2.79465C136.388 1.85036 135.335 0.862657 134.282 0.385085L133.523 0.0377607L99.8646 0.00519866C73.1423 -0.0165092 66.0764 0.0269078 65.5446 0.189716C64.177 0.602165 63.0373 1.54645 62.3644 2.80551C62.1473 3.27222 60.9208 7.80916 59.4447 13.6486C57.0134 23.3845 56.9266 23.7318 57.0243 24.98C57.491 31.4924 62.5598 36.7782 68.7356 37.2015C70.2986 37.3209 71.8724 37.1256 73.3594 36.6371C73.3703 36.6154 73.3811 36.5937 73.392 36.5829C73.3811 36.6046 73.3703 36.6263 73.3594 36.648C75.3131 35.9967 77.0823 34.8788 78.5042 33.3918L79.6113 32.2196L80.7401 33.3701C85.7546 38.5366 93.45 38.5366 98.4862 33.3701L99.5933 32.2196L100.733 33.3701C103.294 35.9967 106.54 37.2884 109.785 37.2449C112.9 37.1907 116.004 35.9099 118.479 33.3701L119.586 32.2196L120.726 33.3918C123.363 36.1053 126.837 37.4729 130.473 37.2015C136.659 36.7674 141.717 31.4924 142.184 24.98C142.303 23.721 142.227 23.3737 139.785 13.6377Z" fill="#E75E41"/>
<g clip-path="url(#clip0_7171_5235)">
<path d="M170.744 50.6318C168.93 41.4318 160.85 34.5251 151.144 34.5251C143.437 34.5251 136.744 38.8985 133.41 45.2985C125.384 46.1518 119.144 52.9518 119.144 61.1918C119.144 70.0185 126.317 77.1918 135.144 77.1918H169.81C177.17 77.1918 183.144 71.2185 183.144 63.8585C183.144 56.8185 177.677 51.1118 170.744 50.6318ZM156.477 58.5251V69.1918H145.81V58.5251H137.81L151.144 45.1918L164.477 58.5251H156.477Z" fill="#A42C24"/>
</g>
<defs>
<clipPath id="clip0_7171_5235">
<rect width="64" height="64" fill="white" transform="translate(119.144 23.8584)"/>
</clipPath>
</defs>
</svg>
