<svg width="32" height="32" viewBox="0 0 32 32" fill="none" xmlns="http://www.w3.org/2000/svg">
<g clip-path="url(#clip0_1662_977)">
<path d="M12.666 8.6665V12.6665H8.66602V8.6665H12.666ZM14.666 6.6665H6.66602V14.6665H14.666V6.6665ZM12.666 19.3332V23.3332H8.66602V19.3332H12.666ZM14.666 17.3332H6.66602V25.3332H14.666V17.3332ZM23.3327 8.6665V12.6665H19.3327V8.6665H23.3327ZM25.3327 6.6665H17.3327V14.6665H25.3327V6.6665ZM17.3327 17.3332H19.3327V19.3332H17.3327V17.3332ZM19.3327 19.3332H21.3327V21.3332H19.3327V19.3332ZM21.3327 17.3332H23.3327V19.3332H21.3327V17.3332ZM17.3327 21.3332H19.3327V23.3332H17.3327V21.3332ZM19.3327 23.3332H21.3327V25.3332H19.3327V23.3332ZM21.3327 21.3332H23.3327V23.3332H21.3327V21.3332ZM23.3327 19.3332H25.3327V21.3332H23.3327V19.3332ZM23.3327 23.3332H25.3327V25.3332H23.3327V23.3332ZM29.3327 9.33317H26.666V5.33317H22.666V2.6665H29.3327V9.33317ZM29.3327 29.3332V22.6665H26.666V26.6665H22.666V29.3332H29.3327ZM2.66602 29.3332H9.33268V26.6665H5.33268V22.6665H2.66602V29.3332ZM2.66602 2.6665V9.33317H5.33268V5.33317H9.33268V2.6665H2.66602Z" fill="#A42C24"/>
</g>
<defs>
<clipPath id="clip0_1662_977">
<rect width="32" height="32" fill="white"/>
</clipPath>
</defs>
</svg>
