<svg width="187" height="16" viewBox="0 0 187 16" fill="none" xmlns="http://www.w3.org/2000/svg">
<path d="M6.62385 15.66C4.91718 15.66 3.55051 15.1333 2.52385 14.08C1.49718 13.0133 0.983848 11.54 0.983848 9.66V1.3H3.38385V9.48C3.38385 10.64 3.67051 11.58 4.24385 12.3C4.83051 13.02 5.62385 13.38 6.62385 13.38C7.59718 13.38 8.38385 13.0333 8.98385 12.34C9.58385 11.6333 9.88385 10.68 9.88385 9.48V1.3H12.3038V9.66C12.3038 11.5133 11.7972 12.98 10.7838 14.06C9.77051 15.1267 8.38385 15.66 6.62385 15.66ZM15.5588 15.5V1.3H20.6988C22.3255 1.3 23.5388 1.72 24.3388 2.56C25.1522 3.38667 25.5588 4.5 25.5588 5.9C25.5588 7.39333 25.0988 8.52667 24.1788 9.3C23.2588 10.06 22.0055 10.44 20.4188 10.44H17.9788V15.5H15.5588ZM17.9788 8.26H20.1788C21.1388 8.26 21.8588 8.04667 22.3388 7.62C22.8188 7.18 23.0588 6.59333 23.0588 5.86C23.0588 5.1 22.8255 4.51333 22.3588 4.1C21.8922 3.67333 21.2255 3.46 20.3588 3.46H17.9788V8.26ZM28.217 15.5V1.3H30.637V15.5H28.217ZM39.6428 15.5V1.3H42.0628V15.5H39.6428ZM45.637 15.5V1.3H50.157C52.3836 1.3 54.1703 1.96 55.517 3.28C56.8636 4.58667 57.537 6.3 57.537 8.42C57.537 10.54 56.877 12.2533 55.557 13.56C54.2503 14.8533 52.4703 15.5 50.217 15.5H45.637ZM48.057 13.34H50.077C51.557 13.34 52.7503 12.88 53.657 11.96C54.577 11.0267 55.037 9.84667 55.037 8.42C55.037 6.98 54.5836 5.79333 53.677 4.86C52.7836 3.92667 51.6236 3.46 50.197 3.46H48.057V13.34ZM70.9751 5.6C72.0951 5.6 72.9684 5.94 73.5951 6.62C74.2351 7.3 74.5551 8.34667 74.5551 9.76V15.5H72.3151V10.34C72.3151 9.35333 72.1351 8.65333 71.7751 8.24C71.4284 7.82667 70.9018 7.62 70.1951 7.62C69.4218 7.62 68.8084 7.88 68.3551 8.4C67.9018 8.92 67.6751 9.65333 67.6751 10.6V15.5H65.4351V5.74H67.6751V7.1H67.6951C68.5351 6.1 69.6284 5.6 70.9751 5.6ZM81.8306 15.66C80.3106 15.66 79.0772 15.1867 78.1306 14.24C77.1839 13.2933 76.7106 12.0933 76.7106 10.64C76.7106 9.18667 77.1839 7.98667 78.1306 7.04C79.0772 6.08 80.3106 5.6 81.8306 5.6C83.3372 5.6 84.5639 6.06667 85.5106 7C86.4706 7.93333 86.9506 9.14667 86.9506 10.64C86.9506 12.12 86.4706 13.3267 85.5106 14.26C84.5639 15.1933 83.3372 15.66 81.8306 15.66ZM81.8306 13.62C82.6306 13.62 83.3039 13.34 83.8506 12.78C84.3972 12.22 84.6706 11.5067 84.6706 10.64C84.6706 9.74667 84.3972 9.02 83.8506 8.46C83.3172 7.9 82.6439 7.62 81.8306 7.62C80.9906 7.62 80.3039 7.90667 79.7706 8.48C79.2506 9.05333 78.9906 9.77333 78.9906 10.64C78.9906 11.48 79.2572 12.1867 79.7906 12.76C80.3239 13.3333 81.0039 13.62 81.8306 13.62ZM92.1046 15.66C91.2513 15.66 90.5846 15.3867 90.1046 14.84C89.6246 14.2933 89.3846 13.4867 89.3846 12.42V7.64H88.1846V5.74H89.3846V2.5L91.6246 2.26V5.74H94.4846V7.64H91.6246V12.2C91.6246 12.6933 91.698 13.0467 91.8446 13.26C91.9913 13.46 92.2313 13.56 92.5646 13.56C93.0046 13.56 93.4846 13.42 94.0046 13.14L94.5846 15.08C93.878 15.4667 93.0513 15.66 92.1046 15.66ZM109.021 5.74H111.261V15.5H109.121V14.2H109.081C108.361 15.1733 107.328 15.66 105.981 15.66C104.608 15.66 103.474 15.2 102.581 14.28C101.701 13.36 101.261 12.1533 101.261 10.66C101.261 9.19333 101.708 7.98667 102.601 7.04C103.494 6.08 104.614 5.6 105.961 5.6C107.241 5.6 108.248 6.04 108.981 6.92H109.021V5.74ZM106.341 13.62C107.114 13.62 107.768 13.3467 108.301 12.8C108.848 12.2533 109.121 11.5467 109.121 10.68C109.121 9.81333 108.854 9.08667 108.321 8.5C107.801 7.91333 107.141 7.62 106.341 7.62C105.541 7.62 104.874 7.9 104.341 8.46C103.808 9.02 103.541 9.76 103.541 10.68C103.541 11.5467 103.801 12.2533 104.321 12.8C104.841 13.3467 105.514 13.62 106.341 13.62ZM120.507 5.74H122.907L119.047 15.5H116.907L113.027 5.74H115.407L117.967 12.7H117.987L120.507 5.74ZM131.384 5.74H133.624V15.5H131.484V14.2H131.444C130.724 15.1733 129.691 15.66 128.344 15.66C126.971 15.66 125.837 15.2 124.944 14.28C124.064 13.36 123.624 12.1533 123.624 10.66C123.624 9.19333 124.071 7.98667 124.964 7.04C125.857 6.08 126.977 5.6 128.324 5.6C129.604 5.6 130.611 6.04 131.344 6.92H131.384V5.74ZM128.704 13.62C129.477 13.62 130.131 13.3467 130.664 12.8C131.211 12.2533 131.484 11.5467 131.484 10.68C131.484 9.81333 131.217 9.08667 130.684 8.5C130.164 7.91333 129.504 7.62 128.704 7.62C127.904 7.62 127.237 7.9 126.704 8.46C126.171 9.02 125.904 9.76 125.904 10.68C125.904 11.5467 126.164 12.2533 126.684 12.8C127.204 13.3467 127.877 13.62 128.704 13.62ZM138.771 3.86C138.477 4.15333 138.124 4.3 137.711 4.3C137.297 4.3 136.944 4.15333 136.651 3.86C136.357 3.56667 136.211 3.21333 136.211 2.8C136.211 2.4 136.357 2.05333 136.651 1.76C136.944 1.46667 137.297 1.32 137.711 1.32C138.124 1.32 138.477 1.46667 138.771 1.76C139.077 2.05333 139.231 2.4 139.231 2.8C139.231 3.21333 139.077 3.56667 138.771 3.86ZM136.591 15.5V5.74H138.831V15.5H136.591ZM142.04 15.5V0.779999H144.28V15.5H142.04ZM154.509 5.74H156.749V15.5H154.609V14.2H154.569C153.849 15.1733 152.816 15.66 151.469 15.66C150.096 15.66 148.962 15.2 148.069 14.28C147.189 13.36 146.749 12.1533 146.749 10.66C146.749 9.19333 147.196 7.98667 148.089 7.04C148.982 6.08 150.102 5.6 151.449 5.6C152.729 5.6 153.736 6.04 154.469 6.92H154.509V5.74ZM151.829 13.62C152.602 13.62 153.256 13.3467 153.789 12.8C154.336 12.2533 154.609 11.5467 154.609 10.68C154.609 9.81333 154.342 9.08667 153.809 8.5C153.289 7.91333 152.629 7.62 151.829 7.62C151.029 7.62 150.362 7.9 149.829 8.46C149.296 9.02 149.029 9.76 149.029 10.68C149.029 11.5467 149.289 12.2533 149.809 12.8C150.329 13.3467 151.002 13.62 151.829 13.62ZM164.936 5.6C166.296 5.6 167.422 6.08 168.316 7.04C169.209 7.98667 169.656 9.19333 169.656 10.66C169.656 12.1533 169.209 13.36 168.316 14.28C167.422 15.2 166.289 15.66 164.916 15.66C163.556 15.66 162.502 15.1733 161.756 14.2H161.716V15.5H159.576V0.779999H161.816V6.92H161.836C162.596 6.04 163.629 5.6 164.936 5.6ZM162.536 12.8C163.082 13.3467 163.762 13.62 164.576 13.62C165.389 13.62 166.056 13.3467 166.576 12.8C167.109 12.2533 167.376 11.5467 167.376 10.68C167.376 9.76 167.102 9.02 166.556 8.46C166.022 7.9 165.356 7.62 164.556 7.62C163.729 7.62 163.049 7.91333 162.516 8.5C161.982 9.07333 161.716 9.8 161.716 10.68C161.716 11.5467 161.989 12.2533 162.536 12.8ZM172.138 15.5V0.779999H174.378V15.5H172.138ZM186.367 10.5C186.367 10.74 186.347 11.04 186.307 11.4H179.187C179.333 12.0933 179.653 12.64 180.147 13.04C180.64 13.4267 181.247 13.62 181.967 13.62C182.98 13.62 183.793 13.24 184.407 12.48L185.967 13.82C185.02 15.0467 183.647 15.66 181.847 15.66C180.407 15.66 179.213 15.2 178.267 14.28C177.333 13.3467 176.867 12.1267 176.867 10.62C176.867 9.14 177.313 7.93333 178.207 7C179.113 6.06667 180.253 5.6 181.627 5.6C183.053 5.6 184.2 6.06 185.067 6.98C185.933 7.88667 186.367 9.06 186.367 10.5ZM183.287 8.16C182.887 7.8 182.373 7.62 181.747 7.62C181.12 7.62 180.58 7.79333 180.127 8.14C179.687 8.48667 179.387 8.97333 179.227 9.6H184.107C183.96 8.98667 183.687 8.50667 183.287 8.16Z" fill="#8B0900"/>
</svg>
