<svg width="48" height="48" viewBox="0 0 48 48" fill="none" xmlns="http://www.w3.org/2000/svg">
<circle cx="24" cy="24" r="23.75" fill="#F4FFF9" stroke="#00A64F" stroke-width="0.5"/>
<g clip-path="url(#clip0_1486_1387)">
<path d="M19.7368 26.6926C20.6578 24.8928 21.4662 23.3017 22.0419 22.1555C22.3298 21.5823 22.5594 21.1208 22.7156 20.8002C22.7938 20.6397 22.8533 20.5154 22.8924 20.4302C22.9047 20.4035 22.9147 20.3812 22.9226 20.3633L22.918 20.3545C22.8967 20.3144 22.866 20.2572 22.8269 20.1846C22.7486 20.0395 22.6369 19.8339 22.5001 19.5829C22.2266 19.0809 21.8528 18.3979 21.4451 17.655L21.4449 17.6547C21.0396 16.9119 20.6659 16.2325 20.3912 15.7365C20.2539 15.4885 20.1414 15.2865 20.0622 15.1455C20.0511 15.1257 20.0406 15.1072 20.0309 15.0899C19.7723 15.5442 18.1981 18.4081 16.6497 21.2344C15.8368 22.7182 15.0319 24.1899 14.4303 25.2931C14.1294 25.8448 13.8795 26.3042 13.7048 26.627C13.6174 26.7885 13.549 26.9155 13.5024 27.0027C13.4878 27.0301 13.4755 27.0534 13.4654 27.0725C13.4662 27.0741 13.467 27.0758 13.4679 27.0774C13.4907 27.1222 13.5246 27.1869 13.5683 27.2691C13.6554 27.4334 13.7802 27.6655 13.9304 27.9432C14.2307 28.4983 14.6321 29.2343 15.036 29.9713C15.44 30.7082 15.8463 31.446 16.1566 32.0046C16.3118 32.284 16.4428 32.5183 16.5374 32.6852C16.5535 32.7138 16.5686 32.7404 16.5826 32.7648C16.5919 32.7489 16.6018 32.7318 16.6123 32.7133C16.7206 32.524 16.8884 32.2127 17.1365 31.7402C17.6324 30.7959 18.4453 29.2147 19.7368 26.6926ZM19.7368 26.6926L19.87 26.7608L19.7368 26.6926ZM19.4431 13.2036L19.443 13.2035L19.4461 13.1983L19.5633 13.0014L19.607 12.9279L19.6925 12.9281L24.0097 12.9375H24.0099L28.3317 12.9516L28.4201 12.9519L28.4627 13.0293L32.2971 20.009L36.1315 26.9887L36.1711 27.0608L36.1316 27.133L33.9941 31.0376L33.9941 31.0377L31.8566 34.947L31.8139 35.025H31.725H24H16.275H16.1861L16.1434 34.947L14.0059 31.0377L14.0059 31.0376L11.8684 27.133L11.8289 27.0608L11.8685 26.9887L15.5998 20.1965L15.5998 20.1965C16.4944 18.5687 17.3274 17.0533 17.9877 15.852C18.8432 14.2958 19.4089 13.2667 19.4431 13.2036ZM21.4867 14.366C21.3914 14.368 21.3181 14.3706 21.262 14.3736C21.681 15.1433 23.2027 17.9105 24.6816 20.5954C25.4899 22.0629 26.2851 23.5052 26.88 24.5825C27.1775 25.1211 27.4248 25.5684 27.5987 25.8819C27.6856 26.0387 27.7541 26.1618 27.8012 26.2462C27.8147 26.2703 27.8264 26.2912 27.8363 26.3087C27.8805 26.3105 27.9431 26.3122 28.0227 26.3138C28.1938 26.3172 28.4397 26.32 28.7424 26.3221C29.3477 26.3262 30.178 26.3273 31.0871 26.325L34.1437 26.312L30.8998 20.4161L27.5767 14.3762L24.3324 14.3625C22.7469 14.3578 21.9161 14.3567 21.4867 14.366ZM24.9655 24.063L24.9654 24.0628C24.6091 23.4136 24.2846 22.8231 24.0479 22.3937C23.9411 22.1998 23.8522 22.0388 23.7864 21.9202C23.7182 22.0462 23.6234 22.2254 23.5013 22.4593C23.2263 22.986 22.814 23.787 22.2586 24.8744C22.2586 24.8744 22.2586 24.8744 22.2586 24.8745L21.5164 26.3344H23.8594C24.9946 26.3344 25.6379 26.332 25.9945 26.3221C26.0783 26.3198 26.1446 26.3171 26.1967 26.3141C26.1897 26.301 26.1822 26.2872 26.1744 26.2727C26.1057 26.1451 26.0078 25.9649 25.888 25.7453C25.6485 25.306 25.3217 24.7097 24.9655 24.063ZM34.1545 27.7911C34.1365 27.7904 34.1171 27.7897 34.0964 27.789C33.886 27.7818 33.5456 27.7761 33.0321 27.7717C32.0057 27.7629 30.2931 27.7594 27.5578 27.7594H20.7869L19.268 30.7197C19.268 30.7197 19.268 30.7198 19.2679 30.7198C18.8414 31.5564 18.4525 32.3225 18.1703 32.8829C18.0291 33.1632 17.9148 33.3917 17.8358 33.5517C17.8249 33.5739 17.8147 33.5947 17.8052 33.6141C17.8488 33.6156 17.8996 33.617 17.9579 33.6184C18.2122 33.6245 18.6022 33.629 19.1435 33.6322C20.2257 33.6387 21.9092 33.6398 24.3139 33.6375L30.9611 33.6236L32.5777 30.6781C32.7558 30.3523 32.9281 30.0371 33.0901 29.7407C33.342 29.2799 33.5691 28.8643 33.7549 28.5242C33.9075 28.2447 34.0321 28.0163 34.1194 27.8557C34.1319 27.8328 34.1436 27.8112 34.1545 27.7911Z" fill="#00A64F" stroke="#00A64F" stroke-width="0.3"/>
</g>
<defs>
<clipPath id="clip0_1486_1387">
<rect width="24" height="24" fill="white" transform="translate(12 12)"/>
</clipPath>
</defs>
</svg>
