<svg width="13" height="14" viewBox="0 0 13 14" fill="none" xmlns="http://www.w3.org/2000/svg">
<path d="M12.6554 0.694702L11.8856 0.951317C10.5662 1.40973 9.15726 1.5504 7.77329 1.3619C6.31902 1.13622 4.8305 1.33676 3.48782 1.93929C2.77602 2.24238 2.15133 2.7187 1.67064 3.32489C1.18995 3.93107 0.868522 4.64787 0.735617 5.41001C0.600424 6.14293 0.614254 6.89558 0.77628 7.62305C0.938306 8.35052 1.24521 9.03789 1.67868 9.64416C1.64019 9.77888 1.60169 9.91361 1.56962 10.0483C1.30905 11.1563 1.17985 12.2911 1.18469 13.4292H2.46777C2.52807 12.4976 2.65456 11.5715 2.84628 10.6578C3.73637 11.1384 4.73455 11.3836 5.74603 11.3699C6.6894 11.3693 7.62306 11.1795 8.49181 10.8118C13.3739 8.72676 12.7324 1.79173 12.7324 1.50304L12.6554 0.694702ZM7.99141 9.63133C6.317 10.3434 4.3154 10.2215 3.19271 9.34264C3.38245 8.70817 3.64284 8.09702 3.96897 7.52067C4.2225 7.10586 4.52161 6.72068 4.86071 6.37232C5.2072 6.02023 5.59745 5.71407 6.02189 5.46133C6.89892 4.93691 7.87158 4.59233 8.88315 4.4477V3.80616C7.71926 3.76587 6.56251 4.00338 5.50866 4.49902C4.43115 5.0248 3.51734 5.83435 2.86552 6.84064C2.62377 7.22497 2.4094 7.62585 2.22399 8.04032C1.92665 7.27968 1.84236 6.45235 1.9802 5.64738C2.07051 5.08381 2.30283 4.55251 2.65526 4.10356C3.00769 3.6546 3.46862 3.30277 3.99463 3.08122C4.76166 2.72271 5.59863 2.53866 6.44531 2.54233C6.84306 2.54233 7.2344 2.58082 7.64498 2.6129C8.93083 2.7788 10.2364 2.70265 11.4942 2.38836C11.4493 4.15901 11.1285 8.29693 7.99141 9.63133Z" fill="#3E905B"/>
</svg>
