<svg width="13" height="12" viewBox="0 0 13 12" fill="none" xmlns="http://www.w3.org/2000/svg">
<path d="M6.04495 0.680956C4.9223 0.755957 3.99886 0.96455 3.14574 1.33252C2.04417 1.8083 1.20042 2.54189 0.797299 3.36924C0.69183 3.58955 0.630893 3.76064 0.558236 4.05127C0.539486 4.1333 0.527768 4.52705 0.520736 5.37549C0.506674 6.94814 0.532455 7.20596 0.745736 7.66064C0.928549 8.04971 1.21917 8.40596 1.54964 8.64033C1.76761 8.79502 2.10746 8.95205 2.37699 9.02236C2.57386 9.07158 2.69339 9.08564 3.12699 9.10205C3.77621 9.12549 4.04808 9.18408 4.46292 9.38799C4.79574 9.55205 4.96449 9.67158 5.35355 10.0278C5.9512 10.5739 6.4598 10.8622 7.16761 11.0567C7.52855 11.1575 7.83089 11.1974 8.24808 11.1974C8.93949 11.195 9.4598 11.0802 10.0645 10.7896C11.4004 10.1474 12.3004 8.90752 12.4809 7.46611C12.5207 7.1333 12.5278 4.89736 12.4903 4.53643C12.3989 3.69033 12.0332 2.93799 11.4215 2.33799C10.4864 1.41689 8.91136 0.812206 7.12308 0.687987C6.80902 0.666894 6.29574 0.662207 6.04495 0.680956ZM7.45589 1.42627C8.90902 1.58799 10.2075 2.11767 10.934 2.83955C11.5715 3.47471 11.8832 4.34658 11.7895 5.2208C11.677 6.25439 11.1075 7.18721 10.2332 7.77549C9.6098 8.19268 8.9887 8.38721 8.27152 8.38486C7.29886 8.38252 6.5723 8.08252 5.77777 7.35596C5.2973 6.91768 4.89886 6.66924 4.38792 6.49346C3.99886 6.35752 3.72464 6.31064 3.17386 6.28955C2.62777 6.26846 2.46371 6.23564 2.20121 6.10439C2.00667 6.00596 1.93871 5.95674 1.76996 5.79736C1.41605 5.46221 1.23324 5.03564 1.23324 4.54346C1.23558 3.74189 1.6973 3.02705 2.60199 2.42471C3.4762 1.84346 4.6598 1.48018 5.99808 1.38174C6.23949 1.36533 7.15589 1.39111 7.45589 1.42627ZM1.3973 6.41143C1.52386 6.52393 1.77699 6.68799 1.93167 6.7583C2.31605 6.92939 2.51995 6.96924 3.11527 6.99268C3.77386 7.01846 4.06683 7.08174 4.50042 7.29736C4.79574 7.44268 4.98324 7.57861 5.34183 7.90908C5.4637 8.02158 5.63949 8.16924 5.72855 8.23955C6.80667 9.06924 8.27152 9.31768 9.56995 8.88643C9.83714 8.79736 10.3387 8.55596 10.5684 8.40596C10.9457 8.15752 11.4075 7.72393 11.6676 7.37236C11.7379 7.28096 11.7965 7.20361 11.7989 7.20361C11.8035 7.20361 11.8012 7.24814 11.7942 7.30205C11.6723 8.38018 11.1121 9.29658 10.2075 9.90361C9.15042 10.6091 7.83324 10.6958 6.69886 10.131C6.41527 9.99033 6.1223 9.78174 5.81058 9.4958C5.3512 9.07627 5.08402 8.89111 4.68792 8.71768C4.19808 8.50205 3.83245 8.42471 3.17386 8.39893C2.61136 8.37549 2.50121 8.35439 2.18714 8.19971C1.77464 7.99814 1.43011 7.59268 1.30121 7.15674C1.22386 6.89658 1.16292 6.32705 1.2098 6.28252C1.22621 6.26377 1.25667 6.28486 1.3973 6.41143Z" fill="#CC5C33"/>
<path d="M5.90423 2.09424C4.43235 2.22314 3.15267 2.72236 2.45657 3.43721C2.15189 3.75127 1.98782 4.05361 1.9386 4.38877C1.87767 4.81768 2.09564 5.24424 2.48001 5.45518C2.64876 5.54658 2.85735 5.58643 3.17376 5.58643C4.0011 5.58877 4.75345 5.79502 5.44485 6.21455C5.71673 6.37627 5.9511 6.55908 6.25579 6.84268C6.66829 7.22471 6.97767 7.41455 7.40657 7.55283C7.69954 7.64424 7.83313 7.67002 8.11673 7.68643C8.94173 7.73799 9.78079 7.37705 10.3574 6.72315C10.7816 6.24268 11.03 5.64971 11.0745 5.0169C11.1191 4.39111 10.8542 3.72783 10.3878 3.28721C9.89563 2.82314 8.90892 2.38721 7.94798 2.20908C7.35032 2.09893 6.44329 2.04736 5.90423 2.09424ZM7.01751 2.79736C8.13079 2.87939 9.09642 3.19111 9.75735 3.67861C10.0808 3.91768 10.2683 4.21299 10.348 4.60205C10.4534 5.13174 10.2449 5.78799 9.8136 6.27783C9.56985 6.55439 9.09876 6.84268 8.74017 6.93408C8.4847 6.99736 8.15423 7.0044 7.89407 6.95049C7.43235 6.8544 7.10657 6.67861 6.71282 6.3083C6.30735 5.92627 5.97923 5.68955 5.55267 5.46221C4.83079 5.08252 4.00579 4.8833 3.13626 4.8833C2.91829 4.8833 2.87845 4.87627 2.81048 4.8294C2.67923 4.74033 2.6347 4.66065 2.63704 4.51768C2.64173 4.34893 2.73314 4.17315 2.92064 3.96924C3.66126 3.17002 5.38157 2.67783 7.01751 2.79736Z" fill="#CC5C33"/>
<path d="M8.00195 4.20361C7.54023 4.26455 7.12305 4.53408 6.95195 4.88096C6.88633 5.01689 6.87695 5.05674 6.87695 5.23486C6.87695 5.41299 6.88398 5.45049 6.9543 5.59111C7.09961 5.88643 7.42539 6.12783 7.82617 6.2333C8.01367 6.28252 8.48477 6.28955 8.66992 6.24736C9.11055 6.14189 9.44336 5.90518 9.59102 5.59111C9.65664 5.45283 9.66602 5.41064 9.66602 5.23486C9.66602 5.05908 9.65664 5.01689 9.59102 4.87861C9.36133 4.39111 8.70508 4.11221 8.00195 4.20361ZM8.51055 4.90908C8.7543 4.96064 8.97461 5.12002 8.97461 5.23955C8.97461 5.31221 8.7918 5.47393 8.65586 5.52314C8.29961 5.64971 7.81211 5.56768 7.6293 5.35205C7.55195 5.2583 7.55195 5.21143 7.6293 5.11768C7.78633 4.93252 8.17773 4.83877 8.51055 4.90908Z" fill="#CC5C33"/>
</svg>
