<svg width="24" height="24" viewBox="0 0 24 24" fill="none" xmlns="http://www.w3.org/2000/svg">
<path d="M1.92183 1.60312C1.76714 1.68281 1.68276 1.76719 1.60308 1.92188C1.54683 2.03906 1.15776 3.49219 0.745265 5.15625C0.0140146 8.09531 -0.00942283 8.18906 0.0187022 8.53594C0.0562022 9.01406 0.206202 9.55781 0.403077 9.95625C0.62339 10.3969 0.707765 10.5094 1.13433 10.95L1.49995 11.325L1.50933 16.6734C1.52339 21.9937 1.52339 22.0266 1.62183 22.1531C1.67339 22.2234 1.77651 22.3266 1.84683 22.3781C1.97339 22.4766 2.0062 22.4766 5.99995 22.4766C9.9937 22.4766 10.0265 22.4766 10.1531 22.3781C10.2234 22.3266 10.3265 22.2234 10.3781 22.1531C10.4765 22.0266 10.4765 21.9703 10.4906 19.2609L10.5 16.5H12H13.5L13.5093 19.2609C13.5234 21.9703 13.5234 22.0266 13.6218 22.1531C13.6734 22.2234 13.7765 22.3266 13.8468 22.3781C13.9734 22.4766 14.0062 22.4766 18 22.4766C21.9937 22.4766 22.0265 22.4766 22.1531 22.3781C22.2234 22.3266 22.3265 22.2234 22.3781 22.1531C22.4765 22.0266 22.4765 21.9937 22.4906 16.6734L22.5 11.325L22.8656 10.95C23.2921 10.5094 23.3765 10.3969 23.5968 9.95625C23.7937 9.55781 23.9437 9.01406 23.9812 8.53594C24.0093 8.18906 23.9859 8.09531 23.2546 5.15625C22.8421 3.49219 22.4531 2.03906 22.3968 1.92188C22.3171 1.76719 22.2328 1.68281 22.0781 1.60312L21.8718 1.5H12H2.12808L1.92183 1.60312ZM21.8343 5.68594C22.4765 8.25937 22.5046 8.38594 22.4625 8.62969C22.2796 9.61406 21.6375 10.2937 20.7328 10.4625C20.1328 10.575 19.4671 10.3312 19.0125 9.83906C18.6046 9.40312 18.464 9.06562 18.3796 8.325C18.314 7.75781 18.0937 7.52344 17.625 7.52344C17.1562 7.52344 16.9359 7.75781 16.8703 8.325C16.7859 9.06562 16.6453 9.40312 16.2375 9.83906C15.7828 10.3312 15.1171 10.575 14.5218 10.4625C14.0765 10.3781 13.6921 10.1672 13.3875 9.83906C12.9796 9.40312 12.839 9.06562 12.7546 8.325C12.689 7.75781 12.4687 7.52344 12 7.52344C11.5312 7.52344 11.3109 7.75781 11.2453 8.325C11.1609 9.06562 11.0203 9.40312 10.6125 9.83906C10.3078 10.1672 9.92339 10.3781 9.47808 10.4625C8.88276 10.575 8.21714 10.3312 7.76245 9.83906C7.35464 9.40312 7.21401 9.06562 7.12964 8.325C7.06401 7.75781 6.8437 7.52344 6.37495 7.52344C5.9062 7.52344 5.68589 7.75781 5.62026 8.325C5.53589 9.06562 5.39526 9.40312 4.98745 9.83906C4.53276 10.3312 3.86714 10.575 3.27183 10.4625C2.36245 10.2937 1.72026 9.61406 1.53745 8.62969C1.49526 8.38594 1.52339 8.25937 2.16558 5.68594L2.83589 3H12H21.164L21.8343 5.68594ZM6.69839 10.9125C8.10464 12.3562 10.275 12.3562 11.6859 10.9031L12 10.5797L12.3187 10.9031C13.7296 12.3562 15.8953 12.3562 17.3109 10.9031L17.625 10.5797L17.9437 10.9078C18.6703 11.6578 19.6734 12.0562 20.6343 11.9859L21 11.9578V16.4766V21H18H15L14.9906 18.2391C14.9765 15.5297 14.9765 15.4734 14.8781 15.3469C14.8265 15.2766 14.7234 15.1734 14.6531 15.1219C14.5265 15.0234 14.475 15.0234 12 15.0234C9.52495 15.0234 9.47339 15.0234 9.34683 15.1219C9.27652 15.1734 9.17339 15.2766 9.12183 15.3469C9.02339 15.4734 9.02339 15.5297 9.00933 18.2391L8.99995 21H5.99995H2.99995V16.4766V11.9578L3.36558 11.9859C4.32183 12.0562 5.33901 11.6531 6.04683 10.9125C6.21558 10.7391 6.36089 10.5938 6.37026 10.5938C6.37964 10.5938 6.52964 10.7391 6.69839 10.9125Z" fill="#00A64F"/>
</svg>
