<svg width="38" height="36" viewBox="0 0 38 36" fill="none" xmlns="http://www.w3.org/2000/svg">
<path d="M19 2.25C15.7119 2.25 12.4976 3.17372 9.76365 4.90435C7.02968 6.63499 4.89882 9.0948 3.64051 11.9727C2.3822 14.8507 2.05297 18.0175 2.69445 21.0727C3.33593 24.1279 4.91931 26.9343 7.24436 29.1369C9.5694 31.3396 12.5317 32.8397 15.7566 33.4474C18.9816 34.0551 22.3243 33.7432 25.3621 32.5511C28.3999 31.359 30.9964 29.3403 32.8232 26.7502C34.65 24.1602 35.625 21.1151 35.625 18C35.625 13.8228 33.8734 9.81677 30.7557 6.86307C27.6379 3.90937 23.4092 2.25 19 2.25ZM19 31.5C16.1816 31.5 13.4265 30.7082 11.0831 29.2248C8.73973 27.7414 6.91327 25.633 5.83472 23.1662C4.75618 20.6994 4.47398 17.985 5.02382 15.3663C5.57366 12.7475 6.93084 10.3421 8.92374 8.45406C10.9166 6.56605 13.4557 5.2803 16.22 4.7594C18.9842 4.2385 21.8494 4.50584 24.4532 5.52763C27.0571 6.54941 29.2826 8.27974 30.8484 10.4998C32.4143 12.7199 33.25 15.33 33.25 18C33.25 21.5804 31.7487 25.0142 29.0763 27.5459C26.4039 30.0777 22.7793 31.5 19 31.5Z" fill="#777777"/>
<path d="M19 28.125C19.9838 28.125 20.7812 27.3695 20.7812 26.4375C20.7812 25.5055 19.9838 24.75 19 24.75C18.0162 24.75 17.2188 25.5055 17.2188 26.4375C17.2188 27.3695 18.0162 28.125 19 28.125Z" fill="#777777"/>
<path d="M20.1875 9.00001H18.4063C17.7041 8.99853 17.0085 9.12846 16.3594 9.38235C15.7104 9.63624 15.1207 10.0091 14.6242 10.4795C14.1276 10.9499 13.7341 11.5085 13.4661 12.1234C13.1981 12.7383 13.0609 13.3973 13.0625 14.0625V14.625H15.4375V14.0625C15.4375 13.3166 15.7503 12.6012 16.307 12.0738C16.8638 11.5463 17.6189 11.25 18.4063 11.25H20.1875C20.9749 11.25 21.73 11.5463 22.2867 12.0738C22.8435 12.6012 23.1563 13.3166 23.1563 14.0625C23.1563 14.8084 22.8435 15.5238 22.2867 16.0512C21.73 16.5787 20.9749 16.875 20.1875 16.875H17.8125V21.9375H20.1875V19.125C21.6048 19.125 22.964 18.5916 23.9661 17.6422C24.9683 16.6928 25.5313 15.4052 25.5313 14.0625C25.5313 12.7199 24.9683 11.4322 23.9661 10.4828C22.964 9.53338 21.6048 9.00001 20.1875 9.00001Z" fill="#777777"/>
</svg>
