<svg width="48" height="48" viewBox="0 0 48 48" fill="none" xmlns="http://www.w3.org/2000/svg">
<path d="M26 16C27.5913 16 29.1174 16.6321 30.2426 17.7574C31.3679 18.8826 32 20.4087 32 22C32 22.5304 32.2107 23.0391 32.5858 23.4142C32.9609 23.7893 33.4696 24 34 24C34.5304 24 35.0391 23.7893 35.4142 23.4142C35.7893 23.0391 36 22.5304 36 22C36 19.3478 34.9464 16.8043 33.0711 14.9289C31.1957 13.0536 28.6522 12 26 12C25.4696 12 24.9609 12.2107 24.5858 12.5858C24.2107 12.9609 24 13.4696 24 14C24 14.5304 24.2107 15.0391 24.5858 15.4142C24.9609 15.7893 25.4696 16 26 16V16Z" fill="#4F5052"/>
<path d="M26 8C29.713 8 33.274 9.475 35.8995 12.1005C38.525 14.726 40 18.287 40 22C40 22.5304 40.2107 23.0391 40.5858 23.4142C40.9609 23.7893 41.4696 24 42 24C42.5304 24 43.0391 23.7893 43.4142 23.4142C43.7893 23.0391 44 22.5304 44 22C44 17.2261 42.1036 12.6477 38.7279 9.27208C35.3523 5.89642 30.7739 4 26 4C25.4696 4 24.9609 4.21071 24.5858 4.58579C24.2107 4.96086 24 5.46957 24 6C24 6.53043 24.2107 7.03914 24.5858 7.41421C24.9609 7.78929 25.4696 8 26 8V8ZM43.5 31.82C43.39 31.4989 43.2001 31.2111 42.9482 30.9837C42.6963 30.7563 42.3906 30.5967 42.06 30.52L30.06 27.78C29.7343 27.7061 29.3952 27.715 29.0738 27.8059C28.7524 27.8967 28.4589 28.0666 28.22 28.3C27.94 28.56 27.92 28.58 26.62 31.06C22.3064 29.0723 18.85 25.6017 16.88 21.28C19.42 20 19.44 20 19.7 19.7C19.9334 19.4611 20.1033 19.1676 20.1941 18.8462C20.285 18.5248 20.2939 18.1857 20.22 17.86L17.48 6C17.4033 5.66939 17.2437 5.36374 17.0163 5.11182C16.7889 4.8599 16.5011 4.67 16.18 4.56C15.7129 4.39318 15.2306 4.2726 14.74 4.2C14.2345 4.08279 13.7187 4.0158 13.2 4C10.76 4 8.41995 4.96928 6.69462 6.69462C4.96928 8.41995 4 10.76 4 13.2C4.01058 21.3654 7.25897 29.1934 13.0328 34.9672C18.8066 40.741 26.6346 43.9894 34.8 44C36.0082 44 37.2045 43.762 38.3207 43.2997C39.4369 42.8374 40.4511 42.1597 41.3054 41.3054C42.1597 40.4511 42.8373 39.4369 43.2997 38.3207C43.762 37.2045 44 36.0082 44 34.8C44.0006 34.2909 43.9605 33.7827 43.88 33.28C43.7959 32.7832 43.6688 32.2947 43.5 31.82V31.82ZM34.8 40C27.6938 39.9947 20.8802 37.1694 15.8554 32.1446C10.8306 27.1198 8.0053 20.3062 8 13.2C8.00527 11.8225 8.55482 10.5029 9.52886 9.52887C10.5029 8.55482 11.8225 8.00527 13.2 8H13.86L16 17.28L14.92 17.84C13.2 18.74 11.84 19.46 12.56 21.02C13.7324 24.3392 15.6295 27.3555 18.1135 29.8498C20.5974 32.3441 23.6058 34.2537 26.92 35.44C28.6 36.12 29.26 34.86 30.16 33.12L30.74 32.02L40 34.14V34.8C39.9947 36.1775 39.4452 37.4971 38.4711 38.4711C37.4971 39.4452 36.1775 39.9947 34.8 40V40Z" fill="#4F5052"/>
</svg>
