<svg width="83" height="76" viewBox="0 0 83 76" fill="none" xmlns="http://www.w3.org/2000/svg">
<path d="M54.8322 36.3887L61.4682 56.9001C62.725 55.6936 66.2682 53.3408 69.5259 53.5821C73.5981 53.8837 73.8997 53.1296 79.0276 58.5591C82.6838 62.4304 81.9617 57.6737 80.6546 55.8638C79.6994 53.1491 73.653 49.3045 67.3789 49.5458C66.6248 46.077 65.48 40.4005 59.2059 40.7624L58.4518 38.9526H61.4682C61.5687 40.3603 63.2767 41.7277 67.3789 40.7624C68.1833 39.0532 68.8282 36.0569 66.8977 32.9198C66.096 31.6171 59.0551 35.4838 61.4682 36.3887C63.3987 37.1126 60.2617 36.6903 58.4518 36.3887L56.4912 32.9198" stroke="#00A64F" stroke-width="2"/>
<mask id="path-2-outside-1_294_6761" maskUnits="userSpaceOnUse" x="12.6012" y="52.7148" width="23" height="23" fill="black">
<rect fill="white" x="12.6012" y="52.7148" width="23" height="23"/>
<path d="M33.5962 64.2123C33.5962 69.4576 29.344 73.7098 24.0987 73.7098C18.8534 73.7098 14.6012 69.4576 14.6012 64.2123C14.6012 58.967 18.8534 54.7148 24.0987 54.7148C29.344 54.7148 33.5962 58.967 33.5962 64.2123ZM20.3315 64.2123C20.3315 66.2929 22.0181 67.9795 24.0987 67.9795C26.1792 67.9795 27.8658 66.2929 27.8658 64.2123C27.8658 62.1318 26.1792 60.4452 24.0987 60.4452C22.0181 60.4452 20.3315 62.1318 20.3315 64.2123Z"/>
</mask>
<path d="M33.5962 64.2123C33.5962 69.4576 29.344 73.7098 24.0987 73.7098C18.8534 73.7098 14.6012 69.4576 14.6012 64.2123C14.6012 58.967 18.8534 54.7148 24.0987 54.7148C29.344 54.7148 33.5962 58.967 33.5962 64.2123ZM20.3315 64.2123C20.3315 66.2929 22.0181 67.9795 24.0987 67.9795C26.1792 67.9795 27.8658 66.2929 27.8658 64.2123C27.8658 62.1318 26.1792 60.4452 24.0987 60.4452C22.0181 60.4452 20.3315 62.1318 20.3315 64.2123Z" fill="white"/>
<path d="M33.5962 64.2123C33.5962 69.4576 29.344 73.7098 24.0987 73.7098C18.8534 73.7098 14.6012 69.4576 14.6012 64.2123C14.6012 58.967 18.8534 54.7148 24.0987 54.7148C29.344 54.7148 33.5962 58.967 33.5962 64.2123ZM20.3315 64.2123C20.3315 66.2929 22.0181 67.9795 24.0987 67.9795C26.1792 67.9795 27.8658 66.2929 27.8658 64.2123C27.8658 62.1318 26.1792 60.4452 24.0987 60.4452C22.0181 60.4452 20.3315 62.1318 20.3315 64.2123Z" stroke="#00A64F" stroke-width="4" mask="url(#path-2-outside-1_294_6761)"/>
<mask id="path-3-outside-2_294_6761" maskUnits="userSpaceOnUse" x="59.1112" y="52.7148" width="23" height="23" fill="black">
<rect fill="white" x="59.1112" y="52.7148" width="23" height="23"/>
<path d="M80.1062 64.2123C80.1062 69.4576 75.854 73.7098 70.6087 73.7098C65.3634 73.7098 61.1112 69.4576 61.1112 64.2123C61.1112 58.967 65.3634 54.7148 70.6087 54.7148C75.854 54.7148 80.1062 58.967 80.1062 64.2123ZM66.8415 64.2123C66.8415 66.2929 68.5281 67.9795 70.6087 67.9795C72.6892 67.9795 74.3759 66.2929 74.3759 64.2123C74.3759 62.1318 72.6892 60.4452 70.6087 60.4452C68.5281 60.4452 66.8415 62.1318 66.8415 64.2123Z"/>
</mask>
<path d="M80.1062 64.2123C80.1062 69.4576 75.854 73.7098 70.6087 73.7098C65.3634 73.7098 61.1112 69.4576 61.1112 64.2123C61.1112 58.967 65.3634 54.7148 70.6087 54.7148C75.854 54.7148 80.1062 58.967 80.1062 64.2123ZM66.8415 64.2123C66.8415 66.2929 68.5281 67.9795 70.6087 67.9795C72.6892 67.9795 74.3759 66.2929 74.3759 64.2123C74.3759 62.1318 72.6892 60.4452 70.6087 60.4452C68.5281 60.4452 66.8415 62.1318 66.8415 64.2123Z" fill="white"/>
<path d="M80.1062 64.2123C80.1062 69.4576 75.854 73.7098 70.6087 73.7098C65.3634 73.7098 61.1112 69.4576 61.1112 64.2123C61.1112 58.967 65.3634 54.7148 70.6087 54.7148C75.854 54.7148 80.1062 58.967 80.1062 64.2123ZM66.8415 64.2123C66.8415 66.2929 68.5281 67.9795 70.6087 67.9795C72.6892 67.9795 74.3759 66.2929 74.3759 64.2123C74.3759 62.1318 72.6892 60.4452 70.6087 60.4452C68.5281 60.4452 66.8415 62.1318 66.8415 64.2123Z" stroke="#00A64F" stroke-width="4" mask="url(#path-3-outside-2_294_6761)"/>
<circle cx="24.0987" cy="64.2124" r="10.6094" stroke="#00A64F"/>
<circle cx="70.6087" cy="64.2124" r="10.6094" stroke="#00A64F"/>
<circle cx="24.0987" cy="64.2123" r="5.48427" stroke="#00A64F" stroke-width="2"/>
<circle cx="70.6087" cy="64.2123" r="5.48427" stroke="#00A64F" stroke-width="2"/>
<path d="M12.6231 66.1755H10.0317C8.85568 66.1755 7.93258 65.1668 8.08717 64.0009C8.61038 60.0548 9.73043 54.6302 11.4639 53.8597C11.982 53.6295 12.2607 53.448 12.3691 53.3061C13.0597 52.4026 10.5946 51.8976 10.5946 50.7604V50.0641C10.5946 48.9595 11.49 48.0641 12.5946 48.0641H37.411C38.5156 48.0641 39.411 48.9595 39.411 50.0641V52.3628C39.411 52.68 39.3326 52.9904 39.1674 53.2612C38.5067 54.3448 37.3242 56.4289 39.4838 61.4212C39.7866 62.1211 40.4907 62.5532 41.2533 62.5532H59.4229M40.8768 32.4158L40.2256 37.5175C40.1002 38.4994 39.2753 39.2418 38.2857 39.264C35.191 39.3335 32.9076 39.3887 40.8768 39.2257C50.3037 39.0329 53.2084 40.9807 53.4824 41.9786L59.1877 56.4508C59.3407 56.8387 59.3731 57.2686 59.2514 57.6675C57.7536 62.5801 54.4364 61.7074 52.5873 60.4042C52.3104 60.209 52.1152 59.926 51.9931 59.61C50.3971 55.476 47.5084 48.0641 47.3969 48.0641C47.283 48.0641 38.1053 46.0105 33.2977 44.9314C33.1328 44.8944 32.9683 44.8836 32.8001 44.8673C31.1475 44.7072 27.5267 42.5935 27.8564 35.8895C28.2911 27.0512 30.4447 23.8672 33.0527 19.8103C34.9256 16.8969 37.4835 16.8789 38.8607 17.325C39.1458 17.4173 39.4416 17.4783 39.7329 17.5483C40.9985 17.8526 42.8632 19.4706 42.7604 24.3019" stroke="#00A64F" stroke-width="2"/>
<rect x="1.76404" y="21.4448" width="25.6743" height="25.6743" rx="4" stroke="#00A64F" stroke-width="2"/>
<circle cx="44.1173" cy="10.0875" r="8.40929" stroke="#00A64F" stroke-width="2"/>
<mask id="path-11-outside-3_294_6761" maskUnits="userSpaceOnUse" x="33.0444" y="17.6782" width="26" height="20" fill="black">
<rect fill="white" x="33.0444" y="17.6782" width="26" height="20"/>
<path d="M56.0467 32.3514C56.5011 33.6776 55.7946 35.1422 54.4144 35.3878C52.7878 35.6773 51.1221 35.7214 49.4733 35.5143C46.982 35.2015 44.5952 34.3237 42.4949 32.9478C40.3946 31.572 38.6364 29.7345 37.3545 27.5756C36.5061 26.1467 35.8811 24.6021 35.4967 22.9953C35.1706 21.6318 36.231 20.3991 37.6284 20.2859C39.0257 20.1728 40.2233 21.2298 40.6421 22.5677C40.9056 23.4093 41.2666 24.2203 41.7198 24.9836C42.6069 26.4775 43.8235 27.749 45.2769 28.701C46.7302 29.6531 48.3819 30.2605 50.1058 30.477C50.9865 30.5876 51.8742 30.5946 52.751 30.5C54.1449 30.3495 55.5922 31.0251 56.0467 32.3514Z"/>
</mask>
<path d="M56.0467 32.3514C56.5011 33.6776 55.7946 35.1422 54.4144 35.3878C52.7878 35.6773 51.1221 35.7214 49.4733 35.5143C46.982 35.2015 44.5952 34.3237 42.4949 32.9478C40.3946 31.572 38.6364 29.7345 37.3545 27.5756C36.5061 26.1467 35.8811 24.6021 35.4967 22.9953C35.1706 21.6318 36.231 20.3991 37.6284 20.2859C39.0257 20.1728 40.2233 21.2298 40.6421 22.5677C40.9056 23.4093 41.2666 24.2203 41.7198 24.9836C42.6069 26.4775 43.8235 27.749 45.2769 28.701C46.7302 29.6531 48.3819 30.2605 50.1058 30.477C50.9865 30.5876 51.8742 30.5946 52.751 30.5C54.1449 30.3495 55.5922 31.0251 56.0467 32.3514Z" stroke="#00A64F" stroke-width="4" mask="url(#path-11-outside-3_294_6761)"/>
<path d="M50.1265 35.5662L50.9221 36.6542C51.3737 37.2717 52.1387 37.5787 52.8765 37.3765C54.1221 37.0353 55.574 36.5251 55.8672 36.2473C56.5259 35.6233 56.7596 35.203 56.623 34.2013C56.5149 33.4087 57.0656 32.6543 57.8656 32.6543V32.6543" stroke="#00A64F" stroke-width="2"/>
</svg>
