<svg width="80" height="80" viewBox="0 0 80 80" fill="none" xmlns="http://www.w3.org/2000/svg">
<mask id="mask0_220_92" style="mask-type:alpha" maskUnits="userSpaceOnUse" x="0" y="0" width="80" height="80">
<rect width="80" height="80" fill="#D9D9D9"/>
</mask>
<g mask="url(#mask0_220_92)">
<path d="M32.5607 20.5223L32.5605 20.5225C30.5257 22.5875 29.5 25.0606 29.5 27.9167C29.5 30.8256 30.5239 33.3144 32.5631 35.3536C34.6024 37.3929 37.0911 38.4167 40 38.4167C42.9089 38.4167 45.3976 37.3929 47.4369 35.3536C49.4762 33.3144 50.5 30.8256 50.5 27.9167C50.5 25.0606 49.4743 22.5875 47.4395 20.5225L47.4393 20.5223C45.4006 18.4556 42.9111 17.4167 40 17.4167C37.0889 17.4167 34.5995 18.4556 32.5607 20.5223ZM16.1667 62.0834V62.5834H16.6667H63.3334H63.8334V62.0834V56.5834C63.8334 55.0912 63.3993 53.7024 62.5415 52.4276L62.5409 52.4267C61.6844 51.1597 60.5477 50.1732 59.1403 49.4695L59.1403 49.4694L59.1307 49.4649C55.9354 47.9513 52.7506 46.8136 49.5764 46.0538L49.576 46.0537C46.3988 45.2959 43.2065 44.9167 40 44.9167C36.7935 44.9167 33.6024 45.2959 30.4273 46.0537L30.427 46.0538C27.2506 46.8136 24.0646 47.9513 20.8693 49.4649L20.8693 49.4648L20.8597 49.4695C19.4523 50.1733 18.3166 51.1598 17.4622 52.4271C16.6021 53.7019 16.1667 55.0909 16.1667 56.5834V62.0834ZM48.6774 50.2798L48.6777 50.2798C51.5541 50.9639 54.3639 51.9635 57.1073 53.2795C57.8825 53.6944 58.4711 54.1882 58.8911 54.7537C59.3002 55.3096 59.5 55.915 59.5 56.5834V58.2501H20.5V56.5834C20.5 55.9153 20.7007 55.3102 21.112 54.7541L21.1122 54.7538C21.5298 54.1885 22.1173 53.6945 22.8928 53.2795C25.6361 51.9635 28.447 50.9639 31.3256 50.2799L31.326 50.2798C34.2043 49.5931 37.0954 49.2501 40 49.2501C42.9047 49.2501 45.7969 49.5931 48.6774 50.2798ZM35.6466 23.5639L35.6472 23.5633C36.8586 22.3499 38.3005 21.7501 40 21.7501C41.6996 21.7501 43.1427 22.3499 44.3565 23.5636C45.5678 24.775 46.1667 26.2169 46.1667 27.9167C46.1667 29.6165 45.5678 31.0585 44.3565 32.2699C43.1427 33.4836 41.6996 34.0834 40 34.0834C38.3005 34.0834 36.8586 33.4836 35.6472 32.2702L35.6466 32.2696C34.4331 31.0582 33.8334 29.6163 33.8334 27.9167C33.8334 26.2172 34.4331 24.7753 35.6466 23.5639Z" fill="#00A64F" stroke="#00A64F"/>
</g>
</svg>
