<svg width="73" height="37" viewBox="0 0 73 37" fill="none" xmlns="http://www.w3.org/2000/svg">
<path d="M12.8053 13.3791C14.0186 13.3791 15.0266 13.6871 15.8293 14.3031C16.632 14.9191 17.1733 15.7544 17.4533 16.8091H15.7593C15.526 16.2118 15.1526 15.7404 14.6393 15.3951C14.1353 15.0404 13.5146 14.8631 12.7773 14.8631C12.1893 14.8631 11.662 15.0077 11.1953 15.2971C10.738 15.5864 10.374 16.0018 10.1033 16.5431C9.84196 17.0751 9.7113 17.7004 9.7113 18.4191C9.7113 19.1284 9.84196 19.7538 10.1033 20.2951C10.374 20.8271 10.738 21.2378 11.1953 21.5271C11.662 21.8164 12.1893 21.9611 12.7773 21.9611C13.5146 21.9611 14.1353 21.7884 14.6393 21.4431C15.1526 21.0884 15.526 20.6171 15.7593 20.0291H17.4533C17.1733 21.0838 16.632 21.9191 15.8293 22.5351C15.0266 23.1418 14.0186 23.4451 12.8053 23.4451C11.872 23.4451 11.046 23.2351 10.3273 22.8151C9.60863 22.3858 9.0533 21.7931 8.6613 21.0371C8.2693 20.2718 8.0733 19.3991 8.0733 18.4191C8.0733 17.4391 8.2693 16.5711 8.6613 15.8151C9.0533 15.0498 9.60863 14.4524 10.3273 14.0231C11.046 13.5937 11.872 13.3791 12.8053 13.3791ZM27.0397 13.4771V23.3611H25.4297V18.9231H20.7817V23.3611H19.1857V13.4771H20.7817V17.6211H25.4297V13.4771H27.0397ZM35.0088 21.2191H30.8368L30.0808 23.3611H28.3728L32.0128 13.6311H33.8468L37.4728 23.3611H35.7648L35.0088 21.2191ZM34.5608 19.9871L32.9228 15.3671L31.2848 19.9871H34.5608ZM46.7917 23.3611H45.1957L40.3937 16.0671V23.3611H38.7977V13.4911H40.3937L45.1957 20.8131V13.4911H46.7917V23.3611ZM53.3855 13.3931C54.5615 13.3931 55.5415 13.6824 56.3255 14.2611C57.1095 14.8398 57.6275 15.6284 57.8795 16.6271H56.1995C55.9848 16.0951 55.6302 15.6704 55.1355 15.3531C54.6502 15.0358 54.0715 14.8771 53.3995 14.8771C52.7835 14.8771 52.2282 15.0218 51.7335 15.3111C51.2482 15.6004 50.8655 16.0111 50.5855 16.5431C50.3148 17.0751 50.1795 17.7004 50.1795 18.4191C50.1795 19.1751 50.3195 19.8238 50.5995 20.3651C50.8795 20.9064 51.2715 21.3218 51.7755 21.6111C52.2888 21.8911 52.8815 22.0311 53.5535 22.0311C54.3748 22.0311 55.0795 21.7791 55.6675 21.2751C56.2555 20.7618 56.6102 20.0618 56.7315 19.1751H53.1055V17.9991H58.0755V19.5251C57.9635 20.2531 57.7022 20.9158 57.2915 21.5131C56.8902 22.1011 56.3535 22.5724 55.6815 22.9271C55.0188 23.2818 54.2582 23.4591 53.3995 23.4591C52.4382 23.4591 51.5888 23.2444 50.8515 22.8151C50.1142 22.3858 49.5448 21.7931 49.1435 21.0371C48.7422 20.2718 48.5415 19.3991 48.5415 18.4191C48.5415 17.4391 48.7422 16.5711 49.1435 15.8151C49.5448 15.0498 50.1095 14.4571 50.8375 14.0371C51.5748 13.6078 52.4242 13.3931 53.3855 13.3931ZM61.4276 14.7651V17.7611H65.0676V18.9931H61.4276V22.0591H65.4876V23.3611H59.8316V13.4771H65.4876V14.7651H61.4276Z" fill="#00A64F"/>
</svg>
