<svg width="28" height="28" viewBox="0 0 28 28" fill="none" xmlns="http://www.w3.org/2000/svg">
<path d="M5.5541 27.9779L24.9759 23.5349C25.8348 23.3386 26.6016 22.8571 27.151 22.1692C27.7003 21.4812 27.9996 20.6275 28 19.7476V19.1337C28.0002 18.5575 27.8721 17.9884 27.6249 17.4677C27.3778 16.947 27.0178 16.4877 26.571 16.1231C26.1243 15.7584 25.6019 15.4975 25.0417 15.3592C24.4816 15.2209 23.8976 15.2087 23.3322 15.3235L4.68081 19.1018C4.15918 19.2075 3.62138 19.2053 3.10064 19.0953C2.57989 18.9853 2.08727 18.7697 1.65324 18.462C1.21921 18.1543 0.853002 17.761 0.577229 17.3064C0.301456 16.8518 0.121987 16.3455 0.0499202 15.8188L0.0359584 15.7142C-0.0980455 14.7364 0.145438 13.7443 0.717042 12.9391C1.28865 12.134 2.14555 11.5762 3.11389 11.3788L25.0398 6.90387C25.8452 6.73943 26.3473 7.74902 25.7295 8.2912L4.8465 26.5956C4.21674 27.1437 4.74269 28.1633 5.5541 27.9779Z" fill="#00A64F"/>
<path d="M24.0977 5.69482C25.6725 5.69482 26.9491 4.41999 26.9491 2.84741C26.9491 1.27483 25.6725 0 24.0977 0C22.523 0 21.2463 1.27483 21.2463 2.84741C21.2463 4.41999 22.523 5.69482 24.0977 5.69482Z" fill="#00A64F"/>
</svg>
