<svg width="240" height="151" viewBox="0 0 240 151" fill="none" xmlns="http://www.w3.org/2000/svg">
<rect y="85" width="240" height="66" rx="12" fill="#FFBB6C"/>
<path d="M84.684 109L82.528 105.192H81.604V109H79.644V99.228H83.312C84.068 99.228 84.712 99.3633 85.244 99.634C85.776 99.8953 86.1727 100.255 86.434 100.712C86.7047 101.16 86.84 101.664 86.84 102.224C86.84 102.868 86.6533 103.451 86.28 103.974C85.9067 104.487 85.3513 104.842 84.614 105.038L86.952 109H84.684ZM81.604 103.722H83.242C83.774 103.722 84.1707 103.596 84.432 103.344C84.6933 103.083 84.824 102.723 84.824 102.266C84.824 101.818 84.6933 101.473 84.432 101.23C84.1707 100.978 83.774 100.852 83.242 100.852H81.604V103.722ZM96.0328 104.954C96.0328 105.234 96.0141 105.486 95.9768 105.71H90.3068C90.3534 106.27 90.5494 106.709 90.8948 107.026C91.2401 107.343 91.6648 107.502 92.1688 107.502C92.8968 107.502 93.4148 107.189 93.7228 106.564H95.8368C95.6128 107.311 95.1834 107.927 94.5488 108.412C93.9141 108.888 93.1348 109.126 92.2108 109.126C91.4641 109.126 90.7921 108.963 90.1948 108.636C89.6068 108.3 89.1448 107.829 88.8088 107.222C88.4821 106.615 88.3188 105.915 88.3188 105.122C88.3188 104.319 88.4821 103.615 88.8088 103.008C89.1354 102.401 89.5928 101.935 90.1808 101.608C90.7688 101.281 91.4454 101.118 92.2108 101.118C92.9481 101.118 93.6061 101.277 94.1848 101.594C94.7728 101.911 95.2254 102.364 95.5428 102.952C95.8694 103.531 96.0328 104.198 96.0328 104.954ZM94.0028 104.394C93.9934 103.89 93.8114 103.489 93.4568 103.19C93.1021 102.882 92.6681 102.728 92.1548 102.728C91.6694 102.728 91.2588 102.877 90.9228 103.176C90.5961 103.465 90.3954 103.871 90.3208 104.394H94.0028ZM101.229 102.854H99.8714V109H97.8834V102.854H97.0014V101.244H97.8834V100.852C97.8834 99.9 98.154 99.2 98.6954 98.752C99.2367 98.304 100.053 98.094 101.145 98.122V99.774C100.669 99.7647 100.338 99.844 100.151 100.012C99.9647 100.18 99.8714 100.483 99.8714 100.922V101.244H101.229V102.854ZM109.92 104.954C109.92 105.234 109.901 105.486 109.864 105.71H104.194C104.24 106.27 104.436 106.709 104.782 107.026C105.127 107.343 105.552 107.502 106.056 107.502C106.784 107.502 107.302 107.189 107.61 106.564H109.724C109.5 107.311 109.07 107.927 108.436 108.412C107.801 108.888 107.022 109.126 106.098 109.126C105.351 109.126 104.679 108.963 104.082 108.636C103.494 108.3 103.032 107.829 102.696 107.222C102.369 106.615 102.206 105.915 102.206 105.122C102.206 104.319 102.369 103.615 102.696 103.008C103.022 102.401 103.48 101.935 104.068 101.608C104.656 101.281 105.332 101.118 106.098 101.118C106.835 101.118 107.493 101.277 108.072 101.594C108.66 101.911 109.112 102.364 109.43 102.952C109.756 103.531 109.92 104.198 109.92 104.954ZM107.89 104.394C107.88 103.89 107.698 103.489 107.344 103.19C106.989 102.882 106.555 102.728 106.042 102.728C105.556 102.728 105.146 102.877 104.81 103.176C104.483 103.465 104.282 103.871 104.208 104.394H107.89ZM113.52 102.448C113.772 102.037 114.099 101.715 114.5 101.482C114.911 101.249 115.378 101.132 115.9 101.132V103.19H115.382C114.766 103.19 114.3 103.335 113.982 103.624C113.674 103.913 113.52 104.417 113.52 105.136V109H111.56V101.244H113.52V102.448ZM119.39 102.448C119.642 102.037 119.969 101.715 120.37 101.482C120.781 101.249 121.248 101.132 121.77 101.132V103.19H121.252C120.636 103.19 120.17 103.335 119.852 103.624C119.544 103.913 119.39 104.417 119.39 105.136V109H117.43V101.244H119.39V102.448ZM130.51 104.954C130.51 105.234 130.492 105.486 130.454 105.71H124.784C124.831 106.27 125.027 106.709 125.372 107.026C125.718 107.343 126.142 107.502 126.646 107.502C127.374 107.502 127.892 107.189 128.2 106.564H130.314C130.09 107.311 129.661 107.927 129.026 108.412C128.392 108.888 127.612 109.126 126.688 109.126C125.942 109.126 125.27 108.963 124.672 108.636C124.084 108.3 123.622 107.829 123.286 107.222C122.96 106.615 122.796 105.915 122.796 105.122C122.796 104.319 122.96 103.615 123.286 103.008C123.613 102.401 124.07 101.935 124.658 101.608C125.246 101.281 125.923 101.118 126.688 101.118C127.426 101.118 128.084 101.277 128.662 101.594C129.25 101.911 129.703 102.364 130.02 102.952C130.347 103.531 130.51 104.198 130.51 104.954ZM128.48 104.394C128.471 103.89 128.289 103.489 127.934 103.19C127.58 102.882 127.146 102.728 126.632 102.728C126.147 102.728 125.736 102.877 125.4 103.176C125.074 103.465 124.873 103.871 124.798 104.394H128.48ZM131.647 105.094C131.647 104.31 131.801 103.615 132.109 103.008C132.426 102.401 132.856 101.935 133.397 101.608C133.938 101.281 134.54 101.118 135.203 101.118C135.707 101.118 136.188 101.23 136.645 101.454C137.102 101.669 137.466 101.958 137.737 102.322V98.64H139.725V109H137.737V107.852C137.494 108.235 137.154 108.543 136.715 108.776C136.276 109.009 135.768 109.126 135.189 109.126C134.536 109.126 133.938 108.958 133.397 108.622C132.856 108.286 132.426 107.815 132.109 107.208C131.801 106.592 131.647 105.887 131.647 105.094ZM137.751 105.122C137.751 104.646 137.658 104.24 137.471 103.904C137.284 103.559 137.032 103.297 136.715 103.12C136.398 102.933 136.057 102.84 135.693 102.84C135.329 102.84 134.993 102.929 134.685 103.106C134.377 103.283 134.125 103.545 133.929 103.89C133.742 104.226 133.649 104.627 133.649 105.094C133.649 105.561 133.742 105.971 133.929 106.326C134.125 106.671 134.377 106.937 134.685 107.124C135.002 107.311 135.338 107.404 135.693 107.404C136.057 107.404 136.398 107.315 136.715 107.138C137.032 106.951 137.284 106.69 137.471 106.354C137.658 106.009 137.751 105.598 137.751 105.122ZM150.939 103.988C151.49 104.091 151.943 104.366 152.297 104.814C152.652 105.262 152.829 105.775 152.829 106.354C152.829 106.877 152.699 107.339 152.437 107.74C152.185 108.132 151.817 108.44 151.331 108.664C150.846 108.888 150.272 109 149.609 109H145.395V99.228H149.427C150.09 99.228 150.659 99.3353 151.135 99.55C151.621 99.7647 151.985 100.063 152.227 100.446C152.479 100.829 152.605 101.263 152.605 101.748C152.605 102.317 152.451 102.793 152.143 103.176C151.845 103.559 151.443 103.829 150.939 103.988ZM147.355 103.26H149.147C149.614 103.26 149.973 103.157 150.225 102.952C150.477 102.737 150.603 102.434 150.603 102.042C150.603 101.65 150.477 101.347 150.225 101.132C149.973 100.917 149.614 100.81 149.147 100.81H147.355V103.26ZM149.329 107.404C149.805 107.404 150.174 107.292 150.435 107.068C150.706 106.844 150.841 106.527 150.841 106.116C150.841 105.696 150.701 105.369 150.421 105.136C150.141 104.893 149.763 104.772 149.287 104.772H147.355V107.404H149.329ZM162.021 101.244L157.219 112.668H155.133L156.813 108.804L153.705 101.244H155.903L157.905 106.662L159.935 101.244H162.021Z" fill="#4F5052"/>
<rect x="3.5" y="88.5" width="233" height="59" rx="7.5" stroke="white" stroke-dasharray="2 2"/>
<path d="M83.2745 19.1845C82.936 18.7685 82.6139 18.339 82.2709 17.9259C81.4999 16.9954 81.2628 15.9635 81.5044 14.7675C81.746 13.5716 81.8847 12.3309 82.0383 11.2989C82.004 10.4042 82.0055 9.70629 81.9443 9.01138C81.749 6.73876 80.9258 4.73456 79.2393 3.1643C77.1128 1.18247 74.5315 0.248966 71.6653 0.0327383C69.9296 -0.0999804 68.2355 0.181854 66.5952 0.678431C64.3718 1.34799 62.2468 2.21887 60.5677 3.91439C60.4492 4.02061 60.3108 4.10222 60.1606 4.15448C58.3711 4.86728 57.1453 6.16464 56.261 7.82587C55.4474 9.34017 54.881 10.9748 54.5834 12.6679C54.2538 14.5751 53.8721 16.46 53.0698 18.2391C52.6304 19.1914 52.3619 20.2135 52.2765 21.2588C52.1542 22.8827 52.5822 24.2964 53.9481 25.303C54.4522 25.6634 54.8304 26.173 55.0293 26.7599C55.215 27.3092 55.5122 27.8142 55.9022 28.2432C56.2923 28.6723 56.7668 29.0161 57.2959 29.2532C58.5769 29.8497 59.9249 30.1823 61.3491 30.0182C62.1212 29.9402 62.888 29.8167 63.6455 29.6484C66.373 29.0042 69.0602 29.0519 71.7354 29.9362C73.105 30.4143 74.5424 30.669 75.9929 30.6908C77.8375 30.6908 79.3526 30.0943 80.3174 28.4196C80.6117 27.8712 81.0636 27.4234 81.6148 27.1342C82.9897 26.4453 83.7293 25.2761 84.0917 23.8356C84.4973 22.1684 84.4093 20.5833 83.2745 19.1845Z" fill="#7E2A29"/>
<path d="M168.094 32.765C167.545 30.7087 166.337 29.2547 164.139 28.8252C163.94 28.7148 163.718 28.6531 163.491 28.6451C163.263 28.637 163.037 28.6829 162.831 28.779L161.367 29.0519C160.979 28.4405 160.77 28.4345 160.415 29.04C160.333 29.1772 160.286 29.3382 160.202 29.4694C159.768 30.1703 159.577 30.9607 159.367 31.7406C158.844 33.6881 158.217 35.6103 158.128 37.6473C157.921 38.3482 157.818 39.0491 158.101 39.7544C158.314 40.2465 158.674 40.4359 159.222 40.4627C160.005 40.5 160.754 40.3524 161.496 40.1824C163.049 39.829 164.567 39.3592 165.948 38.542C166.743 38.0678 167.429 37.4579 167.812 36.6034C168.352 35.3964 168.452 34.0381 168.094 32.765Z" fill="#4D1B1A"/>
<path d="M176.064 26.2692C175.812 27.4048 175.772 28.5772 175.946 29.7273L175.987 29.9495C176.008 30.1479 176.028 30.3462 176.051 30.546C176.072 30.6191 176.093 30.6951 176.115 30.7622C176.145 30.9591 176.175 31.1544 176.206 31.3498C176.224 31.4229 176.242 31.4989 176.261 31.5705C176.424 32.5726 176.597 33.5732 176.746 34.5768C176.859 35.2259 176.812 35.8928 176.611 36.5201C176.409 37.1474 176.059 37.7163 175.588 38.1781C174.266 39.5485 172.724 40.488 170.817 40.7475L170.614 40.7758L169.694 40.7519L169.488 40.7147C168.405 40.6203 167.362 40.2619 166.45 39.6708C165.606 39.1459 164.887 38.4778 164.583 37.4742C164.565 37.1372 164.548 36.8002 164.531 36.4632C164.54 36.3573 164.55 36.2529 164.559 36.147L164.622 35.9234C164.653 35.6251 164.683 35.3224 164.713 35.0152C164.969 34.6006 164.952 34.1697 164.791 33.7313C164.807 33.1348 164.824 32.5343 164.841 31.9299L164.676 31.8344C162.002 31.8896 159.716 31.1679 158.287 28.6835C157.291 26.9507 156.854 25.0553 156.608 23.1033C156.471 22.0132 156.367 20.9187 156.244 19.8226C156.16 19.0217 155.918 18.2454 155.533 17.5381C154.063 14.8434 154.303 12.1801 155.77 9.57645C156.532 8.22391 157.628 7.15768 158.847 6.21224C159.163 5.96768 159.473 5.71269 159.798 5.47708C159.925 5.38319 160.069 5.31575 160.223 5.27875C161.528 5.00735 162.818 4.92832 163.993 5.72612C164.589 6.13322 165.199 6.53138 165.752 6.99366C167.862 8.75927 170.189 10.1759 172.634 11.4181C173.66 11.94 174.658 12.5201 175.636 13.1256C176.513 13.6533 177.274 14.3528 177.873 15.1819C178.499 16.0289 178.842 17.0516 178.854 18.1047C178.761 18.2149 178.707 18.3526 178.7 18.4966C178.694 18.6405 178.735 18.7827 178.817 18.9011C178.717 19.9822 178.325 20.9768 177.886 21.9521C177.439 22.9497 176.938 23.9235 176.489 24.9211C176.348 25.2901 176.231 25.6676 176.137 26.0515C176.11 26.1245 176.088 26.2036 176.064 26.2692Z" fill="#D26D3C"/>
<path d="M115.109 19.6632C115.109 15.5832 115.621 11.5823 117.028 7.73345C117.406 6.76072 117.854 5.81718 118.37 4.91056C118.624 4.46882 118.957 4.07716 119.352 3.75487C120.045 3.16732 120.806 3.25382 121.41 3.94425C121.639 4.20632 121.831 4.4989 121.981 4.81365C122.667 6.24295 123.045 7.80079 123.089 9.38572C123.105 9.83069 123.262 10.2591 123.536 10.61C123.913 11.032 124.147 11.5623 124.204 12.1251C124.311 13.4747 124.483 14.8093 124.141 16.1797C123.943 16.9701 124.058 17.8335 123.992 18.6626C123.86 20.3984 124.35 22.0492 124.677 23.7208C125.003 25.3925 124.975 25.4894 123.509 26.2559C122.641 26.7335 121.748 27.1661 120.835 27.5518C120.185 27.7948 119.506 27.9497 118.815 28.0126C117.567 28.1408 116.693 27.4817 116.21 26.408C115.85 25.6117 115.689 24.7274 115.443 23.8819C115.103 22.7143 115.219 21.4959 115.096 20.3119L115.109 19.6632Z" fill="#D26D3C"/>
<path d="M164.785 33.7239C164.946 34.1623 164.964 34.5933 164.707 35.0078C164.732 34.5798 164.759 34.1519 164.785 33.7239Z" fill="#D26D3C"/>
<path d="M178.813 18.8966C178.73 18.7783 178.689 18.6362 178.696 18.4922C178.703 18.3482 178.757 18.2105 178.85 18.1003C178.838 18.3717 178.825 18.6372 178.813 18.8966Z" fill="#D26D3C"/>
<path d="M164.525 36.4558C164.542 36.7928 164.559 37.1298 164.577 37.4669C164.556 37.1298 164.539 36.7928 164.525 36.4558Z" fill="#D26D3C"/>
<path d="M176.064 26.2692C176.088 26.1976 176.11 26.1201 176.133 26.053C176.11 26.1246 176.088 26.2036 176.064 26.2692Z" fill="#D26D3C"/>
<path d="M176.115 30.7609C176.093 30.6893 176.072 30.6118 176.051 30.5447C176.072 30.6177 176.093 30.6893 176.115 30.7609Z" fill="#D26D3C"/>
<path d="M176.261 31.572C176.242 31.4975 176.224 31.4229 176.206 31.3513C176.224 31.4229 176.242 31.4945 176.261 31.572Z" fill="#D26D3C"/>
<path d="M212.128 85.004C212.045 84.7778 211.978 84.5461 211.928 84.3106C211.437 81.5816 210.711 78.9109 209.599 76.3773C208.24 73.283 206.736 70.2543 205.301 67.1928C203.64 63.6452 202.004 60.0857 200.322 56.547C199.412 54.6353 198.511 52.7131 197.459 50.8804C196.163 48.6256 194.728 46.4484 193.319 44.2593C192.498 43.03 191.505 41.9251 190.369 40.9786C189.762 40.4552 189.164 39.9229 188.692 39.5083C188.244 39.4651 187.918 39.474 187.617 39.398C186.943 39.225 186.288 38.9774 185.611 38.8194C183.914 38.4227 182.211 38.0544 180.508 37.6816C179.697 37.5026 178.887 37.3028 178.067 37.179C176.92 37.0075 175.908 37.2208 175.131 38.2229C174.181 39.4412 172.859 40.1272 171.359 40.3508C168.957 40.7102 166.886 40.1093 165.435 37.9977C165.136 37.5503 164.853 37.103 164.54 36.6109C164.093 36.678 163.645 36.7227 163.207 36.8196C161.088 37.2894 158.981 37.8232 156.85 38.2348C154.4 38.7126 152.003 39.4282 149.692 40.3717C147.902 41.0935 146.08 41.7347 144.243 42.3207C141.972 43.047 139.669 43.6792 137.383 44.3548C136.295 44.6769 135.246 45.0795 134.438 45.931C134.399 45.9713 134.289 45.9504 134.174 45.9638C133.894 43.7121 133.13 41.6393 132.128 39.6276C131.705 38.7298 131.353 37.8004 131.074 36.848C130.284 34.371 129.529 31.8822 128.769 29.3919C128.361 28.0587 127.737 26.8702 126.697 25.9054C126.255 25.4767 125.861 25.0017 125.521 24.4887C124.796 23.4449 124.426 23.2644 123.223 23.5791C121.772 23.9593 120.327 24.3664 118.885 24.781C118.522 24.876 118.175 25.0232 117.854 25.2179C117.385 25.5251 117.043 25.8964 117.052 26.56C117.065 27.577 116.946 28.5955 116.878 29.6126C116.752 31.4363 116.761 33.2422 117.067 35.0645C117.704 38.8522 118.661 42.5638 119.614 46.2755C120.483 49.662 121.715 52.9248 123.157 56.1071C124.079 58.2091 125.565 60.0153 127.449 61.3264C129.712 62.8922 132.158 63.429 134.865 62.837C137.28 62.3076 139.66 61.644 141.943 60.7135C144.571 59.6324 147.149 58.4304 149.749 57.2837L150.664 56.8766C150.728 57.2538 150.794 57.5402 150.822 57.8309C150.998 59.6204 151.168 61.4099 151.332 63.1993C151.593 66.0565 151.829 68.9167 152.112 71.7724C152.366 74.3328 152.63 76.8947 152.967 79.4447C153.238 81.3884 153.825 83.2747 154.704 85.0293C154.853 85.3276 154.974 85.5334 155.409 85.5244C158.038 85.4737 160.667 85.4484 163.296 85.4707C166.41 85.4961 169.522 85.5841 172.636 85.6378C176.098 85.6959 179.56 85.778 183.022 85.7869C186.804 85.8003 190.587 85.7451 194.369 85.7094C194.518 85.7094 194.676 85.596 194.816 85.5394C194.639 85.1621 194.436 84.8743 194.369 84.5566C193.963 82.6419 193.568 80.7242 193.21 78.8005C192.799 76.5875 192.43 74.3671 192.043 72.1497L191.978 71.9424C191.956 71.7411 191.932 71.5398 191.91 71.3459C191.887 71.2758 191.865 71.2057 191.844 71.1371L191.782 70.5287C191.847 70.4154 191.914 70.302 191.981 70.1887C192.692 72.2973 193.404 74.4059 194.117 76.5145C194.684 78.1353 195.105 79.8037 195.374 81.4996C195.523 82.5345 195.672 83.5709 195.847 84.6014C196.005 85.5036 196.233 85.6601 197.148 85.6452C197.927 85.6318 198.705 85.6005 199.482 85.6273C203.291 85.76 207.101 85.8301 210.912 85.6855C211.207 85.6734 211.5 85.6425 211.791 85.593C212.125 85.5349 212.232 85.3291 212.128 85.004Z" fill="#D08BB7"/>
<path d="M188.546 38.1454C188.294 36.3887 187.411 34.8647 186.774 33.2482C186.487 32.4837 186.287 31.6893 186.178 30.8802C186.029 29.8363 186.008 28.7641 185.879 27.7128C185.692 26.1911 185.18 24.7275 184.378 23.4211C183.823 22.5055 183.301 21.566 182.83 20.6041C182.302 19.5264 181.961 18.3666 181.822 17.1743C181.728 16.3631 181.643 15.5504 181.539 14.7407C181.165 11.6326 179.925 8.69218 177.96 6.25561C175.97 3.78764 173.443 2.1816 170.277 1.66266L169.622 1.57317L169.324 1.51949L167.651 1.48071L167.253 1.50159L166.568 1.52844C166.227 1.5702 165.887 1.63878 165.545 1.64773C164.523 1.66096 163.518 1.90946 162.607 2.37395C162.137 2.6386 161.585 2.71987 161.058 2.60211L160.554 2.52606L159.94 2.49774L159.433 2.54246C158.7 2.64683 158 2.91125 157.381 3.31693C156.763 3.7226 156.241 4.25956 155.854 4.88964C155.118 6.03783 154.264 7.10504 153.304 8.07342C152.258 9.12479 151.566 10.4767 151.326 11.9401C151.307 11.9551 151.268 11.9715 151.27 11.9834C151.277 12.0268 151.289 12.0692 151.305 12.1101C151.293 12.5366 151.278 12.9631 151.262 13.3896C151.244 13.406 151.209 13.4299 151.213 13.4403C151.228 13.4819 151.248 13.5218 151.271 13.5596C151.478 16.3154 153.281 17.7813 155.563 18.849C155.861 18.9981 156.197 19.0682 156.322 18.6014C156.526 17.7365 156.598 16.8686 156.365 15.9978C156.326 15.5504 156.276 15.103 156.252 14.6661C156.197 13.968 156.295 13.2663 156.541 12.6104C156.786 11.9544 157.172 11.3602 157.672 10.8695C158.841 9.68841 160.057 8.55805 160.964 7.03253C161.049 7.16823 161.098 7.23386 161.134 7.30693C162.157 9.40955 163.942 10.5503 166.092 11.2303C166.781 11.448 167.466 11.6777 168.162 11.8745C168.591 11.9849 168.989 12.1924 169.325 12.4809C169.661 12.7695 169.927 13.1314 170.101 13.5387C170.498 14.3887 170.869 15.2551 171.324 16.0738C171.676 16.7025 172.092 17.294 172.563 17.8394C172.934 18.2704 173.447 18.5388 174.096 18.4076C174.223 18.2115 174.364 18.0251 174.518 17.8499C174.856 17.5069 175.205 17.1803 175.745 17.1788C176.743 17.1788 177.116 17.4413 177.56 18.5343C177.59 18.6506 177.618 18.767 177.646 18.8833C177.646 19.0876 177.633 19.2919 177.627 19.4962L177.518 19.8421C177.245 20.8338 176.623 21.6003 175.89 22.2728C175.074 22.9797 174.547 23.9623 174.409 25.0331C174.39 25.0495 174.352 25.0659 174.354 25.0793C174.36 25.124 174.371 25.168 174.387 25.2105L174.342 25.5088L174.243 26.0262C174.223 26.2305 174.203 26.4333 174.182 26.6376C174.163 26.654 174.126 26.6719 174.126 26.6853C174.133 26.7309 174.145 26.7758 174.16 26.8196C174.148 26.918 174.135 27.0149 174.121 27.1178C174.082 27.34 174.045 27.5652 174.008 27.7859C174.001 27.8377 174.012 27.8903 174.039 27.935C174.007 28.8466 173.975 29.7578 173.942 30.6684C173.932 30.7773 173.92 30.8846 173.909 30.9935C173.896 31.1531 173.836 31.3246 173.877 31.4692C174.26 32.8575 174.592 34.2622 175.07 35.6163C175.583 36.9959 176.001 38.4088 176.322 39.8454C176.481 40.5769 176.716 41.29 177.022 41.9734C177.38 42.7861 177.988 43.3796 178.895 43.5943C179.507 43.8697 180.204 43.8922 180.833 43.657C181.661 43.5078 182.314 43.0515 182.904 42.4953C183.295 42.1284 183.663 41.7377 184.018 41.3351C185.049 40.1705 186.312 39.6456 187.87 39.8707C188.148 39.911 188.432 39.8961 188.802 39.9095C188.713 39.24 188.623 38.6927 188.546 38.1454Z" fill="#4D1B1A"/>
<path d="M77.4334 79.7386C77.3634 79.5895 77.2918 79.43 77.2217 79.2749C77.2608 78.9593 77.2748 78.6412 77.2635 78.3235C77.2456 78.1415 77.0905 77.97 76.9965 77.7926C76.6699 77.7344 76.6103 77.9238 76.582 78.1594C76.5313 78.5725 76.4716 78.9856 76.4 79.5224C75.0848 79.0586 73.8202 79.2376 72.5616 79.251L69.2377 79.1421L66.7906 78.9214L66.0942 78.8693L64.5225 78.6948L64.0005 78.653C63.0223 78.5367 62.047 78.3891 61.0643 78.31C59.3867 78.1729 57.7061 78.0118 56.0255 77.9894C54.5551 77.973 53.0803 78.1117 51.6144 78.2474C50.411 78.3593 49.1912 78.4741 48.0266 78.7574C46.5458 79.1183 45.1142 79.6521 43.6603 80.1085L43.5216 80.1905C43.5216 80.1249 43.5216 80.0577 43.529 79.9921C43.529 79.4717 44.1255 79.0035 43.6364 78.2922C43.452 78.5473 43.287 78.816 43.1428 79.0959C42.428 80.8386 41.7232 82.5854 41.0283 84.3361C40.8791 84.7029 40.7539 85.0817 40.6182 85.447L40.9373 85.6424C41.8708 85.9406 42.8177 85.8989 43.7706 85.7453H44.7981L46.3758 85.7721H46.9022L47.6344 85.7035L49.3642 85.7781L50.2276 85.7677L53.1877 85.8497L54.7952 85.8079H55.8391C57.1991 85.8467 58.5591 85.8899 59.9191 85.9182C60.0868 85.9031 60.252 85.8675 60.4112 85.8124L61.4401 85.8258L63.0223 85.8526H63.3608L65.8496 85.8377L66.6937 85.8512L68.6233 85.9078L71.2553 85.9347L71.4492 85.8586L72.2992 85.8765L74.0499 85.9048H74.3958C75.216 85.9391 76.0362 86.1255 76.8534 85.8586L77.0025 85.6961C77.0159 85.538 77.0293 85.3799 77.0413 85.2234C77.0547 85.116 77.0696 85.0101 77.083 84.9027C77.0994 84.7536 77.1173 84.6045 77.1352 84.4554C77.1531 84.3853 77.1725 84.3167 77.1904 84.2466L77.2262 83.7992C77.2366 83.7351 77.2456 83.6695 77.256 83.6054C77.2709 83.3951 77.2858 83.1848 77.3022 82.9746C77.3857 82.1067 77.4797 81.2388 77.5453 80.3694C77.5354 80.1552 77.4978 79.9432 77.4334 79.7386Z" fill="#F48766"/>
<path d="M47.5881 85.8286L49.3657 85.7794L47.6344 85.7034C47.6195 85.7466 47.603 85.7869 47.5881 85.8286Z" fill="#F48766"/>
<path d="M46.9036 85.7704L47.588 85.8286C47.6029 85.7868 47.6193 85.7466 47.6358 85.7048L46.9036 85.7704Z" fill="#F48766"/>
<path d="M60.4586 81.7622L59.1628 81.8472L58.6796 81.8606L57.3852 81.9456L56.9006 81.9591C54.3044 82.1082 51.7096 82.2081 49.1224 81.8293C47.6358 81.6254 46.179 81.2445 44.7829 80.6945C42.8354 79.9071 41.5112 78.5158 40.7119 76.5936C40.5431 76.171 40.3525 75.7573 40.1407 75.3544C39.6442 74.4343 39.3743 73.4666 39.5114 72.4197C39.6024 71.7129 39.495 71.0374 39.3444 70.3514C38.8822 68.2324 38.4497 66.1029 38.4363 63.9227C38.4363 63.204 38.5332 62.4837 38.5854 61.7649L38.6301 61.4443C39.1908 58.7705 40.8028 56.8215 42.9353 55.2438C45.3213 53.4842 48.0054 52.3434 50.7836 51.4039C55.0634 49.9574 59.4625 48.9941 63.9242 48.3409C66.9663 47.8936 70.0293 47.5953 73.0848 47.2524C73.644 47.1882 74.2092 47.1867 74.7714 47.1554L74.9667 47.1331C76.2507 47.1644 77.5361 47.1823 78.8201 47.2345C79.2475 47.2583 79.6719 47.3217 80.0876 47.4239C81.6892 47.7877 82.1455 48.2977 82.4064 49.9589L82.4154 50.281L82.484 52.0601V52.7043L82.5645 54.3222L82.5765 54.8054L82.6614 56.0998C82.6614 56.2608 82.6614 56.4219 82.6719 56.5829L82.7211 57.5015C82.7286 57.5776 82.7375 57.6507 82.745 57.7282C82.7688 59.4103 82.818 61.0924 82.4691 62.7566C82.237 63.8826 81.8347 64.9668 81.2761 65.9717C80.5518 67.277 80.0003 68.6711 79.6358 70.1188C79.5388 70.4975 79.5821 70.9121 79.5612 71.3117C79.4637 71.4205 79.4055 71.5588 79.3961 71.7046C79.3866 71.8504 79.4264 71.9951 79.509 72.1155L79.4553 72.9088L79.4195 73.131L79.2704 74.8504C79.254 75.0651 79.2391 75.2784 79.2242 75.4931C79.1034 76.2805 79.0065 77.0723 78.8558 77.8537C78.5024 79.6924 77.3885 80.7825 75.5468 81.1255C75.2575 81.1792 74.9667 81.2239 74.676 81.2746L74.3538 81.3014L73.5426 81.3999L73.2205 81.4148L71.7651 81.4998C71.7228 81.4572 71.6725 81.4233 71.6171 81.4003C71.5617 81.3772 71.5023 81.3653 71.4422 81.3653C71.3822 81.3653 71.3228 81.3772 71.2674 81.4003C71.212 81.4233 71.1617 81.4572 71.1194 81.4998L69.0197 81.552C68.875 81.461 68.7075 81.4128 68.5366 81.4128C68.3657 81.4128 68.1982 81.461 68.0534 81.552L63.0459 81.6623C62.9585 81.5797 62.8423 81.5344 62.722 81.5361C62.6017 81.5377 62.4868 81.5862 62.4017 81.6712L60.9448 81.7503L60.4586 81.7622Z" fill="#8BBABB"/>
<path d="M68.0549 81.5533C68.1997 81.4623 68.3671 81.4141 68.5381 81.4141C68.709 81.4141 68.8765 81.4623 69.0212 81.5533H68.0549Z" fill="#8BBABB"/>
<path d="M79.5152 72.1185C79.4326 71.998 79.3928 71.8533 79.4022 71.7075C79.4117 71.5618 79.4699 71.4234 79.5674 71.3147C79.5465 71.5831 79.5331 71.8515 79.5152 72.1185Z" fill="#8BBABB"/>
<path d="M79.2258 75.496C79.2407 75.2813 79.2557 75.068 79.2721 74.8533C79.2557 75.068 79.2482 75.2813 79.2258 75.496Z" fill="#8BBABB"/>
<path d="M71.1211 81.5073C71.1634 81.4646 71.2137 81.4308 71.2691 81.4078C71.3245 81.3847 71.3839 81.3728 71.4439 81.3728C71.504 81.3728 71.5634 81.3847 71.6188 81.4078C71.6742 81.4308 71.7245 81.4646 71.7668 81.5073H71.1211Z" fill="#8BBABB"/>
<path d="M62.3972 81.6772C62.4823 81.5922 62.5972 81.5437 62.7175 81.542C62.8378 81.5404 62.954 81.5856 63.0414 81.6683L62.3972 81.6772Z" fill="#8BBABB"/>
<path d="M82.7555 57.7311C82.7555 57.655 82.7391 57.5819 82.7317 57.5044C82.7406 57.5804 82.7481 57.655 82.7555 57.7311Z" fill="#8BBABB"/>
<path d="M123.934 10.7503C123.822 9.98824 123.1 9.70641 122.489 10.1791C122.258 10.3635 122.051 10.5764 121.873 10.8129C121.347 11.4914 120.844 12.1893 120.318 12.8678C120.03 13.2376 119.756 13.6358 119.144 13.8863C119.161 13.4389 119.131 13.096 119.192 12.7724C119.556 10.8487 119.929 8.9265 120.328 7.01028C120.491 6.22292 120.741 5.45493 120.925 4.67204C121.053 4.13371 121.055 3.60581 120.627 3.16143C120.369 2.89152 120.125 2.6052 119.881 2.32187C119.463 1.83722 118.918 1.67469 118.357 1.92074C117.523 2.28907 116.705 2.72152 116.278 3.6088C116.059 4.00907 115.87 4.42472 115.711 4.85247C115.115 6.77167 114.474 8.68194 113.988 10.6295C113.378 13.0751 112.795 15.5266 111.9 17.8872C109.946 23.1065 107.923 28.3139 105.957 33.5361C104.532 37.3283 103.155 41.1414 101.754 44.938C101.636 45.2571 101.481 45.5628 101.32 45.9252C101.021 45.7761 100.789 45.6508 100.561 45.5196C98.2602 44.1904 95.9597 42.8612 93.6593 41.5321C93.0494 41.1816 92.7929 41.2458 92.3902 41.8303C92.3317 41.9188 92.2817 42.0127 92.2411 42.1107C90.9338 45.0822 89.629 48.0542 88.3267 51.0267C88.2224 51.3096 88.1348 51.5984 88.0642 51.8916C88.5116 52.1048 88.856 52.2539 89.1871 52.4284C90.4681 53.1025 91.7535 53.7705 93.024 54.4684C95.996 56.0953 99.0426 57.5448 102.307 58.4947C103.401 58.8138 104.52 58.9749 105.647 58.7706C109.214 58.1234 111.378 55.7882 112.55 52.5656C113.983 48.6198 114.627 44.4638 115.292 40.3376C116.116 35.2227 116.904 30.1028 117.658 24.978C117.972 22.8515 118.619 20.9264 120.203 19.3755C120.998 18.5971 121.427 17.5681 121.808 16.5198C122.188 15.4715 122.655 14.4321 123.092 13.4017C123.33 12.835 123.615 12.2832 123.822 11.7046C123.936 11.4002 123.974 11.0728 123.934 10.7503Z" fill="#F1A57B"/>
<path d="M69.7983 57.8027C68.6135 56.7875 67.2764 55.9647 65.8361 55.3646C65.3165 55.1358 64.7489 55.0373 64.1826 55.0779C63.6163 55.1184 63.0684 55.2967 62.5867 55.5972C62.0146 55.9497 61.4724 56.3487 60.9658 56.7902C59.7832 57.8042 58.641 58.8645 57.4629 59.8815C55.8911 61.24 54.2016 62.4166 52.26 63.195C49.5221 64.297 46.7932 65.4184 44.0583 66.5279C43.9076 66.5788 43.7536 66.6196 43.5975 66.6502L43.4931 66.7367V66.5458C44.4873 63.8825 45.4814 61.2196 46.4756 58.5573C46.5967 58.2767 46.732 58.0024 46.8812 57.7356C45.7568 57.0556 37.4179 53.2992 36.9496 53.262C36.8542 53.4976 36.7647 53.7466 36.6514 53.9852C33.9672 59.8204 31.7095 65.8166 29.7202 71.9187C29.415 72.8922 29.193 73.89 29.0566 74.9011C28.8985 75.9867 29.0566 77.0708 29.7202 77.979C31.1697 79.9519 33.1366 80.866 35.5852 80.602C37.1435 80.4335 38.4841 79.6596 39.8083 78.8916C41.5038 77.9074 43.1546 76.8471 44.8636 75.8913C48.9197 73.6206 52.8585 71.1641 56.68 68.5216C57.0031 68.2833 57.3989 68.1642 57.7999 68.1846C58.89 68.2249 59.8712 67.9371 60.6511 67.1214C60.6795 67.0916 60.7481 67.099 60.845 67.0811C61.3267 67.691 62.026 67.7387 62.7314 67.6135C63.6544 67.4494 64.4687 67.0379 65.0413 66.2714C65.269 65.9392 65.5925 65.6843 65.9688 65.5407C66.1865 65.4659 66.3839 65.3418 66.5456 65.1781C66.7073 65.0143 66.8289 64.8153 66.9008 64.5967C66.9609 64.42 67.0587 64.2584 67.1874 64.1232C67.3162 63.988 67.4728 63.8825 67.6465 63.8139C68.3026 63.4977 68.6903 62.9728 68.6575 62.2153C68.6396 61.8201 68.8171 61.5696 69.0974 61.3205C69.4494 61.0307 69.7716 60.7065 70.0592 60.3527C70.784 59.3819 70.7169 58.5797 69.7983 57.8027Z" fill="#F1A57B"/>
<path d="M78.5652 12.5651C78.6129 10.8889 78.0075 9.51999 76.5073 8.64614C76.1381 8.42749 75.7551 8.23321 75.3606 8.06456C73.3809 7.20939 71.2174 6.86778 69.0706 7.0714C67.563 7.22052 66.1135 7.54413 64.7863 8.33597C64.1287 8.72965 63.7917 9.15763 63.8259 9.98973C63.9512 13.1213 62.5211 15.6564 60.6228 17.9931C60.3873 17.8084 60.1419 17.6366 59.8876 17.4786C58.7543 16.8449 57.5971 17.3176 57.2034 18.5553C56.9559 19.3397 57.1512 20.0465 57.5897 20.6937C58.0941 21.4694 58.8782 22.0206 59.7788 22.2327C60.6019 22.428 61.0389 22.944 61.3252 23.6985C62.1096 25.7728 62.1424 27.8889 61.7338 30.0362C61.5846 30.8266 61.1641 31.4678 60.6347 32.0583C59.8384 32.9531 58.8095 33.3423 57.6776 33.56C57.3526 33.6226 57.0364 33.7374 56.6338 33.8582C57.5554 35.3494 58.3815 36.7497 59.3911 38.0336C61.1954 40.3376 63.5441 41.4307 66.4639 41.3233C69.0631 41.2264 70.9585 40.0632 72.0515 37.6668C72.7241 36.1935 73.0462 34.6307 73.2579 32.9516C72.9597 32.9098 72.6749 32.8755 72.3975 32.8323C71.6832 32.7234 71.2478 32.4222 71.1851 31.8466C71.0957 30.9379 71.1399 30.021 71.3164 29.1251C72.7792 29.0595 74.0423 28.6181 75.025 27.6339C75.9139 26.7746 76.7281 25.8412 77.4587 24.8438C78.4739 23.3998 78.9297 21.636 78.7412 19.881C78.5386 17.4479 78.4799 15.0051 78.5652 12.5651Z" fill="#F1A57B"/>
<path d="M69.4062 52.7252C62.4646 53.2695 55.9613 55.1678 50.0919 59.0062C49.5511 59.3557 49.0313 59.7366 48.5351 60.147C48.0444 60.5571 47.6224 60.6868 46.9708 60.3945C44.9308 59.4774 42.8252 58.7079 40.7911 57.7789C38.8913 56.9125 37.0437 55.9328 35.1916 54.968C34.67 54.6923 34.1838 54.3543 33.7436 53.9614C33.0278 53.3231 32.9771 52.6193 33.5513 51.8603C34.0523 51.1967 34.5862 50.5584 35.117 49.9217C36.9483 47.7087 38.7765 45.4957 40.6226 43.2947C41.2609 42.5356 41.9274 41.8035 42.6134 41.0802C44.2708 39.3114 46.2628 37.8891 48.4739 36.8958C50.9016 35.8222 53.3442 34.7813 55.7898 33.7479C56.2377 33.5704 56.7031 33.441 57.1782 33.3616C57.5957 33.2826 57.9074 33.4302 58.2056 33.809C58.8907 34.7049 59.6441 35.5464 60.4589 36.3262C61.9143 37.6683 63.6352 38.5272 65.6528 38.5093C67.0337 38.4974 68.3116 38.0083 69.4569 37.2164C70.7493 36.3267 71.7414 35.0657 72.3021 33.6002C72.5064 33.0828 72.8121 32.8099 73.346 32.7502L74.0081 32.6996L74.7999 32.6339L74.9998 32.6145H75.298H75.7812C77.4707 32.5877 79.1543 32.6145 80.8245 32.9396C82.3293 33.2174 83.7808 33.7312 85.1252 34.4622C88.7513 36.4959 92.2174 38.8025 95.4936 41.3621C95.9768 41.7364 96.0901 42.2091 95.8247 42.8607C95.6685 43.2316 95.4789 43.5875 95.258 43.924C94.7078 44.7814 94.1277 45.618 93.5729 46.474C91.8511 49.1273 90.1317 51.7827 88.4148 54.4401C88.1658 54.8233 87.9033 55.1961 87.6543 55.5779C87.3426 56.058 86.9877 56.4726 86.2719 56.5248C84.8224 55.5629 83.543 54.2581 82.2829 52.9459C81.6312 52.2703 80.9975 52.078 80.0893 52.2137C78.0523 52.5119 75.987 52.4955 73.9306 52.5522H73.6085L71.3478 52.6178L70.8646 52.6267L69.7313 52.7132L69.4062 52.7252Z" fill="#8BBABB"/>
<path d="M191.548 67.8937C190.285 65.0216 189.013 62.154 187.76 59.2759C187.292 58.1948 186.879 57.0898 186.442 55.9953C186.348 55.7611 186.228 55.4957 185.936 55.6612C185.838 55.7164 185.815 56.0489 185.874 56.2145C186.145 57.0003 186.425 57.7847 186.756 58.5452C188.164 61.7623 189.582 64.9749 191.011 68.183C191.083 68.3547 191.178 68.5157 191.294 68.6617C191.334 68.6933 191.38 68.7153 191.429 68.7259C191.479 68.7366 191.53 68.7355 191.579 68.7228C191.664 68.699 191.728 68.5916 191.804 68.5111C191.712 68.2874 191.634 68.0876 191.548 67.8937Z" fill="#A77294"/>
<path d="M73.5352 21.8582C72.6147 21.6798 71.6853 21.5508 70.7511 21.472C70.0353 21.4183 69.6326 21.988 69.7773 22.6993C69.9562 23.5791 70.7854 24.1905 71.8769 24.2487C72.9089 24.3038 73.6947 23.8281 73.9736 22.9811C74.1481 22.4503 73.9825 21.9388 73.5352 21.8582Z" fill="white"/>
<path d="M51.6039 50.9296C51.5637 50.9997 51.5338 51.0787 51.4951 51.1458C50.3021 53.3051 49.1056 55.4634 47.9057 57.6207C47.685 58.0188 47.4494 58.4125 47.1944 58.7898C46.9215 59.1939 46.6068 59.5652 46.064 59.61C45.8403 59.6279 45.6838 59.7501 45.7524 59.9708C45.7867 60.0857 45.9731 60.1543 46.1759 60.3093C46.5606 60.0737 46.996 59.9008 47.3032 59.5965C47.6521 59.2252 47.949 58.8083 48.186 58.3573C49.4387 56.1369 50.6719 53.9075 51.9141 51.6796C52.0215 51.526 52.1063 51.3578 52.1661 51.1801C52.1989 51.022 52.1944 50.7566 52.099 50.6895C51.8634 50.5239 51.7143 50.7357 51.6039 50.9296Z" fill="#6BA2A2"/>
<path d="M146.583 51.2131C143.906 49.8567 141.364 48.2478 138.993 46.4084C138.828 46.2999 138.658 46.2004 138.483 46.1101C138.441 46.3412 138.342 46.5321 138.4 46.635C138.522 46.8123 138.676 46.9642 138.855 47.0824C141.153 48.8373 143.603 50.3839 146.176 51.7037C146.336 51.8001 146.509 51.8725 146.69 51.9184C146.752 51.9198 146.813 51.9058 146.869 51.8777C146.924 51.8496 146.971 51.8083 147.006 51.7574C147.019 51.6975 147.018 51.6356 147.003 51.5762C146.988 51.5168 146.96 51.4616 146.921 51.4144C146.823 51.3256 146.708 51.2572 146.583 51.2131Z" fill="#A77294"/>
<path d="M68.2637 4.68823C68.4717 4.6389 68.6745 4.56948 68.8691 4.48094C70.3916 3.92323 71.9455 3.53701 73.6037 3.55938C74.5506 3.73833 75.4961 3.92025 76.437 4.09771C76.6861 4.14543 77.0216 4.32884 77.1305 3.9784C77.2468 3.60411 76.8322 3.61754 76.6145 3.50421C76.5901 3.49309 76.5646 3.48458 76.5384 3.47885C73.7439 2.7049 71.0209 2.91964 68.3502 4.03507C68.2455 4.06235 68.1485 4.11338 68.0668 4.18419C68.0255 4.22999 67.9941 4.28383 67.9746 4.34234C67.9551 4.40085 67.9479 4.46277 67.9535 4.5242C67.9869 4.57577 68.0329 4.61792 68.0872 4.64663C68.1415 4.67535 68.2022 4.68967 68.2637 4.68823Z" fill="#4D1B1A"/>
<path d="M175.211 11.02C173.602 10.1342 172.117 9.10971 170.915 7.70647C170.784 7.58213 170.644 7.46798 170.496 7.36499C170.396 7.50218 170.244 7.61848 170.253 7.72287C170.289 7.87626 170.37 8.01542 170.486 8.12252C171.366 9.10077 172.302 10.0149 173.444 10.6904C174.525 11.3286 175.657 11.8834 176.556 12.799C176.719 12.963 176.959 13.0734 177.101 12.8512C177.166 12.7483 177.056 12.4321 176.931 12.3263C176.379 11.8625 175.836 11.3644 175.211 11.02Z" fill="#7E2A29"/>
<path d="M83.0179 48.4229C83.0448 47.4864 83.0865 46.5514 83.0985 45.6149C83.0985 45.4658 83.0194 45.2078 82.915 45.1675C82.6362 45.0661 82.5571 45.3166 82.5199 45.5314C82.4669 45.7939 82.4345 46.0601 82.4229 46.3277C82.3971 48.3349 82.3787 50.3426 82.3678 52.3507C82.3613 52.5646 82.3844 52.7784 82.4364 52.986C82.4575 53.0435 82.4922 53.095 82.5377 53.1361C82.5832 53.1771 82.638 53.2065 82.6973 53.2216C82.7838 53.2216 82.921 53.0934 82.9553 52.992C82.9892 52.8353 83.0013 52.6747 82.9911 52.5148C83.0309 51.4212 83.0706 50.3247 83.1104 49.2251H83.0224C83.0209 48.9537 83.0105 48.6853 83.0179 48.4229Z" fill="#6BA2A2"/>
<path d="M182.684 35.2419C182.348 34.6648 182.016 34.0848 181.67 33.5136C180.919 32.2819 180.164 31.0531 179.405 29.8273C179.283 29.6558 179.152 29.4915 179.011 29.3352C178.753 29.8407 178.735 29.8497 178.892 30.1435C179.19 30.7086 179.505 31.2708 179.837 31.8181C180.642 33.1423 181.461 34.4575 182.275 35.7773C182.317 35.8444 182.341 35.9473 182.402 35.9756C182.535 36.0265 182.672 36.0659 182.812 36.0934C182.864 35.9582 182.892 35.8148 182.894 35.6699C182.849 35.5163 182.778 35.3715 182.684 35.2419Z" fill="#7E2A29"/>
<path d="M150.518 53.5289C150.296 52.2912 150.008 51.0654 149.747 49.8352C149.698 49.607 149.598 49.3878 149.324 49.4728C149.049 49.5578 149.105 49.7815 149.164 50.0022C149.715 52.1303 150.087 54.3006 150.277 56.4905C150.32 56.6495 150.388 56.8005 150.479 56.9379L150.742 56.9036C150.795 56.6329 150.823 56.3578 150.824 56.0819C150.745 55.2289 150.678 54.3715 150.518 53.5289Z" fill="#A77294"/>
<path d="M170.853 29.2114C170.769 29.277 170.686 29.3456 170.603 29.4127C169.459 30.3445 168.13 31.023 166.704 31.4035C166.343 31.5019 165.972 31.5675 165.62 31.6868C165.502 31.7271 165.344 31.8971 165.353 31.9851C165.362 32.073 165.544 32.1819 165.627 32.2565C165.873 32.2192 166.061 32.2028 166.243 32.1595C168.092 31.7122 169.777 30.9427 171.23 29.6975C171.427 29.5275 171.752 29.3426 171.528 29.0593C171.304 28.776 171.06 29.0489 170.853 29.2114Z" fill="#A2552E"/>
<path d="M163.51 14.7048C163.73 14.799 163.968 14.8472 164.208 14.8464C164.527 14.8747 164.849 14.8688 165.169 14.8762V14.8986C165.408 14.9225 165.657 14.9985 165.885 14.9583C166.112 14.9279 166.319 14.8141 166.467 14.6391C166.635 14.3737 166.444 14.1247 166.206 13.9666C165.686 13.6262 165.075 13.4534 164.454 13.4715C164.134 13.4756 163.817 13.5197 163.508 13.6027C163.234 13.6788 163.013 13.901 163.085 14.1992C163.159 14.4147 163.31 14.595 163.51 14.7048Z" fill="#4D1B1A"/>
<path d="M154.631 9.75095L154.45 9.35278C154.301 9.43629 154.163 9.51832 154.021 9.60332C154.002 9.61525 153.993 9.64954 153.984 9.67489C153.46 11.2601 153.298 12.8527 153.896 14.4587C153.921 14.5618 153.972 14.6568 154.045 14.7346C154.09 14.7756 154.143 14.8069 154.201 14.8267C154.258 14.8464 154.319 14.8542 154.38 14.8494C154.431 14.817 154.472 14.773 154.502 14.7211C154.532 14.6692 154.549 14.611 154.552 14.5512C154.552 14.4021 154.443 14.2529 154.419 14.0949C154.321 13.4671 154.151 12.8333 154.169 12.207C154.192 11.3898 154.37 10.5771 154.48 9.76138L154.631 9.75095Z" fill="#7E2A29"/>
<path d="M67.4555 13.8654C68.2608 13.7654 68.9811 13.7058 69.6789 13.5671C69.7898 13.5328 69.891 13.4726 69.974 13.3914C70.0569 13.3102 70.1194 13.2105 70.1561 13.1004C70.1845 12.9811 69.9205 12.7096 69.7386 12.6634C68.8856 12.4532 68.0341 12.4487 67.2587 12.8633C67.0052 12.999 66.7457 13.2018 66.9097 13.4791C67.0097 13.6536 67.2855 13.752 67.4555 13.8654Z" fill="#7E2A29"/>
<path d="M161.095 21.5361C160.635 21.0514 160.611 20.8262 160.985 20.2745C161.104 20.097 161.249 19.9345 161.356 19.7511C161.845 18.9115 161.707 17.638 161.046 17.0132C160.691 17.2011 160.791 17.4397 160.866 17.6693C161.14 18.5178 161.043 19.2664 160.45 19.9926C159.88 20.689 159.993 21.3974 160.66 21.9745C160.854 22.1415 161.089 22.5218 161.386 22.1654C161.64 21.8597 161.265 21.715 161.095 21.5361Z" fill="#A2552E"/>
<path d="M74.1018 18.1927C73.4546 17.6887 73.3487 17.0743 73.4054 16.3496C73.4292 16.1117 73.4337 15.8723 73.4188 15.6338C73.4002 15.5763 73.3671 15.5245 73.3227 15.4835C73.2783 15.4425 73.2241 15.4136 73.1653 15.3997C73.105 15.4082 73.0479 15.432 72.9994 15.4688C72.9508 15.5056 72.9125 15.5542 72.888 15.6099C72.8373 16.0573 72.8149 16.5047 72.803 16.9654C72.7908 17.2461 72.8442 17.5258 72.9589 17.7823C73.0735 18.0388 73.2463 18.2651 73.4636 18.4432C74.0436 18.9532 74.0377 19.0755 73.6783 19.8137C73.6142 19.9479 73.6589 20.1343 73.6544 20.2968C73.8379 20.2417 74.0779 20.2431 74.1928 20.1223C74.7058 19.587 74.7058 18.6639 74.1018 18.1927Z" fill="#DF7059"/>
<path d="M59.8338 15.9023C60.8016 14.6437 61.5711 13.2748 61.9797 11.7269C62.0229 11.5673 61.8783 11.3585 61.8216 11.1721C61.6814 11.2989 61.4563 11.4003 61.413 11.5554C61.0208 12.9362 60.3378 14.1635 59.5072 15.3207C59.391 15.5107 59.2912 15.7102 59.209 15.9172C59.2671 15.9783 59.3268 16.0395 59.3849 16.1021C59.54 16.0454 59.7443 16.0171 59.8338 15.9023Z" fill="#4D1B1A"/>
<path d="M159.115 13.8607C158.511 13.5625 157.251 13.8369 156.784 14.3186C156.547 14.5646 156.364 14.9046 156.765 15.1462C156.963 15.2607 157.194 15.3049 157.421 15.2714C157.96 15.1897 158.493 15.0711 159.016 14.9165C159.078 14.8969 159.137 14.8693 159.191 14.8345C159.259 14.7905 159.316 14.732 159.359 14.6633C159.401 14.5945 159.428 14.5172 159.438 14.4368C159.447 14.3565 159.438 14.275 159.412 14.1984C159.387 14.1217 159.344 14.0518 159.288 13.9935C159.238 13.9399 159.18 13.895 159.115 13.8607Z" fill="#4D1B1A"/>
<path d="M69.3717 15.5995C69.2437 15.594 69.1158 15.6146 68.9959 15.6601C68.8761 15.7055 68.7667 15.7748 68.6743 15.8637C68.582 15.9527 68.5088 16.0595 68.459 16.1776C68.4091 16.2957 68.3838 16.4227 68.3845 16.5509C68.3817 16.6616 68.4012 16.7717 68.4417 16.8747C68.4822 16.9777 68.543 17.0716 68.6205 17.1507C68.6979 17.2298 68.7905 17.2926 68.8926 17.3353C68.9948 17.378 69.1044 17.3998 69.2152 17.3994C69.4734 17.3836 69.7161 17.2705 69.8943 17.0828C70.0725 16.8952 70.173 16.6471 70.1755 16.3884C70.1815 15.947 69.8534 15.6233 69.3717 15.5995Z" fill="#2B1428"/>
<path d="M76.3493 15.8516C76.2212 15.8465 76.0934 15.8675 75.9736 15.9131C75.8539 15.9588 75.7446 16.0283 75.6523 16.1173C75.5601 16.2063 75.4868 16.3131 75.4369 16.4312C75.3871 16.5493 75.3616 16.6763 75.3621 16.8045C75.3591 16.9151 75.3784 17.0253 75.4189 17.1283C75.4594 17.2314 75.5202 17.3252 75.5977 17.4042C75.6752 17.4833 75.7678 17.5459 75.8701 17.5884C75.9723 17.6309 76.082 17.6523 76.1927 17.6515C76.451 17.6356 76.6937 17.5225 76.8719 17.3349C77.0501 17.1473 77.1505 16.8992 77.1531 16.6404C77.1605 16.199 76.8295 15.8754 76.3493 15.8516Z" fill="#2B1428"/>
<path d="M135.873 51.6587C135.838 50.333 135.467 48.9939 134.951 47.6906C134.897 47.5579 134.663 47.3834 134.556 47.4087C134.283 47.4729 134.331 47.707 134.407 47.9292C134.875 49.2489 135.261 50.585 135.278 52.0032C135.278 52.124 135.437 52.2418 135.524 52.3626C135.641 52.2439 135.75 52.1179 135.85 51.9853C135.894 51.9286 135.867 51.8287 135.873 51.6587Z" fill="#A77294"/>
<path d="M77.4467 13.2301C76.8204 12.8365 76.1046 12.7336 75.3754 12.747C75.0623 12.747 74.7938 12.8961 74.7536 13.251C74.7088 13.6551 74.9832 13.8371 75.3098 13.9131C75.6253 13.97 75.9441 14.0073 76.2642 14.0249V14.0384C76.5624 14.0697 76.8487 14.104 77.141 14.1308C77.4333 14.1577 77.7375 14.1219 77.7673 13.7998C77.76 13.6869 77.7274 13.577 77.6719 13.4784C77.6164 13.3798 77.5395 13.295 77.4467 13.2301Z" fill="#7E2A29"/>
<path d="M58.295 22.7739C58.1459 22.9167 58.0119 23.0747 57.8954 23.2452C57.4489 24.042 57.186 24.9285 57.1259 25.8399C57.1059 26.1329 57.132 26.4273 57.2035 26.7122C57.2378 26.8375 57.4585 26.9106 57.5956 27.0105C57.6777 26.8901 57.7383 26.7564 57.7746 26.6153C57.7985 26.2186 57.712 25.8041 57.7985 25.4223C57.9637 24.8044 58.1628 24.1961 58.3949 23.6001C58.4725 23.3585 58.7081 23.1363 58.295 22.7739Z" fill="#4D1B1A"/>
<path d="M123.047 27.3669C121.988 27.9425 120.932 28.524 119.887 29.122C119.778 29.1861 119.738 29.3725 119.668 29.5023C119.827 29.5575 120.036 29.7081 120.134 29.6514C121.196 29.0803 122.243 28.4823 123.281 27.8724C123.382 27.8112 123.4 27.6099 123.499 27.3743C123.25 27.3683 123.124 27.3251 123.047 27.3669Z" fill="#A77294"/>
<path d="M175.73 18.3314C174.953 18.7519 174.806 19.4081 175.283 20.4191C175.197 20.5093 175.127 20.6138 175.077 20.7278C175.057 20.8693 175.057 21.0129 175.077 21.1543C175.243 21.1245 175.451 21.1543 175.565 21.0559C175.936 20.7487 175.976 20.3938 175.759 19.9077C175.49 19.3112 175.593 19.0651 176.206 18.8235C176.325 18.7758 176.442 18.7221 176.632 18.6401C176.327 18.1391 176.169 18.0973 175.73 18.3314Z" fill="#A2552E"/>
<path d="M59.8861 19.0742C59.7847 18.4911 58.708 18.2301 58.292 18.6745C58.1906 18.7834 58.207 19.0011 58.1682 19.1696C58.3114 19.1903 58.456 19.1993 58.6007 19.1964C58.732 19.175 58.8613 19.1421 58.9869 19.098C58.972 19.4977 58.9079 19.8108 58.966 20.1001C59.0182 20.3506 59.221 20.6519 59.5297 20.5311C59.9264 20.382 59.6565 20.1046 59.5476 19.8779C59.5282 19.8377 59.5476 19.778 59.5476 19.7288C59.7131 19.529 59.9219 19.2799 59.8861 19.0742Z" fill="#DF7059"/>
<path d="M165.274 17.0149C164.647 16.9955 164.23 17.3817 164.219 18.0035C164.205 18.5627 164.579 18.9892 165.101 19.0101C165.623 19.031 166.046 18.5926 166.075 17.9961C166.103 17.4339 165.772 17.0298 165.274 17.0149Z" fill="#2B1428"/>
<path d="M158.259 17.1787C157.634 17.1593 157.224 17.5455 157.206 18.1674C157.191 18.7266 157.566 19.1531 158.088 19.1739C158.609 19.1948 159.033 18.7564 159.061 18.1599C159.09 17.5977 158.759 17.1936 158.259 17.1787Z" fill="#2B1428"/>
<path d="M166.358 24.5485C166.529 24.0758 166.556 23.5926 166.176 23.1989C165.796 22.8053 165.342 22.8515 164.914 23.0603C164.013 23.5224 163.05 23.8557 162.056 24.0504C161.4 24.1668 161.259 24.5932 161.608 25.1882C161.794 25.5308 162.067 25.819 162.398 26.0245C162.729 26.23 163.108 26.3458 163.498 26.3603C164.758 26.3872 165.99 25.5685 166.358 24.5485Z" fill="white"/>
<path d="M119.707 3.00468C119.64 2.97583 119.568 2.96094 119.496 2.96094C119.423 2.96094 119.351 2.97583 119.284 3.00468C119.116 3.13593 118.981 3.30504 118.891 3.49827C118.653 3.97587 118.448 4.46912 118.276 4.97458C117.667 6.93852 117.083 8.9114 116.487 10.8798C116.412 11.1259 116.357 11.351 116.679 11.4853C117.104 11.3883 117.118 10.9827 117.213 10.677C117.553 9.58096 117.832 8.46403 118.18 7.36947C118.615 6.00351 118.837 4.55255 119.712 3.34317C119.736 3.28973 119.748 3.23174 119.747 3.17326C119.746 3.11479 119.732 3.05726 119.707 3.00468Z" fill="#DF7059"/>
<path d="M117.942 2.69148C117.906 2.55131 117.863 2.41114 117.823 2.27246C117.687 2.32018 117.495 2.32764 117.428 2.42158C117.277 2.64338 117.159 2.88603 117.079 3.14184C116.391 5.25788 115.716 7.3769 115.037 9.49444C115.012 9.57049 115 9.64356 114.954 9.85084C114.996 9.91497 115.085 10.0492 115.173 10.1849C115.3 10.0745 115.436 9.97163 115.55 9.85084C115.596 9.78432 115.626 9.70919 115.641 9.63015C116.399 7.3436 117.156 5.05706 117.912 2.77052C117.92 2.73921 117.948 2.71236 117.942 2.69148Z" fill="#DF7059"/>
<path d="M70.6976 28.7894C68.3982 28.4912 66.4909 27.4369 64.9385 25.7265C64.8447 25.5964 64.7339 25.4795 64.609 25.379C64.5553 25.351 64.4957 25.3364 64.4352 25.3364C64.3748 25.3364 64.3152 25.351 64.2615 25.379C64.2221 25.4251 64.1949 25.4805 64.1827 25.54C64.1704 25.5994 64.1734 25.661 64.1914 25.719C64.2908 25.9086 64.4163 26.0832 64.5642 26.2379C65.7274 27.5606 67.1962 28.4181 68.8381 28.9922C69.366 29.1771 69.9207 29.28 70.4635 29.4202C70.4635 29.4008 70.4739 29.3814 70.4784 29.3621C70.61 29.3866 70.745 29.3866 70.8766 29.3621C71.0197 29.2836 71.152 29.1868 71.2703 29.0742C71.1657 28.9751 71.0535 28.8844 70.9347 28.8028C70.8736 28.773 70.7767 28.7998 70.6976 28.7894Z" fill="#DF7059"/>
<path d="M67.9149 60.3527C67.9971 60.328 68.0755 60.2919 68.1475 60.2453C68.2683 60.129 68.3772 59.9977 68.4905 59.8725C68.3555 59.7637 68.2046 59.6762 68.0432 59.613C67.813 59.5814 67.5805 59.5694 67.3482 59.5772C66.9441 59.103 66.5743 58.6467 66.1732 58.2187C66.1046 58.1456 65.8868 58.165 65.7661 58.2187C65.7169 58.2381 65.7079 58.4588 65.7437 58.5662C65.8049 58.6853 65.8838 58.7944 65.9778 58.8898L67.9432 61.5292C68.024 61.6647 68.1245 61.7873 68.2415 61.8931C68.3295 61.9542 68.5517 61.9781 68.586 61.9289C68.6273 61.8723 68.6554 61.8071 68.6681 61.7382C68.6807 61.6692 68.6776 61.5983 68.659 61.5307C68.4518 61.1281 68.1878 60.7598 67.9149 60.3527Z" fill="#DF7059"/>
<path d="M65.0652 60.3528C65.0072 60.2324 64.9255 60.1249 64.8251 60.0366C64.7819 60.0104 64.7331 59.9944 64.6827 59.99C64.6323 59.9856 64.5815 59.9929 64.5344 60.0113C64.4936 60.0403 64.4601 60.0785 64.4368 60.1228C64.4135 60.1671 64.4009 60.2162 64.4001 60.2663C64.418 60.3986 64.4638 60.5257 64.5344 60.6391C65.1835 61.8112 65.8342 62.9813 66.4864 64.1494C66.6027 64.3582 66.7458 64.4939 67.1485 64.3135C67.0912 64.084 67.0138 63.8599 66.9173 63.6439C66.3104 62.5419 65.6871 61.4488 65.0652 60.3528Z" fill="#DF7059"/>
<path d="M65.2425 65.2111C64.6729 64.1851 64.1047 63.1606 63.5261 62.1406C63.4164 61.9981 63.2914 61.8681 63.1533 61.7529C63.0489 61.9199 62.9058 62.0512 62.9222 62.1481C62.9705 62.3538 63.0521 62.5503 63.1638 62.7297C63.6932 63.7154 64.2345 64.6936 64.7609 65.6793C64.8772 65.8955 64.8608 66.2997 65.2455 66.1356C65.5617 66.0014 65.4051 65.6883 65.332 65.4318C65.3106 65.3551 65.2806 65.281 65.2425 65.2111Z" fill="#DF7059"/>
<path d="M61.6174 65.0068C61.6034 64.9481 61.5954 64.8881 61.5935 64.8278C61.5935 64.5877 61.6502 64.2805 61.2953 64.3029C61.1819 64.3029 61.0492 64.6011 60.9881 64.7801C60.8136 65.311 60.6541 65.8478 60.5243 66.3906C60.4853 66.5963 60.4981 66.8085 60.5616 67.008C60.5855 67.0915 60.7689 67.1571 60.8837 67.172C60.9463 67.172 61.0835 67.0229 61.0761 66.9558C61.0105 66.3593 61.4489 66.1118 61.8217 65.8195C62.0066 65.6704 62.3093 65.5615 62.1647 65.2767C62.099 65.1395 61.8351 65.1052 61.6174 65.0068Z" fill="#DF7059"/>
</svg>
