<svg width="342" height="288" viewBox="0 0 342 288" fill="none" xmlns="http://www.w3.org/2000/svg">
<path d="M249.952 149H90.0481C89.4693 149 89 149.45 89 150.006V154.994C89 155.55 89.4693 156 90.0481 156H249.952C250.531 156 251 155.55 251 154.994V150.006C251 149.45 250.531 149 249.952 149Z" fill="#00A64F"/>
<path d="M231.014 102.586L179.694 180.122C179.373 180.607 179.507 181.261 179.993 181.582L184.355 184.469C184.841 184.791 185.495 184.659 185.815 184.174L237.135 106.638C237.456 106.153 237.323 105.5 236.837 105.178L232.475 102.291C231.989 101.969 231.335 102.102 231.014 102.586Z" fill="#76C893"/>
<path d="M107.702 102.879L159.022 180.415C159.343 180.9 159.209 181.554 158.723 181.875L154.361 184.762C153.875 185.084 153.221 184.952 152.9 184.467L101.58 106.931C101.26 106.446 101.393 105.793 101.879 105.471L106.241 102.584C106.727 102.262 107.381 102.395 107.702 102.879Z" fill="#76C893"/>
<path d="M224.901 231.139H114.896C113.809 231.139 112.756 230.765 111.912 230.078C111.068 229.392 110.486 228.436 110.262 227.37L95.2686 155.961H244.528L229.535 227.37C229.311 228.436 228.728 229.392 227.884 230.078C227.041 230.765 225.987 231.139 224.901 231.139Z" fill="#76C893"/>
<path d="M140.118 231.137H122.102C121.812 231.137 121.576 231.373 121.576 231.664V237.064C121.576 237.355 121.812 237.591 122.102 237.591H140.118C140.408 237.591 140.644 237.355 140.644 237.064V231.664C140.644 231.373 140.408 231.137 140.118 231.137Z" fill="#00A64F"/>
<path d="M217.695 231.137H199.679C199.389 231.137 199.153 231.373 199.153 231.664V237.064C199.153 237.355 199.389 237.591 199.679 237.591H217.695C217.986 237.591 218.221 237.355 218.221 237.064V231.664C218.221 231.373 217.986 231.137 217.695 231.137Z" fill="#00A64F"/>
<path d="M172.316 168.617H168.675C168.094 168.617 167.623 169.089 167.623 169.672V217.428C167.623 218.011 168.094 218.483 168.675 218.483H172.316C172.898 218.483 173.369 218.011 173.369 217.428V169.672C173.369 169.089 172.898 168.617 172.316 168.617Z" fill="#00A64F"/>
<path d="M196.293 169.233L192.7 168.646C192.126 168.552 191.585 168.943 191.492 169.518L183.829 216.652C183.736 217.227 184.125 217.769 184.699 217.863L188.292 218.45C188.866 218.543 189.407 218.153 189.5 217.578L197.163 170.444C197.256 169.869 196.867 169.327 196.293 169.233Z" fill="#00A64F"/>
<path d="M217.556 169.573L213.998 168.798C213.43 168.674 212.87 169.036 212.746 169.605L202.632 216.273C202.508 216.842 202.869 217.404 203.436 217.527L206.994 218.302C207.562 218.426 208.123 218.064 208.246 217.495L218.361 170.827C218.484 170.258 218.124 169.696 217.556 169.573Z" fill="#00A64F"/>
<path d="M148.891 218.452L152.485 217.865C153.058 217.771 153.448 217.229 153.354 216.654L145.692 169.52C145.598 168.945 145.058 168.555 144.484 168.648L140.89 169.235C140.317 169.329 139.928 169.871 140.021 170.446L147.683 217.58C147.777 218.155 148.318 218.545 148.891 218.452Z" fill="#00A64F"/>
<path d="M130.189 218.299L133.747 217.525C134.315 217.401 134.675 216.839 134.552 216.27L124.437 169.602C124.314 169.033 123.753 168.672 123.185 168.796L119.627 169.57C119.06 169.694 118.699 170.256 118.823 170.825L128.937 217.493C129.061 218.062 129.621 218.423 130.189 218.299Z" fill="#00A64F"/>
<path d="M236.03 226.02H253.027" stroke="#C8E4D2" stroke-width="3" stroke-miterlimit="10" stroke-linecap="round"/>
<path d="M236.03 230.93H253.027" stroke="#C8E4D2" stroke-width="3" stroke-miterlimit="10" stroke-linecap="round"/>
<path d="M236.03 235.84H253.027" stroke="#C8E4D2" stroke-width="3" stroke-miterlimit="10" stroke-linecap="round"/>
<path d="M75.7814 127.514C80.5551 127.514 84.425 123.635 84.425 118.851C84.425 114.066 80.5551 110.188 75.7814 110.188C71.0076 110.188 67.1377 114.066 67.1377 118.851C67.1377 123.635 71.0076 127.514 75.7814 127.514Z" fill="#C8E4D2"/>
<path d="M76.1312 105.697C78.6178 105.697 80.6335 103.677 80.6335 101.184C80.6335 98.6922 78.6178 96.6719 76.1312 96.6719C73.6447 96.6719 71.6289 98.6922 71.6289 101.184C71.6289 103.677 73.6447 105.697 76.1312 105.697Z" fill="#C8E4D2"/>
<path d="M289.314 191.783C294.087 191.783 297.957 187.905 297.957 183.12C297.957 178.336 294.087 174.457 289.314 174.457C284.54 174.457 280.67 178.336 280.67 183.12C280.67 187.905 284.54 191.783 289.314 191.783Z" fill="#C8E4D2"/>
<path d="M272.167 195.69C274.319 195.69 276.064 193.941 276.064 191.784C276.064 189.627 274.319 187.879 272.167 187.879C270.015 187.879 268.271 189.627 268.271 191.784C268.271 193.941 270.015 195.69 272.167 195.69Z" fill="#C8E4D2"/>
<path d="M267.39 183.121C270.829 183.121 273.616 180.327 273.616 176.881C273.616 173.434 270.829 170.641 267.39 170.641C263.952 170.641 261.164 173.434 261.164 176.881C261.164 180.327 263.952 183.121 267.39 183.121Z" fill="#C8E4D2"/>
<path d="M132.5 283H131.408L127.016 276.34V283H125.924V274.624H127.016L131.408 281.272V274.624H132.5V283ZM137.469 283.108C136.853 283.108 136.293 282.968 135.789 282.688C135.293 282.408 134.901 282.012 134.613 281.5C134.333 280.98 134.193 280.38 134.193 279.7C134.193 279.028 134.337 278.436 134.625 277.924C134.921 277.404 135.321 277.008 135.825 276.736C136.329 276.456 136.893 276.316 137.518 276.316C138.142 276.316 138.706 276.456 139.21 276.736C139.714 277.008 140.11 277.4 140.397 277.912C140.693 278.424 140.841 279.02 140.841 279.7C140.841 280.38 140.689 280.98 140.385 281.5C140.089 282.012 139.686 282.408 139.174 282.688C138.662 282.968 138.094 283.108 137.469 283.108ZM137.469 282.148C137.861 282.148 138.229 282.056 138.574 281.872C138.918 281.688 139.194 281.412 139.402 281.044C139.617 280.676 139.725 280.228 139.725 279.7C139.725 279.172 139.621 278.724 139.413 278.356C139.206 277.988 138.934 277.716 138.598 277.54C138.262 277.356 137.898 277.264 137.505 277.264C137.105 277.264 136.738 277.356 136.401 277.54C136.073 277.716 135.809 277.988 135.609 278.356C135.409 278.724 135.309 279.172 135.309 279.7C135.309 280.236 135.405 280.688 135.597 281.056C135.797 281.424 136.061 281.7 136.389 281.884C136.717 282.06 137.077 282.148 137.469 282.148ZM148.56 274.636C149.472 274.636 150.26 274.808 150.924 275.152C151.596 275.488 152.108 275.972 152.46 276.604C152.82 277.236 153 277.98 153 278.836C153 279.692 152.82 280.436 152.46 281.068C152.108 281.692 151.596 282.172 150.924 282.508C150.26 282.836 149.472 283 148.56 283H145.956V274.636H148.56ZM148.56 282.1C149.64 282.1 150.464 281.816 151.032 281.248C151.6 280.672 151.884 279.868 151.884 278.836C151.884 277.796 151.596 276.984 151.02 276.4C150.452 275.816 149.632 275.524 148.56 275.524H147.048V282.1H148.56ZM154.273 279.688C154.273 279.016 154.409 278.428 154.681 277.924C154.953 277.412 155.325 277.016 155.797 276.736C156.277 276.456 156.809 276.316 157.393 276.316C157.969 276.316 158.469 276.44 158.893 276.688C159.317 276.936 159.633 277.248 159.841 277.624V276.424H160.945V283H159.841V281.776C159.625 282.16 159.301 282.48 158.869 282.736C158.445 282.984 157.949 283.108 157.381 283.108C156.797 283.108 156.269 282.964 155.797 282.676C155.325 282.388 154.953 281.984 154.681 281.464C154.409 280.944 154.273 280.352 154.273 279.688ZM159.841 279.7C159.841 279.204 159.741 278.772 159.541 278.404C159.341 278.036 159.069 277.756 158.725 277.564C158.389 277.364 158.017 277.264 157.609 277.264C157.201 277.264 156.829 277.36 156.493 277.552C156.157 277.744 155.889 278.024 155.689 278.392C155.489 278.76 155.389 279.192 155.389 279.688C155.389 280.192 155.489 280.632 155.689 281.008C155.889 281.376 156.157 281.66 156.493 281.86C156.829 282.052 157.201 282.148 157.609 282.148C158.017 282.148 158.389 282.052 158.725 281.86C159.069 281.66 159.341 281.376 159.541 281.008C159.741 280.632 159.841 280.196 159.841 279.7ZM164.362 277.324V281.2C164.362 281.52 164.43 281.748 164.566 281.884C164.702 282.012 164.938 282.076 165.274 282.076H166.078V283H165.094C164.486 283 164.03 282.86 163.726 282.58C163.422 282.3 163.27 281.84 163.27 281.2V277.324H162.418V276.424H163.27V274.768H164.362V276.424H166.078V277.324H164.362ZM167.233 279.688C167.233 279.016 167.369 278.428 167.641 277.924C167.913 277.412 168.285 277.016 168.757 276.736C169.237 276.456 169.769 276.316 170.353 276.316C170.929 276.316 171.429 276.44 171.853 276.688C172.277 276.936 172.593 277.248 172.801 277.624V276.424H173.905V283H172.801V281.776C172.585 282.16 172.261 282.48 171.829 282.736C171.405 282.984 170.909 283.108 170.341 283.108C169.757 283.108 169.229 282.964 168.757 282.676C168.285 282.388 167.913 281.984 167.641 281.464C167.369 280.944 167.233 280.352 167.233 279.688ZM172.801 279.7C172.801 279.204 172.701 278.772 172.501 278.404C172.301 278.036 172.029 277.756 171.685 277.564C171.349 277.364 170.977 277.264 170.569 277.264C170.161 277.264 169.789 277.36 169.453 277.552C169.117 277.744 168.849 278.024 168.649 278.392C168.449 278.76 168.349 279.192 168.349 279.688C168.349 280.192 168.449 280.632 168.649 281.008C168.849 281.376 169.117 281.66 169.453 281.86C169.789 282.052 170.161 282.148 170.569 282.148C170.977 282.148 171.349 282.052 171.685 281.86C172.029 281.66 172.301 281.376 172.501 281.008C172.701 280.632 172.801 280.196 172.801 279.7ZM182.106 277.324H180.726V283H179.634V277.324H178.782V276.424H179.634V275.956C179.634 275.22 179.822 274.684 180.198 274.348C180.582 274.004 181.194 273.832 182.034 273.832V274.744C181.554 274.744 181.214 274.84 181.014 275.032C180.822 275.216 180.726 275.524 180.726 275.956V276.424H182.106V277.324ZM186.487 283.108C185.871 283.108 185.311 282.968 184.807 282.688C184.311 282.408 183.919 282.012 183.631 281.5C183.351 280.98 183.211 280.38 183.211 279.7C183.211 279.028 183.355 278.436 183.643 277.924C183.939 277.404 184.339 277.008 184.843 276.736C185.347 276.456 185.911 276.316 186.535 276.316C187.159 276.316 187.723 276.456 188.227 276.736C188.731 277.008 189.127 277.4 189.415 277.912C189.711 278.424 189.859 279.02 189.859 279.7C189.859 280.38 189.707 280.98 189.403 281.5C189.107 282.012 188.703 282.408 188.191 282.688C187.679 282.968 187.111 283.108 186.487 283.108ZM186.487 282.148C186.879 282.148 187.247 282.056 187.591 281.872C187.935 281.688 188.211 281.412 188.419 281.044C188.635 280.676 188.743 280.228 188.743 279.7C188.743 279.172 188.639 278.724 188.431 278.356C188.223 277.988 187.951 277.716 187.615 277.54C187.279 277.356 186.915 277.264 186.523 277.264C186.123 277.264 185.755 277.356 185.419 277.54C185.091 277.716 184.827 277.988 184.627 278.356C184.427 278.724 184.327 279.172 184.327 279.7C184.327 280.236 184.423 280.688 184.615 281.056C184.815 281.424 185.079 281.7 185.407 281.884C185.735 282.06 186.095 282.148 186.487 282.148ZM197.367 276.424V283H196.275V282.028C196.067 282.364 195.775 282.628 195.399 282.82C195.031 283.004 194.623 283.096 194.175 283.096C193.663 283.096 193.203 282.992 192.795 282.784C192.387 282.568 192.063 282.248 191.823 281.824C191.591 281.4 191.475 280.884 191.475 280.276V276.424H192.555V280.132C192.555 280.78 192.719 281.28 193.047 281.632C193.375 281.976 193.823 282.148 194.391 282.148C194.975 282.148 195.435 281.968 195.771 281.608C196.107 281.248 196.275 280.724 196.275 280.036V276.424H197.367ZM202.655 276.304C203.455 276.304 204.103 276.548 204.599 277.036C205.095 277.516 205.343 278.212 205.343 279.124V283H204.263V279.28C204.263 278.624 204.099 278.124 203.771 277.78C203.443 277.428 202.995 277.252 202.427 277.252C201.851 277.252 201.391 277.432 201.047 277.792C200.711 278.152 200.543 278.676 200.543 279.364V283H199.451V276.424H200.543V277.36C200.759 277.024 201.051 276.764 201.419 276.58C201.795 276.396 202.207 276.304 202.655 276.304ZM206.958 279.688C206.958 279.016 207.094 278.428 207.366 277.924C207.638 277.412 208.01 277.016 208.482 276.736C208.962 276.456 209.498 276.316 210.09 276.316C210.602 276.316 211.078 276.436 211.518 276.676C211.958 276.908 212.294 277.216 212.526 277.6V274.12H213.63V283H212.526V281.764C212.31 282.156 211.99 282.48 211.566 282.736C211.142 282.984 210.646 283.108 210.078 283.108C209.494 283.108 208.962 282.964 208.482 282.676C208.01 282.388 207.638 281.984 207.366 281.464C207.094 280.944 206.958 280.352 206.958 279.688ZM212.526 279.7C212.526 279.204 212.426 278.772 212.226 278.404C212.026 278.036 211.754 277.756 211.41 277.564C211.074 277.364 210.702 277.264 210.294 277.264C209.886 277.264 209.514 277.36 209.178 277.552C208.842 277.744 208.574 278.024 208.374 278.392C208.174 278.76 208.074 279.192 208.074 279.688C208.074 280.192 208.174 280.632 208.374 281.008C208.574 281.376 208.842 281.66 209.178 281.86C209.514 282.052 209.886 282.148 210.294 282.148C210.702 282.148 211.074 282.052 211.41 281.86C211.754 281.66 212.026 281.376 212.226 281.008C212.426 280.632 212.526 280.196 212.526 279.7Z" fill="#999999"/>
</svg>
