<svg width="275" height="260" viewBox="0 0 275 260" fill="none" xmlns="http://www.w3.org/2000/svg">
<path fill-rule="evenodd" clip-rule="evenodd" d="M145.917 22.61C175.631 16.5378 191.574 57.2943 213.368 78.3883C235.828 100.127 267.781 115.073 273.247 145.851C279.39 180.441 269.444 219.912 242.507 242.458C216.702 264.056 179.546 251.294 145.917 252.426C110.118 253.631 71.2157 270.733 42.5997 249.186C12.1036 226.223 -9.71249 181.333 4.38172 145.851C18.036 111.477 73.4606 125.566 101.352 101.279C124.98 80.706 115.224 28.8822 145.917 22.61Z" fill="#D1F8E3"/>
<path d="M81 146.176L75.9018 207.649L75.1938 220.085C75.1135 221.49 74.9316 222.887 74.6496 224.266C72.982 232.431 71.2356 237.971 69.6469 237.999C65.6387 238.071 59.9341 230.917 55.659 225.074C53.9263 222.691 52.4376 220.528 51.384 219.159C47.7457 214.392 52.2936 171.551 53.5063 165.897C54.7191 160.244 55.5287 116.006 55.1163 113.828C54.704 111.65 58.3514 93 58.3514 93L63.6573 98.95L64.0075 99.3433L72.074 94.7847L75.7123 100.343C75.7123 100.343 79.0732 128.384 81 146.176Z" fill="#ECC538"/>
<path d="M204.995 224.667C205.088 228.121 203.82 231.472 201.464 233.996C199.108 236.521 195.855 238.015 192.406 238.157C156.278 239.662 72.7668 248.315 70.0305 238.062C66.8807 226.209 71.993 174.129 71.6032 167.408C71.2134 160.687 75.9522 100.963 75.9522 100.963L82.0517 102.481L83.8512 102.926L96.8773 97L108.328 103.33L123.321 97L134.771 103.721L146.223 98.9733L155.697 103.721L167.538 97L175.034 102.926L187.267 97L194.373 103.721L201.881 97L202.271 103.33C202.271 103.33 204.106 190.554 204.995 224.667Z" fill="#F7E057"/>
<path d="M219.911 255.76C219.889 258.03 217.95 259.87 215.567 259.874L158.116 260C155.723 260 153.74 258.168 153.679 255.889L151.002 148.602C150.983 148.001 151.085 147.402 151.302 146.842C151.52 146.282 151.848 145.771 152.267 145.341C152.686 144.912 153.187 144.571 153.741 144.341C154.295 144.11 154.889 143.994 155.489 144L216.472 144.292C217.073 144.295 217.667 144.418 218.221 144.652C218.774 144.887 219.276 145.229 219.697 145.659C220.118 146.089 220.45 146.599 220.673 147.158C220.897 147.717 221.008 148.315 221 148.918L219.911 255.76Z" fill="#00A64F"/>
<path d="M214 155.643C214.018 153.209 212.024 151.222 209.545 151.212L161.419 151C158.926 150.988 156.947 152.964 157.001 155.407L158.979 245.993C159.028 248.212 160.988 250.003 163.356 250L209.077 249.926C211.432 249.926 213.353 248.123 213.368 245.919L214 155.643Z" fill="#44B178"/>
<path d="M193 147.519C193.001 147.582 192.98 147.644 192.938 147.703C192.897 147.761 192.836 147.814 192.758 147.859C192.681 147.904 192.589 147.939 192.487 147.964C192.386 147.988 192.277 148 192.168 148L179.849 147.968C179.625 147.967 179.411 147.915 179.252 147.824C179.094 147.734 179.003 147.611 179 147.482C178.998 147.419 179.019 147.356 179.059 147.298C179.1 147.239 179.161 147.186 179.239 147.141C179.316 147.096 179.408 147.06 179.509 147.036C179.611 147.012 179.72 147 179.83 147L192.162 147.033C192.384 147.034 192.597 147.086 192.754 147.177C192.911 147.268 193 147.391 193 147.519Z" fill="url(#paint0_linear_530_959)"/>
<g opacity="0.8">
<path d="M202.103 206.906C202.004 206.795 201.881 206.709 201.744 206.653C201.606 206.598 201.458 206.575 201.31 206.586L172.916 207.182L172.198 204.903C172.148 204.749 172.049 204.615 171.917 204.523C171.784 204.43 171.624 204.384 171.462 204.391L167.565 204.494C167.468 204.491 167.371 204.508 167.281 204.542C167.19 204.577 167.108 204.629 167.037 204.696C166.967 204.763 166.911 204.843 166.872 204.932C166.833 205.021 166.812 205.116 166.811 205.213C166.811 205.63 167.15 205.904 167.565 205.894L170.895 205.815L176.928 225.078C176.98 225.237 177.08 225.377 177.216 225.476C177.351 225.575 177.515 225.629 177.682 225.63L197.613 225.898C198.081 225.898 198.461 225.61 198.461 225.168C198.461 224.726 198.081 224.423 197.613 224.414L178.265 224.206L176.711 219.204L197.978 219.236C198.187 219.237 198.39 219.171 198.559 219.049C198.728 218.927 198.854 218.754 198.919 218.556L202.275 207.707C202.316 207.569 202.322 207.424 202.292 207.284C202.262 207.144 202.197 207.014 202.103 206.906Z" fill="white"/>
<path d="M180.59 226.818C180.208 226.806 179.827 226.87 179.469 227.007C179.112 227.145 178.785 227.352 178.509 227.617C178.233 227.881 178.012 228.199 177.86 228.55C177.708 228.902 177.628 229.28 177.624 229.662C177.624 231.257 178.951 232.589 180.59 232.632C180.976 232.649 181.36 232.588 181.722 232.453C182.083 232.318 182.413 232.111 182.693 231.846C182.973 231.58 183.197 231.261 183.351 230.908C183.505 230.554 183.586 230.173 183.59 229.788C183.59 228.175 182.24 226.848 180.59 226.818ZM180.59 231.082C180.225 231.076 179.875 230.928 179.617 230.669C179.358 230.41 179.209 230.061 179.203 229.696C179.204 229.517 179.242 229.34 179.313 229.176C179.384 229.011 179.487 228.863 179.617 228.739C179.746 228.616 179.899 228.519 180.066 228.455C180.233 228.392 180.412 228.362 180.59 228.368C180.958 228.372 181.309 228.519 181.569 228.778C181.83 229.037 181.979 229.387 181.986 229.754C181.984 229.934 181.946 230.112 181.875 230.276C181.803 230.441 181.699 230.59 181.569 230.713C181.439 230.837 181.285 230.934 181.117 230.997C180.949 231.06 180.77 231.089 180.59 231.082Z" fill="white"/>
<path d="M193.875 227.026C192.154 226.999 190.762 228.306 190.762 229.938C190.762 231.57 192.154 232.937 193.875 232.982C195.596 233.027 197.025 231.721 197.025 230.07C197.025 228.418 195.608 227.053 193.875 227.026ZM193.875 231.4C193.496 231.398 193.132 231.249 192.86 230.984C192.588 230.719 192.43 230.359 192.418 229.979C192.423 229.794 192.465 229.611 192.541 229.442C192.617 229.273 192.726 229.121 192.862 228.994C192.997 228.868 193.157 228.77 193.331 228.706C193.505 228.642 193.69 228.613 193.875 228.622C194.257 228.621 194.623 228.77 194.896 229.035C195.17 229.3 195.33 229.661 195.342 230.042C195.336 230.228 195.294 230.411 195.217 230.58C195.14 230.749 195.03 230.901 194.893 231.027C194.756 231.153 194.596 231.25 194.421 231.313C194.247 231.376 194.061 231.404 193.875 231.394V231.4Z" fill="white"/>
</g>
<path opacity="0.77" d="M196.91 237H178.09C176.383 237 175 238.012 175 239.26V239.74C175 240.988 176.383 242 178.09 242H196.91C198.617 242 200 240.988 200 239.74V239.26C200 238.012 198.617 237 196.91 237Z" fill="white"/>
<path d="M214.379 70.3616C214.379 70.3616 210.076 52.5009 230.475 41.0666C250.874 29.6324 250.416 28.6007 251.53 34.6484C252.644 40.6962 258.799 62.1296 236.438 71.3384C214.077 80.5473 214.379 70.3616 214.379 70.3616Z" fill="#C28960"/>
<path d="M64.7643 39.3616C64.7643 39.3616 69.0669 21.5009 48.668 10.0666C28.2691 -1.36761 28.7274 -2.39934 27.6133 3.64844C26.4993 9.69621 20.3445 31.1296 42.7053 40.3384C65.0662 49.5473 64.7643 39.3616 64.7643 39.3616Z" fill="#C28960"/>
<path opacity="0.23" d="M247.85 35.3117C244.648 40.5253 229.789 64.0387 216.711 73.3353C216.711 73.3353 232.22 75.3357 243.347 64.9167C252.877 56.007 249.859 39.9216 248.783 35.4599C248.76 35.3613 248.708 35.2718 248.634 35.2029C248.559 35.1339 248.466 35.0886 248.366 35.0727C248.266 35.0568 248.164 35.0711 248.072 35.1136C247.98 35.1562 247.903 35.2252 247.85 35.3117Z" fill="white"/>
<path opacity="0.23" d="M31.2932 4.31172C34.4954 9.52532 49.3542 33.0387 62.4321 42.3353C62.4321 42.3353 46.923 44.3357 35.7961 33.9167C26.2662 25.007 29.2846 8.92163 30.3603 4.45989C30.3835 4.36128 30.4355 4.27182 30.5097 4.20287C30.5839 4.13393 30.677 4.08861 30.777 4.07272C30.8771 4.05683 30.9796 4.07108 31.0715 4.11364C31.1634 4.1562 31.2406 4.22515 31.2932 4.31172Z" fill="white"/>
<path d="M181.585 173.4C181.585 171.107 182.025 169.3 182.905 167.98C183.798 166.66 185.231 166 187.205 166C189.178 166 190.605 166.66 191.485 167.98C192.378 169.3 192.825 171.107 192.825 173.4C192.825 175.72 192.378 177.54 191.485 178.86C190.605 180.18 189.178 180.84 187.205 180.84C185.231 180.84 183.798 180.18 182.905 178.86C182.025 177.54 181.585 175.72 181.585 173.4ZM189.465 173.4C189.465 172.053 189.318 171.02 189.025 170.3C188.731 169.567 188.125 169.2 187.205 169.2C186.285 169.2 185.678 169.567 185.385 170.3C185.091 171.02 184.945 172.053 184.945 173.4C184.945 174.307 184.998 175.06 185.105 175.66C185.211 176.247 185.425 176.727 185.745 177.1C186.078 177.46 186.565 177.64 187.205 177.64C187.845 177.64 188.325 177.46 188.645 177.1C188.978 176.727 189.198 176.247 189.305 175.66C189.411 175.06 189.465 174.307 189.465 173.4Z" fill="#E1FFEB"/>
<path d="M174.02 189.74C173.72 189.74 173.473 189.653 173.28 189.48C173.093 189.3 173 189.08 173 188.82C173 188.553 173.093 188.333 173.28 188.16C173.473 187.98 173.72 187.89 174.02 187.89C174.313 187.89 174.553 187.98 174.74 188.16C174.933 188.333 175.03 188.553 175.03 188.82C175.03 189.08 174.933 189.3 174.74 189.48C174.553 189.653 174.313 189.74 174.02 189.74ZM174.87 190.32V195.9H173.16V190.32H174.87Z" fill="#E1FFEB"/>
<path d="M179.219 194.45V195.9H178.349C177.729 195.9 177.246 195.75 176.899 195.45C176.553 195.143 176.379 194.647 176.379 193.96V191.74H175.699V190.32H176.379V188.96H178.089V190.32H179.209V191.74H178.089V193.98C178.089 194.147 178.129 194.267 178.209 194.34C178.289 194.413 178.423 194.45 178.609 194.45H179.219Z" fill="#E1FFEB"/>
<path d="M185.432 193.02C185.432 193.18 185.422 193.347 185.402 193.52H181.532C181.558 193.867 181.668 194.133 181.862 194.32C182.062 194.5 182.305 194.59 182.592 194.59C183.018 194.59 183.315 194.41 183.482 194.05H185.302C185.208 194.417 185.038 194.747 184.792 195.04C184.552 195.333 184.248 195.563 183.882 195.73C183.515 195.897 183.105 195.98 182.652 195.98C182.105 195.98 181.618 195.863 181.192 195.63C180.765 195.397 180.432 195.063 180.192 194.63C179.952 194.197 179.832 193.69 179.832 193.11C179.832 192.53 179.948 192.023 180.182 191.59C180.422 191.157 180.755 190.823 181.182 190.59C181.608 190.357 182.098 190.24 182.652 190.24C183.192 190.24 183.672 190.353 184.092 190.58C184.512 190.807 184.838 191.13 185.072 191.55C185.312 191.97 185.432 192.46 185.432 193.02ZM183.682 192.57C183.682 192.277 183.582 192.043 183.382 191.87C183.182 191.697 182.932 191.61 182.632 191.61C182.345 191.61 182.102 191.693 181.902 191.86C181.708 192.027 181.588 192.263 181.542 192.57H183.682Z" fill="#E1FFEB"/>
<path d="M193.454 190.26C194.147 190.26 194.697 190.47 195.104 190.89C195.517 191.31 195.724 191.893 195.724 192.64V195.9H194.024V192.87C194.024 192.51 193.927 192.233 193.734 192.04C193.547 191.84 193.287 191.74 192.954 191.74C192.62 191.74 192.357 191.84 192.164 192.04C191.977 192.233 191.884 192.51 191.884 192.87V195.9H190.184V192.87C190.184 192.51 190.087 192.233 189.894 192.04C189.707 191.84 189.447 191.74 189.114 191.74C188.78 191.74 188.517 191.84 188.324 192.04C188.137 192.233 188.044 192.51 188.044 192.87V195.9H186.334V190.32H188.044V191.02C188.217 190.787 188.444 190.603 188.724 190.47C189.004 190.33 189.32 190.26 189.674 190.26C190.094 190.26 190.467 190.35 190.794 190.53C191.127 190.71 191.387 190.967 191.574 191.3C191.767 190.993 192.03 190.743 192.364 190.55C192.697 190.357 193.06 190.26 193.454 190.26Z" fill="#E1FFEB"/>
<path d="M199.19 195.98C198.703 195.98 198.27 195.897 197.89 195.73C197.51 195.563 197.21 195.337 196.99 195.05C196.77 194.757 196.646 194.43 196.62 194.07H198.31C198.33 194.263 198.42 194.42 198.58 194.54C198.74 194.66 198.936 194.72 199.17 194.72C199.383 194.72 199.546 194.68 199.66 194.6C199.78 194.513 199.84 194.403 199.84 194.27C199.84 194.11 199.756 193.993 199.59 193.92C199.423 193.84 199.153 193.753 198.78 193.66C198.38 193.567 198.046 193.47 197.78 193.37C197.513 193.263 197.283 193.1 197.09 192.88C196.896 192.653 196.8 192.35 196.8 191.97C196.8 191.65 196.886 191.36 197.06 191.1C197.24 190.833 197.5 190.623 197.84 190.47C198.186 190.317 198.596 190.24 199.07 190.24C199.77 190.24 200.32 190.413 200.72 190.76C201.126 191.107 201.36 191.567 201.42 192.14H199.84C199.813 191.947 199.726 191.793 199.58 191.68C199.44 191.567 199.253 191.51 199.02 191.51C198.82 191.51 198.666 191.55 198.56 191.63C198.453 191.703 198.4 191.807 198.4 191.94C198.4 192.1 198.483 192.22 198.65 192.3C198.823 192.38 199.09 192.46 199.45 192.54C199.863 192.647 200.2 192.753 200.46 192.86C200.72 192.96 200.946 193.127 201.14 193.36C201.34 193.587 201.443 193.893 201.45 194.28C201.45 194.607 201.356 194.9 201.17 195.16C200.99 195.413 200.726 195.613 200.38 195.76C200.04 195.907 199.643 195.98 199.19 195.98Z" fill="#E1FFEB"/>
<defs>
<linearGradient id="paint0_linear_530_959" x1="186.272" y1="138.013" x2="186.176" y2="148.088" gradientUnits="userSpaceOnUse">
<stop stop-color="#5C5E61"/>
<stop offset="1" stop-color="#5C5E61"/>
</linearGradient>
</defs>
</svg>
