<svg width="30" height="31" viewBox="0 0 30 31" fill="none" xmlns="http://www.w3.org/2000/svg">
<path d="M1.98875 11.7424C2.05926 11.7845 2.14666 11.7871 2.21971 11.7482C2.75983 11.46 3.11551 11.3996 3.31884 11.3996C3.77381 11.3996 3.98446 11.5047 4.20731 11.6159C4.42108 11.7223 4.66326 11.8431 5.07976 11.8431C5.91199 11.8431 6.44206 11.4712 6.46424 11.4554C6.52586 11.4115 6.56248 11.3405 6.56248 11.2647V9.17798C6.56248 9.09058 6.51346 9.01089 6.43592 8.97036C6.35877 8.93032 6.26472 8.93647 6.19285 8.98657C6.18845 8.9895 5.75477 9.28755 5.07977 9.28755C4.77352 9.28755 4.6161 9.20903 4.4165 9.10952C4.16698 8.98501 3.88407 8.84399 3.31875 8.84399C2.94522 8.84399 2.50117 8.97993 1.99902 9.24799C1.92265 9.28881 1.875 9.36821 1.875 9.45473V11.5415C1.875 11.6239 1.91826 11.7001 1.98877 11.7424L1.98875 11.7424ZM2.34373 9.59751C2.81473 9.36402 3.13153 9.31274 3.31873 9.31274C3.7737 9.31274 3.98435 9.41781 4.2072 9.52904C4.42097 9.63549 4.66315 9.75629 5.07965 9.75629C5.5063 9.75629 5.85348 9.65853 6.09363 9.56127V11.1314C5.92859 11.2188 5.56698 11.3743 5.07965 11.3743C4.7734 11.3743 4.61598 11.2957 4.41638 11.1962C4.16687 11.0717 3.88395 10.9307 3.31863 10.9307C3.03298 10.9307 2.70613 11.0101 2.34363 11.1673L2.34373 9.59751Z" fill="#00A64F"/>
<path d="M4.6875 10.3438C4.6875 10.6026 4.47764 10.8125 4.21875 10.8125C3.95986 10.8125 3.75 10.6026 3.75 10.3438C3.75 10.0849 3.95986 9.875 4.21875 9.875C4.47764 9.875 4.6875 10.0849 4.6875 10.3438Z" fill="#00A64F"/>
<path d="M10.4297 6.59372C11.6574 6.59372 12.6562 5.5949 12.6562 4.36718C12.6562 3.13945 11.6574 2.14062 10.4297 2.14062C9.20195 2.14062 8.20312 3.13945 8.20312 4.36718C8.20312 5.5949 9.20195 6.59372 10.4297 6.59372ZM10.4297 2.60923C11.399 2.60923 12.1875 3.3977 12.1875 4.36703C12.1875 5.33635 11.399 6.12483 10.4297 6.12483C9.46035 6.12483 8.67188 5.33635 8.67188 4.36703C8.67188 3.3977 9.46035 2.60923 10.4297 2.60923V2.60923Z" fill="#00A64F"/>
<path d="M9.86109 5.07558C9.91099 5.07558 9.96109 5.05976 10.0039 5.02705L10.6763 4.50957C10.7338 4.46533 10.7619 4.39961 10.7643 4.33232C10.7742 4.30654 10.781 4.2792 10.781 4.25V3.3125C10.781 3.18291 10.6762 3.07812 10.5466 3.07812C10.417 3.07812 10.3122 3.18291 10.3122 3.3125V4.19795L9.71782 4.65538C9.61528 4.73438 9.59624 4.88155 9.67505 4.98428C9.72124 5.04424 9.79087 5.07558 9.86109 5.07558L9.86109 5.07558Z" fill="#00A64F"/>
<path d="M23.9567 12.1599L24.8531 13.0563C24.8989 13.1021 24.9589 13.125 25.0188 13.125C25.0788 13.125 25.1388 13.1021 25.1846 13.0563L27.8293 10.4116C27.8545 10.3864 27.8735 10.3559 27.8852 10.3223L28.3411 9.00123C28.3699 8.91773 28.3493 8.82476 28.2876 8.76138C28.2258 8.698 28.1336 8.67466 28.0493 8.70123L26.6969 9.12583C26.6609 9.13706 26.6282 9.15698 26.6015 9.18374L23.9567 11.8285C23.865 11.92 23.865 12.0683 23.9566 12.1598L23.9567 12.1599ZM26.8921 9.55586L27.7466 9.28761L27.4597 10.1185L25.0189 12.5593L24.4538 11.9942L26.8921 9.55586Z" fill="#00A64F"/>
<path d="M13.8929 18.9616L12.9023 17.7551C12.7985 17.6287 12.6386 17.5639 12.4754 17.5764C11.5286 17.649 10.6459 18.0998 10.0312 18.8334L8.16985 21.055C7.9677 21.2963 7.58988 21.2737 7.4179 21.01L5.60278 18.2265L5.59936 18.2281L5.03353 17.2312C4.84349 16.8964 4.50121 16.6763 4.11771 16.6423L3.42873 16.5813C3.27736 16.5679 3.14191 16.4819 3.06526 16.3507L2.81994 15.9305C2.69084 15.7094 2.45812 15.5854 2.21847 15.5854C2.10568 15.5854 1.99142 15.6129 1.88567 15.6706C1.55012 15.8538 1.42522 16.2734 1.60607 16.6103L3.09337 19.3813L6.13312 25.0103C6.43165 25.5631 7.0093 25.9076 7.63762 25.9076C8.08537 25.9076 8.51534 25.7319 8.83499 25.4184L9.68012 24.5894C9.43979 23.0555 9.7682 21.8269 9.78363 21.7706C9.81801 21.6459 9.94662 21.5729 10.0715 21.607C10.1962 21.6413 10.2698 21.7701 10.2354 21.8949C10.2323 21.907 9.95865 22.9383 10.1071 24.2476C10.2127 24.58 10.7572 26.4136 10.5368 28.2883C10.5019 28.585 10.7256 28.8482 11.0243 28.8482L14.7653 28.8485V19.4748C14.437 19.4145 14.1252 19.2446 13.8927 18.9615L13.8929 18.9616ZM2.1104 16.0821C2.14429 16.0636 2.18071 16.0542 2.2186 16.0542C2.30054 16.0542 2.37407 16.0963 2.41528 16.1669L2.6606 16.5872C2.81353 16.8492 3.0853 17.0215 3.38755 17.0483L4.07652 17.1093C4.3066 17.1297 4.51197 17.2618 4.62595 17.4626L4.94645 18.0273L3.29917 18.7737L2.0192 16.3887C1.96041 16.2792 2.00132 16.1416 2.11041 16.0821L2.1104 16.0821Z" fill="#00A64F"/>
<path d="M19.2182 17.4517C19.9712 17.4517 20.1736 16.8454 20.2277 16.5437C20.2455 16.4447 20.2877 16.3498 20.3603 16.2802C20.8606 15.8007 20.6076 15.2581 20.4219 14.9869C20.3417 14.8699 20.3161 14.7241 20.3536 14.5873C20.5647 13.817 20.4906 13.0787 19.8492 12.7015C19.2825 12.3682 18.9963 11.7822 18.9061 11.5661C18.8967 11.543 18.8884 11.5195 18.8785 11.4965C18.8754 11.4881 18.8735 11.4825 18.8735 11.4825C18.8735 11.4825 18.8733 11.4837 18.873 11.485C18.2256 9.98684 16.7359 8.93774 14.9997 8.93774C13.4978 8.93774 12.1842 9.72582 11.4375 10.9083L11.4371 10.9078C11.4339 10.9133 11.4313 10.918 11.4282 10.9235C11.3434 11.0589 11.2642 11.1981 11.1949 11.3433C10.9986 11.7046 10.8388 11.9804 10.4723 12.2593L10.4726 12.2599C10.0743 12.5846 9.62382 13.1453 9.54872 14.054C9.53915 14.1701 9.48504 14.2764 9.39159 14.3459C9.04696 14.6021 8.24939 15.3336 8.70136 16.3554C8.73974 16.4423 8.75458 16.5363 8.73505 16.6293C8.6872 16.8582 8.67431 17.3363 9.29285 17.6085C9.82665 17.8433 10.4892 17.4711 10.744 17.3043C10.8136 17.2588 10.8943 17.2353 10.9774 17.2376C11.3117 17.2466 12.1798 17.3024 12.5197 16.564C13.2163 17.072 14.0716 17.3753 14.9997 17.3753C15.8719 17.3753 16.682 17.1104 17.3547 16.6571C17.7134 17.0989 18.351 17.4518 19.218 17.4518L19.2182 17.4517ZM11.3457 13.9867C14.1235 13.7967 15.332 12.555 15.8572 11.5091C16.2965 12.0775 17.1331 12.6591 18.7162 12.6789C18.7362 12.8357 18.7501 12.9942 18.7501 13.1563C18.7501 15.2241 17.0679 16.9063 15.0001 16.9063C13.2181 16.9063 11.7251 15.6556 11.3458 13.9865L11.3457 13.9867Z" fill="#00A64F"/>
<path d="M17.7437 6.71755C17.7862 6.7864 17.8618 6.8283 17.9429 6.8283H23.5484C23.6294 6.8283 23.7049 6.7864 23.7475 6.71755C23.7903 6.64841 23.7944 6.56238 23.7582 6.48982L22.9688 4.89987V2.14087C22.9688 2.01128 22.864 1.90649 22.7344 1.90649H18.7499C18.6203 1.90649 18.5155 2.01128 18.5155 2.14087V4.91337L17.7327 6.48992C17.6966 6.56248 17.7007 6.64851 17.7436 6.71765L17.7437 6.71755ZM18.9845 2.37505H22.5V4.7188H18.9845V2.37505ZM18.9027 5.18755H22.5885L23.1703 6.35943H18.3211L18.9027 5.18755Z" fill="#00A64F"/>
<path d="M21.7969 5.42212H19.6875C19.5579 5.42212 19.4531 5.5269 19.4531 5.65649C19.4531 5.78608 19.5579 5.89087 19.6875 5.89087H21.7969C21.9265 5.89087 22.0313 5.78608 22.0313 5.65649C22.0313 5.5269 21.9265 5.42212 21.7969 5.42212Z" fill="#00A64F"/>
<path d="M28.1749 15.6708C28.0691 15.6131 27.9549 15.5856 27.8421 15.5857C27.6025 15.5857 27.3697 15.7097 27.2407 15.9307L26.9954 16.3509C26.9188 16.4822 26.7833 16.5681 26.6319 16.5815L25.943 16.6425C25.5596 16.6765 25.2172 16.8966 25.0271 17.2314L24.4532 18.2425L24.4543 18.243L22.6497 21.0103C22.4777 21.274 22.0999 21.2966 21.8977 21.0553L20.0364 18.8337C19.4217 18.1 18.5391 17.6494 17.5924 17.5767C17.4292 17.5642 17.2692 17.629 17.1654 17.7556L16.1763 18.9614C15.9276 19.2644 15.5883 19.4382 15.2349 19.4862V28.8489H19.0431C19.3418 28.8489 19.5655 28.5857 19.5306 28.289C19.3382 26.6519 19.7291 25.0465 19.902 24.4433C20.1033 23.0426 19.8022 21.908 19.799 21.8953C19.7646 21.7706 19.8381 21.6417 19.9628 21.6074C20.0873 21.573 20.2165 21.6463 20.2507 21.7711C20.2661 21.8269 20.5905 23.0409 20.3585 24.5616L21.2327 25.4191C21.5522 25.7325 21.9819 25.9081 22.4293 25.9081C23.0578 25.9081 23.6355 25.5631 23.9336 25.0099L26.9671 19.3817L28.4544 16.6107C28.6353 16.2737 28.5104 15.8542 28.1748 15.6709L28.1749 15.6708ZM18.2817 23.0001H16.8754C16.7458 23.0001 16.641 22.8953 16.641 22.7657C16.641 22.6361 16.7458 22.5313 16.8754 22.5313H18.2817C18.4112 22.5313 18.516 22.6361 18.516 22.7657C18.516 22.8953 18.4112 23.0001 18.2817 23.0001ZM25.9842 17.1096L26.6731 17.0486C26.9754 17.0218 27.247 16.8494 27.4001 16.5874L27.6454 16.1672C27.6866 16.0967 27.7601 16.0546 27.8421 16.0546C27.88 16.0546 27.9164 16.064 27.9502 16.0824C28.0593 16.142 28.1002 16.2795 28.0415 16.3891L26.7614 18.774L25.1141 18.0276L25.4346 17.4629C25.5487 17.2621 25.7541 17.1299 25.9841 17.1096L25.9842 17.1096Z" fill="#00A64F"/>
<path d="M27.0499 12.4117C27.027 12.3316 27.0045 12.2554 26.9831 12.1838C26.9456 12.06 26.8151 11.9896 26.691 12.0268C26.5669 12.0641 26.4966 12.195 26.5339 12.3189C26.555 12.3887 26.577 12.4631 26.5994 12.5408C26.6288 12.6439 26.7225 12.7107 26.8244 12.7107C26.8458 12.7107 26.8676 12.7077 26.8891 12.7015C27.0137 12.6657 27.0856 12.5359 27.0498 12.4117L27.0499 12.4117Z" fill="#00A64F"/>
<path d="M27.295 15.0043C27.3016 15.0043 27.3085 15.0041 27.3154 15.0035C27.4445 14.9922 27.5399 14.8788 27.5287 14.7498C27.5218 14.6704 27.5133 14.5899 27.5033 14.5086C27.4878 14.38 27.3716 14.2855 27.2423 14.3044C27.1137 14.3199 27.0224 14.4369 27.0381 14.5654C27.0473 14.6412 27.0553 14.7163 27.0617 14.7902C27.0722 14.9123 27.1746 15.0043 27.295 15.0043L27.295 15.0043Z" fill="#00A64F"/>
<path d="M26.8825 13.6625C26.9065 13.7723 27.0036 13.8471 27.1114 13.8471C27.1279 13.8471 27.1446 13.8456 27.1613 13.8419C27.2879 13.8144 27.3682 13.6894 27.3408 13.5631C27.3239 13.485 27.3067 13.4077 27.289 13.3312C27.2599 13.2052 27.1341 13.1264 27.008 13.1555C26.8819 13.1846 26.8031 13.3104 26.8322 13.4365C26.8493 13.5112 26.866 13.5868 26.8825 13.6625L26.8825 13.6625Z" fill="#00A64F"/>
<path d="M23.8151 7.28681C23.8671 7.34335 23.9186 7.40029 23.9696 7.4578C24.0158 7.50976 24.0802 7.53632 24.1447 7.53632C24.2004 7.53632 24.256 7.51689 24.3006 7.47704C24.3972 7.39101 24.4059 7.24286 24.3198 7.14609C24.267 7.08681 24.2136 7.02802 24.1599 6.96963C24.0725 6.87422 23.9236 6.86797 23.8289 6.95586C23.7334 7.04326 23.7276 7.1916 23.8152 7.28681L23.8151 7.28681Z" fill="#00A64F"/>
<path d="M24.6903 8.35198C24.7363 8.41497 24.8075 8.44808 24.8799 8.44808C24.9277 8.44808 24.9763 8.43343 25.0179 8.40296C25.1224 8.32649 25.1451 8.17981 25.0689 8.07541C25.0221 8.01135 24.9746 7.94748 24.9266 7.8843C24.8485 7.78107 24.7015 7.76047 24.5983 7.83898C24.4951 7.91701 24.4747 8.06398 24.553 8.16721C24.5992 8.22854 24.6452 8.29016 24.6903 8.35197L24.6903 8.35198Z" fill="#00A64F"/>
<path d="M25.2825 9.24366C25.3262 9.3171 25.4041 9.35763 25.4836 9.35763C25.5247 9.35763 25.5661 9.34689 25.6038 9.32423C25.7148 9.25783 25.7509 9.11388 25.6843 9.00286L25.6026 8.86848C25.5348 8.75793 25.3895 8.72405 25.2801 8.79231C25.1701 8.86028 25.1359 9.00471 25.204 9.11476L25.2825 9.24366Z" fill="#00A64F"/>
<path d="M16.5592 3.53886C16.6351 3.54843 16.7109 3.55878 16.7867 3.57001C16.7984 3.57158 16.8098 3.57255 16.8213 3.57255C16.9357 3.57255 17.0357 3.48876 17.0529 3.37255C17.0719 3.24443 16.9834 3.12539 16.8553 3.10635C16.7763 3.09463 16.6974 3.08389 16.6182 3.07383C16.4889 3.06055 16.3726 3.14864 16.3561 3.27686C16.3398 3.40518 16.4308 3.52266 16.5592 3.53886L16.5592 3.53886Z" fill="#00A64F"/>
<path d="M14.2492 3.46781C14.2542 3.46781 14.2594 3.46761 14.2645 3.46732C14.3407 3.46224 14.4171 3.45843 14.4938 3.45492C14.6231 3.44916 14.7234 3.33978 14.7176 3.21049C14.7121 3.08119 14.6055 2.97543 14.4732 2.98666C14.3933 2.99008 14.3136 2.99447 14.2342 2.99945C14.1051 3.00795 14.0072 3.11937 14.0154 3.24847C14.0236 3.37259 14.1268 3.46781 14.2492 3.46781H14.2492Z" fill="#00A64F"/>
<path d="M17.6903 3.73858L17.8374 3.77315C17.856 3.77754 17.8742 3.77959 17.8923 3.77959C17.9983 3.77959 18.0942 3.70723 18.12 3.5999C18.1502 3.47402 18.0727 3.34745 17.9468 3.31718L17.7946 3.28173C17.6689 3.25243 17.5428 3.33163 17.514 3.458C17.4852 3.58407 17.5642 3.70965 17.6903 3.73857L17.6903 3.73858Z" fill="#00A64F"/>
<path d="M13.0852 3.59838C13.0976 3.59838 13.1099 3.5975 13.1225 3.59545C13.1983 3.58334 13.2743 3.57192 13.3505 3.56069C13.4786 3.54233 13.5675 3.42338 13.5489 3.29546C13.5306 3.16734 13.4109 3.07593 13.2837 3.09703C13.2047 3.10826 13.1265 3.12017 13.0484 3.13277C12.9205 3.15337 12.8335 3.27349 12.8541 3.40122C12.8726 3.51645 12.9722 3.59839 13.0852 3.59839L13.0852 3.59838Z" fill="#00A64F"/>
<path d="M15.4135 3.44852C15.4904 3.45106 15.5671 3.45428 15.6437 3.45809C15.6476 3.45828 15.6517 3.45828 15.6557 3.45828C15.7797 3.45828 15.8832 3.36082 15.8895 3.23563C15.896 3.10633 15.7964 2.99617 15.6671 2.98983C15.5877 2.98592 15.5082 2.9827 15.4286 2.98026C15.308 2.96932 15.1908 3.07733 15.1869 3.20682C15.1825 3.33612 15.2842 3.44442 15.4135 3.44852V3.44852Z" fill="#00A64F"/>
<path d="M5.69426 7.80628C5.76135 7.80628 5.82796 7.77767 5.87444 7.7223C5.92346 7.66351 5.97327 7.6053 6.02346 7.54769C6.10862 7.44993 6.09827 7.30208 6.0008 7.21694C5.90373 7.13227 5.75569 7.14213 5.67005 7.23959C5.61761 7.29955 5.56595 7.36049 5.51468 7.42153C5.43187 7.52084 5.44486 7.66869 5.54418 7.7518C5.58812 7.78842 5.64144 7.80629 5.69427 7.80629L5.69426 7.80628Z" fill="#00A64F"/>
<path d="M6.4889 6.94531C6.54838 6.94531 6.60795 6.92285 6.65375 6.87783C6.70824 6.82402 6.76293 6.7707 6.81859 6.71806C6.91264 6.629 6.91654 6.48076 6.82748 6.38691C6.73871 6.29287 6.59037 6.28896 6.49633 6.37803C6.43842 6.43291 6.381 6.48808 6.32426 6.54424C6.23227 6.63535 6.23129 6.78369 6.32221 6.87589C6.36801 6.92198 6.42846 6.94532 6.48891 6.94532L6.4889 6.94531Z" fill="#00A64F"/>
<path d="M4.98607 8.73962C5.06088 8.73962 5.13441 8.70388 5.17973 8.63757C5.22299 8.57458 5.26674 8.51189 5.31137 8.44987C5.38685 8.3448 5.36283 8.19832 5.25756 8.12282C5.15277 8.04704 5.00581 8.07107 4.93051 8.17663C4.88402 8.24138 4.83803 8.3069 4.79291 8.37302C4.71986 8.47966 4.74711 8.62574 4.85404 8.69869C4.89447 8.72633 4.94047 8.73961 4.98607 8.73961V8.73962Z" fill="#00A64F"/>
<path d="M7.36181 6.16423C7.41357 6.16423 7.46572 6.14705 7.50917 6.11179C7.56894 6.06345 7.6289 6.0154 7.68954 5.96804C7.7914 5.88816 7.80927 5.7408 7.72939 5.63894C7.64951 5.53709 7.50214 5.51902 7.40029 5.5991C7.33779 5.64832 7.27558 5.69773 7.21396 5.74783C7.11347 5.82927 7.09795 5.97693 7.17959 6.07743C7.22588 6.13475 7.29355 6.16424 7.36181 6.16424L7.36181 6.16423Z" fill="#00A64F"/>
<path d="M2.64049 14.4239C2.63297 14.5029 2.62603 14.5821 2.62008 14.6615C2.61021 14.7906 2.7068 14.9032 2.8359 14.913C2.84205 14.9135 2.84801 14.9137 2.85396 14.9137C2.97525 14.9137 3.07808 14.8201 3.08746 14.6972C3.09342 14.6206 3.09986 14.5441 3.10689 14.4679C3.1193 14.339 3.02447 14.2249 2.89566 14.2128C2.76549 14.1975 2.65279 14.295 2.64049 14.4239L2.64049 14.4239Z" fill="#00A64F"/>
<path d="M3.47963 12.4358C3.50023 12.3617 3.52133 12.2877 3.54301 12.214C3.57943 12.09 3.50824 11.9597 3.38393 11.9231C3.25961 11.8867 3.12963 11.9581 3.093 12.0822C3.07083 12.1581 3.04886 12.2344 3.02777 12.3113C2.99339 12.436 3.06663 12.5651 3.19144 12.5994C3.21224 12.6052 3.23314 12.6079 3.25394 12.6079C3.35667 12.6078 3.45101 12.5397 3.47962 12.4358L3.47963 12.4358Z" fill="#00A64F"/>
<path d="M3.22892 13.5564C3.24201 13.4809 3.25597 13.4055 3.27032 13.3305C3.29503 13.2035 3.21193 13.0803 3.08497 13.0559C2.95822 13.031 2.83507 13.1143 2.81037 13.2413C2.79504 13.3196 2.78059 13.398 2.76711 13.4768C2.74514 13.6046 2.83078 13.7256 2.95822 13.7476C2.9717 13.7499 2.98527 13.751 2.99826 13.751C3.11037 13.7509 3.2092 13.6704 3.22893 13.5564L3.22892 13.5564Z" fill="#00A64F"/>
</svg>
