<svg width="30" height="31" viewBox="0 0 30 31" fill="none" xmlns="http://www.w3.org/2000/svg">
<path d="M25.7159 18.3721H23.3473V16.8095C23.3473 16.3329 22.9599 15.9455 22.4833 15.9455H15.3729V14.5048H18.1881C18.5718 14.5048 18.8837 14.1927 18.8837 13.8092V8.15635C19.2347 7.94793 19.4728 7.56908 19.4728 7.13228V5.37231C19.4728 4.79408 19.0442 4.39062 18.4307 4.39062H11.568C10.9541 4.39062 10.5255 4.79409 10.5255 5.37231V7.13181C10.5255 7.56758 10.7626 7.94558 11.112 8.15485V13.809C11.112 14.1927 11.4243 14.5046 11.8075 14.5046H14.623V15.9453H7.51389C7.03727 15.9453 6.64989 16.3327 6.64989 16.8093V18.3719H4.28254C3.74816 18.3719 3.375 18.7255 3.375 19.2322V20.64C3.375 21.0004 3.56217 21.3172 3.84343 21.501V25.9774C3.84343 26.3258 4.12686 26.6092 4.47523 26.6092H9.57652C9.9249 26.6092 10.208 26.3258 10.208 25.9774V21.5019C10.4907 21.318 10.6789 21.0013 10.6789 20.6397V19.2319C10.6789 18.7254 10.3051 18.3716 9.77019 18.3716H7.40014V16.809C7.40014 16.7471 7.45221 16.695 7.51415 16.695H14.6233V18.3716H12.2571C11.7221 18.3716 11.3481 18.7252 11.3481 19.2319V20.6397C11.3481 21.0001 11.5352 21.3169 11.8165 21.5007L11.8167 25.9771C11.8167 26.3255 12.1001 26.6089 12.4485 26.6089H17.5498C17.8981 26.6089 18.1816 26.3255 18.1816 25.9771V21.5015C18.4643 21.3177 18.6525 21.0005 18.6525 20.6394V19.2316C18.6525 18.725 18.2786 18.3713 17.7434 18.3713H15.3737V16.6947H22.4842C22.5461 16.6947 22.5982 16.7468 22.5982 16.8087V18.3713H20.2308C19.6958 18.3713 19.3218 18.7249 19.3218 19.2316V20.6394C19.3218 20.9998 19.5089 21.3166 19.7902 21.5004L19.7904 25.9768C19.7904 26.3252 20.0738 26.6086 20.4222 26.6086H25.5226C25.871 26.6086 26.1544 26.3252 26.1544 25.9768L26.1546 21.5013C26.437 21.3176 26.6251 21.0003 26.6251 20.6393V19.2315C26.6251 18.7253 26.2513 18.3712 25.7161 18.3712L25.7159 18.3721ZM16.0422 13.7551H13.9552V11.0067H16.0422V13.7551ZM11.2756 5.37227C11.2756 5.30882 11.2756 5.14057 11.5681 5.14057H18.4312C18.7233 5.14057 18.7233 5.3033 18.7233 5.37227V7.13177C18.7233 7.37703 18.5238 7.57693 18.2782 7.57693C18.0333 7.57693 17.8342 7.37737 17.8342 7.13177C17.8342 7.12909 17.8327 7.12691 17.8327 7.12423L17.8329 6.61616C17.8329 6.40874 17.6648 6.24116 17.4579 6.24116C17.251 6.24116 17.0829 6.40874 17.0829 6.61616V7.13212C17.0829 7.13363 17.0835 7.1343 17.0835 7.1358C17.0814 7.37922 16.8833 7.5771 16.6392 7.5771C16.3937 7.5771 16.1937 7.37755 16.1937 7.13195V6.61616C16.1937 6.40874 16.0257 6.24116 15.8187 6.24116C15.6118 6.24116 15.4437 6.40874 15.4437 6.61616V7.13212C15.4437 7.37738 15.2442 7.57727 14.9986 7.57727C14.753 7.57727 14.5534 7.37772 14.5534 7.13212V6.61616C14.5534 6.40874 14.3853 6.24116 14.1784 6.24116C13.9715 6.24116 13.8034 6.40874 13.8034 6.61616V7.13212C13.8034 7.37738 13.6044 7.57727 13.3595 7.57727C13.1142 7.57727 12.9143 7.37772 12.9143 7.13212V6.61616C12.9143 6.40874 12.7462 6.24116 12.5393 6.24116C12.3324 6.24116 12.1643 6.40874 12.1643 6.61616V7.13212C12.1643 7.37738 11.9648 7.57727 11.7192 7.57727C11.4736 7.57727 11.274 7.37772 11.274 7.13212V5.37232L11.2756 5.37227ZM11.8622 8.313C12.1229 8.28186 12.3591 8.17203 12.5409 8.00061C12.755 8.20267 13.0438 8.32689 13.3611 8.32689C13.678 8.32689 13.9662 8.20284 14.18 8.00061C14.3941 8.20267 14.6826 8.32689 14.9998 8.32689C15.3171 8.32689 15.6059 8.20284 15.82 8.00027C16.0341 8.20284 16.3229 8.32689 16.6405 8.32689C16.9577 8.32689 17.2462 8.20284 17.4603 8.00061C17.6406 8.1712 17.8758 8.28119 18.135 8.313V13.755H16.7931V10.6316C16.7931 10.4242 16.6251 10.2566 16.4181 10.2566H13.5812C13.3743 10.2566 13.2062 10.4242 13.2062 10.6316V13.755H11.8629V8.313H11.8622ZM7.78444 25.8591H6.26567V23.8112H7.78444V25.8591ZM8.53444 25.8591V23.4362C8.53444 23.2288 8.36636 23.0612 8.15944 23.0612H5.89067C5.68375 23.0612 5.51567 23.2288 5.51567 23.4362V25.8591H4.59356V21.6513C4.76867 21.6186 4.92838 21.5424 5.06049 21.4335C5.41674 21.7274 6.01457 21.7278 6.3708 21.4338C6.72738 21.7274 7.32553 21.7278 7.68214 21.4335C8.03873 21.7274 8.63657 21.7278 8.9928 21.4338C9.12439 21.5421 9.28376 21.6183 9.45819 21.6509V25.8591L8.53444 25.8591ZM9.92897 19.2321V20.6399C9.92897 20.7941 9.80291 20.9193 9.64806 20.9193C9.4932 20.9193 9.36714 20.7941 9.36714 20.6399C9.36714 20.4325 9.19906 20.2649 8.99214 20.2649C8.78522 20.2649 8.61714 20.4325 8.61714 20.6399C8.61714 20.7941 8.49192 20.9193 8.3374 20.9193C8.18254 20.9193 8.05648 20.7941 8.05648 20.6399C8.05648 20.4325 7.8884 20.2649 7.68148 20.2649C7.47456 20.2649 7.30648 20.4325 7.30648 20.6399C7.30648 20.7941 7.18042 20.9193 7.02557 20.9193C6.87071 20.9193 6.74465 20.7941 6.74465 20.6399C6.74465 20.4325 6.57657 20.2649 6.36965 20.2649C6.16273 20.2649 5.99465 20.4325 5.99465 20.6399C5.99465 20.7941 5.86943 20.9193 5.71524 20.9193C5.56039 20.9193 5.43433 20.7941 5.43433 20.6399C5.43433 20.4325 5.26625 20.2649 5.05933 20.2649C4.85241 20.2649 4.68433 20.4325 4.68433 20.6399C4.68433 20.7941 4.55827 20.9193 4.40341 20.9193C4.2504 20.9192 4.12518 20.7939 4.12518 20.6399V19.2321C4.12518 19.1856 4.12518 19.1218 4.28271 19.1218H9.77014C9.92901 19.1218 9.92901 19.1856 9.92901 19.2321H9.92897ZM15.7588 25.8591H14.2389V23.8112H15.7592V25.8591H15.7588ZM16.5088 25.8591V23.4362C16.5088 23.2288 16.3408 23.0612 16.1338 23.0612H13.8639C13.657 23.0612 13.4889 23.2288 13.4889 23.4362V25.8591H12.5668V21.6513C12.7419 21.6186 12.9016 21.5424 13.0337 21.4335C13.39 21.7278 13.9881 21.7274 14.3451 21.4338C14.7013 21.7278 15.2991 21.7274 15.6557 21.4335C16.0123 21.7274 16.6101 21.7286 16.9664 21.4338C17.098 21.5426 17.2573 21.6183 17.4318 21.6509V25.8591L16.5088 25.8591ZM17.9019 19.2321V20.6399C17.9019 20.7941 17.7758 20.9193 17.6209 20.9193C17.4661 20.9193 17.3404 20.7941 17.3404 20.6399C17.3404 20.4325 17.1723 20.2649 16.9654 20.2649C16.7584 20.2649 16.5904 20.4325 16.5904 20.6399C16.5904 20.7941 16.4651 20.9193 16.311 20.9193C16.1561 20.9193 16.03 20.7941 16.03 20.6399C16.03 20.4325 15.862 20.2649 15.655 20.2649C15.4481 20.2649 15.28 20.4325 15.28 20.6399C15.28 20.7941 15.154 20.9193 14.9991 20.9193C14.8449 20.9193 14.7197 20.7941 14.7197 20.6399C14.7197 20.4325 14.5516 20.2649 14.3447 20.2649C14.1378 20.2649 13.9697 20.4325 13.9697 20.6399C13.9697 20.7941 13.8437 20.9193 13.6888 20.9193C13.5339 20.9193 13.4082 20.7941 13.4082 20.6399C13.4082 20.4325 13.2401 20.2649 13.0332 20.2649C12.8263 20.2649 12.6582 20.4325 12.6582 20.6399C12.6582 20.7941 12.5322 20.9193 12.3773 20.9193C12.2231 20.9193 12.0979 20.7941 12.0979 20.6399V19.2321C12.0979 19.1856 12.0979 19.1218 12.2569 19.1218H17.7427C17.9017 19.1218 17.9017 19.1856 17.9017 19.2321H17.9019ZM20.0713 19.2321C20.0713 19.1856 20.0713 19.1218 20.2304 19.1218H25.7161C25.875 19.1218 25.875 19.1856 25.875 19.2321V20.6399C25.875 20.7941 25.7489 20.9193 25.594 20.9193C25.4392 20.9193 25.3135 20.7941 25.3135 20.6399C25.3135 20.4325 25.1454 20.2649 24.9385 20.2649C24.7315 20.2649 24.5635 20.4325 24.5635 20.6399C24.5635 20.7941 24.4382 20.9193 24.2837 20.9193C24.1289 20.9193 24.0031 20.7941 24.0031 20.6399C24.0031 20.4325 23.8351 20.2649 23.6281 20.2649C23.4212 20.2649 23.2531 20.4325 23.2531 20.6399C23.2531 20.7941 23.1271 20.9193 22.9722 20.9193C22.818 20.9193 22.6928 20.7941 22.6928 20.6399C22.6928 20.4325 22.5247 20.2649 22.3178 20.2649C22.1109 20.2649 21.9428 20.4325 21.9428 20.6399C21.9428 20.7941 21.8168 20.9193 21.6619 20.9193C21.507 20.9193 21.3813 20.7941 21.3813 20.6399C21.3813 20.4325 21.2132 20.2649 21.0063 20.2649C20.7994 20.2649 20.6313 20.4325 20.6313 20.6399C20.6313 20.7941 20.5053 20.9193 20.3504 20.9193C20.1962 20.9193 20.071 20.7941 20.071 20.6399L20.0715 19.2321H20.0713ZM23.7319 25.8591H22.2117V23.8112H23.7319V25.8591ZM24.4819 25.8591V23.4362C24.4819 23.2288 24.3139 23.0612 24.1069 23.0612H21.8367C21.6297 23.0612 21.4617 23.2288 21.4617 23.4362V25.8591H20.5395V21.6513C20.7147 21.6186 20.8744 21.5424 21.0065 21.4335C21.3627 21.7278 21.9609 21.7274 22.3178 21.4338C22.6741 21.7278 23.2719 21.7274 23.6285 21.4335C23.9847 21.7274 24.5826 21.7278 24.9391 21.4338C25.0707 21.5421 25.2301 21.6183 25.4045 21.6509V25.8591L24.4819 25.8591Z" fill="#00A64F"/>
</svg>
