<svg width="70" height="70" viewBox="0 0 70 70" fill="none" xmlns="http://www.w3.org/2000/svg">
<g clip-path="url(#clip0_329_568)">
<rect width="70" height="70" rx="10" fill="url(#paint0_linear_329_568)"/>
<path d="M35.0006 7.74609C20.0046 7.74609 7.74658 20.0041 7.74658 35.0001C7.74658 49.9961 19.9426 62.2541 35.0006 62.2541C49.9956 62.2541 62.2536 49.9961 62.2536 35.0001C62.2536 20.0041 49.9956 7.74609 35.0006 7.74609V7.74609ZM35.0006 59.7641C21.3736 59.7641 10.2366 48.6261 10.2366 35.0001C10.2366 21.3741 21.3116 10.2361 35.0006 10.2361C48.6276 10.2361 59.7646 21.3741 59.7646 35.0001C59.7646 48.6261 48.6266 59.7641 35.0006 59.7641Z" fill="#4F5052"/>
<path d="M35.0006 14.9648C23.9246 14.9648 14.9646 23.925 14.9646 35.0008C14.9646 46.0766 23.9869 55.0368 35.0006 55.0368C46.0756 55.0368 55.0366 46.0766 55.0366 35.0008C55.0366 23.925 46.0764 14.9648 35.0006 14.9648V14.9648ZM35.0006 53.0448C25.0451 53.0448 16.9556 44.9557 16.9556 34.9998C16.9556 25.0439 25.0447 16.9548 35.0006 16.9548C44.9561 16.9548 53.0456 25.0439 53.0456 34.9998C53.0452 44.9553 44.9565 53.0448 35.0006 53.0448V53.0448Z" fill="#4F5052"/>
<path d="M30.5645 40V31.632L28.7245 33.008L27.6845 31.392L31.0125 29.008H32.7565V40H30.5645ZM37.8147 38.016H41.8307V40H34.6627L34.6307 38.576L38.0547 34.96C38.556 34.416 38.924 33.952 39.1587 33.568C39.404 33.184 39.5267 32.7893 39.5267 32.384C39.5267 31.9573 39.388 31.6053 39.1107 31.328C38.8333 31.04 38.4813 30.896 38.0547 30.896C37.2547 30.896 36.62 31.2907 36.1507 32.08L34.5827 30.96C35.34 29.5733 36.556 28.88 38.2307 28.88C39.1907 28.88 40.012 29.1787 40.6947 29.776C41.3773 30.3733 41.7187 31.1627 41.7187 32.144C41.7187 32.7947 41.5853 33.3973 41.3187 33.952C41.0627 34.496 40.588 35.1253 39.8947 35.84L37.8147 37.984V38.016Z" fill="#4F5052"/>
</g>
<defs>
<linearGradient id="paint0_linear_329_568" x1="35" y1="0" x2="35" y2="70" gradientUnits="userSpaceOnUse">
<stop stop-color="#F9CF56" stop-opacity="0.52"/>
<stop offset="1" stop-color="#F9CF56" stop-opacity="0.72"/>
</linearGradient>
<clipPath id="clip0_329_568">
<rect width="70" height="70" rx="10" fill="white"/>
</clipPath>
</defs>
</svg>
