<svg width="70" height="70" viewBox="0 0 70 70" fill="none" xmlns="http://www.w3.org/2000/svg">
<g clip-path="url(#clip0_329_562)">
<rect width="70" height="70" rx="10" fill="url(#paint0_linear_329_562)"/>
<path d="M35.0006 7.74609C20.0046 7.74609 7.74658 20.0041 7.74658 35.0001C7.74658 49.9961 19.9426 62.2541 35.0006 62.2541C49.9956 62.2541 62.2536 49.9961 62.2536 35.0001C62.2536 20.0041 49.9956 7.74609 35.0006 7.74609ZM35.0006 59.7641C21.3736 59.7641 10.2366 48.6261 10.2366 35.0001C10.2366 21.3741 21.3116 10.2361 35.0006 10.2361C48.6276 10.2361 59.7646 21.3741 59.7646 35.0001C59.7646 48.6261 48.6266 59.7641 35.0006 59.7641Z" fill="#4F5052"/>
<path d="M35.0006 14.9648C23.9246 14.9648 14.9646 23.925 14.9646 35.0008C14.9646 46.0766 23.9869 55.0368 35.0006 55.0368C46.0756 55.0368 55.0366 46.0766 55.0366 35.0008C55.0366 23.925 46.0764 14.9648 35.0006 14.9648ZM35.0006 53.0448C25.0451 53.0448 16.9556 44.9557 16.9556 34.9998C16.9556 25.0439 25.0447 16.9548 35.0006 16.9548C44.9561 16.9548 53.0456 25.0439 53.0456 34.9998C53.0452 44.9553 44.9565 53.0448 35.0006 53.0448Z" fill="#4F5052"/>
<path d="M30.3849 40V31.632L28.5449 33.008L27.5049 31.392L30.8329 29.008H32.5769V40H30.3849ZM38.579 32.912C39.539 32.912 40.3497 33.2373 41.011 33.888C41.6723 34.5387 42.003 35.392 42.003 36.448C42.003 37.5253 41.6243 38.4107 40.867 39.104C40.1203 39.7867 39.187 40.128 38.067 40.128C36.4563 40.128 35.1923 39.552 34.275 38.4L35.843 37.136C36.355 37.808 37.059 38.144 37.955 38.144C38.4777 38.144 38.915 37.9787 39.267 37.648C39.619 37.3173 39.795 36.9067 39.795 36.416C39.795 35.872 39.603 35.4507 39.219 35.152C38.835 34.8427 38.3977 34.688 37.907 34.688C37.2777 34.688 36.7283 34.8747 36.259 35.248L35.107 34.816L35.443 29.008H41.443V30.992H37.331L37.203 33.152C37.715 32.992 38.1737 32.912 38.579 32.912Z" fill="#4F5052"/>
</g>
<defs>
<linearGradient id="paint0_linear_329_562" x1="35" y1="0" x2="35" y2="70" gradientUnits="userSpaceOnUse">
<stop stop-color="#F9CF56" stop-opacity="0.52"/>
<stop offset="1" stop-color="#F9CF56" stop-opacity="0.72"/>
</linearGradient>
<clipPath id="clip0_329_562">
<rect width="70" height="70" rx="10" fill="white"/>
</clipPath>
</defs>
</svg>
