<svg width="71" height="70" viewBox="0 0 71 70" fill="none" xmlns="http://www.w3.org/2000/svg">
<g clip-path="url(#clip0_329_522)">
<rect x="0.0742188" width="70" height="70" rx="10" fill="url(#paint0_linear_329_522)"/>
<path d="M35.0748 7.74609C20.0788 7.74609 7.8208 20.0041 7.8208 35.0001C7.8208 49.9961 20.0168 62.2541 35.0748 62.2541C50.0698 62.2541 62.3278 49.9961 62.3278 35.0001C62.3278 20.0041 50.0698 7.74609 35.0748 7.74609ZM35.0748 59.7641C21.4478 59.7641 10.3108 48.6261 10.3108 35.0001C10.3108 21.3741 21.3858 10.2361 35.0748 10.2361C48.7018 10.2361 59.8388 21.3741 59.8388 35.0001C59.8388 48.6261 48.7008 59.7641 35.0748 59.7641Z" fill="#4F5052"/>
<path d="M35.0748 14.9648C23.9988 14.9648 15.0388 23.925 15.0388 35.0008C15.0388 46.0766 24.0611 55.0368 35.0748 55.0368C46.1498 55.0368 55.1108 46.0766 55.1108 35.0008C55.1108 23.925 46.1506 14.9648 35.0748 14.9648ZM35.0748 53.0448C25.1193 53.0448 17.0298 44.9557 17.0298 34.9998C17.0298 25.0439 25.1189 16.9548 35.0748 16.9548C45.0303 16.9548 53.1198 25.0439 53.1198 34.9998C53.1194 44.9553 45.0307 53.0448 35.0748 53.0448Z" fill="#4F5052"/>
<path d="M37.1119 34.064C37.6879 34.2773 38.1572 34.6347 38.5199 35.136C38.8826 35.6373 39.0639 36.2453 39.0639 36.96C39.0639 37.92 38.6852 38.688 37.9279 39.264C37.1706 39.84 36.2159 40.128 35.0639 40.128C33.9119 40.128 32.9626 39.8347 32.2159 39.248C31.4692 38.6613 31.0959 37.8987 31.0959 36.96C31.0959 36.2453 31.2719 35.6373 31.6239 35.136C31.9866 34.6347 32.4559 34.2773 33.0319 34.064V34.032C32.6692 33.8827 32.3492 33.6 32.0719 33.184C31.7946 32.7573 31.6559 32.2773 31.6559 31.744C31.6559 30.848 31.9759 30.1493 32.6159 29.648C33.2559 29.136 34.0719 28.88 35.0639 28.88C36.0772 28.88 36.8986 29.136 37.5279 29.648C38.1679 30.16 38.4879 30.8587 38.4879 31.744C38.4879 32.2773 38.3492 32.7573 38.0719 33.184C37.8052 33.6 37.4852 33.8827 37.1119 34.032V34.064ZM36.0719 31.04C35.8052 30.7947 35.4692 30.672 35.0639 30.672C34.6586 30.672 34.3226 30.8 34.0559 31.056C33.7999 31.3013 33.6719 31.6 33.6719 31.952C33.6719 32.3147 33.7999 32.6133 34.0559 32.848C34.3226 33.072 34.6586 33.184 35.0639 33.184C35.4799 33.184 35.8159 33.072 36.0719 32.848C36.3386 32.6133 36.4719 32.3147 36.4719 31.952C36.4719 31.5893 36.3386 31.2853 36.0719 31.04ZM35.0639 38.272C35.5866 38.272 36.0132 38.1173 36.3439 37.808C36.6746 37.4987 36.8399 37.12 36.8399 36.672C36.8399 36.2027 36.6746 35.8187 36.3439 35.52C36.0132 35.2213 35.5866 35.072 35.0639 35.072C34.5412 35.072 34.1146 35.2213 33.7839 35.52C33.4532 35.8187 33.2879 36.2027 33.2879 36.672C33.2879 37.1307 33.4586 37.5147 33.7999 37.824C34.1412 38.1227 34.5626 38.272 35.0639 38.272Z" fill="#4F5052"/>
</g>
<defs>
<linearGradient id="paint0_linear_329_522" x1="35.0742" y1="0" x2="35.0742" y2="70" gradientUnits="userSpaceOnUse">
<stop stop-color="#F9CF56" stop-opacity="0.52"/>
<stop offset="1" stop-color="#F9CF56" stop-opacity="0.72"/>
</linearGradient>
<clipPath id="clip0_329_522">
<rect x="0.0742188" width="70" height="70" rx="10" fill="white"/>
</clipPath>
</defs>
</svg>
