<svg width="71" height="70" viewBox="0 0 71 70" fill="none" xmlns="http://www.w3.org/2000/svg">
<g clip-path="url(#clip0_329_536)">
<rect x="0.0742188" width="70" height="70" rx="10" fill="url(#paint0_linear_329_536)"/>
<path d="M35.0748 7.74609C20.0788 7.74609 7.8208 20.0041 7.8208 35.0001C7.8208 49.9961 20.0168 62.2541 35.0748 62.2541C50.0698 62.2541 62.3278 49.9961 62.3278 35.0001C62.3278 20.0041 50.0698 7.74609 35.0748 7.74609V7.74609ZM35.0748 59.7641C21.4478 59.7641 10.3108 48.6261 10.3108 35.0001C10.3108 21.3741 21.3858 10.2361 35.0748 10.2361C48.7018 10.2361 59.8388 21.3741 59.8388 35.0001C59.8388 48.6261 48.7008 59.7641 35.0748 59.7641Z" fill="#4F5052"/>
<path d="M35.0748 14.9648C23.9988 14.9648 15.0388 23.925 15.0388 35.0008C15.0388 46.0766 24.0611 55.0368 35.0748 55.0368C46.1498 55.0368 55.1108 46.0766 55.1108 35.0008C55.1108 23.925 46.1506 14.9648 35.0748 14.9648V14.9648ZM35.0748 53.0448C25.1193 53.0448 17.0298 44.9557 17.0298 34.9998C17.0298 25.0439 25.1189 16.9548 35.0748 16.9548C45.0303 16.9548 53.1198 25.0439 53.1198 34.9998C53.1194 44.9553 45.0307 53.0448 35.0748 53.0448V53.0448Z" fill="#4F5052"/>
<path d="M35.3641 32.912C36.3241 32.912 37.1348 33.2373 37.7961 33.888C38.4575 34.5387 38.7881 35.392 38.7881 36.448C38.7881 37.5253 38.4095 38.4107 37.6521 39.104C36.9055 39.7867 35.9721 40.128 34.8521 40.128C33.2415 40.128 31.9775 39.552 31.0601 38.4L32.6281 37.136C33.1401 37.808 33.8441 38.144 34.7401 38.144C35.2628 38.144 35.7001 37.9787 36.0521 37.648C36.4041 37.3173 36.5801 36.9067 36.5801 36.416C36.5801 35.872 36.3881 35.4507 36.0041 35.152C35.6201 34.8427 35.1828 34.688 34.6921 34.688C34.0628 34.688 33.5135 34.8747 33.0441 35.248L31.8921 34.816L32.2281 29.008H38.2281V30.992H34.1161L33.9881 33.152C34.5001 32.992 34.9588 32.912 35.3641 32.912Z" fill="#4F5052"/>
</g>
<defs>
<linearGradient id="paint0_linear_329_536" x1="35.0742" y1="0" x2="35.0742" y2="70" gradientUnits="userSpaceOnUse">
<stop stop-color="#F9CF56" stop-opacity="0.52"/>
<stop offset="1" stop-color="#F9CF56" stop-opacity="0.72"/>
</linearGradient>
<clipPath id="clip0_329_536">
<rect x="0.0742188" width="70" height="70" rx="10" fill="white"/>
</clipPath>
</defs>
</svg>
