<svg width="71" height="70" viewBox="0 0 71 70" fill="none" xmlns="http://www.w3.org/2000/svg">
<g clip-path="url(#clip0_329_542)">
<rect x="0.0742188" width="70" height="70" rx="10" fill="url(#paint0_linear_329_542)"/>
<path d="M35.0748 7.74609C20.0788 7.74609 7.8208 20.0041 7.8208 35.0001C7.8208 49.9961 20.0168 62.2541 35.0748 62.2541C50.0698 62.2541 62.3278 49.9961 62.3278 35.0001C62.3278 20.0041 50.0698 7.74609 35.0748 7.74609ZM35.0748 59.7641C21.4478 59.7641 10.3108 48.6261 10.3108 35.0001C10.3108 21.3741 21.3858 10.2361 35.0748 10.2361C48.7018 10.2361 59.8388 21.3741 59.8388 35.0001C59.8388 48.6261 48.7008 59.7641 35.0748 59.7641Z" fill="#4F5052"/>
<path d="M35.0748 14.9648C23.9988 14.9648 15.0388 23.925 15.0388 35.0008C15.0388 46.0766 24.0611 55.0368 35.0748 55.0368C46.1498 55.0368 55.1108 46.0766 55.1108 35.0008C55.1108 23.925 46.1506 14.9648 35.0748 14.9648ZM35.0748 53.0448C25.1193 53.0448 17.0298 44.9557 17.0298 34.9998C17.0298 25.0439 25.1189 16.9548 35.0748 16.9548C45.0303 16.9548 53.1198 25.0439 53.1198 34.9998C53.1194 44.9553 45.0307 53.0448 35.0748 53.0448Z" fill="#4F5052"/>
<path d="M27.3653 40V31.632L25.5253 33.008L24.4853 31.392L27.8133 29.008H29.5573V40H27.3653ZM31.9423 41.792L30.3743 41.072L36.4863 27.408L38.0383 28.128L31.9423 41.792ZM41.7548 40V38.208H37.0988V36.816L42.1388 29.008H43.8988V36.336H45.3708V38.208H43.8988V40H41.7548ZM39.4668 36.448H41.9148V32.512L39.4668 36.448Z" fill="#4F5052"/>
</g>
<defs>
<linearGradient id="paint0_linear_329_542" x1="35.0742" y1="0" x2="35.0742" y2="70" gradientUnits="userSpaceOnUse">
<stop stop-color="#F9CF56" stop-opacity="0.52"/>
<stop offset="1" stop-color="#F9CF56" stop-opacity="0.72"/>
</linearGradient>
<clipPath id="clip0_329_542">
<rect x="0.0742188" width="70" height="70" rx="10" fill="white"/>
</clipPath>
</defs>
</svg>
