<svg width="70" height="70" viewBox="0 0 70 70" fill="none" xmlns="http://www.w3.org/2000/svg">
<g clip-path="url(#clip0_619_781)">
<rect width="70" height="70" rx="10" fill="url(#paint0_linear_619_781)"/>
<path d="M35.0006 7.74609C20.0046 7.74609 7.74658 20.0041 7.74658 35.0001C7.74658 49.9961 19.9426 62.2541 35.0006 62.2541C49.9956 62.2541 62.2536 49.9961 62.2536 35.0001C62.2536 20.0041 49.9956 7.74609 35.0006 7.74609ZM35.0006 59.7641C21.3736 59.7641 10.2366 48.6261 10.2366 35.0001C10.2366 21.3741 21.3116 10.2361 35.0006 10.2361C48.6276 10.2361 59.7646 21.3741 59.7646 35.0001C59.7646 48.6261 48.6266 59.7641 35.0006 59.7641Z" fill="#4F5052"/>
<path d="M35.0006 14.9648C23.9246 14.9648 14.9646 23.925 14.9646 35.0008C14.9646 46.0766 23.9869 55.0368 35.0006 55.0368C46.0756 55.0368 55.0366 46.0766 55.0366 35.0008C55.0366 23.925 46.0764 14.9648 35.0006 14.9648ZM35.0006 53.0448C25.0451 53.0448 16.9556 44.9557 16.9556 34.9998C16.9556 25.0439 25.0447 16.9548 35.0006 16.9548C44.9561 16.9548 53.0456 25.0439 53.0456 34.9998C53.0452 44.9553 44.9565 53.0448 35.0006 53.0448Z" fill="#4F5052"/>
<path d="M28.88 39.9998V31.6318L27.04 33.0078L26 31.3918L29.328 29.0078H31.072V39.9998H28.88Z" fill="#4F5052"/>
<path d="M35.0697 35V30.4323L33.9814 31.1834L33.3662 30.3013L35.3347 29H36.3662V35H35.0697Z" fill="#4F5052"/>
<path d="M36.3462 39.99L35.3662 39.54L39.1862 31L40.1562 31.45L36.3462 39.99Z" fill="#4F5052"/>
<path d="M40.9399 39.9295H43.1562V41H39.2004L39.1827 40.2317L41.0724 38.2806C41.349 37.9871 41.5521 37.7367 41.6816 37.5295C41.817 37.3223 41.8847 37.1094 41.8847 36.8906C41.8847 36.6604 41.8082 36.4705 41.6551 36.3209C41.5021 36.1655 41.3078 36.0878 41.0724 36.0878C40.6309 36.0878 40.2806 36.3007 40.0216 36.7266L39.1562 36.1223C39.5742 35.3741 40.2453 35 41.1695 35C41.6993 35 42.1526 35.1612 42.5293 35.4835C42.9061 35.8058 43.0944 36.2317 43.0944 36.7612C43.0944 37.1122 43.0209 37.4374 42.8737 37.7367C42.7324 38.0302 42.4705 38.3698 42.0878 38.7554L40.9399 39.9122V39.9295Z" fill="#4F5052"/>
</g>
<defs>
<linearGradient id="paint0_linear_619_781" x1="35" y1="0" x2="35" y2="70" gradientUnits="userSpaceOnUse">
<stop stop-color="#F9CF56" stop-opacity="0.52"/>
<stop offset="1" stop-color="#F9CF56" stop-opacity="0.72"/>
</linearGradient>
<clipPath id="clip0_619_781">
<rect width="70" height="70" rx="10" fill="white"/>
</clipPath>
</defs>
</svg>
