<svg width="70" height="70" viewBox="0 0 70 70" fill="none" xmlns="http://www.w3.org/2000/svg">
<g clip-path="url(#clip0_329_516)">
<rect width="70" height="70" rx="10" fill="url(#paint0_linear_329_516)"/>
<path d="M35.0006 7.74609C20.0046 7.74609 7.74658 20.0041 7.74658 35.0001C7.74658 49.9961 19.9426 62.2541 35.0006 62.2541C49.9956 62.2541 62.2536 49.9961 62.2536 35.0001C62.2536 20.0041 49.9956 7.74609 35.0006 7.74609ZM35.0006 59.7641C21.3736 59.7641 10.2366 48.6261 10.2366 35.0001C10.2366 21.3741 21.3116 10.2361 35.0006 10.2361C48.6276 10.2361 59.7646 21.3741 59.7646 35.0001C59.7646 48.6261 48.6266 59.7641 35.0006 59.7641Z" fill="#4F5052"/>
<path d="M35.0006 14.9648C23.9246 14.9648 14.9646 23.925 14.9646 35.0008C14.9646 46.0766 23.9869 55.0368 35.0006 55.0368C46.0756 55.0368 55.0366 46.0766 55.0366 35.0008C55.0366 23.925 46.0764 14.9648 35.0006 14.9648ZM35.0006 53.0448C25.0451 53.0448 16.9556 44.9557 16.9556 34.9998C16.9556 25.0439 25.0447 16.9548 35.0006 16.9548C44.9561 16.9548 53.0456 25.0439 53.0456 34.9998C53.0452 44.9553 44.9565 53.0448 35.0006 53.0448Z" fill="#4F5052"/>
<path d="M35.6081 32.96C36.5681 32.96 37.3681 33.2747 38.0081 33.904C38.6588 34.5333 38.9841 35.3973 38.9841 36.496C38.9841 37.5627 38.6054 38.4373 37.8481 39.12C37.1014 39.792 36.1574 40.128 35.0161 40.128C33.8748 40.128 32.9308 39.7227 32.1841 38.912C31.4374 38.0907 31.0641 37.0293 31.0641 35.728C31.0641 33.9467 31.5974 32.4 32.6641 31.088C33.7414 29.776 35.1441 28.96 36.8721 28.64L37.4961 30.384C35.4588 30.96 34.1468 31.984 33.5601 33.456L33.5761 33.472C34.1734 33.1307 34.8508 32.96 35.6081 32.96ZM35.0801 38.176C35.5921 38.176 36.0134 38.0107 36.3441 37.68C36.6854 37.3387 36.8561 36.928 36.8561 36.448C36.8561 35.9573 36.6908 35.5573 36.3601 35.248C36.0294 34.9387 35.5921 34.784 35.0481 34.784C34.3121 34.784 33.6774 35.1093 33.1441 35.76V35.92C33.1441 36.592 33.3308 37.136 33.7041 37.552C34.0774 37.968 34.5361 38.176 35.0801 38.176Z" fill="#4F5052"/>
</g>
<defs>
<linearGradient id="paint0_linear_329_516" x1="35" y1="0" x2="35" y2="70" gradientUnits="userSpaceOnUse">
<stop stop-color="#F9CF56" stop-opacity="0.52"/>
<stop offset="1" stop-color="#F9CF56" stop-opacity="0.72"/>
</linearGradient>
<clipPath id="clip0_329_516">
<rect width="70" height="70" rx="10" fill="white"/>
</clipPath>
</defs>
</svg>
