<svg width="70" height="70" viewBox="0 0 70 70" fill="none" xmlns="http://www.w3.org/2000/svg">
<g clip-path="url(#clip0_329_574)">
<rect width="70" height="70" rx="10" fill="url(#paint0_linear_329_574)"/>
<path d="M35.0006 7.74609C20.0046 7.74609 7.74658 20.0041 7.74658 35.0001C7.74658 49.9961 19.9426 62.2541 35.0006 62.2541C49.9956 62.2541 62.2536 49.9961 62.2536 35.0001C62.2536 20.0041 49.9956 7.74609 35.0006 7.74609ZM35.0006 59.7641C21.3736 59.7641 10.2366 48.6261 10.2366 35.0001C10.2366 21.3741 21.3116 10.2361 35.0006 10.2361C48.6276 10.2361 59.7646 21.3741 59.7646 35.0001C59.7646 48.6261 48.6266 59.7641 35.0006 59.7641Z" fill="#4F5052"/>
<path d="M35.0006 14.9648C23.9246 14.9648 14.9646 23.925 14.9646 35.0008C14.9646 46.0766 23.9869 55.0368 35.0006 55.0368C46.0756 55.0368 55.0366 46.0766 55.0366 35.0008C55.0366 23.925 46.0764 14.9648 35.0006 14.9648ZM35.0006 53.0448C25.0451 53.0448 16.9556 44.9557 16.9556 34.9998C16.9556 25.0439 25.0447 16.9548 35.0006 16.9548C44.9561 16.9548 53.0456 25.0439 53.0456 34.9998C53.0452 44.9553 44.9565 53.0448 35.0006 53.0448Z" fill="#4F5052"/>
<path d="M29.7677 40V31.632L27.9277 33.008L26.8877 31.392L30.2157 29.008H31.9597V40H29.7677ZM38.2818 40.128C37.0018 40.128 35.9671 39.632 35.1778 38.64C34.3991 37.6373 34.0098 36.2613 34.0098 34.512C34.0098 32.816 34.3938 31.456 35.1618 30.432C35.9298 29.3973 36.9698 28.88 38.2818 28.88C39.5831 28.88 40.6231 29.3813 41.4018 30.384C42.1805 31.3867 42.5698 32.7627 42.5698 34.512C42.5698 36.208 42.1858 37.568 41.4178 38.592C40.6498 39.616 39.6045 40.128 38.2818 40.128ZM36.7778 37.152C37.1511 37.792 37.6578 38.112 38.2978 38.112C38.9378 38.112 39.4391 37.8027 39.8018 37.184C40.1645 36.5547 40.3458 35.664 40.3458 34.512C40.3458 33.392 40.1645 32.512 39.8018 31.872C39.4391 31.232 38.9378 30.912 38.2978 30.912C37.6578 30.912 37.1511 31.2267 36.7778 31.856C36.4151 32.4747 36.2338 33.36 36.2338 34.512C36.2338 35.6213 36.4151 36.5013 36.7778 37.152Z" fill="#4F5052"/>
</g>
<defs>
<linearGradient id="paint0_linear_329_574" x1="35" y1="0" x2="35" y2="70" gradientUnits="userSpaceOnUse">
<stop stop-color="#F9CF56" stop-opacity="0.52"/>
<stop offset="1" stop-color="#F9CF56" stop-opacity="0.72"/>
</linearGradient>
<clipPath id="clip0_329_574">
<rect width="70" height="70" rx="10" fill="white"/>
</clipPath>
</defs>
</svg>
