<svg width="71" height="70" viewBox="0 0 71 70" fill="none" xmlns="http://www.w3.org/2000/svg">
<g clip-path="url(#clip0_329_504)">
<rect x="0.0742188" width="70" height="70" rx="10" fill="url(#paint0_linear_329_504)"/>
<path d="M35.0748 7.74609C20.0788 7.74609 7.8208 20.0041 7.8208 35.0001C7.8208 49.9961 20.0168 62.2541 35.0748 62.2541C50.0698 62.2541 62.3278 49.9961 62.3278 35.0001C62.3278 20.0041 50.0698 7.74609 35.0748 7.74609ZM35.0748 59.7641C21.4478 59.7641 10.3108 48.6261 10.3108 35.0001C10.3108 21.3741 21.3858 10.2361 35.0748 10.2361C48.7018 10.2361 59.8388 21.3741 59.8388 35.0001C59.8388 48.6261 48.7008 59.7641 35.0748 59.7641Z" fill="#4F5052"/>
<path d="M35.0748 14.9648C23.9988 14.9648 15.0388 23.925 15.0388 35.0008C15.0388 46.0766 24.0611 55.0368 35.0748 55.0368C46.1498 55.0368 55.1108 46.0766 55.1108 35.0008C55.1108 23.925 46.1506 14.9648 35.0748 14.9648ZM35.0748 53.0448C25.1193 53.0448 17.0298 44.9557 17.0298 34.9998C17.0298 25.0439 25.1189 16.9548 35.0748 16.9548C45.0303 16.9548 53.1198 25.0439 53.1198 34.9998C53.1194 44.9553 45.0307 53.0448 35.0748 53.0448Z" fill="#4F5052"/>
<path d="M34.5998 38.016H38.6158V40H31.4478L31.4158 38.576L34.8398 34.96C35.3412 34.416 35.7092 33.952 35.9438 33.568C36.1892 33.184 36.3118 32.7893 36.3118 32.384C36.3118 31.9573 36.1732 31.6053 35.8958 31.328C35.6185 31.04 35.2665 30.896 34.8398 30.896C34.0398 30.896 33.4052 31.2907 32.9358 32.08L31.3678 30.96C32.1252 29.5733 33.3412 28.88 35.0158 28.88C35.9758 28.88 36.7972 29.1787 37.4798 29.776C38.1625 30.3733 38.5038 31.1627 38.5038 32.144C38.5038 32.7947 38.3705 33.3973 38.1038 33.952C37.8478 34.496 37.3732 35.1253 36.6798 35.84L34.5998 37.984V38.016Z" fill="#4F5052"/>
</g>
<defs>
<linearGradient id="paint0_linear_329_504" x1="35.0742" y1="0" x2="35.0742" y2="70" gradientUnits="userSpaceOnUse">
<stop stop-color="#F9CF56" stop-opacity="0.52"/>
<stop offset="1" stop-color="#F9CF56" stop-opacity="0.72"/>
</linearGradient>
<clipPath id="clip0_329_504">
<rect x="0.0742188" width="70" height="70" rx="10" fill="white"/>
</clipPath>
</defs>
</svg>
