<svg width="20" height="22" viewBox="0 0 20 22" fill="none" xmlns="http://www.w3.org/2000/svg">
<path d="M6.94171 13.0557C7.25422 13.3214 7.69311 13.3812 8.06352 13.2096C8.43583 13.038 8.67402 12.6656 8.67402 12.2559V10.2453H10.6704C11.8542 10.2453 12.8186 11.2097 12.8186 12.3939C12.8186 13.5771 11.8542 14.5405 10.6704 14.5405H3.93739C3.35695 14.5405 2.88705 15.0104 2.88705 15.5908V20.6729C2.88705 21.2534 3.35697 21.7233 3.93739 21.7233H10.6707C15.8155 21.7233 20 17.5386 20 12.394C20 7.24943 15.8154 3.06382 10.6707 3.06382H8.67435V1.05457C8.67435 0.644774 8.43616 0.272462 8.06385 0.100876C7.6938 -0.0707351 7.25492 -0.0115954 6.94204 0.254715L0.369076 5.85586C0.134768 6.05591 0 6.34775 0 6.6551C0 6.96278 0.134768 7.25494 0.369076 7.45435L6.94171 13.0557ZM6.5736 3.32928V4.11495C6.5736 4.69539 7.04351 5.16529 7.62393 5.16529H10.6706C14.6571 5.16529 17.9 8.40845 17.9 12.395C17.9 16.3812 14.6571 19.6237 10.6706 19.6237L4.98705 19.624V16.642H10.67C13.0124 16.642 14.9183 14.7372 14.9183 12.3953C14.9183 10.0522 13.0125 8.14642 10.67 8.14642H7.62335C7.04291 8.14642 6.57302 8.61634 6.57302 9.19675V9.98275L2.66829 6.65651L6.5736 3.32928Z" fill="white"/>
</svg>
