<svg width="15" height="20" viewBox="0 0 15 20" fill="none" xmlns="http://www.w3.org/2000/svg">
<path d="M3.59999 5.72505C3.83868 5.72505 4.0676 5.63023 4.23638 5.46145C4.40517 5.29266 4.49999 5.06375 4.49999 4.82505C4.49999 4.58636 4.40517 4.35744 4.23638 4.18865C4.0676 4.01987 3.83868 3.92505 3.59999 3.92505C3.36129 3.92505 3.13237 4.01987 2.96359 4.18865C2.79481 4.35744 2.69999 4.58636 2.69999 4.82505C2.69999 5.06375 2.79481 5.29266 2.96359 5.46145C3.13237 5.63023 3.36129 5.72505 3.59999 5.72505ZM4.49999 8.42505C4.49999 8.66375 4.40517 8.89266 4.23638 9.06145C4.0676 9.23023 3.83868 9.32505 3.59999 9.32505C3.36129 9.32505 3.13237 9.23023 2.96359 9.06145C2.79481 8.89266 2.69999 8.66375 2.69999 8.42505C2.69999 8.18636 2.79481 7.95744 2.96359 7.78865C3.13237 7.61987 3.36129 7.52505 3.59999 7.52505C3.83868 7.52505 4.0676 7.61987 4.23638 7.78865C4.40517 7.95744 4.49999 8.18636 4.49999 8.42505ZM3.59999 12.9251C3.71818 12.9251 3.83521 12.9018 3.9444 12.8565C4.0536 12.8113 4.15281 12.745 4.23638 12.6614C4.31996 12.5779 4.38625 12.4787 4.43148 12.3695C4.47671 12.2603 4.49999 12.1432 4.49999 12.0251C4.49999 11.9069 4.47671 11.7898 4.43148 11.6806C4.38625 11.5714 4.31996 11.4722 4.23638 11.3887C4.15281 11.3051 4.0536 11.2388 3.9444 11.1936C3.83521 11.1483 3.71818 11.1251 3.59999 11.1251C3.36129 11.1251 3.13237 11.2199 2.96359 11.3887C2.79481 11.5574 2.69999 11.7864 2.69999 12.0251C2.69999 12.2637 2.79481 12.4927 2.96359 12.6614C3.13237 12.8302 3.36129 12.9251 3.59999 12.9251ZM8.09999 4.82505C8.09999 5.06375 8.00517 5.29266 7.83638 5.46145C7.6676 5.63023 7.43868 5.72505 7.19999 5.72505C6.96129 5.72505 6.73237 5.63023 6.56359 5.46145C6.39481 5.29266 6.29999 5.06375 6.29999 4.82505C6.29999 4.58636 6.39481 4.35744 6.56359 4.18865C6.73237 4.01987 6.96129 3.92505 7.19999 3.92505C7.43868 3.92505 7.6676 4.01987 7.83638 4.18865C8.00517 4.35744 8.09999 4.58636 8.09999 4.82505ZM7.19999 9.32505C7.43868 9.32505 7.6676 9.23023 7.83638 9.06145C8.00517 8.89266 8.09999 8.66375 8.09999 8.42505C8.09999 8.18636 8.00517 7.95744 7.83638 7.78865C7.6676 7.61987 7.43868 7.52505 7.19999 7.52505C6.96129 7.52505 6.73237 7.61987 6.56359 7.78865C6.39481 7.95744 6.29999 8.18636 6.29999 8.42505C6.29999 8.66375 6.39481 8.89266 6.56359 9.06145C6.73237 9.23023 6.96129 9.32505 7.19999 9.32505ZM8.09999 12.0251C8.09999 12.2637 8.00517 12.4927 7.83638 12.6614C7.6676 12.8302 7.43868 12.9251 7.19999 12.9251C6.96129 12.9251 6.73237 12.8302 6.56359 12.6614C6.39481 12.4927 6.29999 12.2637 6.29999 12.0251C6.29999 11.7864 6.39481 11.5574 6.56359 11.3887C6.73237 11.2199 6.96129 11.1251 7.19999 11.1251C7.43868 11.1251 7.6676 11.2199 7.83638 11.3887C8.00517 11.5574 8.09999 11.7864 8.09999 12.0251ZM10.8 12.9251C10.9182 12.9251 11.0352 12.9018 11.1444 12.8565C11.2536 12.8113 11.3528 12.745 11.4364 12.6614C11.52 12.5779 11.5862 12.4787 11.6315 12.3695C11.6767 12.2603 11.7 12.1432 11.7 12.0251C11.7 11.9069 11.6767 11.7898 11.6315 11.6806C11.5862 11.5714 11.52 11.4722 11.4364 11.3887C11.3528 11.3051 11.2536 11.2388 11.1444 11.1936C11.0352 11.1483 10.9182 11.1251 10.8 11.1251C10.5613 11.1251 10.3324 11.2199 10.1636 11.3887C9.99481 11.5574 9.89999 11.7864 9.89999 12.0251C9.89999 12.2637 9.99481 12.4927 10.1636 12.6614C10.3324 12.8302 10.5613 12.9251 10.8 12.9251ZM0.899988 19.5251C0.740858 19.5251 0.588246 19.4618 0.475724 19.3493C0.363202 19.2368 0.299988 19.0842 0.299988 18.9251V2.12505C0.299988 1.64766 0.48963 1.18982 0.827195 0.852258C1.16476 0.514693 1.6226 0.32505 2.09999 0.32505H9.29999C9.77738 0.32505 10.2352 0.514693 10.5728 0.852258C10.9103 1.18982 11.1 1.64766 11.1 2.12505V7.52505H12.9C13.3774 7.52505 13.8352 7.71469 14.1728 8.05226C14.5103 8.38982 14.7 8.84766 14.7 9.32505V18.9251C14.7 19.0842 14.6368 19.2368 14.5243 19.3493C14.4117 19.4618 14.2591 19.5251 14.1 19.5251H0.899988ZM1.49999 2.12505V18.3251H3.89999V15.3251C3.89999 15.1659 3.9632 15.0133 4.07572 14.9008C4.18825 14.7883 4.34086 14.7251 4.49999 14.7251H10.5C10.6591 14.7251 10.8117 14.7883 10.9243 14.9008C11.0368 15.0133 11.1 15.1659 11.1 15.3251V18.3251H13.5V9.32505C13.5 9.16592 13.4368 9.01331 13.3243 8.90079C13.2117 8.78826 13.0591 8.72505 12.9 8.72505H10.5C10.3409 8.72505 10.1882 8.66184 10.0757 8.54932C9.9632 8.43679 9.89999 8.28418 9.89999 8.12505V2.12505C9.89999 1.96592 9.83677 1.81331 9.72425 1.70079C9.61173 1.58826 9.45912 1.52505 9.29999 1.52505H2.09999C1.94086 1.52505 1.78825 1.58826 1.67572 1.70079C1.5632 1.81331 1.49999 1.96592 1.49999 2.12505ZM9.89999 15.9251H8.09999V18.3251H9.89999V15.9251ZM6.89999 15.9251H5.09999V18.3251H6.89999V15.9251Z" fill="#999999"/>
</svg>
