<svg width="42" height="42" viewBox="0 0 42 42" fill="none" xmlns="http://www.w3.org/2000/svg">
<rect x="0.5" y="0.5" width="41" height="41" rx="20.5" fill="white"/>
<g clip-path="url(#clip0_515_1129)">
<path d="M29.54 14.23L28.15 12.55C27.88 12.21 27.47 12 27 12H15C14.53 12 14.12 12.21 13.84 12.55L12.46 14.23C12.17 14.57 12 15.02 12 15.5V28C12 29.1 12.9 30 14 30H28C29.1 30 30 29.1 30 28V15.5C30 15.02 29.83 14.57 29.54 14.23ZM21 26.5L15.5 21H19V19H23V21H26.5L21 26.5ZM14.12 14L14.93 13H26.93L27.87 14H14.12Z" fill="#FF5353"/>
</g>
<rect x="0.5" y="0.5" width="41" height="41" rx="20.5" stroke="#FF5353"/>
<defs>
<clipPath id="clip0_515_1129">
<rect width="24" height="24" fill="white" transform="translate(9 9)"/>
</clipPath>
</defs>
</svg>
