<svg width="25" height="24" viewBox="0 0 25 24" fill="none" xmlns="http://www.w3.org/2000/svg">
<g clip-path="url(#clip0_566_755)">
<path d="M1.65778 3.79689C1.22653 3.90939 0.818719 4.25158 0.635906 4.66408C0.556219 4.84221 0.528094 4.99221 0.528094 5.29689C0.523406 5.65314 0.537469 5.71877 0.664031 5.94846C0.818719 6.22971 1.07184 6.46408 1.38591 6.61877C1.70934 6.77814 2.25778 6.76877 2.61872 6.60002C2.94684 6.45002 3.22341 6.16408 3.38747 5.82189C3.49528 5.59221 3.50934 5.51721 3.49059 5.20314C3.46716 4.79064 3.34059 4.49533 3.06403 4.20939C2.73122 3.86721 2.11247 3.68439 1.65778 3.79689Z" fill="#76C893"/>
<path d="M6.10159 3.81562C5.81565 3.90469 5.65159 4.00312 5.45002 4.20469C4.87815 4.76719 4.87815 5.72812 5.45002 6.3C5.55315 6.39844 5.75002 6.53906 5.89065 6.60469L6.14846 6.72656H14H21.8516L22.1141 6.60469C22.6625 6.34687 22.9766 5.85469 22.9766 5.25C22.9766 4.64531 22.6625 4.15312 22.1141 3.89531L21.8516 3.77344L14.0703 3.76406C7.88752 3.75937 6.25159 3.76875 6.10159 3.81562Z" fill="#76C893"/>
<path d="M1.60156 10.5609C1.30156 10.6593 1.14687 10.7578 0.940622 10.9781C0.584372 11.3484 0.448435 11.7937 0.55156 12.2718C0.62656 12.6375 0.734372 12.8343 0.992185 13.0734C1.27812 13.3359 1.55937 13.4531 1.97187 13.4859C2.27656 13.5093 2.34687 13.5 2.59062 13.3875C2.95156 13.2234 3.19531 12.9797 3.36406 12.6328C3.72031 11.8922 3.3875 11.0015 2.62344 10.6547C2.31406 10.514 1.87343 10.4718 1.60156 10.5609Z" fill="#76C893"/>
<path d="M5.9797 10.6125C5.55314 10.7859 5.31408 11.0156 5.13127 11.4234C4.98595 11.7375 4.99064 12.2578 5.13595 12.5953C5.27189 12.9047 5.65158 13.2656 5.96095 13.3875C6.19064 13.4766 6.41564 13.4766 14.7735 13.4766H23.3516L23.6094 13.3547C24.275 13.0359 24.6313 12.2906 24.4391 11.6203C24.2891 11.1094 23.886 10.6969 23.3938 10.5562C23.2485 10.5141 21.1016 10.5 14.7219 10.5H6.2422L5.9797 10.6125Z" fill="#76C893"/>
<path d="M1.60158 17.3109C1.31096 17.4093 1.14689 17.5078 0.954706 17.7046C0.350018 18.3046 0.382831 19.275 1.02502 19.8515C1.28752 20.0906 1.55471 20.1984 1.96721 20.2312C2.28127 20.2593 2.34221 20.25 2.59064 20.1375C2.95158 19.9734 3.19533 19.7296 3.36408 19.3828C3.54689 19.0031 3.55627 18.5203 3.38752 18.1546C3.08283 17.4984 2.23908 17.1 1.60158 17.3109Z" fill="#76C893"/>
<path d="M6.07814 17.3109C5.82501 17.3859 5.44532 17.6531 5.31407 17.8499C5.09376 18.164 5.02814 18.3749 5.03282 18.7499C5.03282 19.2093 5.15939 19.5093 5.48751 19.8187C5.95157 20.2593 5.47814 20.2265 11.3984 20.2265H16.6016L16.8594 20.1046C17.9094 19.6077 18.0453 18.1734 17.1078 17.5265C16.6906 17.2359 16.9438 17.2499 11.3563 17.2546C7.87345 17.2593 6.19064 17.2734 6.07814 17.3109Z" fill="#76C893"/>
</g>
<defs>
<clipPath id="clip0_566_755">
<rect width="24" height="24" fill="white" transform="translate(0.5)"/>
</clipPath>
</defs>
</svg>
