<svg width="60" height="40" viewBox="0 0 60 40" fill="none" xmlns="http://www.w3.org/2000/svg">
<path fill-rule="evenodd" clip-rule="evenodd" d="M16.128 9.03211C16.9591 9.03211 17.7562 9.36227 18.3439 9.94994C18.9316 10.5376 19.2617 11.3347 19.2617 12.1658C19.2617 12.9969 18.9316 13.7939 18.3439 14.3816C17.7562 14.9693 16.9591 15.2995 16.128 15.2995C15.2969 15.2995 14.4999 14.9693 13.9122 14.3816C13.3245 13.7939 12.9944 12.9969 12.9944 12.1658C12.9944 11.3347 13.3245 10.5376 13.9122 9.94994C14.4999 9.36227 15.2969 9.03211 16.128 9.03211ZM22.3954 12.1658C22.3954 10.5036 21.7351 8.90946 20.5597 7.7341C19.3844 6.55875 17.7902 5.89844 16.128 5.89844C14.4658 5.89844 12.8717 6.55875 11.6963 7.7341C10.521 8.90946 9.86068 10.5036 9.86068 12.1658C9.86068 13.828 10.521 15.4221 11.6963 16.5975C12.8717 17.7728 14.4658 18.4331 16.128 18.4331C17.7902 18.4331 19.3844 17.7728 20.5597 16.5975C21.7351 15.4221 22.3954 13.828 22.3954 12.1658ZM25.0684 26.0589C25.5118 26.5055 25.529 26.7499 25.529 26.8376V30.9678H6.72701V26.8376C6.72701 26.7499 6.74268 26.5055 7.18766 26.0589C7.65771 25.5842 8.44896 25.0655 9.54731 24.5861C11.7597 23.6162 14.4672 23.1336 16.128 23.1336C17.7889 23.1336 20.4964 23.6194 22.7087 24.5845C23.8071 25.064 24.5968 25.5842 25.0684 26.0589ZM16.128 20C20.3115 20 28.6627 22.2907 28.6627 26.8376V34.1015H3.59334V26.8376C3.59334 22.2907 11.9446 20 16.128 20Z" fill="#F9CF56"/>
<g clip-path="url(#clip0_944_982)">
<path fill-rule="evenodd" clip-rule="evenodd" d="M37.1627 12.5H40.1627V18.5H46.1627V21.5H40.1627V27.5H37.1627V21.5H31.1627V18.5H37.1627V12.5Z" fill="#F9CF56"/>
</g>
<defs>
<clipPath id="clip0_944_982">
<rect width="24" height="24" fill="white" transform="translate(26.6627 8)"/>
</clipPath>
</defs>
</svg>
