<svg width="42" height="41" viewBox="0 0 42 41" fill="none" xmlns="http://www.w3.org/2000/svg">
<g clip-path="url(#clip0_1635_648)">
<path d="M19.05 26.35H22.95V30.25H19.05V26.35ZM19.05 10.75H22.95V22.45H19.05V10.75ZM20.9805 1C10.2165 1 1.5 9.736 1.5 20.5C1.5 31.264 10.2165 40 20.9805 40C31.764 40 40.5 31.264 40.5 20.5C40.5 9.736 31.764 1 20.9805 1ZM21 36.1C12.381 36.1 5.4 29.119 5.4 20.5C5.4 11.881 12.381 4.9 21 4.9C29.619 4.9 36.6 11.881 36.6 20.5C36.6 29.119 29.619 36.1 21 36.1Z" fill="#FF5353"/>
</g>
<defs>
<clipPath id="clip0_1635_648">
<rect width="41" height="41" fill="white" transform="translate(0.5)"/>
</clipPath>
</defs>
</svg>
