<svg width="24" height="24" viewBox="0 0 24 24" fill="none" xmlns="http://www.w3.org/2000/svg">
<path d="M23.0625 8.28004V11.9053C23.0625 12.3376 22.7528 12.6878 22.3706 12.6878C22.212 12.6896 22.0601 12.7485 21.9462 12.8524C21.8199 12.9668 21.7339 13.1149 21.6998 13.2767L19.5238 22.9107C19.4453 23.2574 19.1694 23.4997 18.853 23.4997H4.27164C3.95566 23.4997 3.68102 23.2574 3.60129 22.9107L1.42524 13.2767C1.34677 12.9301 1.07087 12.6878 0.754457 12.6878C0.659911 12.686 0.566956 12.6646 0.482317 12.6249C0.397679 12.5853 0.323471 12.5285 0.265075 12.4585C0.13148 12.3017 0.0599073 12.1062 0.0625718 11.9053V8.28004C0.0625718 7.84775 0.372236 7.49756 0.754457 7.49756H6.58986L6.53797 7.58045C6.22325 8.08134 6.34349 8.77022 6.80587 9.11843C6.97761 9.25043 7.19237 9.32296 7.41421 9.32387C7.76816 9.32387 8.09639 9.13787 8.29214 8.82614L9.12704 7.49756H14.4448L14.6895 8.48904C14.811 8.98121 15.2303 9.32545 15.7092 9.32545C15.805 9.3259 15.9003 9.31252 15.9918 9.28579C16.5441 9.12359 16.8752 8.51165 16.7301 7.92191L16.6251 7.49756H22.3702C22.7528 7.49756 23.0625 7.84775 23.0625 8.28004Z" fill="#00A64F"/>
<path d="M11.674 2.66343L8.63647 7.4975L7.92857 8.62422C7.8096 8.81419 7.61722 8.92722 7.41387 8.92722C7.28771 8.92605 7.16583 8.88403 7.06878 8.80824C6.76925 8.58337 6.69246 8.11341 6.90003 7.78146L7.07848 7.4971L10.645 1.82067C10.6884 1.74571 10.7486 1.68053 10.8214 1.62964C10.8943 1.57875 10.9781 1.54339 11.0669 1.526C11.0977 1.52059 11.1289 1.51794 11.1601 1.51807C11.2866 1.51931 11.4087 1.56131 11.5061 1.63705C11.8107 1.86549 11.8862 2.32593 11.674 2.66343Z" fill="#00A64F"/>
<path d="M15.8659 8.90816C15.8151 8.92323 15.7622 8.93099 15.709 8.93116C15.4276 8.93116 15.177 8.71343 15.1002 8.40171L14.8779 7.49788L13.3815 1.4193C13.2848 1.02668 13.4882 0.626117 13.8346 0.523002C13.8855 0.50783 13.9385 0.500073 13.9919 0.5C14.0857 0.500505 14.1777 0.524312 14.2585 0.569007C14.3459 0.619743 14.4212 0.68678 14.4799 0.765977C14.5387 0.845173 14.5795 0.934845 14.5998 1.02945L16.1924 7.49788L16.319 8.01345C16.4143 8.40409 16.2127 8.80624 15.8659 8.90816Z" fill="#00A64F"/>
<path d="M15.8659 8.90816C15.8151 8.92323 15.7622 8.93099 15.709 8.93116C15.4276 8.93116 15.177 8.71343 15.1002 8.40171L14.8779 7.49788L13.3815 1.4193C13.2848 1.02668 13.4882 0.626117 13.8346 0.523002C13.8855 0.50783 13.9385 0.500073 13.9919 0.5C14.0857 0.500505 14.1777 0.524312 14.2585 0.569007C14.3459 0.619743 14.4212 0.68678 14.4799 0.765977C14.5387 0.845173 14.5795 0.934845 14.5998 1.02945L16.1924 7.49788L16.319 8.01345C16.4143 8.40409 16.2127 8.80624 15.8659 8.90816Z" fill="#00A64F"/>
<path d="M8.18501 21.4815L15.8803 19.7211C16.2206 19.6433 16.5244 19.4526 16.7421 19.18C16.9597 18.9074 17.0783 18.5691 17.0785 18.2205V17.9773C17.0786 17.749 17.0278 17.5235 16.9299 17.3172C16.832 17.1109 16.6893 16.9289 16.5123 16.7844C16.3353 16.6399 16.1283 16.5365 15.9064 16.4817C15.6844 16.427 15.4531 16.4221 15.229 16.4676L7.839 17.9646C7.63232 18.0065 7.41923 18.0057 7.21291 17.9621C7.00658 17.9185 6.81139 17.8331 6.63942 17.7112C6.46745 17.5892 6.32235 17.4334 6.21308 17.2533C6.10382 17.0731 6.03271 16.8725 6.00415 16.6639L5.99862 16.6224C5.94553 16.235 6.042 15.8419 6.26848 15.5229C6.49496 15.2039 6.83448 14.9829 7.21816 14.9046L15.9056 13.1316C16.2247 13.0664 16.4236 13.4665 16.1789 13.6813L7.90465 20.9338C7.65512 21.151 7.86352 21.555 8.18501 21.4815Z" fill="white"/>
<path d="M15.5311 12.6529C16.1551 12.6529 16.6609 12.1478 16.6609 11.5247C16.6609 10.9016 16.1551 10.3965 15.5311 10.3965C14.9072 10.3965 14.4014 10.9016 14.4014 11.5247C14.4014 12.1478 14.9072 12.6529 15.5311 12.6529Z" fill="white"/>
</svg>
