<svg width="56" height="40" viewBox="0 0 56 40" fill="none" xmlns="http://www.w3.org/2000/svg">
<path d="M1.96918 0.607709C1.67387 0.717084 1.25825 1.0124 0.919184 1.35146C-0.0761288 2.34677 0.000433738 0.771772 0.000433738 19.9999C0.000433738 39.2171 -0.0761288 37.653 0.908246 38.6483C1.93637 39.6765 -0.841753 39.578 28.0004 39.578C56.8426 39.578 54.0645 39.6765 55.0926 38.6483C56.0333 37.6968 56.0004 38.0686 56.0004 29.2749V21.6296L55.727 21.3671C55.3879 21.0171 54.9723 21.0171 54.6333 21.3671L54.3598 21.6296V29.2421C54.3598 37.6421 54.3926 37.2811 53.6708 37.7186C53.3317 37.9374 52.9161 37.9374 28.0223 37.9374C0.0660599 37.9374 2.30825 37.9921 1.85981 37.2483C1.64106 36.9093 1.64106 36.5702 1.64106 20.0218C1.64106 1.38427 1.58637 2.72958 2.33012 2.28115C2.66918 2.0624 3.08481 2.0624 28.0004 2.0624C52.9161 2.0624 53.3317 2.0624 53.6708 2.28115C54.3926 2.71865 54.3598 2.35771 54.3598 10.7577V18.3702L54.6333 18.6327C54.9723 18.9827 55.3879 18.9827 55.727 18.6327L56.0004 18.3702V10.7249C56.0004 1.93115 56.0333 2.30302 55.0926 1.35146C54.0645 0.323334 56.8536 0.421772 27.9567 0.432709C5.02075 0.432709 2.41762 0.454584 1.96918 0.607709Z" fill="#00A64F"/>
<path d="M6.95659 6.16416C6.35502 6.37197 6.00502 6.65635 5.72065 7.15947L5.46909 7.58604V20.0001V32.4142L5.72065 32.8517C5.99409 33.3329 6.50815 33.7267 7.09877 33.8907C7.66752 34.0438 27.366 34.0329 27.9456 33.8798C28.5472 33.7157 29.0503 33.311 29.3456 32.7642L29.5863 32.3048L29.6191 20.3282C29.641 11.8188 29.6081 8.1876 29.5206 7.76104C29.3675 6.99541 28.7222 6.31729 27.9785 6.13135C27.2894 5.95635 19.48 5.94541 19.1081 6.12041C18.8456 6.24072 18.5941 6.63447 18.5941 6.91885C18.5941 6.99541 18.6925 7.19229 18.8238 7.35635L19.0425 7.64072H23.2863C26.7753 7.64072 27.5628 7.67354 27.7378 7.79385C27.9456 7.94697 27.9456 8.19854 27.9785 18.4032C28.0003 29.4173 28.0222 29.0782 27.541 28.7063C27.4316 28.6298 25.8894 28.0063 24.1175 27.3173L20.891 26.0704V25.6438C20.891 25.2829 20.9675 25.1298 21.416 24.6595C22.0613 23.9704 22.455 23.3032 22.6847 22.5048C22.8488 21.947 22.9035 21.8813 23.2753 21.772C23.866 21.586 24.4894 21.0173 24.7847 20.3938C25.2003 19.5079 25.1128 18.7423 24.4894 17.7579L24.1503 17.211L24.1613 15.297C24.1722 14.247 24.1285 13.1313 24.0628 12.8251C23.855 11.8517 22.9253 11.0313 22.0394 11.0313C21.7441 11.0313 21.6566 10.9876 21.6566 10.8345C21.6566 10.736 21.5035 10.397 21.3285 10.0798C21.0769 9.63135 20.891 9.45635 20.4206 9.22666L19.83 8.94229L16.4503 8.9751L13.0706 9.00791L12.3816 9.37979C11.5285 9.83916 10.8066 10.6267 10.4785 11.447C10.2488 12.0267 10.2269 12.2235 10.2269 14.5313C10.2269 16.5329 10.2597 17.0579 10.391 17.3204C10.555 17.6267 10.5441 17.6813 10.2816 18.1954C9.57065 19.5845 10.2597 21.2688 11.7581 21.7829C12.1191 21.9142 12.1956 21.9907 12.2941 22.4173C12.5019 23.1938 12.9175 23.9376 13.541 24.6048C14.0222 25.1298 14.1097 25.2938 14.1097 25.6548V26.0813L10.7738 27.372C8.93627 28.0938 7.40502 28.7173 7.37221 28.772C7.3394 28.8157 7.27377 28.8595 7.20815 28.8595C7.0769 28.8595 7.0769 8.07822 7.21909 7.85947C7.30659 7.71729 7.96284 7.68447 11.6925 7.64072C15.9035 7.58604 16.0785 7.5751 16.2316 7.36729C16.5597 6.94072 16.4285 6.40479 15.9581 6.16416C15.5206 5.93447 7.6019 5.93447 6.95659 6.16416ZM19.8191 10.7798C19.9066 10.8892 20.0378 11.1517 20.1144 11.3595C20.3878 12.1798 20.8253 12.5298 21.755 12.661C22.4769 12.7595 22.5316 12.9126 22.5316 15.1001C22.5316 16.861 22.5206 16.9376 22.3128 16.9376C21.9847 16.9376 21.6894 16.5767 21.6019 16.0845C21.5144 15.5704 21.2847 15.3298 20.7925 15.2313C20.4644 15.1657 20.3988 15.2095 19.7644 15.8767C18.7691 16.9485 18.8019 16.9376 15.2144 16.9376C12.5238 16.9376 12.13 16.9157 11.9769 16.7626C11.8238 16.5985 11.8019 16.3032 11.8347 14.4329C11.8675 12.4642 11.8894 12.2563 12.1081 11.8298C12.3597 11.3595 12.8628 10.911 13.3441 10.7142C13.4972 10.6595 14.93 10.6048 16.6363 10.6048C19.3816 10.5938 19.666 10.6157 19.8191 10.7798ZM21.3285 19.6173C21.3285 21.8376 21.0222 22.8329 20.0706 23.7079C19.2722 24.4407 18.7253 24.6485 17.555 24.6485C16.6581 24.6485 16.4941 24.6157 15.8378 24.2876C14.9628 23.861 14.3175 23.172 14.0003 22.3407C13.8144 21.8376 13.7816 21.4876 13.7816 20.1642V18.5782H16.1113C18.6816 18.5782 19.2175 18.4907 19.9722 17.9438L20.3988 17.6267L20.8691 18.0204L21.3285 18.4032V19.6173ZM12.141 19.3438C12.141 19.9563 12.1081 20.0876 11.9878 20.0438C11.9003 20.011 11.7691 19.836 11.6925 19.661C11.5831 19.3767 11.5941 19.2673 11.7363 18.9501C12.0206 18.3704 12.141 18.4907 12.141 19.3438ZM23.3628 19.2454C23.4066 19.5298 23.3738 19.6938 23.1988 19.8907L22.98 20.1642L22.9691 19.3438C22.9691 18.611 22.991 18.5454 23.1331 18.6985C23.2316 18.786 23.33 19.0376 23.3628 19.2454ZM17.5003 26.2892C18.0144 26.2892 18.616 26.2454 18.8456 26.2017C19.2503 26.1142 19.2503 26.1142 19.2503 26.4642C19.2503 26.836 19.8519 27.547 20.1691 27.547C20.4425 27.547 20.3769 27.722 19.9941 28.0501C19.4581 28.4985 18.605 28.8485 17.8613 28.9251C16.9863 29.0235 15.8816 28.6954 15.1488 28.1267C14.6675 27.7657 14.6347 27.711 14.8206 27.6126C15.3238 27.3282 15.7503 26.8032 15.7503 26.4642C15.7503 26.1142 15.7503 26.1142 16.166 26.2017C16.3847 26.2454 16.9863 26.2892 17.5003 26.2892ZM13.4863 28.8267C15.5097 31.1126 19.2722 31.1782 21.3831 28.9579C21.7222 28.597 22.0285 28.3126 22.0722 28.3126C22.291 28.3126 26.666 30.0845 27.005 30.3142C27.6066 30.7188 28.0331 31.397 27.9456 31.8017C27.9019 31.9876 27.7816 32.1954 27.6722 32.2501C27.53 32.3267 23.9972 32.3485 17.391 32.3376C6.2894 32.3048 7.10971 32.3595 7.10971 31.6157C7.10971 31.3532 7.21909 31.1345 7.56909 30.7626C7.82065 30.4892 8.1269 30.2157 8.24721 30.1501C8.54252 29.986 12.8191 28.3235 12.9503 28.3126C13.005 28.3126 13.2456 28.5423 13.4863 28.8267Z" fill="#00A64F"/>
<path d="M33.3597 6.24007C32.605 6.62288 32.3754 7.16976 32.3754 8.56976C32.3754 9.86038 32.5941 10.4619 33.1629 10.8119C33.5129 11.0307 33.655 11.0307 41.8035 11.0088L50.0722 10.976L50.3675 10.7026C50.8925 10.2104 50.9691 9.93694 50.9691 8.53694C50.9691 7.10413 50.8597 6.79788 50.1707 6.28382C49.8644 6.05413 49.7769 6.05413 41.8582 6.02132L33.8519 5.99944L33.3597 6.24007ZM49.3285 8.51507V9.39007H41.6722H34.016V8.59163C34.016 8.14319 34.0488 7.74944 34.0925 7.71663C34.1254 7.67288 37.5707 7.64007 41.7488 7.64007H49.3285V8.51507Z" fill="#00A64F"/>
<path d="M32.6492 13.2184C32.3758 13.5246 32.3977 14.0496 32.693 14.345C32.9008 14.5528 33.0758 14.5856 34.0274 14.6184C35.3289 14.6731 35.8102 14.5965 36.1055 14.3012C36.3789 14.0278 36.368 13.5465 36.0945 13.2403C35.8867 13.0106 35.7664 12.9996 34.3555 12.9996C32.9883 12.9996 32.8242 13.0215 32.6492 13.2184Z" fill="#00A64F"/>
<path d="M38.1392 13.197C37.8767 13.4923 37.8986 14.1267 38.183 14.3783C38.4017 14.5751 38.6861 14.5861 44.122 14.6189C47.2502 14.6408 49.9845 14.6189 50.1814 14.5861C50.9033 14.4548 51.2205 13.6892 50.7502 13.2189C50.5314 13.0001 50.3892 13.0001 44.4283 13.0001C38.6423 13.0001 38.3033 13.0111 38.1392 13.197Z" fill="#00A64F"/>
<path d="M38.1728 16.7185C37.8774 17.0138 37.8884 17.6044 38.1837 17.8779C38.4024 18.0748 38.6649 18.0857 44.4837 18.0857H50.554L50.7618 17.8232C51.0353 17.4951 51.0243 17.0357 50.7509 16.7404L50.5212 16.4998H44.4618C38.5337 16.4998 38.3915 16.4998 38.1728 16.7185Z" fill="#00A64F"/>
<path d="M32.7255 20.1863C32.5943 20.2957 32.463 20.5144 32.4193 20.6785C32.3646 20.9191 32.4193 21.0503 32.6927 21.3238L33.0318 21.6628L34.4646 21.6191C35.8099 21.5863 35.9084 21.5753 36.1052 21.3238C36.3896 20.9738 36.3677 20.5253 36.0615 20.241C35.8318 20.0222 35.6896 20.0003 34.3771 20.0003C33.174 20.0003 32.9115 20.0332 32.7255 20.1863Z" fill="#00A64F"/>
<path d="M38.1719 20.2187C37.8437 20.5468 37.8765 21.1265 38.2484 21.4218C38.5328 21.6406 38.5875 21.6406 44.5484 21.6187L50.5531 21.5859L50.7609 21.3234C51.0453 20.9734 51.0234 20.5249 50.7172 20.2406L50.4656 19.9999H44.4281C38.5328 19.9999 38.3906 19.9999 38.1719 20.2187Z" fill="#00A64F"/>
<path d="M38.1718 23.719C37.8437 24.0471 37.8765 24.6268 38.2375 24.9112C38.5218 25.1409 38.6203 25.1409 44.4828 25.1409H50.4328L50.6953 24.8674C51.0453 24.5284 51.0562 24.0581 50.7171 23.7409L50.4656 23.5002H44.4281C38.5328 23.5002 38.3906 23.5002 38.1718 23.719Z" fill="#00A64F"/>
<path d="M32.7804 27.1198C32.2773 27.4151 32.332 28.2683 32.8788 28.5198C33.032 28.5854 33.721 28.6401 34.4648 28.6401C35.7116 28.6401 35.7882 28.6292 36.0398 28.3667C36.1929 28.2245 36.3132 27.9729 36.3132 27.8198C36.3132 27.6667 36.1929 27.4151 36.0398 27.2729C35.7882 27.0104 35.7226 26.9995 34.3773 26.9995C33.6007 26.9995 32.8898 27.0542 32.7804 27.1198Z" fill="#00A64F"/>
<path d="M38.1726 27.219C37.8445 27.5471 37.8773 28.1268 38.2382 28.4112C38.5226 28.6409 38.621 28.6409 44.4835 28.6409H50.4335L50.696 28.3674C51.046 28.0284 51.057 27.5581 50.7179 27.2409L50.4663 27.0002H44.4288C38.5335 27.0002 38.3913 27.0002 38.1726 27.219Z" fill="#00A64F"/>
<path d="M38.1938 30.7183C37.8438 31.0464 37.8657 31.6151 38.2376 31.9104C38.522 32.1401 38.6204 32.1401 44.4829 32.1401H50.4329L50.6954 31.8667C50.8485 31.7245 50.9688 31.4729 50.9688 31.3198C50.9688 31.1667 50.8485 30.9151 50.6954 30.7729L50.4329 30.4995H44.4282C38.5438 30.4995 38.4235 30.4995 38.1938 30.7183Z" fill="#00A64F"/>
</svg>
