<svg width="25" height="24" viewBox="0 0 25 24" fill="none" xmlns="http://www.w3.org/2000/svg">
<path fill-rule="evenodd" clip-rule="evenodd" d="M22.3892 11.5608V8.86669H18.6552C18.4877 9.62391 17.9459 10.2899 17.1299 10.5296L17.1282 10.5301C16.9324 10.5873 16.7295 10.6158 16.5262 10.6151C15.4852 10.6138 14.6488 9.87241 14.4144 8.92294L14.4005 8.86669H10.8814L10.428 9.58816C10.0363 10.2117 9.35555 10.6136 8.59457 10.6136H8.58976C8.12921 10.6117 7.6747 10.4622 7.30231 10.1776C6.86175 9.84408 6.58108 9.37329 6.46995 8.86669H2.7359V11.5583C3.405 11.7583 3.86907 12.338 4.01036 12.9622L6.01254 21.8263H19.1125L21.1131 12.9694C21.1995 12.5695 21.4106 12.2147 21.7055 11.9471C21.9048 11.7657 22.1394 11.6359 22.3892 11.5608ZM22.2591 13.2212L20.1776 22.4363C20.1026 22.7679 19.8387 22.9997 19.536 22.9997H5.58864C5.28639 22.9997 5.02369 22.7679 4.94743 22.4363L2.86599 13.2212C2.79093 12.8897 2.52702 12.6579 2.22437 12.6579C2.13394 12.6562 2.04502 12.6357 1.96406 12.5978C1.88311 12.5599 1.81212 12.5055 1.75627 12.4386C1.62848 12.2886 1.56002 12.1016 1.56257 11.9094V8.44181C1.56257 8.02832 1.85877 7.69336 2.22437 7.69336H7.80606L7.75643 7.77264C7.54632 8.10704 7.53888 8.52903 7.70393 8.86669C7.77535 9.01282 7.87909 9.14315 8.01268 9.24375C8.17695 9.37001 8.38238 9.43939 8.59457 9.44026C8.93314 9.44026 9.24709 9.26234 9.43433 8.96418L10.2329 7.69336H15.3195L15.5535 8.64173C15.6698 9.1125 16.0709 9.44177 16.5289 9.44177C16.6205 9.4422 16.7117 9.42941 16.7992 9.40384C17.0774 9.32213 17.297 9.12109 17.4222 8.86669C17.5348 8.63804 17.5711 8.36627 17.5054 8.09926L17.405 7.69336H22.9003C23.2663 7.69336 23.5625 8.02832 23.5625 8.44181V11.9094C23.5625 12.3229 23.2663 12.6579 22.9007 12.6579C22.7489 12.6596 22.6036 12.716 22.4947 12.8153C22.3739 12.9248 22.2916 13.0665 22.2591 13.2212ZM16.5262 10.6151L16.5234 10.6151L16.5289 9.44177V10.6151L16.5262 10.6151Z" fill="#7D7C83"/>
<path fill-rule="evenodd" clip-rule="evenodd" d="M8.10393 7.96517L11.6861 2.26357C11.7276 2.19187 11.7852 2.12952 11.8548 2.08084C11.9245 2.03217 12.0047 1.99834 12.0896 1.98171C12.1191 1.97654 12.1489 1.974 12.1788 1.97413C12.2997 1.97531 12.4165 2.01548 12.5097 2.08793C12.8011 2.30643 12.8733 2.74686 12.6703 3.06968L9.08776 8.77128C8.97396 8.95299 8.78994 9.0611 8.59544 9.0611C8.47476 9.05999 8.35818 9.0198 8.26535 8.9473C7.97884 8.73221 7.90539 8.28268 8.10393 7.96517Z" fill="#7D7C83"/>
<path d="M16.5364 8.56323L16.5377 8.56285C16.5533 8.55827 16.5828 8.54211 16.6077 8.49287C16.6326 8.44337 16.6435 8.3758 16.6264 8.30562C16.6264 8.30552 16.6264 8.30541 16.6264 8.3053L14.9822 1.62594L14.9804 1.61886L14.9789 1.61172C14.9747 1.59219 14.9659 1.5718 14.9513 1.55216C14.938 1.53413 14.9198 1.51687 14.8968 1.50241C14.894 1.5013 14.8901 1.50027 14.8853 1.50004C14.8827 1.50017 14.8804 1.5006 14.8785 1.50117L14.8784 1.50122C14.8611 1.50634 14.831 1.5236 14.8062 1.57263C14.7813 1.62178 14.7704 1.689 14.7878 1.75982L16.5364 8.56323ZM16.5364 8.56323C16.534 8.56395 16.5311 8.56445 16.5279 8.56454C16.5244 8.5644 16.5116 8.56282 16.4921 8.54583C16.4705 8.527 16.4449 8.4919 16.4318 8.43862C16.4318 8.4386 16.4318 8.43857 16.4318 8.43855L14.7878 1.75986L16.5364 8.56323Z" stroke="#7D7C83"/>
<path d="M9.54264 20.7206L16.4191 19.1476C16.7232 19.0781 16.9947 18.9076 17.1892 18.664C17.3837 18.4205 17.4896 18.1182 17.4898 17.8067V17.5893C17.4898 17.3853 17.4445 17.1838 17.357 16.9995C17.2695 16.8151 17.142 16.6525 16.9838 16.5234C16.8257 16.3943 16.6407 16.3019 16.4424 16.2529C16.2441 16.204 16.0373 16.1996 15.8371 16.2403L9.23345 17.578C9.04876 17.6154 8.85835 17.6147 8.67398 17.5757C8.4896 17.5367 8.31518 17.4604 8.16151 17.3515C8.00784 17.2426 7.87818 17.1033 7.78054 16.9423C7.6829 16.7814 7.61936 16.6021 7.59385 16.4157L7.5889 16.3786C7.54146 16.0324 7.62767 15.6811 7.83005 15.3961C8.03243 15.111 8.33582 14.9135 8.67867 14.8436L16.4417 13.2593C16.7269 13.201 16.9046 13.5585 16.6859 13.7505L9.29211 20.2312C9.06914 20.4253 9.25536 20.7863 9.54264 20.7206Z" fill="#7D7C83"/>
<path d="M16.1092 12.8307C16.6667 12.8307 17.1187 12.3794 17.1187 11.8226C17.1187 11.2658 16.6667 10.8145 16.1092 10.8145C15.5516 10.8145 15.0996 11.2658 15.0996 11.8226C15.0996 12.3794 15.5516 12.8307 16.1092 12.8307Z" fill="#7D7C83"/>
</svg>
