<svg width="61" height="40" viewBox="0 0 61 40" fill="none" xmlns="http://www.w3.org/2000/svg">
<path fill-rule="evenodd" clip-rule="evenodd" d="M16.6282 9.03211C17.4593 9.03211 18.2563 9.36227 18.844 9.94994C19.4317 10.5376 19.7618 11.3347 19.7618 12.1658C19.7618 12.9969 19.4317 13.7939 18.844 14.3816C18.2563 14.9693 17.4593 15.2995 16.6282 15.2995C15.797 15.2995 15 14.9693 14.4123 14.3816C13.8246 13.7939 13.4945 12.9969 13.4945 12.1658C13.4945 11.3347 13.8246 10.5376 14.4123 9.94994C15 9.36227 15.797 9.03211 16.6282 9.03211ZM22.8955 12.1658C22.8955 10.5036 22.2352 8.90946 21.0598 7.7341C19.8845 6.55875 18.2904 5.89844 16.6282 5.89844C14.9659 5.89844 13.3718 6.55875 12.1965 7.7341C11.0211 8.90946 10.3608 10.5036 10.3608 12.1658C10.3608 13.828 11.0211 15.4221 12.1965 16.5975C13.3718 17.7728 14.9659 18.4331 16.6282 18.4331C18.2904 18.4331 19.8845 17.7728 21.0598 16.5975C22.2352 15.4221 22.8955 13.828 22.8955 12.1658ZM25.5685 26.0589C26.0119 26.5055 26.0292 26.7499 26.0292 26.8376V30.9678H7.22713V26.8376C7.22713 26.7499 7.2428 26.5055 7.68778 26.0589C8.15783 25.5842 8.94909 25.0655 10.0474 24.5861C12.2598 23.6162 14.9673 23.1336 16.6282 23.1336C18.289 23.1336 20.9965 23.6194 23.2089 24.5845C24.3072 25.064 25.0969 25.5842 25.5685 26.0589ZM16.6282 20C20.8116 20 29.1628 22.2907 29.1628 26.8376V34.1015H4.09346V26.8376C4.09346 22.2907 12.4447 20 16.6282 20Z" fill="#F9CF56"/>
<path fill-rule="evenodd" clip-rule="evenodd" d="M29.9051 27.7158C29.9051 27.0299 30.2334 26.3862 30.8114 25.9303C31.3603 25.4973 32.2229 25.1614 33.5523 25.1614H51.7881V22.6071H33.5523C31.2345 22.6071 29.3617 23.2291 28.087 24.2329C26.8415 25.2138 26.2579 26.4859 26.2579 27.7158V34.1016H29.9051V27.7158Z" fill="#F9CF56"/>
<path fill-rule="evenodd" clip-rule="evenodd" d="M54.5308 24.0126L48.1314 16.4646L46.5458 18.3348L51.3597 24.0126L46.5458 29.6904L48.1314 31.5605L54.5308 24.0126Z" fill="#F9CF56"/>
</svg>
