<svg width="25" height="25" viewBox="0 0 25 25" fill="none" xmlns="http://www.w3.org/2000/svg">
<path d="M21.8537 9.04648L15.8581 8.13401L13.1779 2.44408C13.1047 2.28829 12.9842 2.16218 12.8355 2.08552C12.4624 1.89264 12.009 2.05337 11.8224 2.44408L9.14222 8.13401L3.14661 9.04648C2.98131 9.0712 2.83018 9.15281 2.71447 9.27645C2.57458 9.42701 2.4975 9.62956 2.50016 9.83961C2.50281 10.0497 2.58499 10.25 2.72864 10.3966L7.06654 14.8254L6.04169 21.0792C6.01766 21.2246 6.03303 21.3743 6.08607 21.511C6.1391 21.6478 6.22768 21.7663 6.34175 21.8531C6.45583 21.9398 6.59083 21.9914 6.73146 22.0019C6.87209 22.0124 7.01271 21.9814 7.13738 21.9125L12.5001 18.96L17.8629 21.9125C18.0093 21.9941 18.1793 22.0213 18.3423 21.9916C18.7531 21.9174 19.0294 21.5094 18.9586 21.0792L17.9337 14.8254L22.2716 10.3966C22.3897 10.2755 22.4676 10.1172 22.4913 9.9441C22.555 9.51136 22.2669 9.11077 21.8537 9.04648Z" fill="#00A64F"/>
</svg>
