<svg width="24" height="25" viewBox="0 0 24 25" fill="none" xmlns="http://www.w3.org/2000/svg">
<path d="M1.92183 1.61484C1.76714 1.69453 1.68276 1.77891 1.60308 1.93359C1.54683 2.05078 1.15776 3.50391 0.745265 5.16797C0.0140146 8.10703 -0.00942283 8.20078 0.0187022 8.54766C0.0562022 9.02578 0.206202 9.56953 0.403077 9.96797C0.62339 10.4086 0.707765 10.5211 1.13433 10.9617L1.49995 11.3367L1.50933 16.6852C1.52339 22.0055 1.52339 22.0383 1.62183 22.1648C1.67339 22.2352 1.77651 22.3383 1.84683 22.3898C1.97339 22.4883 2.0062 22.4883 5.99995 22.4883C9.9937 22.4883 10.0265 22.4883 10.1531 22.3898C10.2234 22.3383 10.3265 22.2352 10.3781 22.1648C10.4765 22.0383 10.4765 21.982 10.4906 19.2727L10.5 16.5117H12H13.5L13.5093 19.2727C13.5234 21.982 13.5234 22.0383 13.6218 22.1648C13.6734 22.2352 13.7765 22.3383 13.8468 22.3898C13.9734 22.4883 14.0062 22.4883 18 22.4883C21.9937 22.4883 22.0265 22.4883 22.1531 22.3898C22.2234 22.3383 22.3265 22.2352 22.3781 22.1648C22.4765 22.0383 22.4765 22.0055 22.4906 16.6852L22.5 11.3367L22.8656 10.9617C23.2921 10.5211 23.3765 10.4086 23.5968 9.96797C23.7937 9.56953 23.9437 9.02578 23.9812 8.54766C24.0093 8.20078 23.9859 8.10703 23.2546 5.16797C22.8421 3.50391 22.4531 2.05078 22.3968 1.93359C22.3171 1.77891 22.2328 1.69453 22.0781 1.61484L21.8718 1.51172H12H2.12808L1.92183 1.61484ZM21.8343 5.69765C22.4765 8.27109 22.5046 8.39766 22.4625 8.64141C22.2796 9.62578 21.6375 10.3055 20.7328 10.4742C20.1328 10.5867 19.4671 10.343 19.0125 9.85078C18.6046 9.41484 18.464 9.07734 18.3796 8.33672C18.314 7.76953 18.0937 7.53516 17.625 7.53516C17.1562 7.53516 16.9359 7.76953 16.8703 8.33672C16.7859 9.07734 16.6453 9.41484 16.2375 9.85078C15.7828 10.343 15.1171 10.5867 14.5218 10.4742C14.0765 10.3898 13.6921 10.1789 13.3875 9.85078C12.9796 9.41484 12.839 9.07734 12.7546 8.33672C12.689 7.76953 12.4687 7.53516 12 7.53516C11.5312 7.53516 11.3109 7.76953 11.2453 8.33672C11.1609 9.07734 11.0203 9.41484 10.6125 9.85078C10.3078 10.1789 9.92339 10.3898 9.47808 10.4742C8.88276 10.5867 8.21714 10.343 7.76245 9.85078C7.35464 9.41484 7.21401 9.07734 7.12964 8.33672C7.06401 7.76953 6.8437 7.53516 6.37495 7.53516C5.9062 7.53516 5.68589 7.76953 5.62026 8.33672C5.53589 9.07734 5.39526 9.41484 4.98745 9.85078C4.53276 10.343 3.86714 10.5867 3.27183 10.4742C2.36245 10.3055 1.72026 9.62578 1.53745 8.64141C1.49526 8.39766 1.52339 8.27109 2.16558 5.69765L2.83589 3.01172H12H21.164L21.8343 5.69765ZM6.69839 10.9242C8.10464 12.368 10.275 12.368 11.6859 10.9148L12 10.5914L12.3187 10.9148C13.7296 12.368 15.8953 12.368 17.3109 10.9148L17.625 10.5914L17.9437 10.9195C18.6703 11.6695 19.6734 12.068 20.6343 11.9977L21 11.9695V16.4883V21.0117H18H15L14.9906 18.2508C14.9765 15.5414 14.9765 15.4852 14.8781 15.3586C14.8265 15.2883 14.7234 15.1852 14.6531 15.1336C14.5265 15.0352 14.475 15.0352 12 15.0352C9.52495 15.0352 9.47339 15.0352 9.34683 15.1336C9.27652 15.1852 9.17339 15.2883 9.12183 15.3586C9.02339 15.4852 9.02339 15.5414 9.00933 18.2508L8.99995 21.0117H5.99995H2.99995V16.4883V11.9695L3.36558 11.9977C4.32183 12.068 5.33901 11.6648 6.04683 10.9242C6.21558 10.7508 6.36089 10.6055 6.37026 10.6055C6.37964 10.6055 6.52964 10.7508 6.69839 10.9242Z" fill="#F4A259"/>
</svg>
