<svg width="52" height="52" viewBox="0 0 52 52" fill="none" xmlns="http://www.w3.org/2000/svg">
<path d="M38.4334 7C44.6563 7 48.3334 10.5593 48.3334 16.602V16.6691H40.6869C37.1285 16.6753 34.2458 19.4753 34.2394 22.9317C34.2346 26.3958 37.1205 29.2083 40.6869 29.213H48.3399V29.7633C48.3399 35.8061 44.6627 39.3794 38.4399 39.3794H22.1276C15.9032 39.3794 12.226 35.8061 12.226 29.7633V16.602C12.226 10.5593 15.9032 7 22.1276 7H38.4334Z" fill="#A66658"/>
<path d="M37.5733 23.7234C37.951 25.4344 39.4568 26.6382 41.176 26.6069H47.0444C47.7597 26.6069 48.34 26.0168 48.34 25.2873V20.7334C48.3384 20.0054 47.7597 19.4137 47.0444 19.4121H41.0379C39.0823 19.4184 37.5027 21.0355 37.5058 23.0283C37.5058 23.2616 37.5288 23.4948 37.5733 23.7234Z" fill="#F7BC0D"/>
<path d="M41.1167 24.8086C42.1139 24.8086 42.9224 24.0033 42.9224 23.0098C42.9224 22.0163 42.1139 21.2109 41.1167 21.2109C40.1194 21.2109 39.311 22.0163 39.311 23.0098C39.311 24.0033 40.1194 24.8086 41.1167 24.8086Z" fill="#200E32"/>
<path d="M12.226 30.61V16.3597C19.6778 28.5134 25.9485 33.2091 39.3114 39.3794H21.0288C16.1671 39.3794 12.226 35.4532 12.226 30.61Z" fill="#975446"/>
<g clip-path="url(#clip0_174_1496)">
<path d="M19.5052 42.5355C27.6592 42.5355 34.2693 35.9504 34.2693 27.8273C34.2693 19.7042 27.6592 13.1191 19.5052 13.1191C11.3512 13.1191 4.74106 19.7042 4.74106 27.8273C4.74106 35.9504 11.3512 42.5355 19.5052 42.5355Z" fill="#4CB966"/>
<path d="M19.5051 40.8011C26.6976 40.8011 32.5282 34.9926 32.5282 27.8274C32.5282 20.6622 26.6976 14.8536 19.5051 14.8536C12.3127 14.8536 6.48209 20.6622 6.48209 27.8274C6.48209 34.9926 12.3127 40.8011 19.5051 40.8011Z" fill="#A1E5AC"/>
<path d="M19.5052 44.27V40.8011C26.6859 40.8011 32.5282 34.9816 32.5282 27.8274C32.5282 20.6731 26.6859 14.8536 19.5052 14.8536V11.3847C22.7696 11.3847 25.9608 12.349 28.6751 14.1558C31.3894 15.9626 33.5049 18.5307 34.7541 21.5352C36.0033 24.5398 36.3301 27.8459 35.6932 31.0355C35.0563 34.2251 33.4842 37.1549 31.1758 39.4545C29.6467 40.986 27.8279 42.2002 25.8246 43.0268C23.8214 43.8533 21.6734 44.2759 19.5052 44.27Z" fill="url(#paint0_linear_174_1496)"/>
<path d="M19.5049 11.3847V14.8536C12.3241 14.8536 6.48183 20.6738 6.48183 27.8274C6.48183 34.9809 12.3241 40.8011 19.5049 40.8011V44.27C16.2402 44.2703 13.0488 43.3061 10.3342 41.4993C7.61967 39.6926 5.50394 37.1244 4.25461 34.1197C3.00528 31.1149 2.67847 27.8086 3.31553 24.6188C3.95259 21.429 5.52489 18.4991 7.83358 16.1996C9.36287 14.6682 11.1818 13.4541 13.1852 12.6277C15.1886 11.8012 17.3366 11.3787 19.5049 11.3847Z" fill="url(#paint1_linear_174_1496)"/>
<path d="M14.8275 35.6698L25.6932 33.1992C26.1742 33.0914 26.6041 32.8244 26.9124 32.4419C27.2207 32.0595 27.389 31.5843 27.3898 31.0944V30.755C27.3886 30.4352 27.316 30.1196 27.1774 29.8309C27.0387 29.5422 26.8374 29.2877 26.5879 29.0855C26.3381 28.8822 26.0458 28.7368 25.7323 28.6599C25.4188 28.5829 25.0919 28.5763 24.7755 28.6406L14.3414 30.736C14.05 30.7954 13.7494 30.7947 13.4582 30.734C13.167 30.6732 12.8915 30.5537 12.6488 30.3828C12.406 30.2119 12.2012 29.9933 12.047 29.7405C11.8928 29.4877 11.7924 29.2062 11.7523 28.9133L11.7456 28.8561C11.6709 28.3122 11.8075 27.7604 12.1276 27.3129C12.4476 26.8655 12.9272 26.5559 13.4688 26.4471L25.7345 23.9611C25.8313 23.9417 25.9319 23.9546 26.0207 23.9978C26.1095 24.0409 26.1814 24.1119 26.2254 24.1998C26.2695 24.2877 26.2831 24.3876 26.2642 24.4839C26.2453 24.5803 26.195 24.6678 26.121 24.7329L14.4277 34.901C14.3522 34.9666 14.301 35.0554 14.2823 35.1533C14.2635 35.2512 14.2784 35.3525 14.3244 35.4411C14.3705 35.5296 14.445 35.6002 14.5362 35.6417C14.6274 35.6832 14.73 35.6931 14.8275 35.6698Z" fill="#00A64F"/>
<path d="M25.396 23.324C25.7077 23.3232 26.0123 23.2274 26.2711 23.0486C26.5299 22.8697 26.7315 22.616 26.8503 22.3193C26.9691 22.0226 26.9998 21.6963 26.9385 21.3817C26.8773 21.067 26.7268 20.7781 26.5061 20.5515C26.2854 20.3248 26.0045 20.1706 25.6987 20.1082C25.3929 20.0459 25.076 20.0783 24.7881 20.2013C24.5001 20.3242 24.2541 20.5323 24.0809 20.7992C23.9078 21.066 23.8154 21.3797 23.8154 21.7006C23.8155 21.9141 23.8565 22.1255 23.936 22.3226C24.0155 22.5198 24.132 22.6988 24.2788 22.8496C24.4256 23.0004 24.5998 23.1199 24.7915 23.2013C24.9832 23.2827 25.1886 23.3244 25.396 23.324Z" fill="#00A64F"/>
</g>
<defs>
<linearGradient id="paint0_linear_174_1496" x1="24.7555" y1="26.8956" x2="15.7048" y2="42.1425" gradientUnits="userSpaceOnUse">
<stop offset="0.02" stop-color="#4CB966"/>
<stop offset="0.28" stop-color="#59BE71" stop-opacity="0.96"/>
<stop offset="0.54" stop-color="#80CD92" stop-opacity="0.86"/>
<stop offset="0.8" stop-color="#C0E6C9" stop-opacity="0.68"/>
<stop offset="1" stop-color="white" stop-opacity="0.5"/>
</linearGradient>
<linearGradient id="paint1_linear_174_1496" x1="14.2539" y1="28.7598" x2="23.3045" y2="13.5129" gradientUnits="userSpaceOnUse">
<stop offset="0.02" stop-color="#4CB966"/>
<stop offset="0.28" stop-color="#59BE71" stop-opacity="0.96"/>
<stop offset="0.54" stop-color="#80CD92" stop-opacity="0.86"/>
<stop offset="0.8" stop-color="#C0E6C9" stop-opacity="0.68"/>
<stop offset="1" stop-color="white" stop-opacity="0.5"/>
</linearGradient>
<clipPath id="clip0_174_1496">
<rect width="33.0103" height="32.8853" fill="white" transform="translate(3 11.3847)"/>
</clipPath>
</defs>
</svg>
