<svg width="52" height="52" viewBox="0 0 52 52" fill="none" xmlns="http://www.w3.org/2000/svg">
<path d="M38.4338 7C44.6566 7 48.3338 10.5592 48.3338 16.602V16.6691H40.6873C37.1289 16.6753 34.2462 19.4753 34.2398 22.9317C34.235 26.3958 37.1209 29.2083 40.6873 29.213H48.3402V29.7633C48.3402 35.8061 44.663 39.3794 38.4402 39.3794H22.128C15.9036 39.3794 12.2265 35.8061 12.2265 29.7633V16.602C12.2265 10.5592 15.9036 7 22.128 7H38.4338Z" fill="#A66658"/>
<path d="M37.5728 23.7234C37.9504 25.4344 39.4563 26.6382 41.1755 26.6069H47.0438C47.7592 26.6069 48.3394 26.0167 48.3394 25.2872V20.7334C48.3379 20.0054 47.7592 19.4137 47.0438 19.4121H41.0373C39.0817 19.4184 37.5022 21.0355 37.5053 23.0283C37.5053 23.2616 37.5283 23.4948 37.5728 23.7234Z" fill="#F7BC0D"/>
<path d="M41.1171 24.8086C42.1144 24.8086 42.9228 24.0033 42.9228 23.0098C42.9228 22.0163 42.1144 21.2109 41.1171 21.2109C40.1199 21.2109 39.3114 22.0163 39.3114 23.0098C39.3114 24.0033 40.1199 24.8086 41.1171 24.8086Z" fill="#200E32"/>
<path d="M12.2266 30.6099V16.3596C19.6783 28.5133 25.949 33.209 39.3118 39.3793H21.0293C16.1677 39.3793 12.2266 35.4531 12.2266 30.6099Z" fill="#975446"/>
<g clip-path="url(#clip0_174_978)">
<path d="M19.5051 42.5355C27.6591 42.5355 34.2692 35.9504 34.2692 27.8273C34.2692 19.7042 27.6591 13.1191 19.5051 13.1191C11.3511 13.1191 4.74106 19.7042 4.74106 27.8273C4.74106 35.9504 11.3511 42.5355 19.5051 42.5355Z" fill="#4CB966"/>
<path d="M19.5051 40.7893C26.6975 40.7893 32.5281 34.9808 32.5281 27.8156C32.5281 20.6504 26.6975 14.8419 19.5051 14.8419C12.3127 14.8419 6.48209 20.6504 6.48209 27.8156C6.48209 34.9808 12.3127 40.7893 19.5051 40.7893Z" fill="#A1E5AC"/>
<path d="M19.5051 44.27V40.8011C26.6859 40.8011 32.5281 34.9816 32.5281 27.8273C32.5281 20.6731 26.6859 14.8536 19.5051 14.8536V11.3847C22.7696 11.3847 25.9607 12.349 28.675 14.1558C31.3893 15.9626 33.5048 18.5307 34.754 21.5352C36.0032 24.5398 36.33 27.8459 35.6931 31.0355C35.0561 34.2251 33.4841 37.1549 31.1757 39.4544C29.6466 40.986 27.8278 42.2001 25.8245 43.0267C23.8213 43.8533 21.6734 44.2759 19.5051 44.27Z" fill="url(#paint0_linear_174_978)"/>
<path d="M19.5046 11.3847V14.8536C12.3238 14.8536 6.48157 20.6738 6.48157 27.8273C6.48157 34.9809 12.3238 40.8011 19.5046 40.8011V44.27C16.2399 44.2703 13.0485 43.3061 10.334 41.4993C7.61941 39.6925 5.50368 37.1244 4.25436 34.1196C3.00503 31.1149 2.67823 27.8086 3.31529 24.6188C3.95234 21.429 5.52464 18.4991 7.83332 16.1996C9.3626 14.6682 11.1815 13.4541 13.1849 12.6277C15.1883 11.8012 17.3362 11.3787 19.5046 11.3847Z" fill="url(#paint1_linear_174_978)"/>
<path d="M16.125 26.5C18.4722 26.5 20.375 24.5972 20.375 22.25C20.375 19.9028 18.4722 18 16.125 18C13.7778 18 11.875 19.9028 11.875 22.25C11.875 24.5972 13.7778 26.5 16.125 26.5Z" fill="#00A64F"/>
<path d="M16.125 27.9167C12.6058 27.9206 9.75392 30.7725 9.75 34.2917C9.75 34.6829 10.0671 35 10.4583 35H21.7916C22.1828 35 22.5 34.6829 22.5 34.2917C22.4961 30.7725 19.6442 27.9206 16.125 27.9167Z" fill="#00A64F"/>
<path d="M25.6165 25.0191V26.8627H28.9397V28.032H25.6165V29.9809H29.364V31.1818H23.6367V23.8182H29.364V25.0191H25.6165Z" fill="#00A64F"/>
<path fill-rule="evenodd" clip-rule="evenodd" d="M16.05 34L18.05 31.5228L17.3296 28.02C17.0423 27.9822 16.8729 27.9604 16.55 27.92L17.2304 31.4262L16.05 32.8883L14.8695 31.4262L15.55 27.95C15.2213 27.987 15.0331 28.0142 14.7214 28.07L14.05 31.5228L16.05 34Z" fill="#A1E5AC"/>
</g>
<defs>
<linearGradient id="paint0_linear_174_978" x1="24.7554" y1="26.8956" x2="15.7047" y2="42.1425" gradientUnits="userSpaceOnUse">
<stop offset="0.02" stop-color="#4CB966"/>
<stop offset="0.28" stop-color="#59BE71" stop-opacity="0.96"/>
<stop offset="0.54" stop-color="#80CD92" stop-opacity="0.86"/>
<stop offset="0.8" stop-color="#C0E6C9" stop-opacity="0.68"/>
<stop offset="1" stop-color="white" stop-opacity="0.5"/>
</linearGradient>
<linearGradient id="paint1_linear_174_978" x1="14.2536" y1="28.7598" x2="23.3042" y2="13.5129" gradientUnits="userSpaceOnUse">
<stop offset="0.02" stop-color="#4CB966"/>
<stop offset="0.28" stop-color="#59BE71" stop-opacity="0.96"/>
<stop offset="0.54" stop-color="#80CD92" stop-opacity="0.86"/>
<stop offset="0.8" stop-color="#C0E6C9" stop-opacity="0.68"/>
<stop offset="1" stop-color="white" stop-opacity="0.5"/>
</linearGradient>
<clipPath id="clip0_174_978">
<rect width="33.0102" height="32.8853" fill="white" transform="translate(3 11.3847)"/>
</clipPath>
</defs>
</svg>
