<svg width="320" height="100" viewBox="0 0 320 100" fill="none" xmlns="http://www.w3.org/2000/svg">
<rect x="0.5" y="0.5" width="319" height="99" rx="4.5" fill="#F6F6F6" stroke="#2C3348" stroke-dasharray="2.5 2.5"/>
<path d="M74.914 73.096C73.5913 73.096 72.53 72.68 71.73 71.848C70.93 71.0053 70.53 69.848 70.53 68.376V61.64H71.922V68.28C71.922 69.336 72.194 70.184 72.738 70.824C73.282 71.4533 74.0073 71.768 74.914 71.768C75.8207 71.768 76.5513 71.4587 77.106 70.84C77.6607 70.2107 77.938 69.3573 77.938 68.28V61.64H79.33V68.376C79.33 69.8373 78.93 70.9893 78.13 71.832C77.3407 72.6747 76.2687 73.096 74.914 73.096ZM83.185 66.36C83.857 65.528 84.7423 65.112 85.841 65.112C86.9397 65.112 87.8463 65.5013 88.561 66.28C89.2863 67.048 89.649 68.008 89.649 69.16C89.649 70.3333 89.2863 71.2827 88.561 72.008C87.8357 72.7333 86.929 73.096 85.841 73.096C84.7317 73.096 83.8463 72.68 83.185 71.848H83.153V76.168H81.873V65.208H83.169V66.36H83.185ZM85.713 71.912C86.4917 71.912 87.121 71.656 87.601 71.144C88.0917 70.6213 88.337 69.96 88.337 69.16C88.337 68.3067 88.0863 67.6187 87.585 67.096C87.0837 66.5733 86.4543 66.312 85.697 66.312C84.961 66.312 84.3477 66.5893 83.857 67.144C83.3663 67.688 83.121 68.36 83.121 69.16C83.121 69.96 83.377 70.6213 83.889 71.144C84.401 71.656 85.009 71.912 85.713 71.912ZM91.7503 73V61.224H93.0463V73H91.7503ZM99.1903 73.096C97.9956 73.096 97.0249 72.7173 96.2783 71.96C95.5316 71.2027 95.1583 70.2533 95.1583 69.112C95.1583 67.9707 95.5316 67.0213 96.2783 66.264C97.0249 65.496 97.9956 65.112 99.1903 65.112C100.342 65.112 101.297 65.4853 102.054 66.232C102.812 66.9787 103.19 67.9387 103.19 69.112C103.19 70.2853 102.812 71.2453 102.054 71.992C101.297 72.728 100.342 73.096 99.1903 73.096ZM99.1903 71.912C99.9476 71.912 100.582 71.6507 101.094 71.128C101.617 70.5947 101.878 69.9227 101.878 69.112C101.878 68.2907 101.622 67.6187 101.11 67.096C100.598 66.5733 99.9583 66.312 99.1903 66.312C98.3903 66.312 97.7343 66.584 97.2223 67.128C96.7209 67.6613 96.4703 68.3227 96.4703 69.112C96.4703 69.9013 96.7209 70.568 97.2223 71.112C97.7343 71.6453 98.3903 71.912 99.1903 71.912ZM111.233 65.208H112.529V73H111.281V71.768H111.265C110.604 72.6533 109.697 73.096 108.545 73.096C107.446 73.096 106.534 72.7333 105.809 72.008C105.084 71.2827 104.721 70.3333 104.721 69.16C104.721 68.008 105.078 67.048 105.793 66.28C106.518 65.5013 107.43 65.112 108.529 65.112C109.638 65.112 110.534 65.5333 111.217 66.376H111.233V65.208ZM108.657 71.912C109.382 71.912 110.001 71.656 110.513 71.144C111.025 70.6213 111.281 69.96 111.281 69.16C111.281 68.36 111.03 67.688 110.529 67.144C110.038 66.5893 109.42 66.312 108.673 66.312C107.926 66.312 107.297 66.5787 106.785 67.112C106.284 67.6347 106.033 68.3173 106.033 69.16C106.033 69.96 106.273 70.6213 106.753 71.144C107.244 71.656 107.878 71.912 108.657 71.912ZM120.92 61.224H122.216V73H120.984V71.768H120.952C120.29 72.6533 119.394 73.096 118.264 73.096C117.165 73.096 116.253 72.7333 115.528 72.008C114.802 71.2827 114.44 70.3333 114.44 69.16C114.44 68.008 114.797 67.048 115.512 66.28C116.237 65.5013 117.149 65.112 118.248 65.112C119.357 65.112 120.242 65.5333 120.904 66.376H120.92V61.224ZM118.376 71.912C119.08 71.912 119.688 71.656 120.2 71.144C120.712 70.6213 120.968 69.96 120.968 69.16C120.968 68.36 120.722 67.688 120.232 67.144C119.741 66.5893 119.128 66.312 118.391 66.312C117.645 66.312 117.016 66.5787 116.504 67.112C116.002 67.6347 115.752 68.3173 115.752 69.16C115.752 69.96 115.992 70.6213 116.472 71.144C116.962 71.656 117.597 71.912 118.376 71.912ZM129.315 73V61.64H133.299C134.568 61.64 135.512 61.96 136.131 62.6C136.75 63.24 137.059 64.0933 137.059 65.16C137.059 66.3227 136.696 67.1973 135.971 67.784C135.256 68.3707 134.286 68.664 133.059 68.664H130.707V73H129.315ZM130.707 67.384H132.931C133.838 67.384 134.51 67.1813 134.947 66.776C135.384 66.3707 135.603 65.8213 135.603 65.128C135.603 64.4133 135.384 63.8693 134.947 63.496C134.52 63.112 133.923 62.92 133.155 62.92H130.707V67.384ZM144.905 65.208H146.201V73H144.953V71.768H144.937C144.276 72.6533 143.369 73.096 142.217 73.096C141.118 73.096 140.206 72.7333 139.481 72.008C138.756 71.2827 138.393 70.3333 138.393 69.16C138.393 68.008 138.75 67.048 139.465 66.28C140.19 65.5013 141.102 65.112 142.201 65.112C143.31 65.112 144.206 65.5333 144.889 66.376H144.905V65.208ZM142.329 71.912C143.054 71.912 143.673 71.656 144.185 71.144C144.697 70.6213 144.953 69.96 144.953 69.16C144.953 68.36 144.702 67.688 144.201 67.144C143.71 66.5893 143.092 66.312 142.345 66.312C141.598 66.312 140.969 66.5787 140.457 67.112C139.956 67.6347 139.705 68.3173 139.705 69.16C139.705 69.96 139.945 70.6213 140.425 71.144C140.916 71.656 141.55 71.912 142.329 71.912ZM150.975 73.096C149.77 73.096 148.751 72.7227 147.919 71.976L148.591 71C149.263 71.6187 150.058 71.928 150.975 71.928C151.423 71.928 151.781 71.8267 152.047 71.624C152.314 71.4213 152.447 71.176 152.447 70.888C152.447 70.5893 152.314 70.3653 152.047 70.216C151.791 70.056 151.338 69.864 150.687 69.64C150.645 69.6293 150.613 69.6187 150.591 69.608C149.834 69.3413 149.253 69.0373 148.847 68.696C148.453 68.3547 148.255 67.8587 148.255 67.208C148.255 66.6107 148.495 66.1147 148.975 65.72C149.466 65.3147 150.085 65.112 150.831 65.112C151.823 65.112 152.714 65.432 153.503 66.072L152.831 67.096C152.213 66.5627 151.525 66.296 150.767 66.296C150.458 66.296 150.181 66.3813 149.935 66.552C149.69 66.7227 149.567 66.9413 149.567 67.208C149.567 67.4853 149.685 67.7093 149.919 67.88C150.165 68.0507 150.538 68.232 151.039 68.424C151.125 68.456 151.279 68.5147 151.503 68.6C151.738 68.6853 151.893 68.744 151.967 68.776C152.042 68.808 152.17 68.8667 152.351 68.952C152.533 69.0267 152.655 69.0853 152.719 69.128C152.783 69.16 152.879 69.2187 153.007 69.304C153.146 69.3893 153.237 69.464 153.279 69.528C153.333 69.592 153.397 69.6773 153.471 69.784C153.557 69.8907 153.615 69.9973 153.647 70.104C153.679 70.2 153.706 70.3173 153.727 70.456C153.749 70.584 153.759 70.7227 153.759 70.872C153.759 71.512 153.519 72.0453 153.039 72.472C152.559 72.888 151.871 73.096 150.975 73.096ZM158.038 73.096C156.833 73.096 155.814 72.7227 154.982 71.976L155.654 71C156.326 71.6187 157.121 71.928 158.038 71.928C158.486 71.928 158.843 71.8267 159.11 71.624C159.377 71.4213 159.51 71.176 159.51 70.888C159.51 70.5893 159.377 70.3653 159.11 70.216C158.854 70.056 158.401 69.864 157.75 69.64C157.707 69.6293 157.675 69.6187 157.654 69.608C156.897 69.3413 156.315 69.0373 155.91 68.696C155.515 68.3547 155.318 67.8587 155.318 67.208C155.318 66.6107 155.558 66.1147 156.038 65.72C156.529 65.3147 157.147 65.112 157.894 65.112C158.886 65.112 159.777 65.432 160.566 66.072L159.894 67.096C159.275 66.5627 158.587 66.296 157.83 66.296C157.521 66.296 157.243 66.3813 156.998 66.552C156.753 66.7227 156.63 66.9413 156.63 67.208C156.63 67.4853 156.747 67.7093 156.982 67.88C157.227 68.0507 157.601 68.232 158.102 68.424C158.187 68.456 158.342 68.5147 158.566 68.6C158.801 68.6853 158.955 68.744 159.03 68.776C159.105 68.808 159.233 68.8667 159.414 68.952C159.595 69.0267 159.718 69.0853 159.782 69.128C159.846 69.16 159.942 69.2187 160.07 69.304C160.209 69.3893 160.299 69.464 160.342 69.528C160.395 69.592 160.459 69.6773 160.534 69.784C160.619 69.8907 160.678 69.9973 160.71 70.104C160.742 70.2 160.769 70.3173 160.79 70.456C160.811 70.584 160.822 70.7227 160.822 70.872C160.822 71.512 160.582 72.0453 160.102 72.472C159.622 72.888 158.934 73.096 158.038 73.096ZM166.732 65.112C167.82 65.112 168.727 65.5013 169.452 66.28C170.178 67.048 170.54 68.008 170.54 69.16C170.54 70.3333 170.172 71.2827 169.436 72.008C168.711 72.7333 167.804 73.096 166.716 73.096C165.564 73.096 164.658 72.6533 163.996 71.768H163.964V73H162.732V61.224H164.028V66.376H164.044C164.727 65.5333 165.623 65.112 166.732 65.112ZM166.588 71.912C167.367 71.912 167.996 71.656 168.476 71.144C168.967 70.6213 169.212 69.96 169.212 69.16C169.212 68.3067 168.962 67.6187 168.46 67.096C167.959 66.5733 167.33 66.312 166.572 66.312C165.836 66.312 165.218 66.5893 164.716 67.144C164.226 67.688 163.98 68.36 163.98 69.16C163.98 69.96 164.236 70.6213 164.748 71.144C165.26 71.656 165.874 71.912 166.588 71.912ZM176.081 73.096C174.886 73.096 173.916 72.7173 173.169 71.96C172.422 71.2027 172.049 70.2533 172.049 69.112C172.049 67.9707 172.422 67.0213 173.169 66.264C173.916 65.496 174.886 65.112 176.081 65.112C177.233 65.112 178.188 65.4853 178.945 66.232C179.702 66.9787 180.081 67.9387 180.081 69.112C180.081 70.2853 179.702 71.2453 178.945 71.992C178.188 72.728 177.233 73.096 176.081 73.096ZM176.081 71.912C176.838 71.912 177.473 71.6507 177.985 71.128C178.508 70.5947 178.769 69.9227 178.769 69.112C178.769 68.2907 178.513 67.6187 178.001 67.096C177.489 66.5733 176.849 66.312 176.081 66.312C175.281 66.312 174.625 66.584 174.113 67.128C173.612 67.6613 173.361 68.3227 173.361 69.112C173.361 69.9013 173.612 70.568 174.113 71.112C174.625 71.6453 175.281 71.912 176.081 71.912ZM185.628 73.096C184.433 73.096 183.462 72.7173 182.716 71.96C181.969 71.2027 181.596 70.2533 181.596 69.112C181.596 67.9707 181.969 67.0213 182.716 66.264C183.462 65.496 184.433 65.112 185.628 65.112C186.78 65.112 187.734 65.4853 188.492 66.232C189.249 66.9787 189.628 67.9387 189.628 69.112C189.628 70.2853 189.249 71.2453 188.492 71.992C187.734 72.728 186.78 73.096 185.628 73.096ZM185.628 71.912C186.385 71.912 187.02 71.6507 187.532 71.128C188.054 70.5947 188.316 69.9227 188.316 69.112C188.316 68.2907 188.06 67.6187 187.548 67.096C187.036 66.5733 186.396 66.312 185.628 66.312C184.828 66.312 184.172 66.584 183.66 67.128C183.158 67.6613 182.908 68.3227 182.908 69.112C182.908 69.9013 183.158 70.568 183.66 71.112C184.172 71.6453 184.828 71.912 185.628 71.912ZM194.583 69.432H194.551L192.919 71.24V73H191.639V61.224H192.919V69.464H192.951L196.775 65.208H198.359L195.447 68.44L198.375 73H196.887L194.583 69.432ZM205.701 66.36C206.373 65.528 207.258 65.112 208.357 65.112C209.455 65.112 210.362 65.5013 211.077 66.28C211.802 67.048 212.165 68.008 212.165 69.16C212.165 70.3333 211.802 71.2827 211.077 72.008C210.351 72.7333 209.445 73.096 208.357 73.096C207.247 73.096 206.362 72.68 205.701 71.848H205.669V76.168H204.389V65.208H205.685V66.36H205.701ZM208.229 71.912C209.007 71.912 209.637 71.656 210.117 71.144C210.607 70.6213 210.853 69.96 210.853 69.16C210.853 68.3067 210.602 67.6187 210.101 67.096C209.599 66.5733 208.97 66.312 208.213 66.312C207.477 66.312 206.863 66.5893 206.373 67.144C205.882 67.688 205.637 68.36 205.637 69.16C205.637 69.96 205.893 70.6213 206.405 71.144C206.917 71.656 207.525 71.912 208.229 71.912ZM218.346 65.112C219.231 65.112 219.925 65.3787 220.426 65.912C220.927 66.4453 221.178 67.2507 221.178 68.328V73H219.882V68.696C219.882 67.1067 219.247 66.312 217.978 66.312C217.199 66.312 216.581 66.5573 216.122 67.048C215.674 67.5387 215.45 68.216 215.45 69.08V73H214.154V61.224H215.45V66.488H215.482C216.133 65.5707 217.087 65.112 218.346 65.112ZM227.05 73.096C225.855 73.096 224.884 72.7173 224.138 71.96C223.391 71.2027 223.018 70.2533 223.018 69.112C223.018 67.9707 223.391 67.0213 224.138 66.264C224.884 65.496 225.855 65.112 227.05 65.112C228.202 65.112 229.156 65.4853 229.914 66.232C230.671 66.9787 231.05 67.9387 231.05 69.112C231.05 70.2853 230.671 71.2453 229.914 71.992C229.156 72.728 228.202 73.096 227.05 73.096ZM227.05 71.912C227.807 71.912 228.442 71.6507 228.954 71.128C229.476 70.5947 229.738 69.9227 229.738 69.112C229.738 68.2907 229.482 67.6187 228.97 67.096C228.458 66.5733 227.818 66.312 227.05 66.312C226.25 66.312 225.594 66.584 225.082 67.128C224.58 67.6613 224.33 68.3227 224.33 69.112C224.33 69.9013 224.58 70.568 225.082 71.112C225.594 71.6453 226.25 71.912 227.05 71.912ZM235.174 73.096C233.82 73.096 233.142 72.2907 233.142 70.68V66.328H232.15V65.208H233.142V62.552L234.438 62.408V65.208H237.03V66.328H234.438V70.488C234.438 70.968 234.508 71.32 234.646 71.544C234.796 71.768 235.046 71.88 235.398 71.88C235.804 71.88 236.241 71.7467 236.71 71.48L237.062 72.616C236.486 72.936 235.857 73.096 235.174 73.096ZM241.987 73.096C240.792 73.096 239.822 72.7173 239.075 71.96C238.328 71.2027 237.955 70.2533 237.955 69.112C237.955 67.9707 238.328 67.0213 239.075 66.264C239.822 65.496 240.792 65.112 241.987 65.112C243.139 65.112 244.094 65.4853 244.851 66.232C245.608 66.9787 245.987 67.9387 245.987 69.112C245.987 70.2853 245.608 71.2453 244.851 71.992C244.094 72.728 243.139 73.096 241.987 73.096ZM241.987 71.912C242.744 71.912 243.379 71.6507 243.891 71.128C244.414 70.5947 244.675 69.9227 244.675 69.112C244.675 68.2907 244.419 67.6187 243.907 67.096C243.395 66.5733 242.755 66.312 241.987 66.312C241.187 66.312 240.531 66.584 240.019 67.128C239.518 67.6613 239.267 68.3227 239.267 69.112C239.267 69.9013 239.518 70.568 240.019 71.112C240.531 71.6453 241.187 71.912 241.987 71.912Z" fill="#2C3348" fill-opacity="0.6"/>
<path d="M169 36V40C169 40.5304 168.789 41.0391 168.414 41.4142C168.039 41.7893 167.53 42 167 42H153C152.47 42 151.961 41.7893 151.586 41.4142C151.211 41.0391 151 40.5304 151 40V36" stroke="#10BAB2" stroke-width="2" stroke-linecap="round" stroke-linejoin="round"/>
<path d="M165 29L160 24L155 29" stroke="#10BAB2" stroke-width="2" stroke-linecap="round" stroke-linejoin="round"/>
<path d="M160 24V36" stroke="#10BAB2" stroke-width="2" stroke-linecap="round" stroke-linejoin="round"/>
</svg>
