<svg width="142" height="142" viewBox="0 0 142 142" fill="none" xmlns="http://www.w3.org/2000/svg">
<rect x="1" y="1" width="140" height="140" rx="70" fill="#F6F6F6" stroke="#037022" stroke-dasharray="4 4"/>
<g clip-path="url(#clip0_51403_19776)">
<path d="M71 1C32.36 1 1 32.36 1 71C1 109.64 32.36 141 71 141C109.64 141 141 109.64 141 71C141 32.36 109.64 1 71 1ZM71 22C82.62 22 92 31.38 92 43C92 54.62 82.62 64 71 64C59.38 64 50 54.62 50 43C50 31.38 59.38 22 71 22ZM71 121.4C53.5 121.4 38.03 112.44 29 98.86C29.21 84.93 57 77.3 71 77.3C84.93 77.3 112.79 84.93 113 98.86C103.97 112.44 88.5 121.4 71 121.4Z" fill="black" fill-opacity="0.1"/>
</g>
<rect x="93" y="93" width="48" height="48" rx="24" fill="#037022"/>
<path d="M128 124C128 124.53 127.789 125.039 127.414 125.414C127.039 125.789 126.53 126 126 126H108C107.47 126 106.961 125.789 106.586 125.414C106.211 125.039 106 124.53 106 124V113C106 112.47 106.211 111.961 106.586 111.586C106.961 111.211 107.47 111 108 111H112L114 108H120L122 111H126C126.53 111 127.039 111.211 127.414 111.586C127.789 111.961 128 112.47 128 113V124Z" stroke="white" stroke-width="2" stroke-linecap="round" stroke-linejoin="round"/>
<path d="M117 122C119.209 122 121 120.209 121 118C121 115.791 119.209 114 117 114C114.791 114 113 115.791 113 118C113 120.209 114.791 122 117 122Z" stroke="white" stroke-width="2" stroke-linecap="round" stroke-linejoin="round"/>
<defs>
<clipPath id="clip0_51403_19776">
<rect width="140" height="140" fill="white" transform="translate(1 1)"/>
</clipPath>
</defs>
</svg>
