<svg width="23" height="24" viewBox="0 0 23 24" fill="none" xmlns="http://www.w3.org/2000/svg">
<path d="M17.156 8.56198C17.2968 8.42115 17.3759 8.23014 17.3759 8.03098C17.3759 7.83181 17.2968 7.64081 17.156 7.49998C17.0151 7.35915 16.8241 7.28003 16.625 7.28003C16.4258 7.28003 16.2348 7.35915 16.094 7.49998L12.125 11.4705L10.406 9.74998C10.3362 9.68024 10.2535 9.62493 10.1623 9.58719C10.0712 9.54945 9.97359 9.53003 9.87497 9.53003C9.77636 9.53003 9.6787 9.54945 9.5876 9.58719C9.49649 9.62493 9.4137 9.68024 9.34397 9.74998C9.27424 9.81971 9.21892 9.90249 9.18119 9.9936C9.14345 10.0847 9.12402 10.1824 9.12402 10.281C9.12402 10.3796 9.14345 10.4772 9.18119 10.5684C9.21892 10.6595 9.27424 10.7422 9.34397 10.812L11.594 13.062C11.6636 13.1318 11.7464 13.1872 11.8375 13.225C11.9286 13.2629 12.0263 13.2823 12.125 13.2823C12.2236 13.2823 12.3213 13.2629 12.4124 13.225C12.5035 13.1872 12.5863 13.1318 12.656 13.062L17.156 8.56198Z" fill="#00A64F"/>
<path d="M0.875 0.531006C0.676088 0.531006 0.485322 0.610023 0.34467 0.750676C0.204018 0.891328 0.125 1.08209 0.125 1.28101C0.125 1.47992 0.204018 1.67068 0.34467 1.81134C0.485322 1.95199 0.676088 2.03101 0.875 2.03101H2.54L3.1415 4.44151L5.3885 16.419C5.42067 16.5909 5.51188 16.7461 5.64637 16.8578C5.78085 16.9696 5.95015 17.0308 6.125 17.031H7.625C6.82935 17.031 6.06629 17.3471 5.50368 17.9097C4.94107 18.4723 4.625 19.2354 4.625 20.031C4.625 20.8267 4.94107 21.5897 5.50368 22.1523C6.06629 22.7149 6.82935 23.031 7.625 23.031C8.42065 23.031 9.18371 22.7149 9.74632 22.1523C10.3089 21.5897 10.625 20.8267 10.625 20.031C10.625 19.2354 10.3089 18.4723 9.74632 17.9097C9.18371 17.3471 8.42065 17.031 7.625 17.031H18.125C17.3294 17.031 16.5663 17.3471 16.0037 17.9097C15.4411 18.4723 15.125 19.2354 15.125 20.031C15.125 20.8267 15.4411 21.5897 16.0037 22.1523C16.5663 22.7149 17.3294 23.031 18.125 23.031C18.9207 23.031 19.6837 22.7149 20.2463 22.1523C20.8089 21.5897 21.125 20.8267 21.125 20.031C21.125 19.2354 20.8089 18.4723 20.2463 17.9097C19.6837 17.3471 18.9207 17.031 18.125 17.031H19.625C19.7999 17.0308 19.9692 16.9696 20.1036 16.8578C20.2381 16.7461 20.3293 16.5909 20.3615 16.419L22.6115 4.41901C22.6318 4.31076 22.6279 4.19938 22.6003 4.09278C22.5727 3.98618 22.5219 3.88698 22.4516 3.80221C22.3813 3.71745 22.2932 3.6492 22.1935 3.60233C22.0939 3.55546 21.9851 3.53111 21.875 3.53101H4.46L3.8525 1.09951C3.81201 0.937182 3.71842 0.793054 3.5866 0.690043C3.45478 0.587032 3.2923 0.531052 3.125 0.531006H0.875ZM6.7475 15.531L4.778 5.03101H20.972L19.0025 15.531H6.7475ZM9.125 20.031C9.125 20.4288 8.96696 20.8104 8.68566 21.0917C8.40436 21.373 8.02283 21.531 7.625 21.531C7.22718 21.531 6.84565 21.373 6.56434 21.0917C6.28304 20.8104 6.125 20.4288 6.125 20.031C6.125 19.6332 6.28304 19.2516 6.56434 18.9703C6.84565 18.689 7.22718 18.531 7.625 18.531C8.02283 18.531 8.40436 18.689 8.68566 18.9703C8.96696 19.2516 9.125 19.6332 9.125 20.031ZM19.625 20.031C19.625 20.4288 19.467 20.8104 19.1857 21.0917C18.9044 21.373 18.5228 21.531 18.125 21.531C17.7272 21.531 17.3456 21.373 17.0643 21.0917C16.783 20.8104 16.625 20.4288 16.625 20.031C16.625 19.6332 16.783 19.2516 17.0643 18.9703C17.3456 18.689 17.7272 18.531 18.125 18.531C18.5228 18.531 18.9044 18.689 19.1857 18.9703C19.467 19.2516 19.625 19.6332 19.625 20.031Z" fill="#00A64F"/>
</svg>
