<svg width="24" height="24" viewBox="0 0 24 24" fill="none" xmlns="http://www.w3.org/2000/svg">
<path fill-rule="evenodd" clip-rule="evenodd" d="M13.409 2.51299C12.5054 2.14663 11.4946 2.14663 10.591 2.51299L3.093 5.55399C2.77003 5.68481 2.49347 5.90907 2.29875 6.19804C2.10402 6.48701 2 6.82753 2 7.17599V16.827C2 17.1754 2.10402 17.516 2.29875 17.8049C2.49347 18.0939 2.77003 18.3182 3.093 18.449L10.591 21.489C11.2139 21.7415 11.8933 21.822 12.558 21.722C12.183 21.285 11.866 20.797 11.618 20.271C11.557 20.255 11.498 20.235 11.439 20.211L11.25 20.135C11.218 20.124 11.186 20.112 11.155 20.099L3.656 17.059C3.61 17.0403 3.5706 17.0084 3.54282 16.9672C3.51504 16.9261 3.50013 16.8776 3.5 16.828V7.74999L11.25 10.764V15.708C11.5336 14.72 12.0477 13.8135 12.75 13.063V10.765L20.5 7.77299V11.733C21.0486 12.019 21.5536 12.3816 22 12.81V7.17499C22 6.82653 21.896 6.48601 21.7013 6.19704C21.5065 5.90807 21.23 5.68381 20.907 5.55299L13.409 2.51299ZM11.155 3.90299C11.6969 3.68339 12.3031 3.68339 12.845 3.90299L12.844 3.90399L19.437 6.57699L16.767 7.60699L9.24 4.67999L11.155 3.90299ZM12.001 9.44699L4.59 6.56399L7.216 5.49999L14.691 8.40699L12.001 9.44699Z" fill="#FF5353"/>
<path d="M14.7855 20.2855C13.2667 18.7667 13.2667 16.3043 14.7855 14.7855C16.3043 13.2667 18.7667 13.2667 20.2855 14.7855M14.7855 20.2855C16.3043 21.8043 18.7667 21.8043 20.2855 20.2855C21.8043 18.7667 21.8043 16.3043 20.2855 14.7855M14.7855 20.2855L20.2855 14.7855" stroke="#FF5353" stroke-width="1.5"/>
</svg>
