<svg width="24" height="16" viewBox="0 0 24 16" fill="none" xmlns="http://www.w3.org/2000/svg">
<path d="M11.5757 15.0286C11.3156 15.0286 11.0791 14.9103 10.8901 14.7212L5.71241 9.1415C5.33409 8.7396 5.35783 8.10118 5.71241 7.6993C6.09073 7.29739 6.6818 7.32098 7.06012 7.6993L11.5522 12.546L21.5058 1.26849C21.8604 0.866591 22.4752 0.843011 22.8535 1.22116C23.2318 1.59948 23.2554 2.23771 22.9008 2.66336L12.2853 14.7211C12.096 14.9103 11.8359 15.0285 11.576 15.0285L11.5757 15.0286Z" fill="#4F5052"/>
<path d="M11.7412 9.49619L17.6519 2.78168C17.9593 2.4271 18.0302 1.88321 17.7701 1.48129C17.4156 0.937548 16.7063 0.89022 16.3043 1.36304L10.2755 8.21941C9.94447 8.59773 9.94447 9.1888 10.3228 9.54336C10.7247 9.94542 11.3629 9.92168 11.7412 9.49619Z" fill="#4F5052"/>
<path d="M7.67465 13.1844L2.63877 7.69935C2.33136 7.36836 1.88212 7.2501 1.45663 7.39195C0.79464 7.65202 0.652827 8.40849 1.07831 8.88147L6.23241 14.4848C6.61073 14.9103 7.27273 14.9103 7.65106 14.4848C8.02954 14.154 8.02954 13.5629 7.67481 13.1846L7.67465 13.1844Z" fill="#4F5052"/>
</svg>
