<svg width="22" height="21" viewBox="0 0 22 21" fill="none" xmlns="http://www.w3.org/2000/svg">
<path d="M1.72461 3.8C1.5257 3.8 1.33493 3.87586 1.19428 4.01089C1.05363 4.14591 0.974609 4.32905 0.974609 4.52V10.28C0.974609 10.8529 1.21166 11.4023 1.63362 11.8074C2.05558 12.2124 2.62787 12.44 3.22461 12.44H8.22461C8.82135 12.44 9.39364 12.2124 9.8156 11.8074C10.2376 11.4023 10.4746 10.8529 10.4746 10.28V4.52C10.4746 4.32905 10.3956 4.14591 10.2549 4.01089C10.1143 3.87586 9.92352 3.8 9.72461 3.8H9.47461V2.84C9.4746 2.41872 9.35907 2.00486 9.13965 1.64002C8.92022 1.27519 8.60463 0.972224 8.22458 0.761587C7.84454 0.55095 7.41343 0.440061 6.97459 0.440063C6.53576 0.440066 6.10465 0.550961 5.72461 0.761603C5.34457 0.550961 4.91346 0.440066 4.47463 0.440063C4.03579 0.440061 3.60468 0.55095 3.22464 0.761587C2.84459 0.972224 2.529 1.27519 2.30957 1.64002C2.09014 2.00486 1.97462 2.41872 1.97461 2.84V3.79904H1.72461V3.8ZM6.97461 3.8V2.84C6.97461 2.50592 6.90361 2.1872 6.77461 1.8992C6.91992 1.87073 7.07 1.87364 7.21399 1.90772C7.35799 1.9418 7.49228 2.0062 7.60714 2.09626C7.72201 2.18631 7.81457 2.29976 7.87813 2.4284C7.94168 2.55704 7.97464 2.69763 7.97461 2.84V3.8H6.97461ZM5.47461 2.84V3.8H3.47461V2.84C3.47461 2.58539 3.57997 2.34121 3.7675 2.16118C3.95504 1.98115 4.20939 1.88 4.47461 1.88C4.73983 1.88 4.99418 1.98115 5.18172 2.16118C5.36925 2.34121 5.47461 2.58539 5.47461 2.84ZM1.97461 16.04V13.16C2.35961 13.3146 2.78161 13.4 3.22461 13.4H3.47461V16.04C3.47459 16.218 3.54326 16.3897 3.66736 16.522C3.79146 16.6542 3.9622 16.7377 4.14661 16.7562C4.35425 16.1952 4.73781 15.7097 5.24457 15.3666C5.75132 15.0234 6.35638 14.8394 6.97652 14.8398C7.59667 14.8402 8.20145 15.0251 8.7077 15.3689C9.21395 15.7128 9.5968 16.1987 9.80361 16.76H12.1456C12.3526 16.1985 12.7357 15.7123 13.2423 15.3685C13.749 15.0247 14.3542 14.84 14.9746 14.84V4.52C14.9746 4.32905 14.8956 4.14591 14.7549 4.01089C14.6143 3.87586 14.4235 3.8 14.2246 3.8H11.3066C11.1331 3.44988 10.8393 3.16781 10.4746 3.00128V2.84C10.4746 2.6768 10.4626 2.51648 10.4396 2.36H14.2246C14.8213 2.36 15.3936 2.58757 15.8156 2.99265C16.2376 3.39773 16.4746 3.94714 16.4746 4.52V5.24H18.0246C18.8946 5.24 19.6866 5.72096 20.0586 6.47552L21.7586 9.91904C21.9006 10.208 21.9746 10.5238 21.9746 10.8435V16.04C21.9746 16.3237 21.9164 16.6045 21.8033 16.8666C21.6903 17.1287 21.5245 17.3668 21.3156 17.5674C21.1067 17.7679 20.8586 17.927 20.5856 18.0356C20.3127 18.1441 20.0201 18.2 19.7246 18.2H17.9336C17.8166 18.8722 17.4551 19.4829 16.9133 19.9233C16.3715 20.3638 15.6846 20.6055 14.9746 20.6055C14.2647 20.6055 13.5777 20.3638 13.0359 19.9233C12.4941 19.4829 12.1326 18.8722 12.0156 18.2H9.93461C9.81771 18.8733 9.45552 19.4848 8.91261 19.9256C8.3697 20.3663 7.68138 20.6076 6.97037 20.6065C6.25936 20.6053 5.57188 20.3618 5.03053 19.9193C4.48918 19.4768 4.12914 18.8641 4.01461 18.1904C3.4567 18.1402 2.93839 17.8919 2.56109 17.4942C2.18379 17.0965 1.97465 16.5779 1.97461 16.04ZM17.8046 16.76H19.7246C19.9235 16.76 20.1143 16.6841 20.2549 16.5491C20.3956 16.4141 20.4746 16.231 20.4746 16.04V15.8H19.2246C19.0257 15.8 18.8349 15.7241 18.6943 15.5891C18.5536 15.4541 18.4746 15.271 18.4746 15.08C18.4746 14.889 18.5536 14.7059 18.6943 14.5709C18.8349 14.4359 19.0257 14.36 19.2246 14.36H20.4746V11.48H16.4746V15.225C17.0939 15.5687 17.5654 16.1129 17.8046 16.76ZM16.4746 6.68V10.04H20.1576L18.7046 7.09184C18.6437 6.96831 18.5474 6.86399 18.427 6.79106C18.3065 6.71813 18.167 6.67961 18.0246 6.68H16.4746ZM6.97461 19.16C7.37243 19.16 7.75397 19.0083 8.03527 18.7382C8.31657 18.4682 8.47461 18.1019 8.47461 17.72C8.47461 17.3381 8.31657 16.9718 8.03527 16.7018C7.75397 16.4317 7.37243 16.28 6.97461 16.28C6.57678 16.28 6.19525 16.4317 5.91395 16.7018C5.63264 16.9718 5.47461 17.3381 5.47461 17.72C5.47461 18.1019 5.63264 18.4682 5.91395 18.7382C6.19525 19.0083 6.57678 19.16 6.97461 19.16ZM16.4746 17.72C16.4746 17.3381 16.3166 16.9718 16.0353 16.7018C15.754 16.4317 15.3724 16.28 14.9746 16.28C14.5768 16.28 14.1953 16.4317 13.9139 16.7018C13.6326 16.9718 13.4746 17.3381 13.4746 17.72C13.4746 18.1019 13.6326 18.4682 13.9139 18.7382C14.1953 19.0083 14.5768 19.16 14.9746 19.16C15.3724 19.16 15.754 19.0083 16.0353 18.7382C16.3166 18.4682 16.4746 18.1019 16.4746 17.72ZM3.47461 2.84C3.47461 2.70368 3.50461 2.57408 3.55761 2.456L3.47461 2.84Z" fill="#00A64F"/>
</svg>
