<svg width="22" height="22" viewBox="0 0 22 22" fill="none" xmlns="http://www.w3.org/2000/svg">
<path d="M9.56561 0.97759C10.4692 0.61123 11.48 0.61123 12.3836 0.97759L19.8816 4.01759C20.2046 4.14841 20.4811 4.37267 20.6759 4.66164C20.8706 4.95061 20.9746 5.29113 20.9746 5.63959V11.2746C20.5282 10.8462 20.0232 10.4836 19.4746 10.1976V6.23759L11.7246 9.22959V11.5276C11.0223 12.2781 10.5082 13.1846 10.2246 14.1726V9.22859L2.47461 6.21459V15.2926C2.47474 15.3422 2.48965 15.3907 2.51743 15.4318C2.54521 15.473 2.58461 15.5049 2.63061 15.5236L10.1296 18.5636C10.1606 18.5766 10.1926 18.5886 10.2246 18.5996L10.4136 18.6756C10.4726 18.6996 10.5316 18.7196 10.5926 18.7356C10.8406 19.2616 11.1576 19.7496 11.5326 20.1866C10.8679 20.2866 10.1885 20.2061 9.56561 19.9536L2.06761 16.9136C1.74464 16.7828 1.46808 16.5585 1.27336 16.2695C1.07863 15.9806 0.974607 15.64 0.974609 15.2916V5.64059C0.974607 5.29213 1.07863 4.95161 1.27336 4.66264C1.46808 4.37367 1.74464 4.14941 2.06761 4.01859L9.56561 0.97859V0.97759ZM11.8196 2.36759C11.2777 2.14799 10.6715 2.14799 10.1296 2.36759L8.21461 3.14459L15.7416 6.07159L18.4116 5.04159L11.8186 2.36859L11.8196 2.36759ZM3.56461 5.02859L10.9756 7.91159L13.6656 6.87159L6.19061 3.96459L3.56461 5.02859ZM16.4746 21.4656C17.9333 21.4656 19.3322 20.8861 20.3637 19.8547C21.3951 18.8232 21.9746 17.4243 21.9746 15.9656C21.9746 14.5069 21.3951 13.108 20.3637 12.0765C19.3322 11.0451 17.9333 10.4656 16.4746 10.4656C15.0159 10.4656 13.617 11.0451 12.5855 12.0765C11.5541 13.108 10.9746 14.5069 10.9746 15.9656C10.9746 17.4243 11.5541 18.8232 12.5855 19.8547C13.617 20.8861 15.0159 21.4656 16.4746 21.4656ZM15.4746 17.2586L19.1206 13.6116C19.2144 13.5177 19.3416 13.4649 19.4743 13.4648C19.6069 13.4647 19.7342 13.5173 19.8281 13.6111C19.922 13.7048 19.9748 13.8321 19.9749 13.9647C19.975 14.0974 19.9224 14.2247 19.8286 14.3186L15.8286 18.3186C15.7822 18.3652 15.727 18.4021 15.6662 18.4273C15.6055 18.4525 15.5404 18.4655 15.4746 18.4655C15.4088 18.4655 15.3437 18.4525 15.283 18.4273C15.2222 18.4021 15.1671 18.3652 15.1206 18.3186L13.1206 16.3186C13.0742 16.2721 13.0374 16.2169 13.0123 16.1562C12.9872 16.0955 12.9743 16.0304 12.9743 15.9647C12.9744 15.899 12.9874 15.834 13.0125 15.7733C13.0377 15.7126 13.0746 15.6575 13.1211 15.6111C13.1676 15.5647 13.2228 15.5279 13.2835 15.5028C13.3442 15.4777 13.4093 15.4648 13.475 15.4648C13.5407 15.4649 13.6057 15.4778 13.6664 15.503C13.7271 15.5282 13.7822 15.5651 13.8286 15.6116L15.4746 17.2586Z" fill="#00A64F"/>
</svg>
