<svg width="23" height="22" viewBox="0 0 23 22" fill="none" xmlns="http://www.w3.org/2000/svg">
<path d="M1.1251 16.1699C1.12833 16.5415 1.21401 16.6891 1.42786 16.6891C1.63406 16.6891 1.72734 16.5411 1.73063 16.2128L1.72183 17.9853C1.71474 17.7084 1.70379 17.5271 1.69034 17.5035C1.62977 17.3798 1.4319 17.3116 1.31883 17.3756C1.18583 17.4503 1.14603 17.4768 1.13273 17.9512L1.1251 16.1699Z" fill="#00A64F"/>
<path d="M15.9853 11.9181C15.9853 13.1375 15.9894 13.1972 16.0661 13.2782C16.1751 13.3933 16.3932 13.3891 16.4941 13.274C16.5668 13.193 16.5709 13.0949 16.583 11.9778L16.5877 15.1801C16.5813 14.2677 16.5623 14.2298 16.5063 14.1565C16.4013 14.0158 16.1872 14.003 16.0661 14.131C15.9853 14.2162 15.9853 14.2717 15.9853 17.3713V11.9181Z" fill="#00A64F"/>
<path fill-rule="evenodd" clip-rule="evenodd" d="M12.6862 4.82346C12.876 4.04748 13.1506 3.45484 13.5948 2.86646L14.4024 2.88351C13.7159 3.58701 13.304 4.48237 13.195 5.49712C13.1142 6.28162 13.2515 7.07466 13.5948 7.79947C14.1157 8.90375 15.0606 9.72663 16.167 10.0464C16.6395 10.1786 17.5925 10.1828 18.1013 10.0464C19.7085 9.62004 20.932 8.22583 21.1501 6.57155C21.4005 4.67424 20.5242 2.94747 18.8686 2.07343L19.3087 1.5959C21.8447 2.93894 22.5877 6.46922 20.8513 8.90801C20.4515 9.47081 19.7004 10.1018 19.1512 10.3406L18.9332 10.4387V15.5806V20.7268L18.8403 20.8717C18.7918 20.9528 18.6868 21.0508 18.6101 21.0935C18.4769 21.1617 18.0932 21.1659 11.931 21.1659L5.39331 21.1617L5.32466 21.2853C5.23178 21.4431 5.0218 21.6264 4.88854 21.669C4.69875 21.7245 3.38232 21.7031 3.21675 21.6435C2.96235 21.5497 2.69987 21.1617 2.69987 20.8803C2.69987 20.8462 2.54238 20.8291 2.18299 20.8163C1.69438 20.8035 1.654 20.795 1.49247 20.6841C1.37536 20.5989 1.29056 20.4965 1.22192 20.3431C1.125 20.1256 1.125 20.1043 1.125 18.8423C1.12621 18.4379 1.12705 18.1537 1.13273 17.9512C1.14603 17.4768 1.18583 17.4503 1.31883 17.3756C1.4319 17.3116 1.62977 17.3798 1.69034 17.5035C1.70379 17.5271 1.71474 17.7084 1.72183 17.9853C1.72752 18.2073 1.73072 18.4908 1.73072 18.8039C1.73072 19.8826 1.7388 20.0403 1.79937 20.1086C1.8559 20.1725 1.92859 20.1853 2.28394 20.1853H2.69987V17.9682V15.7511H2.29606C1.78322 15.7511 1.73072 15.7895 1.73072 16.1945L1.73063 16.2128C1.72734 16.5411 1.63406 16.6891 1.42786 16.6891C1.21401 16.6891 1.12833 16.5415 1.1251 16.1699L1.125 16.1476C1.125 15.798 1.18961 15.5848 1.35921 15.393C1.55708 15.1713 1.74283 15.1116 2.23952 15.1116H2.6918L2.74025 14.9112C2.80083 14.6426 2.95427 14.4379 3.16022 14.3399C3.30155 14.2717 3.43077 14.2589 4.07284 14.2589C4.71086 14.2589 4.84412 14.2717 4.98142 14.3399C5.1914 14.4379 5.35293 14.6426 5.40946 14.8814C5.43369 14.9837 5.47003 15.069 5.48618 15.069C5.50234 15.069 5.58714 15.0135 5.68001 14.9453C5.81327 14.843 5.89807 14.698 6.16055 14.1651L6.47553 13.5127L6.49572 11.317L6.49852 11.0339C6.51546 9.30981 6.51808 9.04329 6.65271 8.90603C6.67732 8.88093 6.70635 8.86015 6.74069 8.83557L6.77031 8.81421C6.87126 8.74173 7.06509 8.73747 10.122 8.72468C11.9028 8.72041 13.3605 8.70336 13.3605 8.69483C13.3605 8.68204 13.3161 8.60103 13.2636 8.5115C13.1102 8.25142 12.8962 7.77815 12.8033 7.49249C12.6175 6.92117 12.5731 6.63124 12.5731 5.9448C12.5771 5.36494 12.5893 5.22851 12.6862 4.82346ZM17.7264 1.05094L17.644 1.03743C17.6715 1.037 17.6992 1.04182 17.7264 1.05094ZM9.79083 12.3786C9.77872 12.3019 9.7666 11.6026 9.7666 10.8224V9.39833H8.45421H7.14182V11.0611V12.724L7.27508 12.7282C7.59005 12.7367 7.93329 12.9926 8.13116 13.3678C8.24019 13.5767 8.25231 13.6364 8.25231 13.9817C8.25231 14.3569 8.24827 14.3782 8.06251 14.7577L7.87676 15.15L9.87967 15.1628L10.0502 15.1637C11.6712 15.1729 11.9725 15.1746 12.1634 15.3204C12.207 15.3537 12.2449 15.3945 12.2914 15.4447L12.3147 15.4697C12.5246 15.6957 12.5731 15.8236 12.5731 16.186L12.5691 16.5186H12.8073C13.086 16.5186 13.2919 16.5996 13.4736 16.7872C13.6796 16.9918 13.7724 17.2178 13.7724 17.495C13.7724 17.8915 13.6069 18.1985 13.3161 18.3562C13.1788 18.4287 13.1586 18.4543 13.1869 18.5353C13.2031 18.5864 13.2192 18.7357 13.2152 18.8636C13.2111 19.1407 13.1021 19.3965 12.9123 19.5628C12.6781 19.7717 12.5529 19.8016 11.8705 19.8016H11.2405V20.164V20.5264H13.6149H15.9853V17.3713C15.9853 14.2717 15.9853 14.2162 16.0661 14.131C16.1872 14.003 16.4013 14.0158 16.5063 14.1565C16.5623 14.2298 16.5813 14.2677 16.5877 15.1801C16.5911 15.648 16.5911 16.346 16.5911 17.3969V20.5264H17.4592H18.3274V15.5976V10.6646L18.178 10.6945C17.6733 10.784 17.3341 10.8139 16.9868 10.7925L16.5951 10.7712L16.583 11.9778C16.5709 13.0949 16.5668 13.193 16.4941 13.274C16.3932 13.3891 16.1751 13.3933 16.0661 13.2782C15.9894 13.1972 15.9853 13.1375 15.9853 11.9181V10.6433L15.7148 10.5452C15.1858 10.3662 14.6245 10.0208 14.1641 9.60299L13.934 9.39833H13.6271H13.3202V10.865C13.3202 11.7988 13.304 12.3743 13.2757 12.4596C13.1869 12.7282 12.8679 12.8135 12.6256 12.6344C12.5529 12.579 12.2864 12.3658 12.036 12.1569C11.7493 11.9181 11.5595 11.786 11.5192 11.803C11.4868 11.8158 11.2244 12.0205 10.9377 12.255C10.4248 12.6813 10.2754 12.7623 10.1018 12.7325C9.97659 12.7112 9.82314 12.5321 9.79083 12.3786ZM12.6943 11.8712C12.7064 11.8712 12.7144 11.3127 12.7144 10.6348V9.39833H11.5434H10.3723V10.6348C10.3723 11.3127 10.3844 11.8712 10.3966 11.8712C10.4087 11.8712 10.6146 11.7092 10.8488 11.5174C11.0871 11.3212 11.3213 11.1379 11.3697 11.1123C11.5757 10.9929 11.7009 11.0526 12.2945 11.5557C12.5045 11.7305 12.6821 11.8712 12.6943 11.8712ZM7.66678 13.9945C7.66678 13.8027 7.54563 13.5255 7.41641 13.4317C7.36795 13.3933 7.31546 13.3635 7.30334 13.3635C7.2347 13.3678 7.15797 13.4957 6.86319 14.1182C6.30996 15.2907 6.11613 15.5294 5.59925 15.7085L5.4458 15.7597V18.1004V20.4411L5.55483 20.471C5.61944 20.4923 6.74608 20.5051 8.06251 20.5051H10.4612L10.5581 20.3857C10.6792 20.2322 10.6792 20.0958 10.5581 19.9423L10.4612 19.8229L9.62527 19.8016C8.85802 19.7803 8.78534 19.7717 8.73284 19.6992C8.65208 19.5799 8.66419 19.4051 8.75303 19.2857L8.82976 19.1833L10.5823 19.1748C11.5434 19.1663 12.3712 19.1535 12.4197 19.1407C12.5125 19.1194 12.6337 18.9233 12.6337 18.7996C12.6337 18.7612 12.5812 18.6717 12.5166 18.6035L12.3995 18.4799H10.7761H9.15685L9.05993 18.3733C9.0034 18.3178 8.95898 18.2198 8.95898 18.1601C8.95898 18.1004 9.0034 18.0023 9.05993 17.9469L9.15685 17.8403H11.0386L11.1873 17.8403C12.7002 17.8405 13.0501 17.8405 13.1324 17.6922C13.1572 17.6476 13.1577 17.5896 13.1584 17.5141L13.1586 17.495C13.1586 17.3926 13.1304 17.3159 13.0738 17.2605C12.9931 17.1837 12.884 17.1794 11.079 17.1581C9.27395 17.1368 9.16492 17.1325 9.08416 17.0558C8.98321 16.962 8.97109 16.7446 9.05589 16.6209C9.11243 16.5442 9.18511 16.5399 10.4531 16.5186L11.7937 16.4973L11.8907 16.3779C12.0118 16.2244 12.0118 16.088 11.8907 15.9345L11.7937 15.8151L9.69796 15.7938L9.50877 15.792C7.82704 15.7764 7.56227 15.774 7.43592 15.6406C7.41231 15.6157 7.39353 15.5862 7.37125 15.5512C7.36509 15.5415 7.35867 15.5314 7.3518 15.5209C7.20643 15.2992 7.2347 15.0945 7.46487 14.5957C7.60217 14.3015 7.66678 14.1054 7.66678 13.9945ZM4.84008 17.9853C4.84008 15.3589 4.83201 15.0263 4.77547 14.9666C4.6826 14.8643 3.46308 14.8643 3.3702 14.9666C3.31367 15.0263 3.30559 15.3546 3.30559 17.9512C3.30559 19.8826 3.32174 20.9016 3.34597 20.957C3.38635 21.0338 3.43885 21.038 4.06476 21.038C4.53722 21.038 4.75932 21.021 4.79163 20.9869C4.82797 20.9485 4.84008 20.2237 4.84008 17.9853Z" fill="#00A64F"/>
<path d="M13.5948 2.86646C14.3176 1.91141 15.3231 1.28892 16.4497 1.10132C16.8293 1.04163 17.2602 1.01857 17.644 1.03743M13.5948 2.86646C13.1506 3.45484 12.876 4.04748 12.6862 4.82346C12.5893 5.22851 12.5771 5.36494 12.5731 5.9448C12.5731 6.63124 12.6175 6.92117 12.8033 7.49249C12.8962 7.77815 13.1102 8.25142 13.2636 8.5115C13.3161 8.60103 13.3605 8.68204 13.3605 8.69483C13.3605 8.70336 11.9028 8.72041 10.122 8.72468C7.06509 8.73747 6.87126 8.74173 6.77031 8.81421M13.5948 2.86646L14.4024 2.88351M6.77031 8.81421C6.76002 8.82173 6.75016 8.8288 6.74069 8.83557M6.77031 8.81421L6.74069 8.83557M6.49572 11.317L6.47553 13.5127L6.16055 14.1651C5.89807 14.698 5.81327 14.843 5.68001 14.9453C5.58714 15.0135 5.50234 15.069 5.48618 15.069C5.47003 15.069 5.43369 14.9837 5.40946 14.8814C5.35293 14.6426 5.1914 14.4379 4.98142 14.3399C4.84412 14.2717 4.71086 14.2589 4.07284 14.2589C3.43077 14.2589 3.30155 14.2717 3.16022 14.3399C2.95427 14.4379 2.80083 14.6426 2.74025 14.9112L2.6918 15.1116H2.23952C1.74283 15.1116 1.55708 15.1713 1.35921 15.393C1.18961 15.5848 1.125 15.798 1.125 16.1476M6.49572 11.317C6.4967 11.2185 6.49763 11.1242 6.49852 11.0339M6.49572 11.317L6.49852 11.0339M1.125 16.1476L1.1251 16.1699M1.125 16.1476C1.125 16.1551 1.12503 16.1625 1.1251 16.1699M1.73072 16.1945C1.73072 15.7895 1.78322 15.7511 2.29606 15.7511H2.69987V17.9682V20.1853H2.28394C1.92859 20.1853 1.8559 20.1725 1.79937 20.1086C1.7388 20.0403 1.73072 19.8826 1.73072 18.8039C1.73072 18.4908 1.72752 18.2073 1.72183 17.9853M1.73072 16.1945L1.73063 16.2128M1.73072 16.1945C1.73072 16.2007 1.73069 16.2068 1.73063 16.2128M19.3087 1.5959C21.8447 2.93894 22.5877 6.46922 20.8513 8.90801C20.4515 9.47081 19.7004 10.1018 19.1512 10.3406L18.9332 10.4387V15.5806V20.7268L18.8403 20.8717C18.7918 20.9528 18.6868 21.0508 18.6101 21.0935C18.4769 21.1617 18.0932 21.1659 11.931 21.1659L5.39331 21.1617L5.32466 21.2853C5.23178 21.4431 5.0218 21.6264 4.88854 21.669C4.69875 21.7245 3.38232 21.7031 3.21675 21.6435C2.96235 21.5497 2.69987 21.1617 2.69987 20.8803C2.69987 20.8462 2.54238 20.8291 2.18299 20.8163C1.69438 20.8035 1.654 20.795 1.49247 20.6841C1.37536 20.5989 1.29056 20.4965 1.22192 20.3431C1.125 20.1256 1.125 20.1043 1.125 18.8423C1.12621 18.4379 1.12705 18.1537 1.13273 17.9512M19.3087 1.5959L18.8686 2.07343M19.3087 1.5959C18.6676 1.25638 18.4082 1.16464 17.7264 1.05094M17.644 1.03743C17.4436 1.16225 17.3381 1.46799 17.4189 1.6897M17.644 1.03743C17.6715 1.037 17.6992 1.04182 17.7264 1.05094M17.644 1.03743C17.6722 1.04198 17.6996 1.04648 17.7264 1.05094M17.644 1.03743L17.7264 1.05094M17.4189 1.6897C17.6165 1.66163 18.7135 1.94401 18.8686 2.07343M17.4189 1.6897C16.2357 1.65985 15.1979 2.06916 14.4024 2.88351M17.4189 1.6897C17.5383 1.66168 17.6332 1.64926 17.7087 1.63937C17.8862 1.61614 17.9571 1.60686 17.9882 1.44241C18.0157 1.29032 17.8796 1.10237 17.7264 1.05094M18.8686 2.07343C20.5242 2.94747 21.4005 4.67424 21.1501 6.57155C20.932 8.22583 19.7085 9.62004 18.1013 10.0464C17.5925 10.1828 16.6395 10.1786 16.167 10.0464C15.0606 9.72663 14.1157 8.90375 13.5948 7.79947C13.2515 7.07466 13.1142 6.28162 13.195 5.49712C13.304 4.48237 13.7159 3.58701 14.4024 2.88351M15.9853 11.9181V10.6433L15.7148 10.5452C15.1858 10.3662 14.6245 10.0208 14.1641 9.60299L13.934 9.39833H13.6271H13.3202V10.865C13.3202 11.7988 13.304 12.3743 13.2757 12.4596C13.1869 12.7282 12.8679 12.8135 12.6256 12.6344C12.5529 12.579 12.2864 12.3658 12.036 12.1569C11.7493 11.9181 11.5595 11.786 11.5192 11.803C11.4868 11.8158 11.2244 12.0205 10.9377 12.255C10.4248 12.6813 10.2754 12.7623 10.1018 12.7325C9.97659 12.7112 9.82314 12.5321 9.79083 12.3786C9.77872 12.3019 9.7666 11.6026 9.7666 10.8224V9.39833H8.45421H7.14182V11.0611V12.724L7.27508 12.7282C7.59005 12.7367 7.93329 12.9926 8.13116 13.3678C8.24019 13.5767 8.25231 13.6364 8.25231 13.9817C8.25231 14.3569 8.24827 14.3782 8.06251 14.7577L7.87676 15.15L9.87967 15.1628M15.9853 11.9181C15.9853 13.1375 15.9894 13.1972 16.0661 13.2782C16.1751 13.3933 16.3932 13.3891 16.4941 13.274C16.5668 13.193 16.5709 13.0949 16.583 11.9778M15.9853 11.9181V17.3713M15.9853 11.9181L16.583 11.9778M16.583 11.9778L16.5951 10.7712L16.9868 10.7925C17.3341 10.8139 17.6733 10.784 18.178 10.6945L18.3274 10.6646V15.5976V20.5264H17.4592H16.5911V17.3969M16.583 11.9778L16.5877 15.1801M16.5911 17.3969L15.9853 17.3713M16.5911 17.3969L16.5877 15.1801M16.5911 17.3969C16.5911 16.346 16.5911 15.648 16.5877 15.1801M15.9853 17.3713C15.9853 14.2717 15.9853 14.2162 16.0661 14.131C16.1872 14.003 16.4013 14.0158 16.5063 14.1565C16.5623 14.2298 16.5813 14.2677 16.5877 15.1801M15.9853 17.3713V20.5264H13.6149H11.2405V20.164V19.8016H11.8705C12.5529 19.8016 12.6781 19.7717 12.9123 19.5628C13.1021 19.3965 13.2111 19.1407 13.2152 18.8636C13.2192 18.7357 13.2031 18.5864 13.1869 18.5353C13.1586 18.4543 13.1788 18.4287 13.3161 18.3562C13.6069 18.1985 13.7724 17.8915 13.7724 17.495C13.7724 17.2178 13.6796 16.9918 13.4736 16.7872C13.2919 16.5996 13.086 16.5186 12.8073 16.5186H12.5691L12.5731 16.186C12.5731 15.8236 12.5246 15.6957 12.3147 15.4697M12.3147 15.4697C12.3066 15.4611 12.2989 15.4528 12.2914 15.4447M12.3147 15.4697L12.2914 15.4447M9.87967 15.1628C9.93807 15.1631 9.99488 15.1634 10.0502 15.1637M9.87967 15.1628L10.0502 15.1637M9.69796 15.7938L11.7937 15.8151L11.8907 15.9345C12.0118 16.088 12.0118 16.2244 11.8907 16.3779L11.7937 16.4973L10.4531 16.5186C9.18511 16.5399 9.11243 16.5442 9.05589 16.6209C8.97109 16.7446 8.98321 16.962 9.08416 17.0558C9.16492 17.1325 9.27395 17.1368 11.079 17.1581C12.884 17.1794 12.9931 17.1837 13.0738 17.2605C13.1304 17.3159 13.1586 17.3926 13.1586 17.495M9.69796 15.7938C9.63298 15.7932 9.56993 15.7926 9.50877 15.792M9.69796 15.7938L9.50877 15.792M13.1586 17.495C13.1586 17.5014 13.1585 17.5078 13.1584 17.5141M13.1586 17.495L13.1584 17.5141M11.0386 17.8403H9.15685L9.05993 17.9469C9.0034 18.0023 8.95898 18.1004 8.95898 18.1601C8.95898 18.2198 9.0034 18.3178 9.05993 18.3733L9.15685 18.4799H10.7761H12.3995L12.5166 18.6035C12.5812 18.6717 12.6337 18.7612 12.6337 18.7996C12.6337 18.9233 12.5125 19.1194 12.4197 19.1407C12.3712 19.1535 11.5434 19.1663 10.5823 19.1748L8.82976 19.1833L8.75303 19.2857C8.66419 19.4051 8.65208 19.5799 8.73284 19.6992C8.78534 19.7717 8.85802 19.7803 9.62527 19.8016L10.4612 19.8229L10.5581 19.9423C10.6792 20.0958 10.6792 20.2322 10.5581 20.3857L10.4612 20.5051H8.06251C6.74608 20.5051 5.61944 20.4923 5.55483 20.471L5.4458 20.4411V18.1004V15.7597L5.59925 15.7085C6.11613 15.5294 6.30996 15.2907 6.86319 14.1182C7.15797 13.4957 7.2347 13.3678 7.30334 13.3635C7.31546 13.3635 7.36795 13.3933 7.41641 13.4317C7.54563 13.5255 7.66678 13.8027 7.66678 13.9945C7.66678 14.1054 7.60217 14.3015 7.46487 14.5957C7.2347 15.0945 7.20643 15.2992 7.3518 15.5209C7.35867 15.5314 7.36509 15.5415 7.37125 15.5512C7.39353 15.5862 7.41231 15.6157 7.43592 15.6406C7.56227 15.774 7.82704 15.7764 9.50877 15.792M11.0386 17.8403C11.0894 17.8403 11.1389 17.8403 11.1873 17.8403M11.0386 17.8403L11.1873 17.8403M1.13273 17.9512C1.14603 17.4768 1.18583 17.4503 1.31883 17.3756C1.4319 17.3116 1.62977 17.3798 1.69034 17.5035C1.70379 17.5271 1.71474 17.7084 1.72183 17.9853M1.13273 17.9512L1.1251 16.1699M1.72183 17.9853L1.73063 16.2128M1.1251 16.1699C1.12833 16.5415 1.21401 16.6891 1.42786 16.6891C1.63406 16.6891 1.72734 16.5411 1.73063 16.2128M6.74069 8.83557C6.70635 8.86015 6.67732 8.88093 6.65271 8.90603C6.51808 9.04329 6.51546 9.30981 6.49852 11.0339M12.2914 15.4447C12.2449 15.3945 12.207 15.3537 12.1634 15.3204C11.9725 15.1746 11.6712 15.1729 10.0502 15.1637M13.1584 17.5141C13.1577 17.5896 13.1572 17.6476 13.1324 17.6922C13.0501 17.8405 12.7002 17.8405 11.1873 17.8403M12.7144 10.6348C12.7144 11.3127 12.7064 11.8712 12.6943 11.8712C12.6821 11.8712 12.5045 11.7305 12.2945 11.5557C11.7009 11.0526 11.5757 10.9929 11.3697 11.1123C11.3213 11.1379 11.0871 11.3212 10.8488 11.5174C10.6146 11.7092 10.4087 11.8712 10.3966 11.8712C10.3844 11.8712 10.3723 11.3127 10.3723 10.6348V9.39833H11.5434H12.7144V10.6348ZM4.77547 14.9666C4.83201 15.0263 4.84008 15.3589 4.84008 17.9853C4.84008 20.2237 4.82797 20.9485 4.79163 20.9869C4.75932 21.021 4.53722 21.038 4.06476 21.038C3.43885 21.038 3.38635 21.0338 3.34597 20.957C3.32174 20.9016 3.30559 19.8826 3.30559 17.9512C3.30559 15.3546 3.31367 15.0263 3.3702 14.9666C3.46308 14.8643 4.6826 14.8643 4.77547 14.9666Z" stroke="#00A64F" stroke-width="0.5"/>
<path d="M19.6186 3.60142L19.619 3.60109C19.7639 3.46029 19.9515 3.43149 20.1057 3.50047C20.2593 3.56912 20.3654 3.72798 20.3654 3.93025C20.3654 3.99156 20.3455 4.0512 20.3012 4.12882C20.2576 4.20515 20.1853 4.30732 20.07 4.45569C19.8388 4.75339 19.4224 5.25268 18.6822 6.13315C18.2247 6.67806 17.7918 7.18472 17.4625 7.56274C17.2979 7.7517 17.159 7.90883 17.0557 8.02265C17.0041 8.07949 16.9609 8.126 16.9278 8.16043C16.8988 8.19052 16.8706 8.21876 16.8506 8.23335C16.7472 8.31178 16.6093 8.35434 16.4738 8.36529C16.3379 8.37628 16.1929 8.3564 16.0728 8.29771C16.0511 8.28747 16.0298 8.27037 16.0142 8.25719C15.9954 8.24127 15.9734 8.22089 15.9492 8.19727C15.9005 8.14988 15.8391 8.08594 15.7693 8.01045C15.6297 7.85926 15.4539 7.65874 15.275 7.44491L15.275 7.44489C14.8144 6.89443 14.5748 6.60655 14.4511 6.43806C14.3895 6.35411 14.3514 6.29301 14.3298 6.23941C14.3062 6.18062 14.3045 6.13571 14.3045 6.0936C14.3045 5.84509 14.5089 5.64212 14.7562 5.64212C14.8024 5.64212 14.8506 5.64761 14.9067 5.67548C14.9584 5.7012 15.0114 5.74337 15.0753 5.80507C15.2028 5.92816 15.3989 6.15435 15.7467 6.56348L15.747 6.56385L16.4218 7.36537L16.5467 7.22118L16.547 7.22084C16.6397 7.11485 17.1417 6.51873 17.7415 5.8067C17.8648 5.66028 17.9922 5.50895 18.1211 5.35598C18.4987 4.90531 18.8552 4.48433 19.1256 4.16788C19.3934 3.85447 19.5817 3.63763 19.6186 3.60142Z" fill="#00A64F" stroke="#00A64F" stroke-width="0.2"/>
<circle cx="17.3348" cy="5.91638" r="4.38538" stroke="#00A64F"/>
</svg>
