<svg width="23" height="20" viewBox="0 0 23 20" fill="none" xmlns="http://www.w3.org/2000/svg">
<path d="M9.125 13.531L12.125 14.531C12.125 14.531 19.625 13.031 20.625 13.031C21.625 13.031 21.625 14.031 20.625 15.031C19.625 16.031 16.125 19.031 13.125 19.031C10.125 19.031 8.125 17.531 6.125 17.531H1.125" stroke="#00A64F" stroke-width="1.6" stroke-linecap="round" stroke-linejoin="round"/>
<path d="M7.125 6.03101V2.03101C7.125 1.76579 7.23036 1.51144 7.41789 1.3239C7.60543 1.13636 7.85978 1.03101 8.125 1.03101H20.125C20.3902 1.03101 20.6446 1.13636 20.8321 1.3239C21.0196 1.51144 21.125 1.76579 21.125 2.03101V10.031M1.125 11.531C2.125 10.531 4.125 9.03101 6.125 9.03101C8.125 9.03101 12.875 11.031 13.625 12.031C14.375 13.031 12.125 14.531 12.125 14.531L1.125 11.531Z" stroke="#00A64F" stroke-width="1.6" stroke-linecap="round" stroke-linejoin="round"/>
<path d="M11.625 1.03101H16.625V5.53101H11.625V1.03101Z" stroke="#00A64F" stroke-width="1.6" stroke-linecap="round" stroke-linejoin="round"/>
</svg>
