<svg width="25" height="16" viewBox="0 0 25 16" fill="none" xmlns="http://www.w3.org/2000/svg">
<path fill-rule="evenodd" clip-rule="evenodd" d="M20.2039 10.4458C18.9439 10.4458 17.929 11.4677 17.929 12.7202C17.929 13.9797 18.9509 14.9946 20.2039 14.9946C21.4629 14.9946 22.4778 13.9727 22.4778 12.7202C22.4778 11.4607 21.4559 10.4458 20.2039 10.4458V10.4458ZM3.36216 3.09675C3.47466 3.09206 3.55435 3.05503 3.60028 2.98472C3.72544 2.79769 3.55482 2.61253 3.43622 2.48175C3.1006 2.11378 2.277 1.22737 2.11153 1.03237C1.98591 0.893623 1.80685 0.893623 1.68169 1.03237C1.51013 1.23253 0.645753 2.15878 0.326066 2.51737C0.215441 2.64206 0.0785656 2.81222 0.193878 2.98472C0.240753 3.05503 0.319972 3.09206 0.432472 3.09675H1.09153V3.97987C1.09153 4.1655 1.24294 4.31737 1.42857 4.31737H2.3656C2.55122 4.31737 2.7031 4.1655 2.7031 3.97987V3.09675H3.36216V3.09675ZM3.36216 7.18565C3.47466 7.1805 3.55435 7.14347 3.60028 7.07362C3.72544 6.88612 3.55482 6.70097 3.43622 6.57065C3.1006 6.20222 2.277 5.31581 2.11153 5.12081C1.98591 4.98206 1.80685 4.98206 1.68169 5.12081C1.51013 5.32097 0.645753 6.24722 0.326066 6.60581C0.215441 6.7305 0.0785656 6.90065 0.193878 7.07362C0.240753 7.14347 0.319972 7.1805 0.432472 7.18565H1.09153V8.06878C1.09153 8.25394 1.24294 8.40581 1.42857 8.40581H2.3656C2.55122 8.40581 2.7031 8.25347 2.7031 8.06878V7.18565H3.36216V7.18565ZM5.22966 0.865967H8.80107C8.98857 0.865967 9.14232 1.01925 9.14232 1.20722V4.06425C9.14232 4.25175 8.98857 4.40503 8.80107 4.40503H5.22966C5.04216 4.40503 4.88888 4.25175 4.88888 4.06425V1.20722C4.88888 1.01925 5.04216 0.865967 5.22966 0.865967V0.865967ZM10.3118 4.92909H13.8833C14.0708 4.92909 14.2245 5.08237 14.2245 5.27034V8.12737C14.2245 8.31487 14.0708 8.46815 13.8833 8.46815H10.3118C10.1243 8.46815 9.97107 8.31487 9.97107 8.12737V5.27034C9.97107 5.08237 10.1243 4.92909 10.3118 4.92909V4.92909ZM11.5376 5.31675H12.6575V6.50034L12.1029 6.03206L11.5376 6.50034V5.31675V5.31675ZM10.3118 0.865967H13.8833C14.0708 0.865967 14.2245 1.01925 14.2245 1.20722V4.06425C14.2245 4.25175 14.0708 4.40503 13.8833 4.40503H10.3118C10.1243 4.40503 9.97107 4.25175 9.97107 4.06425V1.20722C9.97107 1.01925 10.1243 0.865967 10.3118 0.865967V0.865967ZM11.5376 1.25315H12.6575V2.43675L12.1029 1.96847L11.5376 2.43675V1.25315V1.25315ZM5.22966 4.92909H8.80107C8.98857 4.92909 9.14232 5.08237 9.14232 5.27034V8.12737C9.14232 8.31487 8.98857 8.46815 8.80107 8.46815H5.22966C5.04216 8.46815 4.88888 8.31487 4.88888 8.12737V5.27034C4.88888 5.08237 5.04216 4.92909 5.22966 4.92909V4.92909ZM6.45497 5.31675H7.57528V6.50034L7.02075 6.03206L6.45497 6.50034V5.31675ZM6.45497 1.25315H7.57528V2.43675L7.02075 1.96847L6.45497 2.43675V1.25315V1.25315ZM7.17122 10.6478C5.91122 10.6478 4.89685 11.6697 4.89685 12.9217C4.89685 14.1817 5.91872 15.1961 7.17122 15.1961C8.43075 15.1961 9.4456 14.1747 9.4456 12.9217C9.4456 11.6627 8.42372 10.6478 7.17122 10.6478ZM7.17122 12.0471C6.68841 12.0471 6.29653 12.4389 6.29653 12.9217C6.29653 13.405 6.68841 13.7964 7.17122 13.7964C7.65403 13.7964 8.04591 13.405 8.04591 12.9217C8.04591 12.4389 7.65403 12.0471 7.17122 12.0471ZM14.9904 9.22097H0.150284V11.5638C0.150284 12.13 0.613878 12.5941 1.18107 12.5941H4.167C4.24294 11.8952 4.55982 11.2652 5.03325 10.7899L5.03466 10.788L5.03794 10.7852C5.58497 10.2391 6.33919 9.90019 7.17122 9.90019C8.00419 9.90019 8.76075 10.2386 9.30825 10.7857C9.78169 11.2596 10.099 11.89 10.175 12.5941H17.3628C17.5165 9.09534 22.5336 8.61253 23.0445 12.5941H24.1503C23.5133 8.16159 24.1512 9.14222 20.1364 7.563C20.1022 7.05206 19.9653 6.53878 19.782 6.03394C18.9879 3.84487 17.6712 4.03519 14.9904 4.01644V9.22097ZM17.6079 5.21222L16.3217 5.19159V7.563H18.7029C18.5843 6.78956 18.2768 5.87597 17.6079 5.21222V5.21222ZM20.2039 11.8455C19.7206 11.8455 19.3292 12.2374 19.3292 12.7202C19.3292 13.203 19.7206 13.5949 20.2039 13.5949C20.6862 13.5949 21.0781 13.203 21.0781 12.7202C21.0781 12.2374 20.6862 11.8455 20.2039 11.8455Z" fill="#00A64F"/>
</svg>
