<svg width="21" height="21" viewBox="0 0 21 21" fill="none" xmlns="http://www.w3.org/2000/svg">
<path d="M16.4063 0.11694C15.5344 0.360689 14.761 1.00288 14.4328 1.75288L14.3203 2.01069L8.92971 2.02475L3.53908 2.03881L3.08908 2.16538C1.53283 2.59194 0.520331 3.63256 0.215643 5.1185C0.098456 5.67632 0.112518 7.42006 0.234393 8.01538C0.464081 9.13569 1.17658 10.0498 2.22658 10.5654C3.05627 10.9732 3.13127 10.9873 5.34846 11.006L7.29377 11.0201L7.42033 11.2966C7.87033 12.2763 8.85002 12.9466 9.93752 13.0169C11.1422 13.0966 12.286 12.4216 12.8063 11.3294L12.961 11.0107L14.7656 11.0294C16.2516 11.0435 16.6078 11.0576 16.786 11.1185C17.5641 11.3857 17.9813 11.8685 18.0938 12.6326C18.1547 13.0591 18.1547 14.0529 18.0891 14.4373C17.9578 15.2576 17.4281 15.806 16.6031 15.9794C16.4297 16.0169 14.7703 16.031 11.1516 16.031H5.94846L5.87346 15.8576C5.56408 15.1076 4.82346 14.4373 4.01252 14.1748C3.46877 13.9966 2.76564 13.9966 2.21721 14.1748C1.74846 14.3294 1.21408 14.6716 0.895331 15.0326C0.595331 15.3654 0.304706 15.9232 0.206268 16.3404C0.0937684 16.8138 0.135956 17.5919 0.290643 18.0091C0.618768 18.8857 1.27033 19.5373 2.14689 19.8654C2.56877 20.0201 3.35158 20.0623 3.79689 19.9498C4.69221 19.7201 5.48439 19.0779 5.82189 18.2951L5.92971 18.0513L11.3203 18.0373L16.711 18.0185L17.1094 17.9107C18.7453 17.4654 19.8094 16.3404 20.0578 14.8123C20.086 14.6435 20.1094 14.0529 20.1094 13.4998C20.1094 12.2669 20.0344 11.8404 19.7156 11.1888C19.2422 10.2185 18.3891 9.52475 17.25 9.18256C16.9125 9.07944 16.8094 9.07475 14.9297 9.06069L12.9563 9.04194L12.8063 8.72788C12.2813 7.64038 11.161 6.97475 9.96096 7.04506C8.85471 7.11069 7.87502 7.77632 7.42033 8.77007L7.29377 9.04663H5.64846C4.39689 9.04663 3.93283 9.02788 3.68908 8.97631C2.78908 8.78881 2.27814 8.27319 2.15627 7.42944C2.09533 7.00288 2.09533 6.00913 2.16096 5.62475C2.28752 4.82319 2.77971 4.28881 3.56721 4.10131C3.82502 4.04038 4.59377 4.031 9.08439 4.031H14.3016L14.3766 4.20444C14.4938 4.49038 14.8406 4.98725 15.0703 5.19819C16.1203 6.1685 17.6156 6.29975 18.7735 5.52163C19.2422 5.21225 19.5563 4.84663 19.8047 4.33569C20.0625 3.806 20.1281 3.46381 20.1 2.84506C20.0391 1.64038 19.2844 0.637251 18.1031 0.196627C17.7 0.046627 16.8141 0.00444031 16.4063 0.11694ZM17.3813 2.07163C17.6906 2.14663 18.0141 2.47944 18.0891 2.7935C18.2016 3.25288 17.9953 3.69819 17.5735 3.90913C17.1563 4.11538 16.7485 4.04975 16.4203 3.72163C16.1016 3.40288 16.0406 2.99975 16.2469 2.58257C16.3781 2.32006 16.6172 2.12319 16.8844 2.06225C17.1047 2.01069 17.1375 2.01069 17.3813 2.07163ZM3.44064 16.0873C3.82033 16.2044 4.12502 16.6404 4.12502 17.0716C4.12502 17.3107 3.90939 17.7044 3.69846 17.8451C3.26721 18.131 2.79846 18.0841 2.43752 17.7185C1.94064 17.2263 2.05783 16.4623 2.67658 16.1529C2.94846 16.0169 3.15002 16.0029 3.44064 16.0873Z" fill="#4F5052"/>
</svg>
