<svg width="14" height="14" viewBox="0 0 14 14" fill="none" xmlns="http://www.w3.org/2000/svg">
<g clip-path="url(#clip0_226_3287)">
<path d="M7.00425 13C6.76624 13 6.52673 12.9148 6.33572 12.7429L4.46164 11.1421H3.00008C1.89704 11.1421 1 10.2324 1 9.11375V3.02831C0.9995 1.9097 1.89654 1 2.99958 1H10.9999C12.103 1 13 1.9097 13 3.02831V9.11325C13 10.2319 12.103 11.1416 10.9999 11.1416H9.57386L7.65028 12.7541C7.46927 12.9173 7.23776 12.9995 7.00375 12.9995L7.00425 13ZM2.99958 2.01416C2.44806 2.01416 1.99954 2.469 1.99954 3.02831V9.11325C1.99954 9.67255 2.44806 10.1274 2.99958 10.1274H4.64415C4.76216 10.1274 4.87616 10.1695 4.96667 10.2466L6.99025 11.9757L9.07534 10.2435C9.16534 10.1685 9.27784 10.1274 9.39435 10.1274H11.0004C11.5519 10.1274 12.0005 9.67255 12.0005 9.11325V3.02831C12.0005 2.469 11.5519 2.01416 11.0004 2.01416H2.99958Z" fill="#666666" stroke="#666666" stroke-width="0.5"/>
</g>
<defs>
<clipPath id="clip0_226_3287">
<rect width="14" height="14" fill="white"/>
</clipPath>
</defs>
</svg>
