<svg width="91" height="60" viewBox="0 0 91 60" fill="none" xmlns="http://www.w3.org/2000/svg">
<path d="M81.6363 53.5701C81.6472 53.4834 81.6557 53.3959 81.6627 53.3076H79.0171L78.6128 52.2752L77.8809 50.4111H72.0021L71.2695 52.276L70.8637 53.3068H68.2181C68.2243 53.3943 68.2336 53.4826 68.2444 53.5693H67.6992C67.7991 54.4584 68.0617 55.3258 68.4737 56.1166C68.6952 56.5418 68.9531 56.9383 69.2442 57.3031L69.6315 56.9158C69.9668 57.3441 70.3525 57.7313 70.7808 58.0659L70.3928 58.4539C71.4545 59.3027 72.7447 59.8448 74.128 59.9989V59.4522C74.3944 59.4847 74.6654 59.501 74.9412 59.501C75.2169 59.501 75.4879 59.4847 75.7544 59.4522V59.9974C77.1391 59.8448 78.4277 59.3035 79.4896 58.4547L79.1 58.0651C79.5283 57.7298 79.9155 57.3434 80.2493 56.9135L80.6373 57.3015C80.9355 56.9282 81.1988 56.524 81.4226 56.0895C81.4389 56.057 81.4559 56.0245 81.4714 55.9912C81.8517 55.2244 82.0917 54.4136 82.1839 53.5686L81.6363 53.5701ZM76.2772 53.4524C76.0169 53.9535 75.5043 54.2648 74.9405 54.2648C74.3759 54.2648 73.864 53.9535 73.6037 53.4524C73.4922 53.2387 73.4334 52.9993 73.4334 52.7577C73.4334 51.9259 74.1087 51.2506 74.9405 51.2506C75.7707 51.2506 76.4476 51.9259 76.4476 52.7577C76.4476 52.9978 76.3887 53.2387 76.2772 53.4524H76.2772Z" fill="#A42C24"/>
<path d="M14.6203 53.5706C14.6528 53.3042 14.6691 53.0332 14.6691 52.7575C14.6691 52.4817 14.6528 52.2107 14.6203 51.9443H15.1655C15.0091 50.5433 14.4546 49.2608 13.6158 48.2146L13.2332 48.5972C12.8971 48.1689 12.5115 47.7832 12.0832 47.4479L12.4673 47.0638C11.421 46.2266 10.1385 45.6713 8.73763 45.5156V46.0608C8.47121 46.0283 8.20017 46.0121 7.92445 46.0121C7.64873 46.0121 7.37769 46.0283 7.11126 46.0608V45.5156C5.71028 45.6721 4.42781 46.2266 3.38159 47.0653L3.76418 47.4479C3.33589 47.7832 2.95022 48.1689 2.61488 48.5972L2.2323 48.2146C1.39433 49.2609 0.839064 50.5434 0.682617 51.9443H1.22783C1.19531 52.2107 1.17904 52.4817 1.17904 52.7575C1.17904 53.0332 1.19531 53.3042 1.22783 53.5706H0.682617C0.782522 54.4597 1.04506 55.3271 1.45706 56.1179C1.67856 56.5431 1.93646 56.9396 2.22764 57.3044L2.61486 56.9171C2.9502 57.3454 3.33588 57.7326 3.76416 58.0672L3.37616 58.4552C4.43794 59.304 5.72812 59.8461 7.11138 60.0002V59.4535C7.3778 59.486 7.64885 59.5023 7.92457 59.5023C8.20029 59.5023 8.47133 59.486 8.73775 59.4535V59.9987C10.1225 59.8461 11.4111 59.3048 12.473 58.456L12.0834 58.0664C12.5117 57.7311 12.8989 57.3447 13.2327 56.9148L13.6207 57.3028C13.9189 56.9295 14.1822 56.5253 14.406 56.0908C14.4223 56.0583 14.4393 56.0258 14.4548 55.9924C14.8351 55.2257 15.0751 54.4149 15.1673 53.5699L14.6203 53.5706ZM9.26112 53.4529C9.0009 53.954 8.48822 54.2653 7.92441 54.2653C7.35982 54.2653 6.84791 53.954 6.5877 53.4529C6.47618 53.2392 6.41732 52.9999 6.41732 52.7582C6.41732 51.9265 7.09263 51.2511 7.92441 51.2511C8.75463 51.2511 9.43151 51.9265 9.43151 52.7582C9.43151 52.9983 9.37265 53.2392 9.26112 53.4529H9.26112Z" fill="#A42C24"/>
<path d="M84.6299 51.6813H80.1256L79.1444 49.1814C79.0491 48.9406 78.8214 48.7857 78.5612 48.7857H71.3186C71.0591 48.7857 70.8315 48.9406 70.7377 49.1822L69.7557 51.6813H65.2515L65.5543 50.8681L65.8578 50.0549L66.5703 48.1405C67.2666 46.2694 69.0758 45.0117 71.0746 45.0117H78.8099C80.8072 45.0117 82.6179 46.2694 83.3142 48.142L84.0267 50.0557L84.6299 51.6813Z" fill="#A42C24"/>
<path d="M89.9596 29.7672L86.9671 9.96284L86.1779 10.1774L85.3872 10.3919L83.6369 10.8666L83.211 9.29678L85.0224 8.80422L85.8201 8.58736L86.617 8.37051L84.4548 3.84304L83.8863 4.54159L83.3194 5.23859L82.2375 6.56909L80.9751 5.54371L82.2894 3.92821L83.3473 2.62713L78.3226 0.295191V3.70586H76.6962V0.000774454L28.5012 0C25.6799 0 23.1202 1.55355 21.8192 4.05581L13.9338 6.10959C13.6387 6.18626 13.4103 6.41782 13.3367 6.71212C13.2631 7.00796 13.3561 7.31929 13.5807 7.5253L16.4677 10.181L9.61545 23.3816C9.23907 24.108 8.94864 24.8801 8.75424 25.6746C8.68377 25.9596 8.62413 26.2601 8.57844 26.5668L8.5614 26.6272V26.6535C7.96044 29.4284 7.50117 35.061 7.41831 38.2518L6.19003 37.6229C4.69999 36.8593 3.02877 36.4403 1.35506 36.4093L1.21179 36.407C0.994929 36.4024 0.788164 36.4852 0.631717 36.6378C0.476827 36.7904 0.39087 36.9948 0.39087 37.2124V41.4564C0.39087 41.9009 0.751764 42.2618 1.1963 42.2618H1.64084C1.10415 42.8775 0.603068 43.5598 0.141499 44.3009C-0.0706994 44.6417 -0.0420463 45.0808 0.21275 45.3952C0.448957 45.6849 0.824562 45.791 1.1692 45.664C6.91022 43.5281 10.585 43.9648 15.372 47.4592L15.4146 47.5397C15.485 47.6729 15.5563 47.7999 15.6252 47.9114C17.0208 50.2364 19.5718 51.6792 22.2824 51.6792H25.3826L25.3779 51.625L48.2849 51.6257V51.68H63.5177L64.1233 50.0536L65.0472 47.5714C65.9789 45.066 68.4022 43.3832 71.0755 43.3832H78.8108C81.4842 43.3832 83.9067 45.066 84.8391 47.573L85.7615 50.0536L86.3663 51.68H87.9989C89.1435 51.68 90.0753 50.7483 90.0753 49.6036L90.0745 30.525L89.9596 29.7672ZM17.5788 11.5715L21.2381 14.9374L20.6843 19.6647C20.5488 20.8163 19.5737 21.6838 18.4152 21.6838H12.3304L17.5788 11.5715ZM17.4107 30.8507C17.4107 31.0536 17.2457 31.2186 17.0428 31.2186H13.4454C13.2425 31.2186 13.0775 31.0536 13.0775 30.8507V29.4149C13.0775 29.2112 13.2425 29.0463 13.4454 29.0463H17.0428C17.2457 29.0463 17.4107 29.2112 17.4107 29.4149V30.8507ZM22.138 26.6175H10.2176C10.2502 26.4277 10.2889 26.2427 10.3322 26.0637C10.4221 25.6998 10.5351 25.3404 10.6715 24.9911H22.1588C22.148 25.5332 22.1403 26.0754 22.1379 26.6175L22.138 26.6175ZM39.8327 49.4571H35.1171V39.9019H39.8327V49.4571ZM46.0617 47.366H43.1752V45.7397H46.0617V47.366ZM46.0617 42.9678H43.1752V41.3415H46.0617V42.9678ZM46.0617 18.903H44.9023C43.7608 18.903 42.8315 19.8323 42.8315 20.9738V26.3167C42.8315 27.4598 43.7608 28.3883 44.9023 28.3883H46.0617V32.9049H32.834C31.7575 32.9049 30.8816 33.7808 30.8816 34.8573V37.9482C30.8816 39.0247 31.7575 39.9006 32.834 39.9006H32.9486V49.4558H25.2071L24.0609 34.8271C23.5924 28.8399 23.6753 22.7812 24.3049 16.8211L25.2335 8.0388H46.0607L46.0617 18.903ZM59.5743 44.8652C59.4473 45.5343 58.8618 46.0199 58.1811 46.0199H48.2302V8.03916H61.7569C63.209 8.03916 64.4265 9.17297 64.5302 10.6205L65.8955 29.7734C64.1228 29.8679 62.5885 31.0033 61.9597 32.6258H57.4601C56.482 32.6258 55.6874 33.4219 55.6874 34.3985V37.1742C55.6874 38.1523 56.482 38.9469 57.4601 38.9469H60.6904L59.5743 44.8652ZM88.4469 41.0835H61.9415L62.2482 39.4572H88.4463L88.4469 41.0835ZM88.4469 36.5995H62.7881L63.0948 34.9731H88.4483L88.4469 36.5995Z" fill="#A42C24"/>
</svg>
