<svg width="90" height="60" viewBox="0 0 90 60" fill="none" xmlns="http://www.w3.org/2000/svg">
<path d="M44.0212 35.1L53.0212 13.9125L48.9712 5.625H39.3712V0H52.4962L55.2337 5.625H81.5587L77.8087 18.75H61.6462L64.1587 23.8875C67.0063 22.7268 70.0956 22.284 73.1546 22.5981C76.2136 22.9122 79.1484 23.9735 81.7008 25.6887C84.2531 27.4038 86.3446 29.7201 87.7912 32.4337C89.2377 35.1473 89.995 38.1749 89.9962 41.25C89.9962 51.6 81.5962 60 71.2462 60C60.8962 60 52.4962 51.6 52.4962 41.25C52.4962 35.4375 55.1587 30.225 59.3212 26.8125L56.2462 20.625L45.9337 45H37.1212C36.4117 48.4759 34.7306 51.6793 32.2732 54.2379C29.8158 56.7966 26.6829 58.6056 23.2385 59.4548C19.794 60.3041 16.1793 60.1587 12.8141 59.0356C9.449 57.9125 6.47152 55.8578 4.22753 53.11C1.98355 50.3623 0.565132 47.0343 0.13703 43.5126C-0.291071 39.9909 0.288709 36.4201 1.80903 33.2147C3.32936 30.0094 5.72783 27.3011 8.72589 25.4045C11.724 23.5079 15.1986 22.5007 18.7462 22.5C28.4587 22.5 36.4462 29.8875 37.4962 39.375H39.6712L31.1212 18.75H28.1212C26.5837 18.75 25.3087 17.475 25.3087 15.9375C25.3087 14.4 26.5837 13.125 28.1212 13.125H38.4337C39.9712 13.125 41.2462 14.4 41.2462 15.9375C41.2462 17.475 39.9712 18.75 38.4337 18.75H37.3837L44.0212 35.1ZM18.7462 28.125C11.5087 28.125 5.62118 34.0125 5.62118 41.25C5.62801 44.4016 6.76737 47.4458 8.83151 49.8275C10.8957 52.2091 13.7471 53.7695 16.8657 54.2241C19.9844 54.6788 23.1626 53.9973 25.8208 52.304C28.4789 50.6108 30.4399 48.0185 31.3462 45H14.9962V39.375H31.7587C30.8212 33 25.3462 28.125 18.7462 28.125ZM71.2462 28.125C69.6337 28.125 68.0587 28.425 66.6337 28.95L73.8712 43.8L68.8087 46.275L61.8712 32.0625C59.5462 34.425 58.1212 37.6875 58.1212 41.25C58.1212 48.4875 64.0087 54.375 71.2462 54.375C78.4837 54.375 84.3712 48.4875 84.3712 41.25C84.3712 34.0125 78.4837 28.125 71.2462 28.125Z" fill="#A42C24"/>
</svg>
