<svg width="81" height="60" viewBox="0 0 81 60" fill="none" xmlns="http://www.w3.org/2000/svg">
<path d="M15.3511 42.9805C13.1216 43.0012 10.9927 43.9128 9.43894 45.5128C7.88518 47.1123 7.03582 49.2668 7.08027 51.4963C7.03884 53.7373 7.90042 55.901 9.47061 57.5005C11.0408 59.1 13.1881 60.0005 15.4298 60.0005C17.6708 60.0005 19.8181 59.0999 21.3883 57.5005C22.9584 55.901 23.8201 53.7373 23.7786 51.4963C23.8237 49.2399 22.953 47.061 21.3657 45.4566C19.7777 43.8523 17.6086 42.959 15.351 42.9804L15.3511 42.9805ZM15.4078 49.9366V49.936C15.8228 49.9311 16.2219 50.0938 16.5143 50.3881C16.8068 50.6818 16.9683 51.0821 16.961 51.4964C16.961 52.3446 16.2737 53.0319 15.4255 53.0319C14.5773 53.0319 13.89 52.3446 13.89 51.4964C13.8833 51.0882 14.0393 50.6933 14.3244 50.4009C14.609 50.1078 14.999 49.9402 15.4078 49.936V49.9366Z" fill="#A42C24"/>
<path d="M70.8879 43.0918C68.6974 43.1418 66.6142 44.0509 65.0877 45.623C63.5608 47.1944 62.7132 49.3034 62.7272 51.4945C62.6998 53.727 63.5674 55.8781 65.1364 57.4665C66.7055 59.055 68.8453 59.9495 71.0779 59.9495C73.311 59.9495 75.451 59.055 77.0201 57.4665C78.5891 55.8779 79.4567 53.727 79.4293 51.4945C79.4433 49.2376 78.5433 47.0709 76.9347 45.4878C75.3256 43.9049 73.1441 43.0407 70.8878 43.092L70.8879 43.0918ZM71.0592 49.9339C71.4741 49.929 71.8732 50.0917 72.1657 50.386C72.4582 50.6797 72.6197 51.08 72.6123 51.4944C72.6215 51.9075 72.4643 52.3066 72.1754 52.6021C71.8872 52.897 71.4918 53.0634 71.0787 53.0634C70.6656 53.0634 70.2701 52.897 69.9813 52.6021C69.6931 52.3066 69.5353 51.9075 69.545 51.4944C69.5377 51.0867 69.6937 50.6925 69.9776 50.4C70.2622 50.1069 70.6509 49.9394 71.0592 49.9339Z" fill="#A42C24"/>
<path d="M67.6746 33.3853C67.6752 33.4749 67.7136 33.5602 67.7806 33.6193C67.8476 33.679 67.9366 33.707 68.0256 33.6967C70.6109 33.3743 73.2297 33.9136 75.4775 35.2303C77.7253 36.5477 79.4759 38.5694 80.4581 40.9823C80.655 41.4661 80.5983 42.0169 80.3064 42.4502C80.0152 42.884 79.5265 43.1442 79.0037 43.1448H75.8212C73.6527 41.9128 71.0899 41.5728 68.6746 42.1967C66.2599 42.8206 64.1826 44.3591 62.8817 46.4876C61.5808 48.6154 61.1585 51.1659 61.7039 53.5996H24.796C25.4364 50.7529 24.7478 47.769 22.9247 45.4908C21.1016 43.212 18.342 41.8855 15.424 41.8855C12.5053 41.8855 9.74577 43.212 7.9226 45.4908C6.09943 47.769 5.41091 50.7529 6.05139 53.5996H3.28684H3.28745C2.69458 53.599 2.1212 53.3894 1.66847 53.0073C1.21575 52.6253 0.912291 52.0952 0.812366 51.5115C0.0842215 47.2627 0.635665 42.8932 2.39781 38.9588C4.15999 35.025 7.05244 31.7042 10.7072 29.4187V24.5789C10.7072 22.9123 11.3695 21.3141 12.548 20.1357C13.7264 18.9573 15.3247 18.2956 16.9911 18.2956H22.2538C24.1567 18.295 25.9578 19.1572 27.151 20.6402H35.9137C36.5803 20.6396 37.2201 20.9047 37.6911 21.3757C38.1627 21.8473 38.4278 22.4865 38.4278 23.1531V28.0174C38.4278 28.5493 38.259 29.0673 37.9452 29.4968C37.632 29.927 37.1903 30.2463 36.6839 30.409C34.0657 31.2529 32.0098 33.3002 31.1556 35.9155C30.3014 38.5307 30.7516 41.397 32.3669 43.624C33.9822 45.851 36.5677 47.1691 39.3186 47.1691H43.2042H43.2036C44.8226 47.1691 46.4106 46.7225 47.7918 45.878C49.1732 45.034 50.2949 43.8252 51.0334 42.3847C53.7784 37.0318 54.9257 31.0012 54.3372 25.014C53.7486 19.0268 51.4502 13.3358 47.7151 8.61828L40.681 11.6101C40.366 11.7271 40.015 11.5754 39.8846 11.2658C39.7536 10.9569 39.8895 10.5992 40.1924 10.4548L47.5298 7.33261L54.0209 0H59.1873C60.0793 0.000609283 60.9044 0.474058 61.3547 1.24424C61.886 2.15335 62.1663 3.18799 62.1663 4.24089C62.1663 5.29441 61.886 6.32908 61.3547 7.23817C60.9044 8.00836 60.0794 8.4818 59.1873 8.48241H58.9673C58.2776 14.5269 60.2755 20.5701 64.4323 25.0123C66.5155 27.3034 67.6726 30.2877 67.6776 33.3844L67.6746 33.3853Z" fill="#A42C24"/>
</svg>
