<svg width="81" height="60" viewBox="0 0 81 60" fill="none" xmlns="http://www.w3.org/2000/svg">
<path fill-rule="evenodd" clip-rule="evenodd" d="M53.9214 6.89648H71.024V26.7486L53.9214 6.89648Z" fill="#A42C24"/>
<path d="M13.5382 33.9229C20.7388 33.9229 26.5765 39.7606 26.5765 46.9611C26.5765 54.1616 20.7388 59.9993 13.5382 59.9993C9.93822 59.9993 6.67878 58.5398 4.31878 56.1806C1.95959 53.8214 0.5 50.5618 0.5 46.9611C0.5 43.3611 1.95957 40.1016 4.31878 37.7416C6.67797 35.3824 9.93757 33.9229 13.5382 33.9229ZM23.7757 46.9611C23.7757 41.3073 19.1921 36.7236 13.5382 36.7236C10.7114 36.7236 8.15172 37.8695 6.29959 39.7216C4.44745 41.5744 3.30158 44.1335 3.30158 46.9609C3.30158 49.7878 4.44749 52.3475 6.29959 54.1996C8.15172 56.0517 10.7114 57.1983 13.5382 57.1983C19.1921 57.1983 23.7757 52.6146 23.7757 46.9608V46.9611Z" fill="#A42C24"/>
<path d="M65.3058 33.9229C72.5064 33.9229 78.3441 39.7606 78.3441 46.9611C78.3441 54.1616 72.5064 59.9993 65.3058 59.9993C61.7058 59.9993 58.4464 58.5398 56.0864 56.1806C53.7272 53.8214 52.2676 50.5618 52.2676 46.9611C52.2676 43.3611 53.7272 40.1016 56.0864 37.7416C58.4455 35.3824 61.7051 33.9229 65.3058 33.9229ZM75.5433 46.9611C75.5433 41.3073 70.9596 36.7236 65.3058 36.7236C62.479 36.7236 59.9193 37.8695 58.0665 39.7216C56.2144 41.5744 55.0685 44.1335 55.0685 46.9609C55.0685 49.7878 56.2144 52.3475 58.0665 54.1996C59.9187 56.0517 62.4783 57.1983 65.3058 57.1983C70.9596 57.1983 75.5433 52.6146 75.5433 46.9608V46.9611Z" fill="#A42C24"/>
<path d="M12.8697 43.2547C12.7157 44.0099 13.2031 44.7473 13.9584 44.9012C14.7136 45.0552 15.451 44.5678 15.6049 43.8126L20.3119 20.7208L20.317 20.7214C20.3202 20.7061 20.3227 20.6915 20.3253 20.6762C20.4621 20.2525 21.5132 17.9162 28.1843 17.5121C28.9549 17.4669 29.5428 16.8052 29.4969 16.0353C29.4518 15.2648 28.7901 14.6769 28.0202 14.7227C19.8461 15.2184 18.0073 18.8946 17.6568 19.8916C17.6205 19.9775 17.5919 20.0679 17.5728 20.162L17.5773 20.1627L12.8703 43.2529L12.8697 43.2547Z" fill="#A42C24"/>
<path d="M65.3057 42.063C66.6577 42.063 67.8825 42.6114 68.7689 43.4978C69.6553 44.3841 70.2037 45.6089 70.2037 46.961C70.2037 48.313 69.6552 49.5378 68.7689 50.4242C67.8826 51.3105 66.6578 51.8589 65.3057 51.8589C63.9536 51.8589 62.7289 51.3105 61.8425 50.4242C60.9562 49.5379 60.4077 48.313 60.4077 46.961C60.4077 45.6089 60.9562 44.3842 61.8425 43.4978C62.7288 42.6113 63.9536 42.063 65.3057 42.063ZM66.7888 45.4778C66.4096 45.0986 65.8847 44.8638 65.3057 44.8638C64.726 44.8638 64.2018 45.0986 63.8226 45.4778C63.4433 45.857 63.2086 46.3819 63.2086 46.9609C63.2086 47.5399 63.4434 48.0648 63.8226 48.4441C64.2018 48.8233 64.7267 49.0581 65.3057 49.0581C65.8847 49.0581 66.4096 48.8233 66.7888 48.4441C67.168 48.0649 67.4028 47.5399 67.4028 46.9609C67.4028 46.3819 67.168 45.857 66.7888 45.4778Z" fill="#A42C24"/>
<path d="M37.1243 45.1244C36.3608 45.1244 35.6698 45.4336 35.1697 45.9337C34.6696 46.4338 34.3604 47.1248 34.3604 47.8883C34.3604 48.6518 34.6696 49.3428 35.1697 49.8429C35.6698 50.343 36.3608 50.6523 37.1243 50.6523C37.8878 50.6523 38.5788 50.343 39.0789 49.8429C39.579 49.3428 39.8882 48.6518 39.8882 47.8883C39.8882 47.1248 39.579 46.4338 39.0789 45.9337C38.5788 45.4336 37.8878 45.1244 37.1243 45.1244ZM33.1541 43.9187C34.1702 42.9026 35.5737 42.2739 37.1243 42.2739C38.6742 42.2739 40.0785 42.9026 41.0946 43.9187C42.1107 44.9348 42.7394 46.3383 42.7394 47.889C42.7394 49.4389 42.1107 50.8432 41.0946 51.8592C40.0785 52.8753 38.675 53.504 37.1243 53.504C35.5744 53.504 34.1701 52.8754 33.1541 51.8592C32.138 50.8431 31.5093 49.4396 31.5093 47.889C31.5093 46.339 32.1379 44.9348 33.1541 43.9187Z" fill="#A42C24"/>
<path d="M42.8876 27.1486C43.0867 26.4023 42.6439 25.6356 41.8975 25.4364C41.1512 25.2372 40.3845 25.6801 40.1853 26.4264L38.6278 32.0776C38.4286 32.8239 38.8714 33.5906 39.6178 33.7898C40.3641 33.989 41.1308 33.5461 41.33 32.7998L42.8876 27.1486Z" fill="#A42C24"/>
<path d="M38.5183 47.7947C38.4667 47.0242 37.8006 46.4414 37.0301 46.4929C36.2595 46.5445 35.6767 47.2106 35.7283 47.9805L36.2246 55.0766C36.2761 55.8471 36.9422 56.4299 37.7121 56.3784C38.4826 56.3269 39.0655 55.6607 39.0139 54.8908L38.5183 47.7947Z" fill="#A42C24"/>
<path d="M36.1672 44.6889C36.7138 45.2328 37.5982 45.2303 38.1422 44.6831C38.6862 44.1366 38.6836 43.2522 38.1364 42.7082L19.0678 23.6754C18.5213 23.1314 17.6369 23.1339 17.0929 23.6811C16.5489 24.2277 16.5514 25.1121 17.0986 25.6561L36.1672 44.6889Z" fill="#A42C24"/>
<path d="M55.3784 41.1699C56.0701 41.5109 56.908 41.2271 57.249 40.5355C57.59 39.8439 57.3062 39.006 56.6146 38.665L40.6929 30.8059L40.6942 30.8027C40.0006 30.4604 39.1608 30.7448 38.8184 31.4383C38.7611 31.5541 38.7217 31.6738 38.6988 31.7946L35.7949 43.3593C35.6079 44.1082 36.0634 44.8679 36.8123 45.0549C37.5612 45.2419 38.3209 44.7864 38.5079 44.0375L41.0085 34.0776L55.3778 41.1706L55.3784 41.1699Z" fill="#A42C24"/>
<path d="M54.3031 51.7243C55.0838 51.6505 55.6571 50.9576 55.5839 50.1762C55.5101 49.3956 54.8172 48.8223 54.0359 48.8955L36.9463 50.5135C36.1656 50.5873 35.5923 51.2801 35.6655 52.0615C35.7393 52.8422 36.4322 53.4154 37.2135 53.3423L54.3031 51.7243Z" fill="#A42C24"/>
<path fill-rule="evenodd" clip-rule="evenodd" d="M35.3316 55.4473H40.2829C41.4155 55.4473 42.3343 56.5798 42.3343 57.4986C42.3343 58.6311 41.4161 59.5499 40.2829 59.5499H35.3316C34.1991 59.5499 33.2803 58.4174 33.2803 57.4986C33.2803 56.3661 34.1984 55.4473 35.3316 55.4473Z" fill="#A42C24"/>
<path fill-rule="evenodd" clip-rule="evenodd" d="M33.6333 23.2813C33.6333 23.2813 34.0176 20.9131 38.8138 22.6768L44.3187 24.0372C44.3187 24.0372 48.7121 24.2961 46.9509 26.1858C46.9509 26.1858 46.4419 27.3247 42.9756 27.8095L41.7921 27.7561C41.7921 27.7561 40.498 27.6472 39.3298 26.3811C39.3298 26.3811 39.0492 25.5527 36.921 24.6187C36.921 24.6187 35.2037 24.1848 34.5191 24.2389C34.5191 24.2389 33.2218 24.3731 33.6334 23.2813L33.6333 23.2813Z" fill="#A42C24"/>
<path d="M54.1888 44.8583C54.9593 44.8494 55.5765 44.2176 55.5676 43.4471C55.5587 42.6766 54.9269 42.0594 54.1563 42.069L37.0667 42.3037C36.2962 42.3126 35.679 42.9444 35.6886 43.715C35.6975 44.4855 36.3293 45.1026 37.0998 45.0931L54.1894 44.8583H54.1888Z" fill="#A42C24"/>
<path d="M13.5381 42.063C14.8902 42.063 16.1149 42.6114 17.0013 43.4978C17.8877 44.3841 18.4361 45.6089 18.4361 46.961C18.4361 48.313 17.8876 49.5378 17.0013 50.4242C16.115 51.3105 14.8902 51.8589 13.5381 51.8589C12.186 51.8589 10.9613 51.3105 10.0749 50.4242C9.1886 49.5379 8.64014 48.313 8.64014 46.961C8.64014 45.6083 9.1886 44.3842 10.0749 43.4978C10.9612 42.6113 12.186 42.063 13.5381 42.063ZM15.0212 45.4778C14.642 45.0986 14.1171 44.8638 13.5381 44.8638C12.9591 44.8638 12.4342 45.0986 12.055 45.4778C11.6758 45.857 11.441 46.3819 11.441 46.9609C11.441 47.5399 11.6758 48.0648 12.055 48.4441C12.4342 48.8233 12.9591 49.0581 13.5381 49.0581C14.1171 49.0581 14.642 48.8233 15.0212 48.4441C15.4005 48.0649 15.6352 47.5399 15.6352 46.9609C15.6352 46.3819 15.4004 45.857 15.0212 45.4778Z" fill="#A42C24"/>
<path d="M66.7051 35.3247C66.7051 34.551 66.0784 33.9243 65.3047 33.9243C64.531 33.9243 63.9043 34.551 63.9043 35.3247V43.4682C63.9043 44.2413 64.531 44.8686 65.3047 44.8686C66.0784 44.8686 66.7051 44.2419 66.7051 43.4682V35.3247Z" fill="#A42C24"/>
<path d="M76.0832 42.3513C76.7506 41.9644 76.9784 41.1099 76.5916 40.4424C76.2047 39.775 75.3502 39.5472 74.6828 39.9341L67.6304 44.0055C66.963 44.3923 66.7352 45.2468 67.1221 45.9143C67.5089 46.5817 68.3634 46.8095 69.0309 46.4227L76.0832 42.3513Z" fill="#A42C24"/>
<path d="M74.6886 53.9893C75.356 54.373 76.2086 54.1427 76.5923 53.4752C76.9761 52.8078 76.7457 51.9552 76.0782 51.5715L69.0259 47.5001C68.3585 47.1164 67.5059 47.3467 67.1222 48.0141C66.7384 48.6816 66.9688 49.5342 67.6363 49.9179L74.6886 53.9893Z" fill="#A42C24"/>
<path d="M63.9043 58.5986C63.9043 59.3716 64.531 59.999 65.3047 59.999C66.0784 59.999 66.7051 59.3716 66.7051 58.5986V50.4551C66.7051 49.6814 66.0784 49.0547 65.3047 49.0547C64.531 49.0547 63.9043 49.6814 63.9043 50.4551V58.5986Z" fill="#A42C24"/>
<path d="M54.5303 51.5715C53.8628 51.9552 53.6325 52.8071 54.0162 53.4753C54.3998 54.1427 55.2518 54.373 55.9199 53.9893L62.9723 49.9179C63.6397 49.5343 63.87 48.6817 63.4864 48.0142C63.1027 47.3466 62.2507 47.1164 61.5826 47.5001L54.5303 51.5715Z" fill="#A42C24"/>
<path d="M55.9264 39.9341C55.2589 39.5472 54.4038 39.775 54.0176 40.4424C53.6307 41.1099 53.8585 41.965 54.5259 42.3513L61.5783 46.4227C62.2457 46.8095 63.1008 46.5817 63.4871 45.9143C63.8739 45.2469 63.6461 44.3917 62.9787 44.0055L55.9264 39.9341Z" fill="#A42C24"/>
<path d="M24.3106 42.3476C24.9781 41.964 25.2084 41.1114 24.8247 40.4439C24.4411 39.7763 23.5885 39.5461 22.921 39.9298L15.8686 44.0012C15.2012 44.3848 14.9709 45.2368 15.3546 45.9049C15.7382 46.5724 16.5902 46.8027 17.2583 46.419L24.3106 42.3476Z" fill="#A42C24"/>
<path d="M22.9166 53.9857C23.5841 54.3725 24.4392 54.1447 24.8255 53.4773C25.2123 52.8098 24.9845 51.9547 24.3171 51.5685L17.2648 47.4971C16.5973 47.1102 15.7422 47.338 15.3559 48.0054C14.9691 48.6729 15.1969 49.528 15.8643 49.9143L22.9166 53.9857Z" fill="#A42C24"/>
<path d="M12.1396 58.5956C12.1396 59.3687 12.7664 59.9961 13.5401 59.9961C14.3138 59.9961 14.9405 59.3687 14.9405 58.5956V50.4522C14.9405 49.6785 14.3138 49.0518 13.5401 49.0518C12.767 49.0518 12.1396 49.6785 12.1396 50.4522V58.5956Z" fill="#A42C24"/>
<path d="M2.75983 51.5685C2.09239 51.9553 1.86461 52.8098 2.25146 53.4773C2.6383 54.1447 3.4928 54.3725 4.16027 53.9857L11.2126 49.9143C11.88 49.5274 12.1078 48.6729 11.721 48.0054C11.3341 47.338 10.4796 47.1102 9.81215 47.4971L2.75983 51.5685Z" fill="#A42C24"/>
<path d="M4.15529 39.9312C3.48785 39.5475 2.63527 39.7779 2.25152 40.4453C1.86785 41.1127 2.09818 41.9653 2.76561 42.3491L9.81793 46.4205C10.4854 46.8041 11.3379 46.5738 11.7217 45.9064C12.1054 45.239 11.875 44.3864 11.2076 44.0026L4.15529 39.9312Z" fill="#A42C24"/>
<path fill-rule="evenodd" clip-rule="evenodd" d="M72.4238 6.89648H80.6697V26.747H72.4238V6.89648Z" fill="#A42C24"/>
<path fill-rule="evenodd" clip-rule="evenodd" d="M78.2255 0H56.3749C55.0311 0 53.9316 1.09946 53.9316 2.44324V5.49728H80.6688V2.44324C80.6688 1.09946 79.5693 0 78.2255 0Z" fill="#A42C24"/>
<path fill-rule="evenodd" clip-rule="evenodd" d="M79.7433 46.9628H80.6697V28.1499H57.358C55.6783 28.1499 54.8353 29.6108 54.3039 31.2039L52.0522 37.9592L53.5939 38.5165C54.0437 37.8943 54.5451 37.3045 55.0967 36.7528C57.8123 34.0373 61.4651 32.5236 65.3062 32.5236C73.2798 32.5236 79.7449 38.9886 79.7449 46.9623L79.7433 46.9628Z" fill="#A42C24"/>
</svg>
