<svg width="60" height="60" viewBox="0 0 60 60" fill="none" xmlns="http://www.w3.org/2000/svg">
<path d="M57.01 14.1092C55.3645 14.1092 54.0281 15.4455 54.0281 17.1001V20.9547C54.0281 21.9638 54.5283 22.8456 55.2915 23.391L52.637 25.8455C52.3826 18.9456 51.3098 12.5268 49.7004 7.99089C49.4641 7.31819 49.1006 6.72747 48.6551 6.21813H50.6732C51.1734 6.21813 51.5822 5.80891 51.5822 5.30913C51.5822 2.38201 49.3187 0 46.537 0H13.4639C10.6732 0 8.40926 2.38201 8.40926 5.30913C8.40926 5.80933 8.81848 6.21813 9.31826 6.21813H11.2363C10.7909 6.73644 10.4273 7.33627 10.2001 8.0271C8.46398 13.1275 7.50027 19.3366 7.30013 25.8L4.70893 23.3908C5.47262 22.8453 5.97235 21.9635 5.97235 20.9545V17.0999C5.97235 15.4453 4.62691 14.109 2.98143 14.109C1.33639 14.109 0 15.4452 0 17.0999V20.9545C0 22.4728 1.1272 23.7091 2.58171 23.9092L7.26381 28.2455C7.25476 34.6365 7.99127 41.1634 9.4458 47.0726V56.1725C9.4458 57.6727 10.6277 58.9 12.0642 58.9H14.9002C16.3456 58.9 17.5186 57.6727 17.5186 56.1725V53.9453H25.8734V57.0091C25.8734 58.6546 27.1549 60 28.7367 60H31.1639C32.7456 60 34.0276 58.6546 34.0276 57.0091V53.9453H42.3824V56.1725C42.3824 57.6727 43.5553 58.9 45.0007 58.9H47.8368C49.2822 58.9 50.4551 57.6727 50.4551 56.1725V47.5815C52.0911 41.6088 52.7643 34.7994 52.7005 28.272L57.4098 23.9081C58.8643 23.7085 60.0009 22.4722 60.0009 20.9538V17.0992C60.0009 15.4447 58.6555 14.1083 57.01 14.1083L57.01 14.1092ZM10.3457 4.39999C10.7092 2.90928 11.973 1.81829 13.4638 1.81829H46.5368C48.028 1.81829 49.2823 2.90926 49.6549 4.39999H10.3457ZM47.4369 24.6269C46.9367 25.1633 46.264 25.4634 45.546 25.4634H14.3916C13.6732 25.4634 13.0095 25.1633 12.5098 24.6269C11.9914 24.0633 11.7189 23.2906 11.7823 22.5087C12.1096 18.1724 12.7913 14.245 13.8185 10.836C14.1548 9.70879 15.1547 8.95416 16.3095 8.95416L43.6003 8.9451C44.7547 8.9451 45.7638 9.70879 46.1095 10.8541C47.0914 14.0812 47.8007 18.1089 48.1551 22.4815C48.2185 23.2728 47.9551 24.0546 47.4367 24.6273L47.4369 24.6269ZM47.7642 30.7906V32.0726C47.7642 33.5728 46.5823 34.8 45.1368 34.8H40.7639C39.3184 34.8 38.146 33.5728 38.146 32.0726V30.7906C38.146 29.2814 39.3189 28.0632 40.7639 28.0632H45.1368C46.5823 28.0632 47.7642 29.2818 47.7642 30.7906ZM33.5735 35.8453C33.5735 37.9906 31.9461 39.7452 29.9462 39.7452C27.9553 39.7452 26.3279 37.9905 26.3279 35.8453C26.3279 33.6905 27.9553 31.9454 29.9462 31.9454C31.9461 31.9454 33.5735 33.6906 33.5735 35.8453ZM21.2462 30.7906V32.0726C21.2462 33.5728 20.0642 34.8 18.6188 34.8H14.2459C12.8004 34.8 11.6279 33.5728 11.6279 32.0726V30.7906C11.6279 29.2814 12.8008 28.0632 14.2459 28.0632H18.6188C20.0647 28.0632 21.2462 29.2818 21.2462 30.7906ZM15.7008 56.1728C15.7008 56.6639 15.3369 57.0818 14.9005 57.0818H12.0644C11.628 57.0818 11.2641 56.6725 11.2641 56.1728V51.9727C12.2369 53.1909 13.6642 53.9455 15.2278 53.9455H15.7004L15.7008 56.1728ZM10.2011 41.7822C10.083 41.1186 9.98294 40.446 9.88291 39.7732H24.0736C23.9374 39.9186 23.7916 40.0643 23.6553 40.2277C23.2642 40.7003 22.9369 41.2187 22.6554 41.7823L10.2011 41.7822ZM32.2108 57.0095C32.2108 57.655 31.7473 58.1824 31.1656 58.1824H28.7383C28.1656 58.1824 27.693 57.655 27.693 57.0095V50.7095H32.2113L32.2108 57.0095ZM36.2655 48.6457C36.1111 48.8 35.9201 48.891 35.7109 48.891H24.2469C24.0468 48.891 23.8562 48.8 23.7014 48.6457C23.5289 48.4637 23.4379 48.2002 23.447 47.9367L23.5561 45.4366C23.6199 43.9183 24.1559 42.4728 25.0563 41.382C25.5108 40.8455 25.9472 40.4454 26.3926 40.1548C27.3473 41.0275 28.5836 41.564 29.947 41.564C31.3382 41.564 32.6016 41.0095 33.5653 40.1004C33.611 40.1276 33.6472 40.1548 33.7016 40.1914C35.2199 41.2733 36.2107 43.1461 36.338 45.2004L36.5105 47.9188C36.5286 48.1913 36.4376 48.4548 36.2651 48.6458L36.2655 48.6457ZM48.6381 56.173C48.6381 56.6732 48.2745 57.082 47.8377 57.082H45.0017C44.5653 57.082 44.2013 56.6637 44.2013 56.173V53.9457H44.7197C46.2561 53.9457 47.6653 53.2183 48.6381 52.0549L48.6381 56.173ZM49.8743 41.7825H37.2832C36.9283 41.0369 36.4738 40.3642 35.9377 39.7735H50.1836C50.0927 40.4462 49.9926 41.1189 49.8745 41.7825H49.8743Z" fill="#A42C24"/>
</svg>
