<svg width="32" height="62" viewBox="0 0 32 62" fill="none" xmlns="http://www.w3.org/2000/svg">
<path d="M19.0947 9.86626C18.2831 11.2665 16.9491 12.2877 15.3855 12.7049C13.8219 13.1222 12.1565 12.9011 10.7556 12.0916C9.35403 11.2813 8.33211 9.94802 7.91365 8.3851C7.49512 6.82215 7.71409 5.15608 8.52236 3.75448C9.33129 2.35291 10.6638 1.3291 12.2261 0.909102C13.789 0.489239 15.4551 0.706869 16.8574 1.51378C18.2636 2.32339 19.2896 3.65938 19.7088 5.22624C20.1286 6.7932 19.9077 8.46264 19.0947 9.86613L19.0947 9.86626ZM30.7485 30.9091L22.4637 25.8119L18.4994 15.6835C18.2476 15.2154 17.8592 14.8344 17.3857 14.5927C16.9123 14.3509 16.3766 14.2592 15.8496 14.3302C15.6099 14.3302 11.9523 14.1862 11.6349 14.1862C10.7884 14.0884 9.94534 14.4025 9.36942 15.0313C9.36942 15.0313 2.36159 23.3062 2.36159 24.8516L2.09307 34.9318C2.09307 36.2181 2.59196 36.8516 3.87832 36.8516C4.34104 36.8476 4.78167 36.6527 5.09641 36.3125C5.41047 35.973 5.57118 35.5183 5.53904 35.0563L5.78881 25.6003L8.55378 21.4438C8.55378 21.4438 8.21762 34.1544 8.22767 34.327L8.31339 46.3464L0.940585 56.3208C0.175191 57.3628 0.398167 58.8279 1.44014 59.5941L2.25644 60.1987H2.25577C3.29773 60.9648 4.76291 60.7411 5.52971 59.6998C5.52971 59.6998 13.9873 48.9669 13.9873 47.5846V40.9411L22.5313 47.6609L23.971 59.2485C24.1405 60.5107 25.2876 61.4068 26.5538 61.2648L27.5134 61.1396C28.7964 60.9802 29.7072 59.8117 29.5484 58.5287L27.9453 45.3863C27.8301 44.4261 17.6543 36.6502 17.6543 36.6502L18.0768 23.7575C18.0768 23.7575 19.3826 28.3942 19.7375 28.5575L28.4737 33.626C29.5873 34.2695 30.4993 34.4035 31.1041 33.2711C31.5166 32.4742 31.8621 31.5621 30.7485 30.9093L30.7485 30.9091Z" fill="#A42C24"/>
</svg>
