<svg width="47" height="60" viewBox="0 0 47 60" fill="none" xmlns="http://www.w3.org/2000/svg">
<path fill-rule="evenodd" clip-rule="evenodd" d="M27.9613 0C24.5432 0 21.8329 2.24468 21.8329 4.95806C21.8329 7.67144 24.5432 9.91683 27.9613 9.91683C31.4969 9.91683 34.2072 7.67144 34.2072 4.95806C34.2072 2.24539 31.4969 0 27.9613 0ZM22.6581 9.54201C21.3616 9.63589 20.3008 10.1971 19.4756 10.6643C18.4148 11.3201 16.7653 12.7234 16.7653 12.7234V12.8166C16.647 12.8166 10.1655 18.8038 6.3944 21.6103C6.04049 21.8913 5.80485 22.1715 5.68748 22.5463L3.80234 30.6851C3.44844 31.6203 4.391 32.7434 5.56921 32.9297C6.7483 33.1175 8.16215 32.3693 8.27953 31.3401L10.1655 23.7618L17.4722 17.9617V33.3977L13.3471 41.5365L0.620745 55.8509C0.125186 56.4256 -0.0848231 57.1257 0.0311969 57.816C0.149462 58.4704 0.620745 59.1254 1.32767 59.4996C2.03459 59.9676 2.97716 60.0607 3.92061 59.9676C4.74491 59.7805 5.5701 59.4064 6.04138 58.8452V58.7513L18.8869 44.3444L19.2408 43.7833L24.0728 34.2406L33.6185 44.4376L40.6895 57.5351C41.2791 58.7513 43.3998 59.4057 44.932 58.8445C46.4641 58.3772 47.2893 56.693 46.6997 55.4775L39.5113 42.1929L39.1574 41.6311L29.9647 31.9013V20.02L33.6176 23.3877L33.9715 23.6687L43.399 29.4688C44.2241 30.03 45.8745 29.9368 46.5814 29.1879C47.2884 28.4397 47.0527 27.2235 46.2275 26.5691L37.0358 20.8621C34.2072 18.2426 30.5534 14.594 28.9039 12.9104C28.0787 12.0683 25.9571 9.82295 23.2467 9.54201H22.6581Z" fill="#545454"/>
</svg>
