<svg width="24" height="24" viewBox="0 0 24 24" fill="none" xmlns="http://www.w3.org/2000/svg">
<path d="M11.7703 11.3812C11.7633 11.3812 11.7562 11.3834 11.7492 11.3856C11.768 11.3856 11.7867 11.3878 11.8055 11.39C11.7937 11.3856 11.782 11.3812 11.7703 11.3812Z" fill="#F7BC0D"/>
<path d="M10.6992 11.2265C10.6992 11.2218 10.7016 11.2171 10.7016 11.2125C10.7016 11.2101 10.7016 11.2078 10.7039 11.2078C10.7016 11.2125 10.7016 11.2195 10.6992 11.2265ZM10.7695 11.8921C10.7695 11.8898 10.7695 11.8875 10.7672 11.8875C10.7695 11.8945 10.7719 11.8992 10.7742 11.9062C10.7742 11.9015 10.7719 11.8968 10.7695 11.8921ZM11.0156 10.6171C11.018 10.6148 11.0227 10.6101 11.025 10.6078C11.0273 10.6078 11.0273 10.6054 11.0297 10.6031C11.025 10.6078 11.0203 10.6125 11.0156 10.6171ZM11.2031 12.4242C11.2008 12.4242 11.2008 12.4218 11.1984 12.4195C11.2031 12.4242 11.2102 12.4265 11.2172 12.4312L11.2031 12.4242ZM12.3117 10.35C12.3023 10.3453 12.2953 10.3429 12.2859 10.3406C12.2953 10.3429 12.3047 10.3476 12.3117 10.35C12.3211 10.3546 12.3305 10.357 12.3375 10.3617C12.3305 10.357 12.3211 10.3546 12.3117 10.35ZM12.3656 10.3734C12.3914 10.3851 12.4172 10.3992 12.443 10.4132C12.4172 10.3992 12.3914 10.3851 12.3656 10.3734ZM12.5859 10.5093C12.6023 10.521 12.6164 10.5328 12.6305 10.5468C12.6164 10.5351 12.6023 10.521 12.5859 10.5093ZM12.8273 10.7601C12.8344 10.7671 12.8391 10.7765 12.8438 10.7835C12.8484 10.7906 12.8508 10.7953 12.8555 10.8023C12.8461 10.7906 12.8367 10.7742 12.8273 10.7601Z" fill="#F7BC0D"/>
<path d="M21.555 12.5672L21.5466 16.3682L21.5327 20.172L21.421 20.412C21.2843 20.7106 21.0443 20.9506 20.7457 21.0873L20.5057 21.199L17.6061 21.2129L14.7009 21.2269H9.21427L6.31467 21.2129L3.40949 21.199L3.16949 21.0873C2.87088 20.9506 2.62808 20.7106 2.49133 20.412L2.3797 20.172L2.36575 16.3682L2.36017 12.5672L2.51924 12.6369C3.04111 12.8658 3.68299 12.9858 4.30254 12.9858C4.60115 12.9858 4.89418 12.9579 5.16488 12.8993C5.20953 12.8909 5.25418 12.8797 5.29605 12.8686C5.70629 12.7625 6.25886 12.5393 6.53793 12.3634C6.65794 12.2909 6.77236 12.2267 6.80864 12.2267C6.84492 12.2267 6.97608 12.2909 7.11004 12.369C8.4496 13.1532 10.3278 13.1532 11.6673 12.369C11.8013 12.2909 11.9325 12.2267 11.9576 12.2267C11.9827 12.2267 12.1167 12.2909 12.2506 12.369C12.552 12.5448 12.8757 12.6816 13.2106 12.7765C13.339 12.8127 13.4702 12.8434 13.6041 12.8686C14.6925 13.0779 15.8786 12.9104 16.8079 12.369C16.8916 12.3188 16.9809 12.2741 17.073 12.2351C17.0954 12.2351 17.1177 12.2378 17.14 12.2406C17.2265 12.2797 17.313 12.3244 17.394 12.3746C17.6758 12.542 17.9745 12.676 18.287 12.7737C18.2926 12.7793 18.2982 12.7848 18.3066 12.7932C18.301 12.7876 18.2926 12.7793 18.287 12.7737C18.6303 12.8853 18.9875 12.9551 19.3475 12.983C19.9866 13.0304 20.8294 12.8881 21.3959 12.6397L21.555 12.5672Z" fill="#F7BC0D"/>
<path d="M22.2856 5.50653C21.9089 4.00231 21.5908 2.83856 21.5349 2.71856C21.4121 2.47577 21.1414 2.22181 20.8707 2.09901L20.6754 2.00971L12.0212 2.00134C5.15039 1.99576 3.33361 2.00692 3.19686 2.04878C2.84523 2.15483 2.5522 2.39762 2.37917 2.72135C2.32336 2.84135 2.008 4.00789 1.62846 5.50932C1.00333 8.01263 0.981002 8.10193 1.00612 8.42287C1.12612 10.0973 2.42941 11.4564 4.01735 11.5653C4.41922 11.596 4.82388 11.5457 5.20621 11.4201C5.209 11.4146 5.21179 11.409 5.21458 11.4062C5.21179 11.4118 5.209 11.4174 5.20621 11.4229C5.70855 11.2555 6.16344 10.968 6.52903 10.5857L6.81369 10.2843L7.10393 10.5801C8.39326 11.9085 10.3719 11.9085 11.6668 10.5801L11.9515 10.2843L12.2445 10.5801C12.9031 11.2555 13.7376 11.5876 14.572 11.5764C15.3729 11.5625 16.1711 11.2332 16.8074 10.5801L17.092 10.2843L17.3851 10.5857C18.0632 11.2834 18.9563 11.635 19.8912 11.5653C21.4819 11.4536 22.7824 10.0973 22.9024 8.42287C22.9331 8.09914 22.9136 8.00984 22.2856 5.50653Z" fill="#F7BC0D"/>
<path d="M8.09066 18.2776L17.5781 16.1069C17.9968 16.012 18.3736 15.7748 18.6416 15.44C18.9095 15.1052 19.0575 14.6866 19.0575 14.257V13.9584C19.0575 13.6766 18.9961 13.4004 18.8732 13.1437C18.7532 12.8898 18.5774 12.6637 18.3597 12.488C18.1419 12.3094 17.8851 12.1838 17.6116 12.1141C17.3381 12.0471 17.0534 12.0415 16.777 12.0973L7.66639 13.9417C7.41239 13.9947 7.15001 13.9919 6.89322 13.9389C6.63921 13.8859 6.39916 13.7798 6.18703 13.6292C5.9749 13.4785 5.79626 13.286 5.66228 13.0655C5.5283 12.8423 5.43898 12.5968 5.40548 12.3401L5.3999 12.2899C5.3357 11.8127 5.45293 11.3272 5.73206 10.9338C6.01118 10.5404 6.42987 10.267 6.90159 10.1721L17.6116 7.98736C18.0052 7.90645 18.2508 8.40031 17.9493 8.66538L7.74455 17.6024C7.43751 17.8703 7.6943 18.3669 8.09066 18.2776Z" fill="#10BAB2"/>
<path d="M17.2729 7.39257C18.0433 7.39257 18.6657 6.77035 18.6657 6.00305C18.6657 5.23574 18.0433 4.61353 17.2729 4.61353C16.5025 4.61353 15.8801 5.23574 15.8801 6.00305C15.8801 6.77035 16.5053 7.39257 17.2729 7.39257Z" fill="#10BAB2"/>
</svg>
