<svg width="52" height="52" viewBox="0 0 52 52" fill="none" xmlns="http://www.w3.org/2000/svg">
<path d="M38.4705 7C44.6702 7 48.3337 10.5593 48.3337 16.602V16.6691H40.7156C37.1704 16.6753 34.2985 19.4753 34.2921 22.9317C34.2873 26.3958 37.1624 29.2083 40.7156 29.213H48.3401V29.7633C48.3401 35.8061 44.6766 39.3794 38.4769 39.3794H22.2253C16.024 39.3794 12.3605 35.8061 12.3605 29.7633V16.602C12.3605 10.5593 16.024 7 22.2253 7H38.4705Z" fill="#A66658"/>
<path d="M37.6138 23.7234C37.99 25.4344 39.4903 26.6382 41.2031 26.6069H47.0496C47.7623 26.6069 48.3404 26.0168 48.3404 25.2873V20.7334C48.3389 20.0054 47.7623 19.4137 47.0496 19.4121H41.0654C39.1171 19.4184 37.5434 21.0355 37.5465 23.0283C37.5465 23.2616 37.5694 23.4948 37.6138 23.7234Z" fill="#F7BC0D"/>
<path d="M41.1443 24.8086C42.1378 24.8086 42.9433 24.0033 42.9433 23.0098C42.9433 22.0163 42.1378 21.2109 41.1443 21.2109C40.1507 21.2109 39.3453 22.0163 39.3453 23.0098C39.3453 24.0033 40.1507 24.8086 41.1443 24.8086Z" fill="#200E32"/>
<path d="M12.3605 30.61V16.3597C19.7845 28.5134 26.0319 33.2091 39.3452 39.3794H21.1305C16.2869 39.3794 12.3605 35.4532 12.3605 30.61Z" fill="#975446"/>
<g clip-path="url(#clip0_174_1256)">
<path d="M19.4438 42.5355C27.5675 42.5355 34.1531 35.9504 34.1531 27.8273C34.1531 19.7042 27.5675 13.1191 19.4438 13.1191C11.3201 13.1191 4.73458 19.7042 4.73458 27.8273C4.73458 35.9504 11.3201 42.5355 19.4438 42.5355Z" fill="#A3E9E5"/>
<path d="M19.4438 37.3322C26.6095 37.3322 32.4185 31.5236 32.4185 24.3584C32.4185 17.1932 26.6095 11.3847 19.4438 11.3847C12.2781 11.3847 6.46916 17.1932 6.46916 24.3584C6.46916 31.5236 12.2781 37.3322 19.4438 37.3322Z" fill="#A3E9E5"/>
<path d="M19.4438 44.27V40.8011C26.5979 40.8011 32.4185 34.9809 32.4185 27.8274C32.4185 20.6738 26.5979 14.8536 19.4438 14.8536V11.3847C22.696 11.3848 25.8752 12.3492 28.5792 14.156C31.2833 15.9627 33.3908 18.5307 34.6354 21.5351C35.8799 24.5395 36.2056 27.8455 35.5711 31.035C34.9367 34.2245 33.3707 37.1542 31.0711 39.4538C29.5478 40.9855 27.7358 42.1999 25.74 43.0266C23.7441 43.8533 21.6041 44.2759 19.4438 44.27Z" fill="url(#paint0_linear_174_1256)"/>
<path d="M26.1504 28.4864V33.807L26.0665 33.9749C25.9706 34.1839 25.8029 34.3516 25.594 34.4474L25.4261 34.5168L23.3973 34.5362L21.3644 34.5556H17.5254L15.4966 34.5362H13.4644L13.2965 34.446C13.0868 34.3505 12.9184 34.1828 12.8219 33.9736L12.7359 33.8057L12.7553 31.1443L12.7511 28.485L12.8621 28.5336C13.2566 28.6972 13.6798 28.78 14.1069 28.7771C14.3092 28.7783 14.5111 28.7581 14.7091 28.7168C14.7403 28.7112 14.7716 28.7029 14.8007 28.6953C15.1035 28.6156 15.3948 28.4971 15.6673 28.3428C15.7255 28.302 15.7893 28.2697 15.8567 28.2471C15.9304 28.2706 16.0004 28.3042 16.0649 28.347C17.0001 28.8944 18.3108 28.8944 19.2461 28.347C19.3096 28.3062 19.3776 28.2726 19.4487 28.2471C19.5205 28.2725 19.5892 28.306 19.6534 28.347C19.864 28.4694 20.0892 28.565 20.3236 28.6314C20.4131 28.6564 20.5047 28.6779 20.6011 28.6953C21.3609 28.8416 22.1886 28.7244 22.8374 28.3484C22.8967 28.3126 22.9586 28.2813 23.0226 28.2547C23.0382 28.2551 23.0537 28.2565 23.0691 28.2589C23.13 28.286 23.1891 28.317 23.246 28.3518C23.4425 28.4686 23.6521 28.5617 23.8705 28.6293L23.8844 28.6425L23.8705 28.6293C24.1106 28.7069 24.3591 28.7558 24.6108 28.775C25.0992 28.8009 25.5874 28.7192 26.0408 28.5357L26.1504 28.4864Z" fill="#F7BC0D"/>
<path d="M26.6715 23.5509C26.4078 22.4984 26.1858 21.6846 26.1462 21.6006C26.0401 21.4114 25.8776 21.2598 25.6814 21.167L25.5426 21.1046L19.4896 21.0977C14.6828 21.0977 13.4116 21.1018 13.3145 21.131C13.1929 21.1679 13.0797 21.2285 12.9815 21.3092C12.8833 21.3899 12.8019 21.4892 12.7421 21.6013C12.7032 21.6853 12.4826 22.5033 12.2169 23.5523C11.7798 25.3034 11.7638 25.3658 11.7811 25.5906C11.8658 26.7617 12.7775 27.7129 13.8883 27.7892C14.1699 27.8104 14.4528 27.7758 14.7209 27.6872L14.7265 27.6775L14.7209 27.6893C15.0725 27.5724 15.3903 27.3714 15.6465 27.1037L15.8456 26.8956L16.0489 27.1037C16.9509 28.0334 18.3351 28.0334 19.2405 27.1037L19.4397 26.8956L19.6478 27.1037C19.8515 27.3235 20.0984 27.4988 20.373 27.6187C20.6476 27.7386 20.944 27.8004 21.2436 27.8004C21.5433 27.8004 21.8397 27.7386 22.1143 27.6187C22.3889 27.4988 22.6358 27.3235 22.8394 27.1037L23.0386 26.8956L23.2433 27.1037C23.4661 27.3407 23.7388 27.5251 24.0417 27.6438C24.3445 27.7624 24.67 27.8123 24.9945 27.7899C26.1046 27.7115 27.017 26.7624 27.101 25.5913C27.1245 25.3644 27.1107 25.302 26.6715 23.5509Z" fill="#F7BC0D"/>
<path d="M16.7379 32.4812L23.3758 30.9625C23.6694 30.896 23.9317 30.7318 24.1198 30.4967C24.3079 30.2617 24.4105 29.9697 24.411 29.6686V29.4605C24.4111 29.2638 24.3676 29.0695 24.2836 28.8915C24.1997 28.7136 24.0773 28.5566 23.9253 28.4316C23.7722 28.3064 23.5932 28.2168 23.4011 28.1695C23.2091 28.1222 23.0089 28.1184 22.8152 28.1583L16.4409 29.4487C16.2624 29.4855 16.0783 29.4855 15.8997 29.4487C15.7219 29.4115 15.5536 29.3378 15.4057 29.2322C15.2578 29.1272 15.133 28.993 15.039 28.8379C14.9449 28.6828 14.8837 28.51 14.859 28.3303L14.8548 28.2949C14.8083 27.9603 14.891 27.6205 15.0862 27.3447C15.2813 27.0689 15.5742 26.8778 15.9053 26.8103L23.3987 25.2839C23.4572 25.2743 23.5172 25.2837 23.57 25.3107C23.6228 25.3377 23.6655 25.3809 23.692 25.434C23.7184 25.487 23.7272 25.5472 23.717 25.6055C23.7068 25.6639 23.6781 25.7175 23.6353 25.7585L16.4971 32.0088C16.4512 32.0488 16.42 32.103 16.4084 32.1628C16.3968 32.2227 16.4055 32.2846 16.4332 32.3389C16.4609 32.3932 16.5059 32.4367 16.5611 32.4625C16.6163 32.4882 16.6785 32.4948 16.7379 32.4812Z" fill="#10BAB2"/>
<path d="M23.1662 24.8663C23.3584 24.8663 23.5462 24.8093 23.7059 24.7026C23.8656 24.5959 23.9901 24.4442 24.0637 24.2667C24.1372 24.0892 24.1564 23.8939 24.1189 23.7055C24.0815 23.5171 23.989 23.344 23.8531 23.2082C23.7173 23.0724 23.5442 22.9798 23.3557 22.9424C23.1673 22.9049 22.972 22.9241 22.7945 22.9976C22.617 23.0712 22.4653 23.1957 22.3586 23.3554C22.2518 23.5151 22.1949 23.7029 22.1949 23.895C22.1949 24.1526 22.2972 24.3997 22.4794 24.5818C22.6616 24.764 22.9086 24.8663 23.1662 24.8663Z" fill="#10BAB2"/>
<path d="M19.4439 44.27V40.801C12.2898 40.801 6.46921 34.9809 6.46921 27.8273C6.46921 20.6737 12.2898 14.8536 19.4439 14.8536V11.3847C16.1917 11.3848 13.0125 12.3492 10.3085 14.1559C7.60442 15.9627 5.49686 18.5306 4.25232 21.5351C3.00777 24.5395 2.68213 27.8455 3.31657 31.0349C3.95101 34.2244 5.51704 37.1542 7.81663 39.4537C9.3399 40.9855 11.1519 42.1998 13.1477 43.0265C15.1436 43.8533 17.2836 44.2759 19.4439 44.27Z" fill="url(#paint1_linear_174_1256)"/>
</g>
<defs>
<linearGradient id="paint0_linear_174_1256" x1="19.0258" y1="11.9421" x2="-4.17488" y2="38.2102" gradientUnits="userSpaceOnUse">
<stop offset="0.02" stop-color="#10BAB2"/>
<stop offset="1" stop-color="white" stop-opacity="0.5"/>
<stop offset="1" stop-color="#67CFCA" stop-opacity="0.96"/>
</linearGradient>
<linearGradient id="paint1_linear_174_1256" x1="2.58257" y1="43.7126" x2="-20.6181" y2="17.4446" gradientUnits="userSpaceOnUse">
<stop offset="0.02" stop-color="#10BAB2"/>
<stop offset="1" stop-color="white" stop-opacity="0.5"/>
<stop offset="1" stop-color="#67CFCA" stop-opacity="0.96"/>
</linearGradient>
<clipPath id="clip0_174_1256">
<rect width="32.8877" height="32.8853" fill="white" transform="translate(3 11.3847)"/>
</clipPath>
</defs>
</svg>
