<svg width="70" height="70" viewBox="0 0 70 70" fill="none" xmlns="http://www.w3.org/2000/svg">
<rect width="70" height="70" rx="10" fill="url(#paint0_linear_96_1799)"/>
<path d="M46.6797 16.6724C43.541 13.0496 40.0162 9.78023 36.168 6.92242C35.8246 6.68548 35.4172 6.55859 35 6.55859C34.5828 6.55859 34.1754 6.68548 33.832 6.92242C29.9838 9.78023 26.459 13.0496 23.3203 16.6724C16.3379 24.6705 12.6562 33.1255 12.6562 41.0982C12.6563 47.0241 15.0103 52.7074 19.2006 56.8976C23.3908 61.0879 29.0741 63.442 35 63.442C40.9259 63.442 46.6092 61.0879 50.7994 56.8976C54.9897 52.7074 57.3438 47.0241 57.3438 41.0982C57.3438 33.1255 53.6621 24.6705 46.6797 16.6724ZM35 59.3795C30.1536 59.3727 25.5076 57.4445 22.0806 54.0176C18.6537 50.5906 16.7255 45.9446 16.7188 41.0982C16.7188 26.5748 30.8105 14.438 35 11.1373C39.1895 14.438 53.2812 26.5748 53.2812 41.0982C53.2745 45.9446 51.3463 50.5906 47.9194 54.0176C44.4924 57.4445 39.8464 59.3727 35 59.3795Z" fill="#4F5052"/>
<path d="M25.1325 40.5V32.828L23.3965 34.13L22.6265 32.926L25.4405 30.882H26.7565V40.5H25.1325ZM29.8563 40.612C29.5576 40.612 29.3056 40.514 29.1003 40.318C28.895 40.1127 28.7923 39.8653 28.7923 39.576C28.7923 39.2867 28.895 39.0393 29.1003 38.834C29.315 38.6287 29.567 38.526 29.8563 38.526C30.1456 38.526 30.393 38.6287 30.5983 38.834C30.8036 39.0393 30.9063 39.2867 30.9063 39.576C30.9063 39.8653 30.8036 40.1127 30.5983 40.318C30.393 40.514 30.1456 40.612 29.8563 40.612ZM35.8427 34.326C36.7014 34.326 37.4201 34.606 37.9987 35.166C38.5867 35.726 38.8807 36.4773 38.8807 37.42C38.8807 38.372 38.5681 39.142 37.9427 39.73C37.3174 40.318 36.4961 40.612 35.4787 40.612C34.8161 40.612 34.1954 40.4767 33.6167 40.206C33.0474 39.9353 32.5761 39.5527 32.2027 39.058L33.3787 38.12C33.8361 38.7827 34.4894 39.114 35.3387 39.114C35.9174 39.114 36.3747 38.9553 36.7107 38.638C37.0561 38.3113 37.2287 37.896 37.2287 37.392C37.2287 36.8787 37.0421 36.4727 36.6687 36.174C36.2954 35.8753 35.8614 35.726 35.3667 35.726C34.7321 35.726 34.2094 35.894 33.7987 36.23L32.9167 35.922L33.1967 30.882H38.4047V32.366H34.7227L34.5967 34.536C35.0447 34.396 35.4601 34.326 35.8427 34.326ZM40.8191 40.5V30.56H42.5131V38.988H47.1191V40.5H40.8191Z" fill="#4F5052"/>
<defs>
<linearGradient id="paint0_linear_96_1799" x1="35" y1="0" x2="35" y2="70" gradientUnits="userSpaceOnUse">
<stop stop-color="#F9CF56" stop-opacity="0.52"/>
<stop offset="1" stop-color="#F9CF56" stop-opacity="0.72"/>
</linearGradient>
</defs>
</svg>
