<svg width="70" height="70" viewBox="0 0 70 70" fill="none" xmlns="http://www.w3.org/2000/svg">
<rect width="70" height="70" rx="10" fill="url(#paint0_linear_96_1795)"/>
<path d="M46.6797 16.6724C43.541 13.0496 40.0162 9.78023 36.168 6.92242C35.8246 6.68548 35.4172 6.55859 35 6.55859C34.5828 6.55859 34.1754 6.68548 33.832 6.92242C29.9838 9.78023 26.459 13.0496 23.3203 16.6724C16.3379 24.6705 12.6562 33.1255 12.6562 41.0982C12.6563 47.0241 15.0103 52.7074 19.2006 56.8976C23.3908 61.0879 29.0741 63.442 35 63.442C40.9259 63.442 46.6092 61.0879 50.7994 56.8976C54.9897 52.7074 57.3438 47.0241 57.3438 41.0982C57.3438 33.1255 53.6621 24.6705 46.6797 16.6724ZM35 59.3795C30.1536 59.3727 25.5076 57.4445 22.0806 54.0176C18.6537 50.5906 16.7255 45.9446 16.7188 41.0982C16.7188 26.5748 30.8105 14.438 35 11.1373C39.1895 14.438 53.2812 26.5748 53.2812 41.0982C53.2745 45.9446 51.3463 50.5906 47.9194 54.0176C44.4924 57.4445 39.8464 59.3727 35 59.3795Z" fill="#4F5052"/>
<path d="M26.1169 35V27.328L24.3809 28.63L23.6109 27.426L26.4249 25.382H27.7409V35H26.1169ZM33.3747 35.112C32.264 35.112 31.368 34.678 30.6867 33.81C30.0147 32.9327 29.6787 31.7287 29.6787 30.198C29.6787 28.7233 30.01 27.538 30.6727 26.642C31.3354 25.7367 32.236 25.284 33.3747 25.284C34.4854 25.284 35.3767 25.718 36.0487 26.586C36.73 27.454 37.0707 28.658 37.0707 30.198C37.0707 31.6727 36.7394 32.8627 36.0767 33.768C35.4234 34.664 34.5227 35.112 33.3747 35.112ZM33.3747 33.6C34.0187 33.6 34.518 33.3013 34.8727 32.704C35.2367 32.1067 35.4187 31.2713 35.4187 30.198C35.4187 29.1247 35.2367 28.2893 34.8727 27.692C34.5087 27.0853 34.0094 26.782 33.3747 26.782C32.74 26.782 32.2407 27.0853 31.8767 27.692C31.5127 28.2893 31.3307 29.1247 31.3307 30.198C31.3307 31.2527 31.5127 32.0833 31.8767 32.69C32.25 33.2967 32.7494 33.6 33.3747 33.6ZM42.2204 35.112C41.1097 35.112 40.2137 34.678 39.5324 33.81C38.8604 32.9327 38.5244 31.7287 38.5244 30.198C38.5244 28.7233 38.8557 27.538 39.5184 26.642C40.1811 25.7367 41.0817 25.284 42.2204 25.284C43.3311 25.284 44.2224 25.718 44.8944 26.586C45.5757 27.454 45.9164 28.658 45.9164 30.198C45.9164 31.6727 45.5851 32.8627 44.9224 33.768C44.2691 34.664 43.3684 35.112 42.2204 35.112ZM42.2204 33.6C42.8644 33.6 43.3637 33.3013 43.7184 32.704C44.0824 32.1067 44.2644 31.2713 44.2644 30.198C44.2644 29.1247 44.0824 28.2893 43.7184 27.692C43.3544 27.0853 42.8551 26.782 42.2204 26.782C41.5857 26.782 41.0864 27.0853 40.7224 27.692C40.3584 28.2893 40.1764 29.1247 40.1764 30.198C40.1764 31.2527 40.3584 32.0833 40.7224 32.69C41.0957 33.2967 41.5951 33.6 42.2204 33.6ZM36.065 41.07C36.8304 41.07 37.4184 41.3173 37.829 41.812C38.249 42.3067 38.459 43.0533 38.459 44.052V48H36.891V44.444C36.891 43.1373 36.4477 42.484 35.561 42.484C35.1037 42.484 34.721 42.6753 34.413 43.058C34.1144 43.4313 33.965 43.9447 33.965 44.598V48H32.397V44.444C32.397 43.1373 31.9444 42.484 31.039 42.484C30.5537 42.484 30.157 42.6753 29.849 43.058C29.5504 43.4313 29.401 43.9447 29.401 44.598V48H27.833V41.168H29.401V42.12H29.415C29.9844 41.42 30.6937 41.07 31.543 41.07C32.5044 41.07 33.1857 41.448 33.587 42.204H33.615C34.203 41.448 35.0197 41.07 36.065 41.07ZM40.4955 48V37.696H42.0635V48H40.4955Z" fill="#4F5052"/>
<defs>
<linearGradient id="paint0_linear_96_1795" x1="35" y1="0" x2="35" y2="70" gradientUnits="userSpaceOnUse">
<stop stop-color="#F9CF56" stop-opacity="0.52"/>
<stop offset="1" stop-color="#F9CF56" stop-opacity="0.72"/>
</linearGradient>
</defs>
</svg>
