<svg width="70" height="70" viewBox="0 0 70 70" fill="none" xmlns="http://www.w3.org/2000/svg">
<rect width="70" height="70" rx="10" fill="url(#paint0_linear_96_1803)"/>
<path d="M46.6797 16.6724C43.541 13.0496 40.0162 9.78023 36.168 6.92242C35.8246 6.68548 35.4172 6.55859 35 6.55859C34.5828 6.55859 34.1754 6.68548 33.832 6.92242C29.9838 9.78023 26.459 13.0496 23.3203 16.6724C16.3379 24.6705 12.6562 33.1255 12.6562 41.0982C12.6563 47.0241 15.0103 52.7074 19.2006 56.8976C23.3908 61.0879 29.0741 63.442 35 63.442C40.9259 63.442 46.6092 61.0879 50.7994 56.8976C54.9897 52.7074 57.3438 47.0241 57.3438 41.0982C57.3438 33.1255 53.6621 24.6705 46.6797 16.6724ZM35 59.3795C30.1536 59.3727 25.5076 57.4445 22.0806 54.0176C18.6537 50.5906 16.7255 45.9446 16.7188 41.0982C16.7188 26.5748 30.8105 14.438 35 11.1373C39.1895 14.438 53.2812 26.5748 53.2812 41.0982C53.2745 45.9446 51.3463 50.5906 47.9194 54.0176C44.4924 57.4445 39.8464 59.3727 35 59.3795Z" fill="#4F5052"/>
<path d="M25.9724 33.516H29.7244V35H23.5504L23.5224 33.922L26.6164 30.66C27.0737 30.184 27.4144 29.7687 27.6384 29.414C27.8624 29.05 27.9744 28.6767 27.9744 28.294C27.9744 27.8647 27.8344 27.51 27.5544 27.23C27.2837 26.9407 26.9337 26.796 26.5044 26.796C25.7111 26.796 25.0997 27.174 24.6704 27.93L23.5084 27.104C24.1524 25.8907 25.1884 25.284 26.6164 25.284C27.4471 25.284 28.1564 25.5453 28.7444 26.068C29.3324 26.5813 29.6264 27.2627 29.6264 28.112C29.6264 28.6627 29.5051 29.19 29.2624 29.694C29.0291 30.198 28.6184 30.7533 28.0304 31.36L25.9724 33.502V33.516ZM34.5576 28.826C35.4162 28.826 36.1349 29.106 36.7136 29.666C37.3016 30.226 37.5956 30.9773 37.5956 31.92C37.5956 32.872 37.2829 33.642 36.6576 34.23C36.0322 34.818 35.2109 35.112 34.1936 35.112C33.5309 35.112 32.9102 34.9767 32.3316 34.706C31.7622 34.4353 31.2909 34.0527 30.9176 33.558L32.0936 32.62C32.5509 33.2827 33.2042 33.614 34.0536 33.614C34.6322 33.614 35.0896 33.4553 35.4256 33.138C35.7709 32.8113 35.9436 32.396 35.9436 31.892C35.9436 31.3787 35.7569 30.9727 35.3836 30.674C35.0102 30.3753 34.5762 30.226 34.0816 30.226C33.4469 30.226 32.9242 30.394 32.5136 30.73L31.6316 30.422L31.9116 25.382H37.1196V26.866H33.4376L33.3116 29.036C33.7596 28.896 34.1749 28.826 34.5576 28.826ZM42.6169 35.112C41.5062 35.112 40.6102 34.678 39.9289 33.81C39.2569 32.9327 38.9209 31.7287 38.9209 30.198C38.9209 28.7233 39.2522 27.538 39.9149 26.642C40.5775 25.7367 41.4782 25.284 42.6169 25.284C43.7275 25.284 44.6189 25.718 45.2909 26.586C45.9722 27.454 46.3129 28.658 46.3129 30.198C46.3129 31.6727 45.9815 32.8627 45.3189 33.768C44.6655 34.664 43.7649 35.112 42.6169 35.112ZM42.6169 33.6C43.2609 33.6 43.7602 33.3013 44.1149 32.704C44.4789 32.1067 44.6609 31.2713 44.6609 30.198C44.6609 29.1247 44.4789 28.2893 44.1149 27.692C43.7509 27.0853 43.2515 26.782 42.6169 26.782C41.9822 26.782 41.4829 27.0853 41.1189 27.692C40.7549 28.2893 40.5729 29.1247 40.5729 30.198C40.5729 31.2527 40.7549 32.0833 41.1189 32.69C41.4922 33.2967 41.9915 33.6 42.6169 33.6ZM36.065 41.07C36.8304 41.07 37.4184 41.3173 37.829 41.812C38.249 42.3067 38.459 43.0533 38.459 44.052V48H36.891V44.444C36.891 43.1373 36.4477 42.484 35.561 42.484C35.1037 42.484 34.721 42.6753 34.413 43.058C34.1144 43.4313 33.965 43.9447 33.965 44.598V48H32.397V44.444C32.397 43.1373 31.9444 42.484 31.039 42.484C30.5537 42.484 30.157 42.6753 29.849 43.058C29.5504 43.4313 29.401 43.9447 29.401 44.598V48H27.833V41.168H29.401V42.12H29.415C29.9844 41.42 30.6937 41.07 31.543 41.07C32.5044 41.07 33.1857 41.448 33.587 42.204H33.615C34.203 41.448 35.0197 41.07 36.065 41.07ZM40.4955 48V37.696H42.0635V48H40.4955Z" fill="#4F5052"/>
<defs>
<linearGradient id="paint0_linear_96_1803" x1="35" y1="0" x2="35" y2="70" gradientUnits="userSpaceOnUse">
<stop stop-color="#F9CF56" stop-opacity="0.52"/>
<stop offset="1" stop-color="#F9CF56" stop-opacity="0.72"/>
</linearGradient>
</defs>
</svg>
