<svg width="70" height="70" viewBox="0 0 70 70" fill="none" xmlns="http://www.w3.org/2000/svg">
<rect width="70" height="70" rx="10" fill="url(#paint0_linear_96_1787)"/>
<path d="M46.6797 16.6724C43.541 13.0496 40.0162 9.78023 36.168 6.92242C35.8246 6.68548 35.4172 6.55859 35 6.55859C34.5828 6.55859 34.1754 6.68548 33.832 6.92242C29.9838 9.78023 26.459 13.0496 23.3203 16.6724C16.3379 24.6705 12.6562 33.1255 12.6562 41.0982C12.6563 47.0241 15.0103 52.7074 19.2006 56.8976C23.3908 61.0879 29.0741 63.442 35 63.442C40.9259 63.442 46.6092 61.0879 50.7994 56.8976C54.9897 52.7074 57.3438 47.0241 57.3438 41.0982C57.3438 33.1255 53.6621 24.6705 46.6797 16.6724ZM35 59.3795C30.1536 59.3727 25.5076 57.4445 22.0806 54.0176C18.6537 50.5906 16.7255 45.9446 16.7188 41.0982C16.7187 26.5748 30.8105 14.438 35 11.1373C39.1895 14.438 53.2812 26.5748 53.2812 41.0982C53.2745 45.9446 51.3463 50.5906 47.9194 54.0176C44.4924 57.4445 39.8464 59.3727 35 59.3795Z" fill="#4F5052"/>
<path d="M30.832 28.826C31.6907 28.826 32.4093 29.106 32.988 29.666C33.576 30.226 33.87 30.9773 33.87 31.92C33.87 32.872 33.5573 33.642 32.932 34.23C32.3067 34.818 31.4853 35.112 30.468 35.112C29.8053 35.112 29.1847 34.9767 28.606 34.706C28.0367 34.4353 27.5653 34.0527 27.192 33.558L28.368 32.62C28.8253 33.2827 29.4787 33.614 30.328 33.614C30.9067 33.614 31.364 33.4553 31.7 33.138C32.0453 32.8113 32.218 32.396 32.218 31.892C32.218 31.3787 32.0313 30.9727 31.658 30.674C31.2847 30.3753 30.8507 30.226 30.356 30.226C29.7213 30.226 29.1987 30.394 28.788 30.73L27.906 30.422L28.186 25.382H33.394V26.866H29.712L29.586 29.036C30.034 28.896 30.4493 28.826 30.832 28.826ZM38.8913 35.112C37.7806 35.112 36.8846 34.678 36.2033 33.81C35.5313 32.9327 35.1953 31.7287 35.1953 30.198C35.1953 28.7233 35.5266 27.538 36.1893 26.642C36.852 25.7367 37.7526 25.284 38.8913 25.284C40.002 25.284 40.8933 25.718 41.5653 26.586C42.2466 27.454 42.5873 28.658 42.5873 30.198C42.5873 31.6727 42.256 32.8627 41.5933 33.768C40.94 34.664 40.0393 35.112 38.8913 35.112ZM38.8913 33.6C39.5353 33.6 40.0346 33.3013 40.3893 32.704C40.7533 32.1067 40.9353 31.2713 40.9353 30.198C40.9353 29.1247 40.7533 28.2893 40.3893 27.692C40.0253 27.0853 39.526 26.782 38.8913 26.782C38.2566 26.782 37.7573 27.0853 37.3933 27.692C37.0293 28.2893 36.8473 29.1247 36.8473 30.198C36.8473 31.2527 37.0293 32.0833 37.3933 32.69C37.7666 33.2967 38.266 33.6 38.8913 33.6ZM36.065 41.07C36.8304 41.07 37.4184 41.3173 37.829 41.812C38.249 42.3067 38.459 43.0533 38.459 44.052V48H36.891V44.444C36.891 43.1373 36.4477 42.484 35.561 42.484C35.1037 42.484 34.721 42.6753 34.413 43.058C34.1144 43.4313 33.965 43.9447 33.965 44.598V48H32.397V44.444C32.397 43.1373 31.9444 42.484 31.039 42.484C30.5537 42.484 30.157 42.6753 29.849 43.058C29.5504 43.4313 29.401 43.9447 29.401 44.598V48H27.833V41.168H29.401V42.12H29.415C29.9844 41.42 30.6937 41.07 31.543 41.07C32.5044 41.07 33.1857 41.448 33.587 42.204H33.615C34.203 41.448 35.0197 41.07 36.065 41.07ZM40.4955 48V37.696H42.0635V48H40.4955Z" fill="#4F5052"/>
<defs>
<linearGradient id="paint0_linear_96_1787" x1="35" y1="0" x2="35" y2="70" gradientUnits="userSpaceOnUse">
<stop stop-color="#F9CF56" stop-opacity="0.52"/>
<stop offset="1" stop-color="#F9CF56" stop-opacity="0.72"/>
</linearGradient>
</defs>
</svg>
