<svg width="70" height="70" viewBox="0 0 70 70" fill="none" xmlns="http://www.w3.org/2000/svg">
<rect width="70" height="70" rx="10" fill="url(#paint0_linear_96_1811)"/>
<path d="M46.6797 16.6724C43.541 13.0496 40.0162 9.78023 36.168 6.92242C35.8246 6.68548 35.4172 6.55859 35 6.55859C34.5828 6.55859 34.1754 6.68548 33.832 6.92242C29.9838 9.78023 26.459 13.0496 23.3203 16.6724C16.3379 24.6705 12.6562 33.1255 12.6562 41.0982C12.6563 47.0241 15.0103 52.7074 19.2006 56.8976C23.3908 61.0879 29.0741 63.442 35 63.442C40.9259 63.442 46.6092 61.0879 50.7994 56.8976C54.9897 52.7074 57.3438 47.0241 57.3438 41.0982C57.3438 33.1255 53.6621 24.6705 46.6797 16.6724ZM35 59.3795C30.1536 59.3727 25.5076 57.4445 22.0806 54.0176C18.6537 50.5906 16.7255 45.9446 16.7188 41.0982C16.7188 26.5748 30.8105 14.438 35 11.1373C39.1895 14.438 53.2812 26.5748 53.2812 41.0982C53.2745 45.9446 51.3463 50.5906 47.9194 54.0176C44.4924 57.4445 39.8464 59.3727 35 59.3795Z" fill="#4F5052"/>
<path d="M26.4086 28.826C27.2673 28.826 27.986 29.106 28.5646 29.666C29.1526 30.226 29.4466 30.9773 29.4466 31.92C29.4466 32.872 29.134 33.642 28.5086 34.23C27.8833 34.818 27.062 35.112 26.0446 35.112C25.382 35.112 24.7613 34.9767 24.1826 34.706C23.6133 34.4353 23.142 34.0527 22.7686 33.558L23.9446 32.62C24.402 33.2827 25.0553 33.614 25.9046 33.614C26.4833 33.614 26.9406 33.4553 27.2766 33.138C27.622 32.8113 27.7946 32.396 27.7946 31.892C27.7946 31.3787 27.608 30.9727 27.2346 30.674C26.8613 30.3753 26.4273 30.226 25.9326 30.226C25.298 30.226 24.7753 30.394 24.3646 30.73L23.4826 30.422L23.7626 25.382H28.9706V26.866H25.2886L25.1626 29.036C25.6106 28.896 26.026 28.826 26.4086 28.826ZM34.4679 35.112C33.3573 35.112 32.4613 34.678 31.7799 33.81C31.1079 32.9327 30.7719 31.7287 30.7719 30.198C30.7719 28.7233 31.1033 27.538 31.7659 26.642C32.4286 25.7367 33.3293 25.284 34.4679 25.284C35.5786 25.284 36.4699 25.718 37.1419 26.586C37.8233 27.454 38.1639 28.658 38.1639 30.198C38.1639 31.6727 37.8326 32.8627 37.1699 33.768C36.5166 34.664 35.6159 35.112 34.4679 35.112ZM34.4679 33.6C35.1119 33.6 35.6113 33.3013 35.9659 32.704C36.3299 32.1067 36.5119 31.2713 36.5119 30.198C36.5119 29.1247 36.3299 28.2893 35.9659 27.692C35.6019 27.0853 35.1026 26.782 34.4679 26.782C33.8333 26.782 33.3339 27.0853 32.9699 27.692C32.6059 28.2893 32.4239 29.1247 32.4239 30.198C32.4239 31.2527 32.6059 32.0833 32.9699 32.69C33.3433 33.2967 33.8426 33.6 34.4679 33.6ZM43.3136 35.112C42.203 35.112 41.307 34.678 40.6256 33.81C39.9536 32.9327 39.6176 31.7287 39.6176 30.198C39.6176 28.7233 39.949 27.538 40.6116 26.642C41.2743 25.7367 42.175 25.284 43.3136 25.284C44.4243 25.284 45.3156 25.718 45.9876 26.586C46.669 27.454 47.0096 28.658 47.0096 30.198C47.0096 31.6727 46.6783 32.8627 46.0156 33.768C45.3623 34.664 44.4616 35.112 43.3136 35.112ZM43.3136 33.6C43.9576 33.6 44.457 33.3013 44.8116 32.704C45.1756 32.1067 45.3576 31.2713 45.3576 30.198C45.3576 29.1247 45.1756 28.2893 44.8116 27.692C44.4476 27.0853 43.9483 26.782 43.3136 26.782C42.679 26.782 42.1796 27.0853 41.8156 27.692C41.4516 28.2893 41.2696 29.1247 41.2696 30.198C41.2696 31.2527 41.4516 32.0833 41.8156 32.69C42.189 33.2967 42.6883 33.6 43.3136 33.6ZM36.0645 41.07C36.8299 41.07 37.4179 41.3173 37.8285 41.812C38.2485 42.3067 38.4585 43.0533 38.4585 44.052V48H36.8905V44.444C36.8905 43.1373 36.4472 42.484 35.5605 42.484C35.1032 42.484 34.7205 42.6753 34.4125 43.058C34.1139 43.4313 33.9645 43.9447 33.9645 44.598V48H32.3965V44.444C32.3965 43.1373 31.9439 42.484 31.0385 42.484C30.5532 42.484 30.1565 42.6753 29.8485 43.058C29.5499 43.4313 29.4005 43.9447 29.4005 44.598V48H27.8325V41.168H29.4005V42.12H29.4145C29.9839 41.42 30.6932 41.07 31.5425 41.07C32.5039 41.07 33.1852 41.448 33.5865 42.204H33.6145C34.2025 41.448 35.0192 41.07 36.0645 41.07ZM40.495 48V37.696H42.063V48H40.495Z" fill="#4F5052"/>
<defs>
<linearGradient id="paint0_linear_96_1811" x1="35" y1="0" x2="35" y2="70" gradientUnits="userSpaceOnUse">
<stop stop-color="#F9CF56" stop-opacity="0.52"/>
<stop offset="1" stop-color="#F9CF56" stop-opacity="0.72"/>
</linearGradient>
</defs>
</svg>
