<svg width="70" height="70" viewBox="0 0 70 70" fill="none" xmlns="http://www.w3.org/2000/svg">
<rect width="70" height="70" rx="10" fill="url(#paint0_linear_96_1791)"/>
<path d="M46.6797 16.6724C43.541 13.0496 40.0162 9.78023 36.168 6.92242C35.8246 6.68548 35.4172 6.55859 35 6.55859C34.5828 6.55859 34.1754 6.68548 33.832 6.92242C29.9838 9.78023 26.459 13.0496 23.3203 16.6724C16.3379 24.6705 12.6562 33.1255 12.6562 41.0982C12.6563 47.0241 15.0103 52.7074 19.2006 56.8976C23.3908 61.0879 29.0741 63.442 35 63.442C40.9259 63.442 46.6092 61.0879 50.7994 56.8976C54.9897 52.7074 57.3438 47.0241 57.3438 41.0982C57.3438 33.1255 53.6621 24.6705 46.6797 16.6724ZM35 59.3795C30.1536 59.3727 25.5076 57.4445 22.0806 54.0176C18.6537 50.5906 16.7255 45.9446 16.7188 41.0982C16.7188 26.5748 30.8105 14.438 35 11.1373C39.1895 14.438 53.2812 26.5748 53.2812 41.0982C53.2745 45.9446 51.3463 50.5906 47.9194 54.0176C44.4924 57.4445 39.8464 59.3727 35 59.3795Z" fill="#4F5052"/>
<path d="M23.6125 25.382H29.5905V26.46L26.0625 35.196L24.4245 34.888L27.7705 26.866H23.6125V25.382ZM34.2294 28.826C35.0881 28.826 35.8068 29.106 36.3854 29.666C36.9734 30.226 37.2674 30.9773 37.2674 31.92C37.2674 32.872 36.9548 33.642 36.3294 34.23C35.7041 34.818 34.8828 35.112 33.8654 35.112C33.2028 35.112 32.5821 34.9767 32.0034 34.706C31.4341 34.4353 30.9628 34.0527 30.5894 33.558L31.7654 32.62C32.2228 33.2827 32.8761 33.614 33.7254 33.614C34.3041 33.614 34.7614 33.4553 35.0974 33.138C35.4428 32.8113 35.6154 32.396 35.6154 31.892C35.6154 31.3787 35.4288 30.9727 35.0554 30.674C34.6821 30.3753 34.2481 30.226 33.7534 30.226C33.1188 30.226 32.5961 30.394 32.1854 30.73L31.3034 30.422L31.5834 25.382H36.7914V26.866H33.1094L32.9834 29.036C33.4314 28.896 33.8468 28.826 34.2294 28.826ZM42.2887 35.112C41.1781 35.112 40.2821 34.678 39.6007 33.81C38.9287 32.9327 38.5927 31.7287 38.5927 30.198C38.5927 28.7233 38.9241 27.538 39.5867 26.642C40.2494 25.7367 41.1501 25.284 42.2887 25.284C43.3994 25.284 44.2907 25.718 44.9627 26.586C45.6441 27.454 45.9847 28.658 45.9847 30.198C45.9847 31.6727 45.6534 32.8627 44.9907 33.768C44.3374 34.664 43.4367 35.112 42.2887 35.112ZM42.2887 33.6C42.9327 33.6 43.4321 33.3013 43.7867 32.704C44.1507 32.1067 44.3327 31.2713 44.3327 30.198C44.3327 29.1247 44.1507 28.2893 43.7867 27.692C43.4227 27.0853 42.9234 26.782 42.2887 26.782C41.6541 26.782 41.1547 27.0853 40.7907 27.692C40.4267 28.2893 40.2447 29.1247 40.2447 30.198C40.2447 31.2527 40.4267 32.0833 40.7907 32.69C41.1641 33.2967 41.6634 33.6 42.2887 33.6ZM36.065 41.07C36.8304 41.07 37.4184 41.3173 37.829 41.812C38.249 42.3067 38.459 43.0533 38.459 44.052V48H36.891V44.444C36.891 43.1373 36.4477 42.484 35.561 42.484C35.1037 42.484 34.721 42.6753 34.413 43.058C34.1144 43.4313 33.965 43.9447 33.965 44.598V48H32.397V44.444C32.397 43.1373 31.9444 42.484 31.039 42.484C30.5537 42.484 30.157 42.6753 29.849 43.058C29.5504 43.4313 29.401 43.9447 29.401 44.598V48H27.833V41.168H29.401V42.12H29.415C29.9844 41.42 30.6937 41.07 31.543 41.07C32.5044 41.07 33.1857 41.448 33.587 42.204H33.615C34.203 41.448 35.0197 41.07 36.065 41.07ZM40.4955 48V37.696H42.0635V48H40.4955Z" fill="#4F5052"/>
<defs>
<linearGradient id="paint0_linear_96_1791" x1="35" y1="0" x2="35" y2="70" gradientUnits="userSpaceOnUse">
<stop stop-color="#F9CF56" stop-opacity="0.52"/>
<stop offset="1" stop-color="#F9CF56" stop-opacity="0.72"/>
</linearGradient>
</defs>
</svg>
