<svg width="70" height="70" viewBox="0 0 70 70" fill="none" xmlns="http://www.w3.org/2000/svg">
<rect width="70" height="70" rx="10" fill="url(#paint0_linear_96_1815)"/>
<path d="M46.6797 16.6724C43.541 13.0496 40.0162 9.78023 36.168 6.92242C35.8246 6.68548 35.4172 6.55859 35 6.55859C34.5828 6.55859 34.1754 6.68548 33.832 6.92242C29.9838 9.78023 26.459 13.0496 23.3203 16.6724C16.3379 24.6705 12.6562 33.1255 12.6562 41.0982C12.6563 47.0241 15.0103 52.7074 19.2006 56.8976C23.3908 61.0879 29.0741 63.442 35 63.442C40.9259 63.442 46.6092 61.0879 50.7994 56.8976C54.9897 52.7074 57.3438 47.0241 57.3438 41.0982C57.3438 33.1255 53.6621 24.6705 46.6797 16.6724ZM35 59.3795C30.1536 59.3727 25.5076 57.4445 22.0806 54.0176C18.6537 50.5906 16.7255 45.9446 16.7188 41.0982C16.7188 26.5748 30.8105 14.438 35 11.1373C39.1895 14.438 53.2812 26.5748 53.2812 41.0982C53.2745 45.9446 51.3463 50.5906 47.9194 54.0176C44.4924 57.4445 39.8464 59.3727 35 59.3795Z" fill="#4F5052"/>
<path d="M45.5 36.5H36.5V45.5H33.5V36.5H24.5V33.5H33.5V24.5H36.5V33.5H45.5V36.5Z" fill="#4F5052"/>
<defs>
<linearGradient id="paint0_linear_96_1815" x1="35" y1="0" x2="35" y2="70" gradientUnits="userSpaceOnUse">
<stop stop-color="#F9CF56" stop-opacity="0.52"/>
<stop offset="1" stop-color="#F9CF56" stop-opacity="0.72"/>
</linearGradient>
</defs>
</svg>
