<svg width="36" height="27" viewBox="0 0 36 27" fill="none" xmlns="http://www.w3.org/2000/svg">
<path d="M33.75 22.5C33.75 23.0967 33.5129 23.669 33.091 24.091C32.669 24.5129 32.0967 24.75 31.5 24.75H4.5C3.90326 24.75 3.33097 24.5129 2.90901 24.091C2.48705 23.669 2.25 23.0967 2.25 22.5V9C2.25 8.40326 2.48705 7.83097 2.90901 7.40901C3.33097 6.98705 3.90326 6.75 4.5 6.75H7.137C8.92628 6.74902 10.642 6.03766 11.907 4.77225L13.7745 2.90925C14.1953 2.48836 14.7656 2.25132 15.3608 2.25H20.6347C21.2314 2.25013 21.8036 2.48726 22.2255 2.90925L24.0885 4.77225C24.7154 5.39936 25.4598 5.8968 26.279 6.23615C27.0982 6.5755 27.9763 6.75011 28.863 6.75H31.5C32.0967 6.75 32.669 6.98705 33.091 7.40901C33.5129 7.83097 33.75 8.40326 33.75 9V22.5ZM4.5 4.5C3.30653 4.5 2.16193 4.97411 1.31802 5.81802C0.474106 6.66193 0 7.80653 0 9L0 22.5C0 23.6935 0.474106 24.8381 1.31802 25.682C2.16193 26.5259 3.30653 27 4.5 27H31.5C32.6935 27 33.8381 26.5259 34.682 25.682C35.5259 24.8381 36 23.6935 36 22.5V9C36 7.80653 35.5259 6.66193 34.682 5.81802C33.8381 4.97411 32.6935 4.5 31.5 4.5H28.863C27.6696 4.49975 26.5252 4.02547 25.6815 3.1815L23.8185 1.3185C22.9748 0.474528 21.8304 0.000254868 20.637 0H15.363C14.1696 0.000254868 13.0252 0.474528 12.1815 1.3185L10.3185 3.1815C9.47478 4.02547 8.33038 4.49975 7.137 4.5H4.5Z" fill="#0FA958"/>
<path d="M18 20.25C16.5082 20.25 15.0774 19.6574 14.0225 18.6025C12.9676 17.5476 12.375 16.1168 12.375 14.625C12.375 13.1332 12.9676 11.7024 14.0225 10.6475C15.0774 9.59263 16.5082 9 18 9C19.4918 9 20.9226 9.59263 21.9775 10.6475C23.0324 11.7024 23.625 13.1332 23.625 14.625C23.625 16.1168 23.0324 17.5476 21.9775 18.6025C20.9226 19.6574 19.4918 20.25 18 20.25ZM18 22.5C20.0886 22.5 22.0916 21.6703 23.5685 20.1935C25.0453 18.7166 25.875 16.7136 25.875 14.625C25.875 12.5364 25.0453 10.5334 23.5685 9.05653C22.0916 7.57969 20.0886 6.75 18 6.75C15.9114 6.75 13.9084 7.57969 12.4315 9.05653C10.9547 10.5334 10.125 12.5364 10.125 14.625C10.125 16.7136 10.9547 18.7166 12.4315 20.1935C13.9084 21.6703 15.9114 22.5 18 22.5ZM6.75 10.125C6.75 10.4234 6.63147 10.7095 6.42049 10.9205C6.20952 11.1315 5.92337 11.25 5.625 11.25C5.32663 11.25 5.04048 11.1315 4.82951 10.9205C4.61853 10.7095 4.5 10.4234 4.5 10.125C4.5 9.82663 4.61853 9.54048 4.82951 9.3295C5.04048 9.11853 5.32663 9 5.625 9C5.92337 9 6.20952 9.11853 6.42049 9.3295C6.63147 9.54048 6.75 9.82663 6.75 10.125Z" fill="#0FA958"/>
</svg>
