<svg width="36" height="36" viewBox="0 0 36 36" fill="none" xmlns="http://www.w3.org/2000/svg">
<path d="M5.61011 4.125C5.21228 4.125 4.83075 4.28304 4.54945 4.56434C4.26814 4.84564 4.11011 5.22718 4.11011 5.625V5.625V30.375C4.11011 30.7728 4.26814 31.1544 4.54945 31.4357C4.83075 31.717 5.21228 31.875 5.61011 31.875H30.3901C30.7879 31.875 31.1695 31.717 31.4508 31.4357C31.7321 31.1544 31.8901 30.7728 31.8901 30.375V5.625C31.8901 5.22718 31.7321 4.84564 31.4508 4.56434C31.1695 4.28304 30.7879 4.125 30.3901 4.125H5.61011Z" stroke="#0FA958" stroke-width="1.5" stroke-linecap="round" stroke-linejoin="round"/>
<path d="M23.4899 9.08984C24.153 9.08984 24.8012 9.28646 25.3525 9.65484C25.9038 10.0232 26.3335 10.5468 26.5872 11.1594C26.841 11.772 26.9074 12.4461 26.778 13.0964C26.6487 13.7467 26.3294 14.3441 25.8605 14.8129C25.3917 15.2818 24.7943 15.6011 24.144 15.7304C23.4937 15.8598 22.8196 15.7934 22.207 15.5397C21.5944 15.2859 21.0708 14.8562 20.7024 14.3049C20.3341 13.7536 20.1374 13.1054 20.1374 12.4423C20.1374 11.5532 20.4906 10.7005 21.1194 10.0718C21.7481 9.44305 22.6008 9.08984 23.4899 9.08984V9.08984ZM14.9999 15.7498L20.4149 21.1648C20.4638 21.2147 20.5222 21.2544 20.5866 21.2814C20.6509 21.3085 20.7201 21.3224 20.7899 21.3224C20.8598 21.3224 20.9289 21.3085 20.9933 21.2814C21.0577 21.2544 21.116 21.2147 21.1649 21.1648L22.1999 20.1298C22.2997 20.0309 22.4345 19.9754 22.5749 19.9754C22.7154 19.9754 22.8502 20.0309 22.9499 20.1298L28.8074 25.9873C28.8824 26.0608 28.9336 26.155 28.9545 26.2578C28.9754 26.3607 28.965 26.4674 28.9247 26.5643C28.8843 26.6612 28.8158 26.7438 28.7281 26.8013C28.6404 26.8589 28.5374 26.8889 28.4324 26.8873H7.55993C7.46365 26.8881 7.36902 26.8624 7.28637 26.813C7.20373 26.7636 7.13627 26.6924 7.09136 26.6072C7.04646 26.5221 7.02583 26.4262 7.03176 26.3301C7.03768 26.234 7.06991 26.1414 7.12493 26.0623L14.2499 15.8473C14.2919 15.7906 14.345 15.7429 14.4058 15.7071C14.4667 15.6713 14.5342 15.6482 14.6042 15.6391C14.6742 15.63 14.7454 15.6351 14.8133 15.6541C14.8813 15.6732 14.9448 15.7057 14.9999 15.7498V15.7498Z" stroke="#0FA958" stroke-width="1.5" stroke-linecap="round" stroke-linejoin="round"/>
</svg>
