<svg width="54" height="48" viewBox="0 0 54 48" fill="none" xmlns="http://www.w3.org/2000/svg">
<g clip-path="url(#clip0_1873_1027)">
<path d="M24 4C12.96 4 4 12.96 4 24C4 35.04 12.96 44 24 44C35.04 44 44 35.04 44 24C44 12.96 35.04 4 24 4ZM24 10C27.32 10 30 12.68 30 16C30 19.32 27.32 22 24 22C20.68 22 18 19.32 18 16C18 12.68 20.68 10 24 10ZM24 38.4C19 38.4 14.58 35.84 12 31.96C12.06 27.98 20 25.8 24 25.8C27.98 25.8 35.94 27.98 36 31.96C33.42 35.84 29 38.4 24 38.4Z" fill="#C5C5C5"/>
</g>
<circle cx="42" cy="36" r="11.5" fill="white" stroke="#00A64F"/>
<path d="M42.625 33.5C43.1223 33.5 43.5992 33.6975 43.9508 34.0492C44.3025 34.4008 44.5 34.8777 44.5 35.375C44.5 35.5408 44.5658 35.6997 44.6831 35.8169C44.8003 35.9342 44.9592 36 45.125 36C45.2908 36 45.4497 35.9342 45.5669 35.8169C45.6842 35.6997 45.75 35.5408 45.75 35.375C45.75 34.5462 45.4208 33.7513 44.8347 33.1653C44.2487 32.5792 43.4538 32.25 42.625 32.25C42.4592 32.25 42.3003 32.3158 42.1831 32.4331C42.0658 32.5503 42 32.7092 42 32.875C42 33.0408 42.0658 33.1997 42.1831 33.3169C42.3003 33.4342 42.4592 33.5 42.625 33.5Z" fill="#00A64F"/>
<path d="M42.625 31.0001C43.7853 31.0001 44.8981 31.461 45.7186 32.2815C46.5391 33.1019 47 34.2147 47 35.3751C47 35.5408 47.0658 35.6998 47.1831 35.817C47.3003 35.9342 47.4592 36.0001 47.625 36.0001C47.7908 36.0001 47.9497 35.9342 48.0669 35.817C48.1842 35.6998 48.25 35.5408 48.25 35.3751C48.25 33.8832 47.6574 32.4525 46.6025 31.3976C45.5476 30.3427 44.1168 29.7501 42.625 29.7501C42.4592 29.7501 42.3003 29.8159 42.1831 29.9331C42.0658 30.0503 42 30.2093 42 30.3751C42 30.5408 42.0658 30.6998 42.1831 30.817C42.3003 30.9342 42.4592 31.0001 42.625 31.0001ZM48.0938 38.4438C48.0594 38.3435 48 38.2535 47.9213 38.1825C47.8426 38.1114 47.7471 38.0615 47.6438 38.0376L43.8938 37.1813C43.792 37.1582 43.686 37.161 43.5856 37.1894C43.4851 37.2178 43.3934 37.2709 43.3187 37.3438C43.2312 37.4251 43.225 37.4313 42.8188 38.2063C41.4707 37.5852 40.3906 36.5006 39.775 35.1501C40.5687 34.7501 40.575 34.7501 40.6562 34.6563C40.7292 34.5817 40.7823 34.4899 40.8107 34.3895C40.839 34.289 40.8418 34.1831 40.8187 34.0813L39.9625 30.3751C39.9385 30.2717 39.8887 30.1762 39.8176 30.0975C39.7465 30.0188 39.6566 29.9594 39.5563 29.9251C39.4103 29.8729 39.2596 29.8352 39.1062 29.8126C38.9483 29.7759 38.7871 29.755 38.625 29.7501C37.8625 29.7501 37.1312 30.053 36.5921 30.5921C36.0529 31.1313 35.75 31.8626 35.75 32.6251C35.7533 35.1768 36.7684 37.623 38.5728 39.4273C40.3771 41.2316 42.8233 42.2468 45.375 42.2501C45.7526 42.2501 46.1264 42.1757 46.4752 42.0312C46.824 41.8867 47.141 41.675 47.4079 41.408C47.6749 41.141 47.8867 40.8241 48.0312 40.4753C48.1756 40.1265 48.25 39.7526 48.25 39.3751C48.2502 39.216 48.2377 39.0571 48.2125 38.9001C48.1862 38.7448 48.1465 38.5922 48.0938 38.4438ZM45.375 41.0001C43.1543 40.9984 41.0251 40.1155 39.4548 38.5453C37.8846 36.975 37.0017 34.8457 37 32.6251C37.0016 32.1946 37.1734 31.7822 37.4778 31.4778C37.7822 31.1734 38.1945 31.0017 38.625 31.0001H38.8312L39.5 33.9001L39.1625 34.0751C38.625 34.3563 38.2 34.5813 38.425 35.0688C38.7914 36.106 39.3842 37.0486 40.1605 37.8281C40.9367 38.6076 41.8768 39.2043 42.9125 39.5751C43.4375 39.7876 43.6438 39.3938 43.925 38.8501L44.1062 38.5063L47 39.1688V39.3751C46.9984 39.8055 46.8266 40.2179 46.5222 40.5223C46.2178 40.8267 45.8055 40.9984 45.375 41.0001Z" fill="#00A64F"/>
<defs>
<clipPath id="clip0_1873_1027">
<rect width="48" height="48" fill="white"/>
</clipPath>
</defs>
</svg>
