<svg width="215" height="213" viewBox="0 0 215 213" fill="none" xmlns="http://www.w3.org/2000/svg">
<circle cx="101.91" cy="118.258" r="75" fill="#F5F5F5"/>
<circle cx="101.91" cy="118.258" r="75" fill="black" fill-opacity="0.05"/>
<path d="M64.7224 93.0469C64.7224 93.0469 59.6833 93.4453 59.0115 94.5781C58.3318 95.7109 58.2927 97.4531 58.2927 99.3672C58.2927 101.289 58.2146 105.695 58.2146 105.695L59.4177 108.281C59.4177 108.281 59.6443 141.242 59.6443 142.266C59.6443 143.281 59.6443 144.523 61.113 145.312C62.5818 146.102 99.9099 164.133 101.074 164.617C102.832 165.344 103.668 165.07 103.668 165.07L145.144 95.7031C145.144 95.7031 145.011 93.8047 143.285 93.3516C142.293 93.1016 64.7224 93.0469 64.7224 93.0469Z" fill="#F5B03E"/>
<path d="M103.222 115.852C102.59 117.594 102.879 135.609 102.988 148.711C103.097 161.805 102.652 164.516 102.988 164.969C103.324 165.422 104.238 164.984 106.824 163.836C111.629 161.711 134.707 150.289 136.402 149.274C138.097 148.258 142.238 146.156 142.918 145.024C143.597 143.891 143.965 133.352 144.191 124.891C144.418 116.422 144.644 109.649 144.644 109.649L145.66 106.602C145.66 106.602 145.441 98.3673 145.402 97.461C145.332 95.961 145.168 95.1876 144.785 95.3751C144.238 95.6329 139.676 99.3751 127.597 105.25C120.011 108.93 103.66 114.649 103.222 115.852Z" fill="#E07F14"/>
<path d="M103.332 77.0156C99.949 76.8593 90.6912 82.2109 81.7693 85.1406C72.8474 88.0702 59.3787 93.9609 59.2615 94.3046C59.1521 94.6406 64.6834 97.1171 68.2146 98.8124C72.4099 100.82 88.4255 108.406 91.3552 109.648C94.2927 110.891 101.293 113.797 102.418 113.711C103.996 113.601 118.902 107.726 126.465 104.117C134.027 100.508 143.48 94.914 143.605 93.5546C143.66 92.9452 129.699 87.7343 122.738 84.5859C109.301 78.4999 105.808 77.1327 103.332 77.0156Z" fill="#FDD717"/>
<path d="M58.2537 107.141C58.3708 108.609 59.1755 109.133 61.2224 110.023C63.2693 110.914 101.965 131.016 102.855 131.016C103.746 131.016 104.011 127.828 103.035 127.914C102.504 127.961 89.7927 121.922 77.9177 115.891C67.8396 110.781 58.1912 105.68 58.1912 105.68L58.2537 107.141Z" fill="#E37D14"/>
<path d="M145.668 106.531C145.668 106.531 104.347 127.547 103.941 127.75C103.535 127.953 102.886 127.883 102.886 127.883L102.855 131.016C102.855 131.016 103.238 131.102 103.668 130.969C103.918 130.891 144.472 109.898 144.652 109.836C144.832 109.773 145.613 109.305 145.777 108.312C145.918 107.516 145.668 106.531 145.668 106.531Z" fill="#BA5E0D"/>
<path d="M74.4568 144.367L82.5427 156.398L86.0818 157.609C86.0818 157.609 86.3708 144.484 86.488 134.758C86.6521 120.547 86.5896 107.586 86.7927 106.852C87.1287 105.609 102.855 100.508 102.855 100.508C102.855 100.508 120.621 106.078 121.183 107.32C121.433 107.867 121.238 117.07 121.183 127.797C121.113 141.344 121.136 156.984 121.136 156.984C121.136 156.984 122.972 156.977 123.191 156.297C123.418 155.617 124.324 150.375 124.324 150.375L131.215 104.445L134.715 99.9297L129.855 90.6797L109.918 80.8672L103.066 82.4063L95.6521 81.2734L72.1365 98.1719L74.8787 103.734L81.6052 107.164L74.4568 144.367Z" fill="#AF0F1B"/>
<path d="M123.222 106.844C122.793 107.789 123.043 156.5 123.043 156.5C123.043 156.5 125.191 155.313 127.957 153.984C130.707 152.664 132.683 151.844 132.855 151.156C133.027 150.469 133.332 102.297 133.332 102.297L123.222 106.844Z" fill="#DC0D28"/>
<path d="M84.2146 105.836C84.4724 106.117 84.0505 156.664 83.5271 156.781C83.113 156.883 73.699 152.68 73.699 152.25C73.699 151.82 74.4568 103.516 74.4568 103.516C74.4568 103.516 83.449 104.977 84.2146 105.836ZM102.871 79.3906C100.269 79.3906 97.3943 80.1328 96.5584 82.3125C95.7224 84.4922 95.5349 87.7344 95.5349 90.1563C95.5349 92.4766 95.1599 98.4141 102.308 98.3203C109.457 98.2266 109.668 95.5781 109.777 89.7344C109.871 84.8594 109.222 82.4922 108.574 81.4766C107.996 80.5625 106.074 79.3906 102.871 79.3906Z" fill="#FF2A23"/>
<path d="M98.738 91.4532C100.363 91.547 101.058 87.9767 102.308 86.0236C103.558 84.0782 104.863 82.7736 104.394 81.7579C104.011 80.9142 100.613 80.6407 98.777 83.1954C97.488 85.0001 97.2614 91.3673 98.738 91.4532Z" fill="#FCC9D2"/>
<path d="M109.199 81.0859C109.199 81.0859 111.504 83.4296 112.105 88.0234C112.707 92.6171 112.011 96.1875 112.011 96.1875C112.011 96.1875 123.465 95.8437 127.418 96.6015C131.316 97.3593 132.676 99.0781 132.676 100.328C132.676 101.578 130.113 102.586 127.511 102.398C124.91 102.211 123.152 102.07 122.824 102.727C122.496 103.383 122.965 104.398 126.582 104.672C130.199 104.953 134.379 104.437 135.676 99.9375C136.972 95.4375 137.019 87.6406 136.558 82.0234C136.097 76.4062 135.082 73.1953 132.566 71.9765C129.918 70.7031 123.285 70.4922 117.019 74.0156C110.754 77.539 109.199 81.0859 109.199 81.0859Z" fill="#FF2A23"/>
<path d="M122.176 75.7422C121.363 74.6954 118.746 74.7266 117.347 76.3438C115.863 78.0625 115.535 84.6016 117.441 84.9766C119.597 85.3985 119.207 81.8672 120.785 79.6875C122.332 77.5547 122.965 76.7657 122.176 75.7422Z" fill="#FCC9D2"/>
<path d="M95.9568 81.3126C95.9568 81.3126 87.1834 71.086 77.1599 71.2423C71.1287 71.336 69.5974 74.8126 69.2693 76.2501C68.9412 77.6876 66.4412 91.9844 69.7771 99.7266C73.1131 107.469 80.0349 105.461 81.1209 105.211C82.5115 104.883 85.4724 103.867 85.1912 102.797C84.9099 101.727 75.074 105.578 74.9803 101.172C74.8865 96.7657 81.9412 96.2969 85.1912 96.2032C88.4412 96.1094 94.0115 96.8516 94.0115 96.8516C94.0115 96.8516 93.035 91.5157 93.6834 87.711C94.3318 83.9063 95.9568 81.3126 95.9568 81.3126Z" fill="#FF2A23"/>
<path d="M74.4724 74.9531C73.2224 76.25 72.7068 83.7265 73.4959 87.4375C74.2849 91.1484 74.9802 92.7265 76.6052 92.4062C77.9646 92.1328 78.7849 84.8515 79.4334 82.289C80.1287 79.5546 81.8474 76.6484 81.1521 75.375C80.0896 73.4218 75.7771 73.6015 74.4724 74.9531Z" fill="#FCC9D2"/>
<path d="M135.785 5.22742C136.525 3.85649 138.605 4.38192 138.605 5.93962V30.0555C138.605 30.9962 137.75 31.7048 136.825 31.5292L125.025 29.2873C124.028 29.098 123.503 27.9944 123.984 27.1015L135.785 5.22742Z" fill="#299AE0"/>
<path d="M71.9546 11.8575C71.9566 10.2882 74.0624 9.7753 74.7858 11.168L85.8104 32.3936C86.2458 33.2319 85.8073 34.2592 84.9007 34.5246L73.8454 37.7612C72.8843 38.0426 71.9226 37.3212 71.9239 36.3198L71.9546 11.8575Z" fill="#299AE0"/>
<path d="M9.75948 61.6275C8.63148 60.4611 9.90125 58.5833 11.4039 59.1957L32.5699 67.8221C33.4641 68.1866 33.786 69.2887 33.2285 70.0772L27.8121 77.7374C27.2693 78.5049 26.1625 78.5898 25.509 77.9141L9.75948 61.6275Z" fill="#299AE0"/>
<path d="M182.42 191.5C182.877 193.05 180.895 194.127 179.843 192.9L164.874 175.45C164.247 174.719 164.461 173.595 165.313 173.146L173.819 168.665C174.657 168.224 175.69 168.66 175.957 169.568L182.42 191.5Z" fill="#299AE0"/>
<circle r="5" transform="matrix(-1 0 0 1 176.91 77.0125)" fill="#EF3C45"/>
<circle r="5" transform="matrix(-1 0 0 1 166.91 45.9534)" fill="#EF3C45"/>
<circle r="5" transform="matrix(-1 0 0 1 191.91 147.692)" fill="#EF3C45"/>
<circle r="5" transform="matrix(-1 0 0 1 199.259 123.087)" fill="#EF3C45"/>
<path d="M199.259 43.2578C199.259 46.0192 201.498 48.2578 204.259 48.2578C207.021 48.2578 209.259 46.0192 209.259 43.2578C209.259 40.4964 207.021 38.2578 204.259 38.2578C201.498 38.2578 199.259 40.4964 199.259 43.2578ZM207.259 43.2578C207.259 44.9147 205.916 46.2578 204.259 46.2578C202.602 46.2578 201.259 44.9147 201.259 43.2578C201.259 41.601 202.602 40.2578 204.259 40.2578C205.916 40.2578 207.259 41.601 207.259 43.2578Z" fill="#B74982"/>
<path d="M10.0634 195.558C12.1792 197.332 15.333 197.055 17.1074 194.94C18.8819 192.824 18.6053 189.67 16.4895 187.896C14.3736 186.121 11.2199 186.398 9.44544 188.514C7.67095 190.629 7.94763 193.783 10.0634 195.558ZM15.2042 189.428C16.4737 190.493 16.6397 192.385 15.575 193.654C14.5104 194.924 12.6181 195.09 11.3486 194.025C10.0792 192.961 9.91315 191.068 10.9778 189.799C12.0425 188.529 13.9348 188.363 15.2042 189.428Z" fill="#B74982"/>
<path d="M22.7409 187.896C24.8567 189.67 28.0104 189.393 29.7849 187.278C31.5594 185.162 31.2827 182.008 29.1669 180.234C27.0511 178.459 23.8974 178.736 22.1229 180.852C20.3484 182.967 20.6251 186.121 22.7409 187.896ZM27.8817 181.766C29.1512 182.831 29.3172 184.723 28.2525 185.992C27.1878 187.262 25.2956 187.428 24.0261 186.363C22.7566 185.298 22.5906 183.406 23.6553 182.137C24.72 180.867 26.6123 180.701 27.8817 181.766Z" fill="#B74982"/>
<path d="M185.91 98.4819C185.91 101.243 188.148 103.482 190.91 103.482C193.671 103.482 195.91 101.243 195.91 98.4819C195.91 95.7205 193.671 93.4819 190.91 93.4819C188.148 93.4819 185.91 95.7205 185.91 98.4819ZM193.91 98.4819C193.91 100.139 192.567 101.482 190.91 101.482C189.253 101.482 187.91 100.139 187.91 98.4819C187.91 96.8251 189.253 95.4819 190.91 95.4819C192.567 95.4819 193.91 96.8251 193.91 98.4819Z" fill="#B74982"/>
<path d="M204.259 84.3906C204.259 87.152 206.498 89.3906 209.259 89.3906C212.021 89.3906 214.259 87.152 214.259 84.3906C214.259 81.6292 212.021 79.3906 209.259 79.3906C206.498 79.3906 204.259 81.6292 204.259 84.3906ZM212.259 84.3906C212.259 86.0475 210.916 87.3906 209.259 87.3906C207.602 87.3906 206.259 86.0475 206.259 84.3906C206.259 82.7338 207.602 81.3906 209.259 81.3906C210.916 81.3906 212.259 82.7338 212.259 84.3906Z" fill="#B74982"/>
<path d="M41.0615 208.956C43.1773 210.73 46.331 210.454 48.1055 208.338C49.88 206.222 49.6033 203.068 47.4875 201.294C45.3717 199.519 42.218 199.796 40.4435 201.912C38.669 204.028 38.9457 207.181 41.0615 208.956ZM46.2023 202.826C47.4718 203.891 47.6378 205.783 46.5731 207.053C45.5084 208.322 43.6162 208.488 42.3467 207.423C41.0772 206.359 40.9112 204.467 41.9759 203.197C43.0406 201.928 44.9328 201.762 46.2023 202.826Z" fill="#B74982"/>
<circle r="5" transform="matrix(-1 0 0 1 143.605 198.717)" fill="#EF3C45"/>
<circle r="5" transform="matrix(-1 0 0 1 85.0366 203.717)" fill="#EF3C45"/>
<circle r="5" transform="matrix(-1 0 0 1 8.90991 131.043)" fill="#EF3C45"/>
<circle r="5" transform="matrix(-1 0 0 1 20.3203 156.796)" fill="#EF3C45"/>
<circle r="5" transform="matrix(-1 0 0 1 18.9099 95.3628)" fill="#EF3C45"/>
<circle r="5" transform="matrix(-1 0 0 1 23.9099 36.8672)" fill="#EF3C45"/>
<circle r="5" transform="matrix(-1 0 0 1 56.9099 43.2578)" fill="#EF3C45"/>
</svg>
