<svg width="20" height="20" viewBox="0 0 20 20" fill="none" xmlns="http://www.w3.org/2000/svg">
<path d="M9.07395 0.633C9.39395 -0.211 10.605 -0.211 10.926 0.633L12.996 6.367C13.0682 6.55379 13.1953 6.71428 13.3607 6.8273C13.526 6.94031 13.7217 7.00053 13.922 7H19.009C19.949 7 20.359 8.17 19.62 8.743L16 12C15.8378 12.1247 15.7193 12.2975 15.6614 12.4937C15.6036 12.6898 15.6094 12.8993 15.678 13.092L17 18.695C17.322 19.595 16.28 20.368 15.492 19.814L10.575 16.694C10.4066 16.5757 10.2058 16.5122 9.99995 16.5122C9.79414 16.5122 9.59334 16.5757 9.42495 16.694L4.50795 19.814C3.72095 20.368 2.67795 19.594 2.99995 18.695L4.32195 13.092C4.39053 12.8993 4.39631 12.6898 4.33846 12.4937C4.28061 12.2975 4.16211 12.1247 3.99995 12L0.379955 8.743C-0.360045 8.17 0.0519544 7 0.989954 7H6.07695C6.27725 7.00067 6.47302 6.9405 6.63837 6.82747C6.80372 6.71444 6.93086 6.55387 7.00295 6.367L9.07295 0.633H9.07395Z" fill="#C4C4C4"/>
</svg>
