<svg width="20" height="20" viewBox="0 0 20 20" fill="none" xmlns="http://www.w3.org/2000/svg">
<g clip-path="url(#clip0_118_1022)">
<path d="M9.60938 0.0234356C8.67188 0.195311 7.92188 0.742186 7.51953 1.55469C7.32422 1.95312 7.25 2.26562 7.25 2.71484C7.24609 3.25 7.32031 3.57031 7.53516 4.0039L7.71875 4.37109L6.35156 4.38281C4.99219 4.39844 4.97656 4.39844 4.63672 4.5039C3.28516 4.92187 2.375 5.92578 2.07422 7.32422C2.05078 7.42969 1.70312 9.375 1.30078 11.6406L0.570312 15.7617L0.566406 16.3867C0.566406 16.9258 0.578125 17.0547 0.65625 17.3242C0.835938 17.9453 1.16797 18.5039 1.64453 18.9805C2.05078 19.3828 2.65234 19.7187 3.28125 19.8906L3.61328 19.9805H10H16.3867L16.7188 19.8906C17.3477 19.7187 17.9492 19.3828 18.3555 18.9805C18.832 18.5039 19.1641 17.9453 19.3438 17.3242C19.4219 17.0547 19.4336 16.9258 19.4336 16.3867L19.4297 15.7617L18.6992 11.6406C18.2969 9.375 17.9492 7.42969 17.9258 7.32422C17.625 5.92578 16.7148 4.92187 15.3633 4.5039C15.0234 4.39844 15.0078 4.39844 13.6641 4.38281C12.9141 4.375 12.3047 4.35937 12.3047 4.34375C12.3047 4.32812 12.3828 4.16406 12.4766 3.97656C12.6797 3.5664 12.7539 3.23828 12.75 2.71484C12.7461 1.51562 11.9609 0.484373 10.7617 0.109373C10.5312 0.0390606 9.82031 -0.0156269 9.60938 0.0234356ZM10.5234 1.27734C11.7383 1.70312 11.9531 3.36719 10.8828 4.07812C9.73438 4.83984 8.23047 3.88281 8.44141 2.52734C8.54297 1.8789 9.07812 1.32422 9.71484 1.21094C9.94141 1.17187 10.3125 1.19922 10.5234 1.27734ZM14.8945 5.60937C15.4414 5.73047 16.0391 6.125 16.3359 6.55469C16.4922 6.78125 16.6602 7.1289 16.7188 7.33984C16.7422 7.42969 17.1055 9.44141 17.5234 11.8086C18.3203 16.332 18.3398 16.4727 18.2227 16.9336C17.9766 17.9102 17.1953 18.625 16.207 18.7852C15.8594 18.8437 4.14062 18.8437 3.79297 18.7852C3.23828 18.6992 2.82812 18.4844 2.41797 18.0781C1.98438 17.6445 1.71875 17.0156 1.71875 16.4062C1.71875 16.1992 1.9375 14.8633 2.47656 11.8086C2.89453 9.44141 3.25781 7.42969 3.28125 7.33984C3.44922 6.71875 3.91406 6.14844 4.49609 5.83984C5.07031 5.53515 4.76953 5.55469 9.97266 5.55078C14.1055 5.54687 14.6445 5.55469 14.8945 5.60937Z" fill="#00A64F"/>
<path d="M6.17187 9.73877C5.84765 9.91064 5.85937 9.81689 5.85937 12.1919V14.2856L5.94921 14.4145C6.08984 14.6255 6.21484 14.6958 6.4453 14.6958C6.66405 14.6958 6.78515 14.6333 6.92968 14.438C7.0039 14.3403 7.01171 14.2583 7.03124 13.5864L7.05077 12.8403L7.89062 13.7075C8.35155 14.188 8.78124 14.606 8.84765 14.6372C9.11718 14.7778 9.49999 14.6606 9.62499 14.3989C9.70702 14.2231 9.70312 13.9536 9.61718 13.8247C9.58202 13.77 9.22655 13.3872 8.82812 12.9731C8.42968 12.563 8.10155 12.2075 8.09374 12.188C8.08593 12.1685 8.41015 11.8169 8.80859 11.4067C9.20702 10.9927 9.5703 10.602 9.61327 10.5356C9.8164 10.1997 9.60937 9.73486 9.23046 9.66455C8.93359 9.60986 8.85155 9.66845 7.91405 10.6372L7.03124 11.5435V10.8286C7.03124 9.98486 6.99609 9.87158 6.70702 9.73095C6.49218 9.62548 6.3789 9.62939 6.17187 9.73877Z" fill="#00A64F"/>
<path d="M11.8203 9.71118C11.1836 9.86353 10.6836 10.3284 10.4609 10.9729C10.3789 11.2151 10.3711 11.2932 10.3711 12.1682C10.3711 12.9573 10.3828 13.1409 10.4414 13.3284C10.8125 14.5315 12.1562 15.0627 13.2305 14.4338C13.4766 14.2854 13.7734 13.969 13.9023 13.7151C14.1016 13.3245 14.1484 13.094 14.1328 12.5862C14.1211 12.1877 14.1094 12.1135 14.0352 12.0081C13.875 11.7854 13.7422 11.7502 13.0664 11.7659C12.5312 11.7776 12.4531 11.7854 12.3594 11.8596C12.0859 12.0627 12.0117 12.3167 12.1445 12.5862C12.2617 12.8245 12.3906 12.9065 12.6836 12.9221C12.9531 12.9417 12.9727 12.9651 12.8711 13.1643C12.6367 13.6174 11.918 13.6292 11.6602 13.1877C11.5625 13.0237 11.5625 13.0042 11.5625 12.1917C11.5625 11.262 11.582 11.1721 11.8203 10.9885C12.1289 10.7581 12.4492 10.7932 12.7969 11.094C13.0312 11.301 13.1875 11.3557 13.418 11.3127C13.5977 11.2776 13.8164 11.0588 13.8516 10.8792C13.8984 10.6174 13.8398 10.4729 13.5781 10.2151C13.1016 9.73462 12.4687 9.55493 11.8203 9.71118Z" fill="#00A64F"/>
</g>
<defs>
<clipPath id="clip0_118_1022">
<rect width="20" height="20" fill="white"/>
</clipPath>
</defs>
</svg>
