<svg width="20" height="20" viewBox="0 0 20 20" fill="none" xmlns="http://www.w3.org/2000/svg">
<path d="M10 1C5.04792 1 1 5.04792 1 10C1 14.9521 5.02745 19 10 19C14.9518 19 18.9997 14.9521 18.9997 10C18.9997 5.04792 14.9518 1 10 1ZM10 18.1777C5.5 18.1777 1.82226 14.4997 1.82226 10C1.82226 5.50033 5.47953 1.82226 10 1.82226C14.5 1.82226 18.1777 5.50033 18.1777 10C18.1777 14.4997 14.4997 18.1777 10 18.1777Z" fill="#00A64F"/>
<path d="M10.0002 3.38477C6.34265 3.38477 3.38382 6.34366 3.38382 10.0012C3.38382 13.6587 6.36322 16.6176 10.0002 16.6176C13.6575 16.6176 16.6167 13.6587 16.6167 10.0012C16.6167 6.34366 13.6578 3.38477 10.0002 3.38477ZM10.0002 15.9598C6.71267 15.9598 4.0413 13.2886 4.0413 10.0009C4.0413 6.71315 6.71254 4.04192 10.0002 4.04192C13.2878 4.04192 15.9592 6.71315 15.9592 10.0009C15.9591 13.2884 13.2879 15.9598 10.0002 15.9598Z" fill="#00A64F"/>
<path d="M6 11.55V8H7.315C7.72833 8 8.03667 8.10833 8.24 8.325C8.44667 8.53833 8.55 8.82333 8.55 9.18C8.55 9.56 8.43333 9.84833 8.2 10.045C7.97 10.2383 7.65333 10.335 7.25 10.335H6.695V11.55H6ZM6.695 9.71H7.16C7.37667 9.71 7.54 9.66167 7.65 9.565C7.76333 9.46833 7.82 9.335 7.82 9.165C7.82 8.99833 7.765 8.86667 7.655 8.77C7.545 8.67333 7.39 8.625 7.19 8.625H6.695V9.71Z" fill="#00A64F"/>
<path d="M10.1509 11.59C9.78427 11.59 9.4826 11.4733 9.24594 11.24C9.0126 11.0067 8.89594 10.7033 8.89594 10.33C8.89594 9.95667 9.01427 9.65333 9.25094 9.42C9.49094 9.18667 9.80094 9.07 10.1809 9.07C10.3843 9.07 10.5776 9.11 10.7609 9.19C10.9443 9.27 11.0959 9.385 11.2159 9.535L10.7759 9.915C10.6259 9.74167 10.4359 9.655 10.2059 9.655C10.0126 9.655 9.85594 9.71833 9.73594 9.845C9.61594 9.96833 9.55594 10.1283 9.55594 10.325C9.55594 10.525 9.61594 10.6883 9.73594 10.815C9.85927 10.9417 10.0176 11.005 10.2109 11.005C10.4443 11.005 10.6343 10.9217 10.7809 10.755L11.2259 11.15C11.1126 11.28 10.9626 11.3867 10.7759 11.47C10.5926 11.55 10.3843 11.59 10.1509 11.59Z" fill="#00A64F"/>
<path d="M12.4722 11.59C12.0889 11.59 11.7589 11.4717 11.4822 11.235L11.8022 10.78C12.0022 10.97 12.2272 11.065 12.4772 11.065C12.5705 11.065 12.6439 11.0467 12.6972 11.01C12.7505 10.9733 12.7772 10.925 12.7772 10.865C12.7772 10.8117 12.7455 10.7667 12.6822 10.73C12.6189 10.6933 12.5022 10.6483 12.3322 10.595C12.0955 10.515 11.9105 10.4167 11.7772 10.3C11.6472 10.18 11.5822 10.0133 11.5822 9.8C11.5822 9.58333 11.6655 9.40833 11.8322 9.275C11.9989 9.13833 12.2089 9.07 12.4622 9.07C12.7955 9.07 13.0922 9.17167 13.3522 9.375L13.0372 9.855C12.8539 9.68167 12.6589 9.595 12.4522 9.595C12.3922 9.595 12.3372 9.61167 12.2872 9.645C12.2372 9.675 12.2122 9.72 12.2122 9.78C12.2122 9.82667 12.2405 9.87 12.2972 9.91C12.3572 9.94667 12.4522 9.99 12.5822 10.04C12.7155 10.09 12.8139 10.1283 12.8772 10.155C12.9405 10.1783 13.0155 10.215 13.1022 10.265C13.1889 10.3117 13.2489 10.3583 13.2822 10.405C13.3189 10.4483 13.3505 10.5067 13.3772 10.58C13.4072 10.6533 13.4222 10.7367 13.4222 10.83C13.4222 11.0567 13.3405 11.24 13.1772 11.38C13.0172 11.52 12.7822 11.59 12.4722 11.59Z" fill="#00A64F"/>
</svg>
