<svg width="20" height="20" viewBox="0 0 20 20" fill="none" xmlns="http://www.w3.org/2000/svg">
<path d="M13.5938 4.35999C12.628 3.24528 11.5435 2.23932 10.3594 1.35999C10.2537 1.28709 10.1284 1.24805 10 1.24805C9.87163 1.24805 9.74629 1.28709 9.64062 1.35999C8.45655 2.23932 7.372 3.24528 6.40625 4.35999C4.25781 6.82093 3.125 9.42249 3.125 11.8756C3.125 13.699 3.84933 15.4477 5.13864 16.737C6.42795 18.0263 8.17664 18.7506 10 18.7506C11.8234 18.7506 13.572 18.0263 14.8614 16.737C16.1507 15.4477 16.875 13.699 16.875 11.8756C16.875 9.42249 15.7422 6.82093 13.5938 4.35999ZM10 17.5006C8.50879 17.4986 7.07925 16.9053 6.02481 15.8508C4.97036 14.7964 4.37707 13.3668 4.375 11.8756C4.375 7.40687 8.71094 3.67249 10 2.65687C11.2891 3.67249 15.625 7.40687 15.625 11.8756C15.6229 13.3668 15.0296 14.7964 13.9752 15.8508C12.9207 16.9053 11.4912 17.4986 10 17.5006Z" fill="#00A64F"/>
<path d="M8.89236 12.3281C8.89236 12.8391 9.15836 13.0001 9.56436 13.0001H11.9584C12.2874 13.0001 12.5534 12.8321 12.5534 12.5171C12.5534 12.2021 12.2874 12.0341 11.9584 12.0341H10.0404V8.44314C10.0404 8.10014 9.81636 7.86914 9.46636 7.86914C9.11636 7.86914 8.89236 8.10014 8.89236 8.44314V12.3281Z" fill="#00A64F"/>
</svg>
