<svg width="20" height="20" viewBox="0 0 20 20" fill="none" xmlns="http://www.w3.org/2000/svg">
<path d="M10 1C5.04792 1 1 5.04792 1 10C1 14.9521 5.02745 19 10 19C14.9518 19 18.9997 14.9521 18.9997 10C18.9997 5.04792 14.9518 1 10 1ZM10 18.1777C5.5 18.1777 1.82226 14.4997 1.82226 10C1.82226 5.50033 5.47953 1.82226 10 1.82226C14.5 1.82226 18.1777 5.50033 18.1777 10C18.1777 14.4997 14.4997 18.1777 10 18.1777Z" fill="#00A64F"/>
<path d="M10.0002 3.38477C6.34265 3.38477 3.38382 6.34366 3.38382 10.0012C3.38382 13.6587 6.36322 16.6176 10.0002 16.6176C13.6575 16.6176 16.6167 13.6587 16.6167 10.0012C16.6167 6.34366 13.6578 3.38477 10.0002 3.38477ZM10.0002 15.9598C6.71267 15.9598 4.0413 13.2886 4.0413 10.0009C4.0413 6.71315 6.71254 4.04192 10.0002 4.04192C13.2878 4.04192 15.9592 6.71315 15.9592 10.0009C15.9591 13.2884 13.2879 15.9598 10.0002 15.9598Z" fill="#00A64F"/>
<path d="M9.89 9.59078C9.89 9.77745 9.845 9.95245 9.755 10.1158C9.66833 10.2791 9.53 10.4108 9.34 10.5108C9.15333 10.6108 8.91667 10.6608 8.63 10.6608H8.045V12.0008H7.345V8.51078H8.63C8.9 8.51078 9.13 8.55745 9.32 8.65078C9.51 8.74411 9.65167 8.87245 9.745 9.03578C9.84167 9.19911 9.89 9.38411 9.89 9.59078ZM8.6 10.0958C8.79333 10.0958 8.93667 10.0524 9.03 9.96578C9.12333 9.87578 9.17 9.75078 9.17 9.59078C9.17 9.25078 8.98 9.08078 8.6 9.08078H8.045V10.0958H8.6Z" fill="#00A64F"/>
<path d="M11.087 8.30078V12.0008H10.387V8.30078H11.087Z" fill="#00A64F"/>
<path d="M12.5936 9.80578V11.1458C12.5936 11.2391 12.6153 11.3074 12.6586 11.3508C12.7053 11.3908 12.7819 11.4108 12.8886 11.4108H13.2136V12.0008H12.7736C12.1836 12.0008 11.8886 11.7141 11.8886 11.1408V9.80578H11.5586V9.23078H11.8886V8.54578H12.5936V9.23078H13.2136V9.80578H12.5936Z" fill="#00A64F"/>
</svg>
