<svg width="20" height="20" viewBox="0 0 20 20" fill="none" xmlns="http://www.w3.org/2000/svg">
<path d="M4.67095 3.30984C4.4923 3.40065 4.44586 3.54595 4.44586 4.02909C4.44586 4.49406 4.48873 4.66479 4.63165 4.74834C4.69596 4.78466 5.21046 4.79919 7.12553 4.81372L9.53724 4.83552L9.8588 4.9336C10.4805 5.12976 11.0093 5.48939 11.388 5.97615C11.6059 6.25223 11.8953 6.80438 11.9346 7.0187L11.9597 7.13858H8.36175C4.37083 7.13858 4.59949 7.12405 4.49588 7.3747C4.42442 7.55632 4.42799 8.30464 4.50302 8.46447C4.61736 8.71512 4.40655 8.70059 8.37247 8.70059C11.5988 8.70059 11.9489 8.70785 11.9489 8.75871C11.9489 8.78777 11.8989 8.93671 11.8382 9.08564C11.5631 9.7613 11.0379 10.3389 10.409 10.6586C9.71588 11.0109 9.79448 11 7.20771 11.0218L4.95321 11.0436L4.796 11.1526C4.5852 11.3052 4.47087 11.5267 4.47087 11.7847C4.47087 12.1915 4.28865 12.0208 8.10093 15.1266C10.0124 16.6777 11.6167 17.9637 11.6631 17.9746C11.7131 17.9891 12.0954 18 12.5135 18C13.3602 18 13.4746 17.9782 13.571 17.7857C13.6389 17.6549 13.6425 17.5641 13.5889 17.4406C13.5639 17.3861 12.3134 16.3908 10.4733 14.9595L7.40422 12.5693L8.57613 12.5475C9.6873 12.5293 9.76947 12.5221 10.091 12.4349C11.2344 12.1225 12.1133 11.5195 12.7564 10.6004C13.0851 10.1318 13.4245 9.33992 13.5032 8.85316L13.5282 8.70059H14.9216C16.4722 8.70059 16.5008 8.69696 16.608 8.46447C16.683 8.30464 16.6866 7.55632 16.6151 7.3747C16.5187 7.13858 16.5044 7.13858 14.9395 7.13858H13.5317L13.5067 6.98238C13.4638 6.7172 13.2388 6.0815 13.0708 5.75456C12.9779 5.58383 12.8029 5.30049 12.6778 5.12613L12.4491 4.81372H14.3999C16.5616 4.81372 16.5151 4.81736 16.6151 4.57761C16.6866 4.39598 16.683 3.64767 16.608 3.48783C16.4901 3.23355 16.9403 3.25171 10.5484 3.25171C5.3891 3.25171 4.77456 3.25898 4.67095 3.30984Z" fill="#00A64F"/>
</svg>
