<svg width="25" height="24" viewBox="0 0 25 24" fill="none" xmlns="http://www.w3.org/2000/svg">
<path d="M12.375 2C6.864 2 2.375 6.489 2.375 12C2.375 17.511 6.864 22 12.375 22C17.886 22 22.375 17.511 22.375 12C22.375 6.489 17.886 2 12.375 2ZM12.375 4C16.8051 4 20.375 7.56988 20.375 12C20.375 13.8531 19.7443 15.5506 18.6934 16.9043L7.4707 5.68164C8.82444 4.63074 10.5219 4 12.375 4ZM6.05664 7.0957L17.2793 18.3184C15.9256 19.3693 14.2281 20 12.375 20C7.94488 20 4.375 16.4301 4.375 12C4.375 10.1469 5.00574 8.44944 6.05664 7.0957Z" fill="#FF5353"/>
</svg>
