<svg width="100" height="90" viewBox="0 0 100 90" fill="none" xmlns="http://www.w3.org/2000/svg">
<rect x="0.0410156" width="99" height="90" rx="24" fill="url(#paint0_linear_3455_7728)"/>
<path d="M39.3535 26.9688C33.8315 26.9688 29.3535 31.4007 29.3535 36.8687C29.3535 41.2827 31.1035 51.7587 48.3295 62.3487C48.6381 62.5365 48.9923 62.6358 49.3535 62.6358C49.7147 62.6358 50.069 62.5365 50.3775 62.3487C67.6035 51.7587 69.3535 41.2827 69.3535 36.8687C69.3535 31.4007 64.8755 26.9688 59.3535 26.9688C53.8315 26.9688 49.3535 32.9687 49.3535 32.9687C49.3535 32.9687 44.8755 26.9688 39.3535 26.9688Z" stroke="#4F5052" stroke-width="4" stroke-linecap="round" stroke-linejoin="round"/>
<defs>
<linearGradient id="paint0_linear_3455_7728" x1="5.51639" y1="7.38055" x2="78.4304" y2="96.918" gradientUnits="userSpaceOnUse">
<stop stop-color="#F9CF56" stop-opacity="0.52"/>
<stop offset="1" stop-color="#F9CF56"/>
</linearGradient>
</defs>
</svg>
