<svg width="143" height="75" viewBox="0 0 143 75" fill="none" xmlns="http://www.w3.org/2000/svg">
<path d="M134.116 36.2142H12.1141V74.7128H134.116V36.2142Z" fill="white"/>
<path d="M134.116 74.9366H12.1141C12.0547 74.9366 11.9978 74.9131 11.9558 74.8711C11.9138 74.8291 11.8902 74.7721 11.8902 74.7128V36.2052C11.8902 36.1458 11.9138 36.0889 11.9558 36.0469C11.9978 36.0049 12.0547 35.9813 12.1141 35.9813H134.116C134.175 35.9813 134.232 36.0049 134.274 36.0469C134.316 36.0889 134.34 36.1458 134.34 36.2052V74.7128C134.34 74.7721 134.316 74.8291 134.274 74.8711C134.232 74.9131 134.175 74.9366 134.116 74.9366ZM12.3245 74.4889H133.892V36.4291H12.338L12.3245 74.4889Z" fill="#666666"/>
<path d="M73.2785 1.08728L12.4366 36.2142H134.116L73.2785 1.08728Z" fill="#F4A259"/>
<path d="M134.116 36.4381H12.4364C12.3876 36.4376 12.3402 36.4211 12.3016 36.3912C12.263 36.3613 12.2352 36.3195 12.2225 36.2724C12.2098 36.2252 12.2129 36.1751 12.2313 36.1299C12.2498 36.0846 12.2825 36.0466 12.3245 36.0217L73.1664 0.89474C73.2005 0.87509 73.2391 0.864746 73.2784 0.864746C73.3177 0.864746 73.3563 0.87509 73.3903 0.89474L134.228 36.0262C134.271 36.0497 134.306 36.0873 134.325 36.1328C134.345 36.1783 134.348 36.2291 134.335 36.2769C134.321 36.3242 134.293 36.3656 134.253 36.3947C134.213 36.4238 134.165 36.4391 134.116 36.4381ZM13.2738 35.9904H133.274L73.2739 1.34698L13.2738 35.9904Z" fill="#666666"/>
<path d="M97.8382 33.0845H67.6456V74.7129H97.8382V33.0845Z" fill="white"/>
<path d="M97.8382 74.9367H67.6456C67.5862 74.9367 67.5292 74.9131 67.4873 74.8711C67.4453 74.8291 67.4217 74.7722 67.4217 74.7128V33.0709C67.4217 33.0116 67.4453 32.9546 67.4873 32.9126C67.5292 32.8706 67.5862 32.847 67.6456 32.847H97.8382C97.8972 32.8482 97.9535 32.8722 97.9952 32.9139C98.037 32.9556 98.0609 33.0119 98.0621 33.0709V74.7128C98.0621 74.7722 98.0385 74.8291 97.9965 74.8711C97.9545 74.9131 97.8976 74.9367 97.8382 74.9367ZM67.8695 74.4889H97.5964V33.2948H67.8695V74.4889Z" fill="#666666"/>
<path d="M97.8382 33.0845H67.6456V34.8531H97.8382V33.0845Z" fill="#666666"/>
<path d="M97.8382 35.0815H67.6456C67.5862 35.0815 67.5292 35.0579 67.4873 35.0159C67.4453 34.9739 67.4217 34.917 67.4217 34.8576V33.0665C67.4217 33.0072 67.4453 32.9502 67.4873 32.9082C67.5292 32.8662 67.5862 32.8427 67.6456 32.8427H97.8382C97.8972 32.8438 97.9535 32.8678 97.9952 32.9095C98.037 32.9512 98.0609 33.0075 98.0621 33.0665V34.8576C98.0609 34.9166 98.037 34.9729 97.9952 35.0146C97.9535 35.0564 97.8972 35.0803 97.8382 35.0815ZM67.8695 34.6337H97.5964V33.2904H67.8695V34.6337Z" fill="#666666"/>
<path d="M90.2799 74.7129H75.2083V48.6934C75.2077 47.7034 75.4021 46.723 75.7806 45.8082C76.159 44.8934 76.714 44.0621 77.4139 43.3619C78.1137 42.6616 78.9446 42.1061 79.8592 41.7271C80.7738 41.3481 81.7541 41.1531 82.7441 41.1531C84.7439 41.1531 86.6618 41.9475 88.0759 43.3616C89.49 44.7757 90.2844 46.6936 90.2844 48.6934L90.2799 74.7129Z" fill="#666666"/>
<path d="M90.2801 74.9368H75.2084C75.149 74.9368 75.0921 74.9132 75.0501 74.8712C75.0081 74.8292 74.9845 74.7723 74.9845 74.7129V48.6934C74.9597 47.6584 75.1421 46.6289 75.521 45.6654C75.8999 44.702 76.4676 43.824 77.1909 43.0832C77.9141 42.3424 78.7782 41.7537 79.7323 41.3518C80.6864 40.9499 81.7112 40.7428 82.7465 40.7428C83.7818 40.7428 84.8067 40.9499 85.7607 41.3518C86.7148 41.7537 87.5789 42.3424 88.3021 43.0832C89.0254 43.824 89.5931 44.702 89.972 45.6654C90.3509 46.6289 90.5333 47.6584 90.5085 48.6934V74.7129C90.5085 74.7427 90.5025 74.7722 90.491 74.7996C90.4795 74.8271 90.4626 74.852 90.4413 74.8728C90.4201 74.8937 90.3948 74.9101 90.3671 74.921C90.3395 74.932 90.3099 74.9374 90.2801 74.9368ZM75.4278 74.489H90.0562V48.6934C90.0804 47.7177 89.909 46.747 89.5523 45.8385C89.1956 44.9299 88.6607 44.102 87.9791 43.4033C87.2975 42.7047 86.4831 42.1495 85.5837 41.7704C84.6842 41.3913 83.7181 41.196 82.742 41.196C81.766 41.196 80.7998 41.3913 79.9004 41.7704C79.001 42.1495 78.1865 42.7047 77.5049 43.4033C76.8233 44.102 76.2884 44.9299 75.9317 45.8385C75.575 46.747 75.4037 47.7177 75.4278 48.6934V74.489Z" fill="#666666"/>
<path d="M73.2874 42.9575H3.35583V74.7128H73.2874V42.9575Z" fill="white"/>
<path d="M73.2874 74.9367H3.3559C3.29652 74.9367 3.23958 74.9131 3.19759 74.8711C3.15561 74.8291 3.13202 74.7722 3.13202 74.7128V42.9575C3.13202 42.8981 3.15561 42.8412 3.19759 42.7992C3.23958 42.7572 3.29652 42.7336 3.3559 42.7336H73.2874C73.3468 42.7336 73.4037 42.7572 73.4457 42.7992C73.4877 42.8412 73.5113 42.8981 73.5113 42.9575V74.7128C73.5113 74.7722 73.4877 74.8291 73.4457 74.8711C73.4037 74.9131 73.3468 74.9367 73.2874 74.9367ZM3.56635 74.4889H73.0635V43.1904H3.56635V74.4889Z" fill="#666666"/>
<path d="M73.2874 42.9575H3.35583V44.3725H73.2874V42.9575Z" fill="#666666"/>
<path d="M73.2874 44.5963H3.3559C3.29652 44.5963 3.23958 44.5728 3.19759 44.5308C3.15561 44.4888 3.13202 44.4318 3.13202 44.3725V42.9575C3.13202 42.8981 3.15561 42.8412 3.19759 42.7992C3.23958 42.7572 3.29652 42.7336 3.3559 42.7336H73.2874C73.3468 42.7336 73.4037 42.7572 73.4457 42.7992C73.4877 42.8412 73.5113 42.8981 73.5113 42.9575V44.3725C73.5113 44.4318 73.4877 44.4888 73.4457 44.5308C73.4037 44.5728 73.3468 44.5963 73.2874 44.5963ZM3.56635 44.1486H73.0635V43.1904H3.56635V44.1486Z" fill="#666666"/>
<path d="M65.5904 45.5769H11.0485V74.7128H65.5904V45.5769Z" fill="#F4A259"/>
<path d="M65.5905 74.9368H11.0485C10.9892 74.9368 10.9322 74.9132 10.8902 74.8712C10.8482 74.8292 10.8246 74.7723 10.8246 74.7129V45.577C10.8246 45.5177 10.8482 45.4607 10.8902 45.4187C10.9322 45.3767 10.9892 45.3531 11.0485 45.3531H65.5905C65.6498 45.3531 65.7068 45.3767 65.7488 45.4187C65.7907 45.4607 65.8143 45.5177 65.8143 45.577V74.7129C65.8143 74.7723 65.7907 74.8292 65.7488 74.8712C65.7068 74.9132 65.6498 74.9368 65.5905 74.9368ZM11.2724 74.489H65.3576V45.8009H11.2724V74.489Z" fill="#666666"/>
<path d="M38.3217 19.7231L1.20667 41.1531H75.4367L38.3217 19.7231Z" fill="#F4A259"/>
<path d="M75.4368 41.3994H1.20677C1.15791 41.3989 1.11055 41.3824 1.07193 41.3525C1.0333 41.3226 1.00553 41.2808 0.992844 41.2336C0.980159 41.1865 0.983261 41.1364 1.00167 41.0912C1.02009 41.0459 1.0528 41.0079 1.09483 40.983L38.2098 19.5531C38.2439 19.5334 38.2825 19.5231 38.3218 19.5231C38.3611 19.5231 38.3997 19.5334 38.4337 19.5531L75.5487 40.9516C75.5908 40.9766 75.6235 41.0146 75.6419 41.0598C75.6603 41.1051 75.6634 41.1551 75.6507 41.2023C75.638 41.2495 75.6103 41.2912 75.5716 41.3212C75.533 41.3511 75.4857 41.3675 75.4368 41.368V41.3994ZM2.04408 40.9516H74.5816L38.3128 20.0053L2.04408 40.9516Z" fill="#666666"/>
<path d="M75.4322 41.1531H1.20667V42.9576H75.4322V41.1531Z" fill="white"/>
<path d="M75.4367 43.1903H1.20667C1.14729 43.1903 1.09035 43.1668 1.04836 43.1248C1.00638 43.0828 0.982788 43.0258 0.982788 42.9665V41.1754C0.982788 41.116 1.00638 41.0591 1.04836 41.0171C1.09035 40.9751 1.14729 40.9515 1.20667 40.9515H75.4367C75.4961 40.9515 75.553 40.9751 75.595 41.0171C75.637 41.0591 75.6606 41.116 75.6606 41.1754V42.9665C75.6606 43.0258 75.637 43.0828 75.595 43.1248C75.553 43.1668 75.4961 43.1903 75.4367 43.1903ZM1.43055 42.7426H75.2083V41.3993H1.43055V42.7426Z" fill="#666666"/>
<path d="M82.7398 21.0038L63.5218 32.0993H101.962L82.7398 21.0038Z" fill="#F4A259"/>
<path d="M101.962 32.3232H63.5217C63.4719 32.3239 63.4233 32.308 63.3836 32.278C63.3439 32.248 63.3153 32.2056 63.3023 32.1576C63.2893 32.1098 63.2928 32.059 63.3124 32.0134C63.3319 31.9679 63.3662 31.9303 63.4098 31.9068L82.6278 20.8023C82.6624 20.7846 82.7008 20.7754 82.7397 20.7754C82.7786 20.7754 82.817 20.7846 82.8516 20.8023L102.074 31.9068C102.116 31.9317 102.149 31.9697 102.167 32.015C102.186 32.0603 102.189 32.1103 102.176 32.1575C102.163 32.2047 102.136 32.2464 102.097 32.2763C102.058 32.3063 102.011 32.3227 101.962 32.3232ZM64.3501 31.8755H101.12L82.7397 21.2501L64.3501 31.8755Z" fill="#666666"/>
<path d="M101.962 32.0994H63.5218V33.8815H101.962V32.0994Z" fill="white"/>
<path d="M101.962 34.1053H63.5217C63.4623 34.1053 63.4054 34.0817 63.3634 34.0397C63.3214 33.9977 63.2978 33.9408 63.2978 33.8814V32.0903C63.2978 32.031 63.3214 31.974 63.3634 31.932C63.4054 31.89 63.4623 31.8665 63.5217 31.8665H101.962C102.021 31.8665 102.078 31.89 102.12 31.932C102.162 31.974 102.186 32.031 102.186 32.0903V33.8814C102.186 33.9408 102.162 33.9977 102.12 34.0397C102.078 34.0817 102.021 34.1053 101.962 34.1053ZM63.7456 33.6575H101.738V32.3142H63.7456V33.6575Z" fill="#666666"/>
<path d="M17.4514 47.9188H13.0364V52.3338H17.4514V47.9188Z" fill="white"/>
<path d="M17.4469 52.5575H13.032C12.9726 52.5575 12.9157 52.5339 12.8737 52.492C12.8317 52.45 12.8081 52.393 12.8081 52.3336V47.9187C12.8081 47.8593 12.8317 47.8024 12.8737 47.7604C12.9157 47.7184 12.9726 47.6948 13.032 47.6948H17.4469C17.5063 47.6948 17.5632 47.7184 17.6052 47.7604C17.6472 47.8024 17.6708 47.8593 17.6708 47.9187V52.3336C17.6708 52.393 17.6472 52.45 17.6052 52.492C17.5632 52.5339 17.5063 52.5575 17.4469 52.5575ZM13.2559 52.1098H17.223V48.1426H13.2559V52.1098Z" fill="#666666"/>
<path d="M24.0783 47.9188H19.6634V52.3338H24.0783V47.9188Z" fill="white"/>
<path d="M24.0784 52.5575H19.6859C19.6265 52.5575 19.5695 52.5339 19.5276 52.492C19.4856 52.45 19.462 52.393 19.462 52.3336V47.9187C19.462 47.8593 19.4856 47.8024 19.5276 47.7604C19.5695 47.7184 19.6265 47.6948 19.6859 47.6948H24.1008C24.1602 47.6948 24.2171 47.7184 24.2591 47.7604C24.3011 47.8024 24.3247 47.8593 24.3247 47.9187V52.3336C24.3248 52.365 24.3184 52.3961 24.3058 52.4248C24.2931 52.4536 24.2746 52.4793 24.2514 52.5004C24.2282 52.5215 24.2008 52.5375 24.171 52.5474C24.1412 52.5572 24.1096 52.5607 24.0784 52.5575ZM19.8873 52.1098H23.8545V48.1426H19.8873V52.1098Z" fill="#666666"/>
<path d="M30.7006 47.9188H26.2857V52.3338H30.7006V47.9188Z" fill="white"/>
<path d="M30.7052 52.5575H26.2858C26.2265 52.5575 26.1695 52.5339 26.1275 52.492C26.0855 52.45 26.062 52.393 26.062 52.3336V47.9187C26.062 47.8593 26.0855 47.8024 26.1275 47.7604C26.1695 47.7184 26.2265 47.6948 26.2858 47.6948H30.7052C30.7646 47.6948 30.8216 47.7184 30.8635 47.7604C30.9055 47.8024 30.9291 47.8593 30.9291 47.9187V52.3336C30.9291 52.393 30.9055 52.45 30.8635 52.492C30.8216 52.5339 30.7646 52.5575 30.7052 52.5575ZM26.5097 52.1098H30.4814V48.1426H26.5097V52.1098Z" fill="#666666"/>
<path d="M37.3275 47.9188H32.9125V52.3338H37.3275V47.9188Z" fill="white"/>
<path d="M37.3322 52.5575H32.9128C32.8534 52.5575 32.7965 52.5339 32.7545 52.492C32.7125 52.45 32.6889 52.393 32.6889 52.3336V47.9187C32.6889 47.8593 32.7125 47.8024 32.7545 47.7604C32.7965 47.7184 32.8534 47.6948 32.9128 47.6948H37.3322C37.3916 47.6948 37.4485 47.7184 37.4905 47.7604C37.5325 47.8024 37.5561 47.8593 37.5561 47.9187V52.3336C37.5561 52.393 37.5325 52.45 37.4905 52.492C37.4485 52.5339 37.3916 52.5575 37.3322 52.5575ZM33.1367 52.1098H37.1083V48.1426H33.1188L33.1367 52.1098Z" fill="#666666"/>
<path d="M43.9544 47.9188H39.5395V52.3338H43.9544V47.9188Z" fill="white"/>
<path d="M43.9546 52.5575H39.5396C39.4802 52.5575 39.4233 52.5339 39.3813 52.492C39.3393 52.45 39.3157 52.393 39.3157 52.3336V47.9187C39.3157 47.8593 39.3393 47.8024 39.3813 47.7604C39.4233 47.7184 39.4802 47.6948 39.5396 47.6948H43.9546C44.0139 47.6948 44.0709 47.7184 44.1129 47.7604C44.1549 47.8024 44.1784 47.8593 44.1784 47.9187V52.3336C44.1784 52.393 44.1549 52.45 44.1129 52.492C44.0709 52.5339 44.0139 52.5575 43.9546 52.5575ZM39.7635 52.1098H43.7307V48.1426H39.7635V52.1098Z" fill="#666666"/>
<path d="M50.5769 47.9188H46.162V52.3338H50.5769V47.9188Z" fill="white"/>
<path d="M50.5813 52.5575H46.1619C46.1026 52.5575 46.0456 52.5339 46.0036 52.492C45.9616 52.45 45.938 52.393 45.938 52.3336V47.9187C45.938 47.8593 45.9616 47.8024 46.0036 47.7604C46.0456 47.7184 46.1026 47.6948 46.1619 47.6948H50.5813C50.6407 47.6948 50.6977 47.7184 50.7396 47.7604C50.7816 47.8024 50.8052 47.8593 50.8052 47.9187V52.3336C50.8052 52.393 50.7816 52.45 50.7396 52.492C50.6977 52.5339 50.6407 52.5575 50.5813 52.5575ZM46.3858 52.1098H50.3575V48.1426H46.3858V52.1098Z" fill="#666666"/>
<path d="M57.2038 47.9188H52.7888V52.3338H57.2038V47.9188Z" fill="white"/>
<path d="M57.2083 52.5575H52.7889C52.7295 52.5575 52.6726 52.5339 52.6306 52.492C52.5886 52.45 52.565 52.393 52.565 52.3336V47.9187C52.565 47.8593 52.5886 47.8024 52.6306 47.7604C52.6726 47.7184 52.7295 47.6948 52.7889 47.6948H57.2083C57.2677 47.6948 57.3246 47.7184 57.3666 47.7604C57.4086 47.8024 57.4322 47.8593 57.4322 47.9187V52.3336C57.4322 52.393 57.4086 52.45 57.3666 52.492C57.3246 52.5339 57.2677 52.5575 57.2083 52.5575ZM53.0128 52.1098H56.9844V48.1426H53.0128V52.1098Z" fill="#666666"/>
<path d="M63.8307 47.9188H59.4158V52.3338H63.8307V47.9188Z" fill="white"/>
<path d="M63.8307 52.5575H59.4157C59.3563 52.5575 59.2994 52.5339 59.2574 52.492C59.2154 52.45 59.1918 52.393 59.1918 52.3336V47.9187C59.1918 47.8593 59.2154 47.8024 59.2574 47.7604C59.2994 47.7184 59.3563 47.6948 59.4157 47.6948H63.8307C63.89 47.6948 63.947 47.7184 63.989 47.7604C64.0309 47.8024 64.0545 47.8593 64.0545 47.9187V52.3336C64.0545 52.363 64.0487 52.3922 64.0375 52.4193C64.0262 52.4465 64.0098 52.4712 63.989 52.492C63.9682 52.5127 63.9435 52.5292 63.9163 52.5405C63.8892 52.5517 63.8601 52.5575 63.8307 52.5575ZM59.6396 52.1098H63.6068V48.1426H59.6396V52.1098Z" fill="#666666"/>
<path d="M17.4514 54.4203H13.0364V58.8352H17.4514V54.4203Z" fill="white"/>
<path d="M17.4469 59.0591H13.032C12.9726 59.0591 12.9157 59.0355 12.8737 58.9935C12.8317 58.9516 12.8081 58.8946 12.8081 58.8352V54.4203C12.8081 54.3609 12.8317 54.304 12.8737 54.262C12.9157 54.22 12.9726 54.1964 13.032 54.1964H17.4469C17.5063 54.1964 17.5632 54.22 17.6052 54.262C17.6472 54.304 17.6708 54.3609 17.6708 54.4203V58.8352C17.6708 58.8946 17.6472 58.9516 17.6052 58.9935C17.5632 59.0355 17.5063 59.0591 17.4469 59.0591ZM13.2559 58.6114H17.223V54.6442H13.2559V58.6114Z" fill="#666666"/>
<path d="M24.0783 54.4203H19.6634V58.8352H24.0783V54.4203Z" fill="white"/>
<path d="M24.0784 59.0591H19.6859C19.6265 59.0591 19.5695 59.0355 19.5276 58.9935C19.4856 58.9516 19.462 58.8946 19.462 58.8352V54.4203C19.462 54.3609 19.4856 54.304 19.5276 54.262C19.5695 54.22 19.6265 54.1964 19.6859 54.1964H24.1008C24.1602 54.1964 24.2171 54.22 24.2591 54.262C24.3011 54.304 24.3247 54.3609 24.3247 54.4203V58.8352C24.3248 58.8666 24.3184 58.8977 24.3058 58.9264C24.2931 58.9552 24.2746 58.9809 24.2514 59.002C24.2282 59.0231 24.2008 59.0391 24.171 59.049C24.1412 59.0588 24.1096 59.0623 24.0784 59.0591ZM19.8873 58.6114H23.8545V54.6442H19.8873V58.6114Z" fill="#666666"/>
<path d="M30.7006 54.4203H26.2857V58.8352H30.7006V54.4203Z" fill="white"/>
<path d="M30.7052 59.0591H26.2858C26.2265 59.0591 26.1695 59.0355 26.1275 58.9935C26.0855 58.9516 26.062 58.8946 26.062 58.8352V54.4203C26.062 54.3609 26.0855 54.304 26.1275 54.262C26.1695 54.22 26.2265 54.1964 26.2858 54.1964H30.7052C30.7646 54.1964 30.8216 54.22 30.8635 54.262C30.9055 54.304 30.9291 54.3609 30.9291 54.4203V58.8352C30.9291 58.8946 30.9055 58.9516 30.8635 58.9935C30.8216 59.0355 30.7646 59.0591 30.7052 59.0591ZM26.5097 58.6114H30.4814V54.6442H26.5097V58.6114Z" fill="#666666"/>
<path d="M37.3275 54.4203H32.9125V58.8352H37.3275V54.4203Z" fill="white"/>
<path d="M37.3322 59.0591H32.9128C32.8534 59.0591 32.7965 59.0355 32.7545 58.9935C32.7125 58.9516 32.6889 58.8946 32.6889 58.8352V54.4203C32.6889 54.3609 32.7125 54.304 32.7545 54.262C32.7965 54.22 32.8534 54.1964 32.9128 54.1964H37.3322C37.3916 54.1964 37.4485 54.22 37.4905 54.262C37.5325 54.304 37.5561 54.3609 37.5561 54.4203V58.8352C37.5561 58.8946 37.5325 58.9516 37.4905 58.9935C37.4485 59.0355 37.3916 59.0591 37.3322 59.0591ZM33.1367 58.6114H37.1083V54.6442H33.1188L33.1367 58.6114Z" fill="#666666"/>
<path d="M43.9544 54.4203H39.5395V58.8352H43.9544V54.4203Z" fill="white"/>
<path d="M43.9546 59.0591H39.5396C39.4802 59.0591 39.4233 59.0355 39.3813 58.9935C39.3393 58.9516 39.3157 58.8946 39.3157 58.8352V54.4203C39.3157 54.3609 39.3393 54.304 39.3813 54.262C39.4233 54.22 39.4802 54.1964 39.5396 54.1964H43.9546C44.0139 54.1964 44.0709 54.22 44.1129 54.262C44.1549 54.304 44.1784 54.3609 44.1784 54.4203V58.8352C44.1784 58.8946 44.1549 58.9516 44.1129 58.9935C44.0709 59.0355 44.0139 59.0591 43.9546 59.0591ZM39.7635 58.6114H43.7307V54.6442H39.7635V58.6114Z" fill="#666666"/>
<path d="M50.5769 54.4203H46.162V58.8352H50.5769V54.4203Z" fill="white"/>
<path d="M50.5813 59.0591H46.1619C46.1026 59.0591 46.0456 59.0355 46.0036 58.9935C45.9616 58.9516 45.938 58.8946 45.938 58.8352V54.4203C45.938 54.3609 45.9616 54.304 46.0036 54.262C46.0456 54.22 46.1026 54.1964 46.1619 54.1964H50.5813C50.6407 54.1964 50.6977 54.22 50.7396 54.262C50.7816 54.304 50.8052 54.3609 50.8052 54.4203V58.8352C50.8052 58.8946 50.7816 58.9516 50.7396 58.9935C50.6977 59.0355 50.6407 59.0591 50.5813 59.0591ZM46.3858 58.6114H50.3575V54.6442H46.3858V58.6114Z" fill="#666666"/>
<path d="M57.2038 54.4203H52.7888V58.8352H57.2038V54.4203Z" fill="white"/>
<path d="M57.2083 59.0591H52.7889C52.7295 59.0591 52.6726 59.0355 52.6306 58.9935C52.5886 58.9516 52.565 58.8946 52.565 58.8352V54.4203C52.565 54.3609 52.5886 54.304 52.6306 54.262C52.6726 54.22 52.7295 54.1964 52.7889 54.1964H57.2083C57.2677 54.1964 57.3246 54.22 57.3666 54.262C57.4086 54.304 57.4322 54.3609 57.4322 54.4203V58.8352C57.4322 58.8946 57.4086 58.9516 57.3666 58.9935C57.3246 59.0355 57.2677 59.0591 57.2083 59.0591ZM53.0128 58.6114H56.9844V54.6442H53.0128V58.6114Z" fill="#666666"/>
<path d="M63.8307 54.4203H59.4158V58.8352H63.8307V54.4203Z" fill="white"/>
<path d="M63.8307 59.0591H59.4157C59.3563 59.0591 59.2994 59.0355 59.2574 58.9935C59.2154 58.9516 59.1918 58.8946 59.1918 58.8352V54.4203C59.1918 54.3609 59.2154 54.304 59.2574 54.262C59.2994 54.22 59.3563 54.1964 59.4157 54.1964H63.8307C63.89 54.1964 63.947 54.22 63.989 54.262C64.0309 54.304 64.0545 54.3609 64.0545 54.4203V58.8352C64.0545 58.8646 64.0487 58.8938 64.0375 58.9209C64.0262 58.9481 64.0098 58.9728 63.989 58.9935C63.9682 59.0143 63.9435 59.0308 63.9163 59.0421C63.8892 59.0533 63.8601 59.0591 63.8307 59.0591ZM59.6396 58.6114H63.6068V54.6442H59.6396V58.6114Z" fill="#666666"/>
<path d="M17.4514 60.9174H13.0364V65.3323H17.4514V60.9174Z" fill="white"/>
<path d="M17.4469 65.5785H13.032C12.9726 65.5785 12.9157 65.5549 12.8737 65.5129C12.8317 65.4709 12.8081 65.414 12.8081 65.3546V60.9352C12.8081 60.8758 12.8317 60.8189 12.8737 60.7769C12.9157 60.7349 12.9726 60.7113 13.032 60.7113H17.4469C17.5063 60.7113 17.5632 60.7349 17.6052 60.7769C17.6472 60.8189 17.6708 60.8758 17.6708 60.9352V65.3546C17.6708 65.414 17.6472 65.4709 17.6052 65.5129C17.5632 65.5549 17.5063 65.5785 17.4469 65.5785ZM13.2559 65.1307H17.223V61.1591H13.2559V65.1307Z" fill="#666666"/>
<path d="M24.0783 60.9174H19.6634V65.3323H24.0783V60.9174Z" fill="white"/>
<path d="M24.0784 65.5785H19.6859C19.6265 65.5785 19.5695 65.5549 19.5276 65.5129C19.4856 65.4709 19.462 65.414 19.462 65.3546V60.9352C19.462 60.8758 19.4856 60.8189 19.5276 60.7769C19.5695 60.7349 19.6265 60.7113 19.6859 60.7113H24.1008C24.1602 60.7113 24.2171 60.7349 24.2591 60.7769C24.3011 60.8189 24.3247 60.8758 24.3247 60.9352V65.3546C24.3248 65.386 24.3184 65.417 24.3058 65.4458C24.2931 65.4745 24.2746 65.5003 24.2514 65.5214C24.2282 65.5425 24.2008 65.5585 24.171 65.5683C24.1412 65.5782 24.1096 65.5816 24.0784 65.5785ZM19.8873 65.1307H23.8545V61.1591H19.8873V65.1307Z" fill="#666666"/>
<path d="M30.7006 60.9174H26.2857V65.3323H30.7006V60.9174Z" fill="white"/>
<path d="M30.7052 65.5785H26.2858C26.2268 65.5773 26.1705 65.5534 26.1288 65.5116C26.0871 65.4699 26.0631 65.4136 26.062 65.3546V60.9352C26.062 60.8758 26.0855 60.8189 26.1275 60.7769C26.1695 60.7349 26.2265 60.7113 26.2858 60.7113H30.7052C30.7646 60.7113 30.8216 60.7349 30.8635 60.7769C30.9055 60.8189 30.9291 60.8758 30.9291 60.9352V65.3546C30.9291 65.414 30.9055 65.4709 30.8635 65.5129C30.8216 65.5549 30.7646 65.5785 30.7052 65.5785ZM26.5097 65.1307H30.4814V61.1591H26.5097V65.1307Z" fill="#666666"/>
<path d="M37.3275 60.9174H32.9125V65.3323H37.3275V60.9174Z" fill="white"/>
<path d="M37.3322 65.5785H32.9128C32.8534 65.5785 32.7965 65.5549 32.7545 65.5129C32.7125 65.4709 32.6889 65.414 32.6889 65.3546V60.9352C32.6889 60.8758 32.7125 60.8189 32.7545 60.7769C32.7965 60.7349 32.8534 60.7113 32.9128 60.7113H37.3322C37.3916 60.7113 37.4485 60.7349 37.4905 60.7769C37.5325 60.8189 37.5561 60.8758 37.5561 60.9352V65.3546C37.5549 65.4136 37.531 65.4699 37.4892 65.5116C37.4475 65.5534 37.3912 65.5773 37.3322 65.5785ZM33.1188 65.1307H37.0904V61.1591H33.1188V65.1307Z" fill="#666666"/>
<path d="M43.9544 60.9174H39.5395V65.3323H43.9544V60.9174Z" fill="white"/>
<path d="M43.9546 65.5785H39.5396C39.4802 65.5785 39.4233 65.5549 39.3813 65.5129C39.3393 65.4709 39.3157 65.414 39.3157 65.3546V60.9352C39.3157 60.8758 39.3393 60.8189 39.3813 60.7769C39.4233 60.7349 39.4802 60.7113 39.5396 60.7113H43.9546C44.0139 60.7113 44.0709 60.7349 44.1129 60.7769C44.1549 60.8189 44.1784 60.8758 44.1784 60.9352V65.3546C44.1784 65.414 44.1549 65.4709 44.1129 65.5129C44.0709 65.5549 44.0139 65.5785 43.9546 65.5785ZM39.7635 65.1307H43.7307V61.1591H39.7635V65.1307Z" fill="#666666"/>
<path d="M50.5769 60.9174H46.162V65.3323H50.5769V60.9174Z" fill="white"/>
<path d="M50.5813 65.5785H46.1619C46.1029 65.5773 46.0466 65.5534 46.0049 65.5116C45.9631 65.4699 45.9392 65.4136 45.938 65.3546V60.9352C45.938 60.8758 45.9616 60.8189 46.0036 60.7769C46.0456 60.7349 46.1026 60.7113 46.1619 60.7113H50.5813C50.6407 60.7113 50.6977 60.7349 50.7396 60.7769C50.7816 60.8189 50.8052 60.8758 50.8052 60.9352V65.3546C50.8052 65.414 50.7816 65.4709 50.7396 65.5129C50.6977 65.5549 50.6407 65.5785 50.5813 65.5785ZM46.3858 65.1307H50.3575V61.1591H46.3858V65.1307Z" fill="#666666"/>
<path d="M57.2038 60.9174H52.7888V65.3323H57.2038V60.9174Z" fill="white"/>
<path d="M57.2083 65.5785H52.7889C52.7299 65.5773 52.6736 65.5534 52.6318 65.5116C52.5901 65.4699 52.5661 65.4136 52.565 65.3546V60.9352C52.565 60.8758 52.5886 60.8189 52.6306 60.7769C52.6726 60.7349 52.7295 60.7113 52.7889 60.7113H57.2083C57.2677 60.7113 57.3246 60.7349 57.3666 60.7769C57.4086 60.8189 57.4322 60.8758 57.4322 60.9352V65.3546C57.431 65.4136 57.4071 65.4699 57.3653 65.5116C57.3236 65.5534 57.2673 65.5773 57.2083 65.5785ZM53.0128 65.1307H56.9844V61.1591H53.0128V65.1307Z" fill="#666666"/>
<path d="M63.8307 60.9174H59.4158V65.3323H63.8307V60.9174Z" fill="white"/>
<path d="M63.8307 65.5785H59.4157C59.3563 65.5785 59.2994 65.5549 59.2574 65.5129C59.2154 65.4709 59.1918 65.414 59.1918 65.3546V60.9352C59.1918 60.8758 59.2154 60.8189 59.2574 60.7769C59.2994 60.7349 59.3563 60.7113 59.4157 60.7113H63.8307C63.89 60.7113 63.947 60.7349 63.989 60.7769C64.0309 60.8189 64.0545 60.8758 64.0545 60.9352V65.3546C64.0545 65.384 64.0487 65.4131 64.0375 65.4403C64.0262 65.4674 64.0098 65.4921 63.989 65.5129C63.9682 65.5337 63.9435 65.5502 63.9163 65.5614C63.8892 65.5727 63.8601 65.5785 63.8307 65.5785ZM59.6396 65.1307H63.6068V61.1591H59.6396V65.1307Z" fill="#666666"/>
<path d="M17.4514 67.4188H13.0364V71.8338H17.4514V67.4188Z" fill="white"/>
<path d="M17.4469 72.0577H13.032C12.9726 72.0577 12.9157 72.0341 12.8737 71.9921C12.8317 71.9501 12.8081 71.8931 12.8081 71.8338V67.4188C12.8081 67.3595 12.8317 67.3025 12.8737 67.2605C12.9157 67.2185 12.9726 67.1949 13.032 67.1949H17.4469C17.5063 67.1949 17.5632 67.2185 17.6052 67.2605C17.6472 67.3025 17.6708 67.3595 17.6708 67.4188V71.8472C17.6674 71.9042 17.6423 71.9578 17.6007 71.9969C17.559 72.036 17.504 72.0578 17.4469 72.0577ZM13.2559 71.6099H17.223V67.6427H13.2559V71.6099Z" fill="#666666"/>
<path d="M24.0783 67.4188H19.6634V71.8338H24.0783V67.4188Z" fill="white"/>
<path d="M24.0784 72.0577H19.6859C19.6265 72.0577 19.5695 72.0341 19.5276 71.9921C19.4856 71.9501 19.462 71.8931 19.462 71.8338V67.4188C19.462 67.3595 19.4856 67.3025 19.5276 67.2605C19.5695 67.2185 19.6265 67.1949 19.6859 67.1949H24.1008C24.1602 67.1949 24.2171 67.2185 24.2591 67.2605C24.3011 67.3025 24.3247 67.3595 24.3247 67.4188V71.8472C24.323 71.8774 24.3152 71.907 24.3018 71.9342C24.2884 71.9613 24.2696 71.9855 24.2466 72.0051C24.2236 72.0248 24.1968 72.0396 24.1679 72.0486C24.139 72.0577 24.1085 72.0607 24.0784 72.0577ZM19.8873 71.6099H23.8545V67.6427H19.8873V71.6099Z" fill="#666666"/>
<path d="M30.7006 67.4188H26.2857V71.8338H30.7006V67.4188Z" fill="white"/>
<path d="M30.7052 72.0577H26.2858C26.2265 72.0577 26.1695 72.0341 26.1275 71.9921C26.0855 71.9501 26.062 71.8931 26.062 71.8338V67.4188C26.062 67.3595 26.0855 67.3025 26.1275 67.2605C26.1695 67.2185 26.2265 67.1949 26.2858 67.1949H30.7052C30.7646 67.1949 30.8216 67.2185 30.8635 67.2605C30.9055 67.3025 30.9291 67.3595 30.9291 67.4188V71.8472C30.9257 71.9042 30.9006 71.9578 30.859 71.9969C30.8174 72.036 30.7624 72.0578 30.7052 72.0577ZM26.5097 71.6099H30.4814V67.6427H26.5097V71.6099Z" fill="#666666"/>
<path d="M37.3275 67.4188H32.9125V71.8338H37.3275V67.4188Z" fill="white"/>
<path d="M37.3322 72.0577H32.9128C32.8534 72.0577 32.7965 72.0341 32.7545 71.9921C32.7125 71.9501 32.6889 71.8931 32.6889 71.8338V67.4188C32.6889 67.3595 32.7125 67.3025 32.7545 67.2605C32.7965 67.2185 32.8534 67.1949 32.9128 67.1949H37.3322C37.3916 67.1949 37.4485 67.2185 37.4905 67.2605C37.5325 67.3025 37.5561 67.3595 37.5561 67.4188V71.8472C37.5527 71.9042 37.5276 71.9578 37.4859 71.9969C37.4443 72.036 37.3893 72.0578 37.3322 72.0577ZM33.1367 71.6099H37.1083V67.6427H33.1188L33.1367 71.6099Z" fill="#666666"/>
<path d="M43.9544 67.4188H39.5395V71.8338H43.9544V67.4188Z" fill="white"/>
<path d="M43.9546 72.0577H39.5396C39.4802 72.0577 39.4233 72.0341 39.3813 71.9921C39.3393 71.9501 39.3157 71.8931 39.3157 71.8338V67.4188C39.3157 67.3595 39.3393 67.3025 39.3813 67.2605C39.4233 67.2185 39.4802 67.1949 39.5396 67.1949H43.9546C44.0139 67.1949 44.0709 67.2185 44.1129 67.2605C44.1549 67.3025 44.1784 67.3595 44.1784 67.4188V71.8472C44.175 71.9042 44.1499 71.9578 44.1083 71.9969C44.0667 72.036 44.0117 72.0578 43.9546 72.0577ZM39.7635 71.6099H43.7307V67.6427H39.7635V71.6099Z" fill="#666666"/>
<path d="M50.5769 67.4188H46.162V71.8338H50.5769V67.4188Z" fill="white"/>
<path d="M50.5813 72.0577H46.1619C46.1026 72.0577 46.0456 72.0341 46.0036 71.9921C45.9616 71.9501 45.938 71.8931 45.938 71.8338V67.4188C45.938 67.3595 45.9616 67.3025 46.0036 67.2605C46.0456 67.2185 46.1026 67.1949 46.1619 67.1949H50.5813C50.6407 67.1949 50.6977 67.2185 50.7396 67.2605C50.7816 67.3025 50.8052 67.3595 50.8052 67.4188V71.8472C50.8018 71.9042 50.7767 71.9578 50.7351 71.9969C50.6935 72.036 50.6385 72.0578 50.5813 72.0577ZM46.3858 71.6099H50.3575V67.6427H46.3858V71.6099Z" fill="#666666"/>
<path d="M57.2038 67.4188H52.7888V71.8338H57.2038V67.4188Z" fill="white"/>
<path d="M57.2083 72.0577H52.7889C52.7295 72.0577 52.6726 72.0341 52.6306 71.9921C52.5886 71.9501 52.565 71.8931 52.565 71.8338V67.4188C52.565 67.3595 52.5886 67.3025 52.6306 67.2605C52.6726 67.2185 52.7295 67.1949 52.7889 67.1949H57.2083C57.2677 67.1949 57.3246 67.2185 57.3666 67.2605C57.4086 67.3025 57.4322 67.3595 57.4322 67.4188V71.8472C57.4288 71.9042 57.4037 71.9578 57.362 71.9969C57.3204 72.036 57.2654 72.0578 57.2083 72.0577ZM53.0128 71.6099H56.9844V67.6427H53.0128V71.6099Z" fill="#666666"/>
<path d="M63.8307 67.4188H59.4158V71.8338H63.8307V67.4188Z" fill="white"/>
<path d="M63.8307 72.0577H59.4157C59.3563 72.0577 59.2994 72.0341 59.2574 71.9921C59.2154 71.9501 59.1918 71.8931 59.1918 71.8338V67.4188C59.1918 67.3595 59.2154 67.3025 59.2574 67.2605C59.2994 67.2185 59.3563 67.1949 59.4157 67.1949H63.8307C63.89 67.1949 63.947 67.2185 63.989 67.2605C64.0309 67.3025 64.0545 67.3595 64.0545 67.4188V71.8472C64.0511 71.9042 64.026 71.9578 63.9844 71.9969C63.9428 72.036 63.8878 72.0578 63.8307 72.0577ZM59.6396 71.6099H63.6068V67.6427H59.6396V71.6099Z" fill="#666666"/>
<path d="M78.2441 74.9367C78.1847 74.9367 78.1278 74.9131 78.0858 74.8711C78.0438 74.8292 78.0202 74.7722 78.0202 74.7128V70.0919C78.0202 70.0325 78.0438 69.9756 78.0858 69.9336C78.1278 69.8916 78.1847 69.868 78.2441 69.868C78.3035 69.868 78.3604 69.8916 78.4024 69.9336C78.4444 69.9756 78.468 70.0325 78.468 70.0919V74.7128C78.468 74.7722 78.4444 74.8292 78.4024 74.8711C78.3604 74.9131 78.3035 74.9367 78.2441 74.9367Z" fill="white"/>
<path d="M86.3622 74.7127V50.1261H78.2443V68.0545" fill="#666666"/>
<path d="M86.362 74.9367C86.3026 74.9367 86.2457 74.9131 86.2037 74.8711C86.1617 74.8291 86.1381 74.7722 86.1381 74.7128V50.3545H78.468V68.0591C78.468 68.1184 78.4444 68.1754 78.4024 68.2174C78.3604 68.2593 78.3035 68.2829 78.2441 68.2829C78.1847 68.2829 78.1278 68.2593 78.0858 68.2174C78.0438 68.1754 78.0202 68.1184 78.0202 68.0591V50.1486C78.0213 50.0895 78.0453 50.0333 78.087 49.9915C78.1288 49.9498 78.1851 49.9258 78.2441 49.9247H86.362C86.421 49.9258 86.4773 49.9498 86.5191 49.9915C86.5608 50.0333 86.5848 50.0895 86.5859 50.1486V74.7128C86.5859 74.7722 86.5623 74.8291 86.5203 74.8711C86.4783 74.9131 86.4214 74.9367 86.362 74.9367Z" fill="white"/>
<path d="M137.577 74.7129H92.9711V33.0844L115.274 21.0038L137.577 33.0844V74.7129Z" fill="white"/>
<path d="M137.577 74.9367H92.9711C92.9117 74.9367 92.8547 74.9131 92.8128 74.8711C92.7708 74.8291 92.7472 74.7722 92.7472 74.7128V33.0709C92.7475 33.0307 92.7585 32.9914 92.7789 32.9568C92.7994 32.9222 92.8286 32.8936 92.8636 32.8739L115.167 20.7843C115.2 20.7667 115.237 20.7574 115.274 20.7574C115.312 20.7574 115.349 20.7667 115.382 20.7843L137.685 32.8739C137.72 32.8936 137.749 32.9222 137.769 32.9568C137.79 32.9914 137.801 33.0307 137.801 33.0709V74.7128C137.801 74.7722 137.777 74.8291 137.735 74.8711C137.693 74.9131 137.637 74.9367 137.577 74.9367ZM93.195 74.4889H137.353V33.2187L115.274 21.25L93.195 33.2097V74.4889Z" fill="#666666"/>
<path d="M140.985 34.8575L115.274 20.9276L89.5635 34.8575L88.762 33.3798L115.274 19.0156L141.786 33.3798L140.985 34.8575Z" fill="white"/>
<path d="M140.985 35.0814C140.949 35.0817 140.913 35.0724 140.882 35.0546L115.274 21.1739L89.6666 35.0546C89.6117 35.0748 89.5514 35.0748 89.4965 35.0546C89.4403 35.0355 89.3937 34.9954 89.3666 34.9426L88.5651 33.4695C88.5509 33.4436 88.542 33.4152 88.5388 33.3859C88.5357 33.3566 88.5383 33.3269 88.5466 33.2986C88.555 33.2703 88.5688 33.244 88.5873 33.221C88.6059 33.1981 88.6288 33.1791 88.6547 33.165L115.167 18.8008C115.2 18.7832 115.237 18.7739 115.274 18.7739C115.312 18.7739 115.349 18.7832 115.382 18.8008L141.894 33.165C141.945 33.1944 141.984 33.2425 142.001 33.2993C142.023 33.3539 142.023 33.4149 142.001 33.4695L141.2 34.9426C141.182 34.9849 141.152 35.0209 141.114 35.0458C141.075 35.0706 141.03 35.083 140.985 35.0814ZM115.274 20.7038C115.312 20.7041 115.348 20.7133 115.382 20.7306L140.904 34.5531L141.491 33.4695L115.283 19.2709L89.089 33.4695L89.6756 34.5531L115.198 20.7306C115.222 20.7174 115.247 20.7083 115.274 20.7038Z" fill="#666666"/>
<path d="M92.9711 33.0844V34.0964L115.274 22.0157L137.577 34.0964V33.0844L115.274 21.0038L92.9711 33.0844Z" fill="#666666"/>
<path d="M137.577 34.3202C137.54 34.3198 137.503 34.3106 137.47 34.2933L115.274 22.2709L93.0786 34.2933C93.0454 34.313 93.0075 34.3234 92.9689 34.3234C92.9303 34.3234 92.8924 34.313 92.8592 34.2933C92.8247 34.2745 92.796 34.2466 92.7763 34.2127C92.7566 34.1788 92.7465 34.1401 92.7472 34.1008V33.0889C92.7476 33.0487 92.7585 33.0093 92.779 32.9747C92.7994 32.9401 92.8286 32.9115 92.8636 32.8918L115.167 20.8023C115.2 20.7846 115.237 20.7754 115.274 20.7754C115.312 20.7754 115.349 20.7846 115.382 20.8023L137.685 32.8918C137.72 32.9115 137.749 32.9401 137.769 32.9747C137.79 33.0093 137.801 33.0487 137.801 33.0889V34.1008C137.801 34.1394 137.792 34.1775 137.773 34.2112C137.754 34.245 137.727 34.2732 137.694 34.2933C137.658 34.3131 137.618 34.3224 137.577 34.3202ZM115.274 21.7829C115.312 21.7832 115.348 21.7924 115.382 21.8097L137.353 33.7112V33.2098L115.274 21.25L93.195 33.2098V33.7112L115.167 21.8097C115.201 21.7955 115.237 21.7894 115.274 21.7918V21.7829Z" fill="#666666"/>
<path d="M105.517 43.195V38.8069H124.762V60.6801" fill="white"/>
<path d="M124.762 60.9039C124.703 60.9039 124.646 60.8803 124.604 60.8383C124.562 60.7964 124.538 60.7394 124.538 60.68V39.0307H105.732V43.1904C105.732 43.2498 105.709 43.3068 105.667 43.3487C105.625 43.3907 105.568 43.4143 105.508 43.4143C105.449 43.4143 105.392 43.3907 105.35 43.3487C105.308 43.3068 105.284 43.2498 105.284 43.1904V38.8024C105.284 38.743 105.308 38.6861 105.35 38.6441C105.392 38.6021 105.449 38.5785 105.508 38.5785H124.762C124.821 38.5785 124.878 38.6021 124.92 38.6441C124.962 38.6861 124.986 38.743 124.986 38.8024V60.6756C124.987 60.7053 124.981 60.7349 124.97 60.7626C124.959 60.7903 124.943 60.8155 124.922 60.8368C124.901 60.858 124.876 60.8749 124.849 60.8865C124.821 60.898 124.792 60.9039 124.762 60.9039Z" fill="#666666"/>
<path d="M124.762 62.9412V67.2486H105.517V44.865" fill="white"/>
<path d="M124.762 67.4725H105.508C105.449 67.4725 105.392 67.4489 105.35 67.4069C105.308 67.3649 105.284 67.308 105.284 67.2486V44.8605C105.284 44.8011 105.308 44.7441 105.35 44.7022C105.392 44.6602 105.449 44.6366 105.508 44.6366C105.568 44.6366 105.625 44.6602 105.667 44.7022C105.709 44.7441 105.732 44.8011 105.732 44.8605V67.0202H124.538V62.9366C124.538 62.8773 124.562 62.8203 124.604 62.7783C124.646 62.7364 124.703 62.7128 124.762 62.7128C124.821 62.7128 124.878 62.7364 124.92 62.7783C124.962 62.8203 124.986 62.8773 124.986 62.9366V67.2441C124.986 67.3039 124.963 67.3613 124.921 67.404C124.879 67.4467 124.822 67.4713 124.762 67.4725Z" fill="#666666"/>
<path d="M123.482 47.3545H115.995V52.5575H123.482V47.3545Z" fill="#666666"/>
<path d="M123.477 52.7815H115.995C115.936 52.7815 115.879 52.7579 115.837 52.7159C115.795 52.6739 115.771 52.617 115.771 52.5576V47.3546C115.771 47.2952 115.795 47.2383 115.837 47.1963C115.879 47.1543 115.936 47.1307 115.995 47.1307H123.477C123.537 47.1307 123.594 47.1543 123.636 47.1963C123.678 47.2383 123.701 47.2952 123.701 47.3546V52.5576C123.701 52.617 123.678 52.6739 123.636 52.7159C123.594 52.7579 123.537 52.7815 123.477 52.7815ZM116.219 52.3337H123.253V47.5785H116.219V52.3337Z" fill="#666666"/>
<path d="M123.482 54.2679H115.995V59.4709H123.482V54.2679Z" fill="#666666"/>
<path d="M123.477 59.6905H115.995C115.936 59.6905 115.879 59.6669 115.837 59.6249C115.795 59.5829 115.771 59.526 115.771 59.4666V54.2681C115.771 54.2087 115.795 54.1518 115.837 54.1098C115.879 54.0678 115.936 54.0442 115.995 54.0442H123.477C123.537 54.0442 123.594 54.0678 123.636 54.1098C123.678 54.1518 123.701 54.2087 123.701 54.2681V59.4666C123.701 59.526 123.678 59.5829 123.636 59.6249C123.594 59.6669 123.537 59.6905 123.477 59.6905ZM116.219 59.2427H123.253V54.492H116.219V59.2427Z" fill="#666666"/>
<path d="M123.482 40.0874H115.995V45.6397H123.482V40.0874Z" fill="#666666"/>
<path d="M123.477 45.8768H115.995C115.936 45.8768 115.879 45.8533 115.837 45.8113C115.795 45.7693 115.771 45.7123 115.771 45.653V40.0873C115.771 40.0279 115.795 39.971 115.837 39.929C115.879 39.887 115.936 39.8634 115.995 39.8634H123.477C123.537 39.8634 123.594 39.887 123.636 39.929C123.678 39.971 123.701 40.0279 123.701 40.0873V45.644C123.702 45.6742 123.697 45.7042 123.687 45.7324C123.676 45.7606 123.66 45.7864 123.639 45.8081C123.618 45.8299 123.593 45.8472 123.565 45.859C123.537 45.8708 123.507 45.8769 123.477 45.8768ZM116.219 45.4291H123.253V40.3112H116.219V45.4291Z" fill="#666666"/>
<path d="M114.284 40.0874H106.798V45.6397H114.284V40.0874Z" fill="#666666"/>
<path d="M114.285 45.8768H106.798C106.739 45.8768 106.682 45.8533 106.64 45.8113C106.598 45.7693 106.574 45.7123 106.574 45.653V40.0873C106.574 40.0279 106.598 39.971 106.64 39.929C106.682 39.887 106.739 39.8634 106.798 39.8634H114.285C114.344 39.8645 114.4 39.8885 114.442 39.9302C114.483 39.972 114.507 40.0283 114.508 40.0873V45.644C114.509 45.674 114.504 45.7038 114.493 45.7317C114.482 45.7597 114.465 45.7852 114.445 45.8068C114.424 45.8284 114.399 45.8457 114.372 45.8578C114.344 45.8698 114.314 45.8763 114.285 45.8768ZM107.022 45.4291H114.061V40.3112H107.022V45.4291Z" fill="#666666"/>
<path d="M114.284 54.2679H106.798V59.4709H114.284V54.2679Z" fill="#666666"/>
<path d="M114.285 59.6905H106.798C106.739 59.6905 106.682 59.6669 106.64 59.6249C106.598 59.5829 106.574 59.526 106.574 59.4666V54.2681C106.574 54.2087 106.598 54.1518 106.64 54.1098C106.682 54.0678 106.739 54.0442 106.798 54.0442H114.285C114.344 54.0442 114.401 54.0678 114.443 54.1098C114.485 54.1518 114.508 54.2087 114.508 54.2681V59.4666C114.508 59.526 114.485 59.5829 114.443 59.6249C114.401 59.6669 114.344 59.6905 114.285 59.6905ZM107.022 59.2427H114.061V54.492H107.022V59.2427Z" fill="#666666"/>
<path d="M114.284 47.3545H106.798V52.5575H114.284V47.3545Z" fill="#666666"/>
<path d="M114.285 52.7815H106.798C106.739 52.7815 106.682 52.7579 106.64 52.7159C106.598 52.6739 106.574 52.617 106.574 52.5576V47.3546C106.574 47.2952 106.598 47.2383 106.64 47.1963C106.682 47.1543 106.739 47.1307 106.798 47.1307H114.285C114.344 47.1307 114.401 47.1543 114.443 47.1963C114.485 47.2383 114.508 47.2952 114.508 47.3546V52.5576C114.507 52.6166 114.483 52.6729 114.442 52.7147C114.4 52.7564 114.344 52.7804 114.285 52.7815ZM107.022 52.3337H114.061V47.5785H107.022V52.3337Z" fill="#666666"/>
<path d="M123.482 61.1771H115.995V65.9637H123.482V61.1771Z" fill="#666666"/>
<path d="M123.477 66.1875H115.995C115.936 66.1875 115.879 66.1639 115.837 66.1219C115.795 66.0799 115.771 66.023 115.771 65.9636V61.177C115.771 61.1176 115.795 61.0607 115.837 61.0187C115.879 60.9767 115.936 60.9531 115.995 60.9531H123.477C123.537 60.9531 123.594 60.9767 123.636 61.0187C123.678 61.0607 123.701 61.1176 123.701 61.177V65.9636C123.701 66.023 123.678 66.0799 123.636 66.1219C123.594 66.1639 123.537 66.1875 123.477 66.1875ZM116.219 65.7397H123.253V61.4009H116.219V65.7397Z" fill="#666666"/>
<path d="M114.284 61.1771H106.798V65.9637H114.284V61.1771Z" fill="#666666"/>
<path d="M114.285 66.1875H106.798C106.739 66.1875 106.682 66.1639 106.64 66.1219C106.598 66.0799 106.574 66.023 106.574 65.9636V61.177C106.574 61.1176 106.598 61.0607 106.64 61.0187C106.682 60.9767 106.739 60.9531 106.798 60.9531H114.285C114.344 60.9543 114.4 60.9782 114.442 61.02C114.483 61.0617 114.507 61.118 114.508 61.177V65.9636C114.508 66.023 114.485 66.0799 114.443 66.1219C114.401 66.1639 114.344 66.1875 114.285 66.1875ZM107.022 65.7397H114.061V61.4009H107.022V65.7397Z" fill="#666666"/>
</svg>
