<svg version="1.1" id="Layer_1" xmlns="http://www.w3.org/2000/svg" xmlns:xlink="http://www.w3.org/1999/xlink" x="0px" y="0px"
	 width="100%" viewBox="0 0 225 225" enable-background="new 0 0 225 225" xml:space="preserve">
<path fill="#E4E6E7" opacity="1.000000" stroke="none" 
	d="
M111.000000,226.000000 
	C74.000000,226.000000 37.500004,226.000000 1.000005,226.000000 
	C1.000003,151.000000 1.000003,76.000015 1.000002,1.000015 
	C75.999992,1.000010 150.999985,1.000010 225.999969,1.000005 
	C225.999985,75.999985 225.999985,150.999969 226.000000,225.999969 
	C187.833328,226.000000 149.666672,226.000000 111.000000,226.000000 
M198.167526,205.000656 
	C201.230103,205.256393 202.591003,204.199966 201.553162,200.934265 
	C200.902405,198.886612 200.677597,196.704468 200.039444,194.651764 
	C194.613129,177.197144 182.565491,165.297440 166.921082,157.088593 
	C137.904160,141.863007 107.464401,140.135132 76.532562,150.139923 
	C59.294430,155.715546 44.097641,164.934967 33.976460,180.653244 
	C29.397558,187.764343 25.577581,195.329773 26.142925,205.001862 
	C83.397224,205.001862 140.319702,205.001862 198.167526,205.000656 
M156.237061,80.426010 
	C153.699326,71.389999 148.924973,63.809406 142.014343,57.401474 
	C129.078644,45.406734 107.601830,43.114883 92.924034,52.416744 
	C64.938095,70.152466 62.013271,109.798080 87.085548,131.556564 
	C102.885696,145.268417 127.554832,144.549408 142.573380,130.022583 
	C156.644043,116.412598 160.599365,99.967354 156.237061,80.426010 
z"/>
<path fill="#AEB4B7" opacity="1.000000" stroke="none" 
	d="
M197.704865,205.001251 
	C140.319702,205.001862 83.397224,205.001862 26.142925,205.001862 
	C25.577581,195.329773 29.397558,187.764343 33.976460,180.653244 
	C44.097641,164.934967 59.294430,155.715546 76.532562,150.139923 
	C107.464401,140.135132 137.904160,141.863007 166.921082,157.088593 
	C182.565491,165.297440 194.613129,177.197144 200.039444,194.651764 
	C200.677597,196.704468 200.902405,198.886612 201.553162,200.934265 
	C202.591003,204.199966 201.230103,205.256393 197.704865,205.001251 
z"/>
<path fill="#AEB4B7" opacity="1.000000" stroke="none" 
	d="
M156.376907,80.812988 
	C160.599365,99.967354 156.644043,116.412598 142.573380,130.022583 
	C127.554832,144.549408 102.885696,145.268417 87.085548,131.556564 
	C62.013271,109.798080 64.938095,70.152466 92.924034,52.416744 
	C107.601830,43.114883 129.078644,45.406734 142.014343,57.401474 
	C148.924973,63.809406 153.699326,71.389999 156.376907,80.812988 
z"/>
</svg>