<svg width="45" height="47" viewBox="0 0 45 47" fill="none" xmlns="http://www.w3.org/2000/svg">
<g clip-path="url(#clip0_498_796)">
<path fill-rule="evenodd" clip-rule="evenodd" d="M28.5811 9.52703H33.3446C34.608 9.52703 35.8196 10.0289 36.7129 10.9222C37.6062 11.8156 38.1081 13.0272 38.1081 14.2905V24.1351L34.9324 22.2297V14.2905C34.9324 13.8694 34.7651 13.4655 34.4674 13.1678C34.1696 12.87 33.7657 12.7027 33.3446 12.7027H28.5811V15.8784C28.5811 16.2995 28.4138 16.7034 28.116 17.0011C27.8182 17.2989 27.4144 17.4662 26.9932 17.4662C26.5721 17.4662 26.1682 17.2989 25.8705 17.0011C25.5727 16.7034 25.4054 16.2995 25.4054 15.8784V12.7027H12.7027V15.8784C12.7027 16.2995 12.5354 16.7034 12.2376 17.0011C11.9399 17.2989 11.536 17.4662 11.1149 17.4662C10.6937 17.4662 10.2899 17.2989 9.99209 17.0011C9.69432 16.7034 9.52703 16.2995 9.52703 15.8784V12.7027H4.76351C4.34239 12.7027 3.93852 12.87 3.64074 13.1678C3.34297 13.4655 3.17568 13.8694 3.17568 14.2905V30.1689C3.17568 31.4323 3.67754 32.6439 4.57088 33.5372C5.46421 34.4306 6.67583 34.9324 7.93919 34.9324H19.0541L20.3243 38.1081H7.93919C5.83436 38.1056 3.81646 37.2683 2.32812 35.78C0.839779 34.2916 0.00252126 32.2737 0 30.1689L0 14.2905C0 13.0272 0.501869 11.8156 1.3952 10.9222C2.28853 10.0289 3.50015 9.52703 4.76351 9.52703H9.52703C9.52703 7.0003 10.5308 4.57707 12.3174 2.7904C14.1041 1.00374 16.5273 0 19.0541 0C21.5808 0 24.004 1.00374 25.7907 2.7904C27.5773 4.57707 28.5811 7.0003 28.5811 9.52703ZM23.5451 5.03594C22.354 3.84483 20.7385 3.17568 19.0541 3.17568C17.3696 3.17568 15.7541 3.84483 14.563 5.03594C13.3719 6.22705 12.7027 7.84254 12.7027 9.52703H25.4054C25.4054 7.84254 24.7362 6.22705 23.5451 5.03594Z" fill="#F9CF56"/>
</g>
<path fill-rule="evenodd" clip-rule="evenodd" d="M19.054 34.2965C19.054 27.2846 24.7321 21.5938 31.744 21.5938C38.7685 21.5938 44.4594 27.2846 44.4594 34.2965C44.4594 41.3083 38.7685 46.9992 31.744 46.9992C24.7321 46.9992 19.054 41.3083 19.054 34.2965ZM21.5945 34.2965C21.5945 39.911 26.1421 44.4586 31.7567 44.4586C37.3713 44.4586 41.9188 39.911 41.9188 34.2965C41.9188 28.6819 37.3713 24.1343 31.7567 24.1343C26.1421 24.1343 21.5945 28.6819 21.5945 34.2965Z" fill="#F9CF56"/>
<path fill-rule="evenodd" clip-rule="evenodd" d="M32 27.75C32.6904 27.75 33.25 28.3096 33.25 29V33.9965L36.8135 37.0509C37.3376 37.5002 37.3983 38.2893 36.9491 38.8135C36.4998 39.3376 35.7107 39.3983 35.1865 38.9491L30.75 35.1463V29C30.75 28.3096 31.3096 27.75 32 27.75Z" fill="#F9CF56"/>
<defs>
<clipPath id="clip0_498_796">
<rect width="38.1081" height="38.1081" fill="white"/>
</clipPath>
</defs>
</svg>
