<svg width="275" height="258" viewBox="0 0 275 258" fill="none" xmlns="http://www.w3.org/2000/svg">
<path d="M4.02905 233.093H241.671" stroke="#263238" stroke-linecap="round" stroke-linejoin="round"/>
<path d="M29.8885 132.692C29.8885 132.692 29.8885 130.253 26.4786 126.843C23.0686 123.433 20.8539 121.478 20.8539 121.478C20.8539 121.478 19.1454 127.103 22.3163 130.499C24.6466 132.901 27.1749 135.102 29.8745 137.08L29.8885 132.692Z" fill="#76C893"/>
<path d="M24.9388 147.921C24.9388 147.921 24.9388 145.482 21.5218 142.072C18.1048 138.662 15.8971 136.707 15.8971 136.707C15.8971 136.707 14.1886 142.332 17.3595 145.728C19.6923 148.132 22.2229 150.335 24.9247 152.315L24.9388 147.921Z" fill="#76C893"/>
<path d="M29.6777 136.848C29.6777 136.848 29.9378 134.422 33.6923 131.385C37.4467 128.347 39.8372 126.66 39.8372 126.66C39.8372 126.66 40.9411 132.418 37.4256 135.477C34.8522 137.618 32.1055 139.541 29.2136 141.228L29.6777 136.848Z" fill="#76C893"/>
<path d="M23.6944 154.833C23.6944 154.833 24.2006 152.449 28.2574 149.827C32.3142 147.204 34.8664 145.756 34.8664 145.756C34.8664 145.756 35.3585 151.598 31.5408 154.27C28.7601 156.133 25.8272 157.758 22.7733 159.128L23.6944 154.833Z" fill="#76C893"/>
<path d="M24.8193 174.47C24.8193 174.47 24.8193 172.037 28.2293 168.62C31.6392 165.203 33.854 163.255 33.854 163.255C33.854 163.255 35.5625 168.88 32.3915 172.276C30.0604 174.679 27.5322 176.883 24.8334 178.864L24.8193 174.47Z" fill="#76C893"/>
<path d="M24.756 179.23C24.756 179.23 25.1076 176.818 22.2108 172.951C19.3141 169.084 17.4088 166.841 17.4088 166.841C17.4088 166.841 14.9199 172.157 17.5705 175.981C19.5425 178.703 21.7391 181.255 24.1373 183.61L24.756 179.23Z" fill="#76C893"/>
<path d="M21.3953 193.453C21.3953 193.453 21.3953 191.013 24.8052 187.596C28.2152 184.179 30.4299 182.232 30.4299 182.232C30.4299 182.232 32.1384 187.856 28.9675 191.259C26.6351 193.659 24.107 195.86 21.4093 197.84L21.3953 193.453Z" fill="#76C893"/>
<path d="M23.6733 206.277C23.6733 206.277 23.0335 203.922 25.4943 199.781C27.955 195.64 29.5581 193.172 29.5581 193.172C29.5581 193.172 32.6306 198.164 30.4299 202.27C28.79 205.183 26.9085 207.953 24.8052 210.552L23.6733 206.277Z" fill="#76C893"/>
<path d="M30.1979 132.067C30.0287 134.606 29.7165 137.134 29.2628 139.639C27.9129 146.613 24.5451 151.113 23.1952 157.413C21.8453 163.712 25.7193 171.819 24.6787 179.912C23.6381 188.004 20.4602 192.497 21.3953 197.896C22.3304 203.296 27.02 217.92 27.02 217.92" stroke="#263238" stroke-width="0.5" stroke-linecap="round" stroke-linejoin="round"/>
<path d="M29.6425 138.465L33.3196 135.645" stroke="#263238" stroke-width="0.5" stroke-linecap="round" stroke-linejoin="round"/>
<path d="M29.8112 135.217L28.2715 132.482" stroke="#263238" stroke-width="0.5" stroke-linecap="round" stroke-linejoin="round"/>
<path d="M23.3992 157.118C23.3992 157.118 26.4787 154.811 29.6426 152.498" stroke="#263238" stroke-width="0.5" stroke-linecap="round" stroke-linejoin="round"/>
<path d="M24.9388 152.316C23.4031 149.345 21.5679 146.539 19.4618 143.942" stroke="#263238" stroke-width="0.5" stroke-linecap="round" stroke-linejoin="round"/>
<path d="M24.9388 177.915C26.6969 174.673 28.916 171.703 31.5267 169.098" stroke="#263238" stroke-width="0.5" stroke-linecap="round" stroke-linejoin="round"/>
<path d="M24.3413 181.339C23.4036 179.141 22.2866 177.025 21.0016 175.011C19.2017 172.36 18.9486 172.016 18.9486 172.016" stroke="#263238" stroke-width="0.5" stroke-linecap="round" stroke-linejoin="round"/>
<path d="M21.3953 197.896C22.1729 195.953 23.0991 194.073 24.1654 192.272C25.2309 190.607 26.4326 189.034 27.7582 187.568" stroke="#263238" stroke-width="0.5" stroke-linecap="round" stroke-linejoin="round"/>
<path d="M24.7842 210.524C24.6073 208.674 24.9251 206.811 25.7053 205.124C26.9919 202.642 28.4473 199.387 29.0449 198.093" stroke="#263238" stroke-width="0.5" stroke-linecap="round" stroke-linejoin="round"/>
<path d="M7.56561 165.273C7.56561 165.273 7.29844 163.741 9.07021 161.231C10.842 158.721 12.0021 157.258 12.0021 157.258C12.0021 157.258 13.6824 160.591 12.0654 163.073C10.8633 164.824 9.5156 166.47 8.03668 167.994L7.56561 165.273Z" fill="#76C893"/>
<path d="M12.2974 174.287C12.2974 174.287 12.0303 172.754 13.802 170.244C15.5738 167.734 16.7058 166.272 16.7058 166.272C16.7058 166.272 18.3861 169.604 16.769 172.086C15.567 173.837 14.2193 175.484 12.7404 177.008L12.2974 174.287Z" fill="#76C893"/>
<path d="M8.12109 167.854C8.12109 167.854 7.69221 166.363 5.01346 164.866C2.33471 163.368 0.64028 162.559 0.64028 162.559C0.64028 162.559 0.577004 166.293 3.10811 167.826C4.95509 168.891 6.88835 169.798 8.88745 170.539L8.12109 167.854Z" fill="#76C893"/>
<path d="M13.8231 178.484C13.8231 178.484 13.2466 177.078 10.4202 175.841C7.59377 174.603 5.83606 174.006 5.83606 174.006C5.83606 174.006 6.15948 177.718 8.83823 178.983C10.7858 179.856 12.8038 180.562 14.8707 181.093L13.8231 178.484Z" fill="#76C893"/>
<path d="M15.2504 190.901C15.2504 190.901 14.9832 189.375 12.438 187.603C9.89286 185.832 8.33904 184.847 8.33904 184.847C8.33904 184.847 7.87501 188.552 10.2374 190.345C11.9595 191.601 13.7846 192.709 15.6933 193.657L15.2504 190.901Z" fill="#76C893"/>
<path d="M15.8058 193.896C15.8058 193.896 15.3277 192.419 16.7198 189.677C18.1119 186.935 19.0611 185.325 19.0611 185.325C19.0611 185.325 21.1704 188.384 19.947 191.077C19.0225 192.99 17.9383 194.822 16.7058 196.554L15.8058 193.896Z" fill="#76C893"/>
<path d="M20.0875 206.235C20.0875 206.235 20.2703 204.695 22.6749 202.783C25.0794 200.87 26.6121 199.795 26.6121 199.795C26.6121 199.795 27.3152 203.465 25.0302 205.419C23.381 206.771 21.6219 207.982 19.7711 209.04L20.0875 206.235Z" fill="#76C893"/>
<path d="M19.4548 202.431C19.4548 202.431 19.1877 200.899 16.6425 199.127C14.0973 197.355 12.5435 196.371 12.5435 196.371C12.5435 196.371 12.0865 200.076 14.4419 201.876C16.1651 203.128 17.9901 204.233 19.8978 205.18L19.4548 202.431Z" fill="#76C893"/>
<path d="M19.4197 210.742C19.4197 210.742 19.5533 209.195 17.5706 206.847C15.5879 204.498 14.3013 203.141 14.3013 203.141C14.3013 203.141 12.8951 206.608 14.7442 208.942C16.0955 210.591 17.5818 212.124 19.1877 213.526L19.4197 210.742Z" fill="#76C893"/>
<path d="M7.27039 164.915C7.65171 166.489 8.12117 168.041 8.67655 169.562C10.2796 173.781 12.8951 176.241 14.4137 180.045C15.9324 183.849 14.4137 189.354 15.9183 194.318C17.4229 199.282 19.9118 201.756 19.9329 205.237C19.954 208.717 18.583 218.405 18.583 218.405" stroke="#263238" stroke-width="0.5" stroke-linecap="round" stroke-linejoin="round"/>
<path d="M8.31799 168.866L5.70251 167.495" stroke="#263238" stroke-width="0.5" stroke-linecap="round" stroke-linejoin="round"/>
<path d="M7.85388 166.848L8.52181 164.964" stroke="#263238" stroke-width="0.5" stroke-linecap="round" stroke-linejoin="round"/>
<path d="M14.259 179.883C14.259 179.883 12.0794 178.773 9.84363 177.669" stroke="#263238" stroke-width="0.5" stroke-linecap="round" stroke-linejoin="round"/>
<path d="M12.7684 177.036C13.4128 175.008 14.2609 173.05 15.2995 171.193" stroke="#263238" stroke-width="0.5" stroke-linecap="round" stroke-linejoin="round"/>
<path d="M15.5527 193.094C14.0964 191.253 12.382 189.63 10.4624 188.278" stroke="#263238" stroke-width="0.5" stroke-linecap="round" stroke-linejoin="round"/>
<path d="M16.298 195.176C16.6437 193.692 17.1141 192.241 17.7041 190.837C18.5408 188.981 18.6674 188.728 18.6674 188.728" stroke="#263238" stroke-width="0.5" stroke-linecap="round" stroke-linejoin="round"/>
<path d="M19.8204 207.88C20.6707 206.827 21.6117 205.851 22.6328 204.962C23.2849 204.484 23.8963 203.953 24.4608 203.373" stroke="#263238" stroke-width="0.5" stroke-linecap="round" stroke-linejoin="round"/>
<path d="M19.9399 205.237C19.2418 204.106 18.4567 203.032 17.5916 202.024C16.745 201.093 15.8206 200.237 14.8285 199.464" stroke="#263238" stroke-width="0.5" stroke-linecap="round" stroke-linejoin="round"/>
<path d="M19.1877 213.526C19.0979 212.345 18.695 211.209 18.0205 210.236C16.9448 208.829 15.6793 206.938 15.166 206.2" stroke="#263238" stroke-width="0.5" stroke-linecap="round" stroke-linejoin="round"/>
<path d="M11.6155 216.718H33.9524V233.093C33.9524 233.652 33.7302 234.189 33.3347 234.584C32.9391 234.98 32.4026 235.202 31.8432 235.202H13.7529C13.1934 235.202 12.6569 234.98 12.2614 234.584C11.8658 234.189 11.6436 233.652 11.6436 233.093V216.718H11.6155Z" fill="#263238"/>
<path d="M33.7555 219.629H11.6154C11.1511 219.629 10.7058 219.444 10.3775 219.116C10.0492 218.788 9.86475 218.342 9.86475 217.878C9.86661 217.415 10.0519 216.972 10.38 216.645C10.7081 216.318 11.1523 216.134 11.6154 216.134H33.7555C34.218 216.134 34.6615 216.318 34.9885 216.645C35.3155 216.972 35.4992 217.416 35.4992 217.878C35.5001 218.108 35.4557 218.335 35.3685 218.548C35.2813 218.76 35.153 218.953 34.991 219.116C34.829 219.278 34.6364 219.407 34.4244 219.495C34.2124 219.583 33.9851 219.629 33.7555 219.629Z" fill="#263238"/>
<path d="M136.806 40.7993H42.8323C41.4577 40.7993 40.3434 41.9137 40.3434 43.2883V112.366C40.3434 113.741 41.4577 114.855 42.8323 114.855H136.806C138.181 114.855 139.295 113.741 139.295 112.366V43.2883C139.295 41.9137 138.181 40.7993 136.806 40.7993Z" fill="#808080"/>
<path d="M53.7161 48.7301H70.8502" stroke="white" stroke-linecap="round" stroke-linejoin="round"/>
<path d="M51.9864 48.3013C51.9878 48.0851 51.9249 47.8735 51.8057 47.6932C51.6865 47.5129 51.5164 47.3721 51.3169 47.2888C51.1175 47.2054 50.8978 47.1832 50.6858 47.2251C50.4737 47.2669 50.2789 47.3708 50.1261 47.5237C49.9732 47.6765 49.8693 47.8713 49.8275 48.0834C49.7857 48.2954 49.8078 48.5151 49.8912 48.7145C49.9745 48.9139 50.1153 49.0841 50.2956 49.2033C50.4759 49.3225 50.6875 49.3854 50.9037 49.384C51.1908 49.384 51.4662 49.2699 51.6693 49.0669C51.8723 48.8638 51.9864 48.5884 51.9864 48.3013Z" fill="white" stroke="white" stroke-linecap="round" stroke-linejoin="round"/>
<path d="M53.7161 54.3689H70.8502" stroke="white" stroke-linecap="round" stroke-linejoin="round"/>
<path d="M51.9864 53.9329C51.9878 53.7168 51.9249 53.5052 51.8057 53.3249C51.6865 53.1446 51.5164 53.0038 51.3169 52.9205C51.1175 52.8371 50.8978 52.8149 50.6858 52.8568C50.4737 52.8986 50.2789 53.0025 50.1261 53.1553C49.9732 53.3082 49.8693 53.503 49.8275 53.7151C49.7857 53.9271 49.8078 54.1468 49.8912 54.3462C49.9745 54.5456 50.1153 54.7157 50.2956 54.835C50.4759 54.9542 50.6875 55.0171 50.9037 55.0157C51.1908 55.0157 51.4662 54.9016 51.6693 54.6986C51.8723 54.4955 51.9864 54.2201 51.9864 53.9329Z" fill="white" stroke="white" stroke-linecap="round" stroke-linejoin="round"/>
<path d="M53.7161 60.0076H70.8502" stroke="white" stroke-linecap="round" stroke-linejoin="round"/>
<path d="M51.9864 59.5717C51.9878 59.3556 51.9249 59.1439 51.8057 58.9636C51.6865 58.7833 51.5164 58.6426 51.3169 58.5592C51.1175 58.4759 50.8978 58.4537 50.6858 58.4955C50.4737 58.5373 50.2789 58.6413 50.1261 58.7941C49.9732 58.9469 49.8693 59.1418 49.8275 59.3538C49.7857 59.5659 49.8078 59.7855 49.8912 59.985C49.9745 60.1844 50.1153 60.3545 50.2956 60.4737C50.4759 60.5929 50.6875 60.6558 50.9037 60.6544C51.1908 60.6544 51.4662 60.5404 51.6693 60.3373C51.8723 60.1343 51.9864 59.8589 51.9864 59.5717Z" fill="white" stroke="white" stroke-linecap="round" stroke-linejoin="round"/>
<path d="M53.7161 65.6463H70.8502" stroke="white" stroke-linecap="round" stroke-linejoin="round"/>
<path d="M51.9864 65.2104C51.9878 64.9943 51.9249 64.7826 51.8057 64.6024C51.6865 64.4221 51.5164 64.2813 51.3169 64.1979C51.1175 64.1146 50.8978 64.0924 50.6858 64.1342C50.4737 64.1761 50.2789 64.28 50.1261 64.4328C49.9732 64.5857 49.8693 64.7805 49.8275 64.9925C49.7857 65.2046 49.8078 65.4243 49.8912 65.6237C49.9745 65.8231 50.1153 65.9932 50.2956 66.1125C50.4759 66.2317 50.6875 66.2946 50.9037 66.2932C51.1908 66.2932 51.4662 66.1791 51.6693 65.9761C51.8723 65.773 51.9864 65.4976 51.9864 65.2104Z" fill="white" stroke="white" stroke-linecap="round" stroke-linejoin="round"/>
<path d="M53.7161 71.278H70.8502" stroke="white" stroke-linecap="round" stroke-linejoin="round"/>
<path d="M51.9864 70.8491C51.9878 70.633 51.9249 70.4214 51.8057 70.2411C51.6865 70.0608 51.5164 69.92 51.3169 69.8367C51.1175 69.7533 50.8978 69.7311 50.6858 69.7729C50.4737 69.8148 50.2789 69.9187 50.1261 70.0715C49.9732 70.2244 49.8693 70.4192 49.8275 70.6312C49.7857 70.8433 49.8078 71.063 49.8912 71.2624C49.9745 71.4618 50.1153 71.632 50.2956 71.7512C50.4759 71.8704 50.6875 71.9333 50.9037 71.9319C51.1908 71.9319 51.4662 71.8178 51.6693 71.6148C51.8723 71.4117 51.9864 71.1363 51.9864 70.8491Z" fill="white" stroke="white" stroke-linecap="round" stroke-linejoin="round"/>
<path d="M53.7161 76.9168H70.8502" stroke="white" stroke-linecap="round" stroke-linejoin="round"/>
<path d="M51.9864 76.4808C51.9864 76.265 51.9223 76.054 51.8023 75.8747C51.6822 75.6953 51.5116 75.5556 51.3121 75.4734C51.1125 75.3911 50.8931 75.3699 50.6815 75.4125C50.4699 75.4552 50.2757 75.5597 50.1236 75.7128C49.9715 75.8659 49.8682 76.0607 49.827 76.2726C49.7857 76.4844 49.8083 76.7038 49.8919 76.9028C49.9754 77.1018 50.1162 77.2715 50.2963 77.3904C50.4765 77.5093 50.6879 77.572 50.9037 77.5706C51.0465 77.5706 51.1879 77.5424 51.3197 77.4875C51.4515 77.4327 51.5712 77.3523 51.6718 77.251C51.7725 77.1497 51.8521 77.0295 51.9061 76.8973C51.9601 76.7652 51.9874 76.6236 51.9864 76.4808Z" fill="white" stroke="white" stroke-linecap="round" stroke-linejoin="round"/>
<path d="M53.7161 82.5555H70.8502" stroke="white" stroke-linecap="round" stroke-linejoin="round"/>
<path d="M51.9864 82.1196C51.9878 81.9035 51.9249 81.6918 51.8057 81.5115C51.6865 81.3312 51.5164 81.1905 51.3169 81.1071C51.1175 81.0237 50.8978 81.0016 50.6858 81.0434C50.4737 81.0852 50.2789 81.1892 50.1261 81.342C49.9732 81.4948 49.8693 81.6896 49.8275 81.9017C49.7857 82.1137 49.8078 82.3334 49.8912 82.5329C49.9745 82.7323 50.1153 82.9024 50.2956 83.0216C50.4759 83.1408 50.6875 83.2037 50.9037 83.2023C51.1908 83.2023 51.4662 83.0883 51.6693 82.8852C51.8723 82.6821 51.9864 82.4067 51.9864 82.1196Z" fill="white" stroke="white" stroke-linecap="round" stroke-linejoin="round"/>
<path d="M53.7161 88.1942H70.8502" stroke="white" stroke-linecap="round" stroke-linejoin="round"/>
<path d="M51.9864 87.7583C51.9878 87.5422 51.9249 87.3305 51.8057 87.1502C51.6865 86.97 51.5164 86.8292 51.3169 86.7458C51.1175 86.6625 50.8978 86.6403 50.6858 86.6821C50.4737 86.724 50.2789 86.8279 50.1261 86.9807C49.9732 87.1335 49.8693 87.3284 49.8275 87.5404C49.7857 87.7525 49.8078 87.9722 49.8912 88.1716C49.9745 88.371 50.1153 88.5411 50.2956 88.6603C50.4759 88.7795 50.6875 88.8425 50.9037 88.8411C51.1908 88.8411 51.4662 88.727 51.6693 88.5239C51.8723 88.3209 51.9864 88.0455 51.9864 87.7583Z" fill="white" stroke="white" stroke-linecap="round" stroke-linejoin="round"/>
<path d="M53.7161 93.8259H70.8502" stroke="white" stroke-linecap="round" stroke-linejoin="round"/>
<path d="M51.9864 93.3971C51.9878 93.1809 51.9249 92.9693 51.8057 92.789C51.6865 92.6087 51.5164 92.4679 51.3169 92.3846C51.1175 92.3012 50.8978 92.279 50.6858 92.3209C50.4737 92.3627 50.2789 92.4666 50.1261 92.6194C49.9732 92.7723 49.8693 92.9671 49.8275 93.1792C49.7857 93.3912 49.8078 93.6109 49.8912 93.8103C49.9745 94.0097 50.1153 94.1799 50.2956 94.2991C50.4759 94.4183 50.6875 94.4812 50.9037 94.4798C51.1908 94.4798 51.4662 94.3657 51.6693 94.1627C51.8723 93.9596 51.9864 93.6842 51.9864 93.3971Z" fill="white" stroke="white" stroke-linecap="round" stroke-linejoin="round"/>
<path d="M53.7161 99.4647H70.8502" stroke="white" stroke-linecap="round" stroke-linejoin="round"/>
<path d="M51.9864 99.0287C51.9864 98.8129 51.9223 98.6019 51.8023 98.4226C51.6822 98.2432 51.5116 98.1035 51.3121 98.0213C51.1125 97.939 50.8931 97.9178 50.6815 97.9605C50.4699 98.0031 50.2757 98.1076 50.1236 98.2607C49.9715 98.4138 49.8682 98.6086 49.827 98.8205C49.7857 99.0324 49.8083 99.2517 49.8919 99.4507C49.9754 99.6497 50.1162 99.8194 50.2963 99.9383C50.4765 100.057 50.6879 100.12 50.9037 100.119C51.0465 100.119 51.1879 100.09 51.3197 100.035C51.4515 99.9806 51.5712 99.9002 51.6718 99.7989C51.7725 99.6976 51.8521 99.5774 51.9061 99.4453C51.9601 99.3131 51.9874 99.1715 51.9864 99.0287Z" fill="white" stroke="white" stroke-linecap="round" stroke-linejoin="round"/>
<path d="M53.7161 105.103H70.8502" stroke="white" stroke-linecap="round" stroke-linejoin="round"/>
<path d="M51.9864 104.667C51.9878 104.451 51.9249 104.24 51.8057 104.059C51.6865 103.879 51.5164 103.738 51.3169 103.655C51.1175 103.572 50.8978 103.549 50.6858 103.591C50.4737 103.633 50.2789 103.737 50.1261 103.89C49.9732 104.043 49.8693 104.238 49.8275 104.45C49.7857 104.662 49.8078 104.881 49.8912 105.081C49.9745 105.28 50.1153 105.45 50.2956 105.57C50.4759 105.689 50.6875 105.752 50.9037 105.75C51.1908 105.75 51.4662 105.636 51.6693 105.433C51.8723 105.23 51.9864 104.955 51.9864 104.667Z" fill="white" stroke="white" stroke-linecap="round" stroke-linejoin="round"/>
<path d="M83.2034 48.7301H100.338" stroke="white" stroke-linecap="round" stroke-linejoin="round"/>
<path d="M81.4738 48.3013C81.4752 48.0851 81.4123 47.8735 81.2931 47.6932C81.1739 47.5129 81.0038 47.3721 80.8044 47.2888C80.6049 47.2054 80.3852 47.1832 80.1732 47.2251C79.9612 47.2669 79.7663 47.3708 79.6135 47.5237C79.4607 47.6765 79.3567 47.8713 79.3149 48.0834C79.2731 48.2954 79.2953 48.5151 79.3786 48.7145C79.462 48.9139 79.6027 49.0841 79.783 49.2033C79.9633 49.3225 80.175 49.3854 80.3911 49.384C80.6783 49.384 80.9537 49.2699 81.1567 49.0669C81.3598 48.8638 81.4738 48.5884 81.4738 48.3013Z" fill="white" stroke="white" stroke-linecap="round" stroke-linejoin="round"/>
<path d="M83.2034 54.3689H100.338" stroke="white" stroke-linecap="round" stroke-linejoin="round"/>
<path d="M80.391 55.0157C80.989 55.0157 81.4737 54.531 81.4737 53.933C81.4737 53.335 80.989 52.8502 80.391 52.8502C79.793 52.8502 79.3082 53.335 79.3082 53.933C79.3082 54.531 79.793 55.0157 80.391 55.0157Z" fill="white" stroke="white" stroke-linecap="round" stroke-linejoin="round"/>
<path d="M83.2034 60.0076H100.338" stroke="white" stroke-linecap="round" stroke-linejoin="round"/>
<path d="M80.391 60.6544C80.989 60.6544 81.4737 60.1697 81.4737 59.5717C81.4737 58.9737 80.989 58.4889 80.391 58.4889C79.793 58.4889 79.3082 58.9737 79.3082 59.5717C79.3082 60.1697 79.793 60.6544 80.391 60.6544Z" fill="white" stroke="white" stroke-linecap="round" stroke-linejoin="round"/>
<path d="M83.2034 65.6463H100.338" stroke="white" stroke-linecap="round" stroke-linejoin="round"/>
<path d="M81.4738 65.2104C81.4752 64.9943 81.4123 64.7826 81.2931 64.6024C81.1739 64.4221 81.0038 64.2813 80.8044 64.1979C80.6049 64.1146 80.3852 64.0924 80.1732 64.1342C79.9612 64.1761 79.7663 64.28 79.6135 64.4328C79.4607 64.5857 79.3567 64.7805 79.3149 64.9925C79.2731 65.2046 79.2953 65.4243 79.3786 65.6237C79.462 65.8231 79.6027 65.9932 79.783 66.1125C79.9633 66.2317 80.175 66.2946 80.3911 66.2932C80.6783 66.2932 80.9537 66.1791 81.1567 65.9761C81.3598 65.773 81.4738 65.4976 81.4738 65.2104Z" fill="white" stroke="white" stroke-linecap="round" stroke-linejoin="round"/>
<path d="M83.2034 71.278H100.338" stroke="white" stroke-linecap="round" stroke-linejoin="round"/>
<path d="M80.391 71.9319C80.989 71.9319 81.4737 71.4471 81.4737 70.8492C81.4737 70.2512 80.989 69.7664 80.391 69.7664C79.793 69.7664 79.3082 70.2512 79.3082 70.8492C79.3082 71.4471 79.793 71.9319 80.391 71.9319Z" fill="white" stroke="white" stroke-linecap="round" stroke-linejoin="round"/>
<path d="M83.2034 76.9168H100.338" stroke="white" stroke-linecap="round" stroke-linejoin="round"/>
<path d="M80.391 77.5636C80.989 77.5636 81.4737 77.0788 81.4737 76.4809C81.4737 75.8829 80.989 75.3981 80.391 75.3981C79.793 75.3981 79.3082 75.8829 79.3082 76.4809C79.3082 77.0788 79.793 77.5636 80.391 77.5636Z" fill="white" stroke="white" stroke-linecap="round" stroke-linejoin="round"/>
<path d="M83.2034 82.5555H100.338" stroke="white" stroke-linecap="round" stroke-linejoin="round"/>
<path d="M81.4738 82.1196C81.4752 81.9035 81.4123 81.6918 81.2931 81.5115C81.1739 81.3312 81.0038 81.1905 80.8044 81.1071C80.6049 81.0237 80.3852 81.0016 80.1732 81.0434C79.9612 81.0852 79.7663 81.1892 79.6135 81.342C79.4607 81.4948 79.3567 81.6896 79.3149 81.9017C79.2731 82.1137 79.2953 82.3334 79.3786 82.5329C79.462 82.7323 79.6027 82.9024 79.783 83.0216C79.9633 83.1408 80.175 83.2037 80.3911 83.2023C80.6783 83.2023 80.9537 83.0883 81.1567 82.8852C81.3598 82.6821 81.4738 82.4067 81.4738 82.1196Z" fill="white" stroke="white" stroke-linecap="round" stroke-linejoin="round"/>
<path d="M83.2034 88.1942H100.338" stroke="white" stroke-linecap="round" stroke-linejoin="round"/>
<path d="M80.391 88.8411C80.989 88.8411 81.4737 88.3563 81.4737 87.7583C81.4737 87.1604 80.989 86.6756 80.391 86.6756C79.793 86.6756 79.3082 87.1604 79.3082 87.7583C79.3082 88.3563 79.793 88.8411 80.391 88.8411Z" fill="white" stroke="white" stroke-linecap="round" stroke-linejoin="round"/>
<path d="M83.2034 93.8259H100.338" stroke="white" stroke-linecap="round" stroke-linejoin="round"/>
<path d="M81.4738 93.3971C81.4752 93.1809 81.4123 92.9693 81.2931 92.789C81.1739 92.6087 81.0038 92.4679 80.8044 92.3846C80.6049 92.3012 80.3852 92.279 80.1732 92.3209C79.9612 92.3627 79.7663 92.4666 79.6135 92.6194C79.4607 92.7723 79.3567 92.9671 79.3149 93.1792C79.2731 93.3912 79.2953 93.6109 79.3786 93.8103C79.462 94.0097 79.6027 94.1799 79.783 94.2991C79.9633 94.4183 80.175 94.4812 80.3911 94.4798C80.6783 94.4798 80.9537 94.3657 81.1567 94.1627C81.3598 93.9596 81.4738 93.6842 81.4738 93.3971Z" fill="white" stroke="white" stroke-linecap="round" stroke-linejoin="round"/>
<path d="M83.2034 99.4647H100.338" stroke="white" stroke-linecap="round" stroke-linejoin="round"/>
<path d="M80.391 100.112C80.989 100.112 81.4737 99.6267 81.4737 99.0288C81.4737 98.4308 80.989 97.946 80.391 97.946C79.793 97.946 79.3082 98.4308 79.3082 99.0288C79.3082 99.6267 79.793 100.112 80.391 100.112Z" fill="white" stroke="white" stroke-linecap="round" stroke-linejoin="round"/>
<path d="M83.2034 105.103H100.338" stroke="white" stroke-linecap="round" stroke-linejoin="round"/>
<path d="M80.391 105.75C80.989 105.75 81.4737 105.265 81.4737 104.668C81.4737 104.07 80.989 103.585 80.391 103.585C79.793 103.585 79.3082 104.07 79.3082 104.668C79.3082 105.265 79.793 105.75 80.391 105.75Z" fill="white" stroke="white" stroke-linecap="round" stroke-linejoin="round"/>
<path d="M112.691 48.7301H129.818" stroke="white" stroke-linecap="round" stroke-linejoin="round"/>
<path d="M110.961 48.3013C110.963 48.0854 110.9 47.874 110.781 47.6939C110.662 47.5138 110.492 47.373 110.293 47.2894C110.094 47.2059 109.875 47.1833 109.663 47.2245C109.451 47.2658 109.256 47.369 109.103 47.5211C108.95 47.6733 108.846 47.8674 108.803 48.079C108.76 48.2906 108.782 48.5101 108.864 48.7096C108.946 48.9092 109.086 49.0798 109.265 49.1998C109.445 49.3199 109.656 49.384 109.871 49.384C110.014 49.3849 110.156 49.3576 110.288 49.3036C110.42 49.2496 110.54 49.17 110.642 49.0694C110.743 48.9687 110.823 48.8491 110.878 48.7172C110.933 48.5854 110.961 48.444 110.961 48.3013Z" fill="white" stroke="white" stroke-linecap="round" stroke-linejoin="round"/>
<path d="M112.691 54.3689H129.818" stroke="white" stroke-linecap="round" stroke-linejoin="round"/>
<path d="M109.871 55.0157C110.469 55.0157 110.954 54.531 110.954 53.933C110.954 53.335 110.469 52.8502 109.871 52.8502C109.273 52.8502 108.789 53.335 108.789 53.933C108.789 54.531 109.273 55.0157 109.871 55.0157Z" fill="white" stroke="white" stroke-linecap="round" stroke-linejoin="round"/>
<path d="M112.691 60.0076H129.818" stroke="white" stroke-linecap="round" stroke-linejoin="round"/>
<path d="M109.871 60.6544C110.469 60.6544 110.954 60.1697 110.954 59.5717C110.954 58.9737 110.469 58.4889 109.871 58.4889C109.273 58.4889 108.789 58.9737 108.789 59.5717C108.789 60.1697 109.273 60.6544 109.871 60.6544Z" fill="white" stroke="white" stroke-linecap="round" stroke-linejoin="round"/>
<path d="M112.691 65.6463H129.818" stroke="white" stroke-linecap="round" stroke-linejoin="round"/>
<path d="M110.961 65.2104C110.963 64.9946 110.9 64.7832 110.781 64.603C110.662 64.4229 110.492 64.2821 110.293 64.1986C110.094 64.115 109.875 64.0924 109.663 64.1337C109.451 64.1749 109.256 64.2782 109.103 64.4303C108.95 64.5824 108.846 64.7766 108.803 64.9882C108.76 65.1998 108.782 65.4192 108.864 65.6188C108.946 65.8183 109.086 65.9889 109.265 66.109C109.445 66.229 109.656 66.2931 109.871 66.2931C110.014 66.2941 110.156 66.2667 110.288 66.2128C110.42 66.1588 110.54 66.0791 110.642 65.9785C110.743 65.8779 110.823 65.7582 110.878 65.6264C110.933 65.4946 110.961 65.3532 110.961 65.2104Z" fill="white" stroke="white" stroke-linecap="round" stroke-linejoin="round"/>
<path d="M112.691 71.278H129.818" stroke="white" stroke-linecap="round" stroke-linejoin="round"/>
<path d="M109.871 71.9319C110.469 71.9319 110.954 71.4471 110.954 70.8492C110.954 70.2512 110.469 69.7664 109.871 69.7664C109.273 69.7664 108.789 70.2512 108.789 70.8492C108.789 71.4471 109.273 71.9319 109.871 71.9319Z" fill="white" stroke="white" stroke-linecap="round" stroke-linejoin="round"/>
<path d="M112.691 76.9168H129.818" stroke="white" stroke-linecap="round" stroke-linejoin="round"/>
<path d="M109.871 77.5636C110.469 77.5636 110.954 77.0788 110.954 76.4809C110.954 75.8829 110.469 75.3981 109.871 75.3981C109.273 75.3981 108.789 75.8829 108.789 76.4809C108.789 77.0788 109.273 77.5636 109.871 77.5636Z" fill="white" stroke="white" stroke-linecap="round" stroke-linejoin="round"/>
<path d="M112.691 82.5555H129.818" stroke="white" stroke-linecap="round" stroke-linejoin="round"/>
<path d="M110.961 82.1196C110.963 81.9037 110.9 81.6924 110.781 81.5122C110.662 81.3321 110.492 81.1913 110.293 81.1078C110.094 81.0242 109.875 81.0016 109.663 81.0429C109.451 81.0841 109.256 81.1873 109.103 81.3395C108.95 81.4916 108.846 81.6858 108.803 81.8973C108.76 82.1089 108.782 82.3284 108.864 82.5279C108.946 82.7275 109.086 82.8981 109.265 83.0182C109.445 83.1382 109.656 83.2023 109.871 83.2023C110.014 83.2033 110.156 83.1759 110.288 83.1219C110.42 83.0679 110.54 82.9883 110.642 82.8877C110.743 82.7871 110.823 82.6674 110.878 82.5356C110.933 82.4037 110.961 82.2624 110.961 82.1196Z" fill="white" stroke="white" stroke-linecap="round" stroke-linejoin="round"/>
<path d="M112.691 88.1942H129.818" stroke="white" stroke-linecap="round" stroke-linejoin="round"/>
<path d="M109.871 88.8411C110.469 88.8411 110.954 88.3563 110.954 87.7583C110.954 87.1604 110.469 86.6756 109.871 86.6756C109.273 86.6756 108.789 87.1604 108.789 87.7583C108.789 88.3563 109.273 88.8411 109.871 88.8411Z" fill="white" stroke="white" stroke-linecap="round" stroke-linejoin="round"/>
<path d="M112.691 93.8259H129.818" stroke="white" stroke-linecap="round" stroke-linejoin="round"/>
<path d="M110.961 93.397C110.963 93.1812 110.9 92.9698 110.781 92.7897C110.662 92.6096 110.492 92.4688 110.293 92.3852C110.094 92.3017 109.875 92.2791 109.663 92.3203C109.451 92.3616 109.256 92.4648 109.103 92.6169C108.95 92.7691 108.846 92.9632 108.803 93.1748C108.76 93.3864 108.782 93.6059 108.864 93.8054C108.946 94.005 109.086 94.1756 109.265 94.2956C109.445 94.4157 109.656 94.4798 109.871 94.4798C110.014 94.4807 110.156 94.4534 110.288 94.3994C110.42 94.3454 110.54 94.2658 110.642 94.1652C110.743 94.0645 110.823 93.9448 110.878 93.813C110.933 93.6812 110.961 93.5398 110.961 93.397Z" fill="white" stroke="white" stroke-linecap="round" stroke-linejoin="round"/>
<path d="M112.691 99.4647H129.818" stroke="white" stroke-linecap="round" stroke-linejoin="round"/>
<path d="M109.871 100.112C110.469 100.112 110.954 99.6267 110.954 99.0288C110.954 98.4308 110.469 97.946 109.871 97.946C109.273 97.946 108.789 98.4308 108.789 99.0288C108.789 99.6267 109.273 100.112 109.871 100.112Z" fill="white" stroke="white" stroke-linecap="round" stroke-linejoin="round"/>
<path d="M112.691 105.103H129.818" stroke="white" stroke-linecap="round" stroke-linejoin="round"/>
<path d="M109.871 105.75C110.469 105.75 110.954 105.265 110.954 104.668C110.954 104.07 110.469 103.585 109.871 103.585C109.273 103.585 108.789 104.07 108.789 104.668C108.789 105.265 109.273 105.75 109.871 105.75Z" fill="white" stroke="white" stroke-linecap="round" stroke-linejoin="round"/>
<path d="M62.603 135.238C62.0124 139.294 60.1984 152.815 61.3022 159.142C62.617 166.672 69.4932 229.929 69.4932 229.929H77.3537L80.0465 168.142L80.63 178.491L82.2963 229.95H90.1568L99.2055 137.438L97.0962 137.48C78.5278 140.019 67.1378 136.932 62.603 135.238Z" fill="white" stroke="#263238" stroke-linecap="round" stroke-linejoin="round"/>
<path d="M98.6219 90.8027C98.6219 90.8027 102.629 93.0033 103.262 95.0915C104.078 97.7632 105.702 112.493 105.934 115.861C106.166 119.228 107.34 119.685 106.278 120.733C105.217 121.781 102.686 122.357 100.598 122.139C99.7414 122.066 98.8895 121.948 98.0454 121.788L97.3423 93.7134L97.4548 90.198L98.6219 90.8027Z" fill="white" stroke="#263238" stroke-linecap="round" stroke-linejoin="round"/>
<path d="M107.502 122.118C106.847 126.466 106.455 130.849 106.328 135.245C106.249 141.949 105.682 148.639 104.633 155.261C104.099 158.953 104.936 164.746 103.044 168.058C102.109 169.696 101.406 171.573 100.471 171.573C99.5359 171.573 99.5289 171.573 99.0648 170.399C98.6008 169.225 98.8258 167.115 98.8258 165.948C98.8261 165.238 98.9063 164.531 99.0648 163.839C99.0648 163.839 98.3617 168.761 97.6587 167.354C96.9556 165.948 96.4845 165.477 97.1876 163.136C97.8907 160.795 99.9999 155.163 99.9999 155.163L97.8907 126.808L107.502 122.118Z" fill="white" stroke="#263238" stroke-linecap="round" stroke-linejoin="round"/>
<path d="M99.2054 121.07C100.881 121.258 102.578 121.1 104.19 120.606C105.107 120.33 106 119.982 106.862 119.566C106.862 119.566 107.671 119.214 107.671 120.972C107.671 122.73 108.374 125.493 108.254 126.54C108.135 127.588 107.094 128.397 104.078 128.397C102.471 128.436 100.867 128.239 99.3179 127.813L99.2054 121.07Z" fill="white" stroke="#263238" stroke-linecap="round" stroke-linejoin="round"/>
<path d="M63.4747 120.838L62.6591 135.224C62.6591 135.224 62.4271 135.688 66.723 136.848C68.4484 137.211 70.2049 137.406 71.968 137.431H83.365C87.0843 137.319 90.4872 137.136 92.5051 136.967C97.954 136.503 100.858 133.719 100.858 133.719C100.858 133.719 99.9296 105.877 99.9296 99.9709C99.9296 94.065 98.65 90.8308 98.65 90.8308C98.65 90.8308 94.0097 87.6951 91.577 85.9585C89.1443 84.2218 83.4564 82.3587 80.7846 82.9422C79.2514 83.2669 77.7412 83.692 76.2638 84.2148C76.2638 84.2148 64.5153 90.3316 61.035 92.2089C57.5548 94.0861 57.9063 95.2251 57.4423 97.5453C56.9782 99.8655 53.73 117.935 53.73 117.935C53.73 117.935 57.2454 120.599 59.5304 120.747C61.8154 120.895 63.4747 120.838 63.4747 120.838Z" fill="white" stroke="#263238" stroke-linecap="round" stroke-linejoin="round"/>
<path d="M101.076 137.431H101.16C101.207 136.187 101.108 134.941 100.865 133.719C100.865 133.719 99.9366 105.877 99.9366 99.9709C99.9366 94.065 98.657 90.8308 98.657 90.8308L96.6813 89.4879C97.2508 94.4517 97.3844 100.112 97.3844 100.112C97.3844 100.112 90.7684 101.04 84.1594 101.272C77.5504 101.504 73.6131 101.384 73.6131 101.384C73.6131 101.384 73.3811 94.3111 71.8765 90.5988C71.2648 89.0872 70.8219 88.0044 70.5196 87.2451L68.2838 88.4192C68.3822 88.9958 71.0961 104.59 71.0961 108.106C71.0961 111.621 70.8641 125.275 70.8641 128.179C70.7518 130.882 70.4842 133.577 70.0626 136.25L69.7532 136.208L62.863 134.099H62.8138L62.3849 136.102L67.9392 138.88L65.6472 181.135C65.6472 181.135 73.8381 183.104 85.9593 182.45C98.0805 181.796 103.888 180.446 103.888 180.446L101.076 137.431Z" fill="#263238" stroke="#263238" stroke-linecap="round" stroke-linejoin="round"/>
<path d="M78.3238 79.8909C78.3238 79.8909 76.3482 80.0034 76.0037 80.9314C75.6591 81.8595 73.6835 85.3398 73.6835 85.3398C74.0889 87.1443 74.5911 88.9257 75.1881 90.6762C75.7812 92.3457 76.4859 93.9735 77.2973 95.5485C77.2973 95.5485 81.5932 91.1402 82.9853 90.6762C84.3774 90.2121 91.1059 94.6205 91.1059 94.6205C91.6369 92.3397 91.7536 89.982 91.4504 87.6599C90.9864 83.4836 90.6419 82.443 88.6381 81.6275C86.6343 80.8119 80.18 79.0753 78.3238 79.8909Z" fill="white" stroke="#263238" stroke-linecap="round" stroke-linejoin="round"/>
<path d="M77.0442 74.0904C77.0442 74.0904 77.2762 80.0033 77.6277 82.443C77.9793 84.8827 81.572 92.0682 83.8922 91.8362C86.2124 91.6042 88.7646 86.2678 89.1091 84.1796C89.4536 82.0915 90.0372 77.1066 90.0372 77.1066C90.0372 77.1066 87.6045 78.3792 83.5407 76.4035C79.4769 74.4279 77.7402 72.4663 77.0442 74.0904Z" fill="white" stroke="#263238" stroke-linecap="round" stroke-linejoin="round"/>
<path d="M94.1011 58.5452C94.1011 58.5452 92.8214 63.298 93.2855 66.2791C93.7495 69.2602 95.2611 71.9671 93.2855 75.4192C91.3098 78.8714 89.4607 80.5236 85.8609 80.5236C82.2611 80.5236 79.0199 78.4144 76.7208 74.7232C74.4217 71.032 74.2811 67.9947 74.2811 64.6269C74.2811 61.2591 72.875 57.5539 74.0491 55.3462C75.2233 53.1385 79.3855 51.2894 84.0259 53.026C88.6662 54.7626 94.1011 58.5452 94.1011 58.5452Z" fill="white" stroke="#263238" stroke-linecap="round" stroke-linejoin="round"/>
<path d="M84.2368 73.2748C85.3345 73.855 86.505 74.2854 87.7171 74.5544C89.2287 74.7864 90.6208 73.1483 90.6208 73.1483C89.7793 72.616 88.8042 72.3332 87.8085 72.3327C86.5709 72.4291 85.3609 72.7483 84.2368 73.2748Z" fill="white" stroke="#263238" stroke-linecap="round" stroke-linejoin="round"/>
<path d="M88.5326 64.0855C88.5326 64.0855 88.1811 66.0541 88.7646 67.2142C89.3482 68.3743 90.6208 69.5344 89.3412 70.118C88.0616 70.7015 85.9804 70.6945 85.7484 70.118" stroke="#263238" stroke-linecap="round" stroke-linejoin="round"/>
<path d="M86.9086 70.7226C85.7128 71.2056 84.4681 71.5568 83.1963 71.7702C81.4526 72.0022 81.2206 72.4733 82.7322 72.8108C84.2439 73.1483 88.0686 72.9303 88.0686 72.9303C88.0686 72.9303 90.5013 73.6334 91.5489 73.0428C92.5965 72.4522 92.0129 72.3397 90.9653 71.8827C89.9178 71.4257 88.7647 70.4906 86.9086 70.7226Z" fill="#263238" stroke="#263238" stroke-linecap="round" stroke-linejoin="round"/>
<path d="M83.6602 67.1299C84.0446 67.1299 84.3562 66.557 84.3562 65.8503C84.3562 65.1435 84.0446 64.5706 83.6602 64.5706C83.2757 64.5706 82.9641 65.1435 82.9641 65.8503C82.9641 66.557 83.2757 67.1299 83.6602 67.1299Z" fill="#263238"/>
<path d="M90.1568 66.8908C90.5412 66.8908 90.8528 66.3211 90.8528 65.6182C90.8528 64.9154 90.5412 64.3456 90.1568 64.3456C89.7723 64.3456 89.4607 64.9154 89.4607 65.6182C89.4607 66.3211 89.7723 66.8908 90.1568 66.8908Z" fill="#263238"/>
<path d="M82.7322 64.6901L84.4688 64.4581" stroke="#263238" stroke-linecap="round" stroke-linejoin="round"/>
<path d="M89.4607 64.5777H91.0848" stroke="#263238" stroke-linecap="round" stroke-linejoin="round"/>
<path d="M86.0929 62.602C86.0929 62.602 85.2844 61.8989 83.1962 62.138C81.1081 62.377 81.2205 62.9535 81.2205 62.9535" stroke="#263238" stroke-linecap="round" stroke-linejoin="round"/>
<path d="M89.1232 62.834C89.1232 62.834 90.0512 61.4278 92.6386 62.0255" stroke="#263238" stroke-linecap="round" stroke-linejoin="round"/>
<path d="M75.6521 67.2424C76.6757 66.4756 77.5103 65.4847 78.0918 64.3456C78.7949 62.7215 79.5964 61.9059 78.9004 60.5138C78.2043 59.1217 76.7911 58.3132 77.1638 57.2656C77.5364 56.218 84.8203 56.1055 88.8771 57.7296C92.9339 59.3538 97.6938 59.5858 98.0172 57.9616C98.3406 56.3375 95.001 55.297 95.001 55.297C95.001 55.297 98.7133 54.8329 95.8095 51.9292C92.9058 49.0254 90.2411 48.3364 82.9361 48.3364C75.631 48.3364 73.1913 49.7426 72.8398 51.1488C72.4882 52.5549 72.2633 53.3494 72.2633 53.3494C71.7974 53.4863 71.3897 53.773 71.1032 54.165C70.7516 54.7415 70.9837 56.7172 71.6797 57.9898C72.3758 59.2623 73.6554 62.6301 73.3038 64.4863C72.9523 66.3424 72.6007 66.3424 72.9593 66.694C73.3179 67.0455 73.9155 68.6345 75.6521 67.2424Z" fill="#263238" stroke="#263238" stroke-linecap="round" stroke-linejoin="round"/>
<path d="M76.9318 68.304C76.9318 68.304 75.5256 64.2402 73.332 65.2878C71.1383 66.3354 71.8274 69.6961 72.7554 70.7367C73.6835 71.7773 76.0037 73.549 77.1638 72.4803" fill="white"/>
<path d="M76.9318 68.304C76.9318 68.304 75.5256 64.2402 73.332 65.2878C71.1383 66.3354 71.8274 69.6961 72.7554 70.7367C73.6835 71.7773 76.0037 73.549 77.1638 72.4803" stroke="#263238" stroke-linecap="round" stroke-linejoin="round"/>
<path d="M53.4839 122.118C54.142 126.466 54.5388 130.849 54.6721 135.245C54.7512 141.949 55.3175 148.639 56.3665 155.261C56.9079 158.953 56.0642 164.746 57.9555 168.058C58.8906 169.696 59.5937 171.573 60.5358 171.573C61.4779 171.573 61.4709 171.573 61.942 170.399C62.4131 169.225 62.174 167.115 62.174 165.948C62.1737 165.239 62.0959 164.532 61.942 163.839C61.942 163.839 62.6451 168.761 63.3482 167.354C64.0512 165.948 64.5153 165.477 63.8122 163.136C63.1091 160.795 60.9999 155.163 60.9999 155.163L63.1091 126.808L53.4839 122.118Z" fill="white" stroke="#263238" stroke-linecap="round" stroke-linejoin="round"/>
<path d="M63.4747 120.838C61.7584 120.496 60.1115 119.869 58.6024 118.982C55.5861 117.358 53.73 116.17 53.73 116.17C53.442 116.3 53.1996 116.514 53.0342 116.783C52.8687 117.053 52.7879 117.366 52.8019 117.682C52.8019 118.842 52.3379 122.434 52.3379 123.946C52.3379 125.458 53.498 125.915 56.3947 126.962C59.2914 128.01 62.1951 128.235 62.7787 127.665C63.3622 127.096 63.4747 120.838 63.4747 120.838Z" fill="white" stroke="#263238" stroke-linecap="round" stroke-linejoin="round"/>
<path d="M63.4747 120.838L64.5153 107.733" stroke="#263238" stroke-linecap="round" stroke-linejoin="round"/>
<path d="M77.7685 239.631L77.3536 229.943H69.4932L58.9961 238.556C58.7722 238.739 58.6061 238.984 58.5175 239.259C58.429 239.535 58.4218 239.83 58.4969 240.11C58.5753 240.42 58.7574 240.695 59.0131 240.888C59.2688 241.081 59.5828 241.181 59.9031 241.171L76.4537 240.981C76.6291 240.981 76.8025 240.945 76.9639 240.876C77.1253 240.808 77.2715 240.708 77.3939 240.582C77.5162 240.456 77.6124 240.308 77.6767 240.144C77.741 239.981 77.7722 239.807 77.7685 239.631Z" fill="white" stroke="#263238" stroke-linecap="round" stroke-linejoin="round"/>
<path d="M81.8814 239.631L82.2962 229.943H90.1567L100.654 238.556C100.878 238.739 101.044 238.984 101.132 239.259C101.221 239.535 101.228 239.83 101.153 240.11C101.075 240.42 100.892 240.695 100.637 240.888C100.381 241.081 100.067 241.181 99.7468 241.171L83.1891 240.981C83.0144 240.98 82.8417 240.943 82.6811 240.874C82.5205 240.805 82.3752 240.705 82.2535 240.579C82.1319 240.454 82.0364 240.305 81.9725 240.143C81.9086 239.98 81.8777 239.806 81.8814 239.631Z" fill="white" stroke="#263238" stroke-linecap="round" stroke-linejoin="round"/>
<path d="M132.075 141.425C132.075 141.425 124.938 136.82 122.632 136.018C122.184 135.845 121.707 135.76 121.226 135.765L121.142 135.667H110.082L109.379 143.042H132.405C132.363 141.713 132.075 141.425 132.075 141.425Z" fill="white" stroke="#263238" stroke-linecap="round" stroke-linejoin="round"/>
<path d="M121.128 143.021C121.079 141.713 120.79 141.404 120.79 141.404C120.79 141.404 113.647 136.798 111.348 135.997C109.049 135.195 108.465 136.566 108.465 136.566V143.021H121.128Z" fill="#263238" stroke="#263238" stroke-linecap="round" stroke-linejoin="round"/>
<path d="M114.92 136.454L118.372 138.528H125.74L121.711 136.566L114.92 136.454Z" fill="white" stroke="#263238" stroke-linecap="round" stroke-linejoin="round"/>
<path d="M38.9513 243.871H195.507V208.133L169.725 143.914H38.9513V243.871Z" fill="#76C893"/>
<path opacity="0.7" d="M80.1661 213.301L149.469 143.914H135.091L66.6669 213.301H80.1661Z" fill="white"/>
<path opacity="0.7" d="M139.485 213.301L208.788 143.914H194.41L125.986 213.301H139.485Z" fill="white"/>
<path opacity="0.7" d="M158.525 213.301L227.828 143.914H213.45L145.026 213.301H158.525Z" fill="white"/>
<path opacity="0.7" d="M33.6641 213.301L102.967 143.914H88.589L20.1649 213.301H33.6641Z" fill="white"/>
<path d="M38.9513 243.871H195.507V208.133L169.725 143.914H38.9513V243.871Z" stroke="#263238" stroke-linecap="round" stroke-linejoin="round"/>
<path d="M112.375 144.173L108.968 145.038L126.899 215.694L130.306 214.829L112.375 144.173Z" fill="#263238"/>
<path d="M173.775 142.043H38.9513V146.494H173.775V142.043Z" fill="white" stroke="#263238" stroke-linecap="round" stroke-linejoin="round"/>
<path d="M101.526 155.866L64.2623 191.372" stroke="#263238" stroke-linecap="round" stroke-linejoin="round"/>
<path d="M63.7632 198.712L60.3954 201.918" stroke="#263238" stroke-linecap="round" stroke-linejoin="round"/>
<path d="M97.6588 166.412L67.3629 195.288" stroke="#263238" stroke-linecap="round" stroke-linejoin="round"/>
<path d="M139.134 188.032L135.625 191.372" stroke="#263238" stroke-linecap="round" stroke-linejoin="round"/>
<path d="M172.889 155.866L143.247 184.116" stroke="#263238" stroke-linecap="round" stroke-linejoin="round"/>
<path d="M169.022 166.412L131.758 201.918" stroke="#263238" stroke-linecap="round" stroke-linejoin="round"/>
<path d="M195.507 208.133H38.9513V243.871H195.507V208.133Z" fill="white" stroke="#263238" stroke-linecap="round" stroke-linejoin="round"/>
<path d="M42.6705 128.769H47.5429C47.8786 128.769 48.2005 128.903 48.4378 129.14C48.6751 129.377 48.8085 129.699 48.8085 130.035V141.945H41.405V130.049C41.4031 129.882 41.4345 129.715 41.4973 129.56C41.56 129.405 41.6529 129.264 41.7707 129.145C41.8884 129.026 42.0285 128.931 42.183 128.867C42.3374 128.802 42.5032 128.769 42.6705 128.769Z" fill="white" stroke="#263238" stroke-linecap="round" stroke-linejoin="round"/>
<path d="M46.3689 124.811H43.8448V128.783H46.3689V124.811Z" fill="white" stroke="#263238" stroke-linecap="round" stroke-linejoin="round"/>
<path d="M50.974 128.769H55.8464C56.182 128.769 56.5039 128.903 56.7413 129.14C56.9786 129.377 57.1119 129.699 57.1119 130.035V141.945H49.7085V130.049C49.7066 129.882 49.7379 129.715 49.8007 129.56C49.8635 129.405 49.9564 129.264 50.0741 129.145C50.1918 129.026 50.332 128.931 50.4864 128.867C50.6409 128.802 50.8066 128.769 50.974 128.769Z" fill="white" stroke="#263238" stroke-linecap="round" stroke-linejoin="round"/>
<path d="M54.6652 124.811H52.1411V128.783H54.6652V124.811Z" fill="white" stroke="#263238" stroke-linecap="round" stroke-linejoin="round"/>
<path d="M189.559 257.511C205.98 257.511 219.292 254.505 219.292 250.797C219.292 247.088 205.98 244.082 189.559 244.082C173.138 244.082 159.825 247.088 159.825 250.797C159.825 254.505 173.138 257.511 189.559 257.511Z" fill="#76C893"/>
<path opacity="0.5" d="M189.559 257.511C205.98 257.511 219.292 254.505 219.292 250.797C219.292 247.088 205.98 244.082 189.559 244.082C173.138 244.082 159.825 247.088 159.825 250.797C159.825 254.505 173.138 257.511 189.559 257.511Z" fill="white"/>
<path d="M158.475 128.537C155.548 129.744 152.475 130.564 149.335 130.977C145.974 131.498 142.556 131.541 139.183 131.103C137.403 130.433 135.561 129.941 133.685 129.634C130.626 129.142 127.357 130.611 127.202 132.081C127.048 133.55 129.895 135.87 133.319 137.002C136.743 138.134 138.086 137.129 148.724 138.226C159.361 139.323 163.39 139.203 165.225 137.614C165.664 137.217 166.012 136.732 166.247 136.189C166.481 135.646 166.597 135.06 166.585 134.469C166.574 133.878 166.436 133.296 166.181 132.763C165.926 132.229 165.559 131.757 165.106 131.378C163.116 129.754 158.475 128.537 158.475 128.537Z" fill="white" stroke="#263238" stroke-linecap="round" stroke-linejoin="round"/>
<path d="M182.556 92.1034C182.556 92.1034 179.99 93.0807 173.268 94.7963C166.547 96.5118 165.689 96.1391 164.339 99.3171C162.989 102.495 162.631 110.932 162.385 111.909C162.139 112.887 159.699 123.032 159.699 123.032C159.699 123.032 158.961 121.809 158.229 123.398C157.498 124.987 155.783 127.314 156.514 127.926C157.245 128.537 159.699 130.738 161.161 131.954C162.086 132.712 163.116 133.33 164.22 133.789L161.288 153.715L166.055 156.408C166.055 156.408 167.278 142.592 169.233 132.566C171.187 122.54 172.657 112.029 174.246 109.097C175.835 106.165 176.812 104.175 176.812 104.175L183.287 92.9261C183.287 92.9261 183.66 91.8574 182.556 92.1034Z" fill="#76C893" stroke="#263238" stroke-linecap="round" stroke-linejoin="round"/>
<path d="M164.22 133.789C164.856 129.497 165.222 125.169 165.317 120.831C165.373 116.053 166.158 111.311 167.644 106.77" stroke="#263238" stroke-linecap="round" stroke-linejoin="round"/>
<path d="M192.702 58.8546C192.702 58.8546 194.417 55.4306 199.55 55.6696C204.682 55.9087 210.672 67.622 210.919 74.7443C211.165 81.8665 207.495 83.3008 208.809 86.4788C210.124 89.6567 215.903 90.9996 215.903 97.8476C215.903 104.696 214.068 111.544 207.347 113.006C200.625 114.469 196.801 112.155 193.039 103.866C189.278 95.5767 190.599 90.9082 191.331 84.4328C192.062 77.9574 191.211 71.3484 190.719 67.8048C190.227 64.2613 190.747 61.2732 192.702 58.8546Z" fill="#263238" stroke="#263238" stroke-linecap="round" stroke-linejoin="round"/>
<path d="M173.754 98.0937C173.749 99.6498 173.627 101.203 173.388 102.741C173.022 104.696 173.142 104.084 174.091 103.718C175.04 103.353 177.149 100.414 177.149 100.414C177.149 100.414 175.603 97.8335 173.754 98.0937Z" fill="white" stroke="#263238" stroke-linecap="round" stroke-linejoin="round"/>
<path d="M183.533 89.1716C183.533 89.1716 179.87 92.5956 177.789 94.6697C176.54 95.9199 175.191 97.0651 173.754 98.0937L176.812 104.204C176.812 104.204 179.624 98.9515 180.475 96.8703C181.326 94.7892 183.533 89.1716 183.533 89.1716Z" fill="white" stroke="#263238" stroke-linecap="round" stroke-linejoin="round"/>
<path d="M172.488 243.442C172.488 243.442 168.361 246.191 164.754 247.14C161.147 248.09 160.212 248.624 160.634 249.784C161.056 250.944 162.961 251.689 165.71 251.893C168.459 252.097 172.79 251.155 174.689 251.155C176.587 251.155 179.87 252.21 182.085 251.471C184.3 250.733 184.391 249.679 184.244 247.084C184.245 245.957 184.089 244.835 183.779 243.752L172.488 243.442Z" fill="white" stroke="#263238" stroke-linecap="round" stroke-linejoin="round"/>
<path d="M166.856 140.019C166.856 140.019 165.802 147.401 164.747 155.838C163.692 164.275 164.571 177.106 165.977 182.731C167.384 188.356 168.966 191.695 169.317 196.617C169.669 201.538 172.833 214.194 173.36 222.455C173.727 227.666 173.669 232.898 173.184 238.099C173.152 239 172.974 239.891 172.657 240.735C172.657 240.735 171.426 240.56 171.426 241.263C171.426 241.966 171.251 244.251 171.251 244.251C173.037 244.875 174.856 245.403 176.699 245.833C179.16 246.36 184.258 247.063 184.258 247.063C184.929 244.006 185.165 240.87 184.961 237.747C184.609 232.65 186.191 224.564 186.191 217.182C186.191 209.8 186.191 204.878 186.367 200.132C186.543 195.386 186.191 171.13 186.367 164.451C186.543 157.771 190.937 150.213 190.937 145.468C190.937 140.722 189.882 139.843 188.125 139.14C186.367 138.437 166.856 140.019 166.856 140.019Z" fill="#263238" stroke="#263238" stroke-linecap="round" stroke-linejoin="round"/>
<path d="M185.27 245.031C185.27 245.031 182.528 246.824 179.252 248.835C175.975 250.846 173.543 251.689 175.975 253.482C178.408 255.275 186.332 255.493 189.397 254.649C192.463 253.806 197.398 252.006 198.481 251.809C199.564 251.612 199.754 250.747 199.43 249.165C199.107 247.583 190.993 246.1 188.546 245.151C186.1 244.202 185.27 245.031 185.27 245.031Z" fill="white" stroke="#263238" stroke-linecap="round" stroke-linejoin="round"/>
<path d="M173.711 153.757L179.512 160.085C179.512 160.085 180.215 177.662 180.215 186.45C180.266 192.874 180.854 199.283 181.973 205.609C182.324 207.367 186.191 223.011 186.191 227.581C186.191 232.151 186.894 239.006 186.894 240.06C186.894 241.115 185.312 241.115 185.136 242.873C185.073 243.77 184.895 244.656 184.609 245.509C186.759 246.22 188.872 247.041 190.937 247.97C193.046 249.025 199.374 250.431 199.901 250.079C200.429 249.728 200.78 246.388 200.604 244.279C200.429 242.17 200.077 238.478 200.077 237.6C200.077 236.721 201.132 221.78 201.132 214.222C201.132 206.664 197.792 196.469 196.913 193.481C196.269 191.255 195.972 188.943 196.034 186.626C196.034 185.044 200.253 165.534 200.077 155.69C199.901 145.847 197.616 141.453 197.616 141.453C197.616 141.453 189.355 143.386 181.621 141.98C173.887 140.574 172.833 140.75 172.833 140.75" fill="#263238"/>
<path d="M173.711 153.757L179.512 160.085C179.512 160.085 180.215 177.662 180.215 186.45C180.266 192.874 180.854 199.283 181.973 205.609C182.324 207.367 186.191 223.011 186.191 227.581C186.191 232.151 186.894 239.006 186.894 240.06C186.894 241.115 185.312 241.115 185.136 242.873C185.073 243.77 184.895 244.656 184.609 245.509C186.759 246.22 188.872 247.041 190.937 247.97C193.046 249.025 199.374 250.431 199.901 250.079C200.429 249.728 200.78 246.388 200.604 244.279C200.429 242.17 200.077 238.478 200.077 237.6C200.077 236.721 201.132 221.78 201.132 214.222C201.132 206.664 197.792 196.469 196.913 193.481C196.269 191.255 195.972 188.943 196.034 186.626C196.034 185.044 200.253 165.534 200.077 155.69C199.901 145.847 197.616 141.453 197.616 141.453C197.616 141.453 189.355 143.386 181.621 141.98C173.887 140.574 172.833 140.75 172.833 140.75" stroke="#263238" stroke-linecap="round" stroke-linejoin="round"/>
<path d="M183.21 212.83C181.86 205.272 179.934 194.086 179.652 190.388C179.202 184.608 178.76 162.377 178.76 162.377L172.087 157.49" stroke="white" stroke-linecap="round" stroke-linejoin="round"/>
<path d="M184.539 220.17C184.539 220.17 184.3 218.884 183.927 216.831" stroke="white" stroke-linecap="round" stroke-linejoin="round"/>
<path d="M181.361 94.3814C181.361 94.3814 181.445 93.1159 186.015 92.7643C190.585 92.4128 193.222 93.9947 193.925 96.6313C194.628 99.2678 192.695 128.446 192.87 132.489C193.046 136.531 192.87 143.386 192.87 143.386C192.87 143.386 193.398 145.496 182.676 145.847C171.954 146.199 170.02 144.968 166.505 142.508C166.505 142.508 166.505 139.695 169.669 122.645C172.833 105.596 177.255 103.247 178.661 100.787L181.361 94.3814Z" fill="white" stroke="#263238" stroke-linecap="round" stroke-linejoin="round"/>
<path d="M191.97 57.8703C188.101 56.5017 183.852 56.678 180.109 58.3624C173.634 61.1748 174.977 67.7767 174.731 69.6118C174.485 71.4468 172.657 73.0288 173.142 75.7216C173.627 78.4144 174.731 85.8811 177.424 86.5842C179.122 87.0069 180.906 86.9213 182.556 86.3381C182.556 86.3381 182.064 93.6713 180.447 96.8493C178.83 100.027 176.784 104.794 176.784 104.794C176.784 104.794 183.871 106.017 186.437 105.898C187.901 105.845 189.347 105.555 190.719 105.04C190.719 105.04 191.816 89.5161 191.942 86.5842C192.069 83.6524 192.188 80.4674 193.285 80.1018C194.382 79.7362 197.806 77.409 198.91 72.8881C200.014 68.3673 197.349 59.5858 191.97 57.8703Z" fill="white" stroke="#263238" stroke-linecap="round" stroke-linejoin="round"/>
<path d="M179.962 73.3381C179.962 73.3381 180.574 74.442 179.104 75.2927C177.635 76.1434 176.538 76.0309 177.515 76.7622C177.951 77.1284 178.445 77.4184 178.977 77.6199" stroke="#263238" stroke-linecap="round" stroke-linejoin="round"/>
<path d="M177.789 79.9119C177.789 79.9119 179.99 81.74 182.802 79.3003" stroke="#263238" stroke-linecap="round" stroke-linejoin="round"/>
<path d="M183.899 73.7389C183.899 74.3084 183.576 74.7724 183.196 74.7724C182.816 74.7724 182.493 74.3084 182.493 73.7389C182.493 73.1694 182.816 72.6983 183.196 72.6983C183.576 72.6983 183.899 73.1623 183.899 73.7389Z" fill="#263238"/>
<path d="M178.274 72.7546C178.274 73.3311 177.951 73.7951 177.571 73.7951C177.192 73.7951 176.868 73.3311 176.868 72.7546C176.868 72.178 177.199 71.721 177.571 71.721C177.944 71.721 178.274 72.1851 178.274 72.7546Z" fill="#263238"/>
<path d="M183.048 70.132C183.048 70.132 184.511 68.6626 186.1 70.9828" stroke="#263238" stroke-linecap="round" stroke-linejoin="round"/>
<path d="M176.2 69.1548C176.2 69.1548 178.647 67.3197 179.624 69.8579" stroke="#263238" stroke-linecap="round" stroke-linejoin="round"/>
<path d="M183.78 73.0639C183.228 72.8596 182.651 72.7364 182.064 72.6983" stroke="#263238" stroke-linecap="round" stroke-linejoin="round"/>
<path d="M178.155 72.0866C177.606 71.8829 177.03 71.7597 176.446 71.721" stroke="#263238" stroke-linecap="round" stroke-linejoin="round"/>
<path d="M191.97 57.8703C189.44 56.8071 186.653 56.5135 183.957 57.0262C181.26 57.5389 178.775 58.8352 176.812 60.7529C177.585 60.2115 182.064 58.5663 187.105 61.4138C189.608 62.82 190.621 65.6956 190.747 67.7767C190.874 69.8579 192.948 70.343 192.856 71.5664C192.765 72.7897 192.245 73.8865 193.559 74.3787C194.874 74.8709 194.537 75.2294 193.925 77.6762C193.721 78.4988 193.426 79.3495 193.271 80.144H193.313C194.417 79.7784 197.834 77.4512 198.938 72.9303C200.042 68.4095 197.349 59.5858 191.97 57.8703Z" fill="#263238" stroke="#263238" stroke-linecap="round" stroke-linejoin="round"/>
<path d="M192.477 75.2294C192.477 75.2294 194.312 72.2976 195.901 72.9093C197.49 73.5209 196.639 78.1683 193.946 79.3917C191.253 80.6151 191.499 79.7573 191.26 78.4144" fill="white"/>
<path d="M192.477 75.2294C192.477 75.2294 194.312 72.2976 195.901 72.9093C197.49 73.5209 196.639 78.1683 193.946 79.3917C191.253 80.6151 191.499 79.7573 191.26 78.4144" stroke="#263238" stroke-linecap="round" stroke-linejoin="round"/>
<path d="M182.556 86.3592C184.279 85.6725 185.928 84.8127 187.478 83.793" stroke="#263238" stroke-linecap="round" stroke-linejoin="round"/>
<path d="M206.637 136.356C206.546 139.363 206.875 142.368 207.614 145.285C208.837 149.925 210.799 157.75 210.799 158.728C210.799 159.705 208.964 160.682 207.987 161.54C207.009 162.398 207.249 164.472 207.375 165.33C207.502 166.187 209.941 167.439 209.941 167.439C209.941 167.439 212.262 168.662 212.627 167.924C212.993 167.186 215.074 165.358 215.32 164.134C215.529 161.736 215.611 159.328 215.566 156.921C215.566 155.458 216.417 139.442 214.097 134.063L206.637 134.921V136.356Z" fill="white" stroke="#263238" stroke-linecap="round" stroke-linejoin="round"/>
<path d="M185.122 98.4593C185.85 101.354 186.381 104.295 186.711 107.262C187.077 111.298 185.488 133.67 185.122 142.957C184.946 148.199 184.457 153.425 183.66 158.608C186.883 159.233 190.157 159.56 193.44 159.585C198.572 159.585 205.048 157.75 205.048 157.75C205.048 157.75 199.915 140.757 199.915 135.378C199.915 130 201.385 116.922 201.385 116.922L203.951 132.692C205.719 133.081 207.546 133.121 209.33 132.812C211.189 132.54 213 132.005 214.708 131.223C214.708 131.223 215.805 128.045 215.805 122.301C215.805 116.557 212.508 108.485 211.165 104.203C209.822 99.9217 211.411 98.4593 207.129 97.1164C202.847 95.7735 194.902 92.7151 194.045 92.469C194.045 92.469 190.016 97.9742 188.3 98.7968C187.791 99.0398 187.225 99.1369 186.664 99.0774C186.103 99.0178 185.569 98.8038 185.122 98.4593Z" fill="#76C893" stroke="#263238" stroke-linecap="round" stroke-linejoin="round"/>
<path d="M199.022 110.496L201.385 116.922L197.448 113.653" stroke="#263238" stroke-linecap="round" stroke-linejoin="round"/>
<path d="M208.317 98.5718C208.317 98.5718 202.355 102.79 200.949 107.712" stroke="#263238" stroke-linecap="round" stroke-linejoin="round"/>
<path d="M185.122 98.4593C185.122 98.4593 189.65 105.792 189.524 106.193C189.397 106.594 196.126 92.012 196.126 92.012L192.702 88.2224L185.122 98.4593Z" fill="white" stroke="#263238" stroke-linecap="round" stroke-linejoin="round"/>
<path d="M158.229 123.398C157.526 124.987 155.783 127.314 156.514 127.926C157.245 128.537 159.699 130.738 161.161 131.954C162.084 132.711 163.112 133.33 164.213 133.789C164.7 131.201 165.029 128.585 165.197 125.957L159.699 123.025C159.699 123.025 158.961 121.809 158.229 123.398Z" fill="white" stroke="#263238" stroke-linecap="round" stroke-linejoin="round"/>
<path d="M204.071 130.731C204.071 130.731 202.847 130.611 202.974 131.343C203.1 132.074 203.339 135.132 203.677 135.744C204.014 136.356 205.786 136.356 206.609 136.356C207.431 136.356 214.8 136.356 215.292 135.132C215.784 133.909 215.411 130.126 215.046 129.507C214.68 128.889 204.071 130.731 204.071 130.731Z" fill="white" stroke="#263238" stroke-linecap="round" stroke-linejoin="round"/>
<path d="M209.449 166.799L210.426 166.068" stroke="#263238" stroke-linecap="round" stroke-linejoin="round"/>
<path d="M209.21 165.084C210.076 165.464 210.801 166.106 211.284 166.919" stroke="#263238" stroke-linecap="round" stroke-linejoin="round"/>
<path d="M117.612 123.777L115.025 128.699C114.968 128.807 114.934 128.926 114.924 129.048C114.915 129.17 114.93 129.293 114.97 129.408C115.009 129.524 115.072 129.631 115.154 129.722C115.236 129.812 115.336 129.885 115.447 129.936L130.76 136.967C130.976 137.065 131.223 137.074 131.445 136.991C131.668 136.908 131.849 136.74 131.948 136.524L134.261 131.434C134.359 131.218 134.368 130.971 134.285 130.749C134.202 130.526 134.034 130.345 133.818 130.246L118.779 123.391C118.572 123.295 118.336 123.282 118.12 123.354C117.903 123.425 117.722 123.577 117.612 123.777Z" fill="#263238" stroke="#263238" stroke-linecap="round" stroke-linejoin="round"/>
<path d="M139.042 131.954C139.042 131.954 136.596 127.433 135.618 126.941C134.641 126.449 132.56 126.337 131.829 126.822C130.457 127.657 128.909 128.161 127.308 128.291C125.719 128.291 125.719 128.537 126.331 129.142C126.942 129.747 127.308 130.365 128.77 130.365C130.233 130.365 132.321 130.126 132.321 130.126C132.321 130.126 133.544 134.281 135.836 134.281" fill="white"/>
<path d="M139.042 131.954C139.042 131.954 136.596 127.433 135.618 126.941C134.641 126.449 132.56 126.337 131.829 126.822C130.457 127.657 128.909 128.161 127.308 128.291C125.719 128.291 125.719 128.537 126.331 129.142C126.942 129.747 127.308 130.365 128.77 130.365C130.233 130.365 132.321 130.126 132.321 130.126C132.321 130.126 133.544 134.281 135.836 134.281" stroke="#263238" stroke-linecap="round" stroke-linejoin="round"/>
<path d="M203.768 188.735L206.229 223.011L231.892 220.023L224.685 187.329L203.768 188.735Z" fill="#76C893" stroke="#263238" stroke-linecap="round" stroke-linejoin="round"/>
<path d="M203.768 188.735L200.077 221.253L206.229 223.011L203.768 188.735Z" fill="#76C893" stroke="#263238" stroke-linecap="round" stroke-linejoin="round"/>
<path d="M203.768 188.735L210.426 166.068" stroke="#263238" stroke-linecap="round" stroke-linejoin="round"/>
<path d="M214.139 166.061L224.685 187.329" stroke="#263238" stroke-linecap="round" stroke-linejoin="round"/>
<path d="M139.084 109.378C139.087 107.485 138.559 105.63 137.559 104.023C136.56 102.416 135.129 101.121 133.43 100.287C131.731 99.4528 129.832 99.1123 127.949 99.3042C126.066 99.4961 124.275 100.213 122.779 101.373C121.283 102.532 120.143 104.089 119.488 105.864C118.833 107.64 118.69 109.564 119.075 111.417C119.46 113.271 120.357 114.979 121.664 116.347C122.972 117.716 124.637 118.69 126.471 119.158L128.89 123.377L131.196 119.264C133.439 118.758 135.443 117.504 136.877 115.707C138.311 113.91 139.089 111.677 139.084 109.378Z" fill="#263238" stroke="#263238" stroke-linecap="round" stroke-linejoin="round"/>
<path d="M131.742 105.661V107.309H133.598V108.397H131.694C131.576 109.4 131.182 110.136 130.51 110.605C129.838 111.064 128.76 111.293 127.278 111.293V112.525C127.278 113.155 127.411 113.64 127.678 113.981C127.955 114.312 128.371 114.477 128.926 114.477C129.982 114.477 130.51 113.837 130.51 112.557H132.222C132.19 113.603 131.896 114.419 131.342 115.005C130.798 115.581 130.019 115.869 129.006 115.869C127.886 115.869 127.032 115.571 126.446 114.973C125.859 114.365 125.566 113.475 125.566 112.301V110.077C126.771 110.077 127.667 110.035 128.254 109.949C128.851 109.864 129.272 109.709 129.518 109.485C129.774 109.251 129.928 108.888 129.982 108.397H125.102V107.309H130.014V105.661H125.102V104.413H133.598V105.661H131.742Z" fill="white"/>
</svg>
