<svg width="24" height="24" viewBox="0 0 24 24" fill="none" xmlns="http://www.w3.org/2000/svg">
<path d="M15.3377 10.1911H14.1314C14.0262 9.75173 13.8404 9.341 13.5855 8.98445H15.3377C15.4825 8.98445 15.6213 8.92088 15.7237 8.80774C15.826 8.6946 15.8836 8.54115 15.8836 8.38114C15.8836 8.22113 15.826 8.06768 15.7237 7.95454C15.6213 7.84139 15.4825 7.77783 15.3377 7.77783H9.33337C9.1886 7.77783 9.04976 7.84139 8.94739 7.95454C8.84503 8.06768 8.78752 8.22113 8.78752 8.38114C8.78752 8.54115 8.84503 8.6946 8.94739 8.80774C9.04976 8.92088 9.1886 8.98445 9.33337 8.98445H11.2438C11.6042 8.98584 11.9569 9.09988 12.2612 9.31339C12.5654 9.5269 12.8088 9.83117 12.9633 10.1911H9.33337C9.1886 10.1911 9.04976 10.2546 8.94739 10.3678C8.84503 10.4809 8.78752 10.6344 8.78752 10.7944C8.78752 10.9544 8.84503 11.1078 8.94739 11.221C9.04976 11.3341 9.1886 11.3977 9.33337 11.3977H13.1543C13.0889 11.8988 12.8627 12.3572 12.517 12.6894C12.1714 13.0217 11.7292 13.2056 11.2711 13.2076H9.33337C9.30796 13.2048 9.28236 13.2048 9.25695 13.2076C9.22078 13.2014 9.18395 13.2014 9.14778 13.2076C9.11057 13.2216 9.07558 13.242 9.04407 13.2679L8.97857 13.3102C8.94867 13.34 8.92292 13.3746 8.90215 13.4127C8.88387 13.4395 8.86744 13.4677 8.85302 13.4972C8.84816 13.5332 8.84816 13.5698 8.85302 13.6058C8.81412 13.666 8.79141 13.7371 8.78752 13.8109C8.78496 13.839 8.78496 13.8673 8.78752 13.8954C8.78189 13.9353 8.78189 13.976 8.78752 14.016C8.80019 14.0571 8.81861 14.0958 8.8421 14.1307C8.8421 14.1307 8.8421 14.1789 8.88031 14.2031L12.1554 18.4262C12.2495 18.5478 12.3835 18.6231 12.5278 18.6356C12.6721 18.648 12.815 18.5966 12.9251 18.4926C13.0351 18.3886 13.1032 18.2405 13.1145 18.081C13.1257 17.9214 13.0792 17.7635 12.9851 17.6419L10.5233 14.4142H11.2438C11.995 14.4176 12.72 14.1098 13.2757 13.5513C13.8315 12.9929 14.1777 12.2244 14.246 11.3977H15.3377C15.4825 11.3977 15.6213 11.3341 15.7237 11.221C15.826 11.1078 15.8836 10.9544 15.8836 10.7944C15.8836 10.6344 15.826 10.4809 15.7237 10.3678C15.6213 10.2546 15.4825 10.1911 15.3377 10.1911Z" fill="#1D70EC"/>
<path d="M19.9211 16.4237C19.6909 16.9943 19.4018 17.5426 19.0566 18.0592C18.1359 19.4372 16.5548 20.6849 15.0122 21.3238C13.49 21.9543 11.4539 22.0513 9.80538 21.7234C8.19186 21.4024 6.56002 20.3987 5.36937 19.208C4.21507 18.0538 3.59231 16.4793 3.26039 14.8106C2.93716 13.1856 3.15437 11.3771 3.79352 9.83406C4.43007 8.2973 5.50802 6.98381 6.89107 6.05969C8.19441 5.18882 9.71354 4.7006 11.2764 4.64722C11.6491 4.63449 11.9635 4.33195 11.9635 3.94147C11.9635 3.55785 11.6501 3.23284 11.2499 3.24564C9.41908 3.30417 7.63885 3.87423 6.11233 4.89422C4.49878 5.97237 3.24116 7.50477 2.49853 9.29766C1.75589 11.0905 1.56158 13.0634 1.94017 14.9667C2.31877 16.87 3.25326 18.6183 4.62547 19.9905C5.99769 21.3628 7.74599 22.2972 9.64931 22.6758C11.5526 23.0544 13.5255 22.8601 15.3184 22.1175C17.1058 21.3771 18.6343 20.1249 19.7119 18.5184C20.1267 17.9999 20.4399 17.3742 20.6708 16.7035C21.1247 15.5712 21.3657 14.3588 21.3751 13.1275C21.3771 12.8639 21.1635 12.6525 20.9035 12.6525C20.6443 12.6525 20.4329 12.8615 20.4314 13.1218C20.4251 14.1946 20.2747 15.3872 19.9211 16.4237ZM20.5751 13.1214C20.5751 13.1218 20.5751 13.1222 20.5751 13.1226C20.5751 13.1222 20.5751 13.1218 20.5751 13.1214Z" fill="#1D70EC" stroke="#1D70EC" stroke-width="0.8"/>
<path d="M11.42 2.56511L13.3517 3.68039L11.42 4.79566L11.42 2.56511Z" fill="#1D70EC" stroke="#1D70EC"/>
</svg>
