<svg width="100" height="90" viewBox="0 0 100 90" fill="none" xmlns="http://www.w3.org/2000/svg">
<rect x="0.0410156" width="99" height="90" rx="24" fill="url(#paint0_linear_3455_7716)"/>
<g clip-path="url(#clip0_3455_7716)">
<path d="M62.0598 52.9686C61.1618 52.972 60.2737 53.1568 59.4488 53.512C58.624 53.8671 57.8794 54.3852 57.2598 55.0353L41.0065 46.9019C41.4063 45.6896 41.4063 44.3809 41.0065 43.1686L57.2865 34.8886C58.4526 36.1174 60.0339 36.8688 61.7231 36.9967C63.4123 37.1245 65.0888 36.6197 66.4266 35.5804C67.7643 34.5411 68.6679 33.0415 68.9617 31.3732C69.2554 29.7048 68.9183 27.9867 68.0159 26.553C67.1135 25.1193 65.7103 24.0723 64.079 23.6156C62.4476 23.1589 60.7048 23.325 59.1891 24.0817C57.6734 24.8384 56.4932 26.1316 55.8779 27.7099C55.2626 29.2883 55.2562 31.0391 55.8598 32.6219L39.7398 40.8219C38.8692 39.7572 37.6906 38.9878 36.3655 38.6192C35.0405 38.2505 33.6339 38.3008 32.3385 38.7629C31.0431 39.2251 29.9224 40.0766 29.1299 41.2007C28.3375 42.3249 27.9121 43.6666 27.9121 45.0419C27.9121 46.4173 28.3375 47.759 29.1299 48.8831C29.9224 50.0072 31.0431 50.8587 32.3385 51.3209C33.6339 51.7831 35.0405 51.8333 36.3655 51.4647C37.6906 51.0961 38.8692 50.3267 39.7398 49.2619L55.8198 57.3553C55.5481 58.0848 55.4081 58.8568 55.4065 59.6353C55.4065 60.9538 55.7974 62.2427 56.53 63.3391C57.2625 64.4354 58.3037 65.2899 59.5219 65.7944C60.7401 66.299 62.0805 66.4311 63.3737 66.1738C64.6669 65.9166 65.8548 65.2817 66.7872 64.3493C67.7195 63.417 68.3545 62.2291 68.6117 60.9359C68.8689 59.6427 68.7369 58.3022 68.2323 57.084C67.7277 55.8659 66.8733 54.8247 65.7769 54.0921C64.6806 53.3596 63.3917 52.9686 62.0731 52.9686H62.0598Z" fill="#4F5052"/>
</g>
<defs>
<linearGradient id="paint0_linear_3455_7716" x1="5.51639" y1="7.38055" x2="78.4304" y2="96.918" gradientUnits="userSpaceOnUse">
<stop stop-color="#F9CF56" stop-opacity="0.52"/>
<stop offset="1" stop-color="#F9CF56"/>
</linearGradient>
<clipPath id="clip0_3455_7716">
<rect width="48" height="48" fill="white" transform="translate(25.3535 20.9688)"/>
</clipPath>
</defs>
</svg>
