<svg width="100" height="90" viewBox="0 0 100 90" fill="none" xmlns="http://www.w3.org/2000/svg">
<rect x="0.0410156" width="99" height="90" rx="24" fill="url(#paint0_linear_3455_7731)"/>
<path d="M51.7533 48.5686V55.7686C51.7533 56.0868 51.8797 56.392 52.1048 56.6171C52.3298 56.8421 52.6351 56.9686 52.9533 56.9686H60.1533C60.4716 56.9686 60.7768 56.8421 61.0019 56.6171C61.2269 56.392 61.3533 56.0868 61.3533 55.7686V48.5686C61.3533 48.2503 61.2269 47.9451 61.0019 47.72C60.7768 47.495 60.4716 47.3686 60.1533 47.3686H52.9533C52.6351 47.3686 52.3298 47.495 52.1048 47.72C51.8797 47.9451 51.7533 48.2503 51.7533 48.5686ZM54.1533 54.5686V49.7686H58.9533V54.5686H54.1533ZM37.3533 25.7686C37.1774 25.7686 37.0037 25.8074 36.8444 25.882C36.6852 25.9567 36.5443 26.0654 36.4317 26.2006L30.4317 33.4006C30.252 33.6161 30.1534 33.8879 30.1533 34.1686V37.7686C30.1533 39.8998 31.0797 41.8174 32.5533 43.135V62.9686C32.5533 63.2868 32.6797 63.592 32.9048 63.8171C33.1298 64.0421 33.4351 64.1686 33.7533 64.1686H64.9533C65.2716 64.1686 65.5768 64.0421 65.8018 63.8171C66.0269 63.592 66.1533 63.2868 66.1533 62.9686V43.135C67.6269 41.815 68.5533 39.8998 68.5533 37.7686V34.1254C68.5533 33.9094 68.5533 33.7366 68.2749 33.4006L62.2749 26.2006C62.1624 26.0654 62.0215 25.9567 61.8622 25.882C61.7029 25.8074 61.5292 25.7686 61.3533 25.7686H37.3533ZM37.3533 42.5686C36.0803 42.5686 34.8594 42.0628 33.9592 41.1627C33.059 40.2625 32.5533 39.0416 32.5533 37.7686V35.3686H42.1533V37.7686C42.1533 39.0416 41.6476 40.2625 40.7474 41.1627C39.8473 42.0628 38.6264 42.5686 37.3533 42.5686ZM49.3533 42.5686C48.0803 42.5686 46.8594 42.0628 45.9592 41.1627C45.059 40.2625 44.5533 39.0416 44.5533 37.7686V35.3686H54.1533V37.7686C54.1533 39.0416 53.6476 40.2625 52.7474 41.1627C51.8473 42.0628 50.6264 42.5686 49.3533 42.5686ZM61.3533 42.5686C60.0803 42.5686 58.8594 42.0628 57.9592 41.1627C57.059 40.2625 56.5533 39.0416 56.5533 37.7686V35.3686H66.1533V37.7686C66.1533 39.0416 65.6476 40.2625 64.7474 41.1627C63.8473 42.0628 62.6264 42.5686 61.3533 42.5686ZM37.3533 61.7686H34.9533V44.5606C36.466 45.0967 38.1146 45.1116 39.6368 44.6028C41.1589 44.094 42.4672 43.0907 43.3533 41.7526C44.0101 42.7424 44.9018 43.5541 45.9488 44.1153C46.9958 44.6765 48.1654 44.9696 49.3533 44.9686C50.5414 44.9694 51.7113 44.6759 52.7582 44.1143C53.8053 43.5526 54.6968 42.7404 55.3533 41.7502C56.2395 43.0883 57.5477 44.0916 59.0699 44.6004C60.592 45.1092 62.2406 45.0944 63.7533 44.5582V61.7686H49.3533V48.5686C49.3533 48.2503 49.2269 47.9451 49.0019 47.72C48.7768 47.495 48.4716 47.3686 48.1533 47.3686H38.5533C38.2351 47.3686 37.9298 47.495 37.7048 47.72C37.4797 47.9451 37.3533 48.2503 37.3533 48.5686V61.7686ZM42.4893 32.9686H33.9165L37.9149 28.1686H44.0877L42.4893 32.9686ZM53.6877 32.9686H45.0189L46.6173 28.1686H52.0893L53.6877 32.9686ZM56.2173 32.9686L54.6189 28.1686H60.7917L64.7925 32.9686H56.2173ZM39.7533 61.7686V49.7686H46.9533V61.7686H39.7533Z" fill="#4F5052"/>
<defs>
<linearGradient id="paint0_linear_3455_7731" x1="5.51639" y1="7.38055" x2="78.4304" y2="96.918" gradientUnits="userSpaceOnUse">
<stop stop-color="#F9CF56" stop-opacity="0.52"/>
<stop offset="1" stop-color="#F9CF56"/>
</linearGradient>
</defs>
</svg>
