<svg width="16" height="17" viewBox="0 0 16 17" fill="none" xmlns="http://www.w3.org/2000/svg">
<path d="M13.9821 1.47685H12.7609V1.10632C12.7609 0.769506 12.4777 0.5 12.1237 0.5C11.7697 0.5 11.4865 0.769503 11.4865 1.10632V1.49366H8.65477V1.10632C8.65477 0.769506 8.37155 0.5 8.0176 0.5C7.66365 0.5 7.38044 0.769503 7.38044 1.10632V1.49366H4.5309V1.10632C4.5309 0.769506 4.24769 0.5 3.89374 0.5C3.53979 0.5 3.25658 0.769503 3.25658 1.10632V1.49366H2.03532C0.920252 1.49366 0 2.36949 0 3.43046V14.5632C0 15.6243 0.920378 16.5 2.03532 16.5H13.9644C15.0795 16.5 15.9997 15.6242 15.9997 14.5632V3.41362C16.0175 2.35265 15.1148 1.47682 13.9821 1.47682L13.9821 1.47685ZM2.05302 2.68949H3.27428V3.07684C3.27428 3.41365 3.55749 3.68316 3.91144 3.68316C4.26539 3.68316 4.5486 3.41365 4.5486 3.07684V2.68949H7.39814V3.07684C7.39814 3.41365 7.68135 3.68316 8.0353 3.68316C8.38925 3.68316 8.67246 3.41365 8.67246 3.07684V2.68949H11.522V3.07684C11.522 3.41365 11.8052 3.68316 12.1592 3.68316C12.5131 3.68316 12.7963 3.41365 12.7963 3.07684V2.68949H14.0176C14.4424 2.68949 14.7964 3.02631 14.7964 3.43058V4.5758H1.27436V3.43058C1.27436 3.00953 1.62831 2.68949 2.05314 2.68949H2.05302ZM13.9821 15.3043H2.05302C1.62821 15.3043 1.27423 14.9675 1.27423 14.5633V5.7716H14.7431V14.5633C14.7608 14.9674 14.4068 15.3042 13.982 15.3042L13.9821 15.3043Z" fill="#A42C24"/>
<path d="M4.83241 6.98438H3.29263C3.00942 6.98438 2.77942 7.20336 2.77942 7.47274L2.7793 7.99482C2.7793 8.26433 3.00942 8.48319 3.2925 8.48319L4.83241 8.48331C5.11562 8.48331 5.34562 8.26432 5.34562 7.99494V7.47286C5.34574 7.20324 5.11561 6.98438 4.83241 6.98438L4.83241 6.98438Z" fill="#A42C24"/>
<path d="M12.7259 6.98438H11.2038C10.9205 6.98438 10.6906 7.20336 10.6906 7.47274L10.6904 7.99482C10.6904 8.26432 10.9206 8.48319 11.2036 8.48319H12.7434C13.0266 8.48319 13.2566 8.2642 13.2566 7.99482V7.47274C13.2569 7.20324 13.0267 6.98438 12.7259 6.98438H12.7259Z" fill="#A42C24"/>
<path d="M8.77857 6.98438H7.23879C6.95558 6.98438 6.72559 7.20336 6.72559 7.47274V7.99482C6.72559 8.26432 6.95571 8.48319 7.23879 8.48319H8.77857C9.06178 8.48319 9.29178 8.2642 9.29178 7.99482V7.47274C9.2919 7.20324 9.06178 6.98438 8.77857 6.98438Z" fill="#A42C24"/>
<path d="M4.83228 9.81372H3.2925C3.00929 9.81372 2.7793 10.0327 2.7793 10.3021V10.8242C2.7793 11.0937 3.00942 11.3125 3.2925 11.3125L4.83228 11.3127C5.11549 11.3127 5.34549 11.0937 5.34549 10.8243V10.3022C5.34561 10.0327 5.11549 9.81372 4.83228 9.81372V9.81372Z" fill="#A42C24"/>
<path d="M12.7257 9.81372H11.2036C10.9204 9.81372 10.6904 10.0327 10.6904 10.3021V10.8242C10.6904 11.0937 10.9206 11.3125 11.2036 11.3125H12.7434C13.0266 11.3125 13.2566 11.0935 13.2566 10.8242V10.3021C13.2567 10.0327 13.0266 9.81372 12.7257 9.81372Z" fill="#A42C24"/>
<path d="M8.77857 9.81372H7.23879C6.95558 9.81372 6.72559 10.0327 6.72559 10.3021V10.8242C6.72559 11.0937 6.95571 11.3125 7.23879 11.3125H8.77857C9.06178 11.3125 9.29178 11.0935 9.29178 10.8242V10.3021C9.2919 10.0327 9.06178 9.81372 8.77857 9.81372Z" fill="#A42C24"/>
<path d="M4.83228 12.6602H3.2925C3.00929 12.6602 2.7793 12.8791 2.7793 13.1485V13.6706C2.7793 13.9401 3.00942 14.159 3.2925 14.159L4.83228 14.1591C5.11549 14.1591 5.34549 13.9401 5.34549 13.6707V13.1486C5.34561 12.8791 5.11549 12.6602 4.83228 12.6602V12.6602Z" fill="#A42C24"/>
<path d="M12.7257 12.6602H11.2036C10.9204 12.6602 10.6904 12.8791 10.6904 13.1485V13.6706C10.6904 13.9401 10.9206 14.159 11.2036 14.159H12.7434C13.0266 14.159 13.2566 13.94 13.2566 13.6706V13.1485C13.2567 12.8791 13.0266 12.6602 12.7257 12.6602Z" fill="#A42C24"/>
<path d="M8.77857 12.6602H7.23879C6.95558 12.6602 6.72559 12.8791 6.72559 13.1485V13.6706C6.72559 13.9401 6.95571 14.159 7.23879 14.159H8.77857C9.06178 14.159 9.29178 13.94 9.29178 13.6706V13.1485C9.2919 12.8791 9.06178 12.6602 8.77857 12.6602Z" fill="#A42C24"/>
</svg>
