<svg width="35" height="36" viewBox="0 0 35 36" fill="none" xmlns="http://www.w3.org/2000/svg">
<path d="M25.2081 25.758V31.704M28.0992 31.704H6.90091C6.13433 31.704 5.39914 31.3908 4.85708 30.8332C4.31502 30.2757 4.0105 29.5195 4.0105 28.731V18.1598C4.01045 17.769 4.08533 17.382 4.23084 17.021C4.37636 16.66 4.58965 16.3321 4.85852 16.056L15.457 5.16601C15.9989 4.60872 16.7338 4.29565 17.5001 4.29565C18.2664 4.29565 19.0013 4.60872 19.5432 5.16601L30.1416 16.056C30.4105 16.3321 30.6238 16.66 30.7693 17.021C30.9148 17.382 30.9897 17.769 30.9897 18.1598V28.731C30.9897 29.5195 30.6851 30.2757 30.1431 30.8332C29.601 31.3908 28.8658 31.704 28.0992 31.704V31.704ZM9.79206 25.758H25.2074V19.392L17.5001 11.472L9.79206 19.392V25.758ZM21.5739 7.25251L4.0105 25.3455L21.5739 7.25251ZM9.79206 25.758V31.704V25.758Z" stroke="#545454" stroke-linecap="round" stroke-linejoin="round"/>
</svg>
