<svg width="36" height="36" viewBox="0 0 36 36" fill="none" xmlns="http://www.w3.org/2000/svg">
<path d="M18 27.2895C22.1479 27.2895 25.5105 23.9269 25.5105 19.779C25.5105 15.6311 22.1479 12.2685 18 12.2685C13.8521 12.2685 10.4895 15.6311 10.4895 19.779C10.4895 23.9269 13.8521 27.2895 18 27.2895Z" stroke="#F8F8F8" stroke-width="0.75" stroke-linecap="round" stroke-linejoin="round"/>
<path d="M18.0001 24.522C20.6196 24.522 22.7431 22.3985 22.7431 19.779C22.7431 17.1595 20.6196 15.036 18.0001 15.036C15.3806 15.036 13.2571 17.1595 13.2571 19.779C13.2571 22.3985 15.3806 24.522 18.0001 24.522Z" stroke="#F8F8F8" stroke-width="0.75" stroke-linecap="round" stroke-linejoin="round"/>
<path d="M31.125 9.10651H24.7822L23.4 5.99401C23.341 5.86153 23.2448 5.74901 23.1231 5.67008C23.0015 5.59114 22.8595 5.54917 22.7145 5.54926H13.287C13.1419 5.54924 12.9999 5.59132 12.8782 5.67039C12.7565 5.74947 12.6604 5.86214 12.6015 5.99476L11.2185 9.10651H4.875C4.47718 9.10651 4.09564 9.26454 3.81434 9.54584C3.53304 9.82715 3.375 10.2087 3.375 10.6065V28.9515C3.375 29.3493 3.53304 29.7309 3.81434 30.0122C4.09564 30.2935 4.47718 30.4515 4.875 30.4515H31.125C31.5228 30.4515 31.9044 30.2935 32.1857 30.0122C32.467 29.7309 32.625 29.3493 32.625 28.9515V10.6065C32.625 10.2087 32.467 9.82715 32.1857 9.54584C31.9044 9.26454 31.5228 9.10651 31.125 9.10651V9.10651Z" stroke="#F8F8F8" stroke-width="0.75" stroke-linecap="round" stroke-linejoin="round"/>
</svg>
