<svg width="18" height="20" viewBox="0 0 18 20" fill="none" xmlns="http://www.w3.org/2000/svg">
<path d="M8.03986 0.875998C5.9768 0.875998 4.29186 2.56086 4.29186 4.624C4.29186 6.68713 5.97673 8.372 8.03986 8.372C10.103 8.372 11.7879 6.68713 11.7879 4.624C11.7879 2.56086 10.103 0.875998 8.03986 0.875998ZM8.03986 2.22807C9.36998 2.22807 10.4359 3.29398 10.4359 4.6241C10.4359 5.95422 9.36998 7.02014 8.03986 7.02014C6.70974 7.02014 5.64383 5.95422 5.64383 4.6241C5.64383 3.29398 6.70974 2.22807 8.03986 2.22807ZM8.03986 8.94007C6.12328 8.94007 4.38201 9.39656 3.07501 10.172L3.12603 10.258C1.83672 11.0227 0.936035 12.1472 0.936035 13.4559V16.528C0.936035 16.6808 0.996704 16.8272 1.10479 16.9351L1.03403 17.0058C1.03406 17.0058 1.03409 17.0059 1.03412 17.0059C1.16084 17.1327 1.33279 17.2039 1.51207 17.2039H10.7663C11.3088 18.3356 12.4651 19.1239 13.7999 19.1239C15.651 19.1239 17.1639 17.611 17.1639 15.7599C17.1639 14.3838 16.3264 13.1949 15.138 12.6751C14.8585 11.6568 14.0517 10.7928 13.0049 10.1719C11.6978 9.39638 9.95631 8.94007 8.03986 8.94007ZM8.03986 10.2921C9.73977 10.2921 11.2621 10.7097 12.315 11.3342C12.8668 11.6615 13.2683 12.0303 13.5283 12.4117C11.804 12.5516 10.436 14.0008 10.436 15.7601C10.436 15.7903 10.4378 15.8217 10.44 15.8521H2.18809V13.4561C2.18809 12.7353 2.70906 11.9606 3.76514 11.3342C4.81793 10.7097 6.33983 10.2921 8.03986 10.2921ZM13.7999 13.7481C14.9179 13.7481 15.8119 14.6421 15.8119 15.7602C15.8119 16.8782 14.918 17.7723 13.7999 17.7723C12.6819 17.7723 11.7878 16.8783 11.7878 15.7602C11.7878 14.6422 12.6817 13.7481 13.7999 13.7481ZM12.9539 15.0842C12.5832 15.0842 12.266 15.3843 12.266 15.7602C12.266 16.1361 12.5832 16.4362 12.9539 16.4362H14.6756C15.0533 16.4362 15.3326 16.1289 15.3326 15.7599C15.3326 15.391 15.0532 15.0842 14.6756 15.0842H12.9539Z" fill="#4F5052" stroke="#4F5052" stroke-width="0.2"/>
</svg>
