<svg width="34" height="35" viewBox="0 0 34 35" fill="none" xmlns="http://www.w3.org/2000/svg">
<path d="M15.4262 1.03516C11.4551 1.42031 7.81602 3.13359 4.99375 5.94922C2.31094 8.63203 0.690625 11.9258 0.119531 15.877C0.053125 16.3418 0.0332031 18.4137 0.0332031 25.2734V34.0723L0.192578 34.3246C0.278906 34.4641 0.471484 34.6566 0.617578 34.7562L0.889844 34.9355H9.68867C16.5551 34.9355 18.627 34.9156 19.0918 34.8492C23.0363 34.2781 26.3102 32.6711 29.0063 29.9883C31.6426 27.352 33.2563 24.1312 33.8473 20.293C34.0066 19.2238 34.0066 16.7137 33.8473 15.6445C33.2563 11.8129 31.6559 8.61211 29.0195 5.9625C26.4031 3.33945 23.1426 1.70586 19.3906 1.13477C18.5605 1.00859 16.2828 0.955467 15.4262 1.03516ZM19.1582 3.79102C22.2262 4.26914 24.9289 5.64375 27.127 7.8418C29.3449 10.0598 30.6996 12.7426 31.191 15.877C31.2707 16.3949 31.3039 17.0059 31.3039 17.9688C31.3039 18.9316 31.2707 19.5426 31.191 20.0605C30.6996 23.1949 29.3449 25.8777 27.127 28.0957C24.9422 30.2805 22.3656 31.5953 19.1914 32.1598C18.6336 32.2527 17.6574 32.2727 10.6051 32.2926L2.64961 32.3191L2.67617 24.3637C2.69609 17.3113 2.71602 16.3352 2.80898 15.7773C3.37344 12.6031 4.68828 10.0266 6.87305 7.8418C9.3168 5.39805 12.2188 4.04336 15.8379 3.66484C16.3758 3.61172 18.5141 3.69141 19.1582 3.79102Z" fill="#D9D9D9"/>
<path d="M15.7516 10.339C13.8789 10.6245 12.4313 11.7933 12.252 13.1612C12.1391 13.9847 12.7367 14.6554 13.5801 14.662C14.025 14.6687 14.1778 14.5624 14.6426 13.9448C15.2602 13.1214 15.8246 12.8757 16.9336 12.9355C18.1821 13.0085 18.8926 13.6792 18.7598 14.6687C18.6668 15.3859 18.3082 15.8441 17.0996 16.8136C16.1102 17.6038 15.6653 18.2148 15.3598 19.2109C15.2735 19.503 15.2403 19.8218 15.2403 20.5257C15.2403 21.5683 15.3199 21.8273 15.7117 22.0132C15.984 22.146 16.6149 22.1859 17.0399 22.0929C17.4715 21.9933 17.7969 21.6745 17.7969 21.3359C17.8035 21.2163 17.8301 20.8312 17.8567 20.4792C17.9364 19.6093 18.1555 19.1909 18.886 18.5402C20.3801 17.212 20.8117 16.7206 21.2766 15.7976C22.4586 13.48 21.1571 11.1226 18.3215 10.4319C17.7969 10.3058 16.316 10.2527 15.7516 10.339Z" fill="#D9D9D9"/>
<path d="M16.0231 23.8387C15.1532 24.1176 14.6883 24.8083 14.7614 25.7114C14.8743 27.179 16.5876 27.8364 17.67 26.8204C18.0286 26.4883 18.261 25.977 18.261 25.5387C18.261 24.9079 17.7563 24.1575 17.1719 23.9118C16.8333 23.7657 16.3352 23.7391 16.0231 23.8387Z" fill="#D9D9D9"/>
</svg>
