<svg width="24" height="24" viewBox="0 0 24 24" fill="none" xmlns="http://www.w3.org/2000/svg">
<path d="M14 7.00087C14 7.39641 13.8827 7.78307 13.663 8.11195C13.4432 8.44083 13.1308 8.69716 12.7654 8.84853C12.3999 8.9999 11.9978 9.0395 11.6099 8.96234C11.2219 8.88517 10.8655 8.6947 10.5858 8.41501C10.3061 8.13532 10.1156 7.77897 10.0385 7.39103C9.96129 7.00308 10.0009 6.60097 10.1523 6.23554C10.3037 5.8701 10.56 5.55776 10.8889 5.33801C11.2178 5.11826 11.6045 5.00097 12 5.00097C12.5305 5.00097 13.0392 5.21167 13.4142 5.58672C13.7893 5.96178 14 6.47046 14 7.00087ZM16.958 12.1846L13.9 15.2154C13.6519 15.4656 13.3567 15.6641 13.0315 15.7996C12.7062 15.9351 12.3574 16.0049 12.005 16.0049C11.6527 16.0049 11.3038 15.9351 10.9786 15.7996C10.6533 15.6641 10.3582 15.4656 10.11 15.2154L7.05404 12.2006C5.7418 10.8478 5.00692 9.0379 5.00468 7.15329C5.00244 5.26867 5.73302 3.457 7.04204 2.10112C7.68541 1.43644 8.45586 0.907912 9.3076 0.546959C10.1593 0.186006 11.075 0 12 0C12.9251 0 13.8407 0.186006 14.6925 0.546959C15.5442 0.907912 16.3147 1.43644 16.958 2.10112C18.2651 3.45408 18.9956 5.26172 18.9956 7.14286C18.9956 9.024 18.2651 10.8316 16.958 12.1846ZM16 7.00087C16 6.20978 15.7654 5.43646 15.3259 4.7787C14.8864 4.12094 14.2617 3.60827 13.5308 3.30554C12.7999 3.0028 11.9956 2.92359 11.2197 3.07793C10.4437 3.23226 9.73102 3.6132 9.17161 4.17258C8.6122 4.73197 8.23124 5.44466 8.0769 6.22054C7.92256 6.99643 8.00177 7.80065 8.30452 8.53152C8.60727 9.26239 9.11996 9.88707 9.77775 10.3266C10.4355 10.7661 11.2089 11.0007 12 11.0007C13.0609 11.0007 14.0783 10.5793 14.8284 9.82915C15.5786 9.07904 16 8.06168 16 7.00087ZM20.753 9.20075C20.388 10.8534 19.5694 12.3715 18.389 13.5845L15.311 16.6374C14.878 17.0714 14.3637 17.4159 13.7974 17.6512C13.2312 17.8864 12.6242 18.0078 12.011 18.0083C11.3982 18.0085 10.7914 17.888 10.2251 17.6536C9.65891 17.4193 9.14441 17.0756 8.71104 16.6424L5.64805 13.6195C4.48319 12.4238 3.66566 10.9336 3.28305 9.30875C2.63355 9.54681 2.03968 9.91536 1.53806 10.3917C1.04911 10.8565 0.660434 11.4165 0.395939 12.0371C0.131445 12.6577 -0.00327712 13.3259 6.05317e-05 14.0005V18.0753C0.00216212 19.1566 0.353852 20.2082 1.00265 21.0732C1.65145 21.9382 2.56257 22.5703 3.60005 22.8751L6.47004 23.775C6.95211 23.925 7.45417 24.0009 7.95904 24C8.41703 23.9994 8.87283 23.9368 9.31404 23.814L15.094 22.1041C15.6089 21.963 16.1522 21.963 16.667 22.1041L19.054 22.904C19.6423 23.0472 20.2554 23.055 20.8472 22.9268C21.4389 22.7986 21.9938 22.5377 22.4701 22.1638C22.9463 21.7899 23.3314 21.3128 23.5965 20.7685C23.8615 20.2241 23.9995 19.6267 24 19.0212V13.8725C23.9966 12.8564 23.6842 11.8653 23.1042 11.0309C22.5243 10.1965 21.7043 9.55819 20.753 9.20075Z" fill="#4F5052"/>
</svg>
