<svg width="26" height="24" viewBox="0 0 26 24" fill="none" xmlns="http://www.w3.org/2000/svg">
<path d="M2.84125 0C2.0877 0 1.36502 0.299345 0.832183 0.832183C0.299345 1.36502 0 2.0877 0 2.84125V17.9946C5.61566e-05 18.7022 0.264146 19.3843 0.740594 19.9075C1.21704 20.4306 1.87156 20.7572 2.57607 20.8232C2.72149 21.7085 3.1764 22.5135 3.8598 23.0948C4.5432 23.6761 5.41072 23.996 6.30791 23.9975C7.20509 23.999 8.07369 23.6821 8.75905 23.1031C9.44441 22.5241 9.90204 21.7207 10.0504 20.8358H12.6796C12.8273 21.7201 13.2838 22.5233 13.968 23.1027C14.6521 23.682 15.5196 24 16.4161 24C17.3126 24 18.1801 23.682 18.8643 23.1027C19.5484 22.5233 20.005 21.7201 20.1527 20.8358H22.4143C22.7874 20.8358 23.1569 20.7623 23.5016 20.6196C23.8463 20.4768 24.1595 20.2675 24.4234 20.0037C24.6872 19.7398 24.8965 19.4266 25.0393 19.0819C25.1821 18.7372 25.2556 18.3677 25.2556 17.9946V11.1592C25.2554 10.7385 25.1618 10.3232 24.9815 9.94311L22.8361 5.41353C22.6059 4.92742 22.2424 4.51664 21.788 4.22894C21.3335 3.94124 20.8067 3.78845 20.2689 3.78833H18.3103V2.84125C18.3103 2.0877 18.0109 1.36502 17.4781 0.832183C16.9453 0.299345 16.2226 0 15.469 0H2.84125ZM19.9898 18.9417C19.6876 18.0904 19.0922 17.3746 18.3103 16.9225V11.9964H23.3614V15.7847H21.7829C21.5317 15.7847 21.2908 15.8845 21.1132 16.0621C20.9356 16.2397 20.8358 16.4806 20.8358 16.7318C20.8358 16.983 20.9356 17.2239 21.1132 17.4015C21.2908 17.5791 21.5317 17.6789 21.7829 17.6789H23.3614V17.9946C23.3614 18.2458 23.2616 18.4867 23.084 18.6643C22.9064 18.8419 22.6655 18.9417 22.4143 18.9417H19.9898ZM16.4161 16.4161C15.6324 16.4159 14.8679 16.6586 14.2279 17.1109C13.5879 17.5632 13.1039 18.2029 12.8425 18.9417H9.88755C9.62666 18.203 9.14323 17.5633 8.5038 17.1106C7.86437 16.658 7.10037 16.4146 6.31694 16.4141C5.53351 16.4135 4.76916 16.6558 4.12909 17.1075C3.48902 17.5593 3.00469 18.1983 2.74275 18.9366C2.50988 18.9123 2.29428 18.8025 2.13757 18.6286C1.98086 18.4546 1.89415 18.2287 1.89417 17.9946V2.84125C1.89417 2.59007 1.99395 2.34917 2.17156 2.17156C2.34917 1.99395 2.59007 1.89417 2.84125 1.89417H15.469C15.7202 1.89417 15.9611 1.99395 16.1387 2.17156C16.3163 2.34917 16.4161 2.59007 16.4161 2.84125V16.4161ZM18.3103 5.6825H20.2676C20.4472 5.68222 20.6231 5.733 20.7749 5.82892C20.9267 5.92484 21.0482 6.06194 21.125 6.22423L22.9611 10.1022H18.3103V5.6825ZM6.31389 22.0986C5.81153 22.0986 5.32974 21.8991 4.97451 21.5438C4.61929 21.1886 4.41972 20.7068 4.41972 20.2044C4.41972 19.7021 4.61929 19.2203 4.97451 18.8651C5.32974 18.5098 5.81153 18.3103 6.31389 18.3103C6.81625 18.3103 7.29804 18.5098 7.65327 18.8651C8.00849 19.2203 8.20806 19.7021 8.20806 20.2044C8.20806 20.7068 8.00849 21.1886 7.65327 21.5438C7.29804 21.8991 6.81625 22.0986 6.31389 22.0986V22.0986ZM18.3103 20.2044C18.3103 20.7068 18.1107 21.1886 17.7555 21.5438C17.4003 21.8991 16.9185 22.0986 16.4161 22.0986C15.9138 22.0986 15.432 21.8991 15.0767 21.5438C14.7215 21.1886 14.5219 20.7068 14.5219 20.2044C14.5219 19.7021 14.7215 19.2203 15.0767 18.8651C15.432 18.5098 15.9138 18.3103 16.4161 18.3103C16.9185 18.3103 17.4003 18.5098 17.7555 18.8651C18.1107 19.2203 18.3103 19.7021 18.3103 20.2044Z" fill="#4F5052"/>
</svg>
