<svg width="140" height="140" viewBox="0 0 140 140" fill="none" xmlns="http://www.w3.org/2000/svg">
<rect x="1" y="1" width="140" height="140" rx="70" fill="#F6F6F6" stroke="#A42C24" stroke-dasharray="4 4"/>

<path d="M70.0001 0C31.3601 0 0.00012207 31.36 0.00012207 70C0.00012207 108.64 31.3601 140 70.0001 140C108.64 140 140 108.64 140 70C140 31.36 108.64 0 70.0001 0ZM70.0001 21C81.6201 21 91.0001 30.38 91.0001 42C91.0001 53.62 81.6201 63 70.0001 63C58.3801 63 49.0001 53.62 49.0001 42C49.0001 30.38 58.3801 21 70.0001 21ZM70.0001 120.4C52.5001 120.4 37.0301 111.44 28.0001 97.86C28.2101 83.93 56.0001 76.3 70.0001 76.3C83.9301 76.3 111.79 83.93 112 97.86C102.97 111.44 87.5001 120.4 70.0001 120.4Z" fill="black" fill-opacity="0.1"/>
</svg>
