<svg width="54" height="54" viewBox="0 0 54 54" fill="none" xmlns="http://www.w3.org/2000/svg">
<path d="M51.4227 27C51.4227 41.6542 40.005 53.5 25.9614 53.5C11.9177 53.5 0.5 41.6542 0.5 27C0.5 12.3458 11.9177 0.5 25.9614 0.5C40.005 0.5 51.4227 12.3458 51.4227 27Z" fill="white" stroke="#D9D9D9"/>
<path d="M39.3048 9.1125H35.6429V7.0875C35.6429 6.55044 35.45 6.03537 35.1067 5.65561C34.7633 5.27585 34.2976 5.0625 33.812 5.0625C33.3264 5.0625 32.8607 5.27585 32.5174 5.65561C32.174 6.03537 31.9811 6.55044 31.9811 7.0875V9.1125H20.9956V7.0875C20.9956 6.55044 20.8027 6.03537 20.4593 5.65561C20.116 5.27585 19.6503 5.0625 19.1647 5.0625C18.6791 5.0625 18.2134 5.27585 17.87 5.65561C17.5267 6.03537 17.3338 6.55044 17.3338 7.0875V9.1125H13.6719C12.2152 9.1125 10.8181 9.75254 9.78799 10.8918C8.7579 12.0311 8.1792 13.5763 8.1792 15.1875V39.4875C8.1792 41.0987 8.7579 42.6439 9.78799 43.7832C10.8181 44.9225 12.2152 45.5625 13.6719 45.5625H39.3048C40.7615 45.5625 42.1586 44.9225 43.1887 43.7832C44.2188 42.6439 44.7975 41.0987 44.7975 39.4875V15.1875C44.7975 13.5763 44.2188 12.0311 43.1887 10.8918C42.1586 9.75254 40.7615 9.1125 39.3048 9.1125ZM41.1357 39.4875C41.1357 40.0246 40.9428 40.5396 40.5994 40.9194C40.2561 41.2992 39.7904 41.5125 39.3048 41.5125H13.6719C13.1864 41.5125 12.7207 41.2992 12.3773 40.9194C12.0339 40.5396 11.841 40.0246 11.841 39.4875V25.3125H41.1357V39.4875ZM41.1357 21.2625H11.841V15.1875C11.841 14.6504 12.0339 14.1354 12.3773 13.7556C12.7207 13.3758 13.1864 13.1625 13.6719 13.1625H17.3338V15.1875C17.3338 15.7246 17.5267 16.2396 17.87 16.6194C18.2134 16.9992 18.6791 17.2125 19.1647 17.2125C19.6503 17.2125 20.116 16.9992 20.4593 16.6194C20.8027 16.2396 20.9956 15.7246 20.9956 15.1875V13.1625H31.9811V15.1875C31.9811 15.7246 32.174 16.2396 32.5174 16.6194C32.8607 16.9992 33.3264 17.2125 33.812 17.2125C34.2976 17.2125 34.7633 16.9992 35.1067 16.6194C35.45 16.2396 35.6429 15.7246 35.6429 15.1875V13.1625H39.3048C39.7904 13.1625 40.2561 13.3758 40.5994 13.7556C40.9428 14.1354 41.1357 14.6504 41.1357 15.1875V21.2625Z" fill="#037022"/>
<ellipse cx="41.7471" cy="40.5" rx="12.2061" ry="13.5" fill="white"/>
<path d="M41.4493 35.4375V40.5968L38.6958 43.6421L40.1341 45.2329L43.4836 41.5282V35.4375H41.4493Z" fill="#4F5052"/>
<path d="M46.3716 53.0168H46.3381C46.0807 53.0121 45.8267 52.9499 45.5916 52.8339C45.3565 52.7179 45.145 52.5505 44.97 52.3418L41.7476 48.672L43.2184 47.1173L46.3767 50.7172L52.5622 43.875L54.0005 45.4624L47.7336 52.3946C47.5553 52.5932 47.3431 52.7504 47.1092 52.8572C46.8754 52.964 46.6246 53.0183 46.3716 53.0168V53.0168Z" fill="#4F5052"/>
<path d="M41.6448 27C38.5135 27.029 35.5121 28.388 33.2612 30.7958C31.0104 33.2035 29.6823 36.476 29.5517 39.9363C29.421 43.3967 30.4978 46.7802 32.5593 49.3871C34.6209 51.994 37.5094 53.625 40.6276 53.9426V51.6926C38.6237 51.4716 36.7241 50.5981 35.1691 49.1827C33.6142 47.7672 32.4738 45.8734 31.8923 43.741C31.3108 41.6085 31.3143 39.3332 31.9024 37.2029C32.4905 35.0726 33.6367 33.1831 35.196 31.7736C36.7553 30.364 38.6576 29.4977 40.6622 29.2842C42.6668 29.0708 44.6836 29.5198 46.4574 30.5745C48.2312 31.6292 49.6823 33.2421 50.627 35.2091C51.5717 37.1762 51.9677 39.409 51.7647 41.625H53.799C53.8275 41.2526 53.8509 40.8803 53.8509 40.5C53.8474 36.9208 52.5603 33.4892 50.272 30.9583C47.9836 28.4274 44.881 27.0039 41.6448 27V27Z" fill="#4F5052"/>
</svg>
