<svg width="25" height="27" viewBox="0 0 25 27" fill="none" xmlns="http://www.w3.org/2000/svg">
<ellipse cx="12.7471" cy="13.5" rx="12.2061" ry="13.5" fill="white"/>
<path d="M12.4493 8.4375V13.5968L9.6958 16.6421L11.1341 18.2329L14.4836 14.5282V8.4375H12.4493Z" fill="#4F5052"/>
<path d="M17.3716 26.0168H17.3381C17.0807 26.0121 16.8267 25.9499 16.5916 25.8339C16.3565 25.7179 16.145 25.5505 15.97 25.3418L12.7476 21.672L14.2184 20.1173L17.3767 23.7172L23.5622 16.875L25.0005 18.4624L18.7336 25.3946C18.5553 25.5932 18.3431 25.7504 18.1092 25.8572C17.8754 25.964 17.6246 26.0183 17.3716 26.0168Z" fill="#4F5052"/>
<path d="M12.6448 0C9.51351 0.0290345 6.51207 1.38797 4.26122 3.79575C2.01037 6.20354 0.682291 9.47599 0.551652 12.9363C0.421013 16.3967 1.4978 19.7802 3.55933 22.3871C5.62086 24.994 8.50942 26.625 11.6276 26.9426V24.6926C9.62369 24.4716 7.72407 23.5981 6.16913 22.1827C4.61419 20.7672 3.47382 18.8734 2.89233 16.741C2.31083 14.6085 2.31434 12.3332 2.90241 10.2029C3.49049 8.07261 4.63669 6.18315 6.19599 4.77358C7.75529 3.36401 9.6576 2.49769 11.6622 2.28425C13.6668 2.0708 15.6836 2.51982 17.4574 3.57449C19.2312 4.62915 20.6823 6.24206 21.627 8.20913C22.5717 10.1762 22.9677 12.409 22.7647 14.625H24.799C24.8275 14.2526 24.8509 13.8803 24.8509 13.5C24.8474 9.92077 23.5603 6.48924 21.272 3.95833C18.9836 1.42743 15.881 0.00387122 12.6448 0V0Z" fill="#4F5052"/>
</svg>
