<svg width="24" height="20" viewBox="0 0 24 20" fill="none" xmlns="http://www.w3.org/2000/svg">
<path fill-rule="evenodd" clip-rule="evenodd" d="M15.531 7.53798C15.6008 7.62243 15.6562 7.72275 15.694 7.8332C15.7318 7.94364 15.7513 8.06204 15.7513 8.18162C15.7513 8.3012 15.7318 8.4196 15.694 8.53004C15.6562 8.64049 15.6008 8.74081 15.531 8.82526L11.031 14.2798C10.9613 14.3645 10.8785 14.4316 10.7874 14.4775C10.6963 14.5233 10.5986 14.5469 10.5 14.5469C10.4013 14.5469 10.3036 14.5233 10.2125 14.4775C10.1214 14.4316 10.0386 14.3645 9.96897 14.2798L7.71897 11.5525C7.64924 11.468 7.59392 11.3677 7.55619 11.2572C7.51845 11.1468 7.49902 11.0284 7.49902 10.9089C7.49902 10.7894 7.51845 10.671 7.55619 10.5606C7.59392 10.4501 7.64924 10.3498 7.71897 10.2653C7.7887 10.1807 7.87149 10.1137 7.9626 10.0679C8.0537 10.0222 8.15136 9.99865 8.24997 9.99865C8.34859 9.99865 8.44624 10.0222 8.53735 10.0679C8.62846 10.1137 8.71124 10.1807 8.78097 10.2653L10.5 12.3507L14.469 7.53798C14.5386 7.45332 14.6214 7.38615 14.7125 7.34032C14.8036 7.29449 14.9013 7.2709 15 7.2709C15.0986 7.2709 15.1963 7.29449 15.2874 7.34032C15.3785 7.38615 15.4613 7.45332 15.531 7.53798Z" fill="#0FA958"/>
<path d="M6.609 2.44C8.10822 0.872973 10.0204 0.00752457 12 0C16.035 0 19.3845 3.63636 19.749 8.32545C22.137 8.73455 24 11.1582 24 14.1327C24 17.3982 21.753 20 19.0305 20H5.6715C2.562 20 0 17.0291 0 13.3055C0 10.1 1.899 7.44545 4.413 6.77273C4.6275 5.20364 5.46 3.64 6.609 2.44ZM7.5885 3.81636C6.453 5.00364 5.859 6.43455 5.859 7.55455V8.36909L5.1915 8.45818C3.096 8.73636 1.5 10.8218 1.5 13.3055C1.5 15.9727 3.345 18.1818 5.6715 18.1818H19.0305C20.97 18.1818 22.5 16.3418 22.5 14.1327C22.5 11.9218 20.97 10.0818 19.0305 10.0818H18.2805V9.17273C18.282 5.13636 15.492 1.81818 12 1.81818C10.3798 1.82603 8.81526 2.53533 7.5885 3.81818V3.81636Z" fill="#0FA958"/>
</svg>
