<svg width="56" height="48" viewBox="0 0 56 48" fill="none" xmlns="http://www.w3.org/2000/svg">
<path d="M7.52579 0.0505466C3.59582 0.878494 0.837168 3.79997 0.125612 7.90422C-0.0823809 9.07517 -0.0276458 10.8612 0.256976 11.9848C0.497811 12.9784 1.08895 14.3031 1.65819 15.1547C1.92092 15.5568 3.6615 17.5202 5.52249 19.531L8.89417 23.1621L12.4629 19.2944C16.2615 15.1783 16.6009 14.717 17.2139 12.9547C19.0202 7.75046 16.2943 1.87203 11.3572 0.334415C10.5472 0.086031 8.21545 -0.0913868 7.52579 0.0505466ZM10.0546 6.83972C10.9741 7.34831 11.5762 8.40099 11.5762 9.50098C11.5762 11.7128 9.343 13.1558 7.53674 12.1031C6.58435 11.5354 6.10268 10.6601 6.10268 9.46549C6.10268 7.28917 8.25924 5.85801 10.0546 6.83972Z" fill="#0899D8"/>
<path d="M16.9397 21.3756V23.1616H22.5556C28.7516 23.1616 29.1676 23.2089 30.1637 23.8712C32.9443 25.7164 32.7034 30.0809 29.7477 31.6066L29.0362 31.9733L20.0596 32.0443C10.0322 32.1152 10.6999 32.0561 8.94843 32.9905C7.14217 33.9604 5.67527 35.9593 5.16076 38.1829C4.77761 39.8033 5.0075 42.1216 5.70811 43.6001C6.6605 45.6344 8.48865 47.1957 10.5686 47.7753C11.3568 47.9882 11.9151 48 25.2266 48H39.0527V46.2258V44.4517L25.1828 44.428L11.302 44.3925L10.6343 44.0613C9.58335 43.5409 8.6857 42.3936 8.39013 41.2345C7.84278 39.0463 8.91559 36.7754 10.897 35.912L11.521 35.6399L20.5523 35.5808L29.5835 35.5098L30.4484 35.1786C32.7034 34.2916 34.4769 32.2572 35.1775 29.726C35.484 28.626 35.4621 26.5562 35.1337 25.4089C34.3564 22.7003 32.4626 20.7014 29.912 19.8971C29.3318 19.7078 28.5764 19.6842 23.1029 19.6487L16.9397 19.6014V21.3756Z" fill="#7D7C83"/>
<path d="M45.2603 25.0067C42.5563 25.6572 40.3122 27.5615 39.108 30.2346C37.8163 33.0851 37.9367 36.5034 39.4474 39.3066C39.8853 40.1108 40.4764 40.8205 43.5306 44.1323L47.0993 48L50.5258 44.3097C52.4196 42.2753 54.1602 40.3001 54.401 39.9098C57.8822 34.4571 55.4191 27.0056 49.5405 25.1605C48.4677 24.8293 46.3112 24.7465 45.2603 25.0067ZM47.6686 31.4411C48.4349 31.6303 49.1464 32.2335 49.5077 33.026C49.7595 33.5937 49.8033 33.7948 49.7595 34.5045C49.7047 35.569 49.2997 36.3141 48.4896 36.8345C47.7452 37.3195 47.0993 37.4259 46.355 37.1894C43.6073 36.3259 43.662 32.1625 46.4425 31.4292C46.9242 31.3109 47.0884 31.3109 47.6686 31.4411Z" fill="#DD1100"/>
</svg>
