<svg width="30" height="30" viewBox="0 0 30 30" fill="none" xmlns="http://www.w3.org/2000/svg">
<circle cx="15" cy="15" r="15" fill="#E75E41" fill-opacity="0.2"/>
<path d="M17.3333 11.6246C18.043 12.0341 18.6323 12.6232 19.0419 13.3328C19.4515 14.0424 19.667 14.8473 19.6667 15.6666V20.9999H16.8867C16.7489 21.3903 16.4935 21.7283 16.1556 21.9674C15.8177 22.2065 15.414 22.3349 15 22.3349C14.5861 22.3349 14.1823 22.2065 13.8444 21.9674C13.5065 21.7283 13.2511 21.3903 13.1133 20.9999H10.3333V15.6666C10.333 14.8473 10.5485 14.0424 10.9582 13.3328C11.3678 12.6232 11.957 12.0341 12.6667 11.6246C12.5571 11.4278 12.4731 11.2179 12.4167 10.9999H10.3333V9.6666H12.4173C12.5656 9.09444 12.8997 8.58772 13.3672 8.22598C13.8346 7.86424 14.4089 7.66797 15 7.66797C15.5911 7.66797 16.1654 7.86424 16.6329 8.22598C17.1003 8.58772 17.4344 9.09444 17.5827 9.6666H19.6667V10.9999H17.5827C17.5263 11.2178 17.4428 11.4276 17.334 11.6246H17.3333ZM16.3647 12.6246C15.9522 12.8711 15.4805 13.0008 15 12.9999C14.5195 13.0007 14.0479 12.8709 13.6353 12.6246C13.0488 12.8879 12.551 13.3151 12.2017 13.8548C11.8524 14.3945 11.6666 15.0237 11.6667 15.6666V19.6666H13V16.9999C13 16.4695 13.2107 15.9608 13.5858 15.5857C13.9609 15.2106 14.4696 14.9999 15 14.9999C15.5304 14.9999 16.0392 15.2106 16.4142 15.5857C16.7893 15.9608 17 16.4695 17 16.9999V19.6666H18.3333V15.6666C18.3334 15.0237 18.1476 14.3945 17.7983 13.8548C17.4491 13.3151 16.9512 12.8879 16.3647 12.6246ZM15 16.3333C14.8232 16.3333 14.6536 16.4035 14.5286 16.5285C14.4036 16.6536 14.3333 16.8231 14.3333 16.9999V20.3333C14.3333 20.5101 14.4036 20.6796 14.5286 20.8047C14.6536 20.9297 14.8232 20.9999 15 20.9999C15.1768 20.9999 15.3464 20.9297 15.4714 20.8047C15.5964 20.6796 15.6667 20.5101 15.6667 20.3333V16.9999C15.6667 16.8231 15.5964 16.6536 15.4714 16.5285C15.3464 16.4035 15.1768 16.3333 15 16.3333ZM15 11.6666C15.3536 11.6666 15.6928 11.5261 15.9428 11.2761C16.1929 11.026 16.3333 10.6869 16.3333 10.3333C16.3333 9.97964 16.1929 9.6405 15.9428 9.39046C15.6928 9.14041 15.3536 8.99993 15 8.99993C14.6464 8.99993 14.3073 9.14041 14.0572 9.39046C13.8072 9.6405 13.6667 9.97964 13.6667 10.3333C13.6667 10.6869 13.8072 11.026 14.0572 11.2761C14.3073 11.5261 14.6464 11.6666 15 11.6666Z" fill="#770000"/>
</svg>
