<svg width="36" height="36" viewBox="0 0 36 36" fill="none" xmlns="http://www.w3.org/2000/svg">
<rect width="36" height="36" rx="4" fill="#1D70EC" fill-opacity="0.2"/>
<g clip-path="url(#clip0_215_4670)">
<path d="M28.5691 19.6621L26.6691 12.8261C26.1122 10.8234 24.9019 9.06434 23.2305 7.82853C21.5591 6.59271 19.5226 5.95104 17.4446 6.00552C15.3667 6.06 13.3666 6.8075 11.7622 8.1292C10.1579 9.45091 9.04135 11.271 8.59014 13.3001L7.11914 19.9151C6.95666 20.646 6.96041 21.4041 7.13013 22.1334C7.29986 22.8627 7.63121 23.5445 8.09972 24.1286C8.56824 24.7127 9.16196 25.1841 9.83705 25.508C10.5121 25.8319 11.2514 26.0001 12.0001 26.0001H13.1141C13.3437 27.1303 13.9569 28.1465 14.8499 28.8764C15.7429 29.6063 16.8608 30.0051 18.0141 30.0051C19.1675 30.0051 20.2854 29.6063 21.1784 28.8764C22.0714 28.1465 22.6846 27.1303 22.9141 26.0001H23.7521C24.523 26.0001 25.2833 25.822 25.9739 25.4795C26.6645 25.137 27.2665 24.6396 27.733 24.0259C28.1994 23.4123 28.5177 22.6991 28.6629 21.9421C28.8082 21.1851 28.7764 20.4048 28.5701 19.6621H28.5691ZM18.0141 28.0001C17.3959 27.9975 16.7935 27.804 16.2894 27.446C15.7854 27.088 15.4042 26.583 15.1981 26.0001H20.8301C20.6241 26.583 20.2429 27.088 19.7388 27.446C19.2348 27.804 18.6324 27.9975 18.0141 28.0001ZM26.1401 22.8151C25.8615 23.1847 25.5005 23.4843 25.0857 23.69C24.671 23.8957 24.2141 24.0019 23.7511 24.0001H12.0001C11.5509 24 11.1075 23.899 10.7025 23.7046C10.2975 23.5103 9.94135 23.2274 9.6603 22.877C9.37926 22.5265 9.1805 22.1174 9.0787 21.6799C8.9769 21.2424 8.97466 20.7876 9.07214 20.3491L10.5421 13.7331C10.8965 12.1393 11.7734 10.7097 13.0336 9.67151C14.2937 8.63335 15.8648 8.04623 17.4969 8.00347C19.1291 7.96071 20.7287 8.46477 22.0414 9.43553C23.3542 10.4063 24.3048 11.788 24.7421 13.3611L26.6421 20.1971C26.7677 20.6424 26.7877 21.1109 26.7005 21.5654C26.6134 22.0198 26.4215 22.4477 26.1401 22.8151Z" fill="#1D70EC"/>
</g>
<defs>
<clipPath id="clip0_215_4670">
<rect width="24" height="24" fill="white" transform="translate(6 6)"/>
</clipPath>
</defs>
</svg>
