<svg width="70" height="70" viewBox="0 0 70 70" fill="none" xmlns="http://www.w3.org/2000/svg">
<rect width="70" height="70" rx="35" fill="#FCFCFC"/>
<rect x="0.5" y="0.5" width="69" height="69" rx="34.5" stroke="#7D7C83" stroke-opacity="0.2"/>
<path d="M24.434 20.02C17.1132 23.913 15 25.2971 15 26.6813C15 28.2384 15.6792 28.325 35 28.325C54.2453 28.325 55 28.2384 55 26.6813C55 25.2971 52.8868 23.913 45.2642 19.9335C39.9057 17.1652 35.1509 14.916 34.6981 15.0025C34.2453 15.0025 29.6415 17.2517 24.434 20.02Z" fill="#A42C24"/>
<path d="M17.113 31.8688C16.8111 32.7339 17.1885 33.772 17.8677 34.3776C19.7545 35.9347 19.7545 50.9874 17.8677 52.5446C17.1885 53.1501 16.8111 54.1883 17.113 55.0533C17.5659 56.2645 19.5281 56.4375 34.9998 56.4375C50.4715 56.4375 52.4338 56.2645 52.8866 55.0533C53.1885 54.1883 52.8111 53.1501 52.1319 52.5446C50.396 51.0739 50.2451 34.8101 51.9055 34.8101C53.3394 34.8101 53.9432 32.6474 52.8866 31.4362C52.3583 30.8307 46.547 30.4846 34.8489 30.4846C19.5281 30.4846 17.5659 30.6577 17.113 31.8688ZM28.2074 43.4611V52.112H25.5659H22.9243V43.4611V34.8101H25.5659H28.2074V43.4611ZM38.0187 43.4611V52.112H34.9998H31.9809V43.4611V34.8101H34.9998H38.0187V43.4611ZM47.0753 43.4611V52.112H44.4338H41.7923V43.4611V34.8101H44.4338H47.0753V43.4611Z" fill="#A42C24"/>
</svg>
