<svg width="18" height="18" viewBox="0 0 18 18" fill="none" xmlns="http://www.w3.org/2000/svg">
<g clip-path="url(#clip0_215_2363)">
<path d="M12.773 7.14823C12.8786 7.04261 12.9379 6.89935 12.9379 6.74998C12.9379 6.60061 12.8786 6.45735 12.773 6.35173C12.6674 6.24611 12.5241 6.18677 12.3747 6.18677C12.2254 6.18677 12.0821 6.24611 11.9765 6.35173L8.99973 9.3296L7.71048 8.03923C7.65819 7.98693 7.5961 7.94544 7.52777 7.91714C7.45943 7.88884 7.3862 7.87427 7.31223 7.87427C7.23827 7.87427 7.16503 7.88884 7.0967 7.91714C7.02837 7.94544 6.96628 7.98693 6.91398 8.03923C6.86169 8.09153 6.8202 8.15361 6.7919 8.22195C6.76359 8.29028 6.74902 8.36352 6.74902 8.43748C6.74902 8.51144 6.76359 8.58468 6.7919 8.65301C6.8202 8.72134 6.86169 8.78343 6.91398 8.83573L8.60148 10.5232C8.65374 10.5756 8.71581 10.6172 8.78415 10.6455C8.85248 10.6739 8.92575 10.6885 8.99973 10.6885C9.07372 10.6885 9.14698 10.6739 9.21532 10.6455C9.28366 10.6172 9.34573 10.5756 9.39798 10.5232L12.773 7.14823Z" fill="#333333"/>
<path d="M0.5625 1.125C0.413316 1.125 0.270242 1.18426 0.164752 1.28975C0.0592632 1.39524 0 1.53832 0 1.6875C0 1.83668 0.0592632 1.97976 0.164752 2.08525C0.270242 2.19074 0.413316 2.25 0.5625 2.25H1.81125L2.26237 4.05788L3.94763 13.041C3.97175 13.1699 4.04016 13.2863 4.14102 13.3701C4.24189 13.4539 4.36886 13.4999 4.5 13.5H5.625C5.02826 13.5 4.45597 13.7371 4.03401 14.159C3.61205 14.581 3.375 15.1533 3.375 15.75C3.375 16.3467 3.61205 16.919 4.03401 17.341C4.45597 17.7629 5.02826 18 5.625 18C6.22174 18 6.79403 17.7629 7.21599 17.341C7.63795 16.919 7.875 16.3467 7.875 15.75C7.875 15.1533 7.63795 14.581 7.21599 14.159C6.79403 13.7371 6.22174 13.5 5.625 13.5H13.5C12.9033 13.5 12.331 13.7371 11.909 14.159C11.4871 14.581 11.25 15.1533 11.25 15.75C11.25 16.3467 11.4871 16.919 11.909 17.341C12.331 17.7629 12.9033 18 13.5 18C14.0967 18 14.669 17.7629 15.091 17.341C15.5129 16.919 15.75 16.3467 15.75 15.75C15.75 15.1533 15.5129 14.581 15.091 14.159C14.669 13.7371 14.0967 13.5 13.5 13.5H14.625C14.7561 13.4999 14.8831 13.4539 14.984 13.3701C15.0848 13.2863 15.1532 13.1699 15.1774 13.041L16.8649 4.041C16.8801 3.95982 16.8772 3.87628 16.8565 3.79633C16.8357 3.71638 16.7977 3.64198 16.7449 3.5784C16.6922 3.51483 16.6261 3.46365 16.5514 3.42849C16.4767 3.39334 16.3951 3.37508 16.3125 3.375H3.25125L2.79562 1.55137C2.76526 1.42963 2.69506 1.32154 2.5962 1.24428C2.49733 1.16702 2.37547 1.12503 2.25 1.125H0.5625ZM4.96688 12.375L3.48975 4.5H15.6353L14.1581 12.375H4.96688ZM6.75 15.75C6.75 16.0484 6.63147 16.3345 6.4205 16.5455C6.20952 16.7565 5.92337 16.875 5.625 16.875C5.32663 16.875 5.04048 16.7565 4.8295 16.5455C4.61853 16.3345 4.5 16.0484 4.5 15.75C4.5 15.4516 4.61853 15.1655 4.8295 14.9545C5.04048 14.7435 5.32663 14.625 5.625 14.625C5.92337 14.625 6.20952 14.7435 6.4205 14.9545C6.63147 15.1655 6.75 15.4516 6.75 15.75ZM14.625 15.75C14.625 16.0484 14.5065 16.3345 14.2955 16.5455C14.0845 16.7565 13.7984 16.875 13.5 16.875C13.2016 16.875 12.9155 16.7565 12.7045 16.5455C12.4935 16.3345 12.375 16.0484 12.375 15.75C12.375 15.4516 12.4935 15.1655 12.7045 14.9545C12.9155 14.7435 13.2016 14.625 13.5 14.625C13.7984 14.625 14.0845 14.7435 14.2955 14.9545C14.5065 15.1655 14.625 15.4516 14.625 15.75Z" fill="#333333"/>
</g>
<defs>
<clipPath id="clip0_215_2363">
<rect width="18" height="18" fill="white"/>
</clipPath>
</defs>
</svg>
