<svg width="16" height="17" viewBox="0 0 16 17" fill="none" xmlns="http://www.w3.org/2000/svg">
<path d="M12.9937 1.77997H11.9746V1.15684C11.9746 0.803097 11.6858 0.5 11.3122 0.5C10.9385 0.5 10.6497 0.7863 10.6497 1.15684V1.77997H5.35039V1.15684C5.35039 0.803097 5.06166 0.5 4.68797 0.5C4.3143 0.5 4.02555 0.7863 4.02555 1.15684V1.77997H3.00639C1.34188 1.77997 0 3.11043 0 4.76104V13.5189C0 15.1694 1.35884 16.5 3.00639 16.5H12.9936C14.6581 16.5 16 15.1695 16 13.5189V4.76104C16 3.11055 14.6412 1.77997 12.9936 1.77997H12.9937ZM3.00651 3.07684H4.02567V3.69996C4.02567 4.05371 4.31441 4.3568 4.68809 4.3568C5.06176 4.3568 5.35051 4.0705 5.35051 3.69996V3.07684H10.6499V3.69996C10.6499 4.05371 10.9386 4.3568 11.3123 4.3568C11.6859 4.3568 11.9747 4.0705 11.9747 3.69996V3.07684H12.9939C13.9281 3.07684 14.6754 3.8347 14.6754 4.76104V5.61996H1.32514V4.76104C1.32514 3.8347 2.07239 3.07684 3.0066 3.07684H3.00651ZM12.9937 15.1863H3.00651C2.0723 15.1863 1.308 14.4284 1.308 13.5021V6.91683H14.6753V13.5021C14.6753 14.4452 13.928 15.1863 12.9938 15.1863H12.9937Z" fill="#4F5052"/>
<path d="M4.56978 8.44946H3.83948C3.31298 8.44946 2.90527 8.87051 2.90527 9.37581C2.90527 9.89788 3.3299 10.3022 3.83948 10.3022H4.56978C5.09629 10.3022 5.50399 9.8811 5.50399 9.37581C5.52093 8.87051 5.09632 8.44946 4.56978 8.44946Z" fill="#4F5052"/>
<path d="M8.37349 8.44946H7.64319C7.11669 8.44946 6.70898 8.87051 6.70898 9.37581C6.70898 9.89788 7.13361 10.3022 7.64319 10.3022H8.37349C8.9 10.3022 9.3077 9.8811 9.3077 9.37581C9.3077 8.87051 8.88307 8.44946 8.37349 8.44946Z" fill="#4F5052"/>
<path d="M12.1616 8.44946H11.4313C10.9048 8.44946 10.4971 8.87051 10.4971 9.37581C10.4971 9.89788 10.9217 10.3022 11.4313 10.3022H12.1616C12.6881 10.3022 13.0958 9.8811 13.0958 9.37581C13.1127 8.87051 12.6881 8.44946 12.1616 8.44946Z" fill="#4F5052"/>
<path d="M4.56978 11.7676H3.83948C3.31298 11.7676 2.90527 12.1886 2.90527 12.6939C2.90527 13.216 3.3299 13.6203 3.83948 13.6203H4.56978C5.09629 13.6203 5.50399 13.1992 5.50399 12.6939C5.52093 12.1886 5.09632 11.7676 4.56978 11.7676Z" fill="#4F5052"/>
<path d="M8.37349 11.7676H7.64319C7.11669 11.7676 6.70898 12.1886 6.70898 12.6939C6.70898 13.216 7.13361 13.6203 7.64319 13.6203H8.37349C8.9 13.6203 9.3077 13.1992 9.3077 12.6939C9.3077 12.1886 8.88307 11.7676 8.37349 11.7676Z" fill="#4F5052"/>
<path d="M12.1616 11.7676H11.4313C10.9048 11.7676 10.4971 12.1886 10.4971 12.6939C10.4971 13.216 10.9217 13.6203 11.4313 13.6203H12.1616C12.6881 13.6203 13.0958 13.1992 13.0958 12.6939C13.1127 12.1886 12.6881 11.7676 12.1616 11.7676Z" fill="#4F5052"/>
</svg>
