<svg width="16" height="17" viewBox="0 0 16 17" fill="none" xmlns="http://www.w3.org/2000/svg">
<path d="M14.0146 1.74283H11.9452V1.28772C11.9452 0.850079 11.6087 0.5 11.1881 0.5C10.7675 0.5 10.4311 0.850079 10.4311 1.28772V1.74283H5.53517V1.28772C5.53517 0.850079 5.19871 0.5 4.7781 0.5C4.35749 0.5 4.02103 0.850079 4.02103 1.28772V1.74283H1.96845C0.891693 1.74283 0 2.65315 0 3.79098V14.4519C0 15.5722 0.874899 16.5 1.96845 16.5H14.0315C15.1083 16.5 16 15.5897 16 14.4519V3.79098C15.9832 2.65318 15.1083 1.74283 14.0148 1.74283H14.0146ZM1.9683 3.31827H4.03767V3.77347C4.03767 4.21111 4.37413 4.56119 4.79474 4.56119C5.21535 4.56119 5.55181 4.21111 5.55181 3.77347V3.31836H10.4477L10.4478 3.77347C10.4478 4.21111 10.7843 4.56119 11.2049 4.56119C11.6255 4.56119 11.962 4.21111 11.962 3.77347V3.31836H14.0313C14.2837 3.31836 14.4856 3.52839 14.4856 3.79104V5.87411H1.51401V3.79092C1.51401 3.52838 1.71599 3.31824 1.9683 3.31824L1.9683 3.31827ZM14.0146 14.9244H1.9683C1.71599 14.9244 1.51402 14.7144 1.51402 14.4518V7.43204H14.4856V14.4518C14.4688 14.7144 14.2669 14.9244 14.0145 14.9244H14.0146Z" fill="#A42C24"/>
</svg>
