<svg width="40" height="40" viewBox="0 0 40 40" fill="none" xmlns="http://www.w3.org/2000/svg">
<g clip-path="url(#clip0_489_674)">
<path d="M14.3591 0.867214C13.656 0.945339 13.0154 1.28909 12.4294 1.91409C11.8591 2.52346 11.6248 2.92971 10.9763 4.45315C10.3123 6.01565 10.1482 6.28909 9.82788 6.39846C9.68726 6.45315 8.85132 6.56253 7.96851 6.64065C6.17945 6.81253 5.41382 6.9844 4.76538 7.38284C3.24195 8.31253 2.88257 9.77346 3.51538 12.4219C4.10913 14.9063 4.13257 14.7344 2.98413 15.7266C1.74976 16.7891 1.11695 17.4063 0.757571 17.8907C-0.101804 19.0391 -0.211179 20.3203 0.437258 21.5703C0.796633 22.25 1.28101 22.7813 2.57788 23.9063C3.17163 24.4219 3.7107 24.9297 3.78101 25.0391C3.9607 25.3203 3.93726 25.6016 3.59351 27.0469C3.22632 28.625 3.09351 29.5078 3.16382 30.0313C3.32788 31.3516 3.99195 32.2735 5.17163 32.8047C5.82788 33.1016 6.59351 33.25 8.26538 33.3985C9.00757 33.461 9.72632 33.5625 9.87476 33.625C10.1951 33.7578 10.3435 34 10.8982 35.3125C11.5623 36.8907 11.9294 37.5547 12.4451 38.1016C13.4607 39.1875 14.8044 39.4532 16.2888 38.8594C16.5701 38.7422 17.3044 38.3516 17.9138 37.9922C19.3591 37.125 19.7107 36.9532 19.9998 36.9532C20.2888 36.9532 20.7341 37.1719 21.8201 37.8438C23.5857 38.9375 24.2654 39.1797 25.3435 39.125C25.906 39.0938 26.1482 39.0391 26.4998 38.8672C27.5154 38.3828 28.0701 37.6407 28.9841 35.5313C29.656 33.9922 29.7888 33.7657 30.1013 33.6094C30.2185 33.5547 31.0388 33.4375 31.9294 33.3516C34.2888 33.125 35.0935 32.8672 35.8591 32.086C36.8826 31.0391 37.0232 29.8125 36.406 27.2266C36.0545 25.7578 36.0154 25.3282 36.1951 25.0469C36.2654 24.9453 36.8045 24.4375 37.3982 23.9219C38.7341 22.7657 39.1873 22.2813 39.5466 21.5938C40.1091 20.5235 40.117 19.4844 39.5623 18.4375C39.1951 17.7422 38.7576 17.2578 37.5935 16.2813C36.2185 15.1328 36.0935 14.9844 36.0935 14.5391C36.0935 14.3438 36.242 13.5782 36.4216 12.8516C36.7185 11.6328 36.7498 11.4375 36.7498 10.4688C36.7576 9.47659 36.742 9.39065 36.5388 8.94534C36.117 8.05471 35.5232 7.49221 34.6326 7.16409C33.906 6.89065 33.4998 6.82034 31.9763 6.67971C31.2498 6.61721 30.4998 6.52346 30.2888 6.47659C29.8357 6.36721 29.7576 6.25003 28.9529 4.39846C28.6404 3.67971 28.2576 2.88284 28.0935 2.62503C27.2498 1.31253 26.0154 0.695339 24.6716 0.921902C23.9216 1.05471 23.3044 1.33596 21.7732 2.25003C21.0544 2.67971 20.3591 3.05471 20.2341 3.08596C19.8435 3.1719 19.5857 3.06253 18.3435 2.28909C16.9138 1.40628 16.5857 1.2344 15.9294 1.03128C15.281 0.828152 14.9998 0.796902 14.3591 0.867214ZM15.3123 4.33596C15.531 4.44534 16.0779 4.77346 16.5388 5.07034C18.1638 6.10159 18.9919 6.42971 19.9998 6.42971C21.0466 6.42971 21.6951 6.16409 23.8591 4.8594L25.0935 4.1094L25.2419 4.30471C25.3201 4.40628 25.6013 5.00003 25.8669 5.62503C26.5154 7.14846 26.7888 7.68753 27.2107 8.24221C28.1013 9.4219 29.0701 9.78128 31.9451 10C32.6091 10.0547 33.242 10.125 33.3435 10.1641C33.5232 10.2344 33.531 10.2657 33.4841 10.6641C33.4607 10.8985 33.3201 11.5703 33.1716 12.1719C32.8201 13.6094 32.7107 14.5391 32.8123 15.1953C33.0076 16.4297 33.4841 17.1094 35.117 18.5C36.2107 19.4297 36.6404 19.8594 36.6404 20C36.6404 20.1485 35.9138 20.8594 34.867 21.7422C33.9373 22.5235 33.492 23.0391 33.156 23.711C32.6091 24.8125 32.617 25.6485 33.2029 28.0469C33.5779 29.6016 33.5857 29.7422 33.3123 29.8516C33.1951 29.8907 32.4998 29.9766 31.7654 30.0469C29.0935 30.2735 28.3357 30.5313 27.4373 31.5157C26.9138 32.0938 26.6091 32.6407 25.9763 34.1797C25.3044 35.7891 25.2498 35.8828 24.9998 35.8203C24.8904 35.7969 24.2498 35.4375 23.5779 35.0313C21.2732 33.6328 20.4138 33.3907 19.0466 33.7422C18.3357 33.9297 17.6326 34.2735 16.3904 35.0469C15.8748 35.3672 15.3357 35.6953 15.1794 35.7657L14.906 35.8985L14.7263 35.6641C14.6248 35.5391 14.3591 35 14.1326 34.461C13.4373 32.7813 12.9919 31.9766 12.4685 31.4532C11.5779 30.5625 10.8435 30.3125 8.35913 30.086C7.47632 30 6.69507 29.9063 6.62476 29.8828C6.40601 29.7969 6.45288 29.3282 6.81226 27.8594C7.11695 26.625 7.14038 26.4375 7.1482 25.4688C7.1482 24.461 7.14038 24.3907 6.92163 23.9141C6.61695 23.2657 6.19507 22.7344 5.42945 22.0391C3.62476 20.3907 3.35913 20.1328 3.35913 20.0157C3.36695 19.8125 3.75757 19.4141 4.9607 18.3828C6.51538 17.0547 6.98413 16.3828 7.19507 15.211C7.32007 14.5078 7.21851 13.6719 6.81226 11.9844C6.35913 10.1485 6.36695 10.2422 6.62476 10.1485C6.74195 10.1016 7.41382 10.0157 8.12476 9.95315C10.4607 9.75003 11.1951 9.55471 12.0232 8.94534C12.4998 8.59378 13.0388 7.91409 13.3826 7.22659C13.4841 7.00784 13.7888 6.30471 14.0623 5.66409C14.5701 4.42971 14.7185 4.14065 14.8513 4.14065C14.8904 4.14065 15.1013 4.22659 15.3123 4.33596Z" fill="#A42C24"/>
<path d="M25.9372 13.4297C25.4059 13.6016 25.1012 13.9297 21.5309 18.1954C19.4762 20.6485 17.7653 22.6797 17.7184 22.7032C17.6793 22.7266 16.8668 21.9766 15.9137 21.0313C14.2106 19.3516 14.1715 19.3126 13.7497 19.2266C12.9918 19.0704 12.2653 19.4219 11.8903 20.1094C11.7184 20.4376 11.7262 21.2032 11.9059 21.5626C11.984 21.711 13.1247 22.9141 14.445 24.2266C16.445 26.2266 16.8981 26.6407 17.2028 26.7579C17.695 26.9376 18.2575 26.8829 18.6559 26.6172C18.8434 26.5001 20.7575 24.2657 23.3747 21.1407C28.1325 15.4532 28.0387 15.586 27.945 14.7969C27.8981 14.336 27.5543 13.8438 27.1325 13.6094C26.7809 13.4141 26.234 13.336 25.9372 13.4297Z" fill="#A42C24"/>
</g>
<defs>
<clipPath id="clip0_489_674">
<rect width="40" height="40" fill="white"/>
</clipPath>
</defs>
</svg>
