<svg width="54" height="54" viewBox="0 0 54 54" fill="none" xmlns="http://www.w3.org/2000/svg">
<g filter="url(#filter0_d_215_2592)">
<rect x="12" y="12" width="30" height="30" rx="5" fill="white"/>
<path d="M33.0146 20.2428H30.9452V19.7877C30.9452 19.3501 30.6087 19 30.1881 19C29.7675 19 29.4311 19.3501 29.4311 19.7877V20.2428H24.5352V19.7877C24.5352 19.3501 24.1987 19 23.7781 19C23.3575 19 23.021 19.3501 23.021 19.7877V20.2428H20.9685C19.8917 20.2428 19 21.1532 19 22.291V32.9519C19 34.0722 19.8749 35 20.9685 35H33.0315C34.1083 35 35 34.0897 35 32.9519V22.291C34.9832 21.1532 34.1083 20.2428 33.0148 20.2428H33.0146ZM20.9683 21.8183H23.0377V22.2735C23.0377 22.7111 23.3741 23.0612 23.7947 23.0612C24.2154 23.0612 24.5518 22.7111 24.5518 22.2735V21.8184H29.4477L29.4478 22.2735C29.4478 22.7111 29.7843 23.0612 30.2049 23.0612C30.6255 23.0612 30.962 22.7111 30.962 22.2735V21.8184H33.0313C33.2837 21.8184 33.4856 22.0284 33.4856 22.291V24.3741H20.514V22.2909C20.514 22.0284 20.716 21.8182 20.9683 21.8182L20.9683 21.8183ZM33.0146 33.4244H20.9683C20.716 33.4244 20.514 33.2144 20.514 32.9518V25.932H33.4856V32.9518C33.4688 33.2144 33.2669 33.4244 33.0145 33.4244H33.0146Z" fill="#4F5052"/>
</g>
<defs>
<filter id="filter0_d_215_2592" x="0" y="0" width="54" height="54" filterUnits="userSpaceOnUse" color-interpolation-filters="sRGB">
<feFlood flood-opacity="0" result="BackgroundImageFix"/>
<feColorMatrix in="SourceAlpha" type="matrix" values="0 0 0 0 0 0 0 0 0 0 0 0 0 0 0 0 0 0 127 0" result="hardAlpha"/>
<feMorphology radius="2" operator="dilate" in="SourceAlpha" result="effect1_dropShadow_215_2592"/>
<feOffset/>
<feGaussianBlur stdDeviation="5"/>
<feComposite in2="hardAlpha" operator="out"/>
<feColorMatrix type="matrix" values="0 0 0 0 0.643137 0 0 0 0 0.172549 0 0 0 0 0.141176 0 0 0 0.15 0"/>
<feBlend mode="normal" in2="BackgroundImageFix" result="effect1_dropShadow_215_2592"/>
<feBlend mode="normal" in="SourceGraphic" in2="effect1_dropShadow_215_2592" result="shape"/>
</filter>
</defs>
</svg>
