<svg width="20" height="20" viewBox="0 0 20 20" fill="none" xmlns="http://www.w3.org/2000/svg">
<path d="M10.0003 16.6667C13.667 16.6667 16.667 13.6667 16.667 9.99999C16.667 6.33332 13.667 3.33332 10.0003 3.33332C6.33366 3.33332 3.33366 6.33332 3.33366 9.99999C3.33366 13.6667 6.33366 16.6667 10.0003 16.6667ZM10.0003 1.66666C14.5837 1.66666 18.3337 5.41666 18.3337 9.99999C18.3337 14.5833 14.5837 18.3333 10.0003 18.3333C5.41699 18.3333 1.66699 14.5833 1.66699 9.99999C1.66699 5.41666 5.41699 1.66666 10.0003 1.66666ZM14.167 11.5833L13.5837 12.6667L9.16699 10.25V5.83332H10.417V9.49999L14.167 11.5833Z" fill="#E75E41"/>
</svg>
