<svg width="16" height="16" viewBox="0 0 16 16" fill="none" xmlns="http://www.w3.org/2000/svg">
<path d="M8.66667 5.33333C9.1971 5.33333 9.70581 5.54405 10.0809 5.91912C10.456 6.29419 10.6667 6.8029 10.6667 7.33333C10.6667 7.51014 10.7369 7.67971 10.8619 7.80474C10.987 7.92976 11.1565 8 11.3333 8C11.5101 8 11.6797 7.92976 11.8047 7.80474C11.9298 7.67971 12 7.51014 12 7.33333C12 6.44928 11.6488 5.60143 11.0237 4.97631C10.3986 4.35119 9.55072 4 8.66667 4C8.48986 4 8.32029 4.07024 8.19526 4.19526C8.07024 4.32029 8 4.48986 8 4.66667C8 4.84348 8.07024 5.01305 8.19526 5.13807C8.32029 5.2631 8.48986 5.33333 8.66667 5.33333Z" fill="#037022"/>
<path d="M8.66634 2.66695C9.90402 2.66695 11.091 3.15862 11.9662 4.03379C12.8413 4.90896 13.333 6.09594 13.333 7.33362C13.333 7.51043 13.4032 7.68 13.5283 7.80502C13.6533 7.93005 13.8229 8.00028 13.9997 8.00028C14.1765 8.00028 14.3461 7.93005 14.4711 7.80502C14.5961 7.68 14.6663 7.51043 14.6663 7.33362C14.6663 5.74232 14.0342 4.2162 12.909 3.09098C11.7838 1.96576 10.2576 1.33362 8.66634 1.33362C8.48953 1.33362 8.31996 1.40386 8.19494 1.52888C8.06991 1.6539 7.99967 1.82347 7.99967 2.00028C7.99967 2.1771 8.06991 2.34667 8.19494 2.47169C8.31996 2.59671 8.48953 2.66695 8.66634 2.66695ZM14.4997 10.607C14.463 10.4999 14.3997 10.404 14.3157 10.3282C14.2318 10.2524 14.1299 10.1992 14.0197 10.1736L10.0197 9.26028C9.9111 9.23567 9.79809 9.23863 9.69095 9.26891C9.58382 9.29919 9.48597 9.35581 9.40634 9.43362C9.31301 9.52028 9.30634 9.52695 8.87301 10.3536C7.43514 9.69106 6.283 8.53419 5.62634 7.09362C6.47301 6.66695 6.47967 6.66695 6.56634 6.56695C6.64415 6.48732 6.70077 6.38948 6.73105 6.28234C6.76133 6.1752 6.76429 6.06219 6.73967 5.95362L5.82634 2.00028C5.80077 1.89008 5.74758 1.7882 5.67177 1.70423C5.59596 1.62025 5.50003 1.55695 5.39301 1.52028C5.23732 1.46468 5.07655 1.42449 4.91301 1.40028C4.74451 1.36121 4.57256 1.33888 4.39967 1.33362C3.58634 1.33362 2.80633 1.65671 2.23121 2.23182C1.6561 2.80694 1.33301 3.58695 1.33301 4.40028C1.33654 7.12209 2.41933 9.73141 4.34394 11.656C6.26855 13.5806 8.87787 14.6634 11.5997 14.667C12.0024 14.667 12.4012 14.5876 12.7732 14.4335C13.1453 14.2794 13.4834 14.0535 13.7681 13.7687C14.0529 13.484 14.2788 13.1459 14.4329 12.7738C14.587 12.4018 14.6663 12.003 14.6663 11.6003C14.6665 11.4306 14.6532 11.2612 14.6263 11.0936C14.5983 10.928 14.5559 10.7652 14.4997 10.607ZM11.5997 13.3336C9.23095 13.3319 6.95975 12.3901 5.2848 10.7152C3.60986 9.04021 2.66811 6.76901 2.66634 4.40028C2.6681 3.94112 2.85128 3.50126 3.17596 3.17657C3.50065 2.85189 3.94051 2.66871 4.39967 2.66695H4.61967L5.33301 5.76028L4.97301 5.94695C4.39967 6.24695 3.94634 6.48695 4.18634 7.00695C4.57716 8.11334 5.20952 9.11877 6.0375 9.9502C6.86547 10.7816 7.86826 11.4182 8.97301 11.8136C9.53301 12.0403 9.75301 11.6203 10.053 11.0403L10.2463 10.6736L13.333 11.3803V11.6003C13.3313 12.0595 13.1481 12.4993 12.8234 12.824C12.4987 13.1487 12.0588 13.3319 11.5997 13.3336Z" fill="#037022"/>
</svg>
