<svg width="32" height="32" viewBox="0 0 32 32" fill="none" xmlns="http://www.w3.org/2000/svg">
<circle cx="16" cy="16" r="15.5" fill="white" stroke="#D9D9D9"/>
<path d="M16.8333 12.6667C17.4964 12.6667 18.1323 12.9301 18.6011 13.3989C19.0699 13.8677 19.3333 14.5036 19.3333 15.1667C19.3333 15.3877 19.4211 15.5996 19.5774 15.7559C19.7337 15.9122 19.9457 16 20.1667 16C20.3877 16 20.5996 15.9122 20.7559 15.7559C20.9122 15.5996 21 15.3877 21 15.1667C21 14.0616 20.561 13.0018 19.7796 12.2204C18.9982 11.439 17.9384 11 16.8333 11C16.6123 11 16.4004 11.0878 16.2441 11.2441C16.0878 11.4004 16 11.6123 16 11.8333C16 12.0543 16.0878 12.2663 16.2441 12.4226C16.4004 12.5789 16.6123 12.6667 16.8333 12.6667Z" fill="#037022"/>
<path d="M16.8337 9.33341C18.3808 9.33341 19.8645 9.948 20.9584 11.042C22.0524 12.1359 22.667 13.6197 22.667 15.1667C22.667 15.3878 22.7548 15.5997 22.9111 15.756C23.0673 15.9123 23.2793 16.0001 23.5003 16.0001C23.7213 16.0001 23.9333 15.9123 24.0896 15.756C24.2459 15.5997 24.3337 15.3878 24.3337 15.1667C24.3337 13.1776 23.5435 11.27 22.137 9.86345C20.7304 8.45692 18.8228 7.66675 16.8337 7.66675C16.6126 7.66675 16.4007 7.75455 16.2444 7.91083C16.0881 8.06711 16.0003 8.27907 16.0003 8.50008C16.0003 8.7211 16.0881 8.93306 16.2444 9.08934C16.4007 9.24562 16.6126 9.33341 16.8337 9.33341ZM24.1253 19.2584C24.0795 19.1246 24.0004 19.0047 23.8954 18.91C23.7904 18.8152 23.6631 18.7487 23.5253 18.7167L18.5253 17.5751C18.3896 17.5443 18.2483 17.548 18.1144 17.5859C17.9805 17.6237 17.8582 17.6945 17.7587 17.7917C17.642 17.9001 17.6337 17.9084 17.092 18.9417C15.2947 18.1135 13.8545 16.6675 13.0337 14.8667C14.092 14.3334 14.1003 14.3334 14.2087 14.2084C14.3059 14.1089 14.3767 13.9866 14.4145 13.8527C14.4524 13.7187 14.4561 13.5775 14.4253 13.4417L13.2837 8.50008C13.2517 8.36233 13.1852 8.23497 13.0904 8.13001C12.9957 8.02504 12.8758 7.94592 12.742 7.90008C12.5474 7.83057 12.3464 7.78033 12.142 7.75008C11.9314 7.70124 11.7164 7.67333 11.5003 7.66675C10.4837 7.66675 9.50864 8.07062 8.78975 8.78951C8.07086 9.50839 7.66699 10.4834 7.66699 11.5001C7.6714 14.9023 9.0249 18.164 11.4307 20.5697C13.8364 22.9755 17.0981 24.329 20.5003 24.3334C21.0037 24.3334 21.5022 24.2343 21.9673 24.0416C22.4324 23.849 22.8549 23.5666 23.2109 23.2107C23.5669 22.8547 23.8492 22.4321 24.0419 21.967C24.2345 21.502 24.3337 21.0035 24.3337 20.5001C24.3339 20.288 24.3172 20.0762 24.2837 19.8667C24.2486 19.6598 24.1957 19.4562 24.1253 19.2584ZM20.5003 22.6667C17.5394 22.6645 14.7004 21.4873 12.6067 19.3937C10.5131 17.3 9.33587 14.461 9.33366 11.5001C9.33585 10.9261 9.56483 10.3763 9.97069 9.97044C10.3765 9.56459 10.9264 9.33561 11.5003 9.33341H11.7753L12.667 13.2001L12.217 13.4334C11.5003 13.8084 10.9337 14.1084 11.2337 14.7584C11.7222 16.1414 12.5126 17.3982 13.5476 18.4375C14.5826 19.4768 15.8361 20.2725 17.217 20.7667C17.917 21.0501 18.192 20.5251 18.567 19.8001L18.8087 19.3417L22.667 20.2251V20.5001C22.6648 21.074 22.4358 21.6239 22.03 22.0297C21.6241 22.4356 21.0743 22.6646 20.5003 22.6667Z" fill="#037022"/>
</svg>
