<svg width="18" height="18" viewBox="0 0 18 18" fill="none" xmlns="http://www.w3.org/2000/svg">
<rect width="18" height="18" fill="white"/>
<path d="M16.3778 10.1054L15.1113 5.54864C14.74 4.21368 13.9332 3.04112 12.8191 2.21733C11.7049 1.39355 10.3474 0.96582 8.96227 1.00214C7.57713 1.03845 6.24388 1.53673 5.17444 2.41776C4.105 3.29879 3.36074 4.51202 3.05997 5.8646L2.07942 10.2741C1.97111 10.7613 1.97361 11.2667 2.08675 11.7528C2.19988 12.2389 2.42076 12.6935 2.73307 13.0828C3.04537 13.4722 3.44114 13.7864 3.89115 14.0023C4.34116 14.2182 4.83392 14.3303 5.33305 14.3303H6.07563C6.22862 15.0837 6.63738 15.7611 7.23266 16.2477C7.82793 16.7342 8.5731 17 9.34192 17C10.1107 17 10.8559 16.7342 11.4512 16.2477C12.0465 15.7611 12.4552 15.0837 12.6082 14.3303H13.1668C13.6806 14.3303 14.1875 14.2116 14.6478 13.9833C15.1081 13.755 15.5094 13.4234 15.8204 13.0144C16.1313 12.6053 16.3435 12.1299 16.4403 11.6253C16.5371 11.1207 16.5159 10.6005 16.3784 10.1054H16.3778ZM9.34192 15.6635C8.92979 15.6618 8.52826 15.5328 8.19225 15.2941C7.85624 15.0555 7.60217 14.7189 7.4648 14.3303H11.219C11.0817 14.7189 10.8276 15.0555 10.4916 15.2941C10.1556 15.5328 9.75405 15.6618 9.34192 15.6635ZM14.7586 12.2072C14.5729 12.4536 14.3322 12.6533 14.0558 12.7904C13.7793 12.9276 13.4747 12.9983 13.1661 12.9971H5.33305C5.0336 12.9971 4.73799 12.9298 4.46804 12.8002C4.19808 12.6706 3.96067 12.4821 3.77333 12.2485C3.58599 12.0149 3.4535 11.7422 3.38564 11.4505C3.31779 11.1589 3.31629 10.8557 3.38127 10.5634L4.36116 6.15323C4.59737 5.09083 5.18193 4.13787 6.02194 3.44584C6.86194 2.75382 7.90917 2.36245 8.99714 2.33395C10.0851 2.30545 11.1514 2.64145 12.0265 3.28854C12.9016 3.93564 13.5352 4.85668 13.8267 5.90526L15.0933 10.4621C15.1769 10.759 15.1903 11.0713 15.1322 11.3742C15.0741 11.6771 14.9462 11.9623 14.7586 12.2072Z" fill="#A42C24"/>
</svg>
