<svg width="20" height="20" viewBox="0 0 20 20" fill="none" xmlns="http://www.w3.org/2000/svg">
<path d="M10.8333 6.66667C11.4964 6.66667 12.1323 6.93006 12.6011 7.3989C13.0699 7.86774 13.3333 8.50363 13.3333 9.16667C13.3333 9.38768 13.4211 9.59964 13.5774 9.75592C13.7337 9.9122 13.9457 10 14.1667 10C14.3877 10 14.5996 9.9122 14.7559 9.75592C14.9122 9.59964 15 9.38768 15 9.16667C15 8.0616 14.561 7.00179 13.7796 6.22039C12.9982 5.43899 11.9384 5 10.8333 5C10.6123 5 10.4004 5.0878 10.2441 5.24408C10.0878 5.40036 10 5.61232 10 5.83333C10 6.05435 10.0878 6.26631 10.2441 6.42259C10.4004 6.57887 10.6123 6.66667 10.8333 6.66667Z" fill="#E75E41"/>
<path d="M10.8337 3.33341C12.3808 3.33341 13.8645 3.948 14.9584 5.04196C16.0524 6.13592 16.667 7.61965 16.667 9.16675C16.667 9.38776 16.7548 9.59972 16.9111 9.756C17.0673 9.91228 17.2793 10.0001 17.5003 10.0001C17.7213 10.0001 17.9333 9.91228 18.0896 9.756C18.2459 9.59972 18.3337 9.38776 18.3337 9.16675C18.3337 7.17762 17.5435 5.26997 16.137 3.86345C14.7304 2.45692 12.8228 1.66675 10.8337 1.66675C10.6126 1.66675 10.4007 1.75455 10.2444 1.91083C10.0881 2.06711 10.0003 2.27907 10.0003 2.50008C10.0003 2.7211 10.0881 2.93306 10.2444 3.08934C10.4007 3.24562 10.6126 3.33341 10.8337 3.33341ZM18.1253 13.2584C18.0795 13.1246 18.0004 13.0047 17.8954 12.91C17.7904 12.8152 17.6631 12.7487 17.5253 12.7167L12.5253 11.5751C12.3896 11.5443 12.2483 11.548 12.1144 11.5859C11.9805 11.6237 11.8582 11.6945 11.7587 11.7917C11.642 11.9001 11.6337 11.9084 11.092 12.9417C9.29466 12.1135 7.85449 10.6675 7.03366 8.86675C8.09199 8.33342 8.10033 8.33342 8.20866 8.20842C8.30592 8.10888 8.3767 7.98657 8.41455 7.85265C8.45239 7.71873 8.4561 7.57747 8.42532 7.44175L7.28366 2.50008C7.2517 2.36233 7.18521 2.23497 7.09045 2.13001C6.99568 2.02504 6.87577 1.94592 6.74199 1.90008C6.54738 1.83057 6.34642 1.78033 6.14199 1.75008C5.93137 1.70124 5.71644 1.67333 5.50033 1.66675C4.48366 1.66675 3.50864 2.07062 2.78975 2.78951C2.07086 3.50839 1.66699 4.48342 1.66699 5.50008C1.6714 8.90234 3.0249 12.164 5.43066 14.5697C7.83642 16.9755 11.0981 18.329 14.5003 18.3334C15.0037 18.3334 15.5022 18.2343 15.9673 18.0416C16.4324 17.849 16.8549 17.5666 17.2109 17.2107C17.5669 16.8547 17.8492 16.4321 18.0419 15.967C18.2345 15.502 18.3337 15.0035 18.3337 14.5001C18.3339 14.288 18.3172 14.0762 18.2837 13.8667C18.2486 13.6598 18.1957 13.4562 18.1253 13.2584ZM14.5003 16.6667C11.5394 16.6645 8.70042 15.4873 6.60674 13.3937C4.51306 11.3 3.33587 8.46099 3.33366 5.50008C3.33585 4.92612 3.56483 4.3763 3.97069 3.97044C4.37654 3.56459 4.92637 3.33561 5.50033 3.33341H5.77533L6.66699 7.20008L6.21699 7.43341C5.50033 7.80841 4.93366 8.10841 5.23366 8.75841C5.72218 10.1414 6.51264 11.3982 7.5476 12.4375C8.58257 13.4768 9.83606 14.2725 11.217 14.7667C11.917 15.0501 12.192 14.5251 12.567 13.8001L12.8087 13.3417L16.667 14.2251V14.5001C16.6648 15.074 16.4358 15.6239 16.03 16.0297C15.6241 16.4356 15.0743 16.6646 14.5003 16.6667Z" fill="#E75E41"/>
</svg>
