<svg width="70" height="70" viewBox="0 0 70 70" fill="none" xmlns="http://www.w3.org/2000/svg">
<rect width="70" height="70" rx="35" fill="#FCFCFC"/>
<rect x="0.5" y="0.5" width="69" height="69" rx="34.5" stroke="#7D7C83" stroke-opacity="0.2"/>
<path d="M46.6399 40.7354V27.4897H36.1564C36.3086 28.026 36.391 28.5924 36.391 29.1773C36.391 30.8779 35.7006 32.4191 34.586 33.534C33.4713 34.6487 31.9299 35.339 30.2293 35.339C29.4738 35.339 28.7503 35.2031 28.0815 34.9539V40.7356V42.7888H29.928C30.0704 42.1256 30.4036 41.5321 30.8668 41.0684C31.4944 40.4382 32.3618 40.0501 33.3186 40.0501C34.2728 40.0501 35.1392 40.4387 35.7678 41.0663L35.7716 41.0702C36.2342 41.5338 36.5662 42.1268 36.7091 42.7888H46.6401L46.6399 40.7354ZM50.5111 34.0756V35.8326H53.6217L52.4725 34.0756H50.5111ZM49.0528 36.5617V33.3463C49.0528 32.9439 49.3794 32.6173 49.7818 32.6173H52.8658C53.1029 32.6186 53.3358 32.7345 53.4753 32.9477L55.5597 36.1347C55.6467 36.2546 55.698 36.4023 55.698 36.5617C55.698 36.9641 55.3714 37.2907 54.969 37.2907H49.7821C49.3797 37.2907 49.0528 36.9641 49.0528 36.5617ZM34.4512 27.1003L34.4349 27.0672C34.2081 26.6152 33.9097 26.2047 33.5559 25.8509C32.7053 25.0004 31.5286 24.4736 30.2297 24.4736C28.9307 24.4736 27.7543 25.0006 26.9038 25.8509C26.0533 26.7014 25.5265 27.8776 25.5265 29.1768C25.5265 30.4758 26.0535 31.6527 26.9038 32.503C27.1514 32.7506 27.4267 32.9709 27.7246 33.1585L27.7586 33.1796C28.4765 33.6237 29.3232 33.8805 30.2297 33.8805C31.5287 33.8805 32.7056 33.3535 33.5559 32.5032C34.4064 31.6527 34.9331 30.476 34.9331 29.1771C34.9331 28.4315 34.7597 27.7263 34.4512 27.1003ZM35.528 26.0306H47.369C47.7714 26.0306 48.098 26.3572 48.098 26.7596V30.6933H54.3259C54.5935 30.6933 54.8281 30.8379 54.9547 31.0535L58.2974 36.1629C58.378 36.2859 58.4161 36.4245 58.4161 36.5615L58.4169 43.5173C58.4169 43.9197 58.0903 44.2464 57.6879 44.2464H55.9197C55.7776 44.9109 55.4441 45.5054 54.9804 45.9688L54.9374 46.0087C54.3128 46.6127 53.4628 46.9846 52.5283 46.9846C51.5716 46.9846 50.7042 46.5965 50.0766 45.9689L50.0367 45.9259C49.5941 45.4683 49.2766 44.8903 49.1381 44.2464H36.7094C36.5671 44.9109 36.2338 45.5054 35.7701 45.9688C35.1425 46.5965 34.2752 46.9846 33.3184 46.9846C32.3616 46.9846 31.4943 46.5964 30.8666 45.9688L30.8267 45.9259C30.3841 45.4683 30.0666 44.8903 29.9281 44.2464H27.3526C26.9502 44.2464 26.6235 43.9197 26.6235 43.5173V34.1726C26.3566 33.9797 26.1057 33.7659 25.8734 33.5335C24.7587 32.4189 24.0684 30.8774 24.0684 29.1768C24.0684 27.4762 24.7587 25.9353 25.8734 24.8207C26.9881 23.706 28.529 23.0156 30.2296 23.0156C31.9301 23.0156 33.4713 23.706 34.5863 24.8207C34.9477 25.1821 35.2649 25.5885 35.528 26.0306ZM48.0985 32.1516V42.7881H49.1383C49.2807 42.1249 49.614 41.5314 50.0771 41.0676C50.7047 40.4375 51.5721 40.0494 52.5289 40.0494C53.4837 40.0494 54.3504 40.4375 54.9784 41.0651C55.4435 41.5308 55.7768 42.1249 55.9191 42.7881H56.959V36.7773L53.9328 32.1517L48.0985 32.1516ZM53.9516 42.0944C53.5884 41.7324 53.0848 41.5077 52.5286 41.5077C51.9735 41.5077 51.4701 41.7329 51.1074 42.0957C50.7441 42.4577 50.5194 42.9612 50.5194 43.5174C50.5194 44.0581 50.7317 44.5487 51.0764 44.9094L51.1074 44.9387C51.4701 45.3014 51.9735 45.5266 52.5286 45.5266C53.0693 45.5266 53.5604 45.3144 53.9211 44.9697L53.9503 44.9387C54.3131 44.5759 54.5383 44.0726 54.5383 43.5174C54.5383 42.9613 54.3136 42.4576 53.9516 42.0944ZM34.7409 42.0949C34.3784 41.7322 33.8753 41.5077 33.3184 41.5077C32.7632 41.5077 32.2599 41.7329 31.8972 42.0957C31.5339 42.4577 31.3092 42.9612 31.3092 43.5174C31.3092 44.0581 31.5215 44.5487 31.8662 44.9094L31.8972 44.9387C32.2599 45.3014 32.7632 45.5266 33.3184 45.5266C33.8735 45.5266 34.3769 45.3014 34.7396 44.9387C35.1029 44.5754 35.3281 44.0726 35.3281 43.5174C35.3281 42.9605 35.1039 42.4574 34.7409 42.0949Z" fill="#A42C24"/>
<path d="M31.2196 29.0504C31.2196 28.541 30.8067 28.1281 30.2973 28.1281C29.7879 28.1281 29.375 28.541 29.375 29.0504C29.375 29.5597 29.7879 29.9727 30.2973 29.9727C30.8067 29.9727 31.2196 29.5597 31.2196 29.0504Z" fill="#A42C24"/>
<path d="M28.9344 29.0504C28.9344 28.541 28.5215 28.1281 28.0121 28.1281C27.5028 28.1281 27.0898 28.541 27.0898 29.0504C27.0898 29.5597 27.5028 29.9727 28.0121 29.9727C28.5215 29.9727 28.9344 29.5597 28.9344 29.0504Z" fill="#A42C24"/>
<path d="M33.5028 29.0504C33.5028 28.541 33.0899 28.1281 32.5805 28.1281C32.0711 28.1281 31.6582 28.541 31.6582 29.0504C31.6582 29.5597 32.0711 29.9727 32.5805 29.9727C33.0899 29.9727 33.5028 29.5597 33.5028 29.0504Z" fill="#A42C24"/>
<path d="M14.4458 33.8474H23.5056M11.582 39.6578H22.9599M19.6507 44.7508H24.3916" stroke="#A42C24" stroke-width="1.5" stroke-linecap="round" stroke-linejoin="round"/>
</svg>
