<svg width="280" height="258" viewBox="0 0 280 258" fill="none" xmlns="http://www.w3.org/2000/svg">
<g clip-path="url(#clip0_458_568)">
<path d="M65.415 133.896L106.465 133.859M85.9402 133.878L85.9499 144.279M61.7485 144.3L95.6508 144.27M70.7347 144.292L70.7421 152.851M63.3898 152.858L92.3905 152.832M70.725 133.891L70.7171 125.137M94.8242 133.87L94.8163 125.116M95.6582 152.927L95.6502 144.173" stroke="#AFAFAF" stroke-miterlimit="10"/>
<path d="M146.057 4.54263C175.047 12.3275 187.15 -4.449 213.746 1.17919C242.717 7.30946 258.718 33.6385 260.239 36.2247C278.903 67.9629 278.262 105.737 255.333 124.764C242.609 135.323 229.731 135.384 189.767 152.76C159.532 165.906 145.281 181.969 139.042 185.499C107.243 203.488 70.8134 192.307 44.0246 170.316C36.5691 164.195 0.679555 134.41 21.7193 90.9885C28.2348 77.5415 28.8605 83.6752 57.7444 46.207C88.1662 6.74398 125.125 -1.07876 146.057 4.54263Z" fill="#DAE0E0"/>
<path d="M270.299 256.628L256.661 256.64L256.466 37.667L270.118 52.9383L270.299 256.628Z" fill="#F9F5C5"/>
<path d="M256.661 256.661L144.195 257.306L143.999 37.2417L256.466 37.6872L256.661 256.661Z" fill="#542628"/>
<path d="M170.709 67.3346C172.133 82.5725 172.877 97.8116 173.417 113.051C173.93 128.289 174.189 143.528 174.193 158.768C174.212 174.007 173.984 189.247 173.508 204.487C172.998 219.726 172.277 234.967 170.872 250.207C169.44 234.969 168.693 219.73 168.155 204.491C167.643 189.253 167.387 174.014 167.388 158.774C167.378 143.535 167.61 128.295 168.082 113.055C168.595 97.8156 169.313 82.5754 170.709 67.3346ZM216.099 61.3996C217.523 77.7187 218.269 94.0378 218.809 110.358C219.323 126.678 219.583 142.998 219.589 159.318C219.609 175.638 219.381 191.959 218.906 208.279C218.396 224.6 217.677 240.921 216.273 257.242C214.84 240.923 214.092 224.604 213.553 208.284C213.04 191.964 212.783 175.644 212.783 159.324C212.772 143.004 213.003 126.683 213.475 110.363C213.987 94.0417 214.703 77.7209 216.098 61.3996H216.099ZM237.689 51.9902C239.114 68.3093 239.86 84.6284 240.4 100.949C240.914 117.268 241.174 133.588 241.179 149.909C241.199 166.229 240.972 182.549 240.497 198.87C239.987 215.191 239.268 231.511 237.865 247.833C236.431 231.514 235.683 215.195 235.144 198.874C234.63 182.555 234.374 166.235 234.374 149.914C234.363 133.594 234.594 117.274 235.066 100.953C235.577 84.6324 236.294 68.3116 237.689 51.9902ZM190.878 52.0321C192.302 68.3512 193.048 84.6703 193.589 100.99C194.103 117.31 194.362 133.63 194.368 149.95C194.388 166.27 194.161 182.591 193.685 198.911C193.176 215.232 192.457 231.553 191.053 247.874C189.62 231.555 188.871 215.236 188.332 198.916C187.819 182.596 187.563 166.276 187.563 149.956C187.552 133.636 187.783 117.316 188.255 100.995C188.766 84.6742 189.482 68.3535 190.878 52.0321Z" fill="#381719"/>
<path d="M118.267 229.818C112.915 227.945 107.805 225.445 103.043 222.371C102.714 222.157 97.9553 219.003 95.226 214.088C94.6547 213.061 94.0721 211.776 94.4147 210.359C94.6243 209.569 95.05 208.854 95.644 208.292C96.2381 207.73 96.9771 207.345 97.7783 207.178C98.9203 206.984 99.9284 207.419 101.28 208.005C102.912 208.711 103.336 209.331 104.378 209.245C104.794 209.228 105.198 209.105 105.552 208.887C105.905 208.668 106.197 208.363 106.397 208C107.027 206.47 104.815 204.427 104.643 204.271C103.234 202.997 102.5 203.443 100.063 202.203C98.3845 201.329 96.8779 200.16 95.6157 198.753C94.2457 197.337 93.469 196.51 93.5927 195.439C93.6973 194.886 93.9542 194.374 94.3344 193.958C94.7147 193.543 95.2034 193.242 95.7456 193.088C97.1611 192.7 97.8016 193.859 99.3821 193.5C100.311 193.288 101.389 192.592 101.535 191.701C101.681 190.81 100.838 190.059 99.512 188.802C94.7506 184.289 94.0403 182.999 93.7158 182.314C93.2603 181.352 92.5182 179.783 93.039 178.031C93.2347 177.337 93.593 176.7 94.0842 176.171C94.5753 175.642 95.1855 175.237 95.8642 174.99C98.7195 174.147 102.59 177.374 104.083 180.647C105.331 183.381 106.108 185.481 106.108 185.481C106.442 186.466 106.995 187.363 107.726 188.104C108.099 188.472 108.947 189.306 109.612 189.069C110.041 188.916 110.11 188.421 110.553 187.273C111.216 185.559 111.546 184.703 112.167 184.37C113.106 183.866 114.567 184.521 115.399 185.334C116.712 186.615 116.732 188.545 116.751 190.307C116.768 191.917 116.501 191.923 116.216 194.866C116.052 196.519 116.009 198.181 116.085 199.84C116.24 203.078 116.754 203.536 117.032 203.707C117.712 204.126 118.579 203.804 119.59 203.429C121.003 202.87 122.252 201.966 123.224 200.801C124.609 199.221 124.39 198.62 125.241 198.035C125.975 197.578 126.857 197.42 127.705 197.595C128.744 197.759 129.731 198.16 130.589 198.768C131.446 199.375 132.152 200.172 132.65 201.097C132.848 201.446 133.029 201.805 133.19 202.173C135.262 206.89 133.661 211.634 132.797 214.193C129.601 223.663 120.798 228.524 118.267 229.818H118.267Z" fill="#3CA05D"/>
<path d="M118.267 229.818C118.267 229.818 116.099 203.176 95.1772 175.282L95.1783 175.281C94.1441 175.897 93.3798 176.879 93.0373 178.031C92.5188 179.781 93.2608 181.35 93.7141 182.313C94.0403 183 94.7523 184.288 99.5108 188.801C100.839 190.059 101.682 190.81 101.533 191.701C101.388 192.591 100.311 193.287 99.3803 193.499C97.8021 193.861 97.161 192.702 95.7439 193.087C95.2021 193.241 94.7139 193.543 94.3338 193.958C93.9538 194.373 93.6968 194.886 93.5915 195.438C93.469 196.509 94.2439 197.337 95.614 198.752C96.877 200.159 98.3836 201.328 100.062 202.202C102.501 203.443 103.234 202.997 104.642 204.27C104.814 204.427 107.027 206.471 106.396 207.999C106.196 208.363 105.905 208.669 105.551 208.887C105.197 209.106 104.792 209.229 104.377 209.244C103.337 209.333 102.914 208.712 101.279 208.004C99.9272 207.421 98.9208 206.985 97.7766 207.177C96.9753 207.344 96.2364 207.73 95.6423 208.292C95.0482 208.853 94.6224 209.569 94.4124 210.358C94.0732 211.775 94.6547 213.059 95.2237 214.087C97.9553 219.001 102.712 222.155 103.042 222.37C107.803 225.445 112.913 227.945 118.265 229.817" fill="#4FBA75"/>
<path d="M116.503 220.024C117.614 219.385 118.688 218.684 119.72 217.925C120.753 217.179 121.721 216.347 122.612 215.437C123.518 214.549 124.283 213.529 124.881 212.412C125.487 211.29 125.806 210.036 125.81 208.761C125.882 209.404 125.863 210.054 125.751 210.691C125.626 211.331 125.421 211.952 125.143 212.542C124.568 213.711 123.804 214.778 122.883 215.701C121.967 216.617 120.964 217.44 119.887 218.161C118.82 218.886 117.687 219.51 116.503 220.024ZM109.391 199.365C109.92 198.603 110.42 197.827 110.892 197.038C111.37 196.255 111.803 195.445 112.187 194.612C113.024 192.976 113.483 191.174 113.53 189.338C113.671 190.263 113.64 191.207 113.439 192.122C113.229 193.034 112.924 193.922 112.53 194.772C112.127 195.613 111.661 196.423 111.137 197.194C110.618 197.966 110.034 198.692 109.391 199.365Z" fill="#4FBA75"/>
<path d="M116.516 219.877C115.288 220.222 114.031 220.45 112.76 220.559C111.484 220.678 110.199 220.669 108.925 220.534C107.642 220.395 106.391 220.041 105.226 219.487C104.648 219.201 104.109 218.841 103.623 218.417C103.149 217.986 102.741 217.488 102.411 216.94C103.18 217.938 104.192 218.725 105.351 219.225C106.501 219.723 107.722 220.038 108.97 220.159C110.221 220.305 111.483 220.342 112.74 220.27C114.005 220.211 115.266 220.079 116.516 219.877ZM109.639 199.135C108.729 199.014 107.833 198.813 106.959 198.535C106.08 198.261 105.225 197.92 104.399 197.514C103.575 197.096 102.798 196.59 102.082 196.007C101.374 195.415 100.782 194.696 100.339 193.886C101.476 195.294 102.924 196.421 104.57 197.177C105.375 197.588 106.204 197.95 107.053 198.261C107.901 198.582 108.763 198.873 109.639 199.135Z" fill="#C0E2CC"/>
<path d="M118.053 228.025C117.728 225.789 117.245 223.581 116.724 221.385C116.188 219.192 115.614 217.009 114.945 214.853C113.649 210.529 112.115 206.28 110.351 202.125C108.612 197.959 106.65 193.89 104.473 189.934C102.347 185.949 99.9118 182.139 97.418 178.368L99.3502 181.155C99.9879 182.089 100.66 183.001 101.242 183.972C102.43 185.896 103.657 187.8 104.728 189.794C106.95 193.739 108.944 197.807 110.7 201.979L111.977 205.124L113.145 208.311C113.89 210.447 114.615 212.592 115.224 214.771C115.86 216.942 116.405 219.139 116.904 221.344C117.366 223.557 117.789 225.781 118.053 228.025Z" fill="#C0E2CC"/>
<path d="M128.386 257.32L103.541 257.342L96.8594 229.972L135.019 229.938L128.386 257.32Z" fill="#601F24"/>
<path d="M135.748 225.486H96.1264C94.8606 225.486 93.8345 226.51 93.8345 227.773V227.837C93.8345 229.1 94.8606 230.123 96.1264 230.123H135.748C137.013 230.123 138.04 229.1 138.04 227.837V227.773C138.04 226.51 137.013 225.486 135.748 225.486Z" fill="#7A3C43"/>
<path d="M279.433 257.752L0.567875 258C0.417415 258 0.273059 257.941 0.166562 257.835C0.0600647 257.728 0.000150743 257.585 2.84062e-07 257.434C-0.000150175 257.284 0.0594752 257.14 0.165759 257.034C0.272044 256.928 0.416281 256.868 0.56674 256.868L279.432 256.62C279.583 256.62 279.727 256.679 279.833 256.785C279.94 256.891 280 257.035 280 257.185C280 257.335 279.941 257.48 279.834 257.586C279.728 257.692 279.584 257.752 279.433 257.752Z" fill="#139DA0"/>
<path d="M103.236 130.203L127.821 118.282L135.021 142.02C135.817 144.643 135.617 147.467 134.46 149.953C133.303 152.438 131.269 154.412 128.747 155.497L120.178 159.184C118.538 159.89 116.751 160.193 114.969 160.069C113.186 159.944 111.459 159.395 109.933 158.467C108.407 157.54 107.126 156.261 106.198 154.738C105.269 153.214 104.719 151.491 104.596 149.713L103.236 130.203Z" fill="#E8E377"/>
<path d="M117.52 125.202C117.273 115.19 113.937 113.142 113.903 113.122L114.129 112.727C114.275 112.81 117.721 114.87 117.976 125.19L117.52 125.202Z" fill="#CEC65F"/>
<path d="M107.156 118.389L114.733 118.614C114.877 118.618 115.021 118.61 115.164 118.59C116.095 118.456 119.721 117.877 120.89 116.826C120.89 116.826 127.745 111.089 120.494 109.917C119.568 109.776 118.622 109.832 117.72 110.082C116.817 110.332 115.977 110.769 115.256 111.365C115.216 111.397 115.176 111.429 115.134 111.46C114.684 111.804 114.164 112.049 113.612 112.178C113.059 112.307 112.485 112.317 111.928 112.208C110.669 111.97 108.424 111.71 106.63 112.382C105.138 112.942 104.303 114.796 104.806 116.598L104.812 116.618C104.964 117.122 105.274 117.566 105.695 117.884C106.116 118.202 106.627 118.379 107.156 118.389Z" fill="#F6B98A"/>
<path d="M107.851 116.156C108.416 116.151 108.978 116.119 109.535 116.06C110.092 116.005 110.645 115.914 111.19 115.79C111.735 115.668 112.267 115.5 112.782 115.286C113.297 115.063 113.786 114.786 114.241 114.459C113.834 114.859 113.367 115.192 112.855 115.445C112.338 115.689 111.798 115.878 111.241 116.011C110.129 116.259 108.981 116.308 107.851 116.156H107.851Z" fill="#E8A77C"/>
<path d="M29.7767 158.351L23.1108 246.486C23.1108 246.486 27.5999 252.373 36.4528 248.001L46.3829 163.545L49.4997 163.87L53.6751 247.495C53.6751 247.495 60.2938 251.253 66.086 247.321L65.3871 158.563L29.8073 158.323C29.7996 158.323 29.7921 158.326 29.7864 158.332C29.7808 158.337 29.7773 158.344 29.7767 158.352V158.351Z" fill="#49260B"/>
<path d="M65.3884 159.928C65.3369 159.472 65.2883 159.018 65.2426 158.563L29.9294 158.324C29.8727 158.866 29.8126 159.408 29.749 159.95L41.6574 162.329C45.1179 163.024 48.6514 163.287 52.1769 163.113C64.7995 162.478 65.3884 159.928 65.3884 159.928Z" fill="#2D1505"/>
<path d="M66.2511 94.6009L56.2512 91.2539L48.5358 97.0344L39.4011 91.2686L29.2128 94.6196C27.7463 95.1012 26.4173 95.9277 25.3381 97.0293C23.3593 99.0489 19.9396 103.179 14.7227 111.471L22.8839 118.176L28.1712 111.77C28.1712 111.77 32.5236 135.256 29.7586 158.588L41.6561 160.966C45.1166 161.66 48.6502 161.924 52.1757 161.75C64.7983 161.114 65.3871 158.563 65.3871 158.563C62.7418 135.218 67.2042 111.756 67.2042 111.756L72.4586 118.189L80.6539 111.526C75.4795 103.207 72.0808 99.0591 70.1134 97.0293C69.0397 95.9226 67.7151 95.0897 66.2511 94.6009Z" fill="#E82A53"/>
<path d="M59.6162 63.2102L61.2114 63.551L61.153 64.6151C61.1125 65.3477 60.9517 66.0686 60.677 66.7491L60.078 68.2344C60.078 68.2344 59.7444 68.2905 59.6031 66.8759C59.5299 65.6552 59.5342 64.431 59.6162 63.2108V63.2102Z" fill="#874106"/>
<path d="M35.1244 65.8509C34.6263 68.9965 36.7015 73.0443 38.0829 72.8309C39.3701 72.6327 60.9431 63.9949 60.9624 63.5817C60.9964 62.8362 59.2355 55.4957 53.7463 53.8853C49.0206 52.4985 42.1573 53.8372 40.0265 55.3938C39.1058 56.0663 35.6299 62.6573 35.1244 65.8509Z" fill="#874106"/>
<path d="M39.0592 64.211C39.0592 64.211 36.8546 68.5339 35.783 68.9052C35.783 68.9052 31.6314 73.1641 37.4282 73.9226C37.4282 73.9226 37.7657 85.051 44.4378 86.6813L44.4401 89.5273C44.4403 89.7981 44.3433 90.0601 44.1666 90.2656C43.9898 90.4711 43.7451 90.6066 43.4768 90.6475L39.4013 91.2685C39.4013 91.2685 48.3902 104.79 56.2514 91.2538L53.5635 90.6696C53.3279 90.6184 53.1147 90.4936 52.955 90.3134C52.7952 90.1331 52.6972 89.9068 52.6751 89.6672L52.4198 86.893C52.4198 86.893 60.6185 83.9399 59.7352 74.2305C59.7352 74.2305 64.6935 71.6182 60.0779 68.2344C60.0779 68.2344 59.691 68.544 59.5957 66.285C59.5919 66.1944 59.5885 66.1 59.5855 66.0019C59.5596 65.135 59.267 64.297 58.7475 63.6017C58.228 62.9063 57.5067 62.3872 56.6814 62.1149C51.8605 60.5254 42.4602 58.3654 39.0592 64.211ZM22.6753 117.912L18.551 122.389L29.7695 137.75C29.7695 137.75 27.8378 141.928 27.5247 143.423C27.5141 143.474 27.4914 143.522 27.4583 143.562C27.4253 143.603 27.383 143.635 27.3349 143.655C27.2869 143.676 27.2346 143.685 27.1824 143.681C27.1302 143.678 27.0797 143.661 27.0351 143.634C25.4342 142.655 19.7883 138.637 10.1895 125.889C10.1895 125.889 5.96362 121.246 15.1194 111.79L22.6753 117.912Z" fill="#F6B98A"/>
<path d="M27.2607 143.688C30.0258 148.324 33.3553 143.432 33.3553 143.432L34.7611 143.906C35.7095 144.241 36.7273 144.333 37.7206 144.172C38.7139 144.012 39.6507 143.604 40.4444 142.987C40.551 142.901 40.6547 142.811 40.7553 142.717C42.6132 140.987 41.6465 139.526 40.3899 138.558C39.2967 137.734 37.9867 137.247 36.6202 137.155C30.2295 136.661 29.6599 137.871 29.6599 137.871C28.5571 139.317 27.8022 140.997 27.4536 142.781L27.2607 143.688Z" fill="#F6B98A"/>
<path d="M53.6753 247.495L53.6815 254.641L82.0026 254.616C82.1316 253.872 81.9937 253.106 81.6132 252.453C81.2327 251.8 80.6339 251.301 79.9217 251.045L74.8069 251.54C73.5179 251.665 72.2248 251.346 71.1427 250.636L66.0862 247.321L53.6753 247.495ZM36.4723 247.51L36.4785 254.656L8.1574 254.682C8.02718 253.938 8.16373 253.172 8.54309 252.518C8.92245 251.864 9.5204 251.365 10.232 251.107L14.8227 251.543C15.6149 251.618 16.4141 251.526 17.1685 251.273C17.9228 251.02 18.6154 250.612 19.2012 250.074L23.1116 246.486L36.4723 247.51Z" fill="#E82A53"/>
<path d="M8.1582 254.669H36.4793V256.852H8.1582V254.669ZM53.701 254.629H82.0221V256.811H53.701V254.629Z" fill="#874106"/>
<path d="M38.9041 73.9214L38.9098 81.0564C38.9098 81.0564 41.4877 89.9031 52.4202 86.8923C52.4202 86.8923 59.9495 85.0351 59.7668 74.6431C59.7668 74.6431 52.1076 73.5824 38.9041 73.9214ZM38.9041 73.9214C38.6715 73.4912 38.4275 73.0673 38.1723 72.6501C37.9229 72.2424 37.6513 71.8486 37.3588 71.4704C37.0649 71.1 36.7394 70.7557 36.3859 70.4414C36.0139 70.133 35.6093 69.8662 35.1792 69.6455C35.6847 69.7063 36.1697 69.8811 36.5975 70.1566C37.0213 70.4419 37.3987 70.7903 37.7168 71.1897C38.339 71.9846 38.7477 72.9249 38.9041 73.9214Z" fill="#E8E377"/>
<path d="M43.0811 68.2496C43.6325 67.8565 44.2887 67.6358 44.9662 67.6157C45.3082 67.6031 45.6499 67.6457 45.9783 67.7419C46.3055 67.8393 46.6053 68.0119 46.8536 68.2457C46.2413 68.1013 45.6119 68.0419 44.9832 68.0691C44.3632 68.0912 43.7465 68.1789 43.0811 68.2496ZM54.3166 68.2395C54.953 67.8519 55.6878 67.6554 56.4332 67.6734C56.8122 67.6833 57.1865 67.7589 57.5394 67.897C57.889 68.043 58.1925 68.2806 58.4176 68.5847C58.1028 68.4324 57.7722 68.3151 57.4316 68.2349C57.0986 68.1715 56.7608 68.1358 56.4218 68.1279C55.7377 68.111 55.049 68.1851 54.3171 68.2395H54.3166Z" fill="#020202"/>
<path d="M43.0885 76.547C44.1682 76.8523 45.2537 77.1123 46.3448 77.327C47.4318 77.5466 48.5321 77.6948 49.6386 77.7708C50.7376 77.8617 51.8434 77.8254 52.9341 77.6626C54.03 77.4921 55.0819 77.1093 56.0304 76.5356C55.1575 77.2673 54.1168 77.7723 53.001 78.0057C51.8872 78.2451 50.744 78.3188 49.6085 78.2242C48.4794 78.1473 47.3604 77.9605 46.2676 77.6666C45.1757 77.3917 44.1114 77.0169 43.0885 76.547ZM42.8706 79.1859C43.9504 79.4908 45.0358 79.7508 46.1269 79.9659C47.2138 80.1855 48.3139 80.3337 49.4202 80.4097C50.5192 80.5006 51.625 80.4643 52.7156 80.3015C53.8116 80.1309 54.8635 79.7478 55.812 79.174C54.9391 79.9059 53.8985 80.411 52.7826 80.6446C51.6688 80.884 50.5255 80.9577 49.3901 80.8631C48.2611 80.7859 47.1424 80.599 46.0498 80.3049C44.9578 80.0303 43.8936 79.6557 42.8706 79.1859ZM42.8729 82.2663C43.9526 82.5712 45.0381 82.8312 46.1292 83.0463C47.2162 83.2659 48.3165 83.4141 49.423 83.4901C50.522 83.5808 51.6279 83.5443 52.7185 83.3814C53.8144 83.211 54.8663 82.8284 55.8148 82.255C54.9419 82.9866 53.9012 83.4916 52.7854 83.725C51.6716 83.9643 50.5283 84.0377 49.3929 83.9429C48.2638 83.866 47.1448 83.6793 46.0521 83.3854C44.9601 83.1107 43.8959 82.7361 42.8729 82.2663Z" fill="#CEC65F"/>
<path d="M109.34 117.939L89.678 130.685C89.0744 131.077 88.3573 131.257 87.6398 131.198C86.9222 131.138 86.2448 130.843 85.7142 130.357L72.4585 118.19L80.2346 111.868L88.9229 121.535L105.26 113.606L109.34 117.939Z" fill="#F6B98A"/>
<path d="M35.4187 69.3282C35.4187 69.3282 54.1693 59.7632 60.4386 68.808V68.8069C60.936 67.3788 61.1559 65.8692 61.0865 64.3589C60.7733 57.4531 54.5959 52.1233 47.2873 52.4533C39.9787 52.7833 34.309 58.6481 34.6228 65.5538C34.6666 66.8485 34.9362 68.1257 35.4193 69.3282" fill="#E82A53"/>
<path d="M37.9575 68.1769L39.6282 67.6199C45.5123 65.3387 56.0382 62.4592 60.4388 68.8086V68.8069C60.9244 67.4104 61.5393 65.9048 61.4684 64.3521C61.406 62.9636 60.1835 60.1803 59.5396 59.0058C41.3699 57.5578 37.9575 68.1769 37.9575 68.1769Z" fill="#C91745"/>
<path d="M37.9575 68.1768C37.9575 68.1768 41.9202 59.0844 55.1855 60.7616C55.1855 60.7616 78.1433 62.1428 67.8648 68.067C64.4232 70.0208 60.4455 70.8253 56.513 70.3629L37.9575 68.1768Z" fill="#E82A53"/>
<path d="M64.7484 63.833C64.6221 64.4243 64.2987 64.9554 63.8311 65.3398C63.3748 65.7339 62.8669 66.0643 62.3215 66.3219C61.2265 66.8071 60.0702 67.1408 58.8847 67.3136C57.7106 67.4944 56.5243 67.5852 55.3362 67.5853C54.7434 67.5717 54.1517 67.5978 53.5611 67.5514C52.9711 67.5032 52.3811 67.4704 51.7939 67.4087C52.9756 67.3351 54.1511 67.3278 55.3226 67.2355C55.9092 67.2066 56.4913 67.1455 57.0739 67.0872C57.6593 67.0493 58.2334 66.944 58.8121 66.8653C59.9623 66.6973 61.0915 66.4084 62.1808 66.0032C62.4417 65.8844 62.7095 65.7711 62.9648 65.6381C63.2175 65.5004 63.4595 65.3439 63.6887 65.17C64.1747 64.8473 64.5457 64.3792 64.7484 63.833Z" fill="#C91745"/>
<path d="M36.3466 161.268C36.3057 161.568 36.2598 161.868 36.2087 162.168L36.0896 162.139C36.1698 161.849 36.2554 161.559 36.3466 161.268ZM36.0158 163.061L35.7656 163.94L35.4894 163.845L35.7974 162.996L36.0158 163.061ZM35.4792 164.81C35.3727 165.096 35.2624 165.38 35.1484 165.663L34.7797 165.501C34.8988 165.226 35.0196 164.952 35.1473 164.68L35.4792 164.81ZM34.7723 166.501L34.3462 167.317L33.9565 167.098L34.382 166.308L34.7723 166.501ZM33.8759 168.109L33.3557 168.869L32.9966 168.612L33.493 167.868L33.8759 168.109ZM32.785 169.594L32.1621 170.276L31.8802 170.011L32.4594 169.327L32.785 169.594ZM31.4819 170.901L30.7546 171.468L30.5941 171.261L31.2618 170.66L31.4819 170.901ZM29.9774 171.963L29.1565 172.376L29.123 172.312L29.8815 171.813L29.9774 171.963ZM56.9625 161.797L57.0056 162.705L56.9869 162.705L56.9625 161.797ZM57.0493 163.613L57.0924 164.521L57.0357 164.523L57.0113 163.614L57.0493 163.613ZM57.1355 165.43L57.1786 166.338L57.085 166.341L57.0606 165.432L57.1355 165.43ZM57.2223 167.246L57.2654 168.154L57.1338 168.159L57.1094 167.25L57.2223 167.246ZM57.3086 169.063L57.3522 169.97L57.1826 169.977L57.1582 169.068L57.3086 169.063ZM57.3954 170.879L57.4385 171.787L57.232 171.795L57.2076 170.886L57.3954 170.879ZM57.4816 172.695L57.5196 173.604L57.2864 173.612L57.2564 172.704L57.4816 172.695ZM57.557 174.512L57.5939 175.421L57.3477 175.43L57.3171 174.521L57.557 174.512ZM57.6308 176.329L57.6682 177.238L57.409 177.248L57.3783 176.338L57.6308 176.329ZM57.7051 178.146L57.7425 179.054L57.4702 179.065L57.4396 178.156L57.7051 178.146ZM57.7794 179.963L57.8169 180.871L57.5315 180.882L57.5009 179.974L57.7794 179.963ZM57.8537 181.78L57.8906 182.688L57.5928 182.7L57.5621 181.791L57.8537 181.78ZM57.9281 183.597L57.9649 184.505L57.654 184.517L57.6234 183.608L57.9281 183.597ZM58.0024 185.414L58.0392 186.322L57.7153 186.334L57.6847 185.426L58.0024 185.414ZM58.0767 187.231L58.1136 188.139L57.7766 188.152L57.746 187.243L58.0767 187.231ZM58.151 189.048L58.1879 189.956L57.8379 189.969L57.8072 189.06L58.151 189.048ZM58.2248 190.864L58.2622 191.773L57.8991 191.786L57.8685 190.878L58.2248 190.864ZM58.2991 192.681L58.3365 193.59L57.9604 193.604L57.9298 192.695L58.2991 192.681ZM58.3734 194.498L58.4108 195.407L58.0217 195.422L57.991 194.512L58.3734 194.498ZM58.4477 196.315L58.4846 197.224L58.0829 197.239L58.0523 196.33L58.4477 196.315ZM58.522 198.132L58.5589 199.041L58.1442 199.056L58.1136 198.148L58.522 198.132ZM58.5963 199.949L58.6332 200.858L58.2055 200.874L58.1748 199.965L58.5963 199.949ZM58.6707 201.766L58.7075 202.675L58.2667 202.691L58.2361 201.782L58.6707 201.766ZM58.7444 203.583L58.7819 204.491L58.328 204.508L58.2974 203.6L58.7444 203.583ZM58.8142 205.4L58.8448 206.309L58.4006 206.325L58.3637 205.417L58.8142 205.4ZM58.8755 207.217L58.9061 208.126L58.4749 208.142L58.4381 207.234L58.8755 207.217ZM58.9367 209.035L58.9674 209.943L58.5493 209.959L58.5124 209.051L58.9367 209.035ZM58.998 210.852L59.0286 211.761L58.6236 211.776L58.5867 210.868L58.998 210.852ZM59.0593 212.669L59.0899 213.579L58.6979 213.593L58.661 212.685L59.0593 212.669ZM59.1205 214.487L59.1512 215.396L58.7722 215.41L58.7353 214.501L59.1205 214.487ZM59.1818 216.305L59.2124 217.213L58.8465 217.227L58.8091 216.318L59.1818 216.305ZM59.2431 218.122L59.2737 219.031L58.9208 219.044L58.8834 218.135L59.2431 218.122ZM59.3043 219.939L59.335 220.848L58.9952 220.861L58.9577 219.952L59.3043 219.939ZM59.3656 221.757L59.3962 222.665L59.0695 222.678L59.032 221.769L59.3656 221.757ZM59.4269 223.574L59.4569 224.483L59.1438 224.495L59.1064 223.586L59.4269 223.574ZM59.4876 225.391L59.5182 226.3L59.2181 226.312L59.1807 225.403L59.4876 225.391ZM59.5489 227.209L59.5795 228.118L59.2924 228.128L59.255 227.22L59.5489 227.209ZM59.6101 229.027L59.6408 229.935L59.3667 229.945L59.3293 229.037L59.6101 229.027ZM59.6714 230.844L59.702 231.753L59.4405 231.762L59.4036 230.854L59.6714 230.844ZM59.7327 232.661L59.7633 233.57L59.5148 233.579L59.4779 232.671L59.7327 232.661ZM59.7939 234.479L59.8246 235.387L59.5891 235.396L59.5523 234.488L59.7939 234.479ZM59.8552 236.296L59.8807 237.205L59.6686 237.213L59.6266 236.305L59.8552 236.296ZM59.9051 238.114L59.9295 239.023L59.7554 239.029L59.7122 238.121L59.9051 238.114ZM59.9545 239.932L59.9789 240.84L59.8422 240.846L59.7985 239.938L59.9545 239.932ZM60.0033 241.749L60.0277 242.659L59.9289 242.662L59.8853 241.754L60.0033 241.749ZM60.0521 243.568L60.0765 244.476L60.0152 244.478L59.9721 243.57L60.0521 243.568ZM60.1008 245.385L60.1252 246.294L60.102 246.295L60.0589 245.387L60.1008 245.385ZM60.1496 247.203L60.1547 247.404L60.1457 247.203H60.1496Z" fill="#2D1505"/>
<path d="M112.007 127.329C112.484 127.166 112.917 127.057 113.346 126.915C113.781 126.786 114.18 126.619 114.661 126.454C114.395 126.889 113.975 127.208 113.484 127.348C113.004 127.512 112.483 127.506 112.007 127.329ZM116.314 125.443C116.856 125.355 117.345 125.296 117.826 125.183C118.066 125.13 118.303 125.064 118.536 124.983C118.774 124.906 119.004 124.805 119.265 124.704C119.126 124.946 118.93 125.15 118.695 125.3C118.461 125.454 118.2 125.565 117.927 125.625C117.384 125.758 116.812 125.694 116.314 125.443Z" fill="#CEC65F"/>
<path d="M113.054 126.975C110.921 117.295 111.395 112.696 112.55 111.619C112.653 111.522 112.78 111.454 112.918 111.423C113.056 111.391 113.2 111.397 113.335 111.44C113.485 111.488 113.618 111.575 113.722 111.692C113.826 111.809 113.897 111.952 113.927 112.105L113.482 112.202C113.468 112.127 113.435 112.057 113.385 111.999C113.336 111.942 113.271 111.898 113.199 111.874C113.141 111.855 113.079 111.852 113.019 111.866C112.959 111.88 112.905 111.909 112.861 111.952C112.044 112.713 111.259 116.713 113.499 126.877L113.054 126.975Z" fill="#CEC65F"/>
<path d="M112.532 111.498C110.901 111.149 109.212 111.171 107.59 111.563C105.711 112.782 105.325 113.894 105.325 113.894C105.325 113.894 105.086 115.049 107.144 115.304C109.83 115.636 111.157 111.964 111.157 111.964C112.364 111.69 112.834 111.554 112.532 111.498Z" fill="#E8A77C"/>
<path d="M105.361 113.58C105.361 113.58 105.641 112.142 108.784 110.61C108.905 110.551 109.038 110.518 109.174 110.513C110.854 110.438 112.528 110.254 114.185 109.962C114.251 109.95 114.32 109.962 114.378 109.998C114.436 110.033 114.478 110.088 114.498 110.153C114.601 110.532 114.299 111.344 110.665 112.169C110.665 112.169 109.06 114.917 106.995 115.105C104.93 115.292 105.361 113.58 105.361 113.58Z" fill="#F6B98A"/>
<path d="M229.905 158.174L236.728 246.296C236.728 246.296 232.25 252.191 223.389 247.835L213.307 163.396L210.191 163.726L206.165 247.359C206.165 247.359 199.553 251.129 193.754 247.206L194.295 158.448L229.874 158.145C229.882 158.145 229.889 158.148 229.895 158.153C229.9 158.158 229.904 158.166 229.904 158.173L229.905 158.174Z" fill="#104F54"/>
<path d="M194.297 159.813C194.347 159.358 194.395 158.903 194.44 158.448L229.752 158.147C229.81 158.688 229.871 159.23 229.936 159.772L218.031 162.172C214.572 162.873 211.039 163.143 207.513 162.975C194.89 162.362 194.296 159.813 194.296 159.813H194.297Z" fill="#052526"/>
<path d="M193.317 94.4883L203.311 91.1231L211.037 96.89L220.161 91.1084L230.355 94.4413C231.823 94.9201 233.153 95.744 234.235 96.8436C236.216 98.8598 239.643 102.984 244.875 111.266L236.726 117.985L231.428 111.589C231.428 111.589 227.117 135.083 229.924 158.411L218.03 160.809C214.571 161.51 211.038 161.779 207.512 161.612C194.888 160.998 194.295 158.449 194.295 158.449C196.899 135.098 192.395 111.645 192.395 111.645L187.152 118.086L178.944 111.438C184.104 103.11 187.495 98.9572 189.459 96.9239C190.531 95.8152 191.854 94.9798 193.317 94.4883Z" fill="#E8E377"/>
<path d="M207.283 94.0874H206.75L206.811 161.573C207.043 161.586 207.271 161.6 207.512 161.612C210.784 161.766 214.063 161.543 217.284 160.948L217.224 94.0784L215.471 94.0801L211.037 96.8899L207.283 94.0874Z" fill="#ED5D83"/>
<path d="M152.455 118.349L144.879 118.587C144.734 118.592 144.59 118.584 144.447 118.564C143.516 118.432 139.889 117.859 138.718 116.81C138.718 116.81 131.852 111.085 139.102 109.901C140.028 109.758 140.973 109.812 141.876 110.06C142.78 110.308 143.62 110.744 144.342 111.339C144.382 111.371 144.423 111.403 144.464 111.434C144.916 111.777 145.435 112.021 145.988 112.149C146.541 112.277 147.115 112.286 147.672 112.176C148.93 111.936 151.174 111.671 152.97 112.341C154.463 112.898 155.301 114.75 154.802 116.554L154.796 116.573C154.644 117.078 154.336 117.522 153.915 117.841C153.494 118.16 152.983 118.338 152.455 118.349Z" fill="#F6B98A"/>
<path d="M151.756 116.117C150.626 116.271 149.478 116.224 148.365 115.978C147.809 115.846 147.267 115.658 146.75 115.415C146.238 115.162 145.77 114.83 145.362 114.432C145.818 114.758 146.308 115.034 146.823 115.256C147.338 115.468 147.871 115.636 148.416 115.756C148.961 115.88 149.514 115.969 150.071 116.023C150.628 116.081 151.19 116.112 151.756 116.117Z" fill="#E8A77C"/>
<path d="M200.575 63.4243L198.946 63.5115L198.837 64.5717C198.762 65.3017 198.808 66.0391 198.972 66.7544L199.331 68.3144C199.331 68.3144 199.652 68.4219 200.013 67.047C200.276 65.8525 200.464 64.6425 200.574 63.4243H200.575Z" fill="#874106"/>
<path d="M224.392 65.6829C224.896 68.8272 222.828 72.879 221.446 72.6679C220.159 72.472 198.946 64.1092 198.926 63.696C198.89 62.9506 200.263 55.3706 205.749 53.7506C210.472 52.3553 217.338 53.6821 219.472 55.2348C220.394 55.9056 223.881 62.4898 224.392 65.6829Z" fill="#874106"/>
<path d="M220.455 64.0498C220.455 64.0498 222.668 68.3687 223.74 68.7384C223.74 68.7384 227.898 72.9894 222.104 73.7592C222.104 73.7592 221.786 84.8876 215.117 86.5303L215.12 89.3758C215.12 89.6466 215.217 89.9083 215.394 90.1135C215.571 90.3187 215.816 90.4538 216.085 90.4943L220.161 91.1079C220.161 91.1079 211.197 104.645 203.312 91.1232L205.998 90.5345C206.233 90.4829 206.446 90.3577 206.606 90.1771C206.765 89.9966 206.863 89.77 206.885 89.5303L207.134 86.7556C207.134 86.7556 198.931 83.8172 199.797 74.1056C199.797 74.1056 194.834 71.5024 199.444 68.1112C199.444 68.1112 199.831 68.4197 199.923 66.16C199.926 66.0698 199.93 65.9755 199.932 65.877C199.957 65.0102 200.248 64.1719 200.766 63.4757C201.284 62.7796 202.004 62.2593 202.829 61.9854C207.647 60.3875 217.044 58.2099 220.455 64.0498Z" fill="#F6B98A"/>
<path d="M206.166 247.359L206.172 254.506L177.851 254.531C177.721 253.787 177.858 253.021 178.237 252.367C178.616 251.714 179.214 251.214 179.925 250.956L185.042 251.442C186.331 251.565 187.623 251.244 188.704 250.532L193.755 247.207L206.166 247.359ZM223.369 247.344L223.375 254.491L251.696 254.466C251.825 253.721 251.688 252.955 251.307 252.302C250.927 251.649 250.328 251.15 249.616 250.894L245.026 251.339C244.234 251.415 243.434 251.325 242.679 251.073C241.925 250.821 241.231 250.414 240.645 249.877L236.728 246.296L223.369 247.344Z" fill="#2D1505"/>
<path d="M223.376 254.478H251.698V256.66H223.376V254.478ZM177.833 254.518H206.154V256.7H177.833V254.518Z" fill="#874106"/>
<path d="M150.27 117.902L169.955 130.614C170.559 131.005 171.276 131.184 171.994 131.123C172.712 131.062 173.389 130.765 173.918 130.278L187.152 118.088L179.364 111.78L170.694 121.462L154.342 113.562L150.27 117.902Z" fill="#F6B98A"/>
<path d="M223.34 161.102C223.557 161.823 223.802 162.536 224.075 163.238C224.089 163.279 224.086 163.323 224.068 163.361C224.05 163.4 224.018 163.43 223.978 163.446C223.938 163.461 223.894 163.461 223.855 163.444C223.815 163.428 223.784 163.397 223.766 163.358C223.764 163.352 223.762 163.346 223.761 163.34C223.561 162.607 223.42 161.858 223.341 161.102H223.34ZM224.956 165.302C225.314 165.954 225.665 166.611 226.008 167.271L226.024 167.302C226.059 167.368 226.066 167.445 226.043 167.516C226.021 167.587 225.971 167.646 225.905 167.681C225.839 167.715 225.762 167.722 225.691 167.7C225.62 167.677 225.56 167.628 225.526 167.562L225.525 167.559C225.174 166.878 224.832 166.194 224.498 165.505C224.469 165.446 224.464 165.379 224.485 165.317C224.505 165.255 224.549 165.204 224.607 165.174C224.665 165.144 224.732 165.138 224.795 165.157C224.857 165.176 224.909 165.218 224.941 165.276L224.956 165.302ZM227.268 169.104C227.726 169.687 228.231 170.233 228.776 170.736C228.815 170.769 228.839 170.816 228.844 170.867C228.848 170.918 228.832 170.969 228.799 171.008C228.766 171.047 228.719 171.071 228.668 171.076C228.617 171.08 228.566 171.064 228.527 171.031C227.918 170.559 227.359 170.024 226.861 169.437C226.817 169.383 226.796 169.315 226.802 169.246C226.808 169.177 226.841 169.114 226.893 169.069C226.946 169.024 227.014 169.002 227.083 169.007C227.152 169.012 227.217 169.044 227.262 169.096L227.268 169.104ZM230.554 172.103L231.005 172.377L230.509 172.19C230.503 172.187 230.497 172.184 230.493 172.18C230.488 172.175 230.484 172.17 230.481 172.164C230.479 172.158 230.477 172.152 230.477 172.145C230.477 172.139 230.478 172.132 230.48 172.126C230.483 172.12 230.486 172.114 230.491 172.11C230.495 172.105 230.5 172.101 230.506 172.099C230.512 172.096 230.519 172.094 230.525 172.094C230.532 172.094 230.538 172.095 230.544 172.097L230.554 172.103ZM202.726 161.667L202.675 163.931C202.674 163.935 202.674 163.939 202.672 163.942C202.67 163.946 202.668 163.949 202.665 163.952C202.663 163.954 202.659 163.956 202.656 163.958C202.652 163.959 202.648 163.96 202.644 163.959C202.641 163.959 202.637 163.958 202.633 163.957C202.63 163.955 202.627 163.953 202.624 163.95C202.621 163.948 202.619 163.944 202.618 163.941C202.617 163.937 202.616 163.933 202.616 163.929V163.929L202.726 161.667ZM202.623 166.195L202.572 168.458C202.572 168.482 202.562 168.504 202.545 168.52C202.529 168.536 202.506 168.544 202.483 168.544C202.46 168.543 202.437 168.534 202.421 168.517C202.405 168.5 202.397 168.478 202.397 168.454V168.452L202.507 166.19C202.507 166.175 202.514 166.16 202.525 166.15C202.536 166.139 202.552 166.133 202.567 166.134C202.583 166.134 202.597 166.141 202.608 166.152C202.618 166.164 202.624 166.179 202.623 166.194V166.195ZM202.521 170.722L202.468 172.986C202.468 173.005 202.463 173.024 202.456 173.041C202.448 173.058 202.437 173.074 202.423 173.087C202.41 173.1 202.394 173.11 202.376 173.117C202.358 173.124 202.339 173.127 202.321 173.127C202.302 173.126 202.283 173.122 202.266 173.114C202.248 173.107 202.233 173.096 202.22 173.082C202.207 173.068 202.196 173.052 202.19 173.035C202.183 173.017 202.179 172.998 202.18 172.979V172.975L202.288 170.714C202.29 170.685 202.304 170.657 202.327 170.638C202.349 170.618 202.378 170.608 202.408 170.609C202.438 170.61 202.466 170.622 202.487 170.643C202.508 170.664 202.52 170.692 202.521 170.722ZM202.404 175.249L202.34 177.512C202.34 177.536 202.336 177.56 202.327 177.582C202.318 177.604 202.305 177.625 202.288 177.641C202.271 177.658 202.25 177.672 202.228 177.68C202.206 177.689 202.182 177.693 202.158 177.693C202.134 177.692 202.11 177.687 202.089 177.677C202.067 177.667 202.047 177.652 202.031 177.634C202.015 177.617 202.003 177.596 201.995 177.573C201.988 177.55 201.985 177.527 201.986 177.503V177.5L202.083 175.238C202.084 175.195 202.103 175.155 202.134 175.126C202.165 175.097 202.206 175.082 202.249 175.083C202.292 175.085 202.332 175.103 202.361 175.134C202.39 175.165 202.405 175.207 202.404 175.249ZM202.276 179.776L202.212 182.039C202.213 182.067 202.207 182.095 202.197 182.122C202.186 182.148 202.17 182.171 202.15 182.191C202.13 182.211 202.106 182.227 202.08 182.237C202.053 182.248 202.025 182.253 201.997 182.252C201.968 182.251 201.94 182.245 201.915 182.233C201.889 182.221 201.866 182.204 201.847 182.183C201.828 182.162 201.813 182.138 201.804 182.111C201.795 182.084 201.791 182.056 201.793 182.028V182.024L201.889 179.762C201.891 179.711 201.913 179.663 201.951 179.628C201.988 179.593 202.038 179.574 202.09 179.576C202.141 179.578 202.189 179.6 202.224 179.637C202.259 179.675 202.278 179.725 202.276 179.776ZM202.149 184.303L202.082 186.566C202.078 186.627 202.05 186.685 202.004 186.727C201.958 186.769 201.898 186.791 201.835 186.789C201.773 186.787 201.714 186.762 201.671 186.718C201.627 186.673 201.602 186.614 201.602 186.552V186.549L201.697 184.287C201.702 184.229 201.729 184.177 201.773 184.139C201.816 184.101 201.872 184.081 201.93 184.083C201.987 184.085 202.042 184.109 202.083 184.15C202.123 184.19 202.147 184.245 202.148 184.303H202.149ZM202.007 188.829L201.933 191.092C201.928 191.157 201.899 191.217 201.85 191.261C201.802 191.305 201.738 191.328 201.673 191.325C201.608 191.323 201.546 191.296 201.501 191.249C201.456 191.202 201.43 191.14 201.43 191.075V191.074L201.516 188.812C201.518 188.747 201.546 188.685 201.594 188.641C201.641 188.596 201.705 188.573 201.77 188.575C201.835 188.577 201.897 188.605 201.941 188.653C201.986 188.7 202.01 188.764 202.007 188.829H202.007ZM201.858 193.355L201.783 195.618C201.78 195.687 201.751 195.753 201.7 195.8C201.649 195.848 201.582 195.873 201.512 195.871C201.443 195.869 201.377 195.839 201.329 195.788C201.282 195.738 201.256 195.67 201.259 195.601V195.599L201.344 193.337C201.345 193.303 201.353 193.27 201.367 193.239C201.381 193.209 201.401 193.181 201.426 193.158C201.451 193.135 201.479 193.117 201.511 193.106C201.543 193.094 201.576 193.088 201.61 193.09C201.644 193.091 201.677 193.099 201.708 193.113C201.738 193.126 201.766 193.146 201.789 193.171C201.812 193.196 201.83 193.225 201.842 193.256C201.853 193.288 201.859 193.321 201.858 193.355ZM201.707 197.881L201.632 200.143C201.632 200.18 201.625 200.216 201.611 200.25C201.597 200.283 201.576 200.314 201.549 200.339C201.523 200.364 201.492 200.384 201.458 200.397C201.424 200.41 201.387 200.417 201.351 200.415C201.314 200.414 201.278 200.406 201.245 200.39C201.212 200.375 201.182 200.353 201.157 200.326C201.133 200.299 201.114 200.268 201.102 200.233C201.09 200.199 201.085 200.162 201.087 200.126V200.124L201.173 197.862C201.175 197.791 201.206 197.724 201.258 197.676C201.31 197.628 201.379 197.602 201.45 197.605C201.521 197.607 201.588 197.638 201.636 197.69C201.684 197.741 201.71 197.81 201.707 197.881ZM201.558 202.406L201.483 204.669C201.481 204.707 201.473 204.743 201.457 204.777C201.442 204.811 201.42 204.841 201.393 204.867C201.338 204.918 201.265 204.946 201.19 204.943C201.114 204.941 201.043 204.908 200.992 204.854C200.94 204.799 200.913 204.726 200.915 204.651V204.65L201.002 202.387C201.003 202.35 201.011 202.314 201.027 202.281C201.042 202.248 201.063 202.218 201.09 202.193C201.117 202.169 201.148 202.149 201.182 202.136C201.217 202.124 201.253 202.118 201.289 202.119C201.326 202.12 201.362 202.129 201.395 202.144C201.428 202.159 201.458 202.181 201.483 202.207C201.508 202.234 201.527 202.265 201.54 202.299C201.553 202.334 201.559 202.37 201.558 202.406ZM201.397 206.932L201.311 209.194C201.308 209.266 201.277 209.335 201.224 209.384C201.171 209.433 201.101 209.459 201.029 209.456C200.957 209.454 200.888 209.423 200.839 209.37C200.79 209.317 200.764 209.247 200.766 209.175L200.841 206.912C200.842 206.876 200.851 206.84 200.866 206.807C200.881 206.773 200.902 206.744 200.929 206.719C200.956 206.694 200.987 206.674 201.021 206.662C201.055 206.649 201.092 206.643 201.128 206.644C201.165 206.645 201.201 206.654 201.234 206.669C201.267 206.684 201.297 206.705 201.322 206.732C201.347 206.759 201.367 206.79 201.379 206.824C201.392 206.858 201.398 206.894 201.397 206.931V206.932ZM201.225 211.457L201.139 213.72C201.138 213.754 201.13 213.788 201.116 213.819C201.102 213.85 201.081 213.878 201.056 213.902C201.005 213.949 200.938 213.974 200.869 213.972C200.799 213.969 200.734 213.939 200.686 213.888C200.639 213.838 200.614 213.77 200.616 213.701L200.691 211.438C200.694 211.368 200.724 211.301 200.776 211.252C200.827 211.204 200.896 211.178 200.967 211.181C201.038 211.183 201.105 211.213 201.153 211.265C201.202 211.316 201.227 211.385 201.225 211.456V211.457ZM201.054 215.982L200.968 218.245C200.963 218.31 200.934 218.37 200.885 218.414C200.837 218.457 200.774 218.48 200.709 218.478C200.643 218.476 200.582 218.448 200.537 218.402C200.492 218.355 200.466 218.292 200.467 218.227L200.541 215.964C200.546 215.898 200.576 215.836 200.625 215.792C200.675 215.747 200.739 215.723 200.806 215.726C200.872 215.728 200.935 215.756 200.982 215.803C201.028 215.851 201.054 215.915 201.054 215.981V215.982ZM200.882 220.507L200.796 222.77C200.792 222.832 200.764 222.89 200.717 222.931C200.671 222.973 200.611 222.995 200.548 222.993C200.486 222.99 200.427 222.964 200.384 222.919C200.341 222.875 200.317 222.815 200.317 222.753L200.392 220.49C200.394 220.425 200.422 220.364 200.469 220.319C200.517 220.275 200.58 220.251 200.645 220.253C200.71 220.256 200.771 220.284 200.816 220.331C200.86 220.378 200.884 220.441 200.882 220.506V220.507ZM200.7 225.032L200.604 227.294C200.603 227.321 200.597 227.348 200.585 227.373C200.574 227.398 200.558 227.42 200.538 227.439C200.518 227.457 200.494 227.472 200.469 227.481C200.443 227.491 200.416 227.495 200.389 227.494C200.361 227.493 200.334 227.487 200.31 227.476C200.285 227.464 200.262 227.448 200.244 227.428C200.225 227.408 200.211 227.385 200.201 227.359C200.191 227.334 200.187 227.307 200.188 227.28L200.252 225.016C200.251 224.986 200.256 224.955 200.267 224.927C200.278 224.898 200.295 224.872 200.317 224.85C200.339 224.829 200.365 224.811 200.393 224.8C200.422 224.789 200.452 224.783 200.483 224.784C200.514 224.785 200.544 224.792 200.572 224.805C200.6 224.818 200.624 224.836 200.645 224.859C200.665 224.882 200.681 224.909 200.69 224.938C200.7 224.968 200.703 224.998 200.7 225.029V225.032ZM200.507 229.557L200.41 231.819C200.409 231.865 200.389 231.909 200.355 231.94C200.321 231.972 200.276 231.989 200.229 231.987C200.183 231.985 200.139 231.965 200.107 231.931C200.076 231.898 200.059 231.853 200.06 231.806L200.124 229.543C200.125 229.492 200.147 229.444 200.184 229.41C200.221 229.375 200.27 229.356 200.321 229.357C200.372 229.359 200.42 229.38 200.455 229.417C200.49 229.454 200.508 229.503 200.507 229.554V229.557ZM200.313 234.081L200.216 236.343C200.216 236.362 200.211 236.38 200.204 236.397C200.196 236.414 200.185 236.429 200.171 236.442C200.158 236.454 200.142 236.464 200.124 236.471C200.107 236.477 200.088 236.48 200.069 236.479C200.051 236.479 200.033 236.474 200.016 236.467C199.999 236.459 199.983 236.448 199.971 236.434C199.958 236.421 199.948 236.405 199.942 236.387C199.935 236.37 199.932 236.351 199.933 236.333L199.996 234.07C200 234.029 200.018 233.992 200.049 233.965C200.079 233.938 200.119 233.923 200.159 233.924C200.2 233.925 200.239 233.942 200.267 233.971C200.296 234 200.312 234.038 200.313 234.079L200.313 234.081ZM200.106 238.605L199.997 240.866C199.995 240.887 199.984 240.906 199.969 240.92C199.953 240.934 199.932 240.941 199.911 240.94C199.89 240.94 199.87 240.931 199.855 240.916C199.84 240.901 199.832 240.882 199.831 240.861L199.882 238.596C199.882 238.582 199.885 238.567 199.891 238.554C199.897 238.54 199.906 238.528 199.917 238.518C199.927 238.508 199.94 238.5 199.954 238.494C199.968 238.489 199.982 238.487 199.997 238.487C200.012 238.487 200.027 238.491 200.04 238.497C200.054 238.503 200.066 238.511 200.076 238.522C200.086 238.533 200.094 238.545 200.099 238.559C200.105 238.573 200.107 238.587 200.107 238.602L200.106 238.605ZM199.887 243.128L199.777 245.39C199.777 245.397 199.774 245.403 199.77 245.407C199.765 245.412 199.759 245.414 199.752 245.414C199.746 245.413 199.739 245.411 199.735 245.406C199.731 245.401 199.728 245.395 199.729 245.388L199.78 243.124C199.78 243.117 199.781 243.11 199.784 243.104C199.787 243.097 199.791 243.092 199.796 243.087C199.802 243.082 199.808 243.078 199.814 243.075C199.821 243.073 199.828 243.072 199.835 243.072C199.842 243.072 199.849 243.074 199.855 243.077C199.862 243.079 199.868 243.084 199.873 243.089C199.877 243.094 199.881 243.1 199.884 243.106C199.886 243.113 199.888 243.12 199.887 243.127V243.128Z" fill="#052526"/>
<path d="M147.067 111.467C148.697 111.115 150.386 111.135 152.008 111.524C153.89 112.739 154.278 113.85 154.278 113.85C154.278 113.85 154.519 115.006 152.462 115.264C149.776 115.601 148.443 111.931 148.443 111.931C147.235 111.659 146.765 111.525 147.067 111.467V111.467ZM209.32 73.0334C209.394 73.6501 209.389 74.2736 209.305 74.8889C209.232 75.5177 209.058 76.1304 208.788 76.7031C208.672 76.9159 208.636 77.1636 208.688 77.4003C208.741 77.6371 208.877 77.847 209.072 77.9914C209.461 78.279 210.098 78.0169 210.618 77.7141C210.424 77.9682 210.18 78.1793 209.9 78.3339C209.742 78.4238 209.565 78.4747 209.384 78.4823C209.202 78.4898 209.022 78.4539 208.857 78.3775C208.69 78.2937 208.542 78.1756 208.423 78.0309C208.304 77.8861 208.217 77.718 208.168 77.5375C208.078 77.1775 208.116 76.7975 208.274 76.462C208.528 75.9301 208.728 75.3746 208.872 74.8035L209.32 73.0334Z" fill="#E8A77C"/>
<path d="M206.672 80.8936L212.442 80.8879C212.442 80.8879 210.405 87.6658 206.672 80.8936Z" fill="#A03041"/>
<path d="M211.518 82.7925C211.324 82.671 211.102 82.6034 210.873 82.597C210.645 82.5905 210.419 82.6453 210.219 82.7556C210.019 82.866 209.852 83.0279 209.736 83.2245C209.62 83.421 209.559 83.645 209.56 83.8731C210.386 84.0202 211.042 83.4655 211.518 82.7919V82.7925Z" fill="#CC546B"/>
<path d="M220.161 91.1084L224.096 96.4672L220.831 98.9662L223.441 105.281L217.242 114.252L217.225 94.405L220.161 91.1084Z" fill="#E8E377"/>
<path d="M220.161 91.1084L224.097 96.4672L220.831 98.9662L223.441 105.281L217.242 114.252L217.225 94.405L220.161 91.1084ZM203.312 91.1231L199.883 97.7113L203.153 100.204L200.555 106.524L206.769 115.485L206.752 95.3996L203.312 91.1231Z" fill="#CEC65F"/>
<path d="M219.342 118.683C219.892 118.683 220.337 118.238 220.337 117.689C220.337 117.141 219.892 116.696 219.342 116.696C218.792 116.696 218.346 117.141 218.346 117.689C218.346 118.238 218.792 118.683 219.342 118.683Z" fill="#104F54"/>
<path d="M219.349 126.555C219.899 126.555 220.344 126.11 220.344 125.561C220.344 125.013 219.899 124.568 219.349 124.568C218.799 124.568 218.353 125.013 218.353 125.561C218.353 126.11 218.799 126.555 219.349 126.555Z" fill="#104F54"/>
<path d="M219.355 134.426C219.905 134.426 220.351 133.981 220.351 133.433C220.351 132.884 219.905 132.439 219.355 132.439C218.806 132.439 218.36 132.884 218.36 133.433C218.36 133.981 218.806 134.426 219.355 134.426Z" fill="#104F54"/>
<path d="M219.371 151.745C219.921 151.745 220.367 151.3 220.367 150.751C220.367 150.203 219.921 149.758 219.371 149.758C218.821 149.758 218.375 150.203 218.375 150.751C218.375 151.3 218.821 151.745 219.371 151.745Z" fill="#104F54"/>
<path d="M219.379 160.142C219.929 160.142 220.375 159.697 220.375 159.148C220.375 158.6 219.929 158.155 219.379 158.155C218.829 158.155 218.383 158.6 218.383 159.148C218.383 159.697 218.829 160.142 219.379 160.142Z" fill="#104F54"/>
<path d="M219.363 143.348C219.913 143.348 220.359 142.903 220.359 142.355C220.359 141.806 219.913 141.361 219.363 141.361C218.813 141.361 218.368 141.806 218.368 142.355C218.368 142.903 218.813 143.348 219.363 143.348Z" fill="#104F54"/>
<path d="M140.688 99.6399L156.669 119.505L148.386 126.138L132.406 106.273L140.688 99.6399Z" fill="#3CA05D"/>
<path d="M140.755 101.677L154.69 118.998L148.319 124.101L134.384 106.779L140.755 101.677Z" fill="#4FBA75"/>
<path d="M141.966 109.693C142.956 108.9 143.171 107.528 142.448 106.629C141.724 105.729 140.335 105.642 139.345 106.435C138.356 107.227 138.14 108.599 138.864 109.499C139.588 110.398 140.977 110.485 141.966 109.693Z" fill="#3CA05D"/>
<path d="M149.729 119.342C150.719 118.55 150.935 117.178 150.211 116.279C149.487 115.379 148.098 115.292 147.109 116.085C146.119 116.877 145.904 118.249 146.627 119.149C147.351 120.048 148.74 120.135 149.729 119.342Z" fill="#3CA05D"/>
<path d="M140.734 103.522C141.256 104.073 141.75 104.645 142.258 105.206C142.271 105.218 142.281 105.233 142.288 105.25C142.294 105.267 142.298 105.285 142.297 105.303C142.297 105.321 142.293 105.338 142.285 105.355C142.278 105.371 142.267 105.386 142.253 105.398C142.24 105.41 142.224 105.419 142.207 105.425C142.19 105.431 142.172 105.433 142.154 105.432C142.136 105.43 142.119 105.425 142.103 105.417C142.087 105.408 142.073 105.397 142.061 105.383L142.052 105.371C141.613 104.755 141.161 104.149 140.734 103.522ZM143.739 106.922C144.236 107.493 144.717 108.074 145.2 108.656C145.243 108.709 145.264 108.778 145.257 108.846C145.25 108.914 145.217 108.977 145.164 109.021C145.111 109.065 145.042 109.086 144.974 109.081C144.905 109.075 144.842 109.042 144.797 108.99L144.791 108.983C144.327 108.387 143.862 107.792 143.412 107.185C143.395 107.164 143.382 107.139 143.374 107.113C143.366 107.086 143.364 107.059 143.367 107.031C143.37 107.004 143.378 106.977 143.391 106.953C143.405 106.929 143.423 106.908 143.444 106.89C143.466 106.873 143.49 106.86 143.517 106.853C143.543 106.845 143.571 106.842 143.598 106.845C143.626 106.848 143.652 106.857 143.677 106.87C143.701 106.883 143.722 106.901 143.739 106.922H143.739ZM146.635 110.41L148.05 112.18C148.073 112.208 148.09 112.24 148.1 112.274C148.11 112.309 148.113 112.345 148.109 112.38C148.105 112.416 148.094 112.451 148.077 112.482C148.06 112.513 148.036 112.541 148.008 112.564C147.98 112.586 147.948 112.603 147.914 112.613C147.879 112.623 147.843 112.626 147.807 112.622C147.772 112.618 147.737 112.607 147.706 112.59C147.674 112.573 147.646 112.55 147.624 112.522L146.198 110.761C146.151 110.703 146.129 110.629 146.137 110.555C146.144 110.481 146.181 110.413 146.239 110.367C146.297 110.32 146.371 110.298 146.445 110.306C146.519 110.314 146.587 110.35 146.634 110.408L146.635 110.41ZM149.444 113.967L150.807 115.779C150.834 115.813 150.846 115.856 150.841 115.9C150.836 115.943 150.814 115.982 150.78 116.009C150.746 116.036 150.703 116.049 150.66 116.045C150.616 116.041 150.577 116.019 150.549 115.986L149.07 114.266C149.032 114.218 149.014 114.156 149.02 114.095C149.026 114.033 149.055 113.976 149.102 113.936C149.149 113.896 149.21 113.875 149.272 113.879C149.334 113.882 149.392 113.91 149.435 113.955L149.444 113.967ZM152.145 117.611C152.32 117.851 152.486 118.098 152.656 118.341C152.454 118.123 152.248 117.908 152.052 117.685C152.047 117.679 152.043 117.672 152.041 117.665C152.038 117.657 152.037 117.65 152.038 117.642C152.038 117.634 152.04 117.627 152.044 117.62C152.047 117.613 152.052 117.607 152.058 117.601C152.064 117.596 152.07 117.592 152.078 117.59C152.085 117.588 152.093 117.587 152.101 117.587C152.108 117.588 152.116 117.59 152.123 117.593C152.13 117.597 152.136 117.601 152.141 117.607L152.145 117.611ZM136.195 107.158C136.716 107.709 137.211 108.28 137.719 108.841C137.74 108.867 137.751 108.901 137.748 108.934C137.746 108.968 137.73 109 137.705 109.022C137.68 109.045 137.647 109.057 137.613 109.056C137.579 109.056 137.546 109.042 137.522 109.018L137.513 109.007C137.074 108.39 136.622 107.784 136.195 107.158ZM139.2 110.558C139.697 111.128 140.178 111.71 140.661 112.291C140.683 112.318 140.7 112.348 140.71 112.381C140.72 112.414 140.724 112.449 140.72 112.483C140.717 112.517 140.707 112.55 140.691 112.581C140.675 112.611 140.653 112.638 140.627 112.66C140.6 112.682 140.569 112.698 140.537 112.708C140.504 112.719 140.469 112.722 140.435 112.719C140.4 112.716 140.367 112.706 140.337 112.69C140.306 112.674 140.279 112.652 140.257 112.625L140.252 112.619C139.788 112.023 139.323 111.428 138.872 110.82C138.838 110.777 138.821 110.721 138.828 110.666C138.834 110.611 138.862 110.56 138.905 110.526C138.949 110.491 139.004 110.475 139.059 110.481C139.115 110.487 139.166 110.515 139.2 110.558ZM142.096 114.045L143.511 115.816C143.557 115.872 143.578 115.944 143.57 116.016C143.562 116.088 143.526 116.154 143.469 116.2C143.412 116.245 143.34 116.266 143.268 116.258C143.196 116.25 143.13 116.214 143.084 116.157L141.658 114.396C141.611 114.338 141.589 114.264 141.597 114.19C141.605 114.116 141.642 114.048 141.7 114.002C141.758 113.955 141.832 113.933 141.906 113.941C141.981 113.949 142.049 113.986 142.095 114.044L142.096 114.045ZM144.905 117.603L146.268 119.414C146.295 119.448 146.307 119.492 146.302 119.535C146.297 119.578 146.275 119.617 146.241 119.644C146.207 119.672 146.164 119.684 146.121 119.68C146.077 119.676 146.037 119.655 146.01 119.621L144.531 117.902C144.509 117.878 144.492 117.851 144.482 117.82C144.471 117.79 144.466 117.758 144.468 117.726C144.47 117.693 144.478 117.662 144.492 117.633C144.507 117.604 144.527 117.579 144.551 117.558C144.576 117.537 144.604 117.521 144.635 117.511C144.666 117.501 144.698 117.498 144.73 117.501C144.763 117.504 144.794 117.514 144.822 117.529C144.851 117.545 144.875 117.565 144.896 117.591L144.905 117.603ZM147.605 121.247C147.781 121.486 147.947 121.733 148.117 121.977C147.915 121.759 147.709 121.543 147.513 121.32C147.508 121.315 147.504 121.308 147.501 121.3C147.499 121.293 147.498 121.285 147.498 121.278C147.499 121.27 147.501 121.262 147.504 121.255C147.508 121.248 147.513 121.242 147.518 121.237C147.524 121.232 147.531 121.228 147.538 121.225C147.546 121.223 147.554 121.222 147.561 121.222C147.569 121.223 147.577 121.225 147.584 121.228C147.591 121.232 147.597 121.236 147.602 121.242L147.605 121.247Z" fill="#3CA05D"/>
<path d="M154.241 113.536C154.241 113.536 153.959 112.099 150.813 110.573C150.691 110.514 150.558 110.481 150.423 110.476C148.742 110.404 147.068 110.223 145.411 109.935C145.344 109.923 145.276 109.935 145.218 109.971C145.161 110.006 145.118 110.061 145.099 110.126C144.996 110.505 145.299 111.317 148.934 112.135C148.934 112.135 150.546 114.881 152.611 115.064C154.676 115.247 154.241 113.536 154.241 113.536V113.536Z" fill="#F6B98A"/>
<path d="M210.359 145L213.36 136.656L235.466 144.571L232.465 152.915L210.359 145Z" fill="#3F1E05"/>
<path d="M226.932 143.41L233.372 145.716L233.027 146.675L226.587 144.369L226.932 143.41ZM226.208 145.424L232.647 147.73L232.303 148.689L225.863 146.383L226.208 145.424ZM225.483 147.438L231.923 149.743L231.578 150.703L225.138 148.397L225.483 147.438ZM213.86 138.73L222.751 141.913L222.406 142.872L213.515 139.689L213.86 138.73ZM213.273 140.361L222.164 143.543L220.923 146.996L212.032 143.813L213.273 140.361Z" fill="#562D11"/>
<path d="M236.934 117.721L241.066 122.191L229.876 137.572C229.876 137.572 231.814 141.747 232.13 143.24C232.141 143.292 232.164 143.34 232.197 143.38C232.23 143.421 232.272 143.452 232.321 143.473C232.369 143.494 232.421 143.503 232.473 143.499C232.526 143.495 232.576 143.479 232.621 143.451C234.22 142.47 239.858 138.442 249.434 125.677C249.434 125.677 253.652 121.025 244.48 111.587L236.934 117.721Z" fill="#F6B98A"/>
<path d="M232.395 143.505C229.638 148.147 226.3 143.26 226.3 143.26L224.895 143.737C223.947 144.074 222.93 144.168 221.936 144.009C220.943 143.85 220.005 143.444 219.21 142.828C219.104 142.742 219 142.653 218.898 142.559C217.038 140.833 218.002 139.37 219.257 138.399C220.348 137.573 221.657 137.084 223.024 136.989C229.414 136.484 229.986 137.693 229.986 137.693C231.091 139.137 231.849 140.816 232.2 142.599L232.395 143.505Z" fill="#F6B98A"/>
<path d="M156.472 137.077C159.853 137.077 162.594 134.342 162.594 130.968C162.594 127.594 159.853 124.859 156.472 124.859C153.091 124.859 150.35 127.594 150.35 130.968C150.35 134.342 153.091 137.077 156.472 137.077Z" fill="#381719"/>
<path d="M110.854 14.0089L151.903 13.9727M131.378 13.9908L131.388 24.3919M107.187 24.4134L141.089 24.3834M116.173 24.4055L116.18 32.9641M108.828 32.9709L137.828 32.9448M116.163 14.0044L116.156 5.25051M140.262 13.9829L140.255 5.229M141.096 33.0394L141.089 24.2855" stroke="#AFAFAF" stroke-miterlimit="10"/>
</g>
<defs>
<clipPath id="clip0_458_568">
<rect width="280" height="258" fill="white"/>
</clipPath>
</defs>
</svg>
