<svg width="41" height="41" viewBox="0 0 41 41" fill="none" xmlns="http://www.w3.org/2000/svg">
<g clip-path="url(#clip0_565_620)">
<path d="M18.55 26.35H22.45V30.25H18.55V26.35ZM18.55 10.75H22.45V22.45H18.55V10.75ZM20.4805 1C9.7165 1 1 9.736 1 20.5C1 31.264 9.7165 40 20.4805 40C31.264 40 40 31.264 40 20.5C40 9.736 31.264 1 20.4805 1ZM20.5 36.1C11.881 36.1 4.9 29.119 4.9 20.5C4.9 11.881 11.881 4.9 20.5 4.9C29.119 4.9 36.1 11.881 36.1 20.5C36.1 29.119 29.119 36.1 20.5 36.1Z" fill="#A42C24"/>
</g>
<defs>
<clipPath id="clip0_565_620">
<rect width="41" height="41" fill="white"/>
</clipPath>
</defs>
</svg>
