<svg width="70" height="70" viewBox="0 0 70 70" fill="none" xmlns="http://www.w3.org/2000/svg">
<rect width="70" height="70" rx="35" fill="#FCFCFC"/>
<rect x="0.5" y="0.5" width="69" height="69" rx="34.5" stroke="#7D7C83" stroke-opacity="0.2"/>
<path d="M34.9986 22.5C32.8257 22.5028 30.7427 23.3671 29.2063 24.9035C27.6699 26.44 26.8055 28.523 26.8027 30.6958H30.9694C30.9694 28.4729 32.7777 26.6667 34.9986 26.6667C37.2194 26.6667 39.0277 28.4729 39.0277 30.6958C39.0277 31.9417 38.0257 32.8458 36.4944 34.0833C35.9942 34.4752 35.5137 34.8917 35.0548 35.3313C32.9757 37.4083 32.9152 39.6146 32.9152 39.8604V41.25H37.0819L37.0798 39.9312C37.0819 39.8979 37.1486 39.1271 37.9986 38.2792C38.3111 37.9667 38.7048 37.6542 39.1132 37.325C40.7361 36.0104 43.1923 34.025 43.1923 30.6958C43.1907 28.523 42.3269 26.4397 40.7907 24.9031C39.2545 23.3665 37.1714 22.5022 34.9986 22.5ZM32.9152 43.3333H37.0819V47.5H32.9152V43.3333Z" fill="#A42C24"/>
<path d="M34.9994 14.167C23.5118 14.167 14.166 23.5128 14.166 35.0003C14.166 46.4878 23.5118 55.8337 34.9994 55.8337C46.4869 55.8337 55.8327 46.4878 55.8327 35.0003C55.8327 23.5128 46.4869 14.167 34.9994 14.167ZM34.9994 51.667C25.8098 51.667 18.3327 44.1899 18.3327 35.0003C18.3327 25.8107 25.8098 18.3337 34.9994 18.3337C44.1889 18.3337 51.666 25.8107 51.666 35.0003C51.666 44.1899 44.1889 51.667 34.9994 51.667Z" fill="#A42C24"/>
</svg>
