<svg width="40" height="40" viewBox="0 0 40 40" fill="none" xmlns="http://www.w3.org/2000/svg">
<path d="M20.2095 6.3334C17.9362 6.36007 17.1029 6.38673 16.9962 6.44673C16.4362 6.7734 16.4362 7.66006 16.9962 8.00006C17.1895 8.12006 17.3362 8.1334 18.4295 8.1334C19.3362 8.1334 19.7029 8.16006 19.8762 8.22673C20.5362 8.50673 20.5429 9.58006 19.8829 9.8934C19.6829 9.98673 19.2162 10.0001 15.9295 10.0001C12.4095 10.0001 12.1962 10.0067 12.0029 10.1267C11.4562 10.4601 11.4629 11.2801 12.0229 11.6467C12.1829 11.7534 12.4495 11.7734 14.4495 11.8001L16.6962 11.8334L16.8762 12.0001C17.2562 12.3534 17.3429 12.8001 17.1095 13.1801C16.8295 13.6467 16.9495 13.6267 13.5295 13.6667L10.4429 13.7001L10.2029 13.9401C9.76955 14.3734 9.82955 15.0334 10.3295 15.3334C10.5295 15.4601 10.6829 15.4667 13.5695 15.4667C16.4829 15.4667 16.6029 15.4734 16.8095 15.6001C17.3762 15.9467 17.3629 16.8067 16.7962 17.1801C16.6362 17.2867 16.3562 17.3067 14.0762 17.3334C11.2362 17.3734 11.3029 17.3601 11.0762 17.8667C10.9362 18.1734 10.9762 18.5001 11.1895 18.7667C11.4695 19.1201 11.5629 19.1334 14.2562 19.1334C16.6029 19.1334 16.7562 19.1401 16.9562 19.2667C17.5495 19.6267 17.5029 20.5401 16.8762 20.8867C16.7895 20.9334 15.6962 20.9734 13.6295 20.9934L10.5095 21.0334L10.3029 21.2401C9.91621 21.6267 9.99621 22.3201 10.4562 22.6001C10.6695 22.7267 10.7829 22.7334 13.7162 22.7334H16.7629L18.4562 21.0067L20.1495 19.2801L19.9562 19.0201C19.6762 18.6534 19.3429 17.9667 19.1629 17.4001C19.0295 16.9734 19.0095 16.7601 19.0095 15.9334C19.0095 15.1067 19.0295 14.8934 19.1629 14.4667C19.7562 12.5601 21.3695 11.0667 23.2095 10.7201L23.6429 10.6334V8.4534V6.26673L23.4629 6.28007C23.3562 6.2934 21.8962 6.3134 20.2095 6.3334Z" fill="#E75E41"/>
<path d="M24.9762 8.44005V10.6334L25.4962 10.7534C27.3629 11.1734 28.9362 12.7134 29.4496 14.6334C29.5562 15.0334 29.5896 15.3601 29.5896 15.9334C29.5896 18.3334 28.0829 20.3334 25.7429 21.0401C25.2429 21.1867 25.0096 21.2201 24.3429 21.2267C23.2696 21.2267 22.4629 21.0067 21.5562 20.4667L21.1162 20.2001L19.4896 21.8467C18.5896 22.7601 17.7829 23.5934 17.6896 23.7067L17.5162 23.9134L17.8629 24.4734C19.7496 27.4667 23.3562 32.3201 23.9096 32.6001C24.2162 32.7601 24.4962 32.7667 24.8096 32.6401C25.0562 32.5334 25.9896 31.4067 27.4962 29.3867C31.6162 23.8534 33.9096 19.6001 34.3162 16.7401C34.5096 15.3867 34.1229 13.4134 33.3496 11.7801C31.9429 8.82672 28.7296 6.58006 25.4962 6.29339L24.9762 6.24672V8.44005Z" fill="#342951"/>
<path d="M7.50958 11.5868C7.01624 11.8335 6.84958 12.3868 7.12291 12.8735C7.33624 13.2602 7.55624 13.3335 8.52958 13.3335C9.27624 13.3335 9.37624 13.3202 9.58291 13.1802C10.2029 12.7668 10.1629 11.9202 9.50291 11.5868C9.32958 11.4935 9.10958 11.4668 8.50958 11.4668C7.90958 11.4668 7.68958 11.4935 7.50958 11.5868Z" fill="#342951"/>
<path d="M6.12956 21.0666C5.55623 21.4133 5.5829 22.3266 6.16956 22.6333C6.4829 22.7933 7.5429 22.7733 7.82956 22.6C8.38956 22.26 8.35623 21.3666 7.76956 21.0533C7.4429 20.88 6.42956 20.88 6.12956 21.0666Z" fill="#342951"/>
<path d="M21.6742 19.3945L26.5297 18.2819C26.7445 18.2327 26.9362 18.1122 27.0735 17.9399C27.2108 17.7676 27.2856 17.5538 27.2857 17.3335V17.1798C27.2858 17.0355 27.2537 16.893 27.192 16.7626C27.1302 16.6322 27.0402 16.5172 26.9285 16.4258C26.8168 16.3345 26.6862 16.2692 26.5462 16.2346C26.4061 16.2 26.2601 16.1969 26.1187 16.2257L21.4559 17.1718C21.3255 17.1983 21.1911 17.1977 21.0609 17.1701C20.9307 17.1426 20.8075 17.0886 20.699 17.0116C20.5905 16.9345 20.499 16.836 20.43 16.7222C20.3611 16.6084 20.3162 16.4816 20.2982 16.3497L20.2947 16.3235C20.2612 16.0787 20.3221 15.8302 20.465 15.6286C20.6079 15.427 20.8221 15.2873 21.0642 15.2379L26.5457 14.1173C26.747 14.0761 26.8726 14.3289 26.7181 14.4647L21.4973 19.0483C21.3399 19.1856 21.4714 19.4409 21.6742 19.3945Z" fill="#FCC464"/>
<path d="M26.3347 13.815C26.7339 13.815 27.0575 13.4983 27.0575 13.1076C27.0575 12.7169 26.7339 12.4001 26.3347 12.4001C25.9355 12.4001 25.6119 12.7169 25.6119 13.1076C25.6119 13.4983 25.9355 13.815 26.3347 13.815Z" fill="#FCC464"/>
</svg>
