<svg width="20" height="16" viewBox="0 0 20 16" fill="none" xmlns="http://www.w3.org/2000/svg">
<path d="M18.9585 13.3896C18.865 13.1395 18.7564 12.9112 18.6315 12.7055L11.7498 2.23528C11.5809 1.99038 11.4162 1.73838 11.2564 1.47819C11.0955 1.21848 10.9159 0.978447 10.7164 0.757534C10.5159 0.537504 10.2968 0.355546 10.0559 0.213514C9.81556 0.0716642 9.54904 0 9.256 0C8.95393 0 8.67396 0.0809926 8.41525 0.242682C8.15776 0.40452 7.92472 0.596269 7.71593 0.816458C7.50627 1.03723 7.32399 1.28258 7.16839 1.55133C7.01277 1.82126 6.87284 2.05892 6.74877 2.26517L0.627795 12.5288C0.431751 12.8722 0.278351 13.1793 0.167319 13.4484C0.0555278 13.7178 0 14.005 0 14.3086C0 14.8283 0.155621 15.24 0.466844 15.5438C0.778082 15.8479 1.14262 16 1.56049 16H17.4581C17.9291 16 18.3209 15.8235 18.6313 15.4706C18.9426 15.1172 19.098 14.6813 19.098 14.1613C19.0982 13.8964 19.0518 13.6399 18.9586 13.3897L18.9585 13.3896ZM8.29111 5.09931C8.29111 4.87824 8.31273 4.69523 8.3573 4.5507C8.40142 4.40633 8.48479 4.27751 8.60842 4.16467C8.68616 4.0859 8.78625 4.02104 8.90945 3.96967C9.03205 3.91784 9.16205 3.89222 9.29945 3.89222C9.58463 3.89222 9.81489 3.98343 9.99108 4.16467C10.1337 4.30696 10.2224 4.45888 10.257 4.62086C10.2909 4.7827 10.3074 4.94202 10.3074 5.09927V9.84655C10.3074 10.0673 10.2868 10.2485 10.2422 10.3917C10.197 10.5337 10.1147 10.6636 9.99107 10.7816C9.81487 10.9624 9.58461 11.0538 9.29945 11.0538C9.02005 11.0538 8.78966 10.9624 8.60843 10.7816C8.44497 10.6239 8.35242 10.4529 8.32844 10.2663C8.30371 10.0796 8.29098 9.93909 8.29098 9.84655V5.09927L8.29111 5.09931ZM10.1748 13.9203C9.93406 14.1633 9.64252 14.2842 9.29902 14.2842C8.96039 14.2842 8.66884 14.163 8.4275 13.9203C8.18407 13.6773 8.0631 13.3867 8.0631 13.0486C8.0631 12.705 8.18407 12.4128 8.4275 12.1721C8.66885 11.932 8.96041 11.8114 9.29902 11.8114C9.64254 11.8114 9.93424 11.932 10.1748 12.1721C10.416 12.4128 10.5352 12.705 10.5352 13.0486C10.5352 13.387 10.416 13.6776 10.1748 13.9203Z" fill="#4F5052"/>
</svg>
