<svg width="25" height="25" viewBox="0 0 25 25" fill="none" xmlns="http://www.w3.org/2000/svg">
<g clip-path="url(#clip0_330_2073)">
<path d="M12.0312 0.528124C10.9062 0.734375 10.0063 1.39062 9.52344 2.36562C9.28906 2.84375 9.2 3.21875 9.2 3.75781C9.19531 4.4 9.28438 4.78437 9.54219 5.30469L9.7625 5.74531L8.12188 5.75937C6.49063 5.77812 6.47188 5.77812 6.06406 5.90469C4.44219 6.40625 3.35 7.61094 2.98906 9.28906C2.96094 9.41562 2.54375 11.75 2.06094 14.4688L1.18438 19.4141L1.17969 20.1641C1.17969 20.8109 1.19375 20.9656 1.2875 21.2891C1.50313 22.0344 1.90156 22.7047 2.47344 23.2766C2.96094 23.7594 3.68281 24.1625 4.4375 24.3687L4.83594 24.4766H12.5H20.1641L20.5625 24.3687C21.3172 24.1625 22.0391 23.7594 22.5266 23.2766C23.0984 22.7047 23.4969 22.0344 23.7125 21.2891C23.8063 20.9656 23.8203 20.8109 23.8203 20.1641L23.8156 19.4141L22.9391 14.4688C22.4563 11.75 22.0391 9.41562 22.0109 9.28906C21.65 7.61094 20.5578 6.40625 18.9359 5.90469C18.5281 5.77812 18.5094 5.77812 16.8969 5.75937C15.9969 5.75 15.2656 5.73125 15.2656 5.7125C15.2656 5.69375 15.3594 5.49687 15.4719 5.27187C15.7156 4.77969 15.8047 4.38594 15.8 3.75781C15.7953 2.31875 14.8531 1.08125 13.4141 0.631248C13.1375 0.546875 12.2844 0.481249 12.0312 0.528124ZM13.1281 2.03281C14.5859 2.54375 14.8438 4.54062 13.5594 5.39375C12.1813 6.30781 10.3766 5.15937 10.6297 3.53281C10.7516 2.75469 11.3938 2.08906 12.1578 1.95312C12.4297 1.90625 12.875 1.93906 13.1281 2.03281ZM18.3734 7.23125C19.0297 7.37656 19.7469 7.85 20.1031 8.36562C20.2906 8.6375 20.4922 9.05469 20.5625 9.30781C20.5906 9.41562 21.0266 11.8297 21.5281 14.6703C22.4844 20.0984 22.5078 20.2672 22.3672 20.8203C22.0719 21.9922 21.1344 22.85 19.9484 23.0422C19.5312 23.1125 5.46875 23.1125 5.05156 23.0422C4.38594 22.9391 3.89375 22.6812 3.40156 22.1937C2.88125 21.6734 2.5625 20.9187 2.5625 20.1875C2.5625 19.9391 2.825 18.3359 3.47188 14.6703C3.97344 11.8297 4.40938 9.41562 4.4375 9.30781C4.63906 8.5625 5.19688 7.87812 5.89531 7.50781C6.58438 7.14219 6.22344 7.16562 12.4672 7.16094C17.4266 7.15625 18.0734 7.16562 18.3734 7.23125Z" fill="#A42C24"/>
<path d="M7.90631 12.1859C7.51725 12.3922 7.53131 12.2797 7.53131 15.1297V17.6422L7.63913 17.7968C7.80788 18.05 7.95788 18.1343 8.23444 18.1343C8.49694 18.1343 8.64225 18.0593 8.81569 17.825C8.90475 17.7078 8.91413 17.6093 8.93756 16.8031L8.961 15.9078L9.96881 16.9484C10.5219 17.525 11.0376 18.0265 11.1173 18.064C11.4407 18.2328 11.9001 18.0922 12.0501 17.7781C12.1485 17.5672 12.1438 17.2437 12.0407 17.089C11.9985 17.0234 11.5719 16.564 11.0938 16.0672C10.6157 15.575 10.2219 15.1484 10.2126 15.125C10.2032 15.1015 10.5923 14.6797 11.0704 14.1875C11.5485 13.6906 11.9844 13.2218 12.036 13.1422C12.2798 12.739 12.0313 12.1812 11.5766 12.0968C11.2204 12.0312 11.1219 12.1015 9.99694 13.264L8.93756 14.3515V13.4937C8.93756 12.4812 8.89538 12.3453 8.5485 12.1765C8.29069 12.05 8.15475 12.0547 7.90631 12.1859Z" fill="#A42C24"/>
<path d="M14.6844 12.1528C13.9203 12.3356 13.3203 12.8935 13.0531 13.6669C12.9547 13.9575 12.9453 14.0513 12.9453 15.1013C12.9453 16.0481 12.9594 16.2685 13.0297 16.4935C13.475 17.9372 15.0875 18.5747 16.3766 17.82C16.6719 17.6419 17.0281 17.2622 17.1828 16.9575C17.4219 16.4888 17.4781 16.2122 17.4594 15.6028C17.4453 15.1247 17.4312 15.0356 17.3422 14.9091C17.15 14.6419 16.9906 14.5997 16.1797 14.6185C15.5375 14.6325 15.4437 14.6419 15.3312 14.731C15.0031 14.9747 14.9141 15.2794 15.0734 15.6028C15.2141 15.8888 15.3687 15.9872 15.7203 16.006C16.0437 16.0294 16.0672 16.0575 15.9453 16.2966C15.6641 16.8403 14.8016 16.8544 14.4922 16.3247C14.375 16.1278 14.375 16.1044 14.375 15.1294C14.375 14.0138 14.3984 13.906 14.6844 13.6856C15.0547 13.4091 15.4391 13.4513 15.8562 13.8122C16.1375 14.0606 16.325 14.1263 16.6016 14.0747C16.8172 14.0325 17.0797 13.77 17.1219 13.5544C17.1781 13.2403 17.1078 13.0669 16.7937 12.7575C16.2219 12.181 15.4625 11.9653 14.6844 12.1528Z" fill="#A42C24"/>
</g>
<defs>
<clipPath id="clip0_330_2073">
<rect width="24" height="24" fill="white" transform="translate(0.5 0.5)"/>
</clipPath>
</defs>
</svg>
