<svg width="70" height="70" viewBox="0 0 70 70" fill="none" xmlns="http://www.w3.org/2000/svg">
<rect width="70" height="70" rx="35" fill="#FCFCFC"/>
<rect x="0.5" y="0.5" width="69" height="69" rx="34.5" stroke="#7D7C83" stroke-opacity="0.2"/>
<g clip-path="url(#clip0_215_546)">
<path d="M19.2192 17.2344C18.938 17.2891 18.3755 17.5078 17.9692 17.7031C17.3676 18 17.1098 18.1875 16.5942 18.711C16.063 19.2344 15.8911 19.4766 15.602 20.086C14.9614 21.4063 15.0005 20.3985 15.0005 35C15.0005 49.6016 14.9614 48.5938 15.602 49.9141C15.8911 50.5235 16.063 50.7656 16.5942 51.2891C17.1098 51.8125 17.3676 52 17.9692 52.2969C19.2661 52.9297 17.9692 52.8906 35.0005 52.8906C52.0317 52.8906 50.7348 52.9297 52.0317 52.2969C52.6333 52 52.8911 51.8125 53.3989 51.2969C53.9145 50.7813 54.102 50.5235 54.3989 49.9219C55.0395 48.6016 55.0083 49.3516 54.9848 37.1094L54.9614 26.2891L54.7505 25.6641C54.2192 24.0938 53.0864 22.875 51.602 22.2735L51.0551 22.0547L51.0005 21.6485C50.7505 19.9297 49.563 18.3672 47.9301 17.6172C46.7739 17.0781 47.6801 17.1094 32.9926 17.1172C21.9692 17.1172 19.6411 17.1406 19.2192 17.2344ZM46.7583 19.836C47.0786 19.9688 47.3598 20.1641 47.6567 20.461C48.063 20.8672 48.438 21.4922 48.438 21.7578C48.438 21.8594 46.7348 21.875 33.9301 21.8906L19.4145 21.9141L18.8676 22.1016C18.5708 22.2031 18.1567 22.3672 17.9536 22.4688C17.7505 22.5703 17.563 22.6563 17.5317 22.6563C17.5005 22.6563 17.5005 22.4766 17.5317 22.2578C17.6958 21.0078 18.563 20 19.7192 19.7188C20.0317 19.6406 22.9692 19.625 33.2036 19.6328L46.2895 19.6485L46.7583 19.836ZM50.6645 24.6016C51.3051 24.8594 52.0161 25.5703 52.2739 26.211C52.4536 26.6719 52.4614 26.7266 52.4614 29.1797V31.6797L47.852 31.7188L43.2426 31.7578L42.5864 31.9844C41.688 32.3047 40.6411 33.0156 40.0551 33.711C39.4926 34.3828 38.9458 35.4766 38.7817 36.25C38.5942 37.125 38.6645 38.4453 38.938 39.2578C39.5786 41.1563 41.0551 42.5313 43.0473 43.0938C43.5005 43.2188 44.0083 43.2344 48.0317 43.2578L52.5083 43.2891L52.4848 45.6875C52.4536 48.4531 52.4145 48.6328 51.7192 49.3985C51.2661 49.8985 50.7505 50.1875 50.1176 50.3125C49.7739 50.375 45.6098 50.3906 34.727 50.375L19.8051 50.3516L19.3364 50.1641C18.6958 49.9063 17.9848 49.1953 17.727 48.5547L17.5395 48.086V37.3828V26.6797L17.727 26.211C18.0708 25.3672 19.0083 24.6094 19.8989 24.4531C20.1098 24.4219 27.0083 24.3985 35.2348 24.4063L50.1958 24.4141L50.6645 24.6016ZM52.5005 37.461V40.7031H48.2192C44.5317 40.7031 43.8755 40.6875 43.5083 40.5781C42.1645 40.1875 41.1801 38.8672 41.1723 37.4453C41.1723 36.9688 41.3833 36.2344 41.6645 35.7578C42.0473 35.1094 42.9067 34.4766 43.6489 34.3047C43.813 34.2656 45.8676 34.2344 48.227 34.2266L52.5005 34.2188V37.461Z" fill="#A42C24"/>
<path d="M44.2983 36.4219C43.478 36.8359 43.353 37.9453 44.0561 38.5391C44.9155 39.2656 46.1733 38.7031 46.1889 37.5937C46.1967 36.5469 45.228 35.9531 44.2983 36.4219Z" fill="#A42C24"/>
</g>
<defs>
<clipPath id="clip0_215_546">
<rect width="40" height="40" fill="white" transform="translate(15 15)"/>
</clipPath>
</defs>
</svg>
