<svg width="38" height="39" viewBox="0 0 38 39" fill="none" xmlns="http://www.w3.org/2000/svg">
<path d="M17.9089 4.67225C17.2558 4.85037 17.2187 4.87264 15.4003 5.9785C14.5839 6.47577 13.8492 6.90624 13.7675 6.93592C13.6859 6.96561 12.3871 7.24022 10.8804 7.54452C7.59996 8.20506 7.34762 8.29413 6.44957 9.19959C5.74449 9.9121 5.38824 10.5875 5.21754 11.5449C5.06168 12.4652 5.11363 19.2191 5.29176 20.414C5.70738 23.2418 6.65738 25.743 8.16402 27.9844C10.4945 31.4504 14.0273 34.0332 17.9609 35.1465C18.8738 35.4062 19.23 35.3988 20.2691 35.0797C25.9394 33.3578 30.3703 28.9047 32.0996 23.1824C32.4484 22.0394 32.7082 20.5996 32.7972 19.2933C32.9234 17.6308 32.9011 12.198 32.7675 11.4707C32.5003 9.97889 31.3796 8.66522 29.9398 8.16053C29.7023 8.07889 28.3367 7.7746 26.9043 7.49256C25.4793 7.21053 24.1878 6.91366 24.0468 6.84686C23.9058 6.77264 23.1414 6.31991 22.3546 5.83749C21.5234 5.32538 20.6996 4.88006 20.3878 4.76873C19.6531 4.51639 18.6511 4.47186 17.9089 4.67225ZM19.9796 7.18085C20.1949 7.29959 20.9816 7.7746 21.7312 8.22733C22.5476 8.7246 23.275 9.11053 23.557 9.19959C23.8093 9.27381 25.1304 9.56327 26.4961 9.83045C27.8617 10.1051 29.116 10.3797 29.2793 10.4539C29.7023 10.632 30.0363 10.9512 30.2664 11.389L30.4668 11.7676V15.4785C30.4668 18.143 30.4371 19.3973 30.3703 19.9316C29.9027 23.4199 28.4035 26.5223 26.0136 28.9121C24.7222 30.2109 23.3789 31.1609 21.7312 31.9551C20.8109 32.393 19.282 32.957 19.0074 32.957C18.9406 32.957 18.6363 32.8754 18.332 32.7789C12.4984 30.9086 8.44605 26.0473 7.62965 19.9316C7.56285 19.3973 7.53316 18.143 7.53316 15.4785V11.7676L7.73355 11.389C7.96363 10.9512 8.29761 10.632 8.72066 10.4539C8.88394 10.3797 10.1382 10.1051 11.5039 9.83045C12.8695 9.56327 14.1906 9.27381 14.4429 9.19959C14.7324 9.11053 15.5265 8.68006 16.5285 8.07889C17.4191 7.5371 18.2578 7.05467 18.4062 7.00272C18.8218 6.84686 19.5121 6.92108 19.9796 7.18085Z" fill="#A42C24"/>
<path d="M23.3487 15.7015C23.1186 15.7831 22.3838 16.4734 20.2241 18.6331L17.4037 21.4535L16.5873 20.6296C16.1346 20.1769 15.6819 19.7613 15.5705 19.7019C15.1178 19.4644 14.3905 19.6425 14.0862 20.0656C13.8784 20.355 13.819 20.9785 13.9748 21.2753C14.0416 21.3941 14.7022 22.0992 15.4518 22.8413C16.9287 24.3035 17.0994 24.4148 17.6932 24.2738C17.953 24.2144 18.428 23.7691 21.3596 20.8449C23.2596 18.9449 24.7737 17.3788 24.833 17.2453C25.2338 16.3175 24.2987 15.3527 23.3487 15.7015Z" fill="#A42C24"/>
</svg>
