<svg width="32" height="32" viewBox="0 0 32 32" fill="none" xmlns="http://www.w3.org/2000/svg">
<path d="M19.7439 13.4932H18.5476C18.4433 13.0575 18.2591 12.6502 18.0063 12.2966H19.7439C19.8874 12.2966 20.0251 12.2336 20.1266 12.1214C20.2281 12.0092 20.2852 11.857 20.2852 11.6984C20.2852 11.5397 20.2281 11.3875 20.1266 11.2753C20.0251 11.1631 19.8874 11.1001 19.7439 11.1001H13.7896C13.6461 11.1001 13.5084 11.1631 13.4069 11.2753C13.3054 11.3875 13.2483 11.5397 13.2483 11.6984C13.2483 11.857 13.3054 12.0092 13.4069 12.1214C13.5084 12.2336 13.6461 12.2966 13.7896 12.2966H15.6842C16.0415 12.298 16.3913 12.4111 16.693 12.6228C16.9947 12.8346 17.2361 13.1363 17.3892 13.4932H13.7896C13.6461 13.4932 13.5084 13.5562 13.4069 13.6684C13.3054 13.7806 13.2483 13.9328 13.2483 14.0915C13.2483 14.2501 13.3054 14.4023 13.4069 14.5145C13.5084 14.6267 13.6461 14.6897 13.7896 14.6897H17.5787C17.5138 15.1867 17.2895 15.6413 16.9467 15.9707C16.6039 16.3002 16.1655 16.4825 15.7112 16.4846H13.7896C13.7644 16.4818 13.739 16.4818 13.7138 16.4846C13.678 16.4784 13.6415 16.4784 13.6056 16.4846C13.5687 16.4984 13.534 16.5186 13.5027 16.5444L13.4378 16.5863C13.4081 16.6159 13.3826 16.6501 13.362 16.688C13.3439 16.7145 13.3276 16.7425 13.3133 16.7717C13.3085 16.8074 13.3085 16.8437 13.3133 16.8794C13.2747 16.9391 13.2522 17.0096 13.2483 17.0828C13.2458 17.1107 13.2458 17.1387 13.2483 17.1666C13.2427 17.2062 13.2427 17.2466 13.2483 17.2862C13.2609 17.327 13.2792 17.3654 13.3025 17.3999C13.3025 17.3999 13.3025 17.4478 13.3403 17.4717L16.5881 21.6596C16.6814 21.7802 16.8143 21.8549 16.9574 21.8672C17.1005 21.8796 17.2422 21.8286 17.3513 21.7254C17.4604 21.6223 17.528 21.4755 17.5392 21.3173C17.5503 21.1591 17.5042 21.0024 17.4109 20.8819L14.9696 17.6811H15.6842C16.429 17.6845 17.148 17.3792 17.6991 16.8254C18.2503 16.2716 18.5936 15.5096 18.6613 14.6897H19.7439C19.8874 14.6897 20.0251 14.6267 20.1266 14.5145C20.2281 14.4023 20.2852 14.2501 20.2852 14.0915C20.2852 13.9328 20.2281 13.7806 20.1266 13.6684C20.0251 13.5562 19.8874 13.4932 19.7439 13.4932Z" fill="#1D70EC"/>
<path d="M24.4246 19.7248C24.1926 20.3006 23.9011 20.8539 23.5529 21.3753C23.5526 21.3758 23.5522 21.3763 23.5519 21.3768C22.6215 22.7693 21.0298 24.0244 19.4754 24.6682C17.9338 25.3068 15.8842 25.4024 14.2273 25.0728C12.5922 24.7475 10.9491 23.7342 9.75319 22.5383C8.57999 21.3651 7.95376 19.772 7.62167 18.1025C7.29501 16.4602 7.51473 14.6374 8.1587 13.0827C8.80103 11.532 9.88879 10.2065 11.2844 9.274C12.5996 8.39522 14.1326 7.90255 15.7096 7.84869C16.0034 7.83865 16.2493 7.60038 16.2493 7.29541C16.2493 6.99472 16.0041 6.74202 15.693 6.75196C13.9049 6.80913 12.1661 7.36592 10.6751 8.36215C9.09916 9.41518 7.87084 10.9119 7.1455 12.663C6.42016 14.4141 6.23038 16.341 6.60016 18.2C6.96993 20.059 7.88266 21.7666 9.22291 23.1068C10.5632 24.4471 12.2707 25.3598 14.1297 25.7296C15.9887 26.0994 17.9156 25.9096 19.6667 25.1842C21.4144 24.4603 22.9087 23.2354 23.9614 21.6639C24.3636 21.1626 24.6682 20.5543 24.8932 19.8997C25.3374 18.7928 25.5732 17.6074 25.5824 16.4037C25.5838 16.2243 25.4385 16.0804 25.2614 16.0804C25.0848 16.0804 24.9409 16.2227 24.9399 16.4C24.9337 17.471 24.784 18.6734 24.4246 19.7248Z" fill="#1D70EC" stroke="#1D70EC" stroke-width="0.5"/>
<path d="M18.858 5.2747L21.9336 7.05041L18.858 8.82612L18.858 5.2747Z" fill="#1D70EC" stroke="#1D70EC"/>
<circle cx="16" cy="16" r="16" fill="#1D70EC" fill-opacity="0.2"/>
</svg>
