<svg width="24" height="24" viewBox="0 0 24 24" fill="none" xmlns="http://www.w3.org/2000/svg">
<path d="M17.1466 9.03148e-05C14.0612 9.03148e-05 10.9506 1.0116 10.9506 2.90835V13.1002C9.76193 12.4427 7.96643 12.1139 6.19604 12.1139C3.11067 12.1139 0 13.1254 0 15.0222V21.0917C0 23.0137 3.11062 24 6.19604 24C8.37098 24 10.5712 23.4942 11.6587 22.5079C12.7461 23.4942 14.9464 24 17.1213 24C20.2067 24 23.3173 22.9885 23.3173 21.0917V2.90826C23.3426 1.01151 20.232 0 17.1466 0V9.03148e-05ZM17.1466 1.44171C20.1055 1.44171 21.9011 2.40277 21.9011 2.90853C21.9011 3.41428 20.1054 4.37535 17.1466 4.37535C14.1877 4.37535 12.3921 3.41428 12.3921 2.90853C12.3921 2.40259 14.213 1.44171 17.1466 1.44171ZM6.22133 13.5809C9.18026 13.5809 10.9758 14.542 10.9758 15.0477C10.9758 15.5535 9.18017 16.5145 6.22133 16.5145C3.26241 16.5145 1.46682 15.5535 1.46682 15.0477C1.46682 14.542 3.26232 13.5809 6.22133 13.5809ZM1.46682 16.9699C2.65545 17.6274 4.45094 17.9562 6.22133 17.9562C7.99158 17.9562 9.78726 17.6274 10.9758 16.9699L10.9757 18.0825C10.9757 18.6137 9.17999 19.5493 6.22116 19.5493C3.26223 19.5493 1.46664 18.5884 1.46664 18.0825L1.46682 16.9699ZM6.22133 22.5843C3.26241 22.5843 1.46682 21.6234 1.46682 21.1176V20.0048C2.65545 20.6623 4.45094 20.9911 6.22133 20.9911C7.99158 20.9911 9.78726 20.6623 10.9758 20.0048L10.9757 21.1176C10.9757 21.6233 9.15479 22.5843 6.22116 22.5843H6.22133ZM17.1466 22.5843C14.2129 22.5843 12.3921 21.6234 12.3921 21.1176V20.0048C13.5807 20.6623 15.3762 20.9911 17.1466 20.9911C18.9168 20.9911 20.7125 20.6623 21.9011 20.0048L21.9009 21.1176C21.9009 21.6233 20.1054 22.5843 17.1464 22.5843H17.1466ZM17.1466 19.5495C14.2129 19.5495 12.3921 18.5886 12.3921 18.0827V16.9699C13.5807 17.6274 15.3762 17.9562 17.1466 17.9562C18.9168 17.9562 20.7125 17.6274 21.9011 16.9699L21.9009 18.0827C21.9009 18.5886 20.1054 19.5495 17.1464 19.5495H17.1466ZM17.1466 16.5148C14.2129 16.5148 12.3921 15.5537 12.3921 15.0479V13.9351C13.5807 14.5926 15.3762 14.9214 17.1466 14.9214C18.9168 14.9214 20.7125 14.5926 21.9011 13.9351L21.9009 15.0479C21.9009 15.5537 20.1054 16.5148 17.1464 16.5148H17.1466ZM17.1466 13.48C14.1877 13.48 12.3921 12.5189 12.3921 12.0132V10.9004C13.5807 11.5579 15.3762 11.8867 17.1466 11.8867C18.9168 11.8867 20.7125 11.5579 21.9011 10.9004L21.9009 12.0132C21.9009 12.5444 20.1054 13.48 17.1464 13.48H17.1466ZM17.1466 10.4453C14.1877 10.4453 12.3921 9.48419 12.3921 8.97844V7.86563C13.5807 8.52312 15.3762 8.85194 17.1466 8.85194C18.9168 8.85194 20.7125 8.52312 21.9011 7.86563L21.9009 8.97844C21.9009 9.50943 20.1054 10.4453 17.1464 10.4453H17.1466ZM17.1466 7.41032C14.1877 7.41032 12.3921 6.44926 12.3921 5.9435V4.8307C13.5807 5.48819 15.3762 5.81701 17.1466 5.81701C18.9168 5.81701 20.7125 5.48818 21.9011 4.8307L21.9009 5.94368C21.9009 6.47468 20.1054 7.41037 17.1464 7.41037L17.1466 7.41032Z" fill="#4F5052"/>
<path d="M5.61437 10.2677C5.665 10.3184 5.71545 10.3436 5.76608 10.3436H7.15707C7.25816 10.3436 7.33419 10.293 7.35942 10.1919C7.38464 10.116 7.38464 10.0148 7.30879 9.93892L4.27404 6.85354H4.47638C5.89257 6.85354 7.15707 5.84203 7.4605 4.47624H8.54788C8.67437 4.47624 8.77545 4.37515 8.77545 4.24867V3.33823C8.77545 3.21174 8.67437 3.11066 8.54788 3.11066H7.4605C7.38465 2.73138 7.23293 2.40254 7.0306 2.09915H8.54809C8.67457 2.09915 8.77565 1.99807 8.77565 1.87158V0.961144C8.77565 0.834658 8.67457 0.733575 8.54809 0.733575L2.75668 0.733398C2.6302 0.733398 2.52911 0.834481 2.52911 0.960967V1.94728C2.52911 2.07376 2.6302 2.17485 2.75668 2.17485H4.50174C5.13398 2.17485 5.71561 2.5289 5.96855 3.11053L2.75668 3.11071C2.6302 3.11071 2.52911 3.21179 2.52911 3.33827V4.24871C2.52911 4.3752 2.6302 4.47628 2.75668 4.47628H5.96855C5.71558 5.05791 5.13398 5.41197 4.50174 5.41197H2.75668C2.6302 5.41197 2.52911 5.51305 2.52911 5.63954V7.03053C2.52911 7.08116 2.55434 7.15701 2.60497 7.18224L5.61437 10.2677Z" fill="#4F5052"/>
</svg>
