<svg width="25" height="25" viewBox="0 0 25 25" fill="none" xmlns="http://www.w3.org/2000/svg">
<circle cx="12.5" cy="12.5" r="12.5" fill="#A42C24"/>
<path d="M18.8879 16.2056L18.1542 12.9616C18.0567 12.6395 17.8921 12.3404 17.6709 12.0831C17.4497 11.8257 17.1765 11.6156 16.8683 11.4658L15.0449 10.5595C15.0421 10.5553 15.0411 10.5505 15.0379 10.5463L14.3526 9.64969C14.3256 9.61508 14.2915 9.58629 14.2526 9.56514C14.2136 9.54398 14.1706 9.53092 14.1262 9.52677C14.0818 9.52262 14.037 9.52746 13.9946 9.54101C13.9523 9.55455 13.9132 9.5765 13.88 9.60547L13.8704 9.61406L13.8566 9.52641C14.413 9.16796 14.857 8.66641 15.1396 8.07719C15.3779 8.08004 15.6116 8.01318 15.8106 7.88524C16.0096 7.7573 16.1647 7.57414 16.256 7.35938C16.4383 6.95531 16.4322 6.56953 16.2368 6.27313C16.096 6.06562 15.8795 5.91823 15.6313 5.86094C15.629 5.78672 15.6295 5.71172 15.6252 5.63766C15.5063 3.62328 14.957 2.45703 12.5007 2.45703C10.0444 2.45703 9.49504 3.62328 9.37621 5.63781C9.37172 5.71203 9.37236 5.78688 9.37012 5.86125C9.12191 5.91848 8.90538 6.06581 8.76457 6.27328C8.56982 6.57016 8.56309 6.95531 8.74535 7.35953C8.83677 7.57413 8.99195 7.7571 9.1909 7.8849C9.38985 8.01269 9.62346 8.07944 9.86164 8.07656C10.1442 8.66579 10.5882 9.16733 11.1447 9.52578L11.1309 9.61344L11.1213 9.60484C11.0877 9.57645 11.0486 9.55501 11.0063 9.54181C10.964 9.52862 10.9194 9.52395 10.8752 9.52808C10.831 9.53222 10.7882 9.54507 10.7492 9.56587C10.7103 9.58667 10.676 9.61497 10.6486 9.64906L9.96334 10.5456C9.9603 10.5497 9.95918 10.5547 9.95629 10.5588L8.13291 11.465C7.82281 11.6162 7.54815 11.8285 7.32624 12.0884C7.10433 12.3482 6.93996 12.6501 6.8435 12.975L6.1135 16.2056C6.02119 16.6167 6.04156 17.0442 6.17256 17.4451C6.30355 17.846 6.54055 18.2061 6.85967 18.4892L8.55941 19.9931C8.61867 20.0448 8.69519 20.0736 8.77466 20.0742H16.2269C16.3061 20.0725 16.3822 20.0438 16.442 19.9931L18.1417 18.4892C18.4608 18.2061 18.6978 17.846 18.8288 17.4451C18.9598 17.0442 18.9802 16.6167 18.8879 16.2056ZM15.5992 6.52172C15.6382 6.54417 15.6717 6.57455 15.6976 6.61078C15.7342 6.68972 15.7508 6.7761 15.7459 6.86262C15.7411 6.94914 15.7149 7.03324 15.6697 7.10781C15.6226 7.22628 15.5332 7.32413 15.4179 7.38328C15.5045 7.10193 15.5652 6.8136 15.5992 6.52172ZM9.33168 7.10781C9.28646 7.03324 9.26032 6.94914 9.25547 6.86262C9.25062 6.7761 9.2672 6.68972 9.30382 6.61078C9.32965 6.57462 9.36319 6.54435 9.40215 6.52203C9.43619 6.81386 9.49687 7.10214 9.58345 7.38344C9.46815 7.32426 9.37871 7.22635 9.33168 7.10781ZM8.45419 19.0564L7.29001 18.0262C7.05437 17.8173 6.87937 17.5513 6.78265 17.2553C6.68592 16.9593 6.67089 16.6436 6.73907 16.3402L6.86031 15.8031C7.38348 15.6789 7.92902 15.6746 8.45419 15.7905V19.0564ZM15.0598 13.3072L15.5709 13.9467H13.4469L13.3553 13.3072H15.0598ZM14.0508 10.2992L14.3833 10.7344L13.6218 11.7548L13.2347 11.0253L14.0508 10.2992ZM10.0492 6.52125L10.7359 7.28359C10.7804 7.3329 10.8396 7.36729 10.9052 7.38191C10.9708 7.39652 11.0394 7.3906 11.1014 7.365C11.1898 7.32859 11.4134 7.23031 11.664 7.11906C11.9268 7.0024 12.2122 6.94204 12.5009 6.94204C12.7897 6.94204 13.075 7.0024 13.3378 7.11906C13.4616 7.17406 13.5859 7.22844 13.7089 7.28484C13.8909 7.36891 14.105 7.46172 14.2658 7.28344L14.9525 6.52109C14.745 8.09375 13.7257 9.29391 12.5007 9.29391C11.2757 9.29391 10.2564 8.09375 10.0492 6.52125ZM12.8479 14.5717V15.6197H12.1535V14.5717H12.8479ZM12.2014 13.9467L12.293 13.3072H12.7089L12.8005 13.9467H12.2014ZM10.9509 10.2992L11.7677 11.0253L11.3796 11.7548L10.6181 10.7344L10.9509 10.2992ZM9.94188 13.3072H11.6459L11.5543 13.9467H9.43034L9.94188 13.3072ZM15.9069 19.4492H9.09481V14.5717H11.5132V15.9322C11.5132 16.0151 11.5469 16.0946 11.607 16.1532C11.6671 16.2118 11.7485 16.2447 11.8335 16.2447H13.1685C13.2535 16.2447 13.335 16.2118 13.395 16.1532C13.4551 16.0946 13.4889 16.0151 13.4889 15.9322V14.5717H15.9072L15.9069 19.4492ZM17.7117 18.0262L16.5475 19.0564V15.7906C17.0726 15.6748 17.6181 15.6791 18.1412 15.8033L18.2626 16.3402C18.3308 16.6437 18.3157 16.9594 18.2189 17.2554C18.1221 17.5514 17.9471 17.8173 17.7114 18.0262H17.7117Z" fill="white"/>
</svg>
