<svg width="45" height="45" viewBox="0 0 45 45" fill="none" xmlns="http://www.w3.org/2000/svg">
<circle cx="22.5" cy="22.5" r="22.5" fill="#E75E41" fill-opacity="0.2"/>
<path d="M26.667 14.75H12.917V26.6667H26.667V14.75Z" stroke="#770000" stroke-width="1.5" stroke-linecap="round" stroke-linejoin="round"/>
<path d="M26.667 19.3335H30.3337L33.0837 22.0835V26.6668H26.667V19.3335Z" stroke="#770000" stroke-width="1.5" stroke-linecap="round" stroke-linejoin="round"/>
<path d="M17.0417 31.25C18.3073 31.25 19.3333 30.2239 19.3333 28.9583C19.3333 27.6926 18.3073 26.6666 17.0417 26.6666C15.776 26.6666 14.75 27.6926 14.75 28.9583C14.75 30.2239 15.776 31.25 17.0417 31.25Z" stroke="#770000" stroke-width="1.5" stroke-linecap="round" stroke-linejoin="round"/>
<path d="M28.9587 31.2498C30.2243 31.2498 31.2503 30.2238 31.2503 28.9582C31.2503 27.6925 30.2243 26.6665 28.9587 26.6665C27.693 26.6665 26.667 27.6925 26.667 28.9582C26.667 30.2238 27.693 31.2498 28.9587 31.2498Z" stroke="#770000" stroke-width="1.5" stroke-linecap="round" stroke-linejoin="round"/>
</svg>
