<svg width="24" height="25" viewBox="0 0 24 25" fill="none" xmlns="http://www.w3.org/2000/svg">
<path d="M14.15 21.5C14.0167 21.5 13.8877 21.475 13.763 21.425C13.6377 21.375 13.525 21.3 13.425 21.2L7.4 14.925C7.28333 14.8083 7.18767 14.65 7.113 14.45C7.03767 14.25 7 14.0667 7 13.9C7 13.5167 7.13733 13.1873 7.412 12.912C7.68733 12.6373 8.01667 12.5 8.4 12.5H10.5C11.3833 12.5 12.146 12.2123 12.788 11.637C13.4293 11.0623 13.8167 10.35 13.95 9.5H7C6.71667 9.5 6.479 9.404 6.287 9.212C6.09567 9.02067 6 8.78333 6 8.5C6 8.21667 6.09567 7.979 6.287 7.787C6.479 7.59567 6.71667 7.5 7 7.5H13.65C13.3667 6.91667 12.946 6.43733 12.388 6.062C11.8293 5.68733 11.2 5.5 10.5 5.5H7C6.71667 5.5 6.479 5.404 6.287 5.212C6.09567 5.02067 6 4.78333 6 4.5C6 4.21667 6.09567 3.979 6.287 3.787C6.479 3.59567 6.71667 3.5 7 3.5H17C17.2833 3.5 17.5207 3.59567 17.712 3.787C17.904 3.979 18 4.21667 18 4.5C18 4.78333 17.904 5.02067 17.712 5.212C17.5207 5.404 17.2833 5.5 17 5.5H14.75C14.9833 5.78333 15.1917 6.09167 15.375 6.425C15.5583 6.75833 15.7 7.11667 15.8 7.5H17C17.2833 7.5 17.5207 7.59567 17.712 7.787C17.904 7.979 18 8.21667 18 8.5C18 8.78333 17.904 9.02067 17.712 9.212C17.5207 9.404 17.2833 9.5 17 9.5H15.975C15.8417 10.9167 15.2583 12.104 14.225 13.062C13.1917 14.0207 11.95 14.5 10.5 14.5H9.775L14.875 19.8C15.175 20.1167 15.2373 20.479 15.062 20.887C14.8873 21.2957 14.5833 21.5 14.15 21.5Z" fill="#A42C24"/>
</svg>
