<svg width="30" height="30" viewBox="0 0 30 30" fill="none" xmlns="http://www.w3.org/2000/svg">
<circle cx="15" cy="15" r="15" fill="#E75E41" fill-opacity="0.2"/>
<path d="M17.11 12.93V13.14H18.85V14.37H17.02C16.91 15.04 16.7 15.575 16.39 15.975C16.09 16.365 15.66 16.65 15.1 16.83C14.54 17 13.815 17.085 12.925 17.085V18.03C12.925 18.58 13.04 19.015 13.27 19.335C13.51 19.655 13.91 19.815 14.47 19.815C15.49 19.815 16 19.24 16 18.09H17.575C17.565 19.1 17.29 19.865 16.75 20.385C16.22 20.895 15.45 21.15 14.44 21.15C13.43 21.15 12.655 20.87 12.115 20.31C11.585 19.75 11.32 18.965 11.32 17.955V15.9C12.43 15.9 13.245 15.87 13.765 15.81C14.285 15.74 14.67 15.6 14.92 15.39C15.18 15.18 15.35 14.84 15.43 14.37H10.69V13.14H15.505V12.93V11.805H10.69V10.56H18.85V11.805H17.11V12.93Z" fill="#770000"/>
</svg>
