<svg width="70" height="70" viewBox="0 0 70 70" fill="none" xmlns="http://www.w3.org/2000/svg">
<rect width="70" height="70" rx="35" fill="#FCFCFC"/>
<rect x="0.5" y="0.5" width="69" height="69" rx="34.5" stroke="#7D7C83" stroke-opacity="0.2"/>
<path d="M47.5 27.4999H44.0475C44.8554 26.2973 45.1665 24.8287 44.9158 23.4018C44.665 21.9748 43.8719 20.7003 42.7024 19.8451C41.533 18.9899 40.078 18.6204 38.6422 18.814C37.2064 19.0076 35.9012 19.7493 35 20.8837C34.0988 19.7493 32.7936 19.0076 31.3578 18.814C29.922 18.6204 28.467 18.9899 27.2976 19.8451C26.1281 20.7003 25.335 21.9748 25.0842 23.4018C24.8335 24.8287 25.1446 26.2973 25.9525 27.4999H22.5C21.8372 27.5006 21.2017 27.7642 20.733 28.2329C20.2643 28.7016 20.0007 29.3371 20 29.9999V34.9999C20.0007 35.6628 20.2643 36.2983 20.733 36.767C21.2017 37.2357 21.8372 37.4993 22.5 37.4999V49.9999C22.5007 50.6628 22.7643 51.2983 23.233 51.767C23.7017 52.2357 24.3372 52.4993 25 52.4999H45C45.6628 52.4993 46.2983 52.2357 46.767 51.767C47.2357 51.2983 47.4993 50.6628 47.5 49.9999V37.4999C48.1628 37.4993 48.7983 37.2357 49.267 36.767C49.7357 36.2983 49.9993 35.6628 50 34.9999V29.9999C49.9993 29.3371 49.7357 28.7016 49.267 28.2329C48.7983 27.7642 48.1628 27.5006 47.5 27.4999V27.4999ZM36.25 24.3749C36.25 23.7569 36.4333 23.1527 36.7767 22.6388C37.12 22.1249 37.6081 21.7243 38.1791 21.4878C38.7501 21.2513 39.3785 21.1894 39.9847 21.31C40.5908 21.4306 41.1477 21.7282 41.5847 22.1652C42.0217 22.6023 42.3194 23.1591 42.44 23.7653C42.5605 24.3715 42.4986 24.9998 42.2621 25.5708C42.0256 26.1418 41.6251 26.6299 41.1112 26.9733C40.5973 27.3167 39.9931 27.4999 39.375 27.4999H36.25V24.3749ZM30.625 21.2499C31.4535 21.2509 32.2478 21.5805 32.8336 22.1663C33.4194 22.7522 33.749 23.5464 33.75 24.3749V27.4999H30.625C29.7962 27.4999 29.0013 27.1707 28.4153 26.5847C27.8292 25.9986 27.5 25.2037 27.5 24.3749C27.5 23.5461 27.8292 22.7513 28.4153 22.1652C29.0013 21.5792 29.7962 21.2499 30.625 21.2499V21.2499ZM22.5 29.9999H33.75V34.9999H22.5V29.9999ZM25 37.4999H33.75V49.9999H25V37.4999ZM45.0012 49.9999H36.25V37.4999H45L45.0012 49.9999ZM36.25 34.9999V29.9999H47.5L47.5012 34.9999H36.25Z" fill="#A42C24"/>
</svg>
