<svg width="45" height="45" viewBox="0 0 45 45" fill="none" xmlns="http://www.w3.org/2000/svg">
<circle cx="22.5" cy="22.5" r="22.5" fill="#E75E41" fill-opacity="0.2"/>
<path d="M20.1663 26.1248L22.9163 27.0415C22.9163 27.0415 29.7913 25.6665 30.708 25.6665C31.6247 25.6665 31.6247 26.5832 30.708 27.4998C29.7913 28.4165 26.583 31.1665 23.833 31.1665C21.083 31.1665 19.2497 29.7915 17.4163 29.7915H12.833" stroke="#770000" stroke-width="1.5" stroke-linecap="round" stroke-linejoin="round"/>
<path d="M18.333 19.2498V15.5832C18.333 15.3401 18.4296 15.1069 18.6015 14.935C18.7734 14.7631 19.0066 14.6665 19.2497 14.6665H30.2497C30.4928 14.6665 30.7259 14.7631 30.8979 14.935C31.0698 15.1069 31.1663 15.3401 31.1663 15.5832V22.9165M12.833 24.2915C13.7497 23.3748 15.583 21.9998 17.4163 21.9998C19.2497 21.9998 23.6038 23.8332 24.2913 24.7498C24.9788 25.6665 22.9163 27.0415 22.9163 27.0415L12.833 24.2915Z" stroke="#770000" stroke-width="1.5" stroke-linecap="round" stroke-linejoin="round"/>
<path d="M22.458 14.6665H27.0413V18.7915H22.458V14.6665Z" stroke="#770000" stroke-width="1.5" stroke-linecap="round" stroke-linejoin="round"/>
</svg>
