<svg width="32" height="32" viewBox="0 0 32 32" fill="none" xmlns="http://www.w3.org/2000/svg">
<circle cx="16" cy="16" r="15.5" fill="white" stroke="#D9D9D9"/>
<g clip-path="url(#clip0_215_2343)">
<path d="M25.1314 15.3343L16.6608 6.86367C16.2938 6.49661 15.7008 6.49661 15.3338 6.86367L6.86318 15.3343C6.49613 15.7013 6.49613 16.2943 6.86318 16.6613L15.3338 25.1319C15.7008 25.499 16.2938 25.499 16.6608 25.1319L25.1314 16.6613C25.4985 16.3037 25.4985 15.7107 25.1314 15.3343ZM17.8749 18.3554V16.0025H14.1102V18.826H12.2279V15.0613C12.2279 14.5437 12.6514 14.1201 13.1691 14.1201H17.8749V11.7672L21.1691 15.0613L17.8749 18.3554Z" fill="#037022"/>
</g>
<defs>
<clipPath id="clip0_215_2343">
<rect width="22.5882" height="22.5882" fill="white" transform="translate(4.70508 4.70605)"/>
</clipPath>
</defs>
</svg>
