<svg width="18" height="18" viewBox="0 0 18 18" fill="none" xmlns="http://www.w3.org/2000/svg">
<path d="M3.22288 1.78281C3.04709 1.8707 3.00139 2.01133 3.00139 2.47891C3.00139 2.92891 3.04358 3.09414 3.1842 3.175C3.24748 3.21016 3.75373 3.22422 5.63811 3.23828L8.01116 3.25938L8.32756 3.3543C8.93928 3.54414 9.45959 3.89219 9.83225 4.36328C10.0467 4.63047 10.3315 5.16484 10.3701 5.37227L10.3948 5.48828H6.85452C2.92756 5.48828 3.15256 5.47422 3.05061 5.7168C2.9803 5.89258 2.98381 6.6168 3.05764 6.77148C3.17014 7.01406 2.96272 7 6.86506 7C10.0397 7 10.3842 7.00703 10.3842 7.05625C10.3842 7.08438 10.335 7.22852 10.2752 7.37266C10.0045 8.02656 9.48772 8.58555 8.86897 8.89492C8.18694 9.23594 8.26428 9.22539 5.71897 9.24648L3.50061 9.26758L3.34592 9.37305C3.1385 9.5207 3.026 9.73516 3.026 9.98477C3.026 10.3785 2.8467 10.2133 6.59788 13.2191C8.47873 14.7203 10.0573 15.9648 10.103 15.9754C10.1522 15.9895 10.5283 16 10.9397 16C11.7729 16 11.8854 15.9789 11.9803 15.7926C12.0471 15.666 12.0506 15.5781 11.9979 15.4586C11.9733 15.4059 10.7428 14.4426 8.93225 13.0574L5.91233 10.7441L7.06545 10.723C8.15881 10.7055 8.23967 10.6984 8.55608 10.6141C9.68108 10.3117 10.5459 9.72813 11.1787 8.83867C11.5022 8.38516 11.8362 7.61875 11.9135 7.14766L11.9381 7H13.3092C14.835 7 14.8631 6.99648 14.9686 6.77148C15.0424 6.6168 15.0459 5.89258 14.9756 5.7168C14.8807 5.48828 14.8666 5.48828 13.3268 5.48828H11.9416L11.917 5.33711C11.8748 5.08047 11.6533 4.46523 11.4881 4.14883C11.3967 3.98359 11.2244 3.70938 11.1014 3.54063L10.8764 3.23828H12.7959C14.9229 3.23828 14.8772 3.2418 14.9756 3.00977C15.0459 2.83398 15.0424 2.10977 14.9686 1.95508C14.8526 1.70898 15.2955 1.72656 9.00608 1.72656C3.92952 1.72656 3.32483 1.73359 3.22288 1.78281Z" fill="#4F5052"/>
</svg>
