<svg width="70" height="70" viewBox="0 0 70 70" fill="none" xmlns="http://www.w3.org/2000/svg">
<rect width="69.5035" height="70" rx="34.7518" fill="#FCFCFC"/>
<rect x="0.5" y="0.5" width="68.5035" height="69" rx="34.2518" stroke="#7D7C83" stroke-opacity="0.2"/>
<path fill-rule="evenodd" clip-rule="evenodd" d="M26.4409 24.1229C27.2661 24.1229 28.0575 24.4531 28.6411 25.0408C29.2246 25.6284 29.5524 26.4255 29.5524 27.2566C29.5524 28.0877 29.2246 28.8848 28.6411 29.4724C28.0575 30.0601 27.2661 30.3903 26.4409 30.3903C25.6157 30.3903 24.8243 30.0601 24.2408 29.4724C23.6573 28.8848 23.3295 28.0877 23.3295 27.2566C23.3295 26.4255 23.6573 25.6284 24.2408 25.0408C24.8243 24.4531 25.6157 24.1229 26.4409 24.1229ZM32.6638 27.2566C32.6638 25.5944 32.0082 24.0003 30.8412 22.8249C29.6742 21.6496 28.0913 20.9893 26.4409 20.9893C24.7905 20.9893 23.2077 21.6496 22.0407 22.8249C20.8737 24.0003 20.218 25.5944 20.218 27.2566C20.218 28.9188 20.8737 30.5129 22.0407 31.6883C23.2077 32.8636 24.7905 33.524 26.4409 33.524C28.0913 33.524 29.6742 32.8636 30.8412 31.6883C32.0082 30.5129 32.6638 28.9188 32.6638 27.2566ZM35.3179 41.1497C35.7582 41.5963 35.7753 41.8407 35.7753 41.9285V46.0586H17.1066V41.9285C17.1066 41.8407 17.1221 41.5963 17.564 41.1497C18.0307 40.675 18.8163 40.1564 19.9069 39.6769C22.1036 38.707 24.7919 38.2245 26.4409 38.2245C28.09 38.2245 30.7783 38.7102 32.975 39.6753C34.0655 40.1548 34.8496 40.675 35.3179 41.1497ZM26.4409 35.0908C30.5947 35.0908 38.8867 37.3815 38.8867 41.9285V49.1923H13.9951V41.9285C13.9951 37.3815 22.2871 35.0908 26.4409 35.0908Z" fill="#A42C24"/>
<path fill-rule="evenodd" clip-rule="evenodd" d="M39.6233 42.8066C39.6233 42.1207 39.9492 41.4771 40.5232 41.0211C41.0682 40.5882 41.9246 40.2523 43.2446 40.2523H61.3511V37.6979H43.2446C40.9432 37.6979 39.0837 38.3199 37.818 39.3238C36.5814 40.3046 36.002 41.5767 36.002 42.8066V49.1924H39.6233V42.8066Z" fill="#A42C24"/>
<path fill-rule="evenodd" clip-rule="evenodd" d="M64.0742 39.1034L57.7202 31.5555L56.1459 33.4256L60.9256 39.1034L56.1459 44.7812L57.7202 46.6514L64.0742 39.1034Z" fill="#A42C24"/>
</svg>
