<svg width="70" height="70" viewBox="0 0 70 70" fill="none" xmlns="http://www.w3.org/2000/svg">
<rect width="70" height="70" rx="35" fill="#FCFCFC"/>
<rect x="0.5" y="0.5" width="69" height="69" rx="34.5" stroke="#7D7C83" stroke-opacity="0.2"/>
<path d="M52.187 36.1871V33.7965L55.187 31.1715C55.74 30.6841 56.1029 30.0168 56.2115 29.2877C56.3202 28.5586 56.1676 27.8146 55.7807 27.1871L52.0932 20.9371C51.8192 20.4625 51.4252 20.0683 50.9508 19.7941C50.4763 19.5198 49.9381 19.3752 49.3901 19.3746C49.0505 19.372 48.7127 19.4248 48.3901 19.5308L44.5932 20.8121C43.9377 20.3765 43.2539 19.985 42.5464 19.6402L41.7495 15.7027C41.6066 14.9834 41.2152 14.3372 40.6439 13.8773C40.0726 13.4174 39.3578 13.173 38.6245 13.1871H31.312C30.5787 13.173 29.8638 13.4174 29.2925 13.8773C28.7212 14.3372 28.3299 14.9834 28.187 15.7027L27.3901 19.6402C26.6775 19.9849 25.9885 20.3764 25.3276 20.8121L21.6089 19.4683C21.2828 19.3834 20.9451 19.3517 20.6089 19.3746C20.0608 19.3752 19.5226 19.5198 19.0482 19.7941C18.5737 20.0683 18.1797 20.4625 17.9057 20.9371L14.2182 27.1871C13.8535 27.8136 13.718 28.5475 13.8349 29.263C13.9517 29.9785 14.3137 30.631 14.8589 31.109L17.812 33.8121V36.2027L14.8589 38.8277C14.2983 39.309 13.9264 39.9732 13.8092 40.7026C13.6919 41.432 13.8368 42.1794 14.2182 42.8121L17.9057 49.0621C18.1797 49.5367 18.5737 49.9309 19.0482 50.2051C19.5226 50.4794 20.0608 50.624 20.6089 50.6246C20.9485 50.6272 21.2862 50.5744 21.6089 50.4683L25.4057 49.1871C26.0613 49.6227 26.7451 50.0142 27.4526 50.359L28.2495 54.2965C28.3924 55.0158 28.7837 55.662 29.355 56.1219C29.9263 56.5818 30.6412 56.8262 31.3745 56.8121H38.7495C39.4828 56.8262 40.1976 56.5818 40.7689 56.1219C41.3402 55.662 41.7316 55.0158 41.8745 54.2965L42.6714 50.359C43.384 50.0143 44.073 49.6228 44.7339 49.1871L48.5151 50.4683C48.8377 50.5744 49.1755 50.6272 49.5151 50.6246C50.0631 50.624 50.6013 50.4794 51.0758 50.2051C51.5502 49.9309 51.9442 49.5367 52.2182 49.0621L55.7807 42.8121C56.1454 42.1856 56.281 41.4517 56.1641 40.7362C56.0472 40.0207 55.6852 39.3682 55.1401 38.8902L52.187 36.1871ZM49.3901 47.4996L44.0307 45.6871C42.7761 46.7498 41.3423 47.5805 39.7964 48.1402L38.687 53.7496H31.312L30.2026 48.2027C28.6689 47.6271 27.2428 46.7978 25.9839 45.7496L20.6089 47.4996L16.9214 41.2496L21.1714 37.4996C20.8824 35.8822 20.8824 34.2264 21.1714 32.609L16.9214 28.7496L20.6089 22.4996L25.9682 24.3121C27.2228 23.2494 28.6567 22.4187 30.2026 21.859L31.312 16.2496H38.687L39.7964 21.7965C41.3301 22.3721 42.7562 23.2014 44.0151 24.2496L49.3901 22.4996L53.0776 28.7496L48.8276 32.4996C49.1165 34.117 49.1165 35.7728 48.8276 37.3902L53.0776 41.2496L49.3901 47.4996Z" fill="#A42C24"/>
<path d="M35 44.375C33.1458 44.375 31.3332 43.8252 29.7915 42.795C28.2498 41.7649 27.0482 40.3007 26.3386 38.5877C25.6291 36.8746 25.4434 34.9896 25.8051 33.171C26.1669 31.3525 27.0598 29.682 28.3709 28.3709C29.682 27.0598 31.3525 26.1669 33.171 25.8051C34.9896 25.4434 36.8746 25.6291 38.5877 26.3386C40.3007 27.0482 41.7649 28.2498 42.795 29.7915C43.8252 31.3332 44.375 33.1458 44.375 35C44.3875 36.2346 44.1536 37.4593 43.6869 38.6024C43.2202 39.7455 42.5301 40.784 41.6571 41.6571C40.784 42.5301 39.7455 43.2202 38.6024 43.6869C37.4594 44.1536 36.2346 44.3875 35 44.375ZM35 28.75C34.174 28.7308 33.3526 28.8793 32.5857 29.1866C31.8187 29.4938 31.122 29.9535 30.5377 30.5377C29.9535 31.122 29.4938 31.8187 29.1866 32.5857C28.8793 33.3526 28.7308 34.174 28.75 35C28.7308 35.826 28.8793 36.6474 29.1866 37.4144C29.4938 38.1813 29.9535 38.878 30.5377 39.4623C31.122 40.0465 31.8187 40.5062 32.5857 40.8135C33.3526 41.1207 34.174 41.2692 35 41.25C35.826 41.2692 36.6474 41.1207 37.4144 40.8135C38.1813 40.5062 38.878 40.0465 39.4623 39.4623C40.0465 38.878 40.5062 38.1813 40.8135 37.4144C41.1207 36.6474 41.2692 35.826 41.25 35C41.2692 34.174 41.1207 33.3526 40.8135 32.5857C40.5062 31.8187 40.0465 31.122 39.4623 30.5377C38.878 29.9535 38.1813 29.4938 37.4144 29.1866C36.6474 28.8793 35.826 28.7308 35 28.75Z" fill="#A42C24"/>
</svg>
