<svg width="20" height="20" viewBox="0 0 20 20" fill="none" xmlns="http://www.w3.org/2000/svg">
<path d="M9.99935 1.66699C5.40435 1.66699 1.66602 5.40532 1.66602 10.0003V13.4528C1.66602 14.3062 2.41352 15.0003 3.33268 15.0003H4.16602C4.38703 15.0003 4.59899 14.9125 4.75527 14.7562C4.91155 14.6 4.99935 14.388 4.99935 14.167V9.88116C4.99935 9.66014 4.91155 9.44818 4.75527 9.2919C4.59899 9.13562 4.38703 9.04782 4.16602 9.04782H3.40935C3.87268 5.82283 6.64768 3.33366 9.99935 3.33366C13.351 3.33366 16.126 5.82283 16.5893 9.04782H15.8327C15.6117 9.04782 15.3997 9.13562 15.2434 9.2919C15.0871 9.44818 14.9993 9.66014 14.9993 9.88116V15.0003C14.9993 15.9195 14.2518 16.667 13.3327 16.667H11.666V15.8337H8.33268V18.3337H13.3327C15.171 18.3337 16.666 16.8387 16.666 15.0003C17.5852 15.0003 18.3327 14.3062 18.3327 13.4528V10.0003C18.3327 5.40532 14.5943 1.66699 9.99935 1.66699Z" fill="#A42C24"/>
<path d="M6.99147 12.9524L6.99145 12.9524C6.86696 12.9771 6.74206 12.9997 6.61681 13.0202L6.61645 13.0202C6.42838 13.0503 6.29706 12.8572 6.36642 12.6939M6.99147 12.9524L6.45846 12.7329M6.99147 12.9524C7.91547 12.769 8.4977 12.5287 8.78925 12.3851L6.99147 12.9524ZM6.36642 12.6939L6.45846 12.7329M6.36642 12.6939C6.36641 12.6939 6.36641 12.6939 6.3664 12.6939L6.45846 12.7329M6.36642 12.6939C6.41149 12.5876 6.45282 12.4797 6.49033 12.3706M6.45846 12.7329C6.50471 12.6239 6.5471 12.5132 6.58555 12.4012M6.49033 12.3706L6.48976 12.3724L6.58555 12.4012M6.49033 12.3706C6.49054 12.3699 6.49075 12.3693 6.49096 12.3687L6.58555 12.4012M6.49033 12.3706L6.49133 12.3672L6.49248 12.3634L6.49256 12.3634C6.61478 12.0086 6.71474 11.6038 6.75576 11.2248C6.11996 10.5719 5.73398 9.72205 5.73398 8.79232C5.73398 6.71142 7.65734 5.04648 10.0007 5.04648C12.344 5.04648 14.2673 6.71142 14.2673 8.79232C14.2673 10.8732 12.344 12.5381 10.0008 12.5382C10.0007 12.5382 10.0007 12.5382 10.0007 12.5382L6.58555 12.4012M7.29962 10.7499L7.29959 10.7498C6.76362 10.2124 6.45482 9.52765 6.45482 8.79232C6.45482 7.19663 7.96229 5.76732 10.0007 5.76732C12.039 5.76732 13.5465 7.19663 13.5465 8.79232C13.5465 10.3885 12.039 11.8173 10.0007 11.8173H10.0005C9.64193 11.8179 9.28485 11.7714 8.93839 11.679C8.79083 11.6396 8.63391 11.656 8.49766 11.725C8.31859 11.8157 7.93451 11.9857 7.31354 12.142C7.3915 11.8488 7.4464 11.5499 7.47772 11.2479L7.4778 11.2472C7.4865 11.1563 7.47504 11.0646 7.44424 10.9786C7.41344 10.8927 7.36406 10.8146 7.29962 10.7499ZM6.97201 12.8543C6.8486 12.8788 6.7248 12.9012 6.60065 12.9215L6.97201 12.8543Z" fill="#A42C24" stroke="#A42C24" stroke-width="0.2"/>
</svg>
