<svg width="36" height="37" viewBox="0 0 36 37" fill="none" xmlns="http://www.w3.org/2000/svg">
<g clip-path="url(#clip0_215_1172)">
<path d="M14.0625 1.0387C11.6297 1.1723 8.57109 1.53089 7.48125 1.81917C4.76016 2.52933 2.20078 4.84964 1.125 7.57776C0.499219 9.1598 0 13.8848 0 18.195C0 21.6192 0.39375 26.1754 0.84375 27.9262C1.575 30.7879 4.10625 33.4598 7.02422 34.4371C7.97344 34.7606 10.2516 35.084 13.0078 35.295C14.5758 35.4145 19.7719 35.4145 21.4523 35.295L22.7602 35.1965L23.2102 35.5129C27.3094 38.3676 33.0258 36.8418 35.1914 32.3137C36.45 29.684 36.2039 26.5481 34.5516 24.1785L34.2281 23.7215L34.3195 22.4207C34.4461 20.7473 34.4461 15.5582 34.3266 13.9762C34.1156 11.1989 33.7922 8.94183 33.4617 7.97152C32.5547 5.25745 30.15 2.85276 27.4359 1.95277C26.4797 1.63636 24.1102 1.29886 21.5156 1.10902C20.1375 1.00355 15.4969 0.961361 14.0625 1.0387ZM20.1164 3.71058C22.7602 3.84417 25.7414 4.20277 26.5992 4.49105C28.3219 5.06761 29.8969 6.50902 30.6844 8.22464C31.0078 8.92074 31.1133 9.35667 31.3172 10.8825C31.725 13.9481 31.8867 17.7239 31.732 20.677C31.6969 21.4575 31.6758 21.577 31.5773 21.5418C31.5141 21.5278 31.1836 21.3942 30.8391 21.2535C29.8547 20.8457 29.0531 20.6981 27.8086 20.7051C26.6906 20.7051 26.1562 20.7895 25.2 21.1129C23.2664 21.7598 21.4945 23.3207 20.5383 25.2051C19.4977 27.2793 19.4344 29.8387 20.3695 32.0325C20.5031 32.3559 20.6016 32.6371 20.5805 32.6512C20.4961 32.7426 15.975 32.7637 14.4141 32.6864C11.9883 32.5668 9.21797 32.2575 8.19141 31.9973C6.53203 31.5825 4.8375 30.1903 3.9375 28.5098C3.41719 27.5395 3.23438 26.6676 2.95312 23.9184C2.51719 19.5731 2.60156 14.6723 3.17109 10.6364C3.36797 9.24417 3.48047 8.8223 3.825 8.10511C4.51406 6.69183 5.7375 5.47542 7.13672 4.80042C7.875 4.44886 8.31797 4.32933 9.66797 4.13948C12.7687 3.70355 16.6852 3.54183 20.1164 3.71058ZM29.1656 23.5035C30.2062 23.7496 31.3734 24.4809 32.0625 25.3176C32.4844 25.8309 32.9977 26.8293 33.1664 27.4762C33.3352 28.109 33.3352 29.5223 33.1664 30.1481C32.8781 31.2309 32.182 32.3348 31.3664 33.0098C30.832 33.4528 29.8406 33.959 29.1797 34.1348C28.4766 34.3246 27.1266 34.3035 26.4094 34.0996C22.8164 33.066 21.2414 28.9106 23.2734 25.8379C24.1031 24.5793 25.4039 23.7075 26.8453 23.4332C27.4781 23.3137 28.5047 23.3418 29.1656 23.5035Z" fill="#A42C24"/>
<path d="M8.0505 10.0876C7.53721 10.3548 7.29112 10.7345 7.29112 11.2689C7.28409 11.8806 7.62862 12.3587 8.21925 12.5556C8.54268 12.6681 25.7833 12.6751 26.1771 12.5626C26.5075 12.4712 26.9224 12.1196 27.0419 11.8173C27.2388 11.3532 27.0911 10.615 26.7466 10.3056C26.3458 9.95402 26.7396 9.96808 17.1771 9.96808C9.18956 9.97511 8.24034 9.98214 8.0505 10.0876Z" fill="#A42C24"/>
<path d="M8.19083 18.3496C7.24864 18.6871 6.96739 19.9106 7.67755 20.5574C8.11349 20.9582 7.81114 20.9442 13.8088 20.9231L19.3213 20.902L19.5955 20.684C19.9752 20.3746 20.1369 20.0652 20.1369 19.6363C20.1369 19.1723 19.933 18.7785 19.5533 18.5113L19.251 18.3004L13.8299 18.2863C10.1033 18.2793 8.33849 18.3004 8.19083 18.3496Z" fill="#A42C24"/>
<path d="M27.3164 24.7269C26.9789 24.8816 26.7609 25.1066 26.6133 25.4512C26.5289 25.6551 26.5078 26.0066 26.5078 27.0684C26.5078 28.2918 26.5219 28.4465 26.6555 28.7207C27.0281 29.4941 27.9773 29.7121 28.6805 29.1848C29.1164 28.8473 29.1797 28.6012 29.1797 27.0402C29.1797 26.2316 29.1516 25.5777 29.1023 25.4582C29.0039 25.191 28.6312 24.8113 28.357 24.6918C28.0477 24.5582 27.6539 24.5723 27.3164 24.7269Z" fill="#A42C24"/>
<path d="M27.4211 30.3594C26.6547 30.4297 26.4719 30.725 26.5211 31.843C26.5422 32.4547 26.5633 32.5531 26.718 32.7148C26.9571 32.968 27.3508 33.0523 28.0821 33.0101C28.6657 32.982 28.7149 32.9609 28.9258 32.757C29.1438 32.5391 29.1438 32.525 29.1649 31.7445C29.1789 31.0484 29.1649 30.9289 29.0383 30.725C28.961 30.5984 28.8274 30.4719 28.736 30.4367C28.518 30.3523 27.8782 30.3172 27.4211 30.3594Z" fill="#A42C24"/>
</g>
<defs>
<clipPath id="clip0_215_1172">
<rect width="36" height="36" fill="white" transform="translate(0 0.96875)"/>
</clipPath>
</defs>
</svg>
