<svg width="36" height="37" viewBox="0 0 36 37" fill="none" xmlns="http://www.w3.org/2000/svg">
<path d="M4.85138 4.7375C2.32717 5.22969 0.55529 6.9664 0.0982588 9.40625C-0.035335 10.1023 -0.000178741 11.1641 0.182634 11.832C0.337321 12.4227 0.717009 13.2102 1.08263 13.7164C1.25138 13.9555 2.36935 15.1227 3.56466 16.318L5.73029 18.4766L8.02248 16.1773C10.4623 13.7305 10.6803 13.4562 11.074 12.4086C12.2342 9.31484 10.4834 5.82031 7.31232 4.90625C6.79201 4.75859 5.29435 4.65312 4.85138 4.7375ZM6.4756 8.77344C7.06623 9.07578 7.45295 9.70156 7.45295 10.3555C7.45295 11.6703 6.01857 12.5281 4.85842 11.9023C4.2467 11.5648 3.93732 11.0445 3.93732 10.3344C3.93732 9.04062 5.32248 8.18984 6.4756 8.77344Z" fill="#A42C24"/>
<path d="M10.8988 17.4148C10.8988 18.0012 11.3741 18.4766 11.9605 18.4766H14.5058C18.4855 18.4766 18.7527 18.5047 19.3925 18.8984C21.1785 19.9953 21.0238 22.5898 19.1253 23.4969L18.6683 23.7148L12.9027 23.757C6.46206 23.7992 6.89097 23.7641 5.76597 24.3195C4.60581 24.8961 3.66362 26.0844 3.33315 27.4062C3.08706 28.3695 3.23472 29.7477 3.68472 30.6266C4.29643 31.8359 5.47065 32.7641 6.80659 33.1086C7.31284 33.2352 7.67144 33.2422 16.2214 33.2422H24.0472C24.6297 33.2422 25.1019 32.77 25.1019 32.1875C25.1019 31.6047 24.63 31.1321 24.0472 31.1311L16.1933 31.1187L7.27769 31.0977L6.84878 30.9008C6.17378 30.5914 5.59722 29.9094 5.40737 29.2203C5.05581 27.9195 5.74487 26.5695 7.01753 26.0562L7.41831 25.8945L13.2191 25.8594L19.0199 25.8172L19.5753 25.6203C21.0238 25.093 22.1628 23.8836 22.6128 22.3789C22.8097 21.725 22.7957 20.4945 22.5847 19.8125C22.0855 18.2023 20.8691 17.0141 19.2308 16.5359C18.8582 16.4234 18.373 16.4094 14.8574 16.3883L11.9534 16.3676C11.3722 16.3635 10.8988 16.8336 10.8988 17.4148Z" fill="#A42C24"/>
<path d="M29.0885 19.5734C27.3518 19.9602 25.9104 21.0922 25.137 22.6813C24.3073 24.3758 24.3846 26.4078 25.3549 28.0742C25.6362 28.5523 26.0159 28.9742 27.9776 30.943L30.2698 33.2422L32.4706 31.0484C33.687 29.8391 34.8049 28.6648 34.9596 28.4328C37.1956 25.1914 35.6135 20.7617 31.8377 19.6648C31.1487 19.468 29.7635 19.4188 29.0885 19.5734ZM30.6354 23.3984C31.1276 23.5109 31.5846 23.8695 31.8166 24.3406C31.9784 24.6781 32.0065 24.7977 31.9784 25.2195C31.9432 25.8523 31.6831 26.2953 31.1627 26.6047C30.6846 26.893 30.2698 26.9563 29.7917 26.8156C28.0268 26.3023 28.062 23.8273 29.8479 23.3914C30.1573 23.3211 30.2627 23.3211 30.6354 23.3984Z" fill="#A42C24"/>
</svg>
