<svg width="36" height="36" viewBox="0 0 36 36" fill="none" xmlns="http://www.w3.org/2000/svg">
<path d="M4.85138 3.76875C2.32717 4.26094 0.55529 5.99765 0.0982588 8.4375C-0.035335 9.13359 -0.000178741 10.1953 0.182634 10.8633C0.337321 11.4539 0.717009 12.2414 1.08263 12.7477C1.25138 12.9867 2.36935 14.1539 3.56466 15.3492L5.73029 17.5078L8.02248 15.2086C10.4623 12.7617 10.6803 12.4875 11.074 11.4398C12.2342 8.34609 10.4834 4.85156 7.31232 3.9375C6.79201 3.78984 5.29435 3.68437 4.85138 3.76875ZM6.4756 7.80469C7.06623 8.10703 7.45295 8.73281 7.45295 9.38672C7.45295 10.7016 6.01857 11.5594 4.85842 10.9336C4.2467 10.5961 3.93732 10.0758 3.93732 9.36562C3.93732 8.07187 5.32248 7.22109 6.4756 7.80469Z" fill="#7D7C83"/>
<path d="M10.8988 16.4461V17.5078H14.5058C18.4855 17.5078 18.7527 17.5359 19.3925 17.9297C21.1785 19.0266 21.0238 21.6211 19.1253 22.5281L18.6683 22.7461L12.9027 22.7883C6.46206 22.8305 6.89097 22.7953 5.76597 23.3508C4.60581 23.9273 3.66362 25.1156 3.33315 26.4375C3.08706 27.4008 3.23472 28.7789 3.68472 29.6578C4.29643 30.8672 5.47065 31.7953 6.80659 32.1398C7.31284 32.2664 7.67143 32.2734 16.2214 32.2734H25.1019V31.2188V30.1641L16.1933 30.15L7.27769 30.1289L6.84878 29.932C6.17378 29.6227 5.59722 28.9406 5.40737 28.2516C5.05581 26.9508 5.74487 25.6008 7.01753 25.0875L7.41831 24.9258L13.2191 24.8906L19.0199 24.8484L19.5753 24.6516C21.0238 24.1242 22.1628 22.9148 22.6128 21.4102C22.8097 20.7562 22.7957 19.5258 22.5847 18.8437C22.0855 17.2336 20.8691 16.0453 19.2308 15.5672C18.8582 15.4547 18.373 15.4406 14.8574 15.4195L10.8988 15.3914V16.4461Z" fill="#7D7C83"/>
<path d="M29.0885 18.6047C27.3518 18.9914 25.9104 20.1234 25.137 21.7125C24.3073 23.407 24.3846 25.4391 25.3549 27.1055C25.6362 27.5836 26.0159 28.0055 27.9776 29.9742L30.2698 32.2734L32.4706 30.0797C33.687 28.8703 34.8049 27.6961 34.9596 27.4641C37.1956 24.2227 35.6135 19.793 31.8377 18.6961C31.1487 18.4992 29.7635 18.45 29.0885 18.6047ZM30.6354 22.4297C31.1276 22.5422 31.5846 22.9008 31.8166 23.3719C31.9784 23.7094 32.0065 23.8289 31.9784 24.2508C31.9432 24.8836 31.6831 25.3266 31.1627 25.6359C30.6846 25.9242 30.2698 25.9875 29.7917 25.8469C28.0268 25.3336 28.062 22.8586 29.8479 22.4227C30.1573 22.3523 30.2627 22.3523 30.6354 22.4297Z" fill="#7D7C83"/>
</svg>
