<svg width="70" height="70" viewBox="0 0 70 70" fill="none" xmlns="http://www.w3.org/2000/svg">
<rect width="70" height="70" rx="35" fill="#FCFCFC"/>
<rect x="0.5" y="0.5" width="69" height="69" rx="34.5" stroke="#7D7C83" stroke-opacity="0.2"/>
<g clip-path="url(#clip0_894_886)">
<path d="M14.8835 42.2499C15.458 41.2139 16.2982 40.3498 17.3176 39.7463C18.337 39.1429 19.4988 38.8219 20.6835 38.8166C20.3813 38.2345 20.2213 37.5891 20.2168 36.9333V29.9999C20.2168 29.7789 20.3046 29.5669 20.4609 29.4107C20.6172 29.2544 20.8291 29.1666 21.0501 29.1666H21.8835V27.4999H21.0501C20.8291 27.4999 20.6172 27.4121 20.4609 27.2558C20.3046 27.0996 20.2168 26.8876 20.2168 26.6666V23.3333C20.2168 23.1122 20.3046 22.9003 20.4609 22.744C20.6172 22.5877 20.8291 22.4999 21.0501 22.4999H22.7168C23.2211 22.5149 23.7091 22.6821 24.1167 22.9795C24.5242 23.277 24.8322 23.6908 25.0001 24.1666H29.3835C29.6045 24.1666 29.8164 24.2544 29.9727 24.4107C30.129 24.5669 30.2168 24.7789 30.2168 24.9999C30.2168 25.2209 30.129 25.4329 29.9727 25.5892C29.8164 25.7455 29.6045 25.8333 29.3835 25.8333H25.0001C24.8757 26.1828 24.675 26.5002 24.4127 26.7625C24.1504 27.0248 23.833 27.2255 23.4835 27.3499V29.1666H24.3168C24.5378 29.1666 24.7498 29.2544 24.9061 29.4107C25.0623 29.5669 25.1501 29.7789 25.1501 29.9999V30.8333H27.6501C28.3132 30.8333 28.9491 31.0966 29.4179 31.5655C29.8867 32.0343 30.1501 32.6702 30.1501 33.3333V36.6666C30.1469 37.2725 29.9238 37.8566 29.5222 38.3104C29.1206 38.7641 28.5678 39.0565 27.9668 39.1333L28.9168 40.0833C29.1507 40.3175 29.4288 40.5029 29.7349 40.6288C30.041 40.7547 30.3691 40.8185 30.7001 40.8166H34.0335C34.6559 40.8173 35.272 40.6922 35.8449 40.4488C36.4177 40.2053 36.9354 39.8486 37.3668 39.3999C37.7475 39.0208 38.0473 38.5682 38.2478 38.0697C38.4484 37.5712 38.5456 37.0371 38.5335 36.4999C38.3729 35.3576 37.9383 34.2712 37.2668 33.3333C36.6038 33.2736 35.9916 32.953 35.5649 32.4419C35.1383 31.9309 34.9321 31.2713 34.9918 30.6083C35.0515 29.9452 35.3721 29.333 35.8831 28.9064C36.3942 28.4797 37.0538 28.2736 37.7168 28.3333H40.2168V19.1666C40.2168 18.9456 40.3046 18.7336 40.4609 18.5773C40.6172 18.421 40.8291 18.3333 41.0501 18.3333H51.0501C51.2711 18.3333 51.4831 18.421 51.6394 18.5773C51.7957 18.7336 51.8835 18.9456 51.8835 19.1666V29.1666C51.8835 29.3876 51.7957 29.5996 51.6394 29.7558C51.4831 29.9121 51.2711 29.9999 51.0501 29.9999H48.3335C48.4311 30.267 48.4819 30.5489 48.4835 30.8333C48.4818 31.2472 48.3774 31.6542 48.1796 32.0179C47.9818 32.3815 47.6967 32.6903 47.3501 32.9166C48.9417 33.7465 50.3973 34.8143 51.6668 36.0833C53.9668 38.3333 55.2168 43.3333 55.2168 46.6666C55.2168 46.8876 55.129 47.0996 54.9727 47.2558C54.8164 47.4121 54.6045 47.4999 54.3835 47.4999H50.1335C49.921 48.6488 49.313 49.6871 48.4148 50.4344C47.5167 51.1817 46.3852 51.5909 45.2168 51.5909C44.0484 51.5909 42.9169 51.1817 42.0188 50.4344C41.1206 49.6871 40.5126 48.6488 40.3001 47.4999H29.1668C28.5229 47.501 27.8883 47.3466 27.3168 47.0499L27.2001 46.9666C27.0607 47.5493 26.842 48.11 26.5501 48.6333C26.4978 48.7297 26.4269 48.8149 26.3416 48.884C26.2562 48.953 26.158 49.0045 26.0527 49.0354C25.9474 49.0664 25.837 49.0763 25.7279 49.0645C25.6188 49.0526 25.513 49.0194 25.4168 48.9666L24.7668 48.6166C24.4983 49.2675 24.0953 49.8544 23.5842 50.3388C23.0732 50.8232 22.4656 51.1942 21.8012 51.4275C21.1368 51.6608 20.4306 51.7512 19.7289 51.6926C19.0272 51.6341 18.3458 51.428 17.7292 51.0878C17.1127 50.7477 16.5749 50.2811 16.1512 49.7187C15.7275 49.1563 15.4273 48.5108 15.2704 47.8243C15.1134 47.1379 15.1032 46.426 15.2405 45.7354C15.3777 45.0447 15.6593 44.3909 16.0668 43.8166L15.2001 43.3333C15.0211 43.2253 14.8891 43.054 14.8305 42.8534C14.7718 42.6527 14.7907 42.4373 14.8835 42.2499ZM22.7168 24.1666H21.8835V25.8333H22.7168C22.9378 25.8333 23.1498 25.7455 23.3061 25.5892C23.4623 25.4329 23.5501 25.2209 23.5501 24.9999C23.5501 24.7789 23.4623 24.5669 23.3061 24.4107C23.1498 24.2544 22.9378 24.1666 22.7168 24.1666ZM28.5501 36.6666V33.3333C28.5501 33.1122 28.4623 32.9003 28.3061 32.744C28.1498 32.5877 27.9378 32.4999 27.7168 32.4999H25.2168V35.2833C25.2136 35.6393 25.2875 35.9918 25.4335 36.3166C25.5604 36.59 25.7354 36.8384 25.9501 37.0499L26.3835 37.4833H27.7001C27.8096 37.4855 27.9184 37.4661 28.0203 37.4262C28.1223 37.3864 28.2154 37.3268 28.2943 37.251C28.3732 37.1752 28.4365 37.0845 28.4804 36.9842C28.5243 36.884 28.548 36.776 28.5501 36.6666ZM37.7168 29.9999C37.4958 29.9999 37.2838 30.0877 37.1275 30.244C36.9713 30.4003 36.8835 30.6122 36.8835 30.8333C36.8835 31.0543 36.9713 31.2662 37.1275 31.4225C37.2838 31.5788 37.4958 31.6666 37.7168 31.6666H46.0501C46.2711 31.6666 46.4831 31.5788 46.6394 31.4225C46.7957 31.2662 46.8835 31.0543 46.8835 30.8333C46.8835 30.6122 46.7957 30.4003 46.6394 30.244C46.4831 30.0877 46.2711 29.9999 46.0501 29.9999H37.7168ZM50.2168 19.9999H41.8835V21.6666H50.2168V19.9999ZM50.2168 28.3333V23.3333H41.8835V28.3333H50.2168ZM45.2168 49.9999C45.9539 49.9975 46.6695 49.7509 47.2515 49.2985C47.8335 48.8462 48.2492 48.2136 48.4335 47.4999H42.0001C42.1844 48.2136 42.6001 48.8462 43.1821 49.2985C43.7641 49.7509 44.4797 49.9975 45.2168 49.9999ZM49.4668 45.8333H50.2168C50.2168 44.5072 49.69 43.2354 48.7523 42.2977C47.8146 41.36 46.5429 40.8333 45.2168 40.8333C43.8907 40.8333 42.6189 41.36 41.6813 42.2977C40.7436 43.2354 40.2168 44.5072 40.2168 45.8333H49.4668ZM28.2335 45.6499C28.5288 45.774 28.8464 45.8364 29.1668 45.8333H38.5501C38.5501 44.0651 39.2525 42.3694 40.5028 41.1192C41.753 39.869 43.4487 39.1666 45.2168 39.1666C46.9849 39.1666 48.6806 39.869 49.9308 41.1192C51.1811 42.3694 51.8835 44.0651 51.8835 45.8333H53.5501C53.3668 42.8666 52.2335 38.9999 50.4835 37.2499C49.0001 35.7833 46.0501 33.3333 42.7168 33.3333H39.2501C39.7771 34.2972 40.1057 35.3569 40.2168 36.4499C40.2324 37.2132 40.0928 37.9718 39.8063 38.6794C39.5198 39.3871 39.0924 40.0292 38.5501 40.5666C37.9671 41.1729 37.2686 41.6564 36.4957 41.9884C35.7228 42.3205 34.8913 42.4944 34.0501 42.4999H30.7168C30.1681 42.4987 29.625 42.3891 29.1188 42.1775C28.6125 41.9658 28.1531 41.6563 27.7668 41.2666L25.4335 38.9333L24.7668 38.2666C24.4127 37.9154 24.1247 37.5033 23.9168 37.0499C23.6738 36.5273 23.5432 35.9595 23.5335 35.3833V31.6666V30.8333H21.8668V36.9333C21.8611 37.5486 22.0872 38.1436 22.5001 38.5999L28.2335 45.6499ZM20.2168 49.9999C20.8931 50 21.5534 49.7944 22.11 49.4104C22.6667 49.0264 23.0934 48.4821 23.3335 47.8499L21.2168 46.6833L20.9001 47.1333C20.8367 47.223 20.7561 47.2993 20.6632 47.358C20.5702 47.4166 20.4666 47.4563 20.3582 47.4749C20.2499 47.4934 20.139 47.4905 20.0318 47.4662C19.9246 47.4419 19.8232 47.3967 19.7335 47.3333C19.6437 47.2698 19.5674 47.1893 19.5088 47.0963C19.4501 47.0033 19.4104 46.8997 19.3918 46.7913C19.3733 46.683 19.3762 46.5721 19.4005 46.4649C19.4248 46.3577 19.47 46.2563 19.5335 46.1666L19.7501 45.8666L17.5501 44.6499C17.1739 45.1451 16.9437 45.7356 16.8855 46.3548C16.8273 46.9739 16.9435 47.597 17.2209 48.1536C17.4983 48.7102 17.9259 49.1781 18.4554 49.5043C18.9848 49.8306 19.5949 50.0023 20.2168 49.9999ZM17.7335 42.8666L25.4501 47.1333C25.6694 46.5022 25.7546 45.8324 25.7001 45.1666L22.0668 40.6833C21.1246 40.4165 20.1249 40.4322 19.1916 40.7285C18.2583 41.0248 17.4325 41.5886 16.8168 42.3499L17.7335 42.8666Z" fill="#A42C24"/>
</g>
<defs>
<clipPath id="clip0_894_886">
<rect width="40" height="40" fill="white" transform="matrix(-1 0 0 1 55 15)"/>
</clipPath>
</defs>
</svg>
