<svg width="57" height="57" viewBox="0 0 57 57" fill="none" xmlns="http://www.w3.org/2000/svg">
<g clip-path="url(#clip0_210_471)">
<path d="M2.77873 9.5955C2.48342 9.70488 2.06779 10.0002 1.72873 10.3393C0.733419 11.3346 0.809981 9.75956 0.809981 28.9877C0.809981 48.2049 0.733419 46.6408 1.71779 47.6361C2.74592 48.6643 -0.0322053 48.5658 28.81 48.5658C57.6522 48.5658 54.8741 48.6643 55.9022 47.6361C56.8428 46.6846 56.81 47.0564 56.81 38.2627V30.6174L56.5365 30.3549C56.1975 30.0049 55.7819 30.0049 55.4428 30.3549L55.1694 30.6174V38.2299C55.1694 46.6299 55.2022 46.2689 54.4803 46.7064C54.1412 46.9252 53.7256 46.9252 28.8319 46.9252C0.875607 46.9252 3.11779 46.9799 2.66936 46.2361C2.45061 45.8971 2.45061 45.558 2.45061 29.0096C2.45061 10.3721 2.39592 11.7174 3.13967 11.2689C3.47873 11.0502 3.89436 11.0502 28.81 11.0502C53.7256 11.0502 54.1412 11.0502 54.4803 11.2689C55.2022 11.7064 55.1694 11.3455 55.1694 19.7455V27.358L55.4428 27.6205C55.7819 27.9705 56.1975 27.9705 56.5365 27.6205L56.81 27.358V19.7127C56.81 10.9189 56.8428 11.2908 55.9022 10.3393C54.8741 9.31113 57.6631 9.40956 28.7662 9.4205C5.8303 9.4205 3.22717 9.44238 2.77873 9.5955Z" fill="#A42C24"/>
<path d="M7.7668 15.1522C7.16523 15.36 6.81523 15.6444 6.53086 16.1475L6.2793 16.5741V28.9881V41.4022L6.53086 41.8397C6.8043 42.3209 7.31836 42.7147 7.90898 42.8788C8.47773 43.0319 28.1762 43.0209 28.7559 42.8678C29.3574 42.7038 29.8605 42.2991 30.1559 41.7522L30.3965 41.2928L30.4293 29.3163C30.4512 20.8069 30.4184 17.1756 30.3309 16.7491C30.1777 15.9834 29.5324 15.3053 28.7887 15.1194C28.0996 14.9444 20.2902 14.9334 19.9184 15.1084C19.6559 15.2288 19.4043 15.6225 19.4043 15.9069C19.4043 15.9834 19.5027 16.1803 19.634 16.3444L19.8527 16.6288H24.0965C27.5855 16.6288 28.373 16.6616 28.548 16.7819C28.7559 16.935 28.7559 17.1866 28.7887 27.3913C28.8105 38.4053 28.8324 38.0663 28.3512 37.6944C28.2418 37.6178 26.6996 36.9944 24.9277 36.3053L21.7012 35.0584V34.6319C21.7012 34.2709 21.7777 34.1178 22.2262 33.6475C22.8715 32.9584 23.2652 32.2913 23.4949 31.4928C23.659 30.935 23.7137 30.8694 24.0855 30.76C24.6762 30.5741 25.2996 30.0053 25.5949 29.3819C26.0105 28.4959 25.923 27.7303 25.2996 26.7459L24.9605 26.1991L24.9715 24.285C24.9824 23.235 24.9387 22.1194 24.873 21.8131C24.6652 20.8397 23.7355 20.0194 22.8496 20.0194C22.5543 20.0194 22.4668 19.9756 22.4668 19.8225C22.4668 19.7241 22.3137 19.385 22.1387 19.0678C21.8871 18.6194 21.7012 18.4444 21.2309 18.2147L20.6402 17.9303L17.2605 17.9631L13.8809 17.9959L13.1918 18.3678C12.3387 18.8272 11.6168 19.6147 11.2887 20.435C11.059 21.0147 11.0371 21.2116 11.0371 23.5194C11.0371 25.5209 11.0699 26.0459 11.2012 26.3084C11.3652 26.6147 11.3543 26.6694 11.0918 27.1834C10.3809 28.5725 11.0699 30.2569 12.5684 30.7709C12.9293 30.9022 13.0059 30.9788 13.1043 31.4053C13.3121 32.1819 13.7277 32.9256 14.3512 33.5928C14.8324 34.1178 14.9199 34.2819 14.9199 34.6428V35.0694L11.584 36.36C9.74648 37.0819 8.21523 37.7053 8.18242 37.76C8.14961 37.8038 8.08398 37.8475 8.01836 37.8475C7.88711 37.8475 7.88711 17.0663 8.0293 16.8475C8.1168 16.7053 8.77305 16.6725 12.5027 16.6288C16.7137 16.5741 16.8887 16.5631 17.0418 16.3553C17.3699 15.9288 17.2387 15.3928 16.7684 15.1522C16.3309 14.9225 8.41211 14.9225 7.7668 15.1522ZM20.6293 19.7678C20.7168 19.8772 20.848 20.1397 20.9246 20.3475C21.198 21.1678 21.6355 21.5178 22.5652 21.6491C23.2871 21.7475 23.3418 21.9006 23.3418 24.0881C23.3418 25.8491 23.3309 25.9256 23.123 25.9256C22.7949 25.9256 22.4996 25.5647 22.4121 25.0725C22.3246 24.5584 22.0949 24.3178 21.6027 24.2194C21.2746 24.1538 21.209 24.1975 20.5746 24.8647C19.5793 25.9366 19.6121 25.9256 16.0246 25.9256C13.334 25.9256 12.9402 25.9038 12.7871 25.7506C12.634 25.5866 12.6121 25.2913 12.6449 23.4209C12.6777 21.4522 12.6996 21.2444 12.9184 20.8178C13.1699 20.3475 13.673 19.8991 14.1543 19.7022C14.3074 19.6475 15.7402 19.5928 17.4465 19.5928C20.1918 19.5819 20.4762 19.6038 20.6293 19.7678ZM22.1387 28.6053C22.1387 30.8256 21.8324 31.8209 20.8809 32.6959C20.0824 33.4288 19.5355 33.6366 18.3652 33.6366C17.4684 33.6366 17.3043 33.6038 16.648 33.2756C15.773 32.8491 15.1277 32.16 14.8105 31.3288C14.6246 30.8256 14.5918 30.4756 14.5918 29.1522V27.5663H16.9215C19.4918 27.5663 20.0277 27.4788 20.7824 26.9319L21.209 26.6147L21.6793 27.0084L22.1387 27.3913V28.6053ZM12.9512 28.3319C12.9512 28.9444 12.9184 29.0756 12.798 29.0319C12.7105 28.9991 12.5793 28.8241 12.5027 28.6491C12.3934 28.3647 12.4043 28.2553 12.5465 27.9381C12.8309 27.3584 12.9512 27.4788 12.9512 28.3319ZM24.173 28.2334C24.2168 28.5178 24.184 28.6819 24.009 28.8788L23.7902 29.1522L23.7793 28.3319C23.7793 27.5991 23.8012 27.5334 23.9434 27.6866C24.0418 27.7741 24.1402 28.0256 24.173 28.2334ZM18.3105 35.2772C18.8246 35.2772 19.4262 35.2334 19.6559 35.1897C20.0605 35.1022 20.0605 35.1022 20.0605 35.4522C20.0605 35.8241 20.6621 36.535 20.9793 36.535C21.2527 36.535 21.1871 36.71 20.8043 37.0381C20.2684 37.4866 19.4152 37.8366 18.6715 37.9131C17.7965 38.0116 16.6918 37.6834 15.959 37.1147C15.4777 36.7538 15.4449 36.6991 15.6309 36.6006C16.134 36.3163 16.5605 35.7913 16.5605 35.4522C16.5605 35.1022 16.5605 35.1022 16.9762 35.1897C17.1949 35.2334 17.7965 35.2772 18.3105 35.2772ZM14.2965 37.8147C16.3199 40.1006 20.0824 40.1663 22.1934 37.9459C22.5324 37.585 22.8387 37.3006 22.8824 37.3006C23.1012 37.3006 27.4762 39.0725 27.8152 39.3022C28.4168 39.7069 28.8434 40.385 28.7559 40.7897C28.7121 40.9756 28.5918 41.1834 28.4824 41.2381C28.3402 41.3147 24.8074 41.3366 18.2012 41.3256C7.09961 41.2928 7.91992 41.3475 7.91992 40.6038C7.91992 40.3413 8.0293 40.1225 8.3793 39.7506C8.63086 39.4772 8.93711 39.2038 9.05742 39.1381C9.35273 38.9741 13.6293 37.3116 13.7605 37.3006C13.8152 37.3006 14.0559 37.5303 14.2965 37.8147Z" fill="#A42C24"/>
<path d="M34.1699 15.2279C33.4152 15.6107 33.1855 16.1575 33.1855 17.5575C33.1855 18.8482 33.4043 19.4497 33.973 19.7997C34.323 20.0185 34.4652 20.0185 42.6137 19.9966L50.8824 19.9638L51.1777 19.6904C51.7027 19.1982 51.7793 18.9247 51.7793 17.5247C51.7793 16.0919 51.6699 15.7857 50.9809 15.2716C50.6746 15.0419 50.5871 15.0419 42.6684 15.0091L34.6621 14.9872L34.1699 15.2279ZM50.1387 17.5029V18.3779H42.4824H34.8262V17.5794C34.8262 17.131 34.859 16.7372 34.9027 16.7044C34.9355 16.6607 38.3809 16.6279 42.559 16.6279H50.1387V17.5029Z" fill="#A42C24"/>
<path d="M33.4587 22.2067C33.1853 22.5129 33.2072 23.0379 33.5025 23.3332C33.7103 23.5411 33.8853 23.5739 34.8368 23.6067C36.1384 23.6614 36.6197 23.5848 36.915 23.2895C37.1884 23.0161 37.1775 22.5348 36.904 22.2286C36.6962 21.9989 36.5759 21.9879 35.165 21.9879C33.7978 21.9879 33.6337 22.0098 33.4587 22.2067Z" fill="#A42C24"/>
<path d="M38.9486 22.1846C38.6861 22.4799 38.708 23.1142 38.9923 23.3658C39.2111 23.5627 39.4955 23.5736 44.9314 23.6064C48.0595 23.6283 50.7939 23.6064 50.9908 23.5736C51.7127 23.4424 52.0298 22.6767 51.5595 22.2064C51.3408 21.9877 51.1986 21.9877 45.2377 21.9877C39.4517 21.9877 39.1127 21.9986 38.9486 22.1846Z" fill="#A42C24"/>
<path d="M38.9817 25.7061C38.6864 26.0014 38.6973 26.592 38.9927 26.8654C39.2114 27.0623 39.4739 27.0732 45.2927 27.0732H51.363L51.5708 26.8107C51.8442 26.4826 51.8333 26.0232 51.5598 25.7279L51.3302 25.4873H45.2708C39.3427 25.4873 39.2005 25.4873 38.9817 25.7061Z" fill="#A42C24"/>
<path d="M33.5353 29.1738C33.404 29.2832 33.2728 29.502 33.229 29.666C33.1743 29.9066 33.229 30.0379 33.5025 30.3113L33.8415 30.6504L35.2743 30.6066C36.6196 30.5738 36.7181 30.5629 36.915 30.3113C37.1993 29.9613 37.1775 29.5129 36.8712 29.2285C36.6415 29.0098 36.4993 28.9879 35.1868 28.9879C33.9837 28.9879 33.7212 29.0207 33.5353 29.1738Z" fill="#A42C24"/>
<path d="M38.9817 29.206C38.6536 29.5341 38.6864 30.1138 39.0582 30.4091C39.3426 30.6279 39.3973 30.6279 45.3582 30.606L51.3629 30.5732L51.5707 30.3107C51.8551 29.9607 51.8332 29.5122 51.527 29.2279L51.2754 28.9872H45.2379C39.3426 28.9872 39.2004 28.9872 38.9817 29.206Z" fill="#A42C24"/>
<path d="M38.9828 32.7061C38.6546 33.0342 38.6874 33.6139 39.0484 33.8982C39.3328 34.1279 39.4312 34.1279 45.2937 34.1279H51.2437L51.5062 33.8545C51.8562 33.5154 51.8671 33.0451 51.5281 32.7279L51.2765 32.4873H45.239C39.3437 32.4873 39.2015 32.4873 38.9828 32.7061Z" fill="#A42C24"/>
<path d="M33.5888 36.1076C33.0857 36.4029 33.1404 37.2561 33.6872 37.5076C33.8404 37.5732 34.5294 37.6279 35.2732 37.6279C36.5201 37.6279 36.5966 37.617 36.8482 37.3545C37.0013 37.2123 37.1216 36.9607 37.1216 36.8076C37.1216 36.6545 37.0013 36.4029 36.8482 36.2607C36.5966 35.9982 36.531 35.9873 35.1857 35.9873C34.4091 35.9873 33.6982 36.042 33.5888 36.1076Z" fill="#A42C24"/>
<path d="M38.9828 36.2061C38.6546 36.5342 38.6874 37.1139 39.0484 37.3982C39.3328 37.6279 39.4312 37.6279 45.2937 37.6279H51.2437L51.5062 37.3545C51.8562 37.0154 51.8671 36.5451 51.5281 36.2279L51.2765 35.9873H45.239C39.3437 35.9873 39.2015 35.9873 38.9828 36.2061Z" fill="#A42C24"/>
<path d="M39.0033 39.7061C38.6533 40.0342 38.6752 40.6029 39.047 40.8982C39.3314 41.1279 39.4299 41.1279 45.2924 41.1279H51.2424L51.5049 40.8545C51.658 40.7123 51.7783 40.4607 51.7783 40.3076C51.7783 40.1545 51.658 39.9029 51.5049 39.7607L51.2424 39.4873H45.2377C39.3533 39.4873 39.233 39.4873 39.0033 39.7061Z" fill="#A42C24"/>
</g>
<defs>
<clipPath id="clip0_210_471">
<rect width="56" height="56" fill="white" transform="translate(0.810547 0.987305)"/>
</clipPath>
</defs>
</svg>
