<svg width="44" height="44" viewBox="0 0 44 44" fill="none" xmlns="http://www.w3.org/2000/svg">
<g clip-path="url(#clip0_93_858)">
<path d="M4.64016 2.45778C4.33078 2.51794 3.71203 2.75856 3.26516 2.9734C2.60344 3.29997 2.31984 3.50622 1.75266 4.082C1.16828 4.65778 0.979219 4.92419 0.66125 5.5945C-0.0434376 7.04684 -0.000468898 5.93825 -0.000468898 22C-0.000468898 38.0617 -0.0434376 36.9531 0.66125 38.4054C0.979219 39.0758 1.16828 39.3422 1.75266 39.9179C2.31984 40.4937 2.60344 40.7 3.26516 41.0265C4.69172 41.7226 3.26516 41.6797 21.9995 41.6797C40.7339 41.6797 39.3073 41.7226 40.7339 41.0265C41.3956 40.7 41.6792 40.4937 42.2378 39.9265C42.805 39.3593 43.0112 39.0758 43.3378 38.414C44.0425 36.9617 44.0081 37.7867 43.9823 24.3203L43.9566 12.4179L43.7245 11.7304C43.1402 10.0031 41.8941 8.66247 40.2612 8.00075L39.6597 7.76012L39.5995 7.31325C39.3245 5.42263 38.0183 3.70387 36.2222 2.87887C34.9503 2.2859 35.9472 2.32028 19.7909 2.32887C7.66516 2.32887 5.10422 2.35466 4.64016 2.45778ZM34.9331 5.3195C35.2855 5.46559 35.5948 5.68044 35.9214 6.007C36.3683 6.45387 36.7808 7.14138 36.7808 7.43356C36.7808 7.54528 34.9073 7.56247 20.8222 7.57966L4.855 7.60544L4.25344 7.81169C3.92688 7.92341 3.47141 8.10387 3.24797 8.2156C3.02453 8.32731 2.81828 8.42184 2.78391 8.42184C2.74953 8.42184 2.74953 8.22419 2.78391 7.98356C2.96438 6.60856 3.91828 5.49997 5.19016 5.19059C5.53391 5.10466 8.76516 5.08747 20.023 5.09606L34.4175 5.11325L34.9331 5.3195ZM39.23 10.5617C39.9347 10.8453 40.7167 11.6273 41.0003 12.332C41.198 12.839 41.2066 12.8992 41.2066 15.5976V18.3476L36.1362 18.3906L31.0659 18.4336L30.3441 18.6828C29.3558 19.0351 28.2042 19.8172 27.5597 20.582C26.9409 21.3211 26.3394 22.5242 26.1589 23.375C25.9527 24.3375 26.03 25.7898 26.3308 26.6836C27.0355 28.7718 28.6597 30.2843 30.8511 30.9031C31.3495 31.0406 31.9081 31.0578 36.3339 31.0836L41.2581 31.1179L41.2323 33.7562C41.198 36.7984 41.155 36.9961 40.3902 37.8383C39.8917 38.3883 39.3245 38.7062 38.6284 38.8437C38.2503 38.9125 33.6698 38.9297 21.6987 38.9125L5.28469 38.8867L4.76906 38.6804C4.06437 38.3968 3.28234 37.6148 2.99875 36.9101L2.7925 36.3945V24.6211V12.8476L2.99875 12.332C3.37687 11.4039 4.40812 10.5703 5.38781 10.3984C5.61984 10.364 13.2081 10.3383 22.2573 10.3468L38.7144 10.3554L39.23 10.5617ZM41.2495 24.707V28.2734H36.5402C32.4839 28.2734 31.762 28.2562 31.3581 28.1359C29.88 27.7062 28.7972 26.2539 28.7886 24.6898C28.7886 24.1656 29.0206 23.3578 29.33 22.8336C29.7511 22.1203 30.6964 21.4242 31.5128 21.2351C31.6933 21.1922 33.9534 21.1578 36.5488 21.1492L41.2495 21.1406V24.707Z" fill="#A42C24"/>
<path d="M32.2258 23.5643C31.3235 24.0197 31.186 25.24 31.9594 25.8932C32.9047 26.6924 34.2883 26.0736 34.3055 24.8533C34.3141 23.7018 33.2485 23.0486 32.2258 23.5643Z" fill="#A42C24"/>
</g>
<defs>
<clipPath id="clip0_93_858">
<rect width="44" height="44" fill="white"/>
</clipPath>
</defs>
</svg>
