<svg width="24" height="25" viewBox="0 0 24 25" fill="none" xmlns="http://www.w3.org/2000/svg">
<path d="M19 3.84229H8C6.346 3.84229 5 5.18829 5 6.84229V7.84229H4C3.73478 7.84229 3.48043 7.94764 3.29289 8.13518C3.10536 8.32271 3 8.57707 3 8.84229C3 9.1075 3.10536 9.36186 3.29289 9.54939C3.48043 9.73693 3.73478 9.84229 4 9.84229H5V11.8423H4C3.73478 11.8423 3.48043 11.9476 3.29289 12.1352C3.10536 12.3227 3 12.5771 3 12.8423C3 13.1075 3.10536 13.3619 3.29289 13.5494C3.48043 13.7369 3.73478 13.8423 4 13.8423H5V15.8423H4C3.73478 15.8423 3.48043 15.9476 3.29289 16.1352C3.10536 16.3227 3 16.5771 3 16.8423C3 17.1075 3.10536 17.3619 3.29289 17.5494C3.48043 17.7369 3.73478 17.8423 4 17.8423H5V18.8423C5 20.4963 6.346 21.8423 8 21.8423H19C20.654 21.8423 22 20.4963 22 18.8423V6.84229C22 5.18829 20.654 3.84229 19 3.84229ZM7 6.84229C7 6.29129 7.449 5.84229 8 5.84229V7.84229H7V6.84229ZM7 9.84229H8V11.8423H7V9.84229ZM7 13.8423H8V15.8423H7V13.8423ZM7 18.8423V17.8423H8V19.8423C7.449 19.8423 7 19.3933 7 18.8423ZM20 18.8423C20 19.3933 19.551 19.8423 19 19.8423H9V5.84229H19C19.551 5.84229 20 6.29129 20 6.84229V18.8423Z" fill="#333333"/>
<path d="M14 13.3423C15.1046 13.3423 16 12.4469 16 11.3423C16 10.2377 15.1046 9.34229 14 9.34229C12.8954 9.34229 12 10.2377 12 11.3423C12 12.4469 12.8954 13.3423 14 13.3423Z" fill="#333333"/>
<path d="M14 14.1983C12.438 14.1983 11.5 14.9133 11.5 15.6273C11.5 15.9843 12.438 16.3423 14 16.3423C15.466 16.3423 16.5 15.9853 16.5 15.6273C16.5 14.9133 15.52 14.1983 14 14.1983Z" fill="#333333"/>
</svg>
