<svg width="70" height="70" viewBox="0 0 70 70" fill="none" xmlns="http://www.w3.org/2000/svg">
<rect width="70" height="70" rx="35" fill="#FCFCFC"/>
<rect x="0.5" y="0.5" width="69" height="69" rx="34.5" stroke="#7D7C83" stroke-opacity="0.2"/>
<path d="M43.5692 19.8359C42.0302 21.0156 40.0145 21.9141 38.0692 22.2812C37.577 22.375 37.1005 22.5078 37.0067 22.5781C36.8036 22.7422 36.7411 23.2187 36.6708 25.2344C36.5614 28.5234 36.9989 31.3203 37.8661 32.875C38.8661 34.6641 40.952 36.6094 43.3114 37.9453C43.788 38.2109 44.2645 38.4375 44.3739 38.4375C44.7958 38.4375 46.6395 37.3125 47.9364 36.2656C50.3974 34.2891 51.4911 32.4062 51.913 29.4375C52.0849 28.25 52.1474 25.6328 52.0458 24.1016C51.9364 22.4844 51.9599 22.5234 50.7724 22.2969C48.7099 21.8984 46.8192 21.0703 45.1942 19.8438C44.8114 19.5547 44.4911 19.375 44.3739 19.375C44.2489 19.375 43.9442 19.5547 43.5692 19.8359ZM45.0536 21.2812C46.3817 22.1953 48.1005 22.9531 49.7567 23.3516C50.288 23.4844 50.7489 23.6094 50.7724 23.6406C50.8661 23.7344 50.8192 28.3125 50.7177 29.0625C50.4911 30.6484 50.202 31.5781 49.6708 32.4688C48.7099 34.0625 46.952 35.6562 44.8192 36.8672L44.3661 37.125L43.5458 36.6328C40.7333 34.9375 38.8817 32.8359 38.3583 30.7578C38.0067 29.3594 37.9286 28.5156 37.9286 26.0391C37.9286 24.7422 37.952 23.6641 37.9755 23.6406C37.9989 23.6094 38.4442 23.4922 38.952 23.3672C40.6317 22.9531 42.163 22.2891 43.5536 21.375C43.9833 21.0938 44.3583 20.8594 44.3895 20.8594C44.413 20.8594 44.7177 21.0469 45.0536 21.2812Z" fill="#A42C24"/>
<path fill-rule="evenodd" clip-rule="evenodd" d="M43.3308 19.516L43.3275 19.5186C41.8388 20.6596 39.8813 21.5325 37.9966 21.8883C37.7408 21.937 37.487 21.9962 37.2826 22.0533C37.1808 22.0817 37.0866 22.1109 37.0082 22.1394C36.946 22.1619 36.8453 22.2005 36.7683 22.2582L36.7626 22.2625L36.757 22.267C36.5167 22.4611 36.4422 22.7806 36.3938 23.1615C36.3412 23.5745 36.3077 24.2163 36.2726 25.2205C36.1626 28.5298 36.5968 31.4178 37.5184 33.07C38.5637 34.9402 40.7125 36.9326 43.1159 38.2935L43.1183 38.2948C43.3628 38.4311 43.6098 38.5588 43.8127 38.6535C43.9136 38.7007 44.0086 38.742 44.0896 38.7724C44.1298 38.7876 44.1716 38.8019 44.212 38.813C44.2449 38.8221 44.3065 38.8376 44.3755 38.8376C44.499 38.8376 44.627 38.8005 44.7292 38.7646C44.8415 38.7251 44.9678 38.6703 45.1016 38.6057C45.3699 38.4762 45.6926 38.2957 46.0369 38.0857C46.7258 37.6656 47.5254 37.1128 48.189 36.5772C49.4452 35.5682 50.3714 34.5678 51.0367 33.425C51.7024 32.2811 52.0942 31.0161 52.3105 29.4946C52.4874 28.2722 52.5494 25.6262 52.4465 24.0752C52.4444 24.0448 52.4424 24.0143 52.4404 23.9848C52.4165 23.6299 52.397 23.3403 52.3654 23.114C52.3318 22.8729 52.2774 22.6387 52.1414 22.4467C51.9938 22.2382 51.7906 22.1336 51.5808 22.0663C51.4035 22.0093 51.1796 21.9668 50.9294 21.9193C50.9028 21.9143 50.876 21.9092 50.8489 21.9041C48.8438 21.5167 47.011 20.7128 45.4368 19.5246C45.2358 19.3728 45.0453 19.2452 44.8838 19.1533C44.8034 19.1076 44.7241 19.0673 44.6501 19.0372C44.588 19.0119 44.486 18.9751 44.3755 18.9751C44.2647 18.9751 44.1636 19.0107 44.0985 19.0373C44.0239 19.0678 43.9453 19.1084 43.8669 19.1537C43.7095 19.2446 43.5256 19.37 43.3308 19.516ZM45.1958 19.8438C46.8208 21.0704 48.7115 21.8983 50.774 22.2967C51.3077 22.3986 51.5968 22.447 51.7632 22.6159C51.9672 22.8229 51.9872 23.2113 52.0474 24.1017C52.149 25.6329 52.0865 28.2501 51.9146 29.4376C51.4927 32.4063 50.399 34.2892 47.938 36.2657C46.6411 37.3126 44.7974 38.4376 44.3755 38.4376C44.2661 38.4376 43.7896 38.211 43.313 37.9454C40.9536 36.6095 38.8677 34.6642 37.8677 32.8751C37.0005 31.3204 36.563 28.5235 36.6724 25.2345C36.7427 23.2188 36.8052 22.7423 37.0083 22.5782C37.1021 22.5079 37.5786 22.3751 38.0708 22.2813C40.0161 21.9142 42.0318 21.0157 43.5708 19.836C43.9458 19.5548 44.2505 19.3751 44.3755 19.3751C44.4927 19.3751 44.813 19.5548 45.1958 19.8438ZM44.8263 21.6094L44.8284 21.6109C46.1985 22.5538 47.9621 23.3307 49.663 23.7401C49.9265 23.806 50.1697 23.8693 50.3486 23.9194C50.3686 23.925 50.3876 23.9304 50.4055 23.9356C50.4115 24.06 50.4161 24.2275 50.4193 24.4283C50.4264 24.8777 50.4262 25.4784 50.4199 26.1015C50.4071 27.3618 50.3696 28.6614 50.3231 29.0076C50.1006 30.5639 49.8228 31.4356 49.3294 32.2631C48.4133 33.7821 46.7145 35.3322 44.6233 36.5194L44.3731 36.6618L43.7539 36.2903C40.9854 34.6215 39.2347 32.5932 38.7478 30.6604C38.4079 29.3084 38.3302 28.5023 38.3302 26.0392C38.3302 25.3928 38.3361 24.8018 38.3448 24.3705C38.3483 24.1951 38.3523 24.0475 38.3565 23.934C38.3672 23.9311 38.3783 23.928 38.3897 23.9249C38.5622 23.8775 38.7963 23.818 39.0493 23.7557C40.7713 23.3312 42.3447 22.6494 43.7744 21.7097C43.9877 21.5701 44.1857 21.4432 44.3332 21.3519C44.3526 21.3398 44.371 21.3286 44.3882 21.3181C44.3898 21.3191 44.3914 21.3201 44.393 21.3211C44.5085 21.3938 44.6634 21.4957 44.8263 21.6094ZM38.3599 30.7579C38.8833 32.836 40.7349 34.9376 43.5474 36.6329L44.3677 37.1251L44.8208 36.8673C46.9536 35.6563 48.7115 34.0626 49.6724 32.4688C50.2036 31.5782 50.4927 30.6485 50.7193 29.0626C50.8208 28.3126 50.8677 23.7345 50.774 23.6407C50.7505 23.6095 50.2896 23.4845 49.7583 23.3517C48.1021 22.9532 46.3833 22.1954 45.0552 21.2813C44.7193 21.047 44.4146 20.8595 44.3911 20.8595C44.3599 20.8595 43.9849 21.0938 43.5552 21.3751C42.1646 22.2892 40.6333 22.9532 38.9536 23.3673C38.4458 23.4923 38.0005 23.6095 37.9771 23.6407C37.9536 23.6642 37.9302 24.7423 37.9302 26.0392C37.9302 28.5157 38.0083 29.3595 38.3599 30.7579Z" fill="#A42C24"/>
<path d="M47.7412 26.1175C47.9977 26.0227 48.265 26.0935 48.4585 26.2417C48.6524 26.3903 48.7928 26.6301 48.7928 26.9063C48.7928 27.0105 48.7587 27.1064 48.6888 27.2174C48.6219 27.3237 48.5138 27.4567 48.3484 27.6392C48.016 28.0062 47.42 28.6081 46.3668 29.6574C45.3601 30.6602 44.7569 31.2537 44.3808 31.5962C44.1935 31.7668 44.0557 31.8815 43.9484 31.9543C43.8442 32.0249 43.7421 32.0751 43.6318 32.0751C43.5349 32.0751 43.4451 32.0405 43.3529 31.9852C43.262 31.9306 43.1543 31.8468 43.018 31.728C42.7445 31.4894 42.3256 31.0821 41.6471 30.4076C41.2004 29.9609 40.7879 29.5327 40.4839 29.2031C40.3321 29.0385 40.2059 28.897 40.1155 28.7891C40.0705 28.7355 40.0324 28.6879 40.004 28.6488C39.9899 28.6295 39.9763 28.6096 39.965 28.5906C39.957 28.5771 39.9394 28.5469 39.9301 28.5098C39.8865 28.3393 39.9388 28.1363 40.0061 27.9865C40.0422 27.9062 40.0885 27.8275 40.1427 27.7611C40.1947 27.6974 40.2659 27.6303 40.3559 27.5951L40.3655 27.5916C40.463 27.5591 40.6503 27.5345 40.7959 27.5345C40.9747 27.5345 41.1306 27.6258 41.3566 27.8143C41.5879 28.0072 41.9342 28.3399 42.4989 28.8968L43.6782 30.0621L45.5451 28.2024C45.5451 28.2025 45.5452 28.2024 45.5451 28.2024C46.0968 27.6508 46.6135 27.1458 47.0004 26.7755C47.1938 26.5905 47.3553 26.4385 47.473 26.3308C47.5316 26.2771 47.5806 26.2334 47.6176 26.2019C47.6359 26.1862 47.6528 26.1722 47.6676 26.1608C47.6748 26.1553 47.6833 26.149 47.6923 26.143C47.698 26.1392 47.7168 26.1267 47.7412 26.1175Z" fill="#A42C24"/>
<path d="M45.5451 28.2024L43.6782 30.0621L42.4989 28.8968C41.9342 28.3399 41.5879 28.0072 41.3566 27.8143C41.1306 27.6258 40.9747 27.5345 40.7959 27.5345C40.6503 27.5345 40.463 27.5591 40.3655 27.5916L40.3559 27.5951C40.2659 27.6303 40.1947 27.6974 40.1427 27.7611C40.0885 27.8275 40.0422 27.9062 40.0061 27.9865C39.9388 28.1363 39.8865 28.3393 39.9301 28.5098C39.9394 28.5469 39.957 28.5771 39.965 28.5906C39.9763 28.6096 39.9899 28.6295 40.004 28.6488C40.0324 28.6879 40.0705 28.7355 40.1155 28.7891C40.2059 28.897 40.3321 29.0385 40.4839 29.2031C40.7879 29.5327 41.2004 29.9609 41.6471 30.4076C42.3256 31.0821 42.7445 31.4894 43.018 31.728C43.1543 31.8468 43.262 31.9306 43.3529 31.9852C43.4451 32.0405 43.5349 32.0751 43.6318 32.0751C43.7421 32.0751 43.8442 32.0249 43.9484 31.9543C44.0557 31.8815 44.1935 31.7668 44.3808 31.5962C44.7569 31.2537 45.3601 30.6602 46.3668 29.6574C47.42 28.6081 48.016 28.0062 48.3484 27.6392C48.5137 27.4567 48.6219 27.3237 48.6888 27.2174C48.7587 27.1064 48.7928 27.0105 48.7928 26.9063C48.7928 26.6301 48.6524 26.3903 48.4585 26.2417C48.265 26.0935 47.9977 26.0227 47.7412 26.1175C47.7168 26.1267 47.698 26.1392 47.6923 26.143C47.6833 26.149 47.6748 26.1553 47.6676 26.1608C47.6528 26.1722 47.6359 26.1862 47.6176 26.2019C47.5806 26.2334 47.5316 26.2771 47.473 26.3308C47.3553 26.4385 47.1938 26.5905 47.0004 26.7755C46.6135 27.1458 46.0968 27.6508 45.5451 28.2024ZM45.5451 28.2024C45.5452 28.2024 45.5451 28.2025 45.5451 28.2024Z" stroke="#A42C24" stroke-width="0.4"/>
<path d="M20.2038 26.375C19.9381 26.4609 19.7038 26.6172 19.4069 26.9062C18.7038 27.6172 18.7506 26.8359 18.7506 37.5C18.7506 48.1641 18.7038 47.3828 19.4069 48.0938C20.1256 48.8047 18.8678 48.75 33.7506 48.75C48.6334 48.75 47.3756 48.8047 48.0944 48.0938C48.7662 47.4219 48.7506 47.5234 48.7506 42.6797V38.5078L48.5553 38.3203C48.3287 38.0859 47.9772 38.0703 47.7272 38.2734L47.5397 38.4219L47.5006 42.6875L47.4616 46.9531L47.2037 47.2031L46.9537 47.4609H33.7506H20.5475L20.2975 47.2031L20.0397 46.9531V37.5V28.0469L20.2975 27.7969L20.5475 27.5391L27.7819 27.5L35.0162 27.4609L35.1647 27.2734C35.3678 27.0234 35.3522 26.6719 35.1178 26.4453L34.9303 26.25L27.7584 26.2578C21.6178 26.2578 20.5319 26.2812 20.2038 26.375Z" fill="#A42C24"/>
<path fill-rule="evenodd" clip-rule="evenodd" d="M20.0803 25.9945C19.7347 26.1063 19.4488 26.3069 19.1275 26.6198L19.1221 26.625C19.0839 26.6636 19.0478 26.6977 19.0095 26.7337L19.0036 26.7393C18.9685 26.7722 18.9285 26.8097 18.8905 26.8486C18.8044 26.9367 18.7193 27.0404 18.648 27.1863C18.515 27.4583 18.4536 27.8333 18.4155 28.446C18.3481 29.532 18.3487 31.5709 18.3499 35.6174C18.3501 36.202 18.3503 36.8285 18.3503 37.5001C18.3503 38.1717 18.3501 38.7982 18.3499 39.3828C18.3487 43.4293 18.3481 45.4682 18.4155 46.5542C18.4536 47.1669 18.515 47.5419 18.648 47.8139C18.7193 47.9598 18.8044 48.0635 18.8905 48.1516C18.9285 48.1905 18.9685 48.228 19.0036 48.261C19.0056 48.2628 19.0076 48.2647 19.0095 48.2665C19.0478 48.3025 19.084 48.3365 19.1221 48.3751L19.1252 48.3783C19.1602 48.4128 19.1902 48.446 19.2218 48.4821C19.2271 48.4882 19.2328 48.4947 19.2387 48.5015C19.2651 48.5317 19.2972 48.5686 19.3293 48.6022C19.42 48.6973 19.53 48.789 19.6971 48.8625C19.9916 48.992 20.4417 49.0511 21.2485 49.0882C22.6592 49.153 25.3698 49.1522 30.7838 49.1507C31.694 49.1504 32.6806 49.1501 33.7502 49.1501C34.8199 49.1501 35.8065 49.1504 36.7167 49.1507C42.1307 49.1522 44.8413 49.153 46.252 49.0882C47.0588 49.0511 47.5089 48.992 47.8035 48.8625C47.9705 48.789 48.0805 48.6973 48.1712 48.6022C48.2033 48.5686 48.2354 48.5317 48.2618 48.5014C48.2677 48.4946 48.2734 48.4882 48.2787 48.4821C48.3103 48.446 48.3403 48.4128 48.3753 48.3782L48.3768 48.3767C48.3902 48.3633 48.4038 48.3498 48.4174 48.3363C48.5604 48.1941 48.7119 48.0434 48.8261 47.846C48.9572 47.6196 49.0279 47.358 49.0712 46.9992C49.1506 46.3405 49.1505 45.2096 49.1503 43.0481C49.1502 42.9285 49.1502 42.8058 49.1502 42.6798V38.3374L48.8367 38.0364C48.4627 37.6556 47.8817 37.6341 47.4768 37.9613L47.1411 38.2271L47.0627 46.7824L46.9161 46.9246L46.7841 47.061H20.7165L20.5757 46.9159L20.4393 46.7839V28.2163L20.5845 28.0756L20.7173 27.9382L35.2102 27.86L35.4766 27.5235C35.8037 27.1186 35.7822 26.5375 35.4014 26.1636L35.1002 25.8499L27.758 25.8579C27.7579 25.8579 27.7582 25.8579 27.758 25.8579C24.6888 25.8579 22.8785 25.8638 21.7946 25.8814C21.2532 25.8902 20.8872 25.902 20.6336 25.918C20.3862 25.9336 20.2199 25.9544 20.0935 25.9905L20.0803 25.9945ZM35.1174 26.4454C35.3518 26.672 35.3674 27.0235 35.1643 27.2735L35.0159 27.461L20.5472 27.5392L20.2972 27.797L20.0393 28.047V46.9532L20.2972 47.2032L20.5472 47.461H46.9534L47.2034 47.2032L47.4612 46.9532L47.5393 38.422L47.7268 38.2735C47.9768 38.0704 48.3284 38.086 48.5549 38.3204L48.7502 38.5079V42.6798C48.7502 46.5405 48.7602 47.2595 48.424 47.7325C48.3384 47.853 48.2303 47.9575 48.094 48.0939C47.9907 48.196 47.9282 48.2824 47.8528 48.3553C47.4034 48.7902 46.4944 48.7501 33.7502 48.7501C21.0061 48.7501 20.0971 48.7902 19.6477 48.3553C19.5723 48.2824 19.5098 48.196 19.4065 48.0939C19.296 47.9821 19.204 47.9072 19.1274 47.8189C18.717 47.3457 18.7503 46.4876 18.7503 37.5001C18.7503 28.5126 18.717 27.6545 19.1274 27.1813C19.204 27.093 19.296 27.0181 19.4065 26.9063C19.7034 26.6173 19.9378 26.461 20.2034 26.3751C20.5315 26.2813 21.6175 26.2579 27.758 26.2579L34.9299 26.2501L35.1174 26.4454Z" fill="#A42C24"/>
<path d="M33.5737 45.0667C33.9026 44.9689 34.2272 44.752 34.4901 44.4891C34.7529 44.2263 34.9697 43.9019 35.0675 43.5732C35.2107 43.0975 35.2349 42.5038 35.1655 41.9094C35.0959 41.3134 34.9304 40.7014 34.681 40.1863C34.1372 39.0661 33.1396 38.1224 32.0347 37.6965C32.0344 37.6964 32.035 37.6966 32.0347 37.6965L31.8388 37.6188L32.0065 37.4168L32.008 37.4149C33.398 35.6979 33.3333 33.3753 31.8274 31.7547C30.8245 30.6698 29.1235 30.1702 27.7071 30.549C26.1772 30.9663 24.9721 32.1935 24.6111 33.7196C24.2992 35.0328 24.6132 36.3302 25.5018 37.4149L25.6715 37.627L25.4875 37.6948C25.4874 37.6948 25.4877 37.6947 25.4875 37.6948C25.1511 37.8168 24.7589 38.0451 24.4 38.306C24.0405 38.5674 23.6998 38.872 23.4705 39.1555C22.9771 39.7712 22.621 40.5458 22.4363 41.326C22.2519 42.1047 22.2342 42.9054 22.4344 43.5729C22.5322 43.9017 22.749 44.2262 23.0119 44.4891C23.2748 44.752 23.5993 44.9688 23.9281 45.0666M33.5737 45.0667C33.5149 45.0843 33.4293 45.0966 33.3349 45.1068C33.2354 45.1175 33.1107 45.1273 32.9655 45.1361C32.6747 45.1539 32.2949 45.1687 31.857 45.1804C30.9806 45.2039 29.8654 45.2156 28.751 45.2156C27.6366 45.2156 26.5214 45.2039 25.6451 45.1804C25.2071 45.1687 24.8273 45.1539 24.5365 45.1361C24.3913 45.1273 24.2666 45.1175 24.1671 45.1068C24.0726 45.0966 23.9869 45.0842 23.9281 45.0666M33.5737 45.0667C33.5736 45.0667 33.5738 45.0666 33.5737 45.0667V45.0667ZM29.8087 32.3226C30.3659 32.5759 30.8627 33.072 31.1243 33.6311C31.2153 33.8282 31.2622 33.9555 31.2889 34.096C31.3163 34.24 31.3244 34.4071 31.3244 34.6875C31.3244 34.9678 31.3163 35.135 31.2889 35.279C31.2622 35.4195 31.2153 35.5468 31.1243 35.7439C30.8629 36.3026 30.3662 36.7993 29.8 37.0606L29.7987 37.0612C29.6056 37.1521 29.4804 37.1988 29.3413 37.2254C29.1985 37.2528 29.0315 37.2609 28.751 37.2609C28.4706 37.2609 28.3036 37.2528 28.1607 37.2254C28.0216 37.1988 27.8964 37.1521 27.7034 37.0612L27.702 37.0606C27.1358 36.7993 26.6391 36.3026 26.3777 35.7439C26.2868 35.5468 26.2399 35.4195 26.2131 35.279C26.1857 35.135 26.1776 34.9678 26.1776 34.6875C26.1776 34.4071 26.1857 34.2401 26.2131 34.0972C26.2397 33.9581 26.2864 33.8329 26.3773 33.6398C27.0049 32.3042 28.5071 31.7296 29.8087 32.3226ZM33.5357 42.6602L33.5356 42.6621C33.5237 42.905 33.5101 43.0159 33.4826 43.0929C33.4592 43.1584 33.4218 43.2104 33.3127 43.3195L33.1213 43.5109H24.3807L24.1893 43.3195C24.0802 43.2104 24.0428 43.1584 24.0194 43.0929C23.9919 43.0159 23.9783 42.905 23.9664 42.662L23.9663 42.6604C23.8702 40.9817 24.9411 39.4971 26.5599 39.0606C26.6875 39.0276 26.9817 38.9982 27.3831 38.9779C27.7773 38.958 28.2551 38.9476 28.7346 38.9471C29.2142 38.9466 29.6933 38.9561 30.0903 38.9758C30.4949 38.9958 30.7936 39.0257 30.9265 39.0606C31.5398 39.2231 32.0406 39.5096 32.5245 39.9861C33.2326 40.6868 33.595 41.646 33.5357 42.6602Z" fill="#A42C24"/>
<path d="M33.5737 45.0667C33.9026 44.9689 34.2272 44.752 34.4901 44.4891C34.7529 44.2263 34.9697 43.9019 35.0675 43.5732C35.2107 43.0975 35.2349 42.5038 35.1655 41.9094C35.0959 41.3134 34.9304 40.7014 34.681 40.1863C34.1372 39.0661 33.1396 38.1224 32.0347 37.6965M33.5737 45.0667C33.5149 45.0843 33.4293 45.0966 33.3349 45.1068C33.2354 45.1175 33.1107 45.1273 32.9655 45.1361C32.6747 45.1539 32.2949 45.1687 31.857 45.1804C30.9806 45.2039 29.8654 45.2156 28.751 45.2156C27.6366 45.2156 26.5214 45.2039 25.6451 45.1804C25.2071 45.1687 24.8273 45.1539 24.5365 45.1361C24.3913 45.1273 24.2666 45.1175 24.1671 45.1068C24.0726 45.0966 23.9869 45.0842 23.9281 45.0666M33.5737 45.0667L33.5166 44.875M33.5737 45.0667C33.5736 45.0667 33.5738 45.0666 33.5737 45.0667ZM32.0347 37.6965C32.0344 37.6964 32.035 37.6966 32.0347 37.6965ZM32.0347 37.6965L31.8388 37.6188L32.0065 37.4168L32.008 37.4149C33.398 35.6979 33.3333 33.3753 31.8274 31.7547C30.8245 30.6698 29.1235 30.1702 27.7071 30.549C26.1772 30.9663 24.9721 32.1935 24.6111 33.7196C24.2992 35.0328 24.6132 36.3302 25.5018 37.4149L25.6715 37.627L25.4875 37.6948M25.4875 37.6948C25.4874 37.6948 25.4877 37.6947 25.4875 37.6948ZM25.4875 37.6948C25.1511 37.8168 24.7589 38.0451 24.4 38.306C24.0405 38.5674 23.6998 38.872 23.4705 39.1555C22.9771 39.7712 22.621 40.5458 22.4363 41.326C22.2519 42.1047 22.2342 42.9054 22.4344 43.5729C22.5322 43.9017 22.749 44.2262 23.0119 44.4891C23.2748 44.752 23.5993 44.9688 23.9281 45.0666M23.9281 45.0666C23.9281 45.0666 23.9282 45.0666 23.9281 45.0666ZM23.9281 45.0666L23.9854 44.875M29.8087 32.3226C30.3659 32.5759 30.8627 33.072 31.1243 33.6311C31.2153 33.8282 31.2622 33.9555 31.2889 34.096C31.3163 34.24 31.3244 34.4071 31.3244 34.6875C31.3244 34.9678 31.3163 35.135 31.2889 35.279C31.2622 35.4195 31.2153 35.5468 31.1243 35.7439C30.8629 36.3026 30.3662 36.7993 29.8 37.0606L29.7987 37.0612C29.6056 37.1521 29.4804 37.1988 29.3413 37.2254C29.1985 37.2528 29.0315 37.2609 28.751 37.2609C28.4706 37.2609 28.3036 37.2528 28.1607 37.2254C28.0216 37.1988 27.8964 37.1521 27.7034 37.0612L27.702 37.0606C27.1358 36.7993 26.6391 36.3026 26.3777 35.7439C26.2868 35.5468 26.2399 35.4195 26.2131 35.279C26.1857 35.135 26.1776 34.9678 26.1776 34.6875C26.1776 34.4071 26.1857 34.2401 26.2131 34.0972C26.2397 33.9581 26.2864 33.8329 26.3773 33.6398C27.0049 32.3042 28.5071 31.7296 29.8087 32.3226ZM33.5357 42.6602L33.5356 42.6621C33.5237 42.905 33.5101 43.0159 33.4826 43.0929C33.4592 43.1584 33.4218 43.2104 33.3127 43.3195L33.1213 43.5109H24.3807L24.1893 43.3195C24.0802 43.2104 24.0428 43.1584 24.0194 43.0929C23.9919 43.0159 23.9783 42.905 23.9664 42.662L23.9663 42.6604C23.8702 40.9817 24.9411 39.4971 26.5599 39.0606C26.6875 39.0276 26.9817 38.9982 27.3831 38.9779C27.7773 38.958 28.2551 38.9476 28.7346 38.9471C29.2142 38.9466 29.6933 38.9561 30.0903 38.9758C30.4949 38.9958 30.7936 39.0257 30.9265 39.0606C31.5398 39.2231 32.0406 39.5096 32.5245 39.9861C33.2326 40.6868 33.595 41.646 33.5357 42.6602Z" stroke="#A42C24" stroke-width="0.4"/>
<path d="M37.8836 41.4501H37.7984L37.7393 41.3885L37.5552 41.1967C37.3949 41.0443 37.3008 40.8304 37.3008 40.625C37.3008 40.4196 37.3949 40.2058 37.5552 40.0534L37.7393 39.8615L37.7984 39.8H37.8836H40.0008H42.118H42.2032L42.2623 39.8615L42.4464 40.0534C42.6067 40.2058 42.7008 40.4196 42.7008 40.625C42.7008 40.8304 42.6067 41.0443 42.4464 41.1967L42.2623 41.3885L42.2032 41.4501H42.118H40.0008H37.8836Z" fill="#A42C24" stroke="#A42C24" stroke-width="0.4"/>
<path d="M37.8836 45.2001H37.7984L37.7393 45.1385L37.5552 44.9467C37.3949 44.7943 37.3008 44.5804 37.3008 44.375C37.3008 44.1696 37.3949 43.9558 37.5552 43.8034L37.7393 43.6115L37.7984 43.55H37.8836H41.2508H44.618H44.7032L44.7623 43.6115L44.9464 43.8034C45.1067 43.9558 45.2008 44.1696 45.2008 44.375C45.2008 44.5804 45.1067 44.7943 44.9464 44.9467L44.7623 45.1385L44.7032 45.2001H44.618H41.2508H37.8836Z" fill="#A42C24" stroke="#A42C24" stroke-width="0.4"/>
</svg>
