<svg width="26" height="24" viewBox="0 0 26 24" fill="none" xmlns="http://www.w3.org/2000/svg">
<path d="M13.137 0.0782262C11.0767 0.102394 10.3215 0.126562 10.2248 0.180939C9.71727 0.476994 9.71727 1.28057 10.2248 1.58871C10.4 1.69747 10.5329 1.70955 11.5238 1.70955C12.3455 1.70955 12.6778 1.73372 12.8349 1.79414C13.4331 2.0479 13.4391 3.02065 12.841 3.30462C12.6597 3.38921 12.2368 3.40129 9.25808 3.40129C6.06794 3.40129 5.87459 3.40734 5.69938 3.51609C5.20394 3.81819 5.20998 4.56135 5.7175 4.89365C5.86251 4.99033 6.10419 5.00845 7.91677 5.03262L9.95291 5.06283L10.116 5.21388C10.4604 5.5341 10.539 5.93891 10.3275 6.2833C10.0737 6.70624 10.1825 6.68811 7.08298 6.72436L4.28556 6.75457L4.06805 6.97208C3.67533 7.36481 3.7297 7.96296 4.18285 8.23485C4.36411 8.34965 4.50307 8.35569 7.11923 8.35569C9.75956 8.35569 9.86832 8.36173 10.0556 8.47653C10.5692 8.79071 10.5571 9.57012 10.0435 9.90847C9.89853 10.0051 9.64477 10.0233 7.57842 10.0474C5.00455 10.0837 5.06497 10.0716 4.85955 10.5308C4.73267 10.8087 4.76892 11.1048 4.96226 11.3465C5.21602 11.6667 5.30061 11.6788 7.74156 11.6788C9.86832 11.6788 10.0073 11.6848 10.1885 11.7996C10.7263 12.1259 10.684 12.9536 10.116 13.2678C10.0375 13.3101 9.04661 13.3463 7.17361 13.3645L4.34598 13.4007L4.15868 13.588C3.80825 13.9384 3.88075 14.5668 4.29765 14.8206C4.49099 14.9354 4.5937 14.9414 7.25216 14.9414H10.0133L11.548 13.3765L13.0826 11.8117L12.9074 11.576C12.6537 11.2437 12.3516 10.6214 12.1884 10.1079C12.0676 9.72117 12.0495 9.52783 12.0495 8.77862C12.0495 8.02942 12.0676 7.83608 12.1884 7.4494C12.7262 5.7214 14.1883 4.36801 15.8559 4.05382L16.2486 3.97528V1.99956V0.0178068L16.0855 0.0298907C15.9888 0.0419746 14.6656 0.0601004 13.137 0.0782262Z" fill="#E75E41"/>
<path d="M17.457 1.9878V3.9756L17.9283 4.08435C19.62 4.465 21.0459 5.86069 21.5112 7.60077C21.6078 7.96328 21.638 8.25934 21.638 8.77894C21.638 10.954 20.2726 12.7666 18.1518 13.4071C17.6987 13.54 17.4872 13.5702 16.883 13.5762C15.9103 13.5762 15.1792 13.3769 14.3575 12.8875L13.9587 12.6458L12.4845 14.1381C11.6688 14.9659 10.9378 15.7211 10.8532 15.8238L10.6961 16.0111L11.0103 16.5187C12.7201 19.2315 15.9888 23.63 16.4903 23.8838C16.7682 24.0288 17.022 24.0348 17.306 23.9201C17.5295 23.8234 18.3754 22.8023 19.7409 20.9716C23.4748 15.9568 25.5532 12.102 25.9218 9.51002C26.097 8.2835 25.7466 6.49509 25.0457 5.01481C23.7708 2.33823 20.8586 0.302098 17.9283 0.0422943L17.457 6.94604e-07V1.9878Z" fill="#342951"/>
<path d="M1.62709 4.83937C1.17998 5.06293 1.02893 5.56441 1.27665 6.00547C1.46999 6.3559 1.66938 6.42236 2.5515 6.42236C3.2282 6.42236 3.31883 6.41028 3.50613 6.2834C4.06803 5.9088 4.03178 5.14147 3.43363 4.83937C3.27654 4.75479 3.07715 4.73062 2.53338 4.73062C1.9896 4.73062 1.79022 4.75479 1.62709 4.83937Z" fill="#342951"/>
<path d="M0.376436 13.4309C-0.143171 13.7451 -0.119003 14.5729 0.412688 14.8508C0.696659 14.9958 1.65733 14.9777 1.91713 14.8206C2.42465 14.5125 2.39445 13.7028 1.86275 13.4189C1.5667 13.2618 0.648324 13.2618 0.376436 13.4309Z" fill="#342951"/>
<path d="M14.4645 11.9152L18.8649 10.9068C19.0596 10.8623 19.2333 10.753 19.3578 10.5969C19.4822 10.4408 19.55 10.247 19.5501 10.0473V9.908C19.5502 9.77722 19.5211 9.64807 19.4652 9.52991C19.4091 9.41175 19.3276 9.3075 19.2263 9.22472C19.1251 9.14197 19.0067 9.08276 18.8799 9.0514C18.7529 9.02 18.6206 9.01723 18.4925 9.04329L14.2666 9.90075C14.1484 9.92475 14.0266 9.92424 13.9086 9.89927C13.7906 9.8743 13.679 9.82541 13.5806 9.75555C13.4823 9.68574 13.3993 9.59645 13.3369 9.49329C13.2744 9.39013 13.2337 9.27525 13.2174 9.15573L13.2142 9.13196C13.1839 8.91006 13.239 8.68487 13.3685 8.50217C13.498 8.31944 13.6922 8.19284 13.9116 8.14806L18.8794 7.13247C19.0619 7.09517 19.1757 7.3243 19.0357 7.44732L14.3042 11.6014C14.1614 11.7258 14.2806 11.9572 14.4645 11.9152Z" fill="#FCC464"/>
<path d="M18.6882 6.85848C19.05 6.85848 19.3433 6.57142 19.3433 6.21731C19.3433 5.86323 19.05 5.57617 18.6882 5.57617C18.3264 5.57617 18.0331 5.86323 18.0331 6.21731C18.0331 6.57142 18.3264 6.85848 18.6882 6.85848Z" fill="#FCC464"/>
</svg>
