<svg width="40" height="40" viewBox="0 0 40 40" fill="none" xmlns="http://www.w3.org/2000/svg">
<path d="M32.5 12.4999H29.0475C29.8554 11.2973 30.1665 9.8287 29.9158 8.40177C29.665 6.97484 28.8719 5.70029 27.7024 4.84509C26.533 3.98989 25.078 3.62039 23.6422 3.814C22.2064 4.0076 20.9012 4.74929 20 5.88369C19.0988 4.74929 17.7936 4.0076 16.3578 3.814C14.922 3.62039 13.467 3.98989 12.2976 4.84509C11.1281 5.70029 10.335 6.97484 10.0842 8.40177C9.83349 9.8287 10.1446 11.2973 10.9525 12.4999H7.5C6.83716 12.5006 6.20166 12.7642 5.73296 13.2329C5.26427 13.7016 5.00066 14.3371 5 14.9999V19.9999C5.00066 20.6628 5.26427 21.2983 5.73296 21.767C6.20166 22.2357 6.83716 22.4993 7.5 22.4999V34.9999C7.50066 35.6628 7.76427 36.2983 8.23296 36.767C8.70166 37.2357 9.33716 37.4993 10 37.4999H30C30.6628 37.4993 31.2983 37.2357 31.767 36.767C32.2357 36.2983 32.4993 35.6628 32.5 34.9999V22.4999C33.1628 22.4993 33.7983 22.2357 34.267 21.767C34.7357 21.2983 34.9993 20.6628 35 19.9999V14.9999C34.9993 14.3371 34.7357 13.7016 34.267 13.2329C33.7983 12.7642 33.1628 12.5006 32.5 12.4999ZM21.25 9.37494C21.25 8.75688 21.4333 8.15269 21.7767 7.63879C22.12 7.12488 22.6081 6.72434 23.1791 6.48782C23.7501 6.2513 24.3785 6.18941 24.9847 6.30999C25.5908 6.43057 26.1477 6.7282 26.5847 7.16523C27.0217 7.60227 27.3194 8.1591 27.44 8.76529C27.5605 9.37148 27.4986 9.99981 27.2621 10.5708C27.0256 11.1418 26.6251 11.6299 26.1112 11.9733C25.5973 12.3167 24.9931 12.4999 24.375 12.4999H21.25V9.37494ZM15.625 6.24994C16.4535 6.25094 17.2478 6.58049 17.8336 7.16633C18.4194 7.75217 18.749 8.54645 18.75 9.37494V12.4999H15.625C14.7962 12.4999 14.0013 12.1707 13.4153 11.5847C12.8292 10.9986 12.5 10.2037 12.5 9.37494C12.5 8.54614 12.8292 7.75129 13.4153 7.16523C14.0013 6.57918 14.7962 6.24994 15.625 6.24994ZM7.5 14.9999H18.75V19.9999H7.5V14.9999ZM10 22.4999H18.75V34.9999H10V22.4999ZM30.0012 34.9999H21.25V22.4999H30L30.0012 34.9999ZM21.25 19.9999V14.9999H32.5L32.5012 19.9999H21.25Z" fill="#A42C24"/>
</svg>
