<svg width="131" height="131" viewBox="0 0 131 131" fill="none" xmlns="http://www.w3.org/2000/svg">
<path fill-rule="evenodd" clip-rule="evenodd" d="M35.8209 100.097C57.9245 96.8681 73.1436 97.1458 95.2763 100.21C96.8792 100.443 98.3438 101.247 99.3997 102.475C100.456 103.703 101.032 105.272 101.021 106.891C101.021 108.441 100.488 109.946 99.5259 111.122C97.8487 113.171 96.1304 115.186 94.3721 117.167H102.9C103.436 116.527 103.976 115.875 104.521 115.213C106.437 112.864 107.482 109.926 107.479 106.895C107.479 100.356 102.707 94.7207 96.1611 93.8166C73.5053 90.681 57.6694 90.3807 34.8877 93.71C28.2743 94.6755 23.521 100.398 23.521 106.982C23.521 109.904 24.4736 112.794 26.2787 115.136C26.8115 115.827 27.3379 116.505 27.861 117.17H36.1826C34.5467 115.211 32.9512 113.22 31.3969 111.196C30.4733 109.984 29.975 108.502 29.9793 106.979C29.9793 103.501 32.4787 100.585 35.8209 100.097ZM65.5002 68.7292C68.0445 68.7292 70.564 68.228 72.9147 67.2543C75.2653 66.2806 77.4012 64.8535 79.2004 63.0544C80.9995 61.2552 82.4266 59.1193 83.4003 56.7687C84.374 54.418 84.8752 51.8985 84.8752 49.3542C84.8752 46.8098 84.374 44.2904 83.4003 41.9397C82.4266 39.589 80.9995 37.4531 79.2004 35.654C77.4012 33.8548 75.2653 32.4277 72.9147 31.454C70.564 30.4803 68.0445 29.9792 65.5002 29.9792C60.3616 29.9792 55.4335 32.0205 51.8 35.654C48.1665 39.2875 46.1252 44.2156 46.1252 49.3542C46.1252 54.4927 48.1665 59.4208 51.8 63.0544C55.4335 66.6879 60.3616 68.7292 65.5002 68.7292ZM65.5002 75.1875C72.3516 75.1875 78.9224 72.4658 83.7671 67.6211C88.6118 62.7764 91.3335 56.2056 91.3335 49.3542C91.3335 42.5027 88.6118 35.9319 83.7671 31.0872C78.9224 26.2425 72.3516 23.5208 65.5002 23.5208C58.6487 23.5208 52.0779 26.2425 47.2332 31.0872C42.3885 35.9319 39.6668 42.5027 39.6668 49.3542C39.6668 56.2056 42.3885 62.7764 47.2332 67.6211C52.0779 72.4658 58.6487 75.1875 65.5002 75.1875Z" fill="#F8F8F8"/>
<path fill-rule="evenodd" clip-rule="evenodd" d="M65.5001 123.625C97.6012 123.625 123.625 97.6011 123.625 65.5C123.625 33.3989 97.6012 7.375 65.5001 7.375C33.3989 7.375 7.37508 33.3989 7.37508 65.5C7.37508 97.6011 33.3989 123.625 65.5001 123.625ZM65.5001 130.083C101.169 130.083 130.083 101.169 130.083 65.5C130.083 29.8306 101.169 0.916664 65.5001 0.916664C29.8307 0.916664 0.916748 29.8306 0.916748 65.5C0.916748 101.169 29.8307 130.083 65.5001 130.083Z" fill="#F8F8F8"/>
</svg>
