<svg width="26" height="20" viewBox="0 0 26 20" fill="none" xmlns="http://www.w3.org/2000/svg">
<path d="M12.6136 15L14.2614 13.3523L12.1023 11.1932L10.4545 12.8409V13.6364H11.8182V15H12.6136ZM18.8636 4.77273C18.7121 4.62121 18.5559 4.62595 18.3949 4.78693L13.4233 9.75852C13.2623 9.91951 13.2576 10.0758 13.4091 10.2273C13.5606 10.3788 13.7169 10.3741 13.8778 10.2131L18.8494 5.24148C19.0104 5.08049 19.0152 4.92424 18.8636 4.77273ZM20 13.2102V15.9091C20 17.036 19.5999 17.9995 18.7997 18.7997C17.9995 19.5999 17.036 20 15.9091 20H4.09091C2.96402 20 2.00047 19.5999 1.20028 18.7997C0.400095 17.9995 0 17.036 0 15.9091V4.09091C0 2.96402 0.400095 2.00047 1.20028 1.20028C2.00047 0.400095 2.96402 0 4.09091 0H15.9091C16.5057 0 17.0597 0.118371 17.571 0.355114C17.7131 0.421402 17.7983 0.530303 17.8267 0.681818C17.8551 0.842803 17.8125 0.980114 17.6989 1.09375L17.0028 1.78977C16.8703 1.92235 16.7188 1.96023 16.5483 1.90341C16.3305 1.84659 16.1174 1.81818 15.9091 1.81818H4.09091C3.46591 1.81818 2.93087 2.04072 2.4858 2.4858C2.04072 2.93087 1.81818 3.46591 1.81818 4.09091V15.9091C1.81818 16.5341 2.04072 17.0691 2.4858 17.5142C2.93087 17.9593 3.46591 18.1818 4.09091 18.1818H15.9091C16.5341 18.1818 17.0691 17.9593 17.5142 17.5142C17.9593 17.0691 18.1818 16.5341 18.1818 15.9091V14.1193C18.1818 13.9962 18.2244 13.892 18.3097 13.8068L19.2188 12.8977C19.3608 12.7557 19.5265 12.7225 19.7159 12.7983C19.9053 12.8741 20 13.0114 20 13.2102ZM18.6364 2.72727L22.7273 6.81818L13.1818 16.3636H9.09091V12.2727L18.6364 2.72727ZM24.9432 4.60227L23.6364 5.90909L19.5455 1.81818L20.8523 0.511364C21.1174 0.246212 21.4394 0.113636 21.8182 0.113636C22.197 0.113636 22.5189 0.246212 22.7841 0.511364L24.9432 2.67045C25.2083 2.93561 25.3409 3.25758 25.3409 3.63636C25.3409 4.01515 25.2083 4.33712 24.9432 4.60227Z" fill="#545454"/>
</svg>
