<svg width="33" height="33" viewBox="0 0 33 33" fill="none" xmlns="http://www.w3.org/2000/svg">
<path d="M8.25 0.000139886H0V8.38993H8.25V0.000139886ZM6.05 6.15266H2.2V2.23742H6.05V6.15266ZM8.25 12.3052H0V20.695H8.25V12.3052ZM6.05 18.4577H2.2V14.5425H6.05V18.4577ZM8.25 24.6102H0V33H8.25V24.6102ZM6.05 30.7627H2.2V26.8475H6.05V30.7627ZM11 0H33V2.23728H11V0ZM11 6.15252H28.6V8.3898H11V6.15252ZM11 12.305H33V14.5423H11V12.305ZM11 18.4576H28.6V20.6948H11V18.4576ZM11 30.7626H28.6V32.9999H11V30.7626ZM11 24.6101H33V26.8473H11V24.6101Z" fill="#545454"/>
</svg>
